%TF.GenerationSoftware,KiCad,Pcbnew,7.0.10-1-dev-1fdf7d0cf4*%
%TF.CreationDate,2023-12-26T02:00:40-08:00*%
%TF.ProjectId,i2s_to_toslink_pcb,6932735f-746f-45f7-946f-736c696e6b5f,rev?*%
%TF.SameCoordinates,Original*%
%TF.FileFunction,Legend,Top*%
%TF.FilePolarity,Positive*%
%FSLAX46Y46*%
G04 Gerber Fmt 4.6, Leading zero omitted, Abs format (unit mm)*
G04 Created by KiCad (PCBNEW 7.0.10-1-dev-1fdf7d0cf4) date 2023-12-26 02:00:40*
%MOMM*%
%LPD*%
G01*
G04 APERTURE LIST*
%ADD10C,0.150000*%
%ADD11C,0.254000*%
%ADD12C,0.152400*%
%ADD13C,0.120000*%
%ADD14C,0.100000*%
%ADD15C,0.200000*%
%ADD16C,0.250000*%
%ADD17C,0.500000*%
%ADD18C,0.127000*%
G04 APERTURE END LIST*
D10*
X39094628Y-73247190D02*
X39570819Y-73247190D01*
X38570819Y-73580523D02*
X39094628Y-73247190D01*
X39094628Y-73247190D02*
X38570819Y-72913857D01*
X39570819Y-72056714D02*
X39570819Y-72628142D01*
X39570819Y-72342428D02*
X38570819Y-72342428D01*
X38570819Y-72342428D02*
X38713676Y-72437666D01*
X38713676Y-72437666D02*
X38808914Y-72532904D01*
X38808914Y-72532904D02*
X38856533Y-72628142D01*
X58892142Y-32055580D02*
X58844523Y-32103200D01*
X58844523Y-32103200D02*
X58701666Y-32150819D01*
X58701666Y-32150819D02*
X58606428Y-32150819D01*
X58606428Y-32150819D02*
X58463571Y-32103200D01*
X58463571Y-32103200D02*
X58368333Y-32007961D01*
X58368333Y-32007961D02*
X58320714Y-31912723D01*
X58320714Y-31912723D02*
X58273095Y-31722247D01*
X58273095Y-31722247D02*
X58273095Y-31579390D01*
X58273095Y-31579390D02*
X58320714Y-31388914D01*
X58320714Y-31388914D02*
X58368333Y-31293676D01*
X58368333Y-31293676D02*
X58463571Y-31198438D01*
X58463571Y-31198438D02*
X58606428Y-31150819D01*
X58606428Y-31150819D02*
X58701666Y-31150819D01*
X58701666Y-31150819D02*
X58844523Y-31198438D01*
X58844523Y-31198438D02*
X58892142Y-31246057D01*
X59844523Y-32150819D02*
X59273095Y-32150819D01*
X59558809Y-32150819D02*
X59558809Y-31150819D01*
X59558809Y-31150819D02*
X59463571Y-31293676D01*
X59463571Y-31293676D02*
X59368333Y-31388914D01*
X59368333Y-31388914D02*
X59273095Y-31436533D01*
X60415952Y-31579390D02*
X60320714Y-31531771D01*
X60320714Y-31531771D02*
X60273095Y-31484152D01*
X60273095Y-31484152D02*
X60225476Y-31388914D01*
X60225476Y-31388914D02*
X60225476Y-31341295D01*
X60225476Y-31341295D02*
X60273095Y-31246057D01*
X60273095Y-31246057D02*
X60320714Y-31198438D01*
X60320714Y-31198438D02*
X60415952Y-31150819D01*
X60415952Y-31150819D02*
X60606428Y-31150819D01*
X60606428Y-31150819D02*
X60701666Y-31198438D01*
X60701666Y-31198438D02*
X60749285Y-31246057D01*
X60749285Y-31246057D02*
X60796904Y-31341295D01*
X60796904Y-31341295D02*
X60796904Y-31388914D01*
X60796904Y-31388914D02*
X60749285Y-31484152D01*
X60749285Y-31484152D02*
X60701666Y-31531771D01*
X60701666Y-31531771D02*
X60606428Y-31579390D01*
X60606428Y-31579390D02*
X60415952Y-31579390D01*
X60415952Y-31579390D02*
X60320714Y-31627009D01*
X60320714Y-31627009D02*
X60273095Y-31674628D01*
X60273095Y-31674628D02*
X60225476Y-31769866D01*
X60225476Y-31769866D02*
X60225476Y-31960342D01*
X60225476Y-31960342D02*
X60273095Y-32055580D01*
X60273095Y-32055580D02*
X60320714Y-32103200D01*
X60320714Y-32103200D02*
X60415952Y-32150819D01*
X60415952Y-32150819D02*
X60606428Y-32150819D01*
X60606428Y-32150819D02*
X60701666Y-32103200D01*
X60701666Y-32103200D02*
X60749285Y-32055580D01*
X60749285Y-32055580D02*
X60796904Y-31960342D01*
X60796904Y-31960342D02*
X60796904Y-31769866D01*
X60796904Y-31769866D02*
X60749285Y-31674628D01*
X60749285Y-31674628D02*
X60701666Y-31627009D01*
X60701666Y-31627009D02*
X60606428Y-31579390D01*
X79354819Y-56739257D02*
X78878628Y-57072590D01*
X79354819Y-57310685D02*
X78354819Y-57310685D01*
X78354819Y-57310685D02*
X78354819Y-56929733D01*
X78354819Y-56929733D02*
X78402438Y-56834495D01*
X78402438Y-56834495D02*
X78450057Y-56786876D01*
X78450057Y-56786876D02*
X78545295Y-56739257D01*
X78545295Y-56739257D02*
X78688152Y-56739257D01*
X78688152Y-56739257D02*
X78783390Y-56786876D01*
X78783390Y-56786876D02*
X78831009Y-56834495D01*
X78831009Y-56834495D02*
X78878628Y-56929733D01*
X78878628Y-56929733D02*
X78878628Y-57310685D01*
X79354819Y-55786876D02*
X79354819Y-56358304D01*
X79354819Y-56072590D02*
X78354819Y-56072590D01*
X78354819Y-56072590D02*
X78497676Y-56167828D01*
X78497676Y-56167828D02*
X78592914Y-56263066D01*
X78592914Y-56263066D02*
X78640533Y-56358304D01*
X78354819Y-55167828D02*
X78354819Y-55072590D01*
X78354819Y-55072590D02*
X78402438Y-54977352D01*
X78402438Y-54977352D02*
X78450057Y-54929733D01*
X78450057Y-54929733D02*
X78545295Y-54882114D01*
X78545295Y-54882114D02*
X78735771Y-54834495D01*
X78735771Y-54834495D02*
X78973866Y-54834495D01*
X78973866Y-54834495D02*
X79164342Y-54882114D01*
X79164342Y-54882114D02*
X79259580Y-54929733D01*
X79259580Y-54929733D02*
X79307200Y-54977352D01*
X79307200Y-54977352D02*
X79354819Y-55072590D01*
X79354819Y-55072590D02*
X79354819Y-55167828D01*
X79354819Y-55167828D02*
X79307200Y-55263066D01*
X79307200Y-55263066D02*
X79259580Y-55310685D01*
X79259580Y-55310685D02*
X79164342Y-55358304D01*
X79164342Y-55358304D02*
X78973866Y-55405923D01*
X78973866Y-55405923D02*
X78735771Y-55405923D01*
X78735771Y-55405923D02*
X78545295Y-55358304D01*
X78545295Y-55358304D02*
X78450057Y-55310685D01*
X78450057Y-55310685D02*
X78402438Y-55263066D01*
X78402438Y-55263066D02*
X78354819Y-55167828D01*
X46883980Y-76870857D02*
X46931600Y-76918476D01*
X46931600Y-76918476D02*
X46979219Y-77061333D01*
X46979219Y-77061333D02*
X46979219Y-77156571D01*
X46979219Y-77156571D02*
X46931600Y-77299428D01*
X46931600Y-77299428D02*
X46836361Y-77394666D01*
X46836361Y-77394666D02*
X46741123Y-77442285D01*
X46741123Y-77442285D02*
X46550647Y-77489904D01*
X46550647Y-77489904D02*
X46407790Y-77489904D01*
X46407790Y-77489904D02*
X46217314Y-77442285D01*
X46217314Y-77442285D02*
X46122076Y-77394666D01*
X46122076Y-77394666D02*
X46026838Y-77299428D01*
X46026838Y-77299428D02*
X45979219Y-77156571D01*
X45979219Y-77156571D02*
X45979219Y-77061333D01*
X45979219Y-77061333D02*
X46026838Y-76918476D01*
X46026838Y-76918476D02*
X46074457Y-76870857D01*
X46979219Y-75918476D02*
X46979219Y-76489904D01*
X46979219Y-76204190D02*
X45979219Y-76204190D01*
X45979219Y-76204190D02*
X46122076Y-76299428D01*
X46122076Y-76299428D02*
X46217314Y-76394666D01*
X46217314Y-76394666D02*
X46264933Y-76489904D01*
X45979219Y-75299428D02*
X45979219Y-75204190D01*
X45979219Y-75204190D02*
X46026838Y-75108952D01*
X46026838Y-75108952D02*
X46074457Y-75061333D01*
X46074457Y-75061333D02*
X46169695Y-75013714D01*
X46169695Y-75013714D02*
X46360171Y-74966095D01*
X46360171Y-74966095D02*
X46598266Y-74966095D01*
X46598266Y-74966095D02*
X46788742Y-75013714D01*
X46788742Y-75013714D02*
X46883980Y-75061333D01*
X46883980Y-75061333D02*
X46931600Y-75108952D01*
X46931600Y-75108952D02*
X46979219Y-75204190D01*
X46979219Y-75204190D02*
X46979219Y-75299428D01*
X46979219Y-75299428D02*
X46931600Y-75394666D01*
X46931600Y-75394666D02*
X46883980Y-75442285D01*
X46883980Y-75442285D02*
X46788742Y-75489904D01*
X46788742Y-75489904D02*
X46598266Y-75537523D01*
X46598266Y-75537523D02*
X46360171Y-75537523D01*
X46360171Y-75537523D02*
X46169695Y-75489904D01*
X46169695Y-75489904D02*
X46074457Y-75442285D01*
X46074457Y-75442285D02*
X46026838Y-75394666D01*
X46026838Y-75394666D02*
X45979219Y-75299428D01*
X36946542Y-50236780D02*
X36898923Y-50284400D01*
X36898923Y-50284400D02*
X36756066Y-50332019D01*
X36756066Y-50332019D02*
X36660828Y-50332019D01*
X36660828Y-50332019D02*
X36517971Y-50284400D01*
X36517971Y-50284400D02*
X36422733Y-50189161D01*
X36422733Y-50189161D02*
X36375114Y-50093923D01*
X36375114Y-50093923D02*
X36327495Y-49903447D01*
X36327495Y-49903447D02*
X36327495Y-49760590D01*
X36327495Y-49760590D02*
X36375114Y-49570114D01*
X36375114Y-49570114D02*
X36422733Y-49474876D01*
X36422733Y-49474876D02*
X36517971Y-49379638D01*
X36517971Y-49379638D02*
X36660828Y-49332019D01*
X36660828Y-49332019D02*
X36756066Y-49332019D01*
X36756066Y-49332019D02*
X36898923Y-49379638D01*
X36898923Y-49379638D02*
X36946542Y-49427257D01*
X37898923Y-50332019D02*
X37327495Y-50332019D01*
X37613209Y-50332019D02*
X37613209Y-49332019D01*
X37613209Y-49332019D02*
X37517971Y-49474876D01*
X37517971Y-49474876D02*
X37422733Y-49570114D01*
X37422733Y-49570114D02*
X37327495Y-49617733D01*
X38803685Y-49332019D02*
X38327495Y-49332019D01*
X38327495Y-49332019D02*
X38279876Y-49808209D01*
X38279876Y-49808209D02*
X38327495Y-49760590D01*
X38327495Y-49760590D02*
X38422733Y-49712971D01*
X38422733Y-49712971D02*
X38660828Y-49712971D01*
X38660828Y-49712971D02*
X38756066Y-49760590D01*
X38756066Y-49760590D02*
X38803685Y-49808209D01*
X38803685Y-49808209D02*
X38851304Y-49903447D01*
X38851304Y-49903447D02*
X38851304Y-50141542D01*
X38851304Y-50141542D02*
X38803685Y-50236780D01*
X38803685Y-50236780D02*
X38756066Y-50284400D01*
X38756066Y-50284400D02*
X38660828Y-50332019D01*
X38660828Y-50332019D02*
X38422733Y-50332019D01*
X38422733Y-50332019D02*
X38327495Y-50284400D01*
X38327495Y-50284400D02*
X38279876Y-50236780D01*
X27352666Y-34296819D02*
X27352666Y-35011104D01*
X27352666Y-35011104D02*
X27305047Y-35153961D01*
X27305047Y-35153961D02*
X27209809Y-35249200D01*
X27209809Y-35249200D02*
X27066952Y-35296819D01*
X27066952Y-35296819D02*
X26971714Y-35296819D01*
X27733619Y-34296819D02*
X28352666Y-34296819D01*
X28352666Y-34296819D02*
X28019333Y-34677771D01*
X28019333Y-34677771D02*
X28162190Y-34677771D01*
X28162190Y-34677771D02*
X28257428Y-34725390D01*
X28257428Y-34725390D02*
X28305047Y-34773009D01*
X28305047Y-34773009D02*
X28352666Y-34868247D01*
X28352666Y-34868247D02*
X28352666Y-35106342D01*
X28352666Y-35106342D02*
X28305047Y-35201580D01*
X28305047Y-35201580D02*
X28257428Y-35249200D01*
X28257428Y-35249200D02*
X28162190Y-35296819D01*
X28162190Y-35296819D02*
X27876476Y-35296819D01*
X27876476Y-35296819D02*
X27781238Y-35249200D01*
X27781238Y-35249200D02*
X27733619Y-35201580D01*
X55203333Y-59482819D02*
X54870000Y-59006628D01*
X54631905Y-59482819D02*
X54631905Y-58482819D01*
X54631905Y-58482819D02*
X55012857Y-58482819D01*
X55012857Y-58482819D02*
X55108095Y-58530438D01*
X55108095Y-58530438D02*
X55155714Y-58578057D01*
X55155714Y-58578057D02*
X55203333Y-58673295D01*
X55203333Y-58673295D02*
X55203333Y-58816152D01*
X55203333Y-58816152D02*
X55155714Y-58911390D01*
X55155714Y-58911390D02*
X55108095Y-58959009D01*
X55108095Y-58959009D02*
X55012857Y-59006628D01*
X55012857Y-59006628D02*
X54631905Y-59006628D01*
X56060476Y-58816152D02*
X56060476Y-59482819D01*
X55822381Y-58435200D02*
X55584286Y-59149485D01*
X55584286Y-59149485D02*
X56203333Y-59149485D01*
X59497933Y-56842819D02*
X59164600Y-56366628D01*
X58926505Y-56842819D02*
X58926505Y-55842819D01*
X58926505Y-55842819D02*
X59307457Y-55842819D01*
X59307457Y-55842819D02*
X59402695Y-55890438D01*
X59402695Y-55890438D02*
X59450314Y-55938057D01*
X59450314Y-55938057D02*
X59497933Y-56033295D01*
X59497933Y-56033295D02*
X59497933Y-56176152D01*
X59497933Y-56176152D02*
X59450314Y-56271390D01*
X59450314Y-56271390D02*
X59402695Y-56319009D01*
X59402695Y-56319009D02*
X59307457Y-56366628D01*
X59307457Y-56366628D02*
X58926505Y-56366628D01*
X60355076Y-55842819D02*
X60164600Y-55842819D01*
X60164600Y-55842819D02*
X60069362Y-55890438D01*
X60069362Y-55890438D02*
X60021743Y-55938057D01*
X60021743Y-55938057D02*
X59926505Y-56080914D01*
X59926505Y-56080914D02*
X59878886Y-56271390D01*
X59878886Y-56271390D02*
X59878886Y-56652342D01*
X59878886Y-56652342D02*
X59926505Y-56747580D01*
X59926505Y-56747580D02*
X59974124Y-56795200D01*
X59974124Y-56795200D02*
X60069362Y-56842819D01*
X60069362Y-56842819D02*
X60259838Y-56842819D01*
X60259838Y-56842819D02*
X60355076Y-56795200D01*
X60355076Y-56795200D02*
X60402695Y-56747580D01*
X60402695Y-56747580D02*
X60450314Y-56652342D01*
X60450314Y-56652342D02*
X60450314Y-56414247D01*
X60450314Y-56414247D02*
X60402695Y-56319009D01*
X60402695Y-56319009D02*
X60355076Y-56271390D01*
X60355076Y-56271390D02*
X60259838Y-56223771D01*
X60259838Y-56223771D02*
X60069362Y-56223771D01*
X60069362Y-56223771D02*
X59974124Y-56271390D01*
X59974124Y-56271390D02*
X59926505Y-56319009D01*
X59926505Y-56319009D02*
X59878886Y-56414247D01*
X58245476Y-47968819D02*
X58245476Y-48683104D01*
X58245476Y-48683104D02*
X58197857Y-48825961D01*
X58197857Y-48825961D02*
X58102619Y-48921200D01*
X58102619Y-48921200D02*
X57959762Y-48968819D01*
X57959762Y-48968819D02*
X57864524Y-48968819D01*
X59245476Y-48968819D02*
X58674048Y-48968819D01*
X58959762Y-48968819D02*
X58959762Y-47968819D01*
X58959762Y-47968819D02*
X58864524Y-48111676D01*
X58864524Y-48111676D02*
X58769286Y-48206914D01*
X58769286Y-48206914D02*
X58674048Y-48254533D01*
X59578810Y-47968819D02*
X60245476Y-47968819D01*
X60245476Y-47968819D02*
X59816905Y-48968819D01*
X54339733Y-51661219D02*
X54006400Y-51185028D01*
X53768305Y-51661219D02*
X53768305Y-50661219D01*
X53768305Y-50661219D02*
X54149257Y-50661219D01*
X54149257Y-50661219D02*
X54244495Y-50708838D01*
X54244495Y-50708838D02*
X54292114Y-50756457D01*
X54292114Y-50756457D02*
X54339733Y-50851695D01*
X54339733Y-50851695D02*
X54339733Y-50994552D01*
X54339733Y-50994552D02*
X54292114Y-51089790D01*
X54292114Y-51089790D02*
X54244495Y-51137409D01*
X54244495Y-51137409D02*
X54149257Y-51185028D01*
X54149257Y-51185028D02*
X53768305Y-51185028D01*
X54911162Y-51089790D02*
X54815924Y-51042171D01*
X54815924Y-51042171D02*
X54768305Y-50994552D01*
X54768305Y-50994552D02*
X54720686Y-50899314D01*
X54720686Y-50899314D02*
X54720686Y-50851695D01*
X54720686Y-50851695D02*
X54768305Y-50756457D01*
X54768305Y-50756457D02*
X54815924Y-50708838D01*
X54815924Y-50708838D02*
X54911162Y-50661219D01*
X54911162Y-50661219D02*
X55101638Y-50661219D01*
X55101638Y-50661219D02*
X55196876Y-50708838D01*
X55196876Y-50708838D02*
X55244495Y-50756457D01*
X55244495Y-50756457D02*
X55292114Y-50851695D01*
X55292114Y-50851695D02*
X55292114Y-50899314D01*
X55292114Y-50899314D02*
X55244495Y-50994552D01*
X55244495Y-50994552D02*
X55196876Y-51042171D01*
X55196876Y-51042171D02*
X55101638Y-51089790D01*
X55101638Y-51089790D02*
X54911162Y-51089790D01*
X54911162Y-51089790D02*
X54815924Y-51137409D01*
X54815924Y-51137409D02*
X54768305Y-51185028D01*
X54768305Y-51185028D02*
X54720686Y-51280266D01*
X54720686Y-51280266D02*
X54720686Y-51470742D01*
X54720686Y-51470742D02*
X54768305Y-51565980D01*
X54768305Y-51565980D02*
X54815924Y-51613600D01*
X54815924Y-51613600D02*
X54911162Y-51661219D01*
X54911162Y-51661219D02*
X55101638Y-51661219D01*
X55101638Y-51661219D02*
X55196876Y-51613600D01*
X55196876Y-51613600D02*
X55244495Y-51565980D01*
X55244495Y-51565980D02*
X55292114Y-51470742D01*
X55292114Y-51470742D02*
X55292114Y-51280266D01*
X55292114Y-51280266D02*
X55244495Y-51185028D01*
X55244495Y-51185028D02*
X55196876Y-51137409D01*
X55196876Y-51137409D02*
X55101638Y-51089790D01*
X41235333Y-77581780D02*
X41187714Y-77629400D01*
X41187714Y-77629400D02*
X41044857Y-77677019D01*
X41044857Y-77677019D02*
X40949619Y-77677019D01*
X40949619Y-77677019D02*
X40806762Y-77629400D01*
X40806762Y-77629400D02*
X40711524Y-77534161D01*
X40711524Y-77534161D02*
X40663905Y-77438923D01*
X40663905Y-77438923D02*
X40616286Y-77248447D01*
X40616286Y-77248447D02*
X40616286Y-77105590D01*
X40616286Y-77105590D02*
X40663905Y-76915114D01*
X40663905Y-76915114D02*
X40711524Y-76819876D01*
X40711524Y-76819876D02*
X40806762Y-76724638D01*
X40806762Y-76724638D02*
X40949619Y-76677019D01*
X40949619Y-76677019D02*
X41044857Y-76677019D01*
X41044857Y-76677019D02*
X41187714Y-76724638D01*
X41187714Y-76724638D02*
X41235333Y-76772257D01*
X41806762Y-77105590D02*
X41711524Y-77057971D01*
X41711524Y-77057971D02*
X41663905Y-77010352D01*
X41663905Y-77010352D02*
X41616286Y-76915114D01*
X41616286Y-76915114D02*
X41616286Y-76867495D01*
X41616286Y-76867495D02*
X41663905Y-76772257D01*
X41663905Y-76772257D02*
X41711524Y-76724638D01*
X41711524Y-76724638D02*
X41806762Y-76677019D01*
X41806762Y-76677019D02*
X41997238Y-76677019D01*
X41997238Y-76677019D02*
X42092476Y-76724638D01*
X42092476Y-76724638D02*
X42140095Y-76772257D01*
X42140095Y-76772257D02*
X42187714Y-76867495D01*
X42187714Y-76867495D02*
X42187714Y-76915114D01*
X42187714Y-76915114D02*
X42140095Y-77010352D01*
X42140095Y-77010352D02*
X42092476Y-77057971D01*
X42092476Y-77057971D02*
X41997238Y-77105590D01*
X41997238Y-77105590D02*
X41806762Y-77105590D01*
X41806762Y-77105590D02*
X41711524Y-77153209D01*
X41711524Y-77153209D02*
X41663905Y-77200828D01*
X41663905Y-77200828D02*
X41616286Y-77296066D01*
X41616286Y-77296066D02*
X41616286Y-77486542D01*
X41616286Y-77486542D02*
X41663905Y-77581780D01*
X41663905Y-77581780D02*
X41711524Y-77629400D01*
X41711524Y-77629400D02*
X41806762Y-77677019D01*
X41806762Y-77677019D02*
X41997238Y-77677019D01*
X41997238Y-77677019D02*
X42092476Y-77629400D01*
X42092476Y-77629400D02*
X42140095Y-77581780D01*
X42140095Y-77581780D02*
X42187714Y-77486542D01*
X42187714Y-77486542D02*
X42187714Y-77296066D01*
X42187714Y-77296066D02*
X42140095Y-77200828D01*
X42140095Y-77200828D02*
X42092476Y-77153209D01*
X42092476Y-77153209D02*
X41997238Y-77105590D01*
X63431895Y-75324619D02*
X64003323Y-75324619D01*
X63717609Y-76324619D02*
X63717609Y-75324619D01*
X64336657Y-76324619D02*
X64336657Y-75324619D01*
X64336657Y-75324619D02*
X64717609Y-75324619D01*
X64717609Y-75324619D02*
X64812847Y-75372238D01*
X64812847Y-75372238D02*
X64860466Y-75419857D01*
X64860466Y-75419857D02*
X64908085Y-75515095D01*
X64908085Y-75515095D02*
X64908085Y-75657952D01*
X64908085Y-75657952D02*
X64860466Y-75753190D01*
X64860466Y-75753190D02*
X64812847Y-75800809D01*
X64812847Y-75800809D02*
X64717609Y-75848428D01*
X64717609Y-75848428D02*
X64336657Y-75848428D01*
X65860466Y-76324619D02*
X65289038Y-76324619D01*
X65574752Y-76324619D02*
X65574752Y-75324619D01*
X65574752Y-75324619D02*
X65479514Y-75467476D01*
X65479514Y-75467476D02*
X65384276Y-75562714D01*
X65384276Y-75562714D02*
X65289038Y-75610333D01*
X28553580Y-43258857D02*
X28601200Y-43306476D01*
X28601200Y-43306476D02*
X28648819Y-43449333D01*
X28648819Y-43449333D02*
X28648819Y-43544571D01*
X28648819Y-43544571D02*
X28601200Y-43687428D01*
X28601200Y-43687428D02*
X28505961Y-43782666D01*
X28505961Y-43782666D02*
X28410723Y-43830285D01*
X28410723Y-43830285D02*
X28220247Y-43877904D01*
X28220247Y-43877904D02*
X28077390Y-43877904D01*
X28077390Y-43877904D02*
X27886914Y-43830285D01*
X27886914Y-43830285D02*
X27791676Y-43782666D01*
X27791676Y-43782666D02*
X27696438Y-43687428D01*
X27696438Y-43687428D02*
X27648819Y-43544571D01*
X27648819Y-43544571D02*
X27648819Y-43449333D01*
X27648819Y-43449333D02*
X27696438Y-43306476D01*
X27696438Y-43306476D02*
X27744057Y-43258857D01*
X28648819Y-42306476D02*
X28648819Y-42877904D01*
X28648819Y-42592190D02*
X27648819Y-42592190D01*
X27648819Y-42592190D02*
X27791676Y-42687428D01*
X27791676Y-42687428D02*
X27886914Y-42782666D01*
X27886914Y-42782666D02*
X27934533Y-42877904D01*
X27648819Y-41973142D02*
X27648819Y-41354095D01*
X27648819Y-41354095D02*
X28029771Y-41687428D01*
X28029771Y-41687428D02*
X28029771Y-41544571D01*
X28029771Y-41544571D02*
X28077390Y-41449333D01*
X28077390Y-41449333D02*
X28125009Y-41401714D01*
X28125009Y-41401714D02*
X28220247Y-41354095D01*
X28220247Y-41354095D02*
X28458342Y-41354095D01*
X28458342Y-41354095D02*
X28553580Y-41401714D01*
X28553580Y-41401714D02*
X28601200Y-41449333D01*
X28601200Y-41449333D02*
X28648819Y-41544571D01*
X28648819Y-41544571D02*
X28648819Y-41830285D01*
X28648819Y-41830285D02*
X28601200Y-41925523D01*
X28601200Y-41925523D02*
X28553580Y-41973142D01*
X56642095Y-66256819D02*
X56642095Y-67066342D01*
X56642095Y-67066342D02*
X56689714Y-67161580D01*
X56689714Y-67161580D02*
X56737333Y-67209200D01*
X56737333Y-67209200D02*
X56832571Y-67256819D01*
X56832571Y-67256819D02*
X57023047Y-67256819D01*
X57023047Y-67256819D02*
X57118285Y-67209200D01*
X57118285Y-67209200D02*
X57165904Y-67161580D01*
X57165904Y-67161580D02*
X57213523Y-67066342D01*
X57213523Y-67066342D02*
X57213523Y-66256819D01*
X57642095Y-66352057D02*
X57689714Y-66304438D01*
X57689714Y-66304438D02*
X57784952Y-66256819D01*
X57784952Y-66256819D02*
X58023047Y-66256819D01*
X58023047Y-66256819D02*
X58118285Y-66304438D01*
X58118285Y-66304438D02*
X58165904Y-66352057D01*
X58165904Y-66352057D02*
X58213523Y-66447295D01*
X58213523Y-66447295D02*
X58213523Y-66542533D01*
X58213523Y-66542533D02*
X58165904Y-66685390D01*
X58165904Y-66685390D02*
X57594476Y-67256819D01*
X57594476Y-67256819D02*
X58213523Y-67256819D01*
X56648819Y-26749333D02*
X57363104Y-26749333D01*
X57363104Y-26749333D02*
X57505961Y-26796952D01*
X57505961Y-26796952D02*
X57601200Y-26892190D01*
X57601200Y-26892190D02*
X57648819Y-27035047D01*
X57648819Y-27035047D02*
X57648819Y-27130285D01*
X56744057Y-26320761D02*
X56696438Y-26273142D01*
X56696438Y-26273142D02*
X56648819Y-26177904D01*
X56648819Y-26177904D02*
X56648819Y-25939809D01*
X56648819Y-25939809D02*
X56696438Y-25844571D01*
X56696438Y-25844571D02*
X56744057Y-25796952D01*
X56744057Y-25796952D02*
X56839295Y-25749333D01*
X56839295Y-25749333D02*
X56934533Y-25749333D01*
X56934533Y-25749333D02*
X57077390Y-25796952D01*
X57077390Y-25796952D02*
X57648819Y-26368380D01*
X57648819Y-26368380D02*
X57648819Y-25749333D01*
X52149476Y-55842819D02*
X52149476Y-56557104D01*
X52149476Y-56557104D02*
X52101857Y-56699961D01*
X52101857Y-56699961D02*
X52006619Y-56795200D01*
X52006619Y-56795200D02*
X51863762Y-56842819D01*
X51863762Y-56842819D02*
X51768524Y-56842819D01*
X53149476Y-56842819D02*
X52578048Y-56842819D01*
X52863762Y-56842819D02*
X52863762Y-55842819D01*
X52863762Y-55842819D02*
X52768524Y-55985676D01*
X52768524Y-55985676D02*
X52673286Y-56080914D01*
X52673286Y-56080914D02*
X52578048Y-56128533D01*
X54054238Y-55842819D02*
X53578048Y-55842819D01*
X53578048Y-55842819D02*
X53530429Y-56319009D01*
X53530429Y-56319009D02*
X53578048Y-56271390D01*
X53578048Y-56271390D02*
X53673286Y-56223771D01*
X53673286Y-56223771D02*
X53911381Y-56223771D01*
X53911381Y-56223771D02*
X54006619Y-56271390D01*
X54006619Y-56271390D02*
X54054238Y-56319009D01*
X54054238Y-56319009D02*
X54101857Y-56414247D01*
X54101857Y-56414247D02*
X54101857Y-56652342D01*
X54101857Y-56652342D02*
X54054238Y-56747580D01*
X54054238Y-56747580D02*
X54006619Y-56795200D01*
X54006619Y-56795200D02*
X53911381Y-56842819D01*
X53911381Y-56842819D02*
X53673286Y-56842819D01*
X53673286Y-56842819D02*
X53578048Y-56795200D01*
X53578048Y-56795200D02*
X53530429Y-56747580D01*
X24387980Y-50607257D02*
X24435600Y-50654876D01*
X24435600Y-50654876D02*
X24483219Y-50797733D01*
X24483219Y-50797733D02*
X24483219Y-50892971D01*
X24483219Y-50892971D02*
X24435600Y-51035828D01*
X24435600Y-51035828D02*
X24340361Y-51131066D01*
X24340361Y-51131066D02*
X24245123Y-51178685D01*
X24245123Y-51178685D02*
X24054647Y-51226304D01*
X24054647Y-51226304D02*
X23911790Y-51226304D01*
X23911790Y-51226304D02*
X23721314Y-51178685D01*
X23721314Y-51178685D02*
X23626076Y-51131066D01*
X23626076Y-51131066D02*
X23530838Y-51035828D01*
X23530838Y-51035828D02*
X23483219Y-50892971D01*
X23483219Y-50892971D02*
X23483219Y-50797733D01*
X23483219Y-50797733D02*
X23530838Y-50654876D01*
X23530838Y-50654876D02*
X23578457Y-50607257D01*
X24483219Y-49654876D02*
X24483219Y-50226304D01*
X24483219Y-49940590D02*
X23483219Y-49940590D01*
X23483219Y-49940590D02*
X23626076Y-50035828D01*
X23626076Y-50035828D02*
X23721314Y-50131066D01*
X23721314Y-50131066D02*
X23768933Y-50226304D01*
X23816552Y-48797733D02*
X24483219Y-48797733D01*
X23435600Y-49035828D02*
X24149885Y-49273923D01*
X24149885Y-49273923D02*
X24149885Y-48654876D01*
X75316219Y-62759057D02*
X74840028Y-63092390D01*
X75316219Y-63330485D02*
X74316219Y-63330485D01*
X74316219Y-63330485D02*
X74316219Y-62949533D01*
X74316219Y-62949533D02*
X74363838Y-62854295D01*
X74363838Y-62854295D02*
X74411457Y-62806676D01*
X74411457Y-62806676D02*
X74506695Y-62759057D01*
X74506695Y-62759057D02*
X74649552Y-62759057D01*
X74649552Y-62759057D02*
X74744790Y-62806676D01*
X74744790Y-62806676D02*
X74792409Y-62854295D01*
X74792409Y-62854295D02*
X74840028Y-62949533D01*
X74840028Y-62949533D02*
X74840028Y-63330485D01*
X75316219Y-61806676D02*
X75316219Y-62378104D01*
X75316219Y-62092390D02*
X74316219Y-62092390D01*
X74316219Y-62092390D02*
X74459076Y-62187628D01*
X74459076Y-62187628D02*
X74554314Y-62282866D01*
X74554314Y-62282866D02*
X74601933Y-62378104D01*
X74411457Y-61425723D02*
X74363838Y-61378104D01*
X74363838Y-61378104D02*
X74316219Y-61282866D01*
X74316219Y-61282866D02*
X74316219Y-61044771D01*
X74316219Y-61044771D02*
X74363838Y-60949533D01*
X74363838Y-60949533D02*
X74411457Y-60901914D01*
X74411457Y-60901914D02*
X74506695Y-60854295D01*
X74506695Y-60854295D02*
X74601933Y-60854295D01*
X74601933Y-60854295D02*
X74744790Y-60901914D01*
X74744790Y-60901914D02*
X75316219Y-61473342D01*
X75316219Y-61473342D02*
X75316219Y-60854295D01*
X29670476Y-74174819D02*
X29670476Y-74889104D01*
X29670476Y-74889104D02*
X29622857Y-75031961D01*
X29622857Y-75031961D02*
X29527619Y-75127200D01*
X29527619Y-75127200D02*
X29384762Y-75174819D01*
X29384762Y-75174819D02*
X29289524Y-75174819D01*
X30670476Y-75174819D02*
X30099048Y-75174819D01*
X30384762Y-75174819D02*
X30384762Y-74174819D01*
X30384762Y-74174819D02*
X30289524Y-74317676D01*
X30289524Y-74317676D02*
X30194286Y-74412914D01*
X30194286Y-74412914D02*
X30099048Y-74460533D01*
X31051429Y-74270057D02*
X31099048Y-74222438D01*
X31099048Y-74222438D02*
X31194286Y-74174819D01*
X31194286Y-74174819D02*
X31432381Y-74174819D01*
X31432381Y-74174819D02*
X31527619Y-74222438D01*
X31527619Y-74222438D02*
X31575238Y-74270057D01*
X31575238Y-74270057D02*
X31622857Y-74365295D01*
X31622857Y-74365295D02*
X31622857Y-74460533D01*
X31622857Y-74460533D02*
X31575238Y-74603390D01*
X31575238Y-74603390D02*
X31003810Y-75174819D01*
X31003810Y-75174819D02*
X31622857Y-75174819D01*
X38215333Y-35775580D02*
X38167714Y-35823200D01*
X38167714Y-35823200D02*
X38024857Y-35870819D01*
X38024857Y-35870819D02*
X37929619Y-35870819D01*
X37929619Y-35870819D02*
X37786762Y-35823200D01*
X37786762Y-35823200D02*
X37691524Y-35727961D01*
X37691524Y-35727961D02*
X37643905Y-35632723D01*
X37643905Y-35632723D02*
X37596286Y-35442247D01*
X37596286Y-35442247D02*
X37596286Y-35299390D01*
X37596286Y-35299390D02*
X37643905Y-35108914D01*
X37643905Y-35108914D02*
X37691524Y-35013676D01*
X37691524Y-35013676D02*
X37786762Y-34918438D01*
X37786762Y-34918438D02*
X37929619Y-34870819D01*
X37929619Y-34870819D02*
X38024857Y-34870819D01*
X38024857Y-34870819D02*
X38167714Y-34918438D01*
X38167714Y-34918438D02*
X38215333Y-34966057D01*
X39072476Y-35204152D02*
X39072476Y-35870819D01*
X38834381Y-34823200D02*
X38596286Y-35537485D01*
X38596286Y-35537485D02*
X39215333Y-35537485D01*
X72507019Y-56967857D02*
X72030828Y-57301190D01*
X72507019Y-57539285D02*
X71507019Y-57539285D01*
X71507019Y-57539285D02*
X71507019Y-57158333D01*
X71507019Y-57158333D02*
X71554638Y-57063095D01*
X71554638Y-57063095D02*
X71602257Y-57015476D01*
X71602257Y-57015476D02*
X71697495Y-56967857D01*
X71697495Y-56967857D02*
X71840352Y-56967857D01*
X71840352Y-56967857D02*
X71935590Y-57015476D01*
X71935590Y-57015476D02*
X71983209Y-57063095D01*
X71983209Y-57063095D02*
X72030828Y-57158333D01*
X72030828Y-57158333D02*
X72030828Y-57539285D01*
X72507019Y-56015476D02*
X72507019Y-56586904D01*
X72507019Y-56301190D02*
X71507019Y-56301190D01*
X71507019Y-56301190D02*
X71649876Y-56396428D01*
X71649876Y-56396428D02*
X71745114Y-56491666D01*
X71745114Y-56491666D02*
X71792733Y-56586904D01*
X71507019Y-55682142D02*
X71507019Y-55063095D01*
X71507019Y-55063095D02*
X71887971Y-55396428D01*
X71887971Y-55396428D02*
X71887971Y-55253571D01*
X71887971Y-55253571D02*
X71935590Y-55158333D01*
X71935590Y-55158333D02*
X71983209Y-55110714D01*
X71983209Y-55110714D02*
X72078447Y-55063095D01*
X72078447Y-55063095D02*
X72316542Y-55063095D01*
X72316542Y-55063095D02*
X72411780Y-55110714D01*
X72411780Y-55110714D02*
X72459400Y-55158333D01*
X72459400Y-55158333D02*
X72507019Y-55253571D01*
X72507019Y-55253571D02*
X72507019Y-55539285D01*
X72507019Y-55539285D02*
X72459400Y-55634523D01*
X72459400Y-55634523D02*
X72411780Y-55682142D01*
X36836819Y-54308333D02*
X37551104Y-54308333D01*
X37551104Y-54308333D02*
X37693961Y-54355952D01*
X37693961Y-54355952D02*
X37789200Y-54451190D01*
X37789200Y-54451190D02*
X37836819Y-54594047D01*
X37836819Y-54594047D02*
X37836819Y-54689285D01*
X37836819Y-53784523D02*
X37836819Y-53594047D01*
X37836819Y-53594047D02*
X37789200Y-53498809D01*
X37789200Y-53498809D02*
X37741580Y-53451190D01*
X37741580Y-53451190D02*
X37598723Y-53355952D01*
X37598723Y-53355952D02*
X37408247Y-53308333D01*
X37408247Y-53308333D02*
X37027295Y-53308333D01*
X37027295Y-53308333D02*
X36932057Y-53355952D01*
X36932057Y-53355952D02*
X36884438Y-53403571D01*
X36884438Y-53403571D02*
X36836819Y-53498809D01*
X36836819Y-53498809D02*
X36836819Y-53689285D01*
X36836819Y-53689285D02*
X36884438Y-53784523D01*
X36884438Y-53784523D02*
X36932057Y-53832142D01*
X36932057Y-53832142D02*
X37027295Y-53879761D01*
X37027295Y-53879761D02*
X37265390Y-53879761D01*
X37265390Y-53879761D02*
X37360628Y-53832142D01*
X37360628Y-53832142D02*
X37408247Y-53784523D01*
X37408247Y-53784523D02*
X37455866Y-53689285D01*
X37455866Y-53689285D02*
X37455866Y-53498809D01*
X37455866Y-53498809D02*
X37408247Y-53403571D01*
X37408247Y-53403571D02*
X37360628Y-53355952D01*
X37360628Y-53355952D02*
X37265390Y-53308333D01*
X57360333Y-59255819D02*
X57027000Y-58779628D01*
X56788905Y-59255819D02*
X56788905Y-58255819D01*
X56788905Y-58255819D02*
X57169857Y-58255819D01*
X57169857Y-58255819D02*
X57265095Y-58303438D01*
X57265095Y-58303438D02*
X57312714Y-58351057D01*
X57312714Y-58351057D02*
X57360333Y-58446295D01*
X57360333Y-58446295D02*
X57360333Y-58589152D01*
X57360333Y-58589152D02*
X57312714Y-58684390D01*
X57312714Y-58684390D02*
X57265095Y-58732009D01*
X57265095Y-58732009D02*
X57169857Y-58779628D01*
X57169857Y-58779628D02*
X56788905Y-58779628D01*
X58265095Y-58255819D02*
X57788905Y-58255819D01*
X57788905Y-58255819D02*
X57741286Y-58732009D01*
X57741286Y-58732009D02*
X57788905Y-58684390D01*
X57788905Y-58684390D02*
X57884143Y-58636771D01*
X57884143Y-58636771D02*
X58122238Y-58636771D01*
X58122238Y-58636771D02*
X58217476Y-58684390D01*
X58217476Y-58684390D02*
X58265095Y-58732009D01*
X58265095Y-58732009D02*
X58312714Y-58827247D01*
X58312714Y-58827247D02*
X58312714Y-59065342D01*
X58312714Y-59065342D02*
X58265095Y-59160580D01*
X58265095Y-59160580D02*
X58217476Y-59208200D01*
X58217476Y-59208200D02*
X58122238Y-59255819D01*
X58122238Y-59255819D02*
X57884143Y-59255819D01*
X57884143Y-59255819D02*
X57788905Y-59208200D01*
X57788905Y-59208200D02*
X57741286Y-59160580D01*
X70324742Y-59693980D02*
X70277123Y-59741600D01*
X70277123Y-59741600D02*
X70134266Y-59789219D01*
X70134266Y-59789219D02*
X70039028Y-59789219D01*
X70039028Y-59789219D02*
X69896171Y-59741600D01*
X69896171Y-59741600D02*
X69800933Y-59646361D01*
X69800933Y-59646361D02*
X69753314Y-59551123D01*
X69753314Y-59551123D02*
X69705695Y-59360647D01*
X69705695Y-59360647D02*
X69705695Y-59217790D01*
X69705695Y-59217790D02*
X69753314Y-59027314D01*
X69753314Y-59027314D02*
X69800933Y-58932076D01*
X69800933Y-58932076D02*
X69896171Y-58836838D01*
X69896171Y-58836838D02*
X70039028Y-58789219D01*
X70039028Y-58789219D02*
X70134266Y-58789219D01*
X70134266Y-58789219D02*
X70277123Y-58836838D01*
X70277123Y-58836838D02*
X70324742Y-58884457D01*
X70705695Y-58884457D02*
X70753314Y-58836838D01*
X70753314Y-58836838D02*
X70848552Y-58789219D01*
X70848552Y-58789219D02*
X71086647Y-58789219D01*
X71086647Y-58789219D02*
X71181885Y-58836838D01*
X71181885Y-58836838D02*
X71229504Y-58884457D01*
X71229504Y-58884457D02*
X71277123Y-58979695D01*
X71277123Y-58979695D02*
X71277123Y-59074933D01*
X71277123Y-59074933D02*
X71229504Y-59217790D01*
X71229504Y-59217790D02*
X70658076Y-59789219D01*
X70658076Y-59789219D02*
X71277123Y-59789219D01*
X71610457Y-58789219D02*
X72229504Y-58789219D01*
X72229504Y-58789219D02*
X71896171Y-59170171D01*
X71896171Y-59170171D02*
X72039028Y-59170171D01*
X72039028Y-59170171D02*
X72134266Y-59217790D01*
X72134266Y-59217790D02*
X72181885Y-59265409D01*
X72181885Y-59265409D02*
X72229504Y-59360647D01*
X72229504Y-59360647D02*
X72229504Y-59598742D01*
X72229504Y-59598742D02*
X72181885Y-59693980D01*
X72181885Y-59693980D02*
X72134266Y-59741600D01*
X72134266Y-59741600D02*
X72039028Y-59789219D01*
X72039028Y-59789219D02*
X71753314Y-59789219D01*
X71753314Y-59789219D02*
X71658076Y-59741600D01*
X71658076Y-59741600D02*
X71610457Y-59693980D01*
X45920819Y-57062666D02*
X45444628Y-57395999D01*
X45920819Y-57634094D02*
X44920819Y-57634094D01*
X44920819Y-57634094D02*
X44920819Y-57253142D01*
X44920819Y-57253142D02*
X44968438Y-57157904D01*
X44968438Y-57157904D02*
X45016057Y-57110285D01*
X45016057Y-57110285D02*
X45111295Y-57062666D01*
X45111295Y-57062666D02*
X45254152Y-57062666D01*
X45254152Y-57062666D02*
X45349390Y-57110285D01*
X45349390Y-57110285D02*
X45397009Y-57157904D01*
X45397009Y-57157904D02*
X45444628Y-57253142D01*
X45444628Y-57253142D02*
X45444628Y-57634094D01*
X45920819Y-56110285D02*
X45920819Y-56681713D01*
X45920819Y-56395999D02*
X44920819Y-56395999D01*
X44920819Y-56395999D02*
X45063676Y-56491237D01*
X45063676Y-56491237D02*
X45158914Y-56586475D01*
X45158914Y-56586475D02*
X45206533Y-56681713D01*
X71556142Y-52237819D02*
X71222809Y-51761628D01*
X70984714Y-52237819D02*
X70984714Y-51237819D01*
X70984714Y-51237819D02*
X71365666Y-51237819D01*
X71365666Y-51237819D02*
X71460904Y-51285438D01*
X71460904Y-51285438D02*
X71508523Y-51333057D01*
X71508523Y-51333057D02*
X71556142Y-51428295D01*
X71556142Y-51428295D02*
X71556142Y-51571152D01*
X71556142Y-51571152D02*
X71508523Y-51666390D01*
X71508523Y-51666390D02*
X71460904Y-51714009D01*
X71460904Y-51714009D02*
X71365666Y-51761628D01*
X71365666Y-51761628D02*
X70984714Y-51761628D01*
X72508523Y-52237819D02*
X71937095Y-52237819D01*
X72222809Y-52237819D02*
X72222809Y-51237819D01*
X72222809Y-51237819D02*
X72127571Y-51380676D01*
X72127571Y-51380676D02*
X72032333Y-51475914D01*
X72032333Y-51475914D02*
X71937095Y-51523533D01*
X73460904Y-52237819D02*
X72889476Y-52237819D01*
X73175190Y-52237819D02*
X73175190Y-51237819D01*
X73175190Y-51237819D02*
X73079952Y-51380676D01*
X73079952Y-51380676D02*
X72984714Y-51475914D01*
X72984714Y-51475914D02*
X72889476Y-51523533D01*
X29851819Y-60277333D02*
X30566104Y-60277333D01*
X30566104Y-60277333D02*
X30708961Y-60324952D01*
X30708961Y-60324952D02*
X30804200Y-60420190D01*
X30804200Y-60420190D02*
X30851819Y-60563047D01*
X30851819Y-60563047D02*
X30851819Y-60658285D01*
X29851819Y-59896380D02*
X29851819Y-59229714D01*
X29851819Y-59229714D02*
X30851819Y-59658285D01*
X46825819Y-51736523D02*
X47540104Y-51736523D01*
X47540104Y-51736523D02*
X47682961Y-51784142D01*
X47682961Y-51784142D02*
X47778200Y-51879380D01*
X47778200Y-51879380D02*
X47825819Y-52022237D01*
X47825819Y-52022237D02*
X47825819Y-52117475D01*
X47825819Y-50736523D02*
X47825819Y-51307951D01*
X47825819Y-51022237D02*
X46825819Y-51022237D01*
X46825819Y-51022237D02*
X46968676Y-51117475D01*
X46968676Y-51117475D02*
X47063914Y-51212713D01*
X47063914Y-51212713D02*
X47111533Y-51307951D01*
X47159152Y-49879380D02*
X47825819Y-49879380D01*
X46778200Y-50117475D02*
X47492485Y-50355570D01*
X47492485Y-50355570D02*
X47492485Y-49736523D01*
X48001580Y-79128857D02*
X48049200Y-79176476D01*
X48049200Y-79176476D02*
X48096819Y-79319333D01*
X48096819Y-79319333D02*
X48096819Y-79414571D01*
X48096819Y-79414571D02*
X48049200Y-79557428D01*
X48049200Y-79557428D02*
X47953961Y-79652666D01*
X47953961Y-79652666D02*
X47858723Y-79700285D01*
X47858723Y-79700285D02*
X47668247Y-79747904D01*
X47668247Y-79747904D02*
X47525390Y-79747904D01*
X47525390Y-79747904D02*
X47334914Y-79700285D01*
X47334914Y-79700285D02*
X47239676Y-79652666D01*
X47239676Y-79652666D02*
X47144438Y-79557428D01*
X47144438Y-79557428D02*
X47096819Y-79414571D01*
X47096819Y-79414571D02*
X47096819Y-79319333D01*
X47096819Y-79319333D02*
X47144438Y-79176476D01*
X47144438Y-79176476D02*
X47192057Y-79128857D01*
X48096819Y-78176476D02*
X48096819Y-78747904D01*
X48096819Y-78462190D02*
X47096819Y-78462190D01*
X47096819Y-78462190D02*
X47239676Y-78557428D01*
X47239676Y-78557428D02*
X47334914Y-78652666D01*
X47334914Y-78652666D02*
X47382533Y-78747904D01*
X48096819Y-77224095D02*
X48096819Y-77795523D01*
X48096819Y-77509809D02*
X47096819Y-77509809D01*
X47096819Y-77509809D02*
X47239676Y-77605047D01*
X47239676Y-77605047D02*
X47334914Y-77700285D01*
X47334914Y-77700285D02*
X47382533Y-77795523D01*
X27039333Y-38095580D02*
X26991714Y-38143200D01*
X26991714Y-38143200D02*
X26848857Y-38190819D01*
X26848857Y-38190819D02*
X26753619Y-38190819D01*
X26753619Y-38190819D02*
X26610762Y-38143200D01*
X26610762Y-38143200D02*
X26515524Y-38047961D01*
X26515524Y-38047961D02*
X26467905Y-37952723D01*
X26467905Y-37952723D02*
X26420286Y-37762247D01*
X26420286Y-37762247D02*
X26420286Y-37619390D01*
X26420286Y-37619390D02*
X26467905Y-37428914D01*
X26467905Y-37428914D02*
X26515524Y-37333676D01*
X26515524Y-37333676D02*
X26610762Y-37238438D01*
X26610762Y-37238438D02*
X26753619Y-37190819D01*
X26753619Y-37190819D02*
X26848857Y-37190819D01*
X26848857Y-37190819D02*
X26991714Y-37238438D01*
X26991714Y-37238438D02*
X27039333Y-37286057D01*
X27944095Y-37190819D02*
X27467905Y-37190819D01*
X27467905Y-37190819D02*
X27420286Y-37667009D01*
X27420286Y-37667009D02*
X27467905Y-37619390D01*
X27467905Y-37619390D02*
X27563143Y-37571771D01*
X27563143Y-37571771D02*
X27801238Y-37571771D01*
X27801238Y-37571771D02*
X27896476Y-37619390D01*
X27896476Y-37619390D02*
X27944095Y-37667009D01*
X27944095Y-37667009D02*
X27991714Y-37762247D01*
X27991714Y-37762247D02*
X27991714Y-38000342D01*
X27991714Y-38000342D02*
X27944095Y-38095580D01*
X27944095Y-38095580D02*
X27896476Y-38143200D01*
X27896476Y-38143200D02*
X27801238Y-38190819D01*
X27801238Y-38190819D02*
X27563143Y-38190819D01*
X27563143Y-38190819D02*
X27467905Y-38143200D01*
X27467905Y-38143200D02*
X27420286Y-38095580D01*
X63293666Y-49873819D02*
X63293666Y-50588104D01*
X63293666Y-50588104D02*
X63246047Y-50730961D01*
X63246047Y-50730961D02*
X63150809Y-50826200D01*
X63150809Y-50826200D02*
X63007952Y-50873819D01*
X63007952Y-50873819D02*
X62912714Y-50873819D01*
X64246047Y-49873819D02*
X63769857Y-49873819D01*
X63769857Y-49873819D02*
X63722238Y-50350009D01*
X63722238Y-50350009D02*
X63769857Y-50302390D01*
X63769857Y-50302390D02*
X63865095Y-50254771D01*
X63865095Y-50254771D02*
X64103190Y-50254771D01*
X64103190Y-50254771D02*
X64198428Y-50302390D01*
X64198428Y-50302390D02*
X64246047Y-50350009D01*
X64246047Y-50350009D02*
X64293666Y-50445247D01*
X64293666Y-50445247D02*
X64293666Y-50683342D01*
X64293666Y-50683342D02*
X64246047Y-50778580D01*
X64246047Y-50778580D02*
X64198428Y-50826200D01*
X64198428Y-50826200D02*
X64103190Y-50873819D01*
X64103190Y-50873819D02*
X63865095Y-50873819D01*
X63865095Y-50873819D02*
X63769857Y-50826200D01*
X63769857Y-50826200D02*
X63722238Y-50778580D01*
X45807333Y-54429819D02*
X45474000Y-53953628D01*
X45235905Y-54429819D02*
X45235905Y-53429819D01*
X45235905Y-53429819D02*
X45616857Y-53429819D01*
X45616857Y-53429819D02*
X45712095Y-53477438D01*
X45712095Y-53477438D02*
X45759714Y-53525057D01*
X45759714Y-53525057D02*
X45807333Y-53620295D01*
X45807333Y-53620295D02*
X45807333Y-53763152D01*
X45807333Y-53763152D02*
X45759714Y-53858390D01*
X45759714Y-53858390D02*
X45712095Y-53906009D01*
X45712095Y-53906009D02*
X45616857Y-53953628D01*
X45616857Y-53953628D02*
X45235905Y-53953628D01*
X46283524Y-54429819D02*
X46474000Y-54429819D01*
X46474000Y-54429819D02*
X46569238Y-54382200D01*
X46569238Y-54382200D02*
X46616857Y-54334580D01*
X46616857Y-54334580D02*
X46712095Y-54191723D01*
X46712095Y-54191723D02*
X46759714Y-54001247D01*
X46759714Y-54001247D02*
X46759714Y-53620295D01*
X46759714Y-53620295D02*
X46712095Y-53525057D01*
X46712095Y-53525057D02*
X46664476Y-53477438D01*
X46664476Y-53477438D02*
X46569238Y-53429819D01*
X46569238Y-53429819D02*
X46378762Y-53429819D01*
X46378762Y-53429819D02*
X46283524Y-53477438D01*
X46283524Y-53477438D02*
X46235905Y-53525057D01*
X46235905Y-53525057D02*
X46188286Y-53620295D01*
X46188286Y-53620295D02*
X46188286Y-53858390D01*
X46188286Y-53858390D02*
X46235905Y-53953628D01*
X46235905Y-53953628D02*
X46283524Y-54001247D01*
X46283524Y-54001247D02*
X46378762Y-54048866D01*
X46378762Y-54048866D02*
X46569238Y-54048866D01*
X46569238Y-54048866D02*
X46664476Y-54001247D01*
X46664476Y-54001247D02*
X46712095Y-53953628D01*
X46712095Y-53953628D02*
X46759714Y-53858390D01*
X36974542Y-47645980D02*
X36926923Y-47693600D01*
X36926923Y-47693600D02*
X36784066Y-47741219D01*
X36784066Y-47741219D02*
X36688828Y-47741219D01*
X36688828Y-47741219D02*
X36545971Y-47693600D01*
X36545971Y-47693600D02*
X36450733Y-47598361D01*
X36450733Y-47598361D02*
X36403114Y-47503123D01*
X36403114Y-47503123D02*
X36355495Y-47312647D01*
X36355495Y-47312647D02*
X36355495Y-47169790D01*
X36355495Y-47169790D02*
X36403114Y-46979314D01*
X36403114Y-46979314D02*
X36450733Y-46884076D01*
X36450733Y-46884076D02*
X36545971Y-46788838D01*
X36545971Y-46788838D02*
X36688828Y-46741219D01*
X36688828Y-46741219D02*
X36784066Y-46741219D01*
X36784066Y-46741219D02*
X36926923Y-46788838D01*
X36926923Y-46788838D02*
X36974542Y-46836457D01*
X37926923Y-47741219D02*
X37355495Y-47741219D01*
X37641209Y-47741219D02*
X37641209Y-46741219D01*
X37641209Y-46741219D02*
X37545971Y-46884076D01*
X37545971Y-46884076D02*
X37450733Y-46979314D01*
X37450733Y-46979314D02*
X37355495Y-47026933D01*
X38784066Y-46741219D02*
X38593590Y-46741219D01*
X38593590Y-46741219D02*
X38498352Y-46788838D01*
X38498352Y-46788838D02*
X38450733Y-46836457D01*
X38450733Y-46836457D02*
X38355495Y-46979314D01*
X38355495Y-46979314D02*
X38307876Y-47169790D01*
X38307876Y-47169790D02*
X38307876Y-47550742D01*
X38307876Y-47550742D02*
X38355495Y-47645980D01*
X38355495Y-47645980D02*
X38403114Y-47693600D01*
X38403114Y-47693600D02*
X38498352Y-47741219D01*
X38498352Y-47741219D02*
X38688828Y-47741219D01*
X38688828Y-47741219D02*
X38784066Y-47693600D01*
X38784066Y-47693600D02*
X38831685Y-47645980D01*
X38831685Y-47645980D02*
X38879304Y-47550742D01*
X38879304Y-47550742D02*
X38879304Y-47312647D01*
X38879304Y-47312647D02*
X38831685Y-47217409D01*
X38831685Y-47217409D02*
X38784066Y-47169790D01*
X38784066Y-47169790D02*
X38688828Y-47122171D01*
X38688828Y-47122171D02*
X38498352Y-47122171D01*
X38498352Y-47122171D02*
X38403114Y-47169790D01*
X38403114Y-47169790D02*
X38355495Y-47217409D01*
X38355495Y-47217409D02*
X38307876Y-47312647D01*
D11*
X69125305Y-31402918D02*
X69125305Y-32310061D01*
X69125305Y-32310061D02*
X69064828Y-32491489D01*
X69064828Y-32491489D02*
X68943876Y-32612442D01*
X68943876Y-32612442D02*
X68762447Y-32672918D01*
X68762447Y-32672918D02*
X68641495Y-32672918D01*
X70395305Y-32672918D02*
X69669590Y-32672918D01*
X70032447Y-32672918D02*
X70032447Y-31402918D01*
X70032447Y-31402918D02*
X69911495Y-31584346D01*
X69911495Y-31584346D02*
X69790543Y-31705299D01*
X69790543Y-31705299D02*
X69669590Y-31765775D01*
X71181495Y-31402918D02*
X71302448Y-31402918D01*
X71302448Y-31402918D02*
X71423400Y-31463394D01*
X71423400Y-31463394D02*
X71483876Y-31523870D01*
X71483876Y-31523870D02*
X71544352Y-31644822D01*
X71544352Y-31644822D02*
X71604829Y-31886727D01*
X71604829Y-31886727D02*
X71604829Y-32189108D01*
X71604829Y-32189108D02*
X71544352Y-32431013D01*
X71544352Y-32431013D02*
X71483876Y-32551965D01*
X71483876Y-32551965D02*
X71423400Y-32612442D01*
X71423400Y-32612442D02*
X71302448Y-32672918D01*
X71302448Y-32672918D02*
X71181495Y-32672918D01*
X71181495Y-32672918D02*
X71060543Y-32612442D01*
X71060543Y-32612442D02*
X71000067Y-32551965D01*
X71000067Y-32551965D02*
X70939590Y-32431013D01*
X70939590Y-32431013D02*
X70879114Y-32189108D01*
X70879114Y-32189108D02*
X70879114Y-31886727D01*
X70879114Y-31886727D02*
X70939590Y-31644822D01*
X70939590Y-31644822D02*
X71000067Y-31523870D01*
X71000067Y-31523870D02*
X71060543Y-31463394D01*
X71060543Y-31463394D02*
X71181495Y-31402918D01*
D10*
X42110819Y-58586666D02*
X41634628Y-58919999D01*
X42110819Y-59158094D02*
X41110819Y-59158094D01*
X41110819Y-59158094D02*
X41110819Y-58777142D01*
X41110819Y-58777142D02*
X41158438Y-58681904D01*
X41158438Y-58681904D02*
X41206057Y-58634285D01*
X41206057Y-58634285D02*
X41301295Y-58586666D01*
X41301295Y-58586666D02*
X41444152Y-58586666D01*
X41444152Y-58586666D02*
X41539390Y-58634285D01*
X41539390Y-58634285D02*
X41587009Y-58681904D01*
X41587009Y-58681904D02*
X41634628Y-58777142D01*
X41634628Y-58777142D02*
X41634628Y-59158094D01*
X41110819Y-58253332D02*
X41110819Y-57634285D01*
X41110819Y-57634285D02*
X41491771Y-57967618D01*
X41491771Y-57967618D02*
X41491771Y-57824761D01*
X41491771Y-57824761D02*
X41539390Y-57729523D01*
X41539390Y-57729523D02*
X41587009Y-57681904D01*
X41587009Y-57681904D02*
X41682247Y-57634285D01*
X41682247Y-57634285D02*
X41920342Y-57634285D01*
X41920342Y-57634285D02*
X42015580Y-57681904D01*
X42015580Y-57681904D02*
X42063200Y-57729523D01*
X42063200Y-57729523D02*
X42110819Y-57824761D01*
X42110819Y-57824761D02*
X42110819Y-58110475D01*
X42110819Y-58110475D02*
X42063200Y-58205713D01*
X42063200Y-58205713D02*
X42015580Y-58253332D01*
X60616780Y-73087466D02*
X60664400Y-73135085D01*
X60664400Y-73135085D02*
X60712019Y-73277942D01*
X60712019Y-73277942D02*
X60712019Y-73373180D01*
X60712019Y-73373180D02*
X60664400Y-73516037D01*
X60664400Y-73516037D02*
X60569161Y-73611275D01*
X60569161Y-73611275D02*
X60473923Y-73658894D01*
X60473923Y-73658894D02*
X60283447Y-73706513D01*
X60283447Y-73706513D02*
X60140590Y-73706513D01*
X60140590Y-73706513D02*
X59950114Y-73658894D01*
X59950114Y-73658894D02*
X59854876Y-73611275D01*
X59854876Y-73611275D02*
X59759638Y-73516037D01*
X59759638Y-73516037D02*
X59712019Y-73373180D01*
X59712019Y-73373180D02*
X59712019Y-73277942D01*
X59712019Y-73277942D02*
X59759638Y-73135085D01*
X59759638Y-73135085D02*
X59807257Y-73087466D01*
X59712019Y-72230323D02*
X59712019Y-72420799D01*
X59712019Y-72420799D02*
X59759638Y-72516037D01*
X59759638Y-72516037D02*
X59807257Y-72563656D01*
X59807257Y-72563656D02*
X59950114Y-72658894D01*
X59950114Y-72658894D02*
X60140590Y-72706513D01*
X60140590Y-72706513D02*
X60521542Y-72706513D01*
X60521542Y-72706513D02*
X60616780Y-72658894D01*
X60616780Y-72658894D02*
X60664400Y-72611275D01*
X60664400Y-72611275D02*
X60712019Y-72516037D01*
X60712019Y-72516037D02*
X60712019Y-72325561D01*
X60712019Y-72325561D02*
X60664400Y-72230323D01*
X60664400Y-72230323D02*
X60616780Y-72182704D01*
X60616780Y-72182704D02*
X60521542Y-72135085D01*
X60521542Y-72135085D02*
X60283447Y-72135085D01*
X60283447Y-72135085D02*
X60188209Y-72182704D01*
X60188209Y-72182704D02*
X60140590Y-72230323D01*
X60140590Y-72230323D02*
X60092971Y-72325561D01*
X60092971Y-72325561D02*
X60092971Y-72516037D01*
X60092971Y-72516037D02*
X60140590Y-72611275D01*
X60140590Y-72611275D02*
X60188209Y-72658894D01*
X60188209Y-72658894D02*
X60283447Y-72706513D01*
X34121680Y-34544095D02*
X33312157Y-34544095D01*
X33312157Y-34544095D02*
X33216919Y-34591714D01*
X33216919Y-34591714D02*
X33169300Y-34639333D01*
X33169300Y-34639333D02*
X33121680Y-34734571D01*
X33121680Y-34734571D02*
X33121680Y-34925047D01*
X33121680Y-34925047D02*
X33169300Y-35020285D01*
X33169300Y-35020285D02*
X33216919Y-35067904D01*
X33216919Y-35067904D02*
X33312157Y-35115523D01*
X33312157Y-35115523D02*
X34121680Y-35115523D01*
X33121680Y-36115523D02*
X33121680Y-35544095D01*
X33121680Y-35829809D02*
X34121680Y-35829809D01*
X34121680Y-35829809D02*
X33978823Y-35734571D01*
X33978823Y-35734571D02*
X33883585Y-35639333D01*
X33883585Y-35639333D02*
X33835966Y-35544095D01*
X35632319Y-33686749D02*
X35870414Y-33686749D01*
X35775176Y-33924844D02*
X35870414Y-33686749D01*
X35870414Y-33686749D02*
X35775176Y-33448654D01*
X36060890Y-33829606D02*
X35870414Y-33686749D01*
X35870414Y-33686749D02*
X36060890Y-33543892D01*
X36722680Y-33686750D02*
X36484585Y-33686750D01*
X36579823Y-33448655D02*
X36484585Y-33686750D01*
X36484585Y-33686750D02*
X36579823Y-33924845D01*
X36294109Y-33543893D02*
X36484585Y-33686750D01*
X36484585Y-33686750D02*
X36294109Y-33829607D01*
X62936780Y-75607266D02*
X62984400Y-75654885D01*
X62984400Y-75654885D02*
X63032019Y-75797742D01*
X63032019Y-75797742D02*
X63032019Y-75892980D01*
X63032019Y-75892980D02*
X62984400Y-76035837D01*
X62984400Y-76035837D02*
X62889161Y-76131075D01*
X62889161Y-76131075D02*
X62793923Y-76178694D01*
X62793923Y-76178694D02*
X62603447Y-76226313D01*
X62603447Y-76226313D02*
X62460590Y-76226313D01*
X62460590Y-76226313D02*
X62270114Y-76178694D01*
X62270114Y-76178694D02*
X62174876Y-76131075D01*
X62174876Y-76131075D02*
X62079638Y-76035837D01*
X62079638Y-76035837D02*
X62032019Y-75892980D01*
X62032019Y-75892980D02*
X62032019Y-75797742D01*
X62032019Y-75797742D02*
X62079638Y-75654885D01*
X62079638Y-75654885D02*
X62127257Y-75607266D01*
X63032019Y-75131075D02*
X63032019Y-74940599D01*
X63032019Y-74940599D02*
X62984400Y-74845361D01*
X62984400Y-74845361D02*
X62936780Y-74797742D01*
X62936780Y-74797742D02*
X62793923Y-74702504D01*
X62793923Y-74702504D02*
X62603447Y-74654885D01*
X62603447Y-74654885D02*
X62222495Y-74654885D01*
X62222495Y-74654885D02*
X62127257Y-74702504D01*
X62127257Y-74702504D02*
X62079638Y-74750123D01*
X62079638Y-74750123D02*
X62032019Y-74845361D01*
X62032019Y-74845361D02*
X62032019Y-75035837D01*
X62032019Y-75035837D02*
X62079638Y-75131075D01*
X62079638Y-75131075D02*
X62127257Y-75178694D01*
X62127257Y-75178694D02*
X62222495Y-75226313D01*
X62222495Y-75226313D02*
X62460590Y-75226313D01*
X62460590Y-75226313D02*
X62555828Y-75178694D01*
X62555828Y-75178694D02*
X62603447Y-75131075D01*
X62603447Y-75131075D02*
X62651066Y-75035837D01*
X62651066Y-75035837D02*
X62651066Y-74845361D01*
X62651066Y-74845361D02*
X62603447Y-74750123D01*
X62603447Y-74750123D02*
X62555828Y-74702504D01*
X62555828Y-74702504D02*
X62460590Y-74654885D01*
X64616105Y-68171219D02*
X64616105Y-67171219D01*
X64616105Y-67171219D02*
X64854200Y-67171219D01*
X64854200Y-67171219D02*
X64997057Y-67218838D01*
X64997057Y-67218838D02*
X65092295Y-67314076D01*
X65092295Y-67314076D02*
X65139914Y-67409314D01*
X65139914Y-67409314D02*
X65187533Y-67599790D01*
X65187533Y-67599790D02*
X65187533Y-67742647D01*
X65187533Y-67742647D02*
X65139914Y-67933123D01*
X65139914Y-67933123D02*
X65092295Y-68028361D01*
X65092295Y-68028361D02*
X64997057Y-68123600D01*
X64997057Y-68123600D02*
X64854200Y-68171219D01*
X64854200Y-68171219D02*
X64616105Y-68171219D01*
X66139914Y-68171219D02*
X65568486Y-68171219D01*
X65854200Y-68171219D02*
X65854200Y-67171219D01*
X65854200Y-67171219D02*
X65758962Y-67314076D01*
X65758962Y-67314076D02*
X65663724Y-67409314D01*
X65663724Y-67409314D02*
X65568486Y-67456933D01*
X38061580Y-30547666D02*
X38109200Y-30595285D01*
X38109200Y-30595285D02*
X38156819Y-30738142D01*
X38156819Y-30738142D02*
X38156819Y-30833380D01*
X38156819Y-30833380D02*
X38109200Y-30976237D01*
X38109200Y-30976237D02*
X38013961Y-31071475D01*
X38013961Y-31071475D02*
X37918723Y-31119094D01*
X37918723Y-31119094D02*
X37728247Y-31166713D01*
X37728247Y-31166713D02*
X37585390Y-31166713D01*
X37585390Y-31166713D02*
X37394914Y-31119094D01*
X37394914Y-31119094D02*
X37299676Y-31071475D01*
X37299676Y-31071475D02*
X37204438Y-30976237D01*
X37204438Y-30976237D02*
X37156819Y-30833380D01*
X37156819Y-30833380D02*
X37156819Y-30738142D01*
X37156819Y-30738142D02*
X37204438Y-30595285D01*
X37204438Y-30595285D02*
X37252057Y-30547666D01*
X38156819Y-29595285D02*
X38156819Y-30166713D01*
X38156819Y-29880999D02*
X37156819Y-29880999D01*
X37156819Y-29880999D02*
X37299676Y-29976237D01*
X37299676Y-29976237D02*
X37394914Y-30071475D01*
X37394914Y-30071475D02*
X37442533Y-30166713D01*
X64635142Y-44555580D02*
X64587523Y-44603200D01*
X64587523Y-44603200D02*
X64444666Y-44650819D01*
X64444666Y-44650819D02*
X64349428Y-44650819D01*
X64349428Y-44650819D02*
X64206571Y-44603200D01*
X64206571Y-44603200D02*
X64111333Y-44507961D01*
X64111333Y-44507961D02*
X64063714Y-44412723D01*
X64063714Y-44412723D02*
X64016095Y-44222247D01*
X64016095Y-44222247D02*
X64016095Y-44079390D01*
X64016095Y-44079390D02*
X64063714Y-43888914D01*
X64063714Y-43888914D02*
X64111333Y-43793676D01*
X64111333Y-43793676D02*
X64206571Y-43698438D01*
X64206571Y-43698438D02*
X64349428Y-43650819D01*
X64349428Y-43650819D02*
X64444666Y-43650819D01*
X64444666Y-43650819D02*
X64587523Y-43698438D01*
X64587523Y-43698438D02*
X64635142Y-43746057D01*
X65016095Y-43746057D02*
X65063714Y-43698438D01*
X65063714Y-43698438D02*
X65158952Y-43650819D01*
X65158952Y-43650819D02*
X65397047Y-43650819D01*
X65397047Y-43650819D02*
X65492285Y-43698438D01*
X65492285Y-43698438D02*
X65539904Y-43746057D01*
X65539904Y-43746057D02*
X65587523Y-43841295D01*
X65587523Y-43841295D02*
X65587523Y-43936533D01*
X65587523Y-43936533D02*
X65539904Y-44079390D01*
X65539904Y-44079390D02*
X64968476Y-44650819D01*
X64968476Y-44650819D02*
X65587523Y-44650819D01*
X66539904Y-44650819D02*
X65968476Y-44650819D01*
X66254190Y-44650819D02*
X66254190Y-43650819D01*
X66254190Y-43650819D02*
X66158952Y-43793676D01*
X66158952Y-43793676D02*
X66063714Y-43888914D01*
X66063714Y-43888914D02*
X65968476Y-43936533D01*
X53953580Y-46235857D02*
X54001200Y-46283476D01*
X54001200Y-46283476D02*
X54048819Y-46426333D01*
X54048819Y-46426333D02*
X54048819Y-46521571D01*
X54048819Y-46521571D02*
X54001200Y-46664428D01*
X54001200Y-46664428D02*
X53905961Y-46759666D01*
X53905961Y-46759666D02*
X53810723Y-46807285D01*
X53810723Y-46807285D02*
X53620247Y-46854904D01*
X53620247Y-46854904D02*
X53477390Y-46854904D01*
X53477390Y-46854904D02*
X53286914Y-46807285D01*
X53286914Y-46807285D02*
X53191676Y-46759666D01*
X53191676Y-46759666D02*
X53096438Y-46664428D01*
X53096438Y-46664428D02*
X53048819Y-46521571D01*
X53048819Y-46521571D02*
X53048819Y-46426333D01*
X53048819Y-46426333D02*
X53096438Y-46283476D01*
X53096438Y-46283476D02*
X53144057Y-46235857D01*
X54048819Y-45283476D02*
X54048819Y-45854904D01*
X54048819Y-45569190D02*
X53048819Y-45569190D01*
X53048819Y-45569190D02*
X53191676Y-45664428D01*
X53191676Y-45664428D02*
X53286914Y-45759666D01*
X53286914Y-45759666D02*
X53334533Y-45854904D01*
X54048819Y-44807285D02*
X54048819Y-44616809D01*
X54048819Y-44616809D02*
X54001200Y-44521571D01*
X54001200Y-44521571D02*
X53953580Y-44473952D01*
X53953580Y-44473952D02*
X53810723Y-44378714D01*
X53810723Y-44378714D02*
X53620247Y-44331095D01*
X53620247Y-44331095D02*
X53239295Y-44331095D01*
X53239295Y-44331095D02*
X53144057Y-44378714D01*
X53144057Y-44378714D02*
X53096438Y-44426333D01*
X53096438Y-44426333D02*
X53048819Y-44521571D01*
X53048819Y-44521571D02*
X53048819Y-44712047D01*
X53048819Y-44712047D02*
X53096438Y-44807285D01*
X53096438Y-44807285D02*
X53144057Y-44854904D01*
X53144057Y-44854904D02*
X53239295Y-44902523D01*
X53239295Y-44902523D02*
X53477390Y-44902523D01*
X53477390Y-44902523D02*
X53572628Y-44854904D01*
X53572628Y-44854904D02*
X53620247Y-44807285D01*
X53620247Y-44807285D02*
X53667866Y-44712047D01*
X53667866Y-44712047D02*
X53667866Y-44521571D01*
X53667866Y-44521571D02*
X53620247Y-44426333D01*
X53620247Y-44426333D02*
X53572628Y-44378714D01*
X53572628Y-44378714D02*
X53477390Y-44331095D01*
X79259580Y-60701457D02*
X79307200Y-60749076D01*
X79307200Y-60749076D02*
X79354819Y-60891933D01*
X79354819Y-60891933D02*
X79354819Y-60987171D01*
X79354819Y-60987171D02*
X79307200Y-61130028D01*
X79307200Y-61130028D02*
X79211961Y-61225266D01*
X79211961Y-61225266D02*
X79116723Y-61272885D01*
X79116723Y-61272885D02*
X78926247Y-61320504D01*
X78926247Y-61320504D02*
X78783390Y-61320504D01*
X78783390Y-61320504D02*
X78592914Y-61272885D01*
X78592914Y-61272885D02*
X78497676Y-61225266D01*
X78497676Y-61225266D02*
X78402438Y-61130028D01*
X78402438Y-61130028D02*
X78354819Y-60987171D01*
X78354819Y-60987171D02*
X78354819Y-60891933D01*
X78354819Y-60891933D02*
X78402438Y-60749076D01*
X78402438Y-60749076D02*
X78450057Y-60701457D01*
X78450057Y-60320504D02*
X78402438Y-60272885D01*
X78402438Y-60272885D02*
X78354819Y-60177647D01*
X78354819Y-60177647D02*
X78354819Y-59939552D01*
X78354819Y-59939552D02*
X78402438Y-59844314D01*
X78402438Y-59844314D02*
X78450057Y-59796695D01*
X78450057Y-59796695D02*
X78545295Y-59749076D01*
X78545295Y-59749076D02*
X78640533Y-59749076D01*
X78640533Y-59749076D02*
X78783390Y-59796695D01*
X78783390Y-59796695D02*
X79354819Y-60368123D01*
X79354819Y-60368123D02*
X79354819Y-59749076D01*
X78450057Y-59368123D02*
X78402438Y-59320504D01*
X78402438Y-59320504D02*
X78354819Y-59225266D01*
X78354819Y-59225266D02*
X78354819Y-58987171D01*
X78354819Y-58987171D02*
X78402438Y-58891933D01*
X78402438Y-58891933D02*
X78450057Y-58844314D01*
X78450057Y-58844314D02*
X78545295Y-58796695D01*
X78545295Y-58796695D02*
X78640533Y-58796695D01*
X78640533Y-58796695D02*
X78783390Y-58844314D01*
X78783390Y-58844314D02*
X79354819Y-59415742D01*
X79354819Y-59415742D02*
X79354819Y-58796695D01*
X60498380Y-43822857D02*
X60546000Y-43870476D01*
X60546000Y-43870476D02*
X60593619Y-44013333D01*
X60593619Y-44013333D02*
X60593619Y-44108571D01*
X60593619Y-44108571D02*
X60546000Y-44251428D01*
X60546000Y-44251428D02*
X60450761Y-44346666D01*
X60450761Y-44346666D02*
X60355523Y-44394285D01*
X60355523Y-44394285D02*
X60165047Y-44441904D01*
X60165047Y-44441904D02*
X60022190Y-44441904D01*
X60022190Y-44441904D02*
X59831714Y-44394285D01*
X59831714Y-44394285D02*
X59736476Y-44346666D01*
X59736476Y-44346666D02*
X59641238Y-44251428D01*
X59641238Y-44251428D02*
X59593619Y-44108571D01*
X59593619Y-44108571D02*
X59593619Y-44013333D01*
X59593619Y-44013333D02*
X59641238Y-43870476D01*
X59641238Y-43870476D02*
X59688857Y-43822857D01*
X60593619Y-42870476D02*
X60593619Y-43441904D01*
X60593619Y-43156190D02*
X59593619Y-43156190D01*
X59593619Y-43156190D02*
X59736476Y-43251428D01*
X59736476Y-43251428D02*
X59831714Y-43346666D01*
X59831714Y-43346666D02*
X59879333Y-43441904D01*
X59593619Y-42537142D02*
X59593619Y-41870476D01*
X59593619Y-41870476D02*
X60593619Y-42299047D01*
X54757142Y-61683580D02*
X54709523Y-61731200D01*
X54709523Y-61731200D02*
X54566666Y-61778819D01*
X54566666Y-61778819D02*
X54471428Y-61778819D01*
X54471428Y-61778819D02*
X54328571Y-61731200D01*
X54328571Y-61731200D02*
X54233333Y-61635961D01*
X54233333Y-61635961D02*
X54185714Y-61540723D01*
X54185714Y-61540723D02*
X54138095Y-61350247D01*
X54138095Y-61350247D02*
X54138095Y-61207390D01*
X54138095Y-61207390D02*
X54185714Y-61016914D01*
X54185714Y-61016914D02*
X54233333Y-60921676D01*
X54233333Y-60921676D02*
X54328571Y-60826438D01*
X54328571Y-60826438D02*
X54471428Y-60778819D01*
X54471428Y-60778819D02*
X54566666Y-60778819D01*
X54566666Y-60778819D02*
X54709523Y-60826438D01*
X54709523Y-60826438D02*
X54757142Y-60874057D01*
X55709523Y-61778819D02*
X55138095Y-61778819D01*
X55423809Y-61778819D02*
X55423809Y-60778819D01*
X55423809Y-60778819D02*
X55328571Y-60921676D01*
X55328571Y-60921676D02*
X55233333Y-61016914D01*
X55233333Y-61016914D02*
X55138095Y-61064533D01*
X56090476Y-60874057D02*
X56138095Y-60826438D01*
X56138095Y-60826438D02*
X56233333Y-60778819D01*
X56233333Y-60778819D02*
X56471428Y-60778819D01*
X56471428Y-60778819D02*
X56566666Y-60826438D01*
X56566666Y-60826438D02*
X56614285Y-60874057D01*
X56614285Y-60874057D02*
X56661904Y-60969295D01*
X56661904Y-60969295D02*
X56661904Y-61064533D01*
X56661904Y-61064533D02*
X56614285Y-61207390D01*
X56614285Y-61207390D02*
X56042857Y-61778819D01*
X56042857Y-61778819D02*
X56661904Y-61778819D01*
X30525711Y-47206819D02*
X30525711Y-48016342D01*
X30525711Y-48016342D02*
X30573330Y-48111580D01*
X30573330Y-48111580D02*
X30620949Y-48159200D01*
X30620949Y-48159200D02*
X30716187Y-48206819D01*
X30716187Y-48206819D02*
X30906663Y-48206819D01*
X30906663Y-48206819D02*
X31001901Y-48159200D01*
X31001901Y-48159200D02*
X31049520Y-48111580D01*
X31049520Y-48111580D02*
X31097139Y-48016342D01*
X31097139Y-48016342D02*
X31097139Y-47206819D01*
X31478092Y-47206819D02*
X32097139Y-47206819D01*
X32097139Y-47206819D02*
X31763806Y-47587771D01*
X31763806Y-47587771D02*
X31906663Y-47587771D01*
X31906663Y-47587771D02*
X32001901Y-47635390D01*
X32001901Y-47635390D02*
X32049520Y-47683009D01*
X32049520Y-47683009D02*
X32097139Y-47778247D01*
X32097139Y-47778247D02*
X32097139Y-48016342D01*
X32097139Y-48016342D02*
X32049520Y-48111580D01*
X32049520Y-48111580D02*
X32001901Y-48159200D01*
X32001901Y-48159200D02*
X31906663Y-48206819D01*
X31906663Y-48206819D02*
X31620949Y-48206819D01*
X31620949Y-48206819D02*
X31525711Y-48159200D01*
X31525711Y-48159200D02*
X31478092Y-48111580D01*
X69631819Y-48561523D02*
X70346104Y-48561523D01*
X70346104Y-48561523D02*
X70488961Y-48609142D01*
X70488961Y-48609142D02*
X70584200Y-48704380D01*
X70584200Y-48704380D02*
X70631819Y-48847237D01*
X70631819Y-48847237D02*
X70631819Y-48942475D01*
X70631819Y-47561523D02*
X70631819Y-48132951D01*
X70631819Y-47847237D02*
X69631819Y-47847237D01*
X69631819Y-47847237D02*
X69774676Y-47942475D01*
X69774676Y-47942475D02*
X69869914Y-48037713D01*
X69869914Y-48037713D02*
X69917533Y-48132951D01*
X69631819Y-47228189D02*
X69631819Y-46609142D01*
X69631819Y-46609142D02*
X70012771Y-46942475D01*
X70012771Y-46942475D02*
X70012771Y-46799618D01*
X70012771Y-46799618D02*
X70060390Y-46704380D01*
X70060390Y-46704380D02*
X70108009Y-46656761D01*
X70108009Y-46656761D02*
X70203247Y-46609142D01*
X70203247Y-46609142D02*
X70441342Y-46609142D01*
X70441342Y-46609142D02*
X70536580Y-46656761D01*
X70536580Y-46656761D02*
X70584200Y-46704380D01*
X70584200Y-46704380D02*
X70631819Y-46799618D01*
X70631819Y-46799618D02*
X70631819Y-47085332D01*
X70631819Y-47085332D02*
X70584200Y-47180570D01*
X70584200Y-47180570D02*
X70536580Y-47228189D01*
X55324476Y-27985819D02*
X55324476Y-28700104D01*
X55324476Y-28700104D02*
X55276857Y-28842961D01*
X55276857Y-28842961D02*
X55181619Y-28938200D01*
X55181619Y-28938200D02*
X55038762Y-28985819D01*
X55038762Y-28985819D02*
X54943524Y-28985819D01*
X56324476Y-28985819D02*
X55753048Y-28985819D01*
X56038762Y-28985819D02*
X56038762Y-27985819D01*
X56038762Y-27985819D02*
X55943524Y-28128676D01*
X55943524Y-28128676D02*
X55848286Y-28223914D01*
X55848286Y-28223914D02*
X55753048Y-28271533D01*
X57276857Y-28985819D02*
X56705429Y-28985819D01*
X56991143Y-28985819D02*
X56991143Y-27985819D01*
X56991143Y-27985819D02*
X56895905Y-28128676D01*
X56895905Y-28128676D02*
X56800667Y-28223914D01*
X56800667Y-28223914D02*
X56705429Y-28271533D01*
X60691733Y-70227019D02*
X60358400Y-69750828D01*
X60120305Y-70227019D02*
X60120305Y-69227019D01*
X60120305Y-69227019D02*
X60501257Y-69227019D01*
X60501257Y-69227019D02*
X60596495Y-69274638D01*
X60596495Y-69274638D02*
X60644114Y-69322257D01*
X60644114Y-69322257D02*
X60691733Y-69417495D01*
X60691733Y-69417495D02*
X60691733Y-69560352D01*
X60691733Y-69560352D02*
X60644114Y-69655590D01*
X60644114Y-69655590D02*
X60596495Y-69703209D01*
X60596495Y-69703209D02*
X60501257Y-69750828D01*
X60501257Y-69750828D02*
X60120305Y-69750828D01*
X61072686Y-69322257D02*
X61120305Y-69274638D01*
X61120305Y-69274638D02*
X61215543Y-69227019D01*
X61215543Y-69227019D02*
X61453638Y-69227019D01*
X61453638Y-69227019D02*
X61548876Y-69274638D01*
X61548876Y-69274638D02*
X61596495Y-69322257D01*
X61596495Y-69322257D02*
X61644114Y-69417495D01*
X61644114Y-69417495D02*
X61644114Y-69512733D01*
X61644114Y-69512733D02*
X61596495Y-69655590D01*
X61596495Y-69655590D02*
X61025067Y-70227019D01*
X61025067Y-70227019D02*
X61644114Y-70227019D01*
X73834666Y-75444819D02*
X73834666Y-76159104D01*
X73834666Y-76159104D02*
X73787047Y-76301961D01*
X73787047Y-76301961D02*
X73691809Y-76397200D01*
X73691809Y-76397200D02*
X73548952Y-76444819D01*
X73548952Y-76444819D02*
X73453714Y-76444819D01*
X74739428Y-75444819D02*
X74548952Y-75444819D01*
X74548952Y-75444819D02*
X74453714Y-75492438D01*
X74453714Y-75492438D02*
X74406095Y-75540057D01*
X74406095Y-75540057D02*
X74310857Y-75682914D01*
X74310857Y-75682914D02*
X74263238Y-75873390D01*
X74263238Y-75873390D02*
X74263238Y-76254342D01*
X74263238Y-76254342D02*
X74310857Y-76349580D01*
X74310857Y-76349580D02*
X74358476Y-76397200D01*
X74358476Y-76397200D02*
X74453714Y-76444819D01*
X74453714Y-76444819D02*
X74644190Y-76444819D01*
X74644190Y-76444819D02*
X74739428Y-76397200D01*
X74739428Y-76397200D02*
X74787047Y-76349580D01*
X74787047Y-76349580D02*
X74834666Y-76254342D01*
X74834666Y-76254342D02*
X74834666Y-76016247D01*
X74834666Y-76016247D02*
X74787047Y-75921009D01*
X74787047Y-75921009D02*
X74739428Y-75873390D01*
X74739428Y-75873390D02*
X74644190Y-75825771D01*
X74644190Y-75825771D02*
X74453714Y-75825771D01*
X74453714Y-75825771D02*
X74358476Y-75873390D01*
X74358476Y-75873390D02*
X74310857Y-75921009D01*
X74310857Y-75921009D02*
X74263238Y-76016247D01*
X38215333Y-32981580D02*
X38167714Y-33029200D01*
X38167714Y-33029200D02*
X38024857Y-33076819D01*
X38024857Y-33076819D02*
X37929619Y-33076819D01*
X37929619Y-33076819D02*
X37786762Y-33029200D01*
X37786762Y-33029200D02*
X37691524Y-32933961D01*
X37691524Y-32933961D02*
X37643905Y-32838723D01*
X37643905Y-32838723D02*
X37596286Y-32648247D01*
X37596286Y-32648247D02*
X37596286Y-32505390D01*
X37596286Y-32505390D02*
X37643905Y-32314914D01*
X37643905Y-32314914D02*
X37691524Y-32219676D01*
X37691524Y-32219676D02*
X37786762Y-32124438D01*
X37786762Y-32124438D02*
X37929619Y-32076819D01*
X37929619Y-32076819D02*
X38024857Y-32076819D01*
X38024857Y-32076819D02*
X38167714Y-32124438D01*
X38167714Y-32124438D02*
X38215333Y-32172057D01*
X38548667Y-32076819D02*
X39167714Y-32076819D01*
X39167714Y-32076819D02*
X38834381Y-32457771D01*
X38834381Y-32457771D02*
X38977238Y-32457771D01*
X38977238Y-32457771D02*
X39072476Y-32505390D01*
X39072476Y-32505390D02*
X39120095Y-32553009D01*
X39120095Y-32553009D02*
X39167714Y-32648247D01*
X39167714Y-32648247D02*
X39167714Y-32886342D01*
X39167714Y-32886342D02*
X39120095Y-32981580D01*
X39120095Y-32981580D02*
X39072476Y-33029200D01*
X39072476Y-33029200D02*
X38977238Y-33076819D01*
X38977238Y-33076819D02*
X38691524Y-33076819D01*
X38691524Y-33076819D02*
X38596286Y-33029200D01*
X38596286Y-33029200D02*
X38548667Y-32981580D01*
X59008011Y-38253609D02*
X59491820Y-38253609D01*
X58475820Y-38592276D02*
X59008011Y-38253609D01*
X59008011Y-38253609D02*
X58475820Y-37914942D01*
X58572582Y-37624657D02*
X58524201Y-37576276D01*
X58524201Y-37576276D02*
X58475820Y-37479514D01*
X58475820Y-37479514D02*
X58475820Y-37237609D01*
X58475820Y-37237609D02*
X58524201Y-37140847D01*
X58524201Y-37140847D02*
X58572582Y-37092466D01*
X58572582Y-37092466D02*
X58669344Y-37044085D01*
X58669344Y-37044085D02*
X58766106Y-37044085D01*
X58766106Y-37044085D02*
X58911249Y-37092466D01*
X58911249Y-37092466D02*
X59491820Y-37673038D01*
X59491820Y-37673038D02*
X59491820Y-37044085D01*
X40646819Y-26749333D02*
X41361104Y-26749333D01*
X41361104Y-26749333D02*
X41503961Y-26796952D01*
X41503961Y-26796952D02*
X41599200Y-26892190D01*
X41599200Y-26892190D02*
X41646819Y-27035047D01*
X41646819Y-27035047D02*
X41646819Y-27130285D01*
X41646819Y-25749333D02*
X41646819Y-26320761D01*
X41646819Y-26035047D02*
X40646819Y-26035047D01*
X40646819Y-26035047D02*
X40789676Y-26130285D01*
X40789676Y-26130285D02*
X40884914Y-26225523D01*
X40884914Y-26225523D02*
X40932533Y-26320761D01*
X41618819Y-50236333D02*
X42333104Y-50236333D01*
X42333104Y-50236333D02*
X42475961Y-50283952D01*
X42475961Y-50283952D02*
X42571200Y-50379190D01*
X42571200Y-50379190D02*
X42618819Y-50522047D01*
X42618819Y-50522047D02*
X42618819Y-50617285D01*
X42618819Y-49760142D02*
X41618819Y-49760142D01*
X41618819Y-49760142D02*
X41618819Y-49379190D01*
X41618819Y-49379190D02*
X41666438Y-49283952D01*
X41666438Y-49283952D02*
X41714057Y-49236333D01*
X41714057Y-49236333D02*
X41809295Y-49188714D01*
X41809295Y-49188714D02*
X41952152Y-49188714D01*
X41952152Y-49188714D02*
X42047390Y-49236333D01*
X42047390Y-49236333D02*
X42095009Y-49283952D01*
X42095009Y-49283952D02*
X42142628Y-49379190D01*
X42142628Y-49379190D02*
X42142628Y-49760142D01*
X42618819Y-48236333D02*
X42618819Y-48807761D01*
X42618819Y-48522047D02*
X41618819Y-48522047D01*
X41618819Y-48522047D02*
X41761676Y-48617285D01*
X41761676Y-48617285D02*
X41856914Y-48712523D01*
X41856914Y-48712523D02*
X41904533Y-48807761D01*
X48263820Y-38430104D02*
X49073343Y-38430104D01*
X49073343Y-38430104D02*
X49168581Y-38382485D01*
X49168581Y-38382485D02*
X49216201Y-38334866D01*
X49216201Y-38334866D02*
X49263820Y-38239628D01*
X49263820Y-38239628D02*
X49263820Y-38049152D01*
X49263820Y-38049152D02*
X49216201Y-37953914D01*
X49216201Y-37953914D02*
X49168581Y-37906295D01*
X49168581Y-37906295D02*
X49073343Y-37858676D01*
X49073343Y-37858676D02*
X48263820Y-37858676D01*
X48597153Y-36953914D02*
X49263820Y-36953914D01*
X48216201Y-37192009D02*
X48930486Y-37430104D01*
X48930486Y-37430104D02*
X48930486Y-36811057D01*
X42888819Y-42163999D02*
X43126914Y-42163999D01*
X43031676Y-42402094D02*
X43126914Y-42163999D01*
X43126914Y-42163999D02*
X43031676Y-41925904D01*
X43317390Y-42306856D02*
X43126914Y-42163999D01*
X43126914Y-42163999D02*
X43317390Y-42021142D01*
X43142819Y-41401999D02*
X43380914Y-41401999D01*
X43285676Y-41640094D02*
X43380914Y-41401999D01*
X43380914Y-41401999D02*
X43285676Y-41163904D01*
X43571390Y-41544856D02*
X43380914Y-41401999D01*
X43380914Y-41401999D02*
X43571390Y-41259142D01*
X53808333Y-53540819D02*
X53475000Y-53064628D01*
X53236905Y-53540819D02*
X53236905Y-52540819D01*
X53236905Y-52540819D02*
X53617857Y-52540819D01*
X53617857Y-52540819D02*
X53713095Y-52588438D01*
X53713095Y-52588438D02*
X53760714Y-52636057D01*
X53760714Y-52636057D02*
X53808333Y-52731295D01*
X53808333Y-52731295D02*
X53808333Y-52874152D01*
X53808333Y-52874152D02*
X53760714Y-52969390D01*
X53760714Y-52969390D02*
X53713095Y-53017009D01*
X53713095Y-53017009D02*
X53617857Y-53064628D01*
X53617857Y-53064628D02*
X53236905Y-53064628D01*
X54141667Y-52540819D02*
X54808333Y-52540819D01*
X54808333Y-52540819D02*
X54379762Y-53540819D01*
X43793580Y-44457857D02*
X43841200Y-44505476D01*
X43841200Y-44505476D02*
X43888819Y-44648333D01*
X43888819Y-44648333D02*
X43888819Y-44743571D01*
X43888819Y-44743571D02*
X43841200Y-44886428D01*
X43841200Y-44886428D02*
X43745961Y-44981666D01*
X43745961Y-44981666D02*
X43650723Y-45029285D01*
X43650723Y-45029285D02*
X43460247Y-45076904D01*
X43460247Y-45076904D02*
X43317390Y-45076904D01*
X43317390Y-45076904D02*
X43126914Y-45029285D01*
X43126914Y-45029285D02*
X43031676Y-44981666D01*
X43031676Y-44981666D02*
X42936438Y-44886428D01*
X42936438Y-44886428D02*
X42888819Y-44743571D01*
X42888819Y-44743571D02*
X42888819Y-44648333D01*
X42888819Y-44648333D02*
X42936438Y-44505476D01*
X42936438Y-44505476D02*
X42984057Y-44457857D01*
X42984057Y-44076904D02*
X42936438Y-44029285D01*
X42936438Y-44029285D02*
X42888819Y-43934047D01*
X42888819Y-43934047D02*
X42888819Y-43695952D01*
X42888819Y-43695952D02*
X42936438Y-43600714D01*
X42936438Y-43600714D02*
X42984057Y-43553095D01*
X42984057Y-43553095D02*
X43079295Y-43505476D01*
X43079295Y-43505476D02*
X43174533Y-43505476D01*
X43174533Y-43505476D02*
X43317390Y-43553095D01*
X43317390Y-43553095D02*
X43888819Y-44124523D01*
X43888819Y-44124523D02*
X43888819Y-43505476D01*
X42888819Y-42886428D02*
X42888819Y-42791190D01*
X42888819Y-42791190D02*
X42936438Y-42695952D01*
X42936438Y-42695952D02*
X42984057Y-42648333D01*
X42984057Y-42648333D02*
X43079295Y-42600714D01*
X43079295Y-42600714D02*
X43269771Y-42553095D01*
X43269771Y-42553095D02*
X43507866Y-42553095D01*
X43507866Y-42553095D02*
X43698342Y-42600714D01*
X43698342Y-42600714D02*
X43793580Y-42648333D01*
X43793580Y-42648333D02*
X43841200Y-42695952D01*
X43841200Y-42695952D02*
X43888819Y-42791190D01*
X43888819Y-42791190D02*
X43888819Y-42886428D01*
X43888819Y-42886428D02*
X43841200Y-42981666D01*
X43841200Y-42981666D02*
X43793580Y-43029285D01*
X43793580Y-43029285D02*
X43698342Y-43076904D01*
X43698342Y-43076904D02*
X43507866Y-43124523D01*
X43507866Y-43124523D02*
X43269771Y-43124523D01*
X43269771Y-43124523D02*
X43079295Y-43076904D01*
X43079295Y-43076904D02*
X42984057Y-43029285D01*
X42984057Y-43029285D02*
X42936438Y-42981666D01*
X42936438Y-42981666D02*
X42888819Y-42886428D01*
X35394580Y-30547666D02*
X35442200Y-30595285D01*
X35442200Y-30595285D02*
X35489819Y-30738142D01*
X35489819Y-30738142D02*
X35489819Y-30833380D01*
X35489819Y-30833380D02*
X35442200Y-30976237D01*
X35442200Y-30976237D02*
X35346961Y-31071475D01*
X35346961Y-31071475D02*
X35251723Y-31119094D01*
X35251723Y-31119094D02*
X35061247Y-31166713D01*
X35061247Y-31166713D02*
X34918390Y-31166713D01*
X34918390Y-31166713D02*
X34727914Y-31119094D01*
X34727914Y-31119094D02*
X34632676Y-31071475D01*
X34632676Y-31071475D02*
X34537438Y-30976237D01*
X34537438Y-30976237D02*
X34489819Y-30833380D01*
X34489819Y-30833380D02*
X34489819Y-30738142D01*
X34489819Y-30738142D02*
X34537438Y-30595285D01*
X34537438Y-30595285D02*
X34585057Y-30547666D01*
X34585057Y-30166713D02*
X34537438Y-30119094D01*
X34537438Y-30119094D02*
X34489819Y-30023856D01*
X34489819Y-30023856D02*
X34489819Y-29785761D01*
X34489819Y-29785761D02*
X34537438Y-29690523D01*
X34537438Y-29690523D02*
X34585057Y-29642904D01*
X34585057Y-29642904D02*
X34680295Y-29595285D01*
X34680295Y-29595285D02*
X34775533Y-29595285D01*
X34775533Y-29595285D02*
X34918390Y-29642904D01*
X34918390Y-29642904D02*
X35489819Y-30214332D01*
X35489819Y-30214332D02*
X35489819Y-29595285D01*
X33915819Y-41989333D02*
X34630104Y-41989333D01*
X34630104Y-41989333D02*
X34772961Y-42036952D01*
X34772961Y-42036952D02*
X34868200Y-42132190D01*
X34868200Y-42132190D02*
X34915819Y-42275047D01*
X34915819Y-42275047D02*
X34915819Y-42370285D01*
X34344390Y-41370285D02*
X34296771Y-41465523D01*
X34296771Y-41465523D02*
X34249152Y-41513142D01*
X34249152Y-41513142D02*
X34153914Y-41560761D01*
X34153914Y-41560761D02*
X34106295Y-41560761D01*
X34106295Y-41560761D02*
X34011057Y-41513142D01*
X34011057Y-41513142D02*
X33963438Y-41465523D01*
X33963438Y-41465523D02*
X33915819Y-41370285D01*
X33915819Y-41370285D02*
X33915819Y-41179809D01*
X33915819Y-41179809D02*
X33963438Y-41084571D01*
X33963438Y-41084571D02*
X34011057Y-41036952D01*
X34011057Y-41036952D02*
X34106295Y-40989333D01*
X34106295Y-40989333D02*
X34153914Y-40989333D01*
X34153914Y-40989333D02*
X34249152Y-41036952D01*
X34249152Y-41036952D02*
X34296771Y-41084571D01*
X34296771Y-41084571D02*
X34344390Y-41179809D01*
X34344390Y-41179809D02*
X34344390Y-41370285D01*
X34344390Y-41370285D02*
X34392009Y-41465523D01*
X34392009Y-41465523D02*
X34439628Y-41513142D01*
X34439628Y-41513142D02*
X34534866Y-41560761D01*
X34534866Y-41560761D02*
X34725342Y-41560761D01*
X34725342Y-41560761D02*
X34820580Y-41513142D01*
X34820580Y-41513142D02*
X34868200Y-41465523D01*
X34868200Y-41465523D02*
X34915819Y-41370285D01*
X34915819Y-41370285D02*
X34915819Y-41179809D01*
X34915819Y-41179809D02*
X34868200Y-41084571D01*
X34868200Y-41084571D02*
X34820580Y-41036952D01*
X34820580Y-41036952D02*
X34725342Y-40989333D01*
X34725342Y-40989333D02*
X34534866Y-40989333D01*
X34534866Y-40989333D02*
X34439628Y-41036952D01*
X34439628Y-41036952D02*
X34392009Y-41084571D01*
X34392009Y-41084571D02*
X34344390Y-41179809D01*
X51641476Y-47333819D02*
X51641476Y-48048104D01*
X51641476Y-48048104D02*
X51593857Y-48190961D01*
X51593857Y-48190961D02*
X51498619Y-48286200D01*
X51498619Y-48286200D02*
X51355762Y-48333819D01*
X51355762Y-48333819D02*
X51260524Y-48333819D01*
X52641476Y-48333819D02*
X52070048Y-48333819D01*
X52355762Y-48333819D02*
X52355762Y-47333819D01*
X52355762Y-47333819D02*
X52260524Y-47476676D01*
X52260524Y-47476676D02*
X52165286Y-47571914D01*
X52165286Y-47571914D02*
X52070048Y-47619533D01*
X53498619Y-47333819D02*
X53308143Y-47333819D01*
X53308143Y-47333819D02*
X53212905Y-47381438D01*
X53212905Y-47381438D02*
X53165286Y-47429057D01*
X53165286Y-47429057D02*
X53070048Y-47571914D01*
X53070048Y-47571914D02*
X53022429Y-47762390D01*
X53022429Y-47762390D02*
X53022429Y-48143342D01*
X53022429Y-48143342D02*
X53070048Y-48238580D01*
X53070048Y-48238580D02*
X53117667Y-48286200D01*
X53117667Y-48286200D02*
X53212905Y-48333819D01*
X53212905Y-48333819D02*
X53403381Y-48333819D01*
X53403381Y-48333819D02*
X53498619Y-48286200D01*
X53498619Y-48286200D02*
X53546238Y-48238580D01*
X53546238Y-48238580D02*
X53593857Y-48143342D01*
X53593857Y-48143342D02*
X53593857Y-47905247D01*
X53593857Y-47905247D02*
X53546238Y-47810009D01*
X53546238Y-47810009D02*
X53498619Y-47762390D01*
X53498619Y-47762390D02*
X53403381Y-47714771D01*
X53403381Y-47714771D02*
X53212905Y-47714771D01*
X53212905Y-47714771D02*
X53117667Y-47762390D01*
X53117667Y-47762390D02*
X53070048Y-47810009D01*
X53070048Y-47810009D02*
X53022429Y-47905247D01*
X34869219Y-65154133D02*
X35583504Y-65154133D01*
X35583504Y-65154133D02*
X35726361Y-65201752D01*
X35726361Y-65201752D02*
X35821600Y-65296990D01*
X35821600Y-65296990D02*
X35869219Y-65439847D01*
X35869219Y-65439847D02*
X35869219Y-65535085D01*
X35202552Y-64249371D02*
X35869219Y-64249371D01*
X34821600Y-64487466D02*
X35535885Y-64725561D01*
X35535885Y-64725561D02*
X35535885Y-64106514D01*
D12*
%TO.C,Y1*%
X37134800Y-75996800D02*
X37779960Y-75996800D01*
X40452040Y-75996800D02*
X41097200Y-75996800D01*
X41097200Y-75996800D02*
X41097200Y-69545200D01*
X37134800Y-69545200D02*
X37134800Y-75996800D01*
X37779960Y-69545200D02*
X37134800Y-69545200D01*
X41097200Y-69545200D02*
X40452040Y-69545200D01*
D13*
%TO.C,C18*%
X59427164Y-32496000D02*
X59642836Y-32496000D01*
X59427164Y-33216000D02*
X59642836Y-33216000D01*
%TO.C,R10*%
X77992500Y-55859142D02*
X77992500Y-56333658D01*
X76947500Y-55859142D02*
X76947500Y-56333658D01*
%TO.C,C10*%
X45724400Y-76120164D02*
X45724400Y-76335836D01*
X45004400Y-76120164D02*
X45004400Y-76335836D01*
%TO.C,C15*%
X37697236Y-49077200D02*
X37481564Y-49077200D01*
X37697236Y-48357200D02*
X37481564Y-48357200D01*
%TO.C,J3*%
X29016000Y-33842000D02*
X27686000Y-33842000D01*
X29016000Y-32512000D02*
X29016000Y-33842000D01*
X29016000Y-31242000D02*
X29016000Y-26102000D01*
X29016000Y-31242000D02*
X26356000Y-31242000D01*
X29016000Y-26102000D02*
X26356000Y-26102000D01*
X26356000Y-31242000D02*
X26356000Y-26102000D01*
%TO.C,R4*%
X55216359Y-59818000D02*
X55523641Y-59818000D01*
X55216359Y-60578000D02*
X55523641Y-60578000D01*
%TO.C,R6*%
X59841159Y-54865000D02*
X60148441Y-54865000D01*
X59841159Y-55625000D02*
X60148441Y-55625000D01*
%TO.C,J17*%
X55024000Y-46738000D02*
X56134000Y-46738000D01*
X55024000Y-47498000D02*
X55024000Y-46738000D01*
X55024000Y-48258000D02*
X55024000Y-48193000D01*
X55024000Y-48258000D02*
X55570529Y-48258000D01*
X55024000Y-48258000D02*
X57244000Y-48258000D01*
X56697471Y-48258000D02*
X57244000Y-48258000D01*
X57244000Y-48258000D02*
X57244000Y-48193000D01*
%TO.C,R8*%
X55980359Y-49404000D02*
X56287641Y-49404000D01*
X55980359Y-50164000D02*
X56287641Y-50164000D01*
%TO.C,C8*%
X43741436Y-74528000D02*
X43525764Y-74528000D01*
X43741436Y-73808000D02*
X43525764Y-73808000D01*
%TO.C,TP1*%
X65317600Y-74117200D02*
G75*
G03*
X63917600Y-74117200I-700000J0D01*
G01*
X63917600Y-74117200D02*
G75*
G03*
X65317600Y-74117200I700000J0D01*
G01*
%TO.C,C13*%
X27030000Y-42536164D02*
X27030000Y-42751836D01*
X26310000Y-42536164D02*
X26310000Y-42751836D01*
D10*
%TO.C,U2*%
X49486400Y-69349200D02*
X49486400Y-69574200D01*
X49486400Y-69349200D02*
X49811400Y-69349200D01*
X49486400Y-69574200D02*
X48061400Y-69574200D01*
X49486400Y-76599200D02*
X49486400Y-76274200D01*
X49486400Y-76599200D02*
X49811400Y-76599200D01*
X56736400Y-69349200D02*
X56411400Y-69349200D01*
X56736400Y-69349200D02*
X56736400Y-69674200D01*
X56736400Y-76599200D02*
X56411400Y-76599200D01*
X56736400Y-76599200D02*
X56736400Y-76274200D01*
D13*
%TO.C,J2*%
X56194000Y-25086000D02*
X56194000Y-26416000D01*
X54864000Y-25086000D02*
X56194000Y-25086000D01*
X53594000Y-25086000D02*
X43374000Y-25086000D01*
X53594000Y-25086000D02*
X53594000Y-27746000D01*
X43374000Y-25086000D02*
X43374000Y-27746000D01*
X53594000Y-27746000D02*
X43374000Y-27746000D01*
%TO.C,J15*%
X55151000Y-54485000D02*
X56261000Y-54485000D01*
X55151000Y-55245000D02*
X55151000Y-54485000D01*
X55151000Y-56005000D02*
X55151000Y-55940000D01*
X55151000Y-56005000D02*
X55697529Y-56005000D01*
X55151000Y-56005000D02*
X57371000Y-56005000D01*
X56824471Y-56005000D02*
X57371000Y-56005000D01*
X57371000Y-56005000D02*
X57371000Y-55940000D01*
%TO.C,C14*%
X24989200Y-50044236D02*
X24989200Y-49828564D01*
X25709200Y-50044236D02*
X25709200Y-49828564D01*
%TO.C,R12*%
X73953900Y-61878942D02*
X73953900Y-62353458D01*
X72908900Y-61878942D02*
X72908900Y-62353458D01*
%TO.C,J12*%
X31810000Y-73720000D02*
X30480000Y-73720000D01*
X31810000Y-72390000D02*
X31810000Y-73720000D01*
X31810000Y-71120000D02*
X31810000Y-63440000D01*
X31810000Y-71120000D02*
X29150000Y-71120000D01*
X31810000Y-63440000D02*
X29150000Y-63440000D01*
X29150000Y-71120000D02*
X29150000Y-63440000D01*
%TO.C,C4*%
X38274164Y-36216000D02*
X38489836Y-36216000D01*
X38274164Y-36936000D02*
X38489836Y-36936000D01*
%TO.C,R13*%
X72959700Y-56562258D02*
X72959700Y-56087742D01*
X74004700Y-56562258D02*
X74004700Y-56087742D01*
%TO.C,J9*%
X36447000Y-52865000D02*
X36447000Y-53975000D01*
X35687000Y-52865000D02*
X36447000Y-52865000D01*
X34927000Y-52865000D02*
X32452000Y-52865000D01*
X34927000Y-52865000D02*
X34927000Y-53411529D01*
X32452000Y-52865000D02*
X32452000Y-53667470D01*
X32452000Y-54282530D02*
X32452000Y-55085000D01*
X34927000Y-54538471D02*
X34927000Y-55085000D01*
X34927000Y-55085000D02*
X32452000Y-55085000D01*
%TO.C,R5*%
X55216359Y-57532000D02*
X55523641Y-57532000D01*
X55216359Y-58292000D02*
X55523641Y-58292000D01*
%TO.C,C23*%
X74384980Y-59781400D02*
X74103820Y-59781400D01*
X74384980Y-58761400D02*
X74103820Y-58761400D01*
%TO.C,R1*%
X45848000Y-59206641D02*
X45848000Y-58899359D01*
X46608000Y-59206641D02*
X46608000Y-58899359D01*
%TO.C,R11*%
X71961742Y-52690500D02*
X72436258Y-52690500D01*
X71961742Y-53735500D02*
X72436258Y-53735500D01*
%TO.C,J7*%
X29462000Y-58834000D02*
X29462000Y-59944000D01*
X28702000Y-58834000D02*
X29462000Y-58834000D01*
X27942000Y-58834000D02*
X25467000Y-58834000D01*
X27942000Y-58834000D02*
X27942000Y-59380529D01*
X25467000Y-58834000D02*
X25467000Y-59636470D01*
X25467000Y-60251530D02*
X25467000Y-61054000D01*
X27942000Y-60507471D02*
X27942000Y-61054000D01*
X27942000Y-61054000D02*
X25467000Y-61054000D01*
%TO.C,J14*%
X45118000Y-46484000D02*
X46228000Y-46484000D01*
X45118000Y-47244000D02*
X45118000Y-46484000D01*
X45118000Y-48004000D02*
X45118000Y-47939000D01*
X45118000Y-48004000D02*
X45664529Y-48004000D01*
X45118000Y-48004000D02*
X47338000Y-48004000D01*
X46791471Y-48004000D02*
X47338000Y-48004000D01*
X47338000Y-48004000D02*
X47338000Y-47939000D01*
%TO.C,C11*%
X46842000Y-78378164D02*
X46842000Y-78593836D01*
X46122000Y-78378164D02*
X46122000Y-78593836D01*
%TO.C,C5*%
X27313836Y-36936000D02*
X27098164Y-36936000D01*
X27313836Y-36216000D02*
X27098164Y-36216000D01*
%TO.C,J5*%
X65218000Y-47946000D02*
X66548000Y-47946000D01*
X65218000Y-49276000D02*
X65218000Y-47946000D01*
X65218000Y-50546000D02*
X65218000Y-63306000D01*
X65218000Y-50546000D02*
X67878000Y-50546000D01*
X65218000Y-63306000D02*
X67878000Y-63306000D01*
X67878000Y-50546000D02*
X67878000Y-63306000D01*
%TO.C,R9*%
X46608000Y-49757359D02*
X46608000Y-50064641D01*
X45848000Y-49757359D02*
X45848000Y-50064641D01*
%TO.C,C16*%
X37725236Y-46486400D02*
X37509564Y-46486400D01*
X37725236Y-45766400D02*
X37509564Y-45766400D01*
D14*
%TO.C,J10*%
X75478400Y-27198600D02*
X75478400Y-27198600D01*
X75378400Y-27198600D02*
X75378400Y-27198600D01*
D15*
X74178400Y-40998600D02*
X66178400Y-40998600D01*
X74178400Y-32198600D02*
X74178400Y-40998600D01*
X74178400Y-25398600D02*
X74178400Y-25198600D01*
X74178400Y-25198600D02*
X66178400Y-25198600D01*
X72978400Y-25198600D02*
X72978400Y-23198600D01*
X72978400Y-23198600D02*
X67978400Y-23198600D01*
X67978400Y-23198600D02*
X67978400Y-25198600D01*
X66178400Y-40998600D02*
X66178400Y-32198600D01*
X66178400Y-25198600D02*
X66178400Y-25398600D01*
D14*
X75378400Y-27198600D02*
G75*
G03*
X75478400Y-27198600I50000J0D01*
G01*
X75478400Y-27198600D02*
G75*
G03*
X75378400Y-27198600I-50000J0D01*
G01*
D13*
%TO.C,R3*%
X43306000Y-58901359D02*
X43306000Y-59208641D01*
X42546000Y-58901359D02*
X42546000Y-59208641D01*
%TO.C,C6*%
X61057200Y-73028636D02*
X61057200Y-72812964D01*
X61777200Y-73028636D02*
X61777200Y-72812964D01*
D12*
%TO.C,U1*%
X31925500Y-34302700D02*
X31925500Y-36309300D01*
X35227500Y-36309300D02*
X35227500Y-34302700D01*
X33213239Y-36309300D02*
X33939761Y-36309300D01*
D13*
%TO.C,C9*%
X61777200Y-75332764D02*
X61777200Y-75548436D01*
X61057200Y-75332764D02*
X61057200Y-75548436D01*
%TO.C,D1*%
X67189300Y-71902200D02*
X67189300Y-69982200D01*
X67189300Y-69982200D02*
X64504300Y-69982200D01*
X64504300Y-71902200D02*
X67189300Y-71902200D01*
%TO.C,C1*%
X38502000Y-30488836D02*
X38502000Y-30273164D01*
X39222000Y-30488836D02*
X39222000Y-30273164D01*
%TO.C,C21*%
X69929836Y-45064000D02*
X69714164Y-45064000D01*
X69929836Y-44344000D02*
X69714164Y-44344000D01*
%TO.C,C19*%
X51736164Y-45741000D02*
X51951836Y-45741000D01*
X51736164Y-46461000D02*
X51951836Y-46461000D01*
%TO.C,C22*%
X77980000Y-59918020D02*
X77980000Y-60199180D01*
X76960000Y-59918020D02*
X76960000Y-60199180D01*
%TO.C,C17*%
X59338800Y-43072164D02*
X59338800Y-43287836D01*
X58618800Y-43072164D02*
X58618800Y-43287836D01*
%TO.C,C12*%
X55292164Y-62124000D02*
X55507836Y-62124000D01*
X55292164Y-62844000D02*
X55507836Y-62844000D01*
D10*
%TO.C,U3*%
X29889948Y-44501999D02*
X32685284Y-44501999D01*
X29889948Y-51002001D02*
X29889948Y-44501999D01*
X29889948Y-51002001D02*
X32685284Y-51002001D01*
X32685284Y-51002001D02*
X32685284Y-44501999D01*
D16*
X26984518Y-44827000D02*
G75*
G03*
X26734516Y-44827000I-125001J0D01*
G01*
X26734516Y-44827000D02*
G75*
G03*
X26984518Y-44827000I125001J0D01*
G01*
D17*
X30889949Y-45252000D02*
G75*
G03*
X30389949Y-45252000I-250000J0D01*
G01*
X30389949Y-45252000D02*
G75*
G03*
X30889949Y-45252000I250000J0D01*
G01*
D13*
%TO.C,J13*%
X71112000Y-48862000D02*
X71112000Y-47752000D01*
X71872000Y-48862000D02*
X71112000Y-48862000D01*
X72632000Y-48862000D02*
X77647000Y-48862000D01*
X72632000Y-48862000D02*
X72632000Y-48315471D01*
X77647000Y-48862000D02*
X77647000Y-48059530D01*
X77647000Y-47444470D02*
X77647000Y-46642000D01*
X72632000Y-47188529D02*
X72632000Y-46642000D01*
X72632000Y-46642000D02*
X77647000Y-46642000D01*
%TO.C,J11*%
X55024000Y-29466000D02*
X56134000Y-29466000D01*
X55024000Y-30226000D02*
X55024000Y-29466000D01*
X55024000Y-30986000D02*
X55024000Y-32191000D01*
X55024000Y-30986000D02*
X55570529Y-30986000D01*
X55024000Y-32191000D02*
X55826470Y-32191000D01*
X56441530Y-32191000D02*
X57244000Y-32191000D01*
X56697471Y-30986000D02*
X57244000Y-30986000D01*
X57244000Y-30986000D02*
X57244000Y-32191000D01*
%TO.C,R2*%
X60704759Y-70562200D02*
X61012041Y-70562200D01*
X60704759Y-71322200D02*
X61012041Y-71322200D01*
%TO.C,J6*%
X76768000Y-74990000D02*
X75438000Y-74990000D01*
X76768000Y-73660000D02*
X76768000Y-74990000D01*
X76768000Y-72390000D02*
X76768000Y-67250000D01*
X76768000Y-72390000D02*
X74168000Y-72390000D01*
X76768000Y-67250000D02*
X71568000Y-67250000D01*
X74168000Y-74990000D02*
X71568000Y-74990000D01*
X74168000Y-72390000D02*
X74168000Y-74990000D01*
X71568000Y-74990000D02*
X71568000Y-67250000D01*
%TO.C,C3*%
X38274164Y-33422000D02*
X38489836Y-33422000D01*
X38274164Y-34142000D02*
X38489836Y-34142000D01*
D18*
%TO.C,Y2*%
X60728000Y-34846000D02*
X60728000Y-40846000D01*
X57228000Y-34846000D02*
X57228000Y-40846000D01*
D13*
%TO.C,J1*%
X40192000Y-25086000D02*
X40192000Y-26416000D01*
X38862000Y-25086000D02*
X40192000Y-25086000D01*
X37592000Y-25086000D02*
X34992000Y-25086000D01*
X37592000Y-25086000D02*
X37592000Y-27746000D01*
X34992000Y-25086000D02*
X34992000Y-27746000D01*
X37592000Y-27746000D02*
X34992000Y-27746000D01*
%TO.C,JP1*%
X42224000Y-47558000D02*
X40894000Y-47558000D01*
X42224000Y-46228000D02*
X42224000Y-47558000D01*
X42224000Y-44958000D02*
X42224000Y-39818000D01*
X42224000Y-44958000D02*
X39564000Y-44958000D01*
X42224000Y-39818000D02*
X39564000Y-39818000D01*
X39564000Y-44958000D02*
X39564000Y-39818000D01*
D12*
%TO.C,U4*%
X43436901Y-40589200D02*
X44035361Y-40589200D01*
X53582639Y-40589200D02*
X54181101Y-40589200D01*
X54181101Y-40589200D02*
X54181101Y-34747200D01*
X43436901Y-34747200D02*
X43436901Y-40589200D01*
X44035361Y-34747200D02*
X43436901Y-34747200D01*
X54181101Y-34747200D02*
X53582641Y-34747200D01*
G36*
X50624499Y-42633900D02*
G01*
X50243499Y-42633900D01*
X50243499Y-42379900D01*
X50624499Y-42379900D01*
X50624499Y-42633900D01*
G37*
G36*
X49974500Y-32956500D02*
G01*
X49593500Y-32956500D01*
X49593500Y-32702500D01*
X49974500Y-32702500D01*
X49974500Y-32956500D01*
G37*
D13*
%TO.C,R7*%
X51207641Y-54736000D02*
X50900359Y-54736000D01*
X51207641Y-53976000D02*
X50900359Y-53976000D01*
%TO.C,C20*%
X45220836Y-44302000D02*
X45005164Y-44302000D01*
X45220836Y-43582000D02*
X45005164Y-43582000D01*
%TO.C,C2*%
X35835000Y-30488836D02*
X35835000Y-30273164D01*
X36555000Y-30488836D02*
X36555000Y-30273164D01*
%TO.C,C7*%
X43742436Y-72927800D02*
X43526764Y-72927800D01*
X43742436Y-72207800D02*
X43526764Y-72207800D01*
%TO.C,J8*%
X33526000Y-40546000D02*
X33526000Y-41656000D01*
X32766000Y-40546000D02*
X33526000Y-40546000D01*
X32006000Y-40546000D02*
X29531000Y-40546000D01*
X32006000Y-40546000D02*
X32006000Y-41092529D01*
X29531000Y-40546000D02*
X29531000Y-41348470D01*
X29531000Y-41963530D02*
X29531000Y-42766000D01*
X32006000Y-42219471D02*
X32006000Y-42766000D01*
X32006000Y-42766000D02*
X29531000Y-42766000D01*
%TO.C,J16*%
X51341000Y-49024000D02*
X52451000Y-49024000D01*
X51341000Y-49784000D02*
X51341000Y-49024000D01*
X51341000Y-50544000D02*
X51341000Y-50479000D01*
X51341000Y-50544000D02*
X51887529Y-50544000D01*
X51341000Y-50544000D02*
X53561000Y-50544000D01*
X53014471Y-50544000D02*
X53561000Y-50544000D01*
X53561000Y-50544000D02*
X53561000Y-50479000D01*
%TO.C,J4*%
X36414400Y-66150800D02*
X36414400Y-64820800D01*
X37744400Y-66150800D02*
X36414400Y-66150800D01*
X39014400Y-66150800D02*
X44154400Y-66150800D01*
X39014400Y-66150800D02*
X39014400Y-63490800D01*
X44154400Y-66150800D02*
X44154400Y-63490800D01*
X39014400Y-63490800D02*
X44154400Y-63490800D01*
%TD*%
M02*
