%TF.GenerationSoftware,KiCad,Pcbnew,7.0.10-1-dev-1fdf7d0cf4*%
%TF.CreationDate,2023-12-26T02:00:40-08:00*%
%TF.ProjectId,i2s_to_toslink_pcb,6932735f-746f-45f7-946f-736c696e6b5f,rev?*%
%TF.SameCoordinates,Original*%
%TF.FileFunction,Paste,Top*%
%TF.FilePolarity,Positive*%
%FSLAX46Y46*%
G04 Gerber Fmt 4.6, Leading zero omitted, Abs format (unit mm)*
G04 Created by KiCad (PCBNEW 7.0.10-1-dev-1fdf7d0cf4) date 2023-12-26 02:00:40*
%MOMM*%
%LPD*%
G01*
G04 APERTURE LIST*
G04 Aperture macros list*
%AMRoundRect*
0 Rectangle with rounded corners*
0 $1 Rounding radius*
0 $2 $3 $4 $5 $6 $7 $8 $9 X,Y pos of 4 corners*
0 Add a 4 corners polygon primitive as box body*
4,1,4,$2,$3,$4,$5,$6,$7,$8,$9,$2,$3,0*
0 Add four circle primitives for the rounded corners*
1,1,$1+$1,$2,$3*
1,1,$1+$1,$4,$5*
1,1,$1+$1,$6,$7*
1,1,$1+$1,$8,$9*
0 Add four rect primitives between the rounded corners*
20,1,$1+$1,$2,$3,$4,$5,0*
20,1,$1+$1,$4,$5,$6,$7,0*
20,1,$1+$1,$6,$7,$8,$9,0*
20,1,$1+$1,$8,$9,$2,$3,0*%
G04 Aperture macros list end*
%ADD10R,2.006600X2.235200*%
%ADD11RoundRect,0.140000X-0.140000X-0.170000X0.140000X-0.170000X0.140000X0.170000X-0.140000X0.170000X0*%
%ADD12RoundRect,0.200000X-0.275000X0.200000X-0.275000X-0.200000X0.275000X-0.200000X0.275000X0.200000X0*%
%ADD13RoundRect,0.140000X-0.170000X0.140000X-0.170000X-0.140000X0.170000X-0.140000X0.170000X0.140000X0*%
%ADD14RoundRect,0.140000X0.140000X0.170000X-0.140000X0.170000X-0.140000X-0.170000X0.140000X-0.170000X0*%
%ADD15RoundRect,0.135000X-0.135000X-0.185000X0.135000X-0.185000X0.135000X0.185000X-0.135000X0.185000X0*%
%ADD16R,1.600000X0.550000*%
%ADD17R,0.550000X1.600000*%
%ADD18RoundRect,0.140000X0.170000X-0.140000X0.170000X0.140000X-0.170000X0.140000X-0.170000X-0.140000X0*%
%ADD19RoundRect,0.200000X0.275000X-0.200000X0.275000X0.200000X-0.275000X0.200000X-0.275000X-0.200000X0*%
%ADD20RoundRect,0.225000X0.225000X0.250000X-0.225000X0.250000X-0.225000X-0.250000X0.225000X-0.250000X0*%
%ADD21RoundRect,0.135000X0.185000X-0.135000X0.185000X0.135000X-0.185000X0.135000X-0.185000X-0.135000X0*%
%ADD22RoundRect,0.200000X-0.200000X-0.275000X0.200000X-0.275000X0.200000X0.275000X-0.200000X0.275000X0*%
%ADD23RoundRect,0.135000X-0.185000X0.135000X-0.185000X-0.135000X0.185000X-0.135000X0.185000X0.135000X0*%
%ADD24R,0.508000X0.977900*%
%ADD25RoundRect,0.243750X0.243750X0.456250X-0.243750X0.456250X-0.243750X-0.456250X0.243750X-0.456250X0*%
%ADD26RoundRect,0.225000X-0.250000X0.225000X-0.250000X-0.225000X0.250000X-0.225000X0.250000X0.225000X0*%
%ADD27R,1.955432X0.420766*%
%ADD28R,2.600000X1.900000*%
%ADD29R,0.431800X1.651000*%
%ADD30RoundRect,0.135000X0.135000X0.185000X-0.135000X0.185000X-0.135000X-0.185000X0.135000X-0.185000X0*%
G04 APERTURE END LIST*
D10*
%TO.C,Y1*%
X39116000Y-74904600D03*
X39116000Y-70637400D03*
%TD*%
D11*
%TO.C,C18*%
X59055000Y-32856000D03*
X60015000Y-32856000D03*
%TD*%
D12*
%TO.C,R10*%
X77470000Y-55271400D03*
X77470000Y-56921400D03*
%TD*%
D13*
%TO.C,C10*%
X45364400Y-75748000D03*
X45364400Y-76708000D03*
%TD*%
D14*
%TO.C,C15*%
X38069400Y-48717200D03*
X37109400Y-48717200D03*
%TD*%
D15*
%TO.C,R4*%
X54860000Y-60198000D03*
X55880000Y-60198000D03*
%TD*%
%TO.C,R6*%
X59484800Y-55245000D03*
X60504800Y-55245000D03*
%TD*%
%TO.C,R8*%
X55624000Y-49784000D03*
X56644000Y-49784000D03*
%TD*%
D14*
%TO.C,C8*%
X44113600Y-74168000D03*
X43153600Y-74168000D03*
%TD*%
D13*
%TO.C,C13*%
X26670000Y-42164000D03*
X26670000Y-43124000D03*
%TD*%
D16*
%TO.C,U2*%
X48861400Y-70174200D03*
X48861400Y-70974200D03*
X48861400Y-71774200D03*
X48861400Y-72574200D03*
X48861400Y-73374200D03*
X48861400Y-74174200D03*
X48861400Y-74974200D03*
X48861400Y-75774200D03*
D17*
X50311400Y-77224200D03*
X51111400Y-77224200D03*
X51911400Y-77224200D03*
X52711400Y-77224200D03*
X53511400Y-77224200D03*
X54311400Y-77224200D03*
X55111400Y-77224200D03*
X55911400Y-77224200D03*
D16*
X57361400Y-75774200D03*
X57361400Y-74974200D03*
X57361400Y-74174200D03*
X57361400Y-73374200D03*
X57361400Y-72574200D03*
X57361400Y-71774200D03*
X57361400Y-70974200D03*
X57361400Y-70174200D03*
D17*
X55911400Y-68724200D03*
X55111400Y-68724200D03*
X54311400Y-68724200D03*
X53511400Y-68724200D03*
X52711400Y-68724200D03*
X51911400Y-68724200D03*
X51111400Y-68724200D03*
X50311400Y-68724200D03*
%TD*%
D18*
%TO.C,C14*%
X25349200Y-50416400D03*
X25349200Y-49456400D03*
%TD*%
D12*
%TO.C,R12*%
X73431400Y-61291200D03*
X73431400Y-62941200D03*
%TD*%
D11*
%TO.C,C4*%
X37902000Y-36576000D03*
X38862000Y-36576000D03*
%TD*%
D19*
%TO.C,R13*%
X73482200Y-57150000D03*
X73482200Y-55500000D03*
%TD*%
D15*
%TO.C,R5*%
X54860000Y-57912000D03*
X55880000Y-57912000D03*
%TD*%
D20*
%TO.C,C23*%
X75019400Y-59271400D03*
X73469400Y-59271400D03*
%TD*%
D21*
%TO.C,R1*%
X46228000Y-59563000D03*
X46228000Y-58543000D03*
%TD*%
D22*
%TO.C,R11*%
X71374000Y-53213000D03*
X73024000Y-53213000D03*
%TD*%
D13*
%TO.C,C11*%
X46482000Y-78006000D03*
X46482000Y-78966000D03*
%TD*%
D14*
%TO.C,C5*%
X27686000Y-36576000D03*
X26726000Y-36576000D03*
%TD*%
D23*
%TO.C,R9*%
X46228000Y-49401000D03*
X46228000Y-50421000D03*
%TD*%
D14*
%TO.C,C16*%
X38097400Y-46126400D03*
X37137400Y-46126400D03*
%TD*%
D23*
%TO.C,R3*%
X42926000Y-58545000D03*
X42926000Y-59565000D03*
%TD*%
D18*
%TO.C,C6*%
X61417200Y-73400800D03*
X61417200Y-72440800D03*
%TD*%
D24*
%TO.C,U1*%
X34526501Y-33940750D03*
X33576500Y-33940750D03*
X32626499Y-33940750D03*
X32626499Y-36671250D03*
X34526501Y-36671250D03*
%TD*%
D13*
%TO.C,C9*%
X61417200Y-74960600D03*
X61417200Y-75920600D03*
%TD*%
D25*
%TO.C,D1*%
X66441800Y-70942200D03*
X64566800Y-70942200D03*
%TD*%
D18*
%TO.C,C1*%
X38862000Y-30861000D03*
X38862000Y-29901000D03*
%TD*%
D14*
%TO.C,C21*%
X70302000Y-44704000D03*
X69342000Y-44704000D03*
%TD*%
D11*
%TO.C,C19*%
X51364000Y-46101000D03*
X52324000Y-46101000D03*
%TD*%
D26*
%TO.C,C22*%
X77470000Y-59283600D03*
X77470000Y-60833600D03*
%TD*%
D13*
%TO.C,C17*%
X58978800Y-42700000D03*
X58978800Y-43660000D03*
%TD*%
D11*
%TO.C,C12*%
X54920000Y-62484000D03*
X55880000Y-62484000D03*
%TD*%
D27*
%TO.C,U3*%
X28412232Y-44827000D03*
X28412232Y-45477001D03*
X28412232Y-46126999D03*
X28412232Y-46777001D03*
X28412232Y-47426999D03*
X28412232Y-48077001D03*
X28412232Y-48726999D03*
X28412232Y-49377001D03*
X28412232Y-50026999D03*
X28412232Y-50677000D03*
X34163000Y-50677000D03*
X34163000Y-50026999D03*
X34163000Y-49377001D03*
X34163000Y-48726999D03*
X34163000Y-48077001D03*
X34163000Y-47426999D03*
X34163000Y-46777001D03*
X34163000Y-46126999D03*
X34163000Y-45477001D03*
X34163000Y-44827000D03*
%TD*%
D15*
%TO.C,R2*%
X60348400Y-70942200D03*
X61368400Y-70942200D03*
%TD*%
D11*
%TO.C,C3*%
X37902000Y-33782000D03*
X38862000Y-33782000D03*
%TD*%
D28*
%TO.C,Y2*%
X58978000Y-35696000D03*
X58978000Y-39996000D03*
%TD*%
D29*
%TO.C,U4*%
X44584001Y-41300400D03*
X45234002Y-41300400D03*
X45884001Y-41300400D03*
X46534002Y-41300400D03*
X47184000Y-41300400D03*
X47834002Y-41300400D03*
X48484000Y-41300400D03*
X49133999Y-41300400D03*
X49784000Y-41300400D03*
X50433999Y-41300400D03*
X51084000Y-41300400D03*
X51733999Y-41300400D03*
X52384000Y-41300400D03*
X53033999Y-41300400D03*
X53034001Y-34036000D03*
X52384000Y-34036000D03*
X51734001Y-34036000D03*
X51084000Y-34036000D03*
X50434002Y-34036000D03*
X49784000Y-34036000D03*
X49134002Y-34036000D03*
X48484000Y-34036000D03*
X47834002Y-34036000D03*
X47184000Y-34036000D03*
X46534002Y-34036000D03*
X45884001Y-34036000D03*
X45234002Y-34036000D03*
X44584001Y-34036000D03*
%TD*%
D30*
%TO.C,R7*%
X51564000Y-54356000D03*
X50544000Y-54356000D03*
%TD*%
D14*
%TO.C,C20*%
X45593000Y-43942000D03*
X44633000Y-43942000D03*
%TD*%
D18*
%TO.C,C2*%
X36195000Y-30861000D03*
X36195000Y-29901000D03*
%TD*%
D14*
%TO.C,C7*%
X44114600Y-72567800D03*
X43154600Y-72567800D03*
%TD*%
M02*
