%TF.GenerationSoftware,KiCad,Pcbnew,7.0.10-1-dev-1fdf7d0cf4*%
%TF.CreationDate,2023-12-26T02:00:40-08:00*%
%TF.ProjectId,i2s_to_toslink_pcb,6932735f-746f-45f7-946f-736c696e6b5f,rev?*%
%TF.SameCoordinates,Original*%
%TF.FileFunction,Soldermask,Bot*%
%TF.FilePolarity,Negative*%
%FSLAX46Y46*%
G04 Gerber Fmt 4.6, Leading zero omitted, Abs format (unit mm)*
G04 Created by KiCad (PCBNEW 7.0.10-1-dev-1fdf7d0cf4) date 2023-12-26 02:00:40*
%MOMM*%
%LPD*%
G01*
G04 APERTURE LIST*
%ADD10C,2.600000*%
%ADD11C,3.500000*%
%ADD12R,1.700000X1.700000*%
%ADD13O,1.700000X1.700000*%
%ADD14R,1.000000X1.000000*%
%ADD15O,1.000000X1.000000*%
%ADD16C,1.200000*%
%ADD17R,2.550000X2.550000*%
%ADD18C,2.550000*%
%ADD19C,1.462000*%
G04 APERTURE END LIST*
D10*
%TO.C,H1*%
X24130000Y-23622000D03*
D11*
X24130000Y-23622000D03*
%TD*%
D12*
%TO.C,J3*%
X27686000Y-32512000D03*
D13*
X27686000Y-29972000D03*
X27686000Y-27432000D03*
%TD*%
D14*
%TO.C,J17*%
X56134000Y-47498000D03*
%TD*%
D12*
%TO.C,J2*%
X54864000Y-26416000D03*
D13*
X52324000Y-26416000D03*
X49784000Y-26416000D03*
X47244000Y-26416000D03*
X44704000Y-26416000D03*
%TD*%
D14*
%TO.C,J15*%
X56261000Y-55245000D03*
%TD*%
D12*
%TO.C,J12*%
X30480000Y-72390000D03*
D13*
X30480000Y-69850000D03*
X30480000Y-67310000D03*
X30480000Y-64770000D03*
%TD*%
D14*
%TO.C,J9*%
X35687000Y-53975000D03*
D15*
X34417000Y-53975000D03*
X33147000Y-53975000D03*
%TD*%
D14*
%TO.C,J7*%
X28702000Y-59944000D03*
D15*
X27432000Y-59944000D03*
X26162000Y-59944000D03*
%TD*%
D14*
%TO.C,J14*%
X46228000Y-47244000D03*
%TD*%
D12*
%TO.C,J5*%
X66548000Y-49276000D03*
D13*
X66548000Y-51816000D03*
X66548000Y-54356000D03*
X66548000Y-56896000D03*
X66548000Y-59436000D03*
X66548000Y-61976000D03*
%TD*%
D10*
%TO.C,H3*%
X24130000Y-77978000D03*
D11*
X24130000Y-77978000D03*
%TD*%
D16*
%TO.C,J10*%
X70478400Y-31698600D03*
X70478400Y-27198600D03*
D17*
X73678400Y-27198600D03*
D18*
X67628400Y-36498600D03*
X73678400Y-30598600D03*
X67078400Y-30498600D03*
X66628400Y-26998600D03*
D19*
X68478400Y-39598600D03*
X70478400Y-39598600D03*
X72478400Y-39598600D03*
%TD*%
D14*
%TO.C,J13*%
X71872000Y-47752000D03*
D15*
X73142000Y-47752000D03*
X74412000Y-47752000D03*
X75682000Y-47752000D03*
X76952000Y-47752000D03*
%TD*%
D14*
%TO.C,J11*%
X56134000Y-30226000D03*
D15*
X56134000Y-31496000D03*
%TD*%
D12*
%TO.C,J6*%
X75438000Y-73660000D03*
D13*
X72898000Y-73660000D03*
X75438000Y-71120000D03*
X72898000Y-71120000D03*
X75438000Y-68580000D03*
X72898000Y-68580000D03*
%TD*%
D12*
%TO.C,J1*%
X38862000Y-26416000D03*
D13*
X36322000Y-26416000D03*
%TD*%
D12*
%TO.C,JP1*%
X40894000Y-46228000D03*
D13*
X40894000Y-43688000D03*
X40894000Y-41148000D03*
%TD*%
D14*
%TO.C,J8*%
X32766000Y-41656000D03*
D15*
X31496000Y-41656000D03*
X30226000Y-41656000D03*
%TD*%
D14*
%TO.C,J16*%
X52451000Y-49784000D03*
%TD*%
D10*
%TO.C,H2*%
X79248000Y-23876000D03*
D11*
X79248000Y-23876000D03*
%TD*%
D10*
%TO.C,H4*%
X79248000Y-77978000D03*
D11*
X79248000Y-77978000D03*
%TD*%
D12*
%TO.C,J4*%
X37744400Y-64820800D03*
D13*
X40284400Y-64820800D03*
X42824400Y-64820800D03*
%TD*%
M02*
