M48
; DRILL file {KiCad 7.0.10-1-dev-1fdf7d0cf4} date Tue 26 Dec 2023 02:00:18 AM PST
; FORMAT={-:-/ absolute / inch / decimal}
; #@! TF.CreationDate,2023-12-26T02:00:18-08:00
; #@! TF.GenerationSoftware,Kicad,Pcbnew,7.0.10-1-dev-1fdf7d0cf4
; #@! TF.FileFunction,Plated,1,2,PTH
FMAT,2
INCH
; #@! TA.AperFunction,Plated,PTH,ViaDrill
T1C0.0157
; #@! TA.AperFunction,Plated,PTH,ViaDrill
T2C0.0250
; #@! TA.AperFunction,Plated,PTH,ComponentDrill
T3C0.0256
; #@! TA.AperFunction,Plated,PTH,ComponentDrill
T4C0.0370
; #@! TA.AperFunction,Plated,PTH,ComponentDrill
T5C0.0394
; #@! TA.AperFunction,Plated,PTH,ComponentDrill
T6C0.0669
; #@! TA.AperFunction,Plated,PTH,ComponentDrill
T7C0.0866
%
G90
G05
T1
X0.98Y-1.86
X0.99Y-2.14
X0.9989Y-1.76
X1.0Y-2.026
X1.08Y-1.6
X1.22Y-1.08
X1.22Y-1.18
X1.32Y-1.27
X1.325Y-1.04
X1.413Y-1.859
X1.43Y-1.26
X1.46Y-1.495
X1.49Y-2.015
X1.5Y-1.767
X1.56Y-1.92
X1.58Y-1.33
X1.58Y-1.44
X1.69Y-2.105
X1.69Y-2.25
X1.69Y-3.02
X1.694Y-2.791
X1.7361Y-1.78
X1.76Y-2.345
X1.809Y-2.8884
X1.81Y-2.8261
X1.82Y-2.045
X1.8803Y-2.2148
X1.89Y-3.11
X1.93Y-2.31
X2.0Y-2.22
X2.04Y-2.33
X2.045Y-2.45
X2.06Y-1.74
X2.08Y-2.14
X2.1055Y-2.5915
X2.17Y-2.59
X2.17Y-3.112
X2.19Y-1.565
X2.19Y-1.732
X2.26Y-2.105
X2.323Y-1.773
X2.338Y-2.858
X2.358Y-3.015
X2.42Y-1.295
X2.43Y-3.106
X2.46Y-2.175
X2.49Y-2.55
X2.515Y-3.05
X2.59Y-1.795
X2.617Y-2.879
X2.65Y-1.74
X2.691Y-2.931
X2.71Y-1.7
X2.75Y-2.7
X2.79Y-2.475
X2.79Y-2.55
X2.85Y-1.7
X2.87Y-2.58
X2.985Y-3.05
X3.05Y-2.46
T2
X1.81Y-1.19
X2.445Y-1.96
X2.4511Y-1.765
T3
X1.03Y-2.36
X1.08Y-2.36
X1.13Y-2.36
X1.19Y-1.64
X1.24Y-1.64
X1.29Y-1.64
X1.305Y-2.125
X1.355Y-2.125
X1.405Y-2.125
X1.82Y-1.86
X2.065Y-1.96
X2.21Y-1.19
X2.21Y-1.24
X2.21Y-1.87
X2.215Y-2.175
X2.8296Y-1.88
X2.8796Y-1.88
X2.9296Y-1.88
X2.9796Y-1.88
X3.0296Y-1.88
T4
X2.696Y-1.559
X2.7747Y-1.559
X2.8535Y-1.559
T5
X1.09Y-1.08
X1.09Y-1.18
X1.09Y-1.28
X1.2Y-2.55
X1.2Y-2.65
X1.2Y-2.75
X1.2Y-2.85
X1.43Y-1.04
X1.486Y-2.552
X1.53Y-1.04
X1.586Y-2.552
X1.61Y-1.62
X1.61Y-1.72
X1.61Y-1.82
X1.686Y-2.552
X1.76Y-1.04
X1.86Y-1.04
X1.96Y-1.04
X2.06Y-1.04
X2.16Y-1.04
X2.62Y-1.94
X2.62Y-2.04
X2.62Y-2.14
X2.62Y-2.24
X2.62Y-2.34
X2.62Y-2.44
X2.87Y-2.7
X2.87Y-2.8
X2.87Y-2.9
X2.97Y-2.7
X2.97Y-2.8
X2.97Y-2.9
T6
X2.6232Y-1.0629
X2.6409Y-1.2007
X2.6625Y-1.437
X2.9007Y-1.0708
X2.9007Y-1.2047
T7
X0.95Y-0.93
X0.95Y-3.07
X3.12Y-0.94
X3.12Y-3.07
M30
