%TF.GenerationSoftware,KiCad,Pcbnew,7.0.10-1-dev-1fdf7d0cf4*%
%TF.CreationDate,2023-12-26T02:00:40-08:00*%
%TF.ProjectId,i2s_to_toslink_pcb,6932735f-746f-45f7-946f-736c696e6b5f,rev?*%
%TF.SameCoordinates,Original*%
%TF.FileFunction,Copper,L1,Top*%
%TF.FilePolarity,Positive*%
%FSLAX46Y46*%
G04 Gerber Fmt 4.6, Leading zero omitted, Abs format (unit mm)*
G04 Created by KiCad (PCBNEW 7.0.10-1-dev-1fdf7d0cf4) date 2023-12-26 02:00:40*
%MOMM*%
%LPD*%
G01*
G04 APERTURE LIST*
G04 Aperture macros list*
%AMRoundRect*
0 Rectangle with rounded corners*
0 $1 Rounding radius*
0 $2 $3 $4 $5 $6 $7 $8 $9 X,Y pos of 4 corners*
0 Add a 4 corners polygon primitive as box body*
4,1,4,$2,$3,$4,$5,$6,$7,$8,$9,$2,$3,0*
0 Add four circle primitives for the rounded corners*
1,1,$1+$1,$2,$3*
1,1,$1+$1,$4,$5*
1,1,$1+$1,$6,$7*
1,1,$1+$1,$8,$9*
0 Add four rect primitives between the rounded corners*
20,1,$1+$1,$2,$3,$4,$5,0*
20,1,$1+$1,$4,$5,$6,$7,0*
20,1,$1+$1,$6,$7,$8,$9,0*
20,1,$1+$1,$8,$9,$2,$3,0*%
G04 Aperture macros list end*
%ADD10C,0.203200*%
%TA.AperFunction,NonConductor*%
%ADD11C,0.203200*%
%TD*%
%TA.AperFunction,SMDPad,CuDef*%
%ADD12R,2.006600X2.235200*%
%TD*%
%TA.AperFunction,ComponentPad*%
%ADD13C,2.600000*%
%TD*%
%TA.AperFunction,ConnectorPad*%
%ADD14C,3.500000*%
%TD*%
%TA.AperFunction,SMDPad,CuDef*%
%ADD15RoundRect,0.140000X-0.140000X-0.170000X0.140000X-0.170000X0.140000X0.170000X-0.140000X0.170000X0*%
%TD*%
%TA.AperFunction,SMDPad,CuDef*%
%ADD16RoundRect,0.200000X-0.275000X0.200000X-0.275000X-0.200000X0.275000X-0.200000X0.275000X0.200000X0*%
%TD*%
%TA.AperFunction,SMDPad,CuDef*%
%ADD17RoundRect,0.140000X-0.170000X0.140000X-0.170000X-0.140000X0.170000X-0.140000X0.170000X0.140000X0*%
%TD*%
%TA.AperFunction,SMDPad,CuDef*%
%ADD18RoundRect,0.140000X0.140000X0.170000X-0.140000X0.170000X-0.140000X-0.170000X0.140000X-0.170000X0*%
%TD*%
%TA.AperFunction,ComponentPad*%
%ADD19R,1.700000X1.700000*%
%TD*%
%TA.AperFunction,ComponentPad*%
%ADD20O,1.700000X1.700000*%
%TD*%
%TA.AperFunction,SMDPad,CuDef*%
%ADD21RoundRect,0.135000X-0.135000X-0.185000X0.135000X-0.185000X0.135000X0.185000X-0.135000X0.185000X0*%
%TD*%
%TA.AperFunction,ComponentPad*%
%ADD22R,1.000000X1.000000*%
%TD*%
%TA.AperFunction,SMDPad,CuDef*%
%ADD23C,1.000000*%
%TD*%
%TA.AperFunction,SMDPad,CuDef*%
%ADD24R,1.600000X0.550000*%
%TD*%
%TA.AperFunction,SMDPad,CuDef*%
%ADD25R,0.550000X1.600000*%
%TD*%
%TA.AperFunction,SMDPad,CuDef*%
%ADD26RoundRect,0.140000X0.170000X-0.140000X0.170000X0.140000X-0.170000X0.140000X-0.170000X-0.140000X0*%
%TD*%
%TA.AperFunction,SMDPad,CuDef*%
%ADD27RoundRect,0.200000X0.275000X-0.200000X0.275000X0.200000X-0.275000X0.200000X-0.275000X-0.200000X0*%
%TD*%
%TA.AperFunction,ComponentPad*%
%ADD28O,1.000000X1.000000*%
%TD*%
%TA.AperFunction,SMDPad,CuDef*%
%ADD29RoundRect,0.225000X0.225000X0.250000X-0.225000X0.250000X-0.225000X-0.250000X0.225000X-0.250000X0*%
%TD*%
%TA.AperFunction,SMDPad,CuDef*%
%ADD30RoundRect,0.135000X0.185000X-0.135000X0.185000X0.135000X-0.185000X0.135000X-0.185000X-0.135000X0*%
%TD*%
%TA.AperFunction,SMDPad,CuDef*%
%ADD31RoundRect,0.200000X-0.200000X-0.275000X0.200000X-0.275000X0.200000X0.275000X-0.200000X0.275000X0*%
%TD*%
%TA.AperFunction,SMDPad,CuDef*%
%ADD32RoundRect,0.135000X-0.185000X0.135000X-0.185000X-0.135000X0.185000X-0.135000X0.185000X0.135000X0*%
%TD*%
%TA.AperFunction,ComponentPad*%
%ADD33R,2.550000X2.550000*%
%TD*%
%TA.AperFunction,ComponentPad*%
%ADD34C,2.550000*%
%TD*%
%TA.AperFunction,ComponentPad*%
%ADD35C,1.462000*%
%TD*%
%TA.AperFunction,SMDPad,CuDef*%
%ADD36R,0.508000X0.977900*%
%TD*%
%TA.AperFunction,SMDPad,CuDef*%
%ADD37RoundRect,0.243750X0.243750X0.456250X-0.243750X0.456250X-0.243750X-0.456250X0.243750X-0.456250X0*%
%TD*%
%TA.AperFunction,SMDPad,CuDef*%
%ADD38RoundRect,0.225000X-0.250000X0.225000X-0.250000X-0.225000X0.250000X-0.225000X0.250000X0.225000X0*%
%TD*%
%TA.AperFunction,SMDPad,CuDef*%
%ADD39R,1.955432X0.420766*%
%TD*%
%TA.AperFunction,SMDPad,CuDef*%
%ADD40R,2.600000X1.900000*%
%TD*%
%TA.AperFunction,SMDPad,CuDef*%
%ADD41R,0.431800X1.651000*%
%TD*%
%TA.AperFunction,SMDPad,CuDef*%
%ADD42RoundRect,0.135000X0.135000X0.185000X-0.135000X0.185000X-0.135000X-0.185000X0.135000X-0.185000X0*%
%TD*%
%TA.AperFunction,ViaPad*%
%ADD43C,0.800000*%
%TD*%
%TA.AperFunction,ViaPad*%
%ADD44C,1.270000*%
%TD*%
%TA.AperFunction,Conductor*%
%ADD45C,0.381000*%
%TD*%
%TA.AperFunction,Conductor*%
%ADD46C,0.250000*%
%TD*%
%TA.AperFunction,Conductor*%
%ADD47C,0.304800*%
%TD*%
G04 APERTURE END LIST*
D10*
D11*
X27553588Y-22471093D02*
X27553588Y-21455093D01*
X27989017Y-21551855D02*
X28037398Y-21503474D01*
X28037398Y-21503474D02*
X28134160Y-21455093D01*
X28134160Y-21455093D02*
X28376065Y-21455093D01*
X28376065Y-21455093D02*
X28472827Y-21503474D01*
X28472827Y-21503474D02*
X28521208Y-21551855D01*
X28521208Y-21551855D02*
X28569589Y-21648617D01*
X28569589Y-21648617D02*
X28569589Y-21745379D01*
X28569589Y-21745379D02*
X28521208Y-21890522D01*
X28521208Y-21890522D02*
X27940636Y-22471093D01*
X27940636Y-22471093D02*
X28569589Y-22471093D01*
X28956636Y-22422713D02*
X29101779Y-22471093D01*
X29101779Y-22471093D02*
X29343684Y-22471093D01*
X29343684Y-22471093D02*
X29440446Y-22422713D01*
X29440446Y-22422713D02*
X29488827Y-22374332D01*
X29488827Y-22374332D02*
X29537208Y-22277570D01*
X29537208Y-22277570D02*
X29537208Y-22180808D01*
X29537208Y-22180808D02*
X29488827Y-22084046D01*
X29488827Y-22084046D02*
X29440446Y-22035665D01*
X29440446Y-22035665D02*
X29343684Y-21987284D01*
X29343684Y-21987284D02*
X29150160Y-21938903D01*
X29150160Y-21938903D02*
X29053398Y-21890522D01*
X29053398Y-21890522D02*
X29005017Y-21842141D01*
X29005017Y-21842141D02*
X28956636Y-21745379D01*
X28956636Y-21745379D02*
X28956636Y-21648617D01*
X28956636Y-21648617D02*
X29005017Y-21551855D01*
X29005017Y-21551855D02*
X29053398Y-21503474D01*
X29053398Y-21503474D02*
X29150160Y-21455093D01*
X29150160Y-21455093D02*
X29392065Y-21455093D01*
X29392065Y-21455093D02*
X29537208Y-21503474D01*
X30601588Y-21793760D02*
X30988636Y-21793760D01*
X30746731Y-21455093D02*
X30746731Y-22325951D01*
X30746731Y-22325951D02*
X30795112Y-22422713D01*
X30795112Y-22422713D02*
X30891874Y-22471093D01*
X30891874Y-22471093D02*
X30988636Y-22471093D01*
X31472445Y-22471093D02*
X31375683Y-22422713D01*
X31375683Y-22422713D02*
X31327302Y-22374332D01*
X31327302Y-22374332D02*
X31278921Y-22277570D01*
X31278921Y-22277570D02*
X31278921Y-21987284D01*
X31278921Y-21987284D02*
X31327302Y-21890522D01*
X31327302Y-21890522D02*
X31375683Y-21842141D01*
X31375683Y-21842141D02*
X31472445Y-21793760D01*
X31472445Y-21793760D02*
X31617588Y-21793760D01*
X31617588Y-21793760D02*
X31714350Y-21842141D01*
X31714350Y-21842141D02*
X31762731Y-21890522D01*
X31762731Y-21890522D02*
X31811112Y-21987284D01*
X31811112Y-21987284D02*
X31811112Y-22277570D01*
X31811112Y-22277570D02*
X31762731Y-22374332D01*
X31762731Y-22374332D02*
X31714350Y-22422713D01*
X31714350Y-22422713D02*
X31617588Y-22471093D01*
X31617588Y-22471093D02*
X31472445Y-22471093D01*
X32875492Y-21455093D02*
X33456064Y-21455093D01*
X33165778Y-22471093D02*
X33165778Y-21455093D01*
X33939873Y-22471093D02*
X33843111Y-22422713D01*
X33843111Y-22422713D02*
X33794730Y-22374332D01*
X33794730Y-22374332D02*
X33746349Y-22277570D01*
X33746349Y-22277570D02*
X33746349Y-21987284D01*
X33746349Y-21987284D02*
X33794730Y-21890522D01*
X33794730Y-21890522D02*
X33843111Y-21842141D01*
X33843111Y-21842141D02*
X33939873Y-21793760D01*
X33939873Y-21793760D02*
X34085016Y-21793760D01*
X34085016Y-21793760D02*
X34181778Y-21842141D01*
X34181778Y-21842141D02*
X34230159Y-21890522D01*
X34230159Y-21890522D02*
X34278540Y-21987284D01*
X34278540Y-21987284D02*
X34278540Y-22277570D01*
X34278540Y-22277570D02*
X34230159Y-22374332D01*
X34230159Y-22374332D02*
X34181778Y-22422713D01*
X34181778Y-22422713D02*
X34085016Y-22471093D01*
X34085016Y-22471093D02*
X33939873Y-22471093D01*
X34665587Y-22422713D02*
X34762349Y-22471093D01*
X34762349Y-22471093D02*
X34955873Y-22471093D01*
X34955873Y-22471093D02*
X35052635Y-22422713D01*
X35052635Y-22422713D02*
X35101016Y-22325951D01*
X35101016Y-22325951D02*
X35101016Y-22277570D01*
X35101016Y-22277570D02*
X35052635Y-22180808D01*
X35052635Y-22180808D02*
X34955873Y-22132427D01*
X34955873Y-22132427D02*
X34810730Y-22132427D01*
X34810730Y-22132427D02*
X34713968Y-22084046D01*
X34713968Y-22084046D02*
X34665587Y-21987284D01*
X34665587Y-21987284D02*
X34665587Y-21938903D01*
X34665587Y-21938903D02*
X34713968Y-21842141D01*
X34713968Y-21842141D02*
X34810730Y-21793760D01*
X34810730Y-21793760D02*
X34955873Y-21793760D01*
X34955873Y-21793760D02*
X35052635Y-21842141D01*
X36020254Y-22471093D02*
X35536444Y-22471093D01*
X35536444Y-22471093D02*
X35536444Y-21455093D01*
X36358920Y-22471093D02*
X36358920Y-21793760D01*
X36358920Y-21455093D02*
X36310539Y-21503474D01*
X36310539Y-21503474D02*
X36358920Y-21551855D01*
X36358920Y-21551855D02*
X36407301Y-21503474D01*
X36407301Y-21503474D02*
X36358920Y-21455093D01*
X36358920Y-21455093D02*
X36358920Y-21551855D01*
X36842730Y-21793760D02*
X36842730Y-22471093D01*
X36842730Y-21890522D02*
X36891111Y-21842141D01*
X36891111Y-21842141D02*
X36987873Y-21793760D01*
X36987873Y-21793760D02*
X37133016Y-21793760D01*
X37133016Y-21793760D02*
X37229778Y-21842141D01*
X37229778Y-21842141D02*
X37278159Y-21938903D01*
X37278159Y-21938903D02*
X37278159Y-22471093D01*
X37761968Y-22471093D02*
X37761968Y-21455093D01*
X37858730Y-22084046D02*
X38149016Y-22471093D01*
X38149016Y-21793760D02*
X37761968Y-22180808D01*
D10*
D11*
X22882332Y-72449839D02*
X22930713Y-72498220D01*
X22930713Y-72498220D02*
X22979093Y-72643363D01*
X22979093Y-72643363D02*
X22979093Y-72740125D01*
X22979093Y-72740125D02*
X22930713Y-72885268D01*
X22930713Y-72885268D02*
X22833951Y-72982030D01*
X22833951Y-72982030D02*
X22737189Y-73030411D01*
X22737189Y-73030411D02*
X22543665Y-73078792D01*
X22543665Y-73078792D02*
X22398522Y-73078792D01*
X22398522Y-73078792D02*
X22204998Y-73030411D01*
X22204998Y-73030411D02*
X22108236Y-72982030D01*
X22108236Y-72982030D02*
X22011474Y-72885268D01*
X22011474Y-72885268D02*
X21963093Y-72740125D01*
X21963093Y-72740125D02*
X21963093Y-72643363D01*
X21963093Y-72643363D02*
X22011474Y-72498220D01*
X22011474Y-72498220D02*
X22059855Y-72449839D01*
X22979093Y-71869268D02*
X22930713Y-71966030D01*
X22930713Y-71966030D02*
X22882332Y-72014411D01*
X22882332Y-72014411D02*
X22785570Y-72062792D01*
X22785570Y-72062792D02*
X22495284Y-72062792D01*
X22495284Y-72062792D02*
X22398522Y-72014411D01*
X22398522Y-72014411D02*
X22350141Y-71966030D01*
X22350141Y-71966030D02*
X22301760Y-71869268D01*
X22301760Y-71869268D02*
X22301760Y-71724125D01*
X22301760Y-71724125D02*
X22350141Y-71627363D01*
X22350141Y-71627363D02*
X22398522Y-71578982D01*
X22398522Y-71578982D02*
X22495284Y-71530601D01*
X22495284Y-71530601D02*
X22785570Y-71530601D01*
X22785570Y-71530601D02*
X22882332Y-71578982D01*
X22882332Y-71578982D02*
X22930713Y-71627363D01*
X22930713Y-71627363D02*
X22979093Y-71724125D01*
X22979093Y-71724125D02*
X22979093Y-71869268D01*
X22301760Y-71095173D02*
X23317760Y-71095173D01*
X22350141Y-71095173D02*
X22301760Y-70998411D01*
X22301760Y-70998411D02*
X22301760Y-70804887D01*
X22301760Y-70804887D02*
X22350141Y-70708125D01*
X22350141Y-70708125D02*
X22398522Y-70659744D01*
X22398522Y-70659744D02*
X22495284Y-70611363D01*
X22495284Y-70611363D02*
X22785570Y-70611363D01*
X22785570Y-70611363D02*
X22882332Y-70659744D01*
X22882332Y-70659744D02*
X22930713Y-70708125D01*
X22930713Y-70708125D02*
X22979093Y-70804887D01*
X22979093Y-70804887D02*
X22979093Y-70998411D01*
X22979093Y-70998411D02*
X22930713Y-71095173D01*
X22301760Y-70272697D02*
X22979093Y-70030792D01*
X22301760Y-69788887D02*
X22979093Y-70030792D01*
X22979093Y-70030792D02*
X23220998Y-70127554D01*
X23220998Y-70127554D02*
X23269379Y-70175935D01*
X23269379Y-70175935D02*
X23317760Y-70272697D01*
X22979093Y-69401840D02*
X22301760Y-69401840D01*
X22495284Y-69401840D02*
X22398522Y-69353459D01*
X22398522Y-69353459D02*
X22350141Y-69305078D01*
X22350141Y-69305078D02*
X22301760Y-69208316D01*
X22301760Y-69208316D02*
X22301760Y-69111554D01*
X22979093Y-68772888D02*
X22301760Y-68772888D01*
X21963093Y-68772888D02*
X22011474Y-68821269D01*
X22011474Y-68821269D02*
X22059855Y-68772888D01*
X22059855Y-68772888D02*
X22011474Y-68724507D01*
X22011474Y-68724507D02*
X21963093Y-68772888D01*
X21963093Y-68772888D02*
X22059855Y-68772888D01*
X22301760Y-67853649D02*
X23124236Y-67853649D01*
X23124236Y-67853649D02*
X23220998Y-67902030D01*
X23220998Y-67902030D02*
X23269379Y-67950411D01*
X23269379Y-67950411D02*
X23317760Y-68047173D01*
X23317760Y-68047173D02*
X23317760Y-68192316D01*
X23317760Y-68192316D02*
X23269379Y-68289078D01*
X22930713Y-67853649D02*
X22979093Y-67950411D01*
X22979093Y-67950411D02*
X22979093Y-68143935D01*
X22979093Y-68143935D02*
X22930713Y-68240697D01*
X22930713Y-68240697D02*
X22882332Y-68289078D01*
X22882332Y-68289078D02*
X22785570Y-68337459D01*
X22785570Y-68337459D02*
X22495284Y-68337459D01*
X22495284Y-68337459D02*
X22398522Y-68289078D01*
X22398522Y-68289078D02*
X22350141Y-68240697D01*
X22350141Y-68240697D02*
X22301760Y-68143935D01*
X22301760Y-68143935D02*
X22301760Y-67950411D01*
X22301760Y-67950411D02*
X22350141Y-67853649D01*
X22979093Y-67369840D02*
X21963093Y-67369840D01*
X22979093Y-66934411D02*
X22446903Y-66934411D01*
X22446903Y-66934411D02*
X22350141Y-66982792D01*
X22350141Y-66982792D02*
X22301760Y-67079554D01*
X22301760Y-67079554D02*
X22301760Y-67224697D01*
X22301760Y-67224697D02*
X22350141Y-67321459D01*
X22350141Y-67321459D02*
X22398522Y-67369840D01*
X22301760Y-66595745D02*
X22301760Y-66208697D01*
X21963093Y-66450602D02*
X22833951Y-66450602D01*
X22833951Y-66450602D02*
X22930713Y-66402221D01*
X22930713Y-66402221D02*
X22979093Y-66305459D01*
X22979093Y-66305459D02*
X22979093Y-66208697D01*
X23366141Y-64805650D02*
X23317760Y-64854031D01*
X23317760Y-64854031D02*
X23172617Y-64950793D01*
X23172617Y-64950793D02*
X23075855Y-64999174D01*
X23075855Y-64999174D02*
X22930713Y-65047555D01*
X22930713Y-65047555D02*
X22688808Y-65095936D01*
X22688808Y-65095936D02*
X22495284Y-65095936D01*
X22495284Y-65095936D02*
X22253379Y-65047555D01*
X22253379Y-65047555D02*
X22108236Y-64999174D01*
X22108236Y-64999174D02*
X22011474Y-64950793D01*
X22011474Y-64950793D02*
X21866332Y-64854031D01*
X21866332Y-64854031D02*
X21817951Y-64805650D01*
X22882332Y-63838031D02*
X22930713Y-63886412D01*
X22930713Y-63886412D02*
X22979093Y-64031555D01*
X22979093Y-64031555D02*
X22979093Y-64128317D01*
X22979093Y-64128317D02*
X22930713Y-64273460D01*
X22930713Y-64273460D02*
X22833951Y-64370222D01*
X22833951Y-64370222D02*
X22737189Y-64418603D01*
X22737189Y-64418603D02*
X22543665Y-64466984D01*
X22543665Y-64466984D02*
X22398522Y-64466984D01*
X22398522Y-64466984D02*
X22204998Y-64418603D01*
X22204998Y-64418603D02*
X22108236Y-64370222D01*
X22108236Y-64370222D02*
X22011474Y-64273460D01*
X22011474Y-64273460D02*
X21963093Y-64128317D01*
X21963093Y-64128317D02*
X21963093Y-64031555D01*
X21963093Y-64031555D02*
X22011474Y-63886412D01*
X22011474Y-63886412D02*
X22059855Y-63838031D01*
X23366141Y-63499365D02*
X23317760Y-63450984D01*
X23317760Y-63450984D02*
X23172617Y-63354222D01*
X23172617Y-63354222D02*
X23075855Y-63305841D01*
X23075855Y-63305841D02*
X22930713Y-63257460D01*
X22930713Y-63257460D02*
X22688808Y-63209079D01*
X22688808Y-63209079D02*
X22495284Y-63209079D01*
X22495284Y-63209079D02*
X22253379Y-63257460D01*
X22253379Y-63257460D02*
X22108236Y-63305841D01*
X22108236Y-63305841D02*
X22011474Y-63354222D01*
X22011474Y-63354222D02*
X21866332Y-63450984D01*
X21866332Y-63450984D02*
X21817951Y-63499365D01*
X22059855Y-61999556D02*
X22011474Y-61951175D01*
X22011474Y-61951175D02*
X21963093Y-61854413D01*
X21963093Y-61854413D02*
X21963093Y-61612508D01*
X21963093Y-61612508D02*
X22011474Y-61515746D01*
X22011474Y-61515746D02*
X22059855Y-61467365D01*
X22059855Y-61467365D02*
X22156617Y-61418984D01*
X22156617Y-61418984D02*
X22253379Y-61418984D01*
X22253379Y-61418984D02*
X22398522Y-61467365D01*
X22398522Y-61467365D02*
X22979093Y-62047937D01*
X22979093Y-62047937D02*
X22979093Y-61418984D01*
X21963093Y-60790032D02*
X21963093Y-60693270D01*
X21963093Y-60693270D02*
X22011474Y-60596508D01*
X22011474Y-60596508D02*
X22059855Y-60548127D01*
X22059855Y-60548127D02*
X22156617Y-60499746D01*
X22156617Y-60499746D02*
X22350141Y-60451365D01*
X22350141Y-60451365D02*
X22592046Y-60451365D01*
X22592046Y-60451365D02*
X22785570Y-60499746D01*
X22785570Y-60499746D02*
X22882332Y-60548127D01*
X22882332Y-60548127D02*
X22930713Y-60596508D01*
X22930713Y-60596508D02*
X22979093Y-60693270D01*
X22979093Y-60693270D02*
X22979093Y-60790032D01*
X22979093Y-60790032D02*
X22930713Y-60886794D01*
X22930713Y-60886794D02*
X22882332Y-60935175D01*
X22882332Y-60935175D02*
X22785570Y-60983556D01*
X22785570Y-60983556D02*
X22592046Y-61031937D01*
X22592046Y-61031937D02*
X22350141Y-61031937D01*
X22350141Y-61031937D02*
X22156617Y-60983556D01*
X22156617Y-60983556D02*
X22059855Y-60935175D01*
X22059855Y-60935175D02*
X22011474Y-60886794D01*
X22011474Y-60886794D02*
X21963093Y-60790032D01*
X22059855Y-60064318D02*
X22011474Y-60015937D01*
X22011474Y-60015937D02*
X21963093Y-59919175D01*
X21963093Y-59919175D02*
X21963093Y-59677270D01*
X21963093Y-59677270D02*
X22011474Y-59580508D01*
X22011474Y-59580508D02*
X22059855Y-59532127D01*
X22059855Y-59532127D02*
X22156617Y-59483746D01*
X22156617Y-59483746D02*
X22253379Y-59483746D01*
X22253379Y-59483746D02*
X22398522Y-59532127D01*
X22398522Y-59532127D02*
X22979093Y-60112699D01*
X22979093Y-60112699D02*
X22979093Y-59483746D01*
X21963093Y-59145080D02*
X21963093Y-58516127D01*
X21963093Y-58516127D02*
X22350141Y-58854794D01*
X22350141Y-58854794D02*
X22350141Y-58709651D01*
X22350141Y-58709651D02*
X22398522Y-58612889D01*
X22398522Y-58612889D02*
X22446903Y-58564508D01*
X22446903Y-58564508D02*
X22543665Y-58516127D01*
X22543665Y-58516127D02*
X22785570Y-58516127D01*
X22785570Y-58516127D02*
X22882332Y-58564508D01*
X22882332Y-58564508D02*
X22930713Y-58612889D01*
X22930713Y-58612889D02*
X22979093Y-58709651D01*
X22979093Y-58709651D02*
X22979093Y-58999937D01*
X22979093Y-58999937D02*
X22930713Y-59096699D01*
X22930713Y-59096699D02*
X22882332Y-59145080D01*
X22979093Y-57306604D02*
X21963093Y-57306604D01*
X21963093Y-57306604D02*
X22688808Y-56967937D01*
X22688808Y-56967937D02*
X21963093Y-56629270D01*
X21963093Y-56629270D02*
X22979093Y-56629270D01*
X22979093Y-56145461D02*
X22301760Y-56145461D01*
X21963093Y-56145461D02*
X22011474Y-56193842D01*
X22011474Y-56193842D02*
X22059855Y-56145461D01*
X22059855Y-56145461D02*
X22011474Y-56097080D01*
X22011474Y-56097080D02*
X21963093Y-56145461D01*
X21963093Y-56145461D02*
X22059855Y-56145461D01*
X22979093Y-55661651D02*
X21963093Y-55661651D01*
X22592046Y-55564889D02*
X22979093Y-55274603D01*
X22301760Y-55274603D02*
X22688808Y-55661651D01*
X22979093Y-54403746D02*
X22446903Y-54403746D01*
X22446903Y-54403746D02*
X22350141Y-54452127D01*
X22350141Y-54452127D02*
X22301760Y-54548889D01*
X22301760Y-54548889D02*
X22301760Y-54742413D01*
X22301760Y-54742413D02*
X22350141Y-54839175D01*
X22930713Y-54403746D02*
X22979093Y-54500508D01*
X22979093Y-54500508D02*
X22979093Y-54742413D01*
X22979093Y-54742413D02*
X22930713Y-54839175D01*
X22930713Y-54839175D02*
X22833951Y-54887556D01*
X22833951Y-54887556D02*
X22737189Y-54887556D01*
X22737189Y-54887556D02*
X22640427Y-54839175D01*
X22640427Y-54839175D02*
X22592046Y-54742413D01*
X22592046Y-54742413D02*
X22592046Y-54500508D01*
X22592046Y-54500508D02*
X22543665Y-54403746D01*
X22979093Y-52662032D02*
X22979093Y-53145842D01*
X22979093Y-53145842D02*
X21963093Y-53145842D01*
X22979093Y-51887937D02*
X22446903Y-51887937D01*
X22446903Y-51887937D02*
X22350141Y-51936318D01*
X22350141Y-51936318D02*
X22301760Y-52033080D01*
X22301760Y-52033080D02*
X22301760Y-52226604D01*
X22301760Y-52226604D02*
X22350141Y-52323366D01*
X22930713Y-51887937D02*
X22979093Y-51984699D01*
X22979093Y-51984699D02*
X22979093Y-52226604D01*
X22979093Y-52226604D02*
X22930713Y-52323366D01*
X22930713Y-52323366D02*
X22833951Y-52371747D01*
X22833951Y-52371747D02*
X22737189Y-52371747D01*
X22737189Y-52371747D02*
X22640427Y-52323366D01*
X22640427Y-52323366D02*
X22592046Y-52226604D01*
X22592046Y-52226604D02*
X22592046Y-51984699D01*
X22592046Y-51984699D02*
X22543665Y-51887937D01*
X22979093Y-51404128D02*
X22301760Y-51404128D01*
X21963093Y-51404128D02*
X22011474Y-51452509D01*
X22011474Y-51452509D02*
X22059855Y-51404128D01*
X22059855Y-51404128D02*
X22011474Y-51355747D01*
X22011474Y-51355747D02*
X21963093Y-51404128D01*
X21963093Y-51404128D02*
X22059855Y-51404128D01*
X22301760Y-51065461D02*
X22301760Y-50678413D01*
X21963093Y-50920318D02*
X22833951Y-50920318D01*
X22833951Y-50920318D02*
X22930713Y-50871937D01*
X22930713Y-50871937D02*
X22979093Y-50775175D01*
X22979093Y-50775175D02*
X22979093Y-50678413D01*
X22979093Y-50339747D02*
X22301760Y-50339747D01*
X21963093Y-50339747D02*
X22011474Y-50388128D01*
X22011474Y-50388128D02*
X22059855Y-50339747D01*
X22059855Y-50339747D02*
X22011474Y-50291366D01*
X22011474Y-50291366D02*
X21963093Y-50339747D01*
X21963093Y-50339747D02*
X22059855Y-50339747D01*
X22979093Y-49710794D02*
X22930713Y-49807556D01*
X22930713Y-49807556D02*
X22882332Y-49855937D01*
X22882332Y-49855937D02*
X22785570Y-49904318D01*
X22785570Y-49904318D02*
X22495284Y-49904318D01*
X22495284Y-49904318D02*
X22398522Y-49855937D01*
X22398522Y-49855937D02*
X22350141Y-49807556D01*
X22350141Y-49807556D02*
X22301760Y-49710794D01*
X22301760Y-49710794D02*
X22301760Y-49565651D01*
X22301760Y-49565651D02*
X22350141Y-49468889D01*
X22350141Y-49468889D02*
X22398522Y-49420508D01*
X22398522Y-49420508D02*
X22495284Y-49372127D01*
X22495284Y-49372127D02*
X22785570Y-49372127D01*
X22785570Y-49372127D02*
X22882332Y-49420508D01*
X22882332Y-49420508D02*
X22930713Y-49468889D01*
X22930713Y-49468889D02*
X22979093Y-49565651D01*
X22979093Y-49565651D02*
X22979093Y-49710794D01*
D12*
%TO.P,Y1,1,1*%
%TO.N,MCU_XTAL2*%
X39116000Y-74904600D03*
%TO.P,Y1,2,2*%
%TO.N,MCU_XTAL1*%
X39116000Y-70637400D03*
%TD*%
D13*
%TO.P,H1,1*%
%TO.N,N/C*%
X24130000Y-23622000D03*
D14*
X24130000Y-23622000D03*
%TD*%
D15*
%TO.P,C18,1*%
%TO.N,CODEC_XIN*%
X59055000Y-32856000D03*
%TO.P,C18,2*%
%TO.N,GND*%
X60015000Y-32856000D03*
%TD*%
D16*
%TO.P,R10,1*%
%TO.N,Net-(J10-VIN)*%
X77470000Y-55271400D03*
%TO.P,R10,2*%
%TO.N,Net-(C22-Pad1)*%
X77470000Y-56921400D03*
%TD*%
D17*
%TO.P,C10,1*%
%TO.N,MCU_XTAL1*%
X45364400Y-75748000D03*
%TO.P,C10,2*%
%TO.N,GND*%
X45364400Y-76708000D03*
%TD*%
D18*
%TO.P,C15,1*%
%TO.N,GND*%
X38069400Y-48717200D03*
%TO.P,C15,2*%
%TO.N,VCC_3V3*%
X37109400Y-48717200D03*
%TD*%
D19*
%TO.P,J3,1,Pin_1*%
%TO.N,GND*%
X27686000Y-32512000D03*
D20*
%TO.P,J3,2,Pin_2*%
%TO.N,VCC_3V3*%
X27686000Y-29972000D03*
%TO.P,J3,3,Pin_3*%
%TO.N,VIN_5V*%
X27686000Y-27432000D03*
%TD*%
D21*
%TO.P,R4,1*%
%TO.N,MCU_TXD0*%
X54860000Y-60198000D03*
%TO.P,R4,2*%
%TO.N,Net-(J5-Pin_5)*%
X55880000Y-60198000D03*
%TD*%
%TO.P,R6,1*%
%TO.N,CODEC_GPO7*%
X59484800Y-55245000D03*
%TO.P,R6,2*%
%TO.N,GND*%
X60504800Y-55245000D03*
%TD*%
D22*
%TO.P,J17,1,Pin_1*%
%TO.N,CODEC_CLKOUT*%
X56134000Y-47498000D03*
%TD*%
D21*
%TO.P,R8,1*%
%TO.N,CODEC_RESETB*%
X55624000Y-49784000D03*
%TO.P,R8,2*%
%TO.N,VCC_3V3*%
X56644000Y-49784000D03*
%TD*%
D18*
%TO.P,C8,1*%
%TO.N,VCC_3V3*%
X44113600Y-74168000D03*
%TO.P,C8,2*%
%TO.N,GND*%
X43153600Y-74168000D03*
%TD*%
D23*
%TO.P,TP1,1,1*%
%TO.N,Net-(U2-ADC6)*%
X64617600Y-74117200D03*
%TD*%
D17*
%TO.P,C13,1*%
%TO.N,GND*%
X26670000Y-42164000D03*
%TO.P,C13,2*%
%TO.N,VCC_3V3*%
X26670000Y-43124000D03*
%TD*%
D24*
%TO.P,U2,1,PD3*%
%TO.N,Net-(J4-Pin_3)*%
X48861400Y-70174200D03*
%TO.P,U2,2,PD4*%
%TO.N,Net-(J4-Pin_2)*%
X48861400Y-70974200D03*
%TO.P,U2,3,GND*%
%TO.N,GND*%
X48861400Y-71774200D03*
%TO.P,U2,4,VCC*%
%TO.N,VCC_3V3*%
X48861400Y-72574200D03*
%TO.P,U2,5,GND*%
%TO.N,GND*%
X48861400Y-73374200D03*
%TO.P,U2,6,VCC*%
%TO.N,VCC_3V3*%
X48861400Y-74174200D03*
%TO.P,U2,7,XTAL1/PB6*%
%TO.N,MCU_XTAL1*%
X48861400Y-74974200D03*
%TO.P,U2,8,XTAL2/PB7*%
%TO.N,MCU_XTAL2*%
X48861400Y-75774200D03*
D25*
%TO.P,U2,9,PD5*%
%TO.N,Net-(J12-Pin_4)*%
X50311400Y-77224200D03*
%TO.P,U2,10,PD6*%
%TO.N,Net-(J12-Pin_3)*%
X51111400Y-77224200D03*
%TO.P,U2,11,PD7*%
%TO.N,Net-(J12-Pin_2)*%
X51911400Y-77224200D03*
%TO.P,U2,12,PB0*%
%TO.N,unconnected-(U2-PB0-Pad12)*%
X52711400Y-77224200D03*
%TO.P,U2,13,PB1*%
%TO.N,unconnected-(U2-PB1-Pad13)*%
X53511400Y-77224200D03*
%TO.P,U2,14,PB2*%
%TO.N,unconnected-(U2-PB2-Pad14)*%
X54311400Y-77224200D03*
%TO.P,U2,15,PB3*%
%TO.N,MCU_MOSI*%
X55111400Y-77224200D03*
%TO.P,U2,16,PB4*%
%TO.N,MCU_MISO*%
X55911400Y-77224200D03*
D24*
%TO.P,U2,17,PB5*%
%TO.N,MCU_SCK*%
X57361400Y-75774200D03*
%TO.P,U2,18,AVCC*%
%TO.N,VCC_3V3*%
X57361400Y-74974200D03*
%TO.P,U2,19,ADC6*%
%TO.N,Net-(U2-ADC6)*%
X57361400Y-74174200D03*
%TO.P,U2,20,AREF*%
%TO.N,Net-(U2-AREF)*%
X57361400Y-73374200D03*
%TO.P,U2,21,GND*%
%TO.N,GND*%
X57361400Y-72574200D03*
%TO.P,U2,22,ADC7*%
%TO.N,unconnected-(U2-ADC7-Pad22)*%
X57361400Y-71774200D03*
%TO.P,U2,23,PC0*%
%TO.N,MCU_LED*%
X57361400Y-70974200D03*
%TO.P,U2,24,PC1*%
%TO.N,unconnected-(U2-PC1-Pad24)*%
X57361400Y-70174200D03*
D25*
%TO.P,U2,25,PC2*%
%TO.N,unconnected-(U2-PC2-Pad25)*%
X55911400Y-68724200D03*
%TO.P,U2,26,PC3*%
%TO.N,unconnected-(U2-PC3-Pad26)*%
X55111400Y-68724200D03*
%TO.P,U2,27,PC4*%
%TO.N,MCU_SDA1*%
X54311400Y-68724200D03*
%TO.P,U2,28,PC5*%
%TO.N,MCU_SCL1*%
X53511400Y-68724200D03*
%TO.P,U2,29,~{RESET}/PC6*%
%TO.N,MCU_RST*%
X52711400Y-68724200D03*
%TO.P,U2,30,PD0*%
%TO.N,MCU_RXD0*%
X51911400Y-68724200D03*
%TO.P,U2,31,PD1*%
%TO.N,MCU_TXD0*%
X51111400Y-68724200D03*
%TO.P,U2,32,PD2*%
%TO.N,MCU_INT0*%
X50311400Y-68724200D03*
%TD*%
D19*
%TO.P,J2,1,Pin_1*%
%TO.N,GND*%
X54864000Y-26416000D03*
D20*
%TO.P,J2,2,Pin_2*%
%TO.N,EXTERNAL_IN_I2S_DIN*%
X52324000Y-26416000D03*
%TO.P,J2,3,Pin_3*%
%TO.N,EXTERNAL_IN_I2S_BCLK*%
X49784000Y-26416000D03*
%TO.P,J2,4,Pin_4*%
%TO.N,EXTERNAL_IN_I2S_LRCLK*%
X47244000Y-26416000D03*
%TO.P,J2,5,Pin_5*%
%TO.N,EXTERNAL_IN_I2S_MCLK*%
X44704000Y-26416000D03*
%TD*%
D22*
%TO.P,J15,1,Pin_1*%
%TO.N,CODEC_GPO7*%
X56261000Y-55245000D03*
%TD*%
D26*
%TO.P,C14,1*%
%TO.N,GND*%
X25349200Y-50416400D03*
%TO.P,C14,2*%
%TO.N,VCC_3V3*%
X25349200Y-49456400D03*
%TD*%
D16*
%TO.P,R12,1*%
%TO.N,Net-(C23-Pad2)*%
X73431400Y-61291200D03*
%TO.P,R12,2*%
%TO.N,GND*%
X73431400Y-62941200D03*
%TD*%
D19*
%TO.P,J12,1,Pin_1*%
%TO.N,GND*%
X30480000Y-72390000D03*
D20*
%TO.P,J12,2,Pin_2*%
%TO.N,Net-(J12-Pin_2)*%
X30480000Y-69850000D03*
%TO.P,J12,3,Pin_3*%
%TO.N,Net-(J12-Pin_3)*%
X30480000Y-67310000D03*
%TO.P,J12,4,Pin_4*%
%TO.N,Net-(J12-Pin_4)*%
X30480000Y-64770000D03*
%TD*%
D15*
%TO.P,C4,1*%
%TO.N,VCC_3V3*%
X37902000Y-36576000D03*
%TO.P,C4,2*%
%TO.N,GND*%
X38862000Y-36576000D03*
%TD*%
D27*
%TO.P,R13,1*%
%TO.N,Net-(C23-Pad2)*%
X73482200Y-57150000D03*
%TO.P,R13,2*%
%TO.N,CODEC_OUT_SPDIF_AUDIO_DATA*%
X73482200Y-55500000D03*
%TD*%
D22*
%TO.P,J9,1,Pin_1*%
%TO.N,GND*%
X35687000Y-53975000D03*
D28*
%TO.P,J9,2,Pin_2*%
%TO.N,Net-(J9-Pin_2)*%
X34417000Y-53975000D03*
%TO.P,J9,3,Pin_3*%
%TO.N,CLKGEN_OUT_I2S_MCLK*%
X33147000Y-53975000D03*
%TD*%
D21*
%TO.P,R5,1*%
%TO.N,MCU_RXD0*%
X54860000Y-57912000D03*
%TO.P,R5,2*%
%TO.N,Net-(J5-Pin_4)*%
X55880000Y-57912000D03*
%TD*%
D29*
%TO.P,C23,1*%
%TO.N,Net-(C22-Pad1)*%
X75019400Y-59271400D03*
%TO.P,C23,2*%
%TO.N,Net-(C23-Pad2)*%
X73469400Y-59271400D03*
%TD*%
D30*
%TO.P,R1,1*%
%TO.N,MCU_SDA1*%
X46228000Y-59563000D03*
%TO.P,R1,2*%
%TO.N,VCC_3V3*%
X46228000Y-58543000D03*
%TD*%
D31*
%TO.P,R11,1*%
%TO.N,CODEC_OUT_SPDIF_AUDIO_DATA*%
X71374000Y-53213000D03*
%TO.P,R11,2*%
%TO.N,Net-(J10-VIN)*%
X73024000Y-53213000D03*
%TD*%
D22*
%TO.P,J7,1,Pin_1*%
%TO.N,GND*%
X28702000Y-59944000D03*
D28*
%TO.P,J7,2,Pin_2*%
%TO.N,Net-(J7-Pin_2)*%
X27432000Y-59944000D03*
%TO.P,J7,3,Pin_3*%
%TO.N,EXTERNAL_IN_I2S_BCLK*%
X26162000Y-59944000D03*
%TD*%
D22*
%TO.P,J14,1,Pin_1*%
%TO.N,CODEC_GPO0*%
X46228000Y-47244000D03*
%TD*%
D17*
%TO.P,C11,1*%
%TO.N,MCU_XTAL2*%
X46482000Y-78006000D03*
%TO.P,C11,2*%
%TO.N,GND*%
X46482000Y-78966000D03*
%TD*%
D18*
%TO.P,C5,1*%
%TO.N,GND*%
X27686000Y-36576000D03*
%TO.P,C5,2*%
%TO.N,VCC_3V3*%
X26726000Y-36576000D03*
%TD*%
D19*
%TO.P,J5,1,Pin_1*%
%TO.N,GND*%
X66548000Y-49276000D03*
D20*
%TO.P,J5,2,Pin_2*%
X66548000Y-51816000D03*
%TO.P,J5,3,Pin_3*%
%TO.N,VIN_5V*%
X66548000Y-54356000D03*
%TO.P,J5,4,Pin_4*%
%TO.N,Net-(J5-Pin_4)*%
X66548000Y-56896000D03*
%TO.P,J5,5,Pin_5*%
%TO.N,Net-(J5-Pin_5)*%
X66548000Y-59436000D03*
%TO.P,J5,6,Pin_6*%
%TO.N,Net-(J5-Pin_6)*%
X66548000Y-61976000D03*
%TD*%
D32*
%TO.P,R9,1*%
%TO.N,CODEC_GPO0*%
X46228000Y-49401000D03*
%TO.P,R9,2*%
%TO.N,GND*%
X46228000Y-50421000D03*
%TD*%
D13*
%TO.P,H3,1*%
%TO.N,N/C*%
X24130000Y-77978000D03*
D14*
X24130000Y-77978000D03*
%TD*%
D18*
%TO.P,C16,1*%
%TO.N,GND*%
X38097400Y-46126400D03*
%TO.P,C16,2*%
%TO.N,VCC_3V3*%
X37137400Y-46126400D03*
%TD*%
D33*
%TO.P,J10,1,DETECTOR_1*%
%TO.N,Net-(J10-DETECTOR_1)*%
X73678400Y-27198600D03*
D34*
%TO.P,J10,2,LEFT_CHANNEL*%
%TO.N,Net-(J10-LEFT_CHANNEL)*%
X67628400Y-36498600D03*
%TO.P,J10,3,RIGHT_CHANNEL*%
%TO.N,Net-(J10-RIGHT_CHANNEL)*%
X73678400Y-30598600D03*
%TO.P,J10,4,GND_1*%
%TO.N,GND*%
X67078400Y-30498600D03*
%TO.P,J10,5,DETECTOR_2*%
%TO.N,Net-(J10-DETECTOR_2)*%
X66628400Y-26998600D03*
D35*
%TO.P,J10,6,GND_2*%
%TO.N,Net-(J10-GND_2)*%
X68478400Y-39598600D03*
%TO.P,J10,7,VCC*%
%TO.N,VCC_3V3*%
X70478400Y-39598600D03*
%TO.P,J10,8,VIN*%
%TO.N,Net-(J10-VIN)*%
X72478400Y-39598600D03*
%TD*%
D32*
%TO.P,R3,1*%
%TO.N,VCC_3V3*%
X42926000Y-58545000D03*
%TO.P,R3,2*%
%TO.N,MCU_SCL1*%
X42926000Y-59565000D03*
%TD*%
D26*
%TO.P,C6,1*%
%TO.N,Net-(U2-AREF)*%
X61417200Y-73400800D03*
%TO.P,C6,2*%
%TO.N,GND*%
X61417200Y-72440800D03*
%TD*%
D36*
%TO.P,U1,1,VIN*%
%TO.N,VIN_5V*%
X34526501Y-33940750D03*
%TO.P,U1,2,GND*%
%TO.N,GND*%
X33576500Y-33940750D03*
%TO.P,U1,3,nc*%
%TO.N,unconnected-(U1-nc-Pad3)*%
X32626499Y-33940750D03*
%TO.P,U1,4,nc*%
%TO.N,unconnected-(U1-nc-Pad4)*%
X32626499Y-36671250D03*
%TO.P,U1,5,VOUT*%
%TO.N,VCC_3V3*%
X34526501Y-36671250D03*
%TD*%
D17*
%TO.P,C9,1*%
%TO.N,VCC_3V3*%
X61417200Y-74960600D03*
%TO.P,C9,2*%
%TO.N,GND*%
X61417200Y-75920600D03*
%TD*%
D37*
%TO.P,D1,1,K*%
%TO.N,GND*%
X66441800Y-70942200D03*
%TO.P,D1,2,A*%
%TO.N,Net-(D1-A)*%
X64566800Y-70942200D03*
%TD*%
D26*
%TO.P,C1,1*%
%TO.N,GND*%
X38862000Y-30861000D03*
%TO.P,C1,2*%
%TO.N,VIN_5V*%
X38862000Y-29901000D03*
%TD*%
D18*
%TO.P,C21,1*%
%TO.N,VCC_3V3*%
X70302000Y-44704000D03*
%TO.P,C21,2*%
%TO.N,GND*%
X69342000Y-44704000D03*
%TD*%
D15*
%TO.P,C19,1*%
%TO.N,VCC_3V3*%
X51364000Y-46101000D03*
%TO.P,C19,2*%
%TO.N,GND*%
X52324000Y-46101000D03*
%TD*%
D38*
%TO.P,C22,1*%
%TO.N,Net-(C22-Pad1)*%
X77470000Y-59283600D03*
%TO.P,C22,2*%
%TO.N,GND*%
X77470000Y-60833600D03*
%TD*%
D17*
%TO.P,C17,1*%
%TO.N,CODEC_XOP*%
X58978800Y-42700000D03*
%TO.P,C17,2*%
%TO.N,GND*%
X58978800Y-43660000D03*
%TD*%
D15*
%TO.P,C12,1*%
%TO.N,MCU_RST*%
X54920000Y-62484000D03*
%TO.P,C12,2*%
%TO.N,Net-(J5-Pin_6)*%
X55880000Y-62484000D03*
%TD*%
D39*
%TO.P,U3,1,S0_A0_CLK_SEL*%
%TO.N,Net-(J8-Pin_2)*%
X28412232Y-44827000D03*
%TO.P,U3,2,S1_A1*%
%TO.N,Net-(J8-Pin_3)*%
X28412232Y-45477001D03*
%TO.P,U3,3,VCC*%
%TO.N,VCC_3V3*%
X28412232Y-46126999D03*
%TO.P,U3,4,GND*%
%TO.N,GND*%
X28412232Y-46777001D03*
%TO.P,U3,5,CLK_IN0*%
%TO.N,Net-(J7-Pin_2)*%
X28412232Y-47426999D03*
%TO.P,U3,6,CLK_IN1*%
%TO.N,EXTERNAL_IN_I2S_BCLK*%
X28412232Y-48077001D03*
%TO.P,U3,7,VCC*%
%TO.N,VCC_3V3*%
X28412232Y-48726999D03*
%TO.P,U3,8,GND*%
%TO.N,GND*%
X28412232Y-49377001D03*
%TO.P,U3,9,SDATA*%
%TO.N,MCU_SDA1*%
X28412232Y-50026999D03*
%TO.P,U3,10,SCLOCK*%
%TO.N,MCU_SCL1*%
X28412232Y-50677000D03*
%TO.P,U3,11,Y0*%
%TO.N,CLKGEN_OUT_I2S_MCLK*%
X34163000Y-50677000D03*
%TO.P,U3,12,Y1*%
%TO.N,Net-(J9-Pin_2)*%
X34163000Y-50026999D03*
%TO.P,U3,13,GND*%
%TO.N,GND*%
X34163000Y-49377001D03*
%TO.P,U3,14,VCCOUT1*%
%TO.N,VCC_3V3*%
X34163000Y-48726999D03*
%TO.P,U3,15,Y2*%
%TO.N,unconnected-(U3-Y2-Pad15)*%
X34163000Y-48077001D03*
%TO.P,U3,16,Y3*%
%TO.N,unconnected-(U3-Y3-Pad16)*%
X34163000Y-47426999D03*
%TO.P,U3,17,GND*%
%TO.N,GND*%
X34163000Y-46777001D03*
%TO.P,U3,18,VCCOUT2*%
%TO.N,VCC_3V3*%
X34163000Y-46126999D03*
%TO.P,U3,19,Y4*%
%TO.N,unconnected-(U3-Y4-Pad19)*%
X34163000Y-45477001D03*
%TO.P,U3,20,Y5*%
%TO.N,unconnected-(U3-Y5-Pad20)*%
X34163000Y-44827000D03*
%TD*%
D22*
%TO.P,J13,1,Pin_1*%
%TO.N,Net-(J10-GND_2)*%
X71872000Y-47752000D03*
D28*
%TO.P,J13,2,Pin_2*%
%TO.N,Net-(J10-LEFT_CHANNEL)*%
X73142000Y-47752000D03*
%TO.P,J13,3,Pin_3*%
%TO.N,Net-(J10-DETECTOR_2)*%
X74412000Y-47752000D03*
%TO.P,J13,4,Pin_4*%
%TO.N,Net-(J10-RIGHT_CHANNEL)*%
X75682000Y-47752000D03*
%TO.P,J13,5,Pin_5*%
%TO.N,Net-(J10-DETECTOR_1)*%
X76952000Y-47752000D03*
%TD*%
D22*
%TO.P,J11,1,Pin_1*%
%TO.N,GND*%
X56134000Y-30226000D03*
D28*
%TO.P,J11,2,Pin_2*%
%TO.N,Net-(J11-Pin_2)*%
X56134000Y-31496000D03*
%TD*%
D21*
%TO.P,R2,1*%
%TO.N,MCU_LED*%
X60348400Y-70942200D03*
%TO.P,R2,2*%
%TO.N,Net-(D1-A)*%
X61368400Y-70942200D03*
%TD*%
D19*
%TO.P,J6,1,MISO*%
%TO.N,MCU_MISO*%
X75438000Y-73660000D03*
D20*
%TO.P,J6,2,VCC*%
%TO.N,VIN_5V*%
X72898000Y-73660000D03*
%TO.P,J6,3,SCK*%
%TO.N,MCU_SCK*%
X75438000Y-71120000D03*
%TO.P,J6,4,MOSI*%
%TO.N,MCU_MOSI*%
X72898000Y-71120000D03*
%TO.P,J6,5,~{RST}*%
%TO.N,MCU_RST*%
X75438000Y-68580000D03*
%TO.P,J6,6,GND*%
%TO.N,GND*%
X72898000Y-68580000D03*
%TD*%
D15*
%TO.P,C3,1*%
%TO.N,VIN_5V*%
X37902000Y-33782000D03*
%TO.P,C3,2*%
%TO.N,GND*%
X38862000Y-33782000D03*
%TD*%
D40*
%TO.P,Y2,1,1*%
%TO.N,CODEC_XIN*%
X58978000Y-35696000D03*
%TO.P,Y2,2,2*%
%TO.N,CODEC_XOP*%
X58978000Y-39996000D03*
%TD*%
D19*
%TO.P,J1,1,Pin_1*%
%TO.N,GND*%
X38862000Y-26416000D03*
D20*
%TO.P,J1,2,Pin_2*%
%TO.N,VIN_5V*%
X36322000Y-26416000D03*
%TD*%
D19*
%TO.P,JP1,1,A*%
%TO.N,CLKGEN_OUT_I2S_MCLK*%
X40894000Y-46228000D03*
D20*
%TO.P,JP1,2,C*%
%TO.N,CODEC_IN_I2S_MCLK*%
X40894000Y-43688000D03*
%TO.P,JP1,3,B*%
%TO.N,EXTERNAL_IN_I2S_MCLK*%
X40894000Y-41148000D03*
%TD*%
D41*
%TO.P,U4,1,DVDD*%
%TO.N,VCC_3V3*%
X44584001Y-41300400D03*
%TO.P,U4,2,RX1*%
%TO.N,GND*%
X45234002Y-41300400D03*
%TO.P,U4,3,RX0*%
X45884001Y-41300400D03*
%TO.P,U4,4,SCLK*%
%TO.N,MCU_SCL1*%
X46534002Y-41300400D03*
%TO.P,U4,5,GPO0/SWIFMODE*%
%TO.N,CODEC_GPO0*%
X47184000Y-41300400D03*
%TO.P,U4,6,GPO1*%
%TO.N,MCU_INT0*%
X47834002Y-41300400D03*
%TO.P,U4,7,SDIN/HWMODE*%
%TO.N,MCU_SDA1*%
X48484000Y-41300400D03*
%TO.P,U4,8,SDOUT/GPo7*%
%TO.N,CODEC_GPO7*%
X49133999Y-41300400D03*
%TO.P,U4,9,CSB/GPO2*%
%TO.N,Net-(U4-CSB{slash}GPO2)*%
X49784000Y-41300400D03*
%TO.P,U4,10,RESETB*%
%TO.N,CODEC_RESETB*%
X50433999Y-41300400D03*
%TO.P,U4,11,PVDD*%
%TO.N,VCC_3V3*%
X51084000Y-41300400D03*
%TO.P,U4,12,PGND*%
%TO.N,GND*%
X51733999Y-41300400D03*
%TO.P,U4,13,CLKOUT*%
%TO.N,CODEC_CLKOUT*%
X52384000Y-41300400D03*
%TO.P,U4,14,XOP*%
%TO.N,CODEC_XOP*%
X53033999Y-41300400D03*
%TO.P,U4,15,XIN*%
%TO.N,CODEC_XIN*%
X53034001Y-34036000D03*
%TO.P,U4,16,DOUT*%
%TO.N,Net-(J11-Pin_2)*%
X52384000Y-34036000D03*
%TO.P,U4,17,DIN*%
%TO.N,EXTERNAL_IN_I2S_DIN*%
X51734001Y-34036000D03*
%TO.P,U4,18,BCLK*%
%TO.N,EXTERNAL_IN_I2S_BCLK*%
X51084000Y-34036000D03*
%TO.P,U4,19,LRCLK*%
%TO.N,EXTERNAL_IN_I2S_LRCLK*%
X50434002Y-34036000D03*
%TO.P,U4,20,MCLK*%
%TO.N,CODEC_IN_I2S_MCLK*%
X49784000Y-34036000D03*
%TO.P,U4,21,TX0*%
%TO.N,CODEC_OUT_SPDIF_AUDIO_DATA*%
X49134002Y-34036000D03*
%TO.P,U4,22,RX7/GPO6*%
%TO.N,GND*%
X48484000Y-34036000D03*
%TO.P,U4,23,RX6/GPO5*%
X47834002Y-34036000D03*
%TO.P,U4,24,RX5/GPO4*%
X47184000Y-34036000D03*
%TO.P,U4,25,RX4/GPO3*%
X46534002Y-34036000D03*
%TO.P,U4,26,RX3*%
X45884001Y-34036000D03*
%TO.P,U4,27,RX2*%
X45234002Y-34036000D03*
%TO.P,U4,28,DGND*%
X44584001Y-34036000D03*
%TD*%
D42*
%TO.P,R7,1*%
%TO.N,GND*%
X51564000Y-54356000D03*
%TO.P,R7,2*%
%TO.N,Net-(U4-CSB{slash}GPO2)*%
X50544000Y-54356000D03*
%TD*%
D18*
%TO.P,C20,1*%
%TO.N,GND*%
X45593000Y-43942000D03*
%TO.P,C20,2*%
%TO.N,VCC_3V3*%
X44633000Y-43942000D03*
%TD*%
D26*
%TO.P,C2,1*%
%TO.N,GND*%
X36195000Y-30861000D03*
%TO.P,C2,2*%
%TO.N,VIN_5V*%
X36195000Y-29901000D03*
%TD*%
D18*
%TO.P,C7,1*%
%TO.N,VCC_3V3*%
X44114600Y-72567800D03*
%TO.P,C7,2*%
%TO.N,GND*%
X43154600Y-72567800D03*
%TD*%
D22*
%TO.P,J8,1,Pin_1*%
%TO.N,GND*%
X32766000Y-41656000D03*
D28*
%TO.P,J8,2,Pin_2*%
%TO.N,Net-(J8-Pin_2)*%
X31496000Y-41656000D03*
%TO.P,J8,3,Pin_3*%
%TO.N,Net-(J8-Pin_3)*%
X30226000Y-41656000D03*
%TD*%
D22*
%TO.P,J16,1,Pin_1*%
%TO.N,CODEC_RESETB*%
X52451000Y-49784000D03*
%TD*%
D13*
%TO.P,H2,1*%
%TO.N,N/C*%
X79248000Y-23876000D03*
D14*
X79248000Y-23876000D03*
%TD*%
D13*
%TO.P,H4,1*%
%TO.N,N/C*%
X79248000Y-77978000D03*
D14*
X79248000Y-77978000D03*
%TD*%
D19*
%TO.P,J4,1,Pin_1*%
%TO.N,GND*%
X37744400Y-64820800D03*
D20*
%TO.P,J4,2,Pin_2*%
%TO.N,Net-(J4-Pin_2)*%
X40284400Y-64820800D03*
%TO.P,J4,3,Pin_3*%
%TO.N,Net-(J4-Pin_3)*%
X42824400Y-64820800D03*
%TD*%
D43*
%TO.N,GND*%
X33528000Y-32258000D03*
X25400000Y-51460400D03*
X66471800Y-73126600D03*
X61468000Y-32893000D03*
X72898000Y-65532000D03*
X45948600Y-73364700D03*
X35890200Y-47218600D03*
X46228000Y-51943000D03*
X67310000Y-44196000D03*
X70866000Y-62865000D03*
X36322000Y-32004000D03*
X59893200Y-76581000D03*
X48006000Y-78994000D03*
X59385200Y-72593200D03*
X25371500Y-44704000D03*
X40132000Y-33782000D03*
X52832000Y-54356000D03*
X42926000Y-76708000D03*
X59004200Y-45034200D03*
X40132000Y-36576000D03*
X39624000Y-48768000D03*
X27432000Y-40640000D03*
X44097500Y-45212000D03*
X52324000Y-44196000D03*
X62484000Y-55245000D03*
X38100000Y-44881800D03*
X45974000Y-71783700D03*
X77470000Y-62484000D03*
D44*
X45974000Y-30226000D03*
D43*
X43027600Y-70891400D03*
%TO.N,VIN_5V*%
X30988000Y-27432000D03*
D44*
X62103000Y-49784000D03*
X62258500Y-44831000D03*
D43*
X33655000Y-26416000D03*
%TO.N,VCC_3V3*%
X42926000Y-57150000D03*
X57404000Y-53467000D03*
X42926000Y-53467000D03*
X37846000Y-51181000D03*
X65786000Y-45593000D03*
X30988000Y-29972000D03*
X37084000Y-37973000D03*
%TO.N,MCU_RST*%
X63246000Y-64770000D03*
X70866000Y-64770000D03*
%TO.N,Net-(J7-Pin_2)*%
X25146000Y-54356000D03*
X24892000Y-47244000D03*
%TO.N,MCU_SCK*%
X75819000Y-77470000D03*
X63881000Y-77470000D03*
%TO.N,MCU_MOSI*%
X68351400Y-74447400D03*
X61722000Y-78892400D03*
X55118000Y-79044800D03*
X69850000Y-68580000D03*
%TO.N,MCU_SDA1*%
X50800000Y-56388000D03*
X55118000Y-65786000D03*
%TO.N,MCU_SCL1*%
X53480264Y-65824090D03*
X44704000Y-59563000D03*
%TO.N,MCU_RXD0*%
X51943000Y-62230000D03*
X51816000Y-59182000D03*
%TO.N,CODEC_OUT_SPDIF_AUDIO_DATA*%
X55626000Y-39751000D03*
X55626000Y-43992800D03*
%TO.N,MCU_INT0*%
X47759000Y-56256347D03*
X49022000Y-58674000D03*
%TO.N,Net-(J10-GND_2)*%
X72390000Y-43180000D03*
X68834000Y-43180000D03*
%TD*%
D45*
%TO.N,GND*%
X39751000Y-30861000D02*
X40005000Y-30607000D01*
X47184000Y-34036000D02*
X47184000Y-31436000D01*
X45958100Y-73374200D02*
X48861400Y-73374200D01*
X45983500Y-71774200D02*
X48861400Y-71774200D01*
X45234002Y-42729999D02*
X45234002Y-41300400D01*
X36195000Y-31877000D02*
X36322000Y-32004000D01*
X44097500Y-45212000D02*
X44427122Y-45212000D01*
X59537600Y-72440800D02*
X59385200Y-72593200D01*
X72898000Y-68580000D02*
X72898000Y-65532000D01*
X26670000Y-41402000D02*
X27432000Y-40640000D01*
X69342000Y-44704000D02*
X67818000Y-44704000D01*
X45165001Y-42799000D02*
X45234002Y-42729999D01*
X52324000Y-44196000D02*
X52324000Y-46101000D01*
X33576500Y-32306500D02*
X33528000Y-32258000D01*
X25349200Y-50416400D02*
X25349200Y-51409600D01*
X51733999Y-42506900D02*
X51733999Y-41300400D01*
X45593000Y-43942000D02*
X45593000Y-43226999D01*
X59893200Y-76581000D02*
X60756800Y-76581000D01*
X45884001Y-41300400D02*
X45234002Y-41300400D01*
X59004200Y-43685400D02*
X58978800Y-43660000D01*
X77470000Y-60833600D02*
X77470000Y-62484000D01*
X25581000Y-44913500D02*
X25581000Y-46367657D01*
X25349200Y-51409600D02*
X25400000Y-51460400D01*
X66471800Y-73126600D02*
X66471800Y-70972200D01*
X66548000Y-51816000D02*
X66548000Y-49276000D01*
X39624000Y-48768000D02*
X39573200Y-48717200D01*
X33576500Y-33940750D02*
X33576500Y-32306500D01*
X34163000Y-46777001D02*
X35448601Y-46777001D01*
X35995000Y-53667000D02*
X35995000Y-49902255D01*
X61417200Y-72440800D02*
X59537600Y-72440800D01*
X48484000Y-34036000D02*
X44584001Y-34036000D01*
X43153600Y-74168000D02*
X43153600Y-72568800D01*
X28412232Y-49377001D02*
X26492721Y-49377001D01*
X67818000Y-44704000D02*
X67310000Y-44196000D01*
X40005000Y-27559000D02*
X38862000Y-26416000D01*
X54864000Y-28956000D02*
X54864000Y-26416000D01*
X38862000Y-30861000D02*
X39751000Y-30861000D01*
X39573200Y-48717200D02*
X38069400Y-48717200D01*
X35448601Y-46777001D02*
X35890200Y-47218600D01*
X45948600Y-73364700D02*
X45958100Y-73374200D01*
X60756800Y-76581000D02*
X61417200Y-75920600D01*
X44584001Y-31615999D02*
X45974000Y-30226000D01*
X59004200Y-45034200D02*
X59004200Y-43685400D01*
X36195000Y-30861000D02*
X36195000Y-31877000D01*
X26670000Y-42164000D02*
X26670000Y-41402000D01*
X35469746Y-49377001D02*
X34163000Y-49377001D01*
X43154600Y-72567800D02*
X43154600Y-71018400D01*
X25371500Y-44704000D02*
X25581000Y-44913500D01*
X57361400Y-72574200D02*
X59366200Y-72574200D01*
X25990344Y-46777001D02*
X28412232Y-46777001D01*
X73431400Y-62941200D02*
X70942200Y-62941200D01*
X38097400Y-46126400D02*
X38097400Y-44884400D01*
X43154600Y-71018400D02*
X43027600Y-70891400D01*
X69113400Y-44475400D02*
X69342000Y-44704000D01*
X47184000Y-31436000D02*
X45974000Y-30226000D01*
X51564000Y-54356000D02*
X52832000Y-54356000D01*
X44427122Y-45212000D02*
X45593000Y-44046122D01*
X44584001Y-34036000D02*
X44584001Y-31615999D01*
X48006000Y-78994000D02*
X46510000Y-78994000D01*
X38862000Y-36576000D02*
X40132000Y-36576000D01*
X26492721Y-49377001D02*
X25453322Y-50416400D01*
X45593000Y-44046122D02*
X45593000Y-43942000D01*
X38862000Y-34036000D02*
X38862000Y-30861000D01*
X52324000Y-43096901D02*
X51733999Y-42506900D01*
X66471800Y-70972200D02*
X66441800Y-70942200D01*
X35995000Y-49902255D02*
X35469746Y-49377001D01*
X45593000Y-43226999D02*
X45165001Y-42799000D01*
X45364400Y-76708000D02*
X42926000Y-76708000D01*
X60504800Y-55245000D02*
X62484000Y-55245000D01*
X40005000Y-30607000D02*
X40005000Y-27559000D01*
X61431000Y-32856000D02*
X61468000Y-32893000D01*
X46228000Y-50421000D02*
X46228000Y-51943000D01*
X45974000Y-71783700D02*
X45983500Y-71774200D01*
X25581000Y-46367657D02*
X25990344Y-46777001D01*
X70942200Y-62941200D02*
X70866000Y-62865000D01*
X38097400Y-44884400D02*
X38100000Y-44881800D01*
X38862000Y-33782000D02*
X40132000Y-33782000D01*
X52324000Y-44196000D02*
X52324000Y-43096901D01*
X46510000Y-78994000D02*
X46482000Y-78966000D01*
X60015000Y-32856000D02*
X61431000Y-32856000D01*
X56134000Y-30226000D02*
X54864000Y-28956000D01*
X27686000Y-36576000D02*
X27686000Y-32512000D01*
X59366200Y-72574200D02*
X59385200Y-72593200D01*
X36195000Y-30861000D02*
X38862000Y-30861000D01*
X25453322Y-50416400D02*
X25349200Y-50416400D01*
X35687000Y-53975000D02*
X35995000Y-53667000D01*
X43153600Y-72568800D02*
X43154600Y-72567800D01*
%TO.N,VIN_5V*%
X30988000Y-24857100D02*
X30988000Y-27432000D01*
X57470700Y-23333100D02*
X62258500Y-28120900D01*
X68834000Y-56642000D02*
X66548000Y-54356000D01*
X62258500Y-28120900D02*
X62258500Y-44831000D01*
X37743250Y-33940750D02*
X37902000Y-33782000D01*
X34526501Y-33940750D02*
X37743250Y-33940750D01*
X68834000Y-71120000D02*
X68834000Y-56642000D01*
X72898000Y-73914000D02*
X71628000Y-73914000D01*
X36322000Y-26416000D02*
X36322000Y-29774000D01*
X36195000Y-29901000D02*
X38862000Y-29901000D01*
X32512000Y-23333100D02*
X30988000Y-24857100D01*
X36322000Y-29774000D02*
X36195000Y-29901000D01*
X34526501Y-33940750D02*
X34526501Y-31259500D01*
X33655000Y-26416000D02*
X36322000Y-26416000D01*
X27686000Y-27432000D02*
X30988000Y-27432000D01*
X34526501Y-31259500D02*
X35885001Y-29901000D01*
X35885001Y-29901000D02*
X36195000Y-29901000D01*
X32512000Y-23333100D02*
X57470700Y-23333100D01*
X71628000Y-73914000D02*
X68834000Y-71120000D01*
X62103000Y-49784000D02*
X62103000Y-49911000D01*
X62103000Y-49911000D02*
X66548000Y-54356000D01*
%TO.N,VCC_3V3*%
X65786000Y-45593000D02*
X66548000Y-45593000D01*
X44224200Y-72568000D02*
X44116200Y-72460000D01*
X56642000Y-49786000D02*
X56644000Y-49784000D01*
X37137400Y-38026400D02*
X37137400Y-46126400D01*
X44113600Y-72568800D02*
X44114600Y-72567800D01*
X37137400Y-46126400D02*
X37137400Y-48689200D01*
X61403600Y-74974200D02*
X61417200Y-74960600D01*
X44121000Y-72574200D02*
X44114600Y-72567800D01*
X48861400Y-74174200D02*
X44119800Y-74174200D01*
X37099601Y-48726999D02*
X37109400Y-48717200D01*
X37084000Y-37394000D02*
X37902000Y-36576000D01*
X37136801Y-46126999D02*
X37137400Y-46126400D01*
X48861400Y-72574200D02*
X44121000Y-72574200D01*
X25908000Y-29972000D02*
X27686000Y-29972000D01*
X51084000Y-45821000D02*
X51364000Y-46101000D01*
X34264600Y-67030600D02*
X33782000Y-66548000D01*
X42926000Y-58545000D02*
X42926000Y-57150000D01*
X55505400Y-74174200D02*
X56305400Y-74974200D01*
X26162000Y-43632000D02*
X26670000Y-43124000D01*
X27686000Y-29972000D02*
X30988000Y-29972000D01*
X48861400Y-74174200D02*
X55505400Y-74174200D01*
X37846000Y-51181000D02*
X37109400Y-50444400D01*
X25349200Y-49456400D02*
X25473600Y-49456400D01*
X34526501Y-36671250D02*
X37806750Y-36671250D01*
X44114600Y-70352800D02*
X40792400Y-67030600D01*
X57404000Y-53467000D02*
X56642000Y-52705000D01*
X70302000Y-44704000D02*
X70302000Y-39775000D01*
X42928000Y-58543000D02*
X46228000Y-58543000D01*
X44113600Y-74168000D02*
X44113600Y-72568800D01*
X44113600Y-72462600D02*
X44116200Y-72460000D01*
X50012600Y-39065200D02*
X51084000Y-40136600D01*
X66611500Y-45529500D02*
X69786499Y-45529500D01*
X24609500Y-52041500D02*
X24609500Y-49886101D01*
X70302000Y-39775000D02*
X70478400Y-39598600D01*
X66548000Y-45593000D02*
X66611500Y-45529500D01*
X37084000Y-37973000D02*
X37137400Y-38026400D01*
X43307000Y-44323000D02*
X43688000Y-43942000D01*
X51084000Y-41300400D02*
X51084000Y-45821000D01*
X45612701Y-39065200D02*
X50012600Y-39065200D01*
X43688000Y-43942000D02*
X44633000Y-43942000D01*
X26162000Y-46126999D02*
X26162000Y-43632000D01*
X44119800Y-74174200D02*
X44113600Y-74168000D01*
X37137400Y-48689200D02*
X37109400Y-48717200D01*
X44584001Y-43893001D02*
X44633000Y-43942000D01*
X28412232Y-48726999D02*
X26203001Y-48726999D01*
X28412232Y-46126999D02*
X34163000Y-46126999D01*
X43307000Y-53086000D02*
X43307000Y-44323000D01*
X51084000Y-40136600D02*
X51084000Y-41300400D01*
X56305400Y-74974200D02*
X57361400Y-74974200D01*
X44114600Y-72567800D02*
X44114600Y-70352800D01*
X40792400Y-67030600D02*
X34264600Y-67030600D01*
X26726000Y-36576000D02*
X25146000Y-34996000D01*
X42926000Y-58545000D02*
X42928000Y-58543000D01*
X44584001Y-41300400D02*
X44584001Y-43893001D01*
X44584001Y-41300400D02*
X44584001Y-40093900D01*
X25473600Y-49456400D02*
X26203001Y-48726999D01*
X25146000Y-34996000D02*
X25146000Y-30734000D01*
X42926000Y-53467000D02*
X43307000Y-53086000D01*
X24609500Y-49886101D02*
X25039201Y-49456400D01*
X69786499Y-45529500D02*
X70302000Y-45013999D01*
X70302000Y-45013999D02*
X70302000Y-44704000D01*
X34163000Y-48726999D02*
X28412232Y-48726999D01*
X57361400Y-74974200D02*
X61403600Y-74974200D01*
X33782000Y-66548000D02*
X33782000Y-61214000D01*
X37806750Y-36671250D02*
X37902000Y-36576000D01*
X44584001Y-40093900D02*
X45612701Y-39065200D01*
X56642000Y-52705000D02*
X56642000Y-49786000D01*
X25146000Y-30734000D02*
X25908000Y-29972000D01*
X34163000Y-48726999D02*
X37099601Y-48726999D01*
X34163000Y-46126999D02*
X37136801Y-46126999D01*
X33782000Y-61214000D02*
X24609500Y-52041500D01*
X25039201Y-49456400D02*
X25349200Y-49456400D01*
X37084000Y-37973000D02*
X37084000Y-37394000D01*
X28412232Y-46126999D02*
X26162000Y-46126999D01*
X37109400Y-50444400D02*
X37109400Y-48717200D01*
D46*
%TO.N,Net-(U2-AREF)*%
X57361400Y-73374200D02*
X61390600Y-73374200D01*
X61390600Y-73374200D02*
X61417200Y-73400800D01*
D45*
%TO.N,MCU_XTAL1*%
X41859200Y-69392800D02*
X41198800Y-68732400D01*
X46934000Y-75748000D02*
X47707800Y-74974200D01*
X39776400Y-68732400D02*
X39116000Y-69392800D01*
X47707800Y-74974200D02*
X48861400Y-74974200D01*
X41198800Y-68732400D02*
X39776400Y-68732400D01*
X39116000Y-69392800D02*
X39116000Y-70637400D01*
X41859200Y-75641200D02*
X41859200Y-69392800D01*
X42136000Y-75918000D02*
X41859200Y-75641200D01*
X45364400Y-75748000D02*
X46934000Y-75748000D01*
X45364400Y-75918000D02*
X42136000Y-75918000D01*
%TO.N,MCU_XTAL2*%
X39116000Y-76962000D02*
X40160000Y-78006000D01*
X46482000Y-78006000D02*
X46629600Y-78006000D01*
X46629600Y-78006000D02*
X48861400Y-75774200D01*
X39116000Y-76962000D02*
X39116000Y-74904600D01*
X46482000Y-78006000D02*
X40160000Y-78006000D01*
D46*
%TO.N,MCU_RST*%
X75438000Y-68580000D02*
X75438000Y-65903694D01*
X54920000Y-64714000D02*
X54864000Y-64770000D01*
X52711400Y-65144600D02*
X52711400Y-68724200D01*
X75438000Y-65903694D02*
X74304306Y-64770000D01*
X74304306Y-64770000D02*
X70866000Y-64770000D01*
X63246000Y-64770000D02*
X54864000Y-64770000D01*
X54864000Y-64770000D02*
X53086000Y-64770000D01*
X54920000Y-62484000D02*
X54920000Y-64714000D01*
X53086000Y-64770000D02*
X52711400Y-65144600D01*
D45*
%TO.N,CODEC_XOP*%
X58978000Y-39996000D02*
X58978000Y-42699200D01*
X56187400Y-42700000D02*
X54762400Y-41275000D01*
X58978000Y-42699200D02*
X58978800Y-42700000D01*
X54762400Y-41275000D02*
X54737000Y-41300400D01*
X54737000Y-41300400D02*
X53033999Y-41300400D01*
X58978800Y-42700000D02*
X56187400Y-42700000D01*
%TO.N,CODEC_XIN*%
X54214001Y-32856000D02*
X53034001Y-34036000D01*
X58978000Y-35696000D02*
X58978000Y-32933000D01*
X58978000Y-32933000D02*
X59055000Y-32856000D01*
X59055000Y-32856000D02*
X54214001Y-32856000D01*
D46*
%TO.N,Net-(C22-Pad1)*%
X77470000Y-59283600D02*
X77470000Y-56921400D01*
X77457800Y-59271400D02*
X77470000Y-59283600D01*
X75019400Y-59271400D02*
X77457800Y-59271400D01*
%TO.N,Net-(D1-A)*%
X64566800Y-70942200D02*
X61368400Y-70942200D01*
D47*
%TO.N,EXTERNAL_IN_I2S_DIN*%
X52324000Y-26416000D02*
X51734001Y-27005999D01*
X51734001Y-27005999D02*
X51734001Y-34036000D01*
%TO.N,EXTERNAL_IN_I2S_BCLK*%
X28412232Y-48077001D02*
X23705446Y-48077001D01*
X32454345Y-31759600D02*
X32502400Y-31759600D01*
X47244000Y-23876000D02*
X49784000Y-26416000D01*
X30480000Y-36068000D02*
X30480000Y-33782000D01*
X32013600Y-32248400D02*
X32013600Y-32200345D01*
X23631600Y-55372000D02*
X23631600Y-42916400D01*
X23749000Y-42799000D02*
X24257000Y-42291000D01*
X32502400Y-31759600D02*
X32664400Y-31597600D01*
X32664400Y-31597600D02*
X32664400Y-24835600D01*
X26162000Y-57902400D02*
X23631600Y-55372000D01*
X33624000Y-23876000D02*
X47244000Y-23876000D01*
X24257000Y-42291000D02*
X30480000Y-36068000D01*
X51084000Y-27716000D02*
X51084000Y-34036000D01*
X32013600Y-32200345D02*
X32454345Y-31759600D01*
X23631600Y-42916400D02*
X24257000Y-42291000D01*
X49784000Y-26416000D02*
X51084000Y-27716000D01*
X30480000Y-33782000D02*
X32013600Y-32248400D01*
X26162000Y-59944000D02*
X26162000Y-57902400D01*
X32664400Y-24835600D02*
X33624000Y-23876000D01*
%TO.N,EXTERNAL_IN_I2S_LRCLK*%
X47244000Y-26416000D02*
X50434002Y-29606002D01*
X50434002Y-29606002D02*
X50434002Y-34036000D01*
%TO.N,EXTERNAL_IN_I2S_MCLK*%
X40894000Y-30226000D02*
X44704000Y-26416000D01*
X40894000Y-41148000D02*
X40894000Y-30226000D01*
D46*
%TO.N,Net-(J4-Pin_2)*%
X46437800Y-70974200D02*
X48861400Y-70974200D01*
X40284400Y-64820800D02*
X46437800Y-70974200D01*
%TO.N,Net-(J4-Pin_3)*%
X46806200Y-70174200D02*
X48861400Y-70174200D01*
X42824400Y-66192400D02*
X46806200Y-70174200D01*
X42824400Y-64820800D02*
X42824400Y-66192400D01*
%TO.N,Net-(J7-Pin_2)*%
X28327431Y-47511800D02*
X28412232Y-47426999D01*
X24892000Y-47244000D02*
X25074999Y-47426999D01*
X25074999Y-47426999D02*
X28412232Y-47426999D01*
X25146000Y-54356000D02*
X27432000Y-56642000D01*
X27432000Y-56642000D02*
X27432000Y-59944000D01*
%TO.N,Net-(J8-Pin_2)*%
X31496000Y-42926000D02*
X31496000Y-41656000D01*
X28412232Y-44827000D02*
X29595000Y-44827000D01*
X29595000Y-44827000D02*
X31496000Y-42926000D01*
%TO.N,Net-(J9-Pin_2)*%
X35390716Y-50026999D02*
X34163000Y-50026999D01*
X35479500Y-50115783D02*
X35390716Y-50026999D01*
X35479500Y-51642500D02*
X35479500Y-50115783D01*
X34417000Y-53975000D02*
X34417000Y-52705000D01*
X34417000Y-52705000D02*
X35479500Y-51642500D01*
D47*
%TO.N,CLKGEN_OUT_I2S_MCLK*%
X37644000Y-56106000D02*
X40894000Y-52856000D01*
X40894000Y-46228000D02*
X40894000Y-52856000D01*
X35278000Y-56106000D02*
X37644000Y-56106000D01*
X33147000Y-53975000D02*
X33147000Y-51693000D01*
X33147000Y-53975000D02*
X35278000Y-56106000D01*
X33147000Y-51693000D02*
X34163000Y-50677000D01*
D46*
%TO.N,Net-(J10-DETECTOR_1)*%
X73617400Y-27241000D02*
X76952000Y-30575600D01*
X76952000Y-47752000D02*
X76952000Y-30575600D01*
%TO.N,Net-(J10-RIGHT_CHANNEL)*%
X73617400Y-30641000D02*
X75682000Y-32705600D01*
X75682000Y-47752000D02*
X75682000Y-32705600D01*
%TO.N,Net-(J10-DETECTOR_2)*%
X74091999Y-36880999D02*
X69215000Y-32004000D01*
X69215000Y-32004000D02*
X69215000Y-29585200D01*
X74412000Y-47752000D02*
X74091999Y-48072001D01*
X74091999Y-48072001D02*
X74091999Y-36880999D01*
X69215000Y-29585200D02*
X66628400Y-26998600D01*
%TO.N,Net-(J10-VIN)*%
X73024000Y-52450000D02*
X69850000Y-49276000D01*
X69850000Y-49276000D02*
X69850000Y-46736000D01*
X76835000Y-53213000D02*
X73024000Y-53213000D01*
X69850000Y-46736000D02*
X71374000Y-45212000D01*
X71374000Y-40703000D02*
X72478400Y-39598600D01*
X71374000Y-45212000D02*
X71374000Y-40703000D01*
X77470000Y-55271400D02*
X77470000Y-53848000D01*
X73024000Y-53213000D02*
X73024000Y-52450000D01*
X77470000Y-53848000D02*
X76835000Y-53213000D01*
%TO.N,Net-(J11-Pin_2)*%
X53848500Y-31496000D02*
X56134000Y-31496000D01*
X52384000Y-34036000D02*
X52384000Y-32960500D01*
X52384000Y-32960500D02*
X53848500Y-31496000D01*
%TO.N,MCU_MISO*%
X57886600Y-80289400D02*
X69824600Y-80289400D01*
X69824600Y-80289400D02*
X76200000Y-73914000D01*
X55911400Y-78314200D02*
X55911400Y-77224200D01*
X57886600Y-80289400D02*
X55911400Y-78314200D01*
%TO.N,MCU_SCK*%
X77978000Y-72390000D02*
X77978000Y-75311000D01*
X76708000Y-71120000D02*
X77978000Y-72390000D01*
X57912000Y-77470000D02*
X57361400Y-76919400D01*
X77978000Y-75311000D02*
X75819000Y-77470000D01*
X75438000Y-71120000D02*
X76708000Y-71120000D01*
X57361400Y-76919400D02*
X57361400Y-75774200D01*
X63881000Y-77470000D02*
X57912000Y-77470000D01*
%TO.N,MCU_MOSI*%
X55118000Y-79044800D02*
X55118000Y-77230800D01*
X63906400Y-78892400D02*
X61722000Y-78892400D01*
X70104000Y-68580000D02*
X69850000Y-68580000D01*
X68351400Y-74447400D02*
X63906400Y-78892400D01*
X72898000Y-71374000D02*
X70104000Y-68580000D01*
X55118000Y-77230800D02*
X55111400Y-77224200D01*
D47*
%TO.N,CODEC_IN_I2S_MCLK*%
X42096400Y-42485600D02*
X40894000Y-43688000D01*
X49784000Y-32639605D02*
X46382995Y-29238600D01*
X42096400Y-32579600D02*
X42096400Y-42485600D01*
X49784000Y-34036000D02*
X49784000Y-32639605D01*
X45437400Y-29238600D02*
X42096400Y-32579600D01*
X46382995Y-29238600D02*
X45437400Y-29238600D01*
D46*
%TO.N,MCU_SDA1*%
X48484000Y-57307000D02*
X48484000Y-55753000D01*
X48484000Y-55753000D02*
X48484000Y-41300400D01*
X54311400Y-66592600D02*
X54311400Y-68724200D01*
X44958000Y-60833000D02*
X35814000Y-60833000D01*
X55118000Y-65786000D02*
X54311400Y-66592600D01*
X27051000Y-50089803D02*
X27113804Y-50026999D01*
X46228000Y-59563000D02*
X44958000Y-60833000D01*
X50800000Y-56388000D02*
X49149000Y-56388000D01*
X48514000Y-55753000D02*
X48484000Y-55753000D01*
X27051000Y-52070000D02*
X27051000Y-50089803D01*
X46228000Y-59563000D02*
X48484000Y-57307000D01*
X35814000Y-60833000D02*
X27051000Y-52070000D01*
X27113804Y-50026999D02*
X28412232Y-50026999D01*
X49149000Y-56388000D02*
X48514000Y-55753000D01*
%TO.N,MCU_LED*%
X57361400Y-70974200D02*
X60316400Y-70974200D01*
X60316400Y-70974200D02*
X60348400Y-70942200D01*
%TO.N,MCU_SCL1*%
X53511400Y-65855226D02*
X53511400Y-68724200D01*
X42928000Y-59563000D02*
X42926000Y-59565000D01*
X38354000Y-59563000D02*
X42924000Y-59563000D01*
X28412232Y-52161232D02*
X35814000Y-59563000D01*
X53480264Y-65824090D02*
X53511400Y-65855226D01*
X28412232Y-50677000D02*
X28412232Y-52161232D01*
X42926000Y-59565000D02*
X42924000Y-59563000D01*
X44704000Y-59563000D02*
X42928000Y-59563000D01*
X46534002Y-41300400D02*
X46534002Y-42375900D01*
X44323000Y-53594000D02*
X38354000Y-59563000D01*
X46534002Y-42375900D02*
X46318000Y-42591902D01*
X46318000Y-44188490D02*
X44323000Y-46183490D01*
X46318000Y-42591902D02*
X46318000Y-44188490D01*
X44323000Y-46183490D02*
X44323000Y-53594000D01*
X35814000Y-59563000D02*
X38354000Y-59563000D01*
%TO.N,MCU_TXD0*%
X51111400Y-61664600D02*
X51111400Y-68724200D01*
X52578000Y-60198000D02*
X51111400Y-61664600D01*
X54860000Y-60198000D02*
X52578000Y-60198000D01*
%TO.N,MCU_RXD0*%
X51911400Y-62261600D02*
X51911400Y-68724200D01*
X51943000Y-62230000D02*
X51911400Y-62261600D01*
X51816000Y-59182000D02*
X53086000Y-57912000D01*
X53086000Y-57912000D02*
X54860000Y-57912000D01*
%TO.N,CODEC_GPO0*%
X46228000Y-49401000D02*
X46228000Y-47244000D01*
X46228000Y-47244000D02*
X47184000Y-46288000D01*
X47184000Y-46288000D02*
X47184000Y-41300400D01*
D45*
%TO.N,CODEC_GPO7*%
X49401000Y-55245000D02*
X56261000Y-55245000D01*
X49133999Y-41300400D02*
X49133999Y-54977999D01*
X49133999Y-54977999D02*
X49401000Y-55245000D01*
X56261000Y-55245000D02*
X59484800Y-55245000D01*
%TO.N,Net-(U4-CSB{slash}GPO2)*%
X50544000Y-54356000D02*
X49784000Y-53596000D01*
X49784000Y-53596000D02*
X49784000Y-41300400D01*
D46*
%TO.N,CODEC_RESETB*%
X55624000Y-49784000D02*
X52451000Y-49784000D01*
X50433999Y-47766999D02*
X50433999Y-41300400D01*
X52451000Y-49784000D02*
X52451000Y-49388001D01*
X52451000Y-49784000D02*
X50433999Y-47766999D01*
D47*
%TO.N,CODEC_OUT_SPDIF_AUDIO_DATA*%
X67818000Y-46736000D02*
X68834000Y-47752000D01*
D45*
X73482200Y-55500000D02*
X72010000Y-55500000D01*
X72010000Y-55500000D02*
X71374000Y-54864000D01*
D47*
X58369200Y-46736000D02*
X67818000Y-46736000D01*
X49134002Y-35166300D02*
X53718702Y-39751000D01*
X53718702Y-39751000D02*
X55626000Y-39751000D01*
X49134002Y-34036000D02*
X49134002Y-35166300D01*
D45*
X71374000Y-54864000D02*
X71374000Y-53213000D01*
D47*
X68834000Y-47752000D02*
X68834000Y-50673000D01*
X55626000Y-43992800D02*
X58369200Y-46736000D01*
X68834000Y-50673000D02*
X71374000Y-53213000D01*
D46*
%TO.N,Net-(U2-ADC6)*%
X64560600Y-74174200D02*
X64617600Y-74117200D01*
X57361400Y-74174200D02*
X64560600Y-74174200D01*
%TO.N,MCU_INT0*%
X48034000Y-42450900D02*
X47834002Y-42250902D01*
X48034000Y-55981347D02*
X48034000Y-42450900D01*
X49022000Y-58674000D02*
X49022000Y-67434800D01*
X49022000Y-67434800D02*
X50311400Y-68724200D01*
X47759000Y-56256347D02*
X48034000Y-55981347D01*
X47834002Y-42250902D02*
X47834002Y-41300400D01*
%TO.N,CODEC_CLKOUT*%
X56134000Y-46113000D02*
X52384000Y-42363000D01*
X52384000Y-42363000D02*
X52384000Y-41300400D01*
X56134000Y-47498000D02*
X56134000Y-46113000D01*
%TO.N,Net-(C23-Pad2)*%
X73469400Y-57162800D02*
X73482200Y-57150000D01*
X73469400Y-59271400D02*
X73469400Y-57162800D01*
X73469400Y-61253200D02*
X73431400Y-61291200D01*
X73469400Y-59271400D02*
X73469400Y-61253200D01*
%TO.N,Net-(J5-Pin_6)*%
X55880000Y-62484000D02*
X66040000Y-62484000D01*
X66040000Y-62484000D02*
X66548000Y-61976000D01*
%TO.N,Net-(J8-Pin_3)*%
X26924000Y-45176867D02*
X26924000Y-44250894D01*
X28412232Y-45477001D02*
X27224134Y-45477001D01*
X26924000Y-44250894D02*
X29518894Y-41656000D01*
X27224134Y-45477001D02*
X26924000Y-45176867D01*
X29518894Y-41656000D02*
X30226000Y-41656000D01*
%TO.N,Net-(J5-Pin_4)*%
X65532000Y-57912000D02*
X66548000Y-56896000D01*
X55880000Y-57912000D02*
X65532000Y-57912000D01*
%TO.N,Net-(J5-Pin_5)*%
X65786000Y-60198000D02*
X66548000Y-59436000D01*
X55880000Y-60198000D02*
X65786000Y-60198000D01*
%TO.N,Net-(J12-Pin_4)*%
X49549400Y-79756000D02*
X39878000Y-79756000D01*
X39878000Y-79756000D02*
X36322000Y-76200000D01*
X36322000Y-76200000D02*
X36322000Y-70612000D01*
X36322000Y-70612000D02*
X30480000Y-64770000D01*
X50311400Y-77224200D02*
X50311400Y-78994000D01*
X50311400Y-78994000D02*
X49549400Y-79756000D01*
%TO.N,Net-(J12-Pin_3)*%
X35560000Y-76454000D02*
X35560000Y-72390000D01*
X50153400Y-80206000D02*
X39312000Y-80206000D01*
X51111400Y-77224200D02*
X51111400Y-79248000D01*
X51111400Y-79248000D02*
X50153400Y-80206000D01*
X35560000Y-72390000D02*
X30480000Y-67310000D01*
X39312000Y-80206000D02*
X35560000Y-76454000D01*
%TO.N,Net-(J12-Pin_2)*%
X50438200Y-80721200D02*
X51911400Y-79248000D01*
X39065200Y-80721200D02*
X50438200Y-80721200D01*
X30480000Y-69850000D02*
X34798000Y-74168000D01*
X34798000Y-74168000D02*
X34798000Y-76454000D01*
X51911400Y-79248000D02*
X51911400Y-77224200D01*
X34798000Y-76454000D02*
X39065200Y-80721200D01*
%TO.N,Net-(J10-LEFT_CHANNEL)*%
X73641999Y-38843999D02*
X71296600Y-36498600D01*
X73641999Y-47252001D02*
X73641999Y-38843999D01*
X73142000Y-47752000D02*
X73641999Y-47252001D01*
X71296600Y-36498600D02*
X67628400Y-36498600D01*
%TO.N,Net-(J10-GND_2)*%
X72390000Y-45720000D02*
X71872000Y-46238000D01*
X68834000Y-43180000D02*
X68478400Y-42824400D01*
X72390000Y-43180000D02*
X72390000Y-45720000D01*
X68478400Y-42824400D02*
X68478400Y-39598600D01*
X71872000Y-46238000D02*
X71872000Y-47752000D01*
%TD*%
M02*
