%TF.GenerationSoftware,KiCad,Pcbnew,7.0.11-1-dev-0f715223e9*%
%TF.CreationDate,2024-01-18T09:46:45-08:00*%
%TF.ProjectId,i2s_to_toslink_pcb,6932735f-746f-45f7-946f-736c696e6b5f,rev?*%
%TF.SameCoordinates,Original*%
%TF.FileFunction,Copper,L2,Bot*%
%TF.FilePolarity,Positive*%
%FSLAX46Y46*%
G04 Gerber Fmt 4.6, Leading zero omitted, Abs format (unit mm)*
G04 Created by KiCad (PCBNEW 7.0.11-1-dev-0f715223e9) date 2024-01-18 09:46:45*
%MOMM*%
%LPD*%
G01*
G04 APERTURE LIST*
%TA.AperFunction,ConnectorPad*%
%ADD10C,3.500000*%
%TD*%
%TA.AperFunction,ComponentPad*%
%ADD11C,2.600000*%
%TD*%
%TA.AperFunction,ComponentPad*%
%ADD12R,1.700000X1.700000*%
%TD*%
%TA.AperFunction,ComponentPad*%
%ADD13O,1.700000X1.700000*%
%TD*%
%TA.AperFunction,ComponentPad*%
%ADD14R,1.000000X1.000000*%
%TD*%
%TA.AperFunction,ComponentPad*%
%ADD15O,1.000000X1.000000*%
%TD*%
%TA.AperFunction,ComponentPad*%
%ADD16R,2.550000X2.550000*%
%TD*%
%TA.AperFunction,ComponentPad*%
%ADD17C,2.550000*%
%TD*%
%TA.AperFunction,ComponentPad*%
%ADD18C,1.462000*%
%TD*%
%TA.AperFunction,ViaPad*%
%ADD19C,0.800000*%
%TD*%
%TA.AperFunction,ViaPad*%
%ADD20C,1.270000*%
%TD*%
%TA.AperFunction,Conductor*%
%ADD21C,0.381000*%
%TD*%
%TA.AperFunction,Conductor*%
%ADD22C,0.250000*%
%TD*%
%TA.AperFunction,Conductor*%
%ADD23C,0.304800*%
%TD*%
G04 APERTURE END LIST*
D10*
%TO.P,H1,1*%
%TO.N,N/C*%
X24130000Y-23622000D03*
D11*
X24130000Y-23622000D03*
%TD*%
D12*
%TO.P,J3,1,Pin_1*%
%TO.N,GND*%
X27686000Y-32512000D03*
D13*
%TO.P,J3,2,Pin_2*%
%TO.N,VCC_3V3*%
X27686000Y-29972000D03*
%TO.P,J3,3,Pin_3*%
%TO.N,VIN_5V*%
X27686000Y-27432000D03*
%TD*%
D14*
%TO.P,J17,1,Pin_1*%
%TO.N,CODEC_CLKOUT*%
X56134000Y-47498000D03*
%TD*%
D12*
%TO.P,J2,1,Pin_1*%
%TO.N,GND*%
X54864000Y-26416000D03*
D13*
%TO.P,J2,2,Pin_2*%
%TO.N,EXTERNAL_IN_I2S_DIN*%
X52324000Y-26416000D03*
%TO.P,J2,3,Pin_3*%
%TO.N,EXTERNAL_IN_I2S_BCLK*%
X49784000Y-26416000D03*
%TO.P,J2,4,Pin_4*%
%TO.N,EXTERNAL_IN_I2S_LRCLK*%
X47244000Y-26416000D03*
%TO.P,J2,5,Pin_5*%
%TO.N,EXTERNAL_IN_I2S_MCLK*%
X44704000Y-26416000D03*
%TD*%
D14*
%TO.P,J15,1,Pin_1*%
%TO.N,CODEC_GPO7*%
X56261000Y-55245000D03*
%TD*%
D12*
%TO.P,J12,1,Pin_1*%
%TO.N,GND*%
X30480000Y-72390000D03*
D13*
%TO.P,J12,2,Pin_2*%
%TO.N,Net-(J12-Pin_2)*%
X30480000Y-69850000D03*
%TO.P,J12,3,Pin_3*%
%TO.N,Net-(J12-Pin_3)*%
X30480000Y-67310000D03*
%TO.P,J12,4,Pin_4*%
%TO.N,Net-(J12-Pin_4)*%
X30480000Y-64770000D03*
%TD*%
D14*
%TO.P,J9,1,Pin_1*%
%TO.N,GND*%
X35687000Y-53975000D03*
D15*
%TO.P,J9,2,Pin_2*%
%TO.N,Net-(J9-Pin_2)*%
X34417000Y-53975000D03*
%TO.P,J9,3,Pin_3*%
%TO.N,CLKGEN_OUT_I2S_MCLK*%
X33147000Y-53975000D03*
%TD*%
D14*
%TO.P,J7,1,Pin_1*%
%TO.N,GND*%
X28702000Y-59944000D03*
D15*
%TO.P,J7,2,Pin_2*%
%TO.N,Net-(J7-Pin_2)*%
X27432000Y-59944000D03*
%TO.P,J7,3,Pin_3*%
%TO.N,EXTERNAL_IN_I2S_BCLK*%
X26162000Y-59944000D03*
%TD*%
D14*
%TO.P,J14,1,Pin_1*%
%TO.N,CODEC_GPO0*%
X46228000Y-47244000D03*
%TD*%
D12*
%TO.P,J5,1,Pin_1*%
%TO.N,GND*%
X65200000Y-49250000D03*
D13*
%TO.P,J5,2,Pin_2*%
X65200000Y-51790000D03*
%TO.P,J5,3,Pin_3*%
%TO.N,VIN_5V*%
X65200000Y-54330000D03*
%TO.P,J5,4,Pin_4*%
%TO.N,Net-(J5-Pin_4)*%
X65200000Y-56870000D03*
%TO.P,J5,5,Pin_5*%
%TO.N,Net-(J5-Pin_5)*%
X65200000Y-59410000D03*
%TO.P,J5,6,Pin_6*%
%TO.N,Net-(J5-Pin_6)*%
X65200000Y-61950000D03*
%TD*%
D10*
%TO.P,H3,1*%
%TO.N,N/C*%
X24130000Y-77978000D03*
D11*
X24130000Y-77978000D03*
%TD*%
D16*
%TO.P,J10,1,DETECTOR_1*%
%TO.N,Net-(J10-DETECTOR_1)*%
X73678400Y-27198600D03*
D17*
%TO.P,J10,2,LEFT_CHANNEL*%
%TO.N,Net-(J10-LEFT_CHANNEL)*%
X67628400Y-36498600D03*
%TO.P,J10,3,RIGHT_CHANNEL*%
%TO.N,Net-(J10-RIGHT_CHANNEL)*%
X73678400Y-30598600D03*
%TO.P,J10,4,GND_1*%
%TO.N,GND*%
X67078400Y-30498600D03*
%TO.P,J10,5,DETECTOR_2*%
%TO.N,Net-(J10-DETECTOR_2)*%
X66628400Y-26998600D03*
D18*
%TO.P,J10,6,GND_2*%
%TO.N,Net-(J10-GND_2)*%
X68478400Y-39598600D03*
%TO.P,J10,7,VCC*%
%TO.N,VCC_3V3*%
X70478400Y-39598600D03*
%TO.P,J10,8,VIN*%
%TO.N,Net-(J10-VIN)*%
X72478400Y-39598600D03*
%TD*%
D14*
%TO.P,J13,1,Pin_1*%
%TO.N,Net-(J10-GND_2)*%
X71872000Y-47752000D03*
D15*
%TO.P,J13,2,Pin_2*%
%TO.N,Net-(J10-LEFT_CHANNEL)*%
X73142000Y-47752000D03*
%TO.P,J13,3,Pin_3*%
%TO.N,Net-(J10-DETECTOR_2)*%
X74412000Y-47752000D03*
%TO.P,J13,4,Pin_4*%
%TO.N,Net-(J10-RIGHT_CHANNEL)*%
X75682000Y-47752000D03*
%TO.P,J13,5,Pin_5*%
%TO.N,Net-(J10-DETECTOR_1)*%
X76952000Y-47752000D03*
%TD*%
D14*
%TO.P,J11,1,Pin_1*%
%TO.N,GND*%
X56134000Y-30226000D03*
D15*
%TO.P,J11,2,Pin_2*%
%TO.N,Net-(J11-Pin_2)*%
X56134000Y-31496000D03*
%TD*%
D12*
%TO.P,J6,1,MISO*%
%TO.N,MCU_MISO*%
X74140000Y-73660000D03*
D13*
%TO.P,J6,2,VCC*%
%TO.N,VIN_5V*%
X71600000Y-73660000D03*
%TO.P,J6,3,SCK*%
%TO.N,MCU_SCK*%
X74140000Y-71120000D03*
%TO.P,J6,4,MOSI*%
%TO.N,MCU_MOSI*%
X71600000Y-71120000D03*
%TO.P,J6,5,~{RST}*%
%TO.N,MCU_RST*%
X74140000Y-68580000D03*
%TO.P,J6,6,GND*%
%TO.N,GND*%
X71600000Y-68580000D03*
%TD*%
D12*
%TO.P,J1,1,Pin_1*%
%TO.N,GND*%
X38862000Y-26416000D03*
D13*
%TO.P,J1,2,Pin_2*%
%TO.N,VIN_5V*%
X36322000Y-26416000D03*
%TD*%
D12*
%TO.P,JP1,1,A*%
%TO.N,CLKGEN_OUT_I2S_MCLK*%
X40894000Y-46228000D03*
D13*
%TO.P,JP1,2,C*%
%TO.N,CODEC_IN_I2S_MCLK*%
X40894000Y-43688000D03*
%TO.P,JP1,3,B*%
%TO.N,EXTERNAL_IN_I2S_MCLK*%
X40894000Y-41148000D03*
%TD*%
D14*
%TO.P,J8,1,Pin_1*%
%TO.N,GND*%
X32766000Y-41656000D03*
D15*
%TO.P,J8,2,Pin_2*%
%TO.N,Net-(J8-Pin_2)*%
X31496000Y-41656000D03*
%TO.P,J8,3,Pin_3*%
%TO.N,Net-(J8-Pin_3)*%
X30226000Y-41656000D03*
%TD*%
D14*
%TO.P,J16,1,Pin_1*%
%TO.N,CODEC_RESETB*%
X52578000Y-49276000D03*
%TD*%
D10*
%TO.P,H2,1*%
%TO.N,N/C*%
X79248000Y-23876000D03*
D11*
X79248000Y-23876000D03*
%TD*%
D10*
%TO.P,H4,1*%
%TO.N,N/C*%
X79248000Y-77978000D03*
D11*
X79248000Y-77978000D03*
%TD*%
D12*
%TO.P,J4,1,Pin_1*%
%TO.N,GND*%
X37719000Y-63500000D03*
D13*
%TO.P,J4,2,Pin_2*%
%TO.N,Net-(J4-Pin_2)*%
X40259000Y-63500000D03*
%TO.P,J4,3,Pin_3*%
%TO.N,Net-(J4-Pin_3)*%
X42799000Y-63500000D03*
%TD*%
D19*
%TO.N,VCC_3V3*%
X43000000Y-69200000D03*
%TO.N,Net-(J7-Pin_2)*%
X24972996Y-47274601D03*
%TO.N,GND*%
X35131587Y-29742939D03*
X25400000Y-51460400D03*
X66471800Y-73126600D03*
X61468000Y-32893000D03*
X45948600Y-73364700D03*
X35890200Y-47218600D03*
X47244000Y-49276000D03*
X67400000Y-44799998D03*
X69596000Y-62865000D03*
X36286078Y-30897431D03*
X59893200Y-76581000D03*
X48006000Y-78994000D03*
X59385200Y-72593200D03*
X25762937Y-46651999D03*
X40107249Y-33166370D03*
X52832000Y-54356000D03*
X42926000Y-76708000D03*
X59004200Y-45034200D03*
X40857824Y-35469176D03*
X39624000Y-48768000D03*
X26600000Y-40640002D03*
X45600000Y-45000018D03*
X52324000Y-44196000D03*
X62484000Y-55245000D03*
X38100000Y-44881800D03*
X45974000Y-71783700D03*
X76200000Y-62484000D03*
D20*
X45974000Y-31000000D03*
D19*
X43027600Y-70891400D03*
%TO.N,VIN_5V*%
X30988000Y-27432000D03*
D20*
X62258500Y-44831000D03*
D19*
%TO.N,VCC_3V3*%
X43200000Y-54737000D03*
X56642000Y-51308000D03*
X43217010Y-51308000D03*
X38326999Y-51307999D03*
X37800000Y-37973008D03*
%TO.N,MCU_RST*%
X63246000Y-64770000D03*
%TO.N,MCU_SCK*%
X70799996Y-77470000D03*
%TO.N,MCU_MOSI*%
X55118000Y-79044800D03*
%TO.N,MCU_SDA1*%
X50800000Y-56388000D03*
X55118000Y-65786000D03*
%TO.N,MCU_SCL1*%
X53480264Y-65824090D03*
X44600000Y-57400006D03*
%TO.N,MCU_RXD0*%
X51943000Y-62230000D03*
X51816000Y-59182000D03*
%TO.N,CODEC_OUT_SPDIF_AUDIO_DATA*%
X54400000Y-41854818D03*
X55626000Y-43992800D03*
%TO.N,MCU_INT0*%
X47498000Y-53086000D03*
X49022000Y-58674000D03*
%TD*%
D21*
%TO.N,VCC_3V3*%
X43000000Y-69200000D02*
X45200000Y-67000000D01*
X42000000Y-58400000D02*
X42000000Y-55800000D01*
X45200000Y-67000000D02*
X45200000Y-61600000D01*
X45200000Y-61600000D02*
X42000000Y-58400000D01*
X42000000Y-55800000D02*
X43063000Y-54737000D01*
X43063000Y-54737000D02*
X43200000Y-54737000D01*
D22*
%TO.N,MCU_SCL1*%
X53480264Y-65824090D02*
X45056180Y-57400006D01*
X45056180Y-57400006D02*
X44600000Y-57400006D01*
%TO.N,Net-(J7-Pin_2)*%
X27432000Y-59944000D02*
X27432000Y-49733605D01*
X27432000Y-49733605D02*
X24972996Y-47274601D01*
D21*
%TO.N,VIN_5V*%
X36322000Y-26416000D02*
X32004000Y-26416000D01*
X32004000Y-26416000D02*
X30988000Y-27432000D01*
X65200000Y-54330000D02*
X62258500Y-51388500D01*
X62258500Y-51388500D02*
X62258500Y-44831000D01*
D23*
%TO.N,CODEC_OUT_SPDIF_AUDIO_DATA*%
X55626000Y-43992800D02*
X55626000Y-43080818D01*
X55626000Y-43080818D02*
X54400000Y-41854818D01*
D21*
%TO.N,VCC_3V3*%
X43217010Y-51308000D02*
X38327000Y-51308000D01*
X38327000Y-51308000D02*
X38326999Y-51307999D01*
X70478400Y-39598600D02*
X68277000Y-41800000D01*
X68277000Y-41800000D02*
X56600000Y-41800000D01*
X56600000Y-41800000D02*
X52773008Y-37973008D01*
X52773008Y-37973008D02*
X37800000Y-37973008D01*
D22*
%TO.N,MCU_SCK*%
X70799996Y-77470000D02*
X72965000Y-75304996D01*
X72965000Y-72295000D02*
X74140000Y-71120000D01*
X72965000Y-75304996D02*
X72965000Y-72295000D01*
D21*
%TO.N,VCC_3V3*%
X43217010Y-51308000D02*
X43200000Y-51325010D01*
X43200000Y-51325010D02*
X43200000Y-54737000D01*
X56642000Y-51308000D02*
X43217010Y-51308000D01*
X34957000Y-37243000D02*
X27686000Y-29972000D01*
X37800000Y-37973008D02*
X35687008Y-37973008D01*
X35687008Y-37973008D02*
X34957000Y-37243000D01*
D22*
%TO.N,Net-(J10-GND_2)*%
X71872000Y-47752000D02*
X71872000Y-44528000D01*
X75000000Y-41400000D02*
X75000000Y-39000000D01*
X71872000Y-44528000D02*
X75000000Y-41400000D01*
X75000000Y-39000000D02*
X73200000Y-37200000D01*
X73200000Y-37200000D02*
X70877000Y-37200000D01*
X70877000Y-37200000D02*
X68478400Y-39598600D01*
%TO.N,MCU_MOSI*%
X55118000Y-79044800D02*
X55162800Y-79000000D01*
X55162800Y-79000000D02*
X63720000Y-79000000D01*
X63720000Y-79000000D02*
X71600000Y-71120000D01*
%TO.N,MCU_RST*%
X74140000Y-68580000D02*
X70330000Y-64770000D01*
X70330000Y-64770000D02*
X63246000Y-64770000D01*
D21*
%TO.N,VIN_5V*%
X62103000Y-44986500D02*
X62258500Y-44831000D01*
D22*
%TO.N,MCU_MOSI*%
X55118000Y-79044800D02*
X55270400Y-78892400D01*
%TO.N,MCU_SDA1*%
X50800000Y-56388000D02*
X53594000Y-59182000D01*
X53594000Y-64262000D02*
X55118000Y-65786000D01*
X53594000Y-59182000D02*
X53594000Y-64262000D01*
%TO.N,MCU_RXD0*%
X51943000Y-59309000D02*
X51816000Y-59182000D01*
X51943000Y-62230000D02*
X51943000Y-59309000D01*
%TO.N,MCU_INT0*%
X47498000Y-53086000D02*
X49022000Y-54610000D01*
X49022000Y-54610000D02*
X49022000Y-58674000D01*
%TD*%
%TA.AperFunction,Conductor*%
%TO.N,GND*%
G36*
X65450000Y-51354498D02*
G01*
X65342315Y-51305320D01*
X65235763Y-51290000D01*
X65164237Y-51290000D01*
X65057685Y-51305320D01*
X64950000Y-51354498D01*
X64950000Y-49685501D01*
X65057685Y-49734680D01*
X65164237Y-49750000D01*
X65235763Y-49750000D01*
X65342315Y-49734680D01*
X65450000Y-49685501D01*
X65450000Y-51354498D01*
G37*
%TD.AperFunction*%
%TA.AperFunction,Conductor*%
G36*
X82238539Y-20340185D02*
G01*
X82284294Y-20392989D01*
X82295500Y-20444500D01*
X82295500Y-81917500D01*
X82275815Y-81984539D01*
X82223011Y-82030294D01*
X82171500Y-82041500D01*
X20952500Y-82041500D01*
X20885461Y-82021815D01*
X20839706Y-81969011D01*
X20828500Y-81917500D01*
X20828500Y-77978007D01*
X21874671Y-77978007D01*
X21893964Y-78272363D01*
X21893965Y-78272373D01*
X21893966Y-78272380D01*
X21907054Y-78338181D01*
X21951518Y-78561716D01*
X21951521Y-78561730D01*
X22046349Y-78841080D01*
X22176825Y-79105660D01*
X22176829Y-79105667D01*
X22340725Y-79350955D01*
X22535241Y-79572758D01*
X22757044Y-79767274D01*
X22964576Y-79905942D01*
X23002335Y-79931172D01*
X23266923Y-80061652D01*
X23546278Y-80156481D01*
X23835620Y-80214034D01*
X23863888Y-80215886D01*
X24129993Y-80233329D01*
X24130000Y-80233329D01*
X24130007Y-80233329D01*
X24365675Y-80217881D01*
X24424380Y-80214034D01*
X24713722Y-80156481D01*
X24993077Y-80061652D01*
X25257665Y-79931172D01*
X25502957Y-79767273D01*
X25724758Y-79572758D01*
X25919273Y-79350957D01*
X26083172Y-79105665D01*
X26113187Y-79044800D01*
X54212540Y-79044800D01*
X54232326Y-79233056D01*
X54232327Y-79233059D01*
X54290818Y-79413077D01*
X54290821Y-79413084D01*
X54385467Y-79577016D01*
X54512129Y-79717688D01*
X54665265Y-79828948D01*
X54665270Y-79828951D01*
X54838192Y-79905942D01*
X54838197Y-79905944D01*
X55023354Y-79945300D01*
X55023355Y-79945300D01*
X55212644Y-79945300D01*
X55212646Y-79945300D01*
X55397803Y-79905944D01*
X55570730Y-79828951D01*
X55723864Y-79717692D01*
X55723866Y-79717692D01*
X55723866Y-79717690D01*
X55723871Y-79717688D01*
X55769937Y-79666525D01*
X55829423Y-79629879D01*
X55862086Y-79625500D01*
X63637257Y-79625500D01*
X63652877Y-79627224D01*
X63652904Y-79626939D01*
X63660660Y-79627671D01*
X63660667Y-79627673D01*
X63727873Y-79625561D01*
X63731768Y-79625500D01*
X63759346Y-79625500D01*
X63759350Y-79625500D01*
X63763324Y-79624997D01*
X63774963Y-79624080D01*
X63818627Y-79622709D01*
X63837869Y-79617117D01*
X63856912Y-79613174D01*
X63876792Y-79610664D01*
X63917401Y-79594585D01*
X63928444Y-79590803D01*
X63970390Y-79578618D01*
X63987629Y-79568422D01*
X64005103Y-79559862D01*
X64023727Y-79552488D01*
X64023727Y-79552487D01*
X64023732Y-79552486D01*
X64059083Y-79526800D01*
X64068814Y-79520408D01*
X64106420Y-79498170D01*
X64120589Y-79483999D01*
X64135379Y-79471368D01*
X64151587Y-79459594D01*
X64179438Y-79425926D01*
X64187279Y-79417309D01*
X70032662Y-73571927D01*
X70093983Y-73538444D01*
X70163675Y-73543428D01*
X70219608Y-73585300D01*
X70244025Y-73650764D01*
X70244341Y-73659610D01*
X70244341Y-73660000D01*
X70264936Y-73895403D01*
X70264938Y-73895413D01*
X70326094Y-74123655D01*
X70326096Y-74123659D01*
X70326097Y-74123663D01*
X70425965Y-74337830D01*
X70425967Y-74337834D01*
X70534281Y-74492521D01*
X70561505Y-74531401D01*
X70728599Y-74698495D01*
X70825384Y-74766265D01*
X70922165Y-74834032D01*
X70922167Y-74834033D01*
X70922170Y-74834035D01*
X71136337Y-74933903D01*
X71364592Y-74995063D01*
X71552918Y-75011539D01*
X71599999Y-75015659D01*
X71600000Y-75015659D01*
X71600001Y-75015659D01*
X71639234Y-75012226D01*
X71835408Y-74995063D01*
X72063663Y-74933903D01*
X72153022Y-74892233D01*
X72222098Y-74881742D01*
X72285882Y-74910261D01*
X72324122Y-74968738D01*
X72324677Y-75038605D01*
X72293107Y-75092297D01*
X70852224Y-76533181D01*
X70790901Y-76566666D01*
X70764543Y-76569500D01*
X70705350Y-76569500D01*
X70672893Y-76576398D01*
X70520193Y-76608855D01*
X70520188Y-76608857D01*
X70347266Y-76685848D01*
X70347261Y-76685851D01*
X70194125Y-76797111D01*
X70067462Y-76937785D01*
X69972817Y-77101715D01*
X69972814Y-77101722D01*
X69914323Y-77281740D01*
X69914322Y-77281744D01*
X69894536Y-77470000D01*
X69914322Y-77658256D01*
X69914323Y-77658259D01*
X69972814Y-77838277D01*
X69972817Y-77838284D01*
X70067463Y-78002216D01*
X70194125Y-78142888D01*
X70347261Y-78254148D01*
X70347266Y-78254151D01*
X70520188Y-78331142D01*
X70520193Y-78331144D01*
X70705350Y-78370500D01*
X70705351Y-78370500D01*
X70894640Y-78370500D01*
X70894642Y-78370500D01*
X71079799Y-78331144D01*
X71252726Y-78254151D01*
X71405867Y-78142888D01*
X71532529Y-78002216D01*
X71546506Y-77978007D01*
X76992671Y-77978007D01*
X77011964Y-78272363D01*
X77011965Y-78272373D01*
X77011966Y-78272380D01*
X77025054Y-78338181D01*
X77069518Y-78561716D01*
X77069521Y-78561730D01*
X77164349Y-78841080D01*
X77294825Y-79105660D01*
X77294829Y-79105667D01*
X77458725Y-79350955D01*
X77653241Y-79572758D01*
X77875044Y-79767274D01*
X78082576Y-79905942D01*
X78120335Y-79931172D01*
X78384923Y-80061652D01*
X78664278Y-80156481D01*
X78953620Y-80214034D01*
X78981888Y-80215886D01*
X79247993Y-80233329D01*
X79248000Y-80233329D01*
X79248007Y-80233329D01*
X79483675Y-80217881D01*
X79542380Y-80214034D01*
X79831722Y-80156481D01*
X80111077Y-80061652D01*
X80375665Y-79931172D01*
X80620957Y-79767273D01*
X80842758Y-79572758D01*
X81037273Y-79350957D01*
X81201172Y-79105665D01*
X81331652Y-78841077D01*
X81426481Y-78561722D01*
X81484034Y-78272380D01*
X81492429Y-78144300D01*
X81503329Y-77978007D01*
X81503329Y-77977992D01*
X81484035Y-77683636D01*
X81484034Y-77683620D01*
X81426481Y-77394278D01*
X81331652Y-77114923D01*
X81201172Y-76850336D01*
X81037273Y-76605043D01*
X80994655Y-76556447D01*
X80842758Y-76383241D01*
X80620955Y-76188725D01*
X80375667Y-76024829D01*
X80375660Y-76024825D01*
X80111080Y-75894349D01*
X79831730Y-75799521D01*
X79831724Y-75799519D01*
X79831722Y-75799519D01*
X79542380Y-75741966D01*
X79542373Y-75741965D01*
X79542363Y-75741964D01*
X79248007Y-75722671D01*
X79247993Y-75722671D01*
X78953636Y-75741964D01*
X78953624Y-75741965D01*
X78953620Y-75741966D01*
X78953612Y-75741967D01*
X78953609Y-75741968D01*
X78664283Y-75799518D01*
X78664269Y-75799521D01*
X78384919Y-75894349D01*
X78120334Y-76024828D01*
X77875041Y-76188728D01*
X77653241Y-76383241D01*
X77458728Y-76605041D01*
X77294828Y-76850334D01*
X77164349Y-77114919D01*
X77069521Y-77394269D01*
X77069518Y-77394283D01*
X77011968Y-77683609D01*
X77011964Y-77683636D01*
X76992671Y-77977992D01*
X76992671Y-77978007D01*
X71546506Y-77978007D01*
X71627175Y-77838284D01*
X71685670Y-77658256D01*
X71703317Y-77490344D01*
X71729900Y-77425734D01*
X71738947Y-77415638D01*
X73348788Y-75805797D01*
X73361042Y-75795982D01*
X73360859Y-75795760D01*
X73366868Y-75790787D01*
X73366877Y-75790782D01*
X73412949Y-75741718D01*
X73415566Y-75739019D01*
X73435120Y-75719467D01*
X73437576Y-75716299D01*
X73445156Y-75707423D01*
X73475062Y-75675578D01*
X73484715Y-75658016D01*
X73495389Y-75641766D01*
X73507673Y-75625932D01*
X73525019Y-75585846D01*
X73530157Y-75575358D01*
X73551196Y-75537089D01*
X73551197Y-75537088D01*
X73556177Y-75517687D01*
X73562478Y-75499284D01*
X73570438Y-75480892D01*
X73577272Y-75437737D01*
X73579635Y-75426327D01*
X73590500Y-75384015D01*
X73590500Y-75363979D01*
X73592027Y-75344578D01*
X73595160Y-75324800D01*
X73591050Y-75281320D01*
X73590500Y-75269651D01*
X73590500Y-75134499D01*
X73610185Y-75067460D01*
X73662989Y-75021705D01*
X73714500Y-75010499D01*
X75037871Y-75010499D01*
X75037872Y-75010499D01*
X75097483Y-75004091D01*
X75232331Y-74953796D01*
X75347546Y-74867546D01*
X75433796Y-74752331D01*
X75484091Y-74617483D01*
X75490500Y-74557873D01*
X75490499Y-72762128D01*
X75484091Y-72702517D01*
X75445796Y-72599844D01*
X75433797Y-72567671D01*
X75433793Y-72567664D01*
X75347547Y-72452455D01*
X75347544Y-72452452D01*
X75232335Y-72366206D01*
X75232328Y-72366202D01*
X75100917Y-72317189D01*
X75044983Y-72275318D01*
X75020566Y-72209853D01*
X75035418Y-72141580D01*
X75056563Y-72113332D01*
X75178495Y-71991401D01*
X75314035Y-71797830D01*
X75413903Y-71583663D01*
X75475063Y-71355408D01*
X75495659Y-71120000D01*
X75475063Y-70884592D01*
X75413903Y-70656337D01*
X75314035Y-70442171D01*
X75308425Y-70434158D01*
X75178494Y-70248597D01*
X75011402Y-70081506D01*
X75011396Y-70081501D01*
X74825842Y-69951575D01*
X74782217Y-69896998D01*
X74775023Y-69827500D01*
X74806546Y-69765145D01*
X74825842Y-69748425D01*
X74848994Y-69732214D01*
X75011401Y-69618495D01*
X75178495Y-69451401D01*
X75314035Y-69257830D01*
X75413903Y-69043663D01*
X75475063Y-68815408D01*
X75495659Y-68580000D01*
X75493690Y-68557500D01*
X75481297Y-68415848D01*
X75475063Y-68344592D01*
X75413903Y-68116337D01*
X75314035Y-67902171D01*
X75224054Y-67773663D01*
X75178494Y-67708597D01*
X75011402Y-67541506D01*
X75011395Y-67541501D01*
X74817834Y-67405967D01*
X74817830Y-67405965D01*
X74719483Y-67360105D01*
X74603663Y-67306097D01*
X74603659Y-67306096D01*
X74603655Y-67306094D01*
X74375413Y-67244938D01*
X74375403Y-67244936D01*
X74140001Y-67224341D01*
X74139999Y-67224341D01*
X73904596Y-67244936D01*
X73904586Y-67244938D01*
X73804126Y-67271856D01*
X73734276Y-67270193D01*
X73684352Y-67239762D01*
X72275632Y-65831042D01*
X70830803Y-64386212D01*
X70820980Y-64373950D01*
X70820759Y-64374134D01*
X70815786Y-64368122D01*
X70766776Y-64322099D01*
X70763977Y-64319386D01*
X70744477Y-64299885D01*
X70744471Y-64299880D01*
X70741286Y-64297409D01*
X70732434Y-64289848D01*
X70700582Y-64259938D01*
X70700580Y-64259936D01*
X70700577Y-64259935D01*
X70683029Y-64250288D01*
X70666763Y-64239604D01*
X70650932Y-64227324D01*
X70610849Y-64209978D01*
X70600363Y-64204841D01*
X70562094Y-64183803D01*
X70562092Y-64183802D01*
X70542693Y-64178822D01*
X70524281Y-64172518D01*
X70505898Y-64164562D01*
X70505892Y-64164560D01*
X70462760Y-64157729D01*
X70451322Y-64155361D01*
X70409020Y-64144500D01*
X70409019Y-64144500D01*
X70388984Y-64144500D01*
X70369586Y-64142973D01*
X70362162Y-64141797D01*
X70349805Y-64139840D01*
X70349804Y-64139840D01*
X70306325Y-64143950D01*
X70294656Y-64144500D01*
X63949748Y-64144500D01*
X63882709Y-64124815D01*
X63857600Y-64103474D01*
X63851873Y-64097114D01*
X63851869Y-64097110D01*
X63698734Y-63985851D01*
X63698729Y-63985848D01*
X63525807Y-63908857D01*
X63525802Y-63908855D01*
X63380001Y-63877865D01*
X63340646Y-63869500D01*
X63151354Y-63869500D01*
X63118897Y-63876398D01*
X62966197Y-63908855D01*
X62966192Y-63908857D01*
X62793270Y-63985848D01*
X62793265Y-63985851D01*
X62640129Y-64097111D01*
X62513466Y-64237785D01*
X62418821Y-64401715D01*
X62418818Y-64401722D01*
X62360327Y-64581740D01*
X62360326Y-64581744D01*
X62340540Y-64770000D01*
X62360326Y-64958256D01*
X62360327Y-64958259D01*
X62418818Y-65138277D01*
X62418821Y-65138284D01*
X62513467Y-65302216D01*
X62630162Y-65431819D01*
X62640129Y-65442888D01*
X62793265Y-65554148D01*
X62793270Y-65554151D01*
X62966192Y-65631142D01*
X62966197Y-65631144D01*
X63151354Y-65670500D01*
X63151355Y-65670500D01*
X63340644Y-65670500D01*
X63340646Y-65670500D01*
X63525803Y-65631144D01*
X63698730Y-65554151D01*
X63851871Y-65442888D01*
X63854788Y-65439647D01*
X63857600Y-65436526D01*
X63917087Y-65399879D01*
X63949748Y-65395500D01*
X70019548Y-65395500D01*
X70086587Y-65415185D01*
X70107229Y-65431819D01*
X71813681Y-67138271D01*
X71847166Y-67199594D01*
X71850000Y-67225952D01*
X71850000Y-68144498D01*
X71742315Y-68095320D01*
X71635763Y-68080000D01*
X71564237Y-68080000D01*
X71457685Y-68095320D01*
X71350000Y-68144498D01*
X71350000Y-67249364D01*
X71349999Y-67249364D01*
X71136513Y-67306567D01*
X71136507Y-67306570D01*
X70922422Y-67406399D01*
X70922420Y-67406400D01*
X70728926Y-67541886D01*
X70728920Y-67541891D01*
X70561891Y-67708920D01*
X70561886Y-67708926D01*
X70426400Y-67902420D01*
X70426399Y-67902422D01*
X70326570Y-68116507D01*
X70326567Y-68116513D01*
X70269364Y-68329999D01*
X70269364Y-68330000D01*
X71166314Y-68330000D01*
X71140507Y-68370156D01*
X71100000Y-68508111D01*
X71100000Y-68651889D01*
X71140507Y-68789844D01*
X71166314Y-68830000D01*
X70269364Y-68830000D01*
X70326567Y-69043486D01*
X70326570Y-69043492D01*
X70426399Y-69257578D01*
X70561894Y-69451082D01*
X70728917Y-69618105D01*
X70914595Y-69748119D01*
X70958219Y-69802696D01*
X70965412Y-69872195D01*
X70933890Y-69934549D01*
X70914595Y-69951269D01*
X70728594Y-70081508D01*
X70561505Y-70248597D01*
X70425965Y-70442169D01*
X70425964Y-70442171D01*
X70326098Y-70656335D01*
X70326094Y-70656344D01*
X70264938Y-70884586D01*
X70264936Y-70884596D01*
X70244341Y-71119999D01*
X70244341Y-71120000D01*
X70264936Y-71355403D01*
X70264938Y-71355413D01*
X70291856Y-71455872D01*
X70290193Y-71525722D01*
X70259762Y-71575646D01*
X63497228Y-78338181D01*
X63435905Y-78371666D01*
X63409547Y-78374500D01*
X55767724Y-78374500D01*
X55700685Y-78354815D01*
X55694839Y-78350818D01*
X55570734Y-78260651D01*
X55570729Y-78260648D01*
X55397807Y-78183657D01*
X55397802Y-78183655D01*
X55252001Y-78152665D01*
X55212646Y-78144300D01*
X55023354Y-78144300D01*
X54990897Y-78151198D01*
X54838197Y-78183655D01*
X54838192Y-78183657D01*
X54665270Y-78260648D01*
X54665265Y-78260651D01*
X54512129Y-78371911D01*
X54385466Y-78512585D01*
X54290821Y-78676515D01*
X54290818Y-78676522D01*
X54232327Y-78856540D01*
X54232326Y-78856544D01*
X54212540Y-79044800D01*
X26113187Y-79044800D01*
X26213652Y-78841077D01*
X26308481Y-78561722D01*
X26366034Y-78272380D01*
X26374429Y-78144300D01*
X26385329Y-77978007D01*
X26385329Y-77977992D01*
X26366035Y-77683636D01*
X26366034Y-77683620D01*
X26308481Y-77394278D01*
X26213652Y-77114923D01*
X26083172Y-76850336D01*
X25919273Y-76605043D01*
X25876655Y-76556447D01*
X25724758Y-76383241D01*
X25502955Y-76188725D01*
X25257667Y-76024829D01*
X25257660Y-76024825D01*
X24993080Y-75894349D01*
X24713730Y-75799521D01*
X24713724Y-75799519D01*
X24713722Y-75799519D01*
X24424380Y-75741966D01*
X24424373Y-75741965D01*
X24424363Y-75741964D01*
X24130007Y-75722671D01*
X24129993Y-75722671D01*
X23835636Y-75741964D01*
X23835624Y-75741965D01*
X23835620Y-75741966D01*
X23835612Y-75741967D01*
X23835609Y-75741968D01*
X23546283Y-75799518D01*
X23546269Y-75799521D01*
X23266919Y-75894349D01*
X23002334Y-76024828D01*
X22757041Y-76188728D01*
X22535241Y-76383241D01*
X22340728Y-76605041D01*
X22176828Y-76850334D01*
X22046349Y-77114919D01*
X21951521Y-77394269D01*
X21951518Y-77394283D01*
X21893968Y-77683609D01*
X21893964Y-77683636D01*
X21874671Y-77977992D01*
X21874671Y-77978007D01*
X20828500Y-77978007D01*
X20828500Y-69850000D01*
X29124341Y-69850000D01*
X29144936Y-70085403D01*
X29144938Y-70085413D01*
X29206094Y-70313655D01*
X29206096Y-70313659D01*
X29206097Y-70313663D01*
X29271283Y-70453454D01*
X29305965Y-70527830D01*
X29305967Y-70527834D01*
X29414281Y-70682521D01*
X29441501Y-70721396D01*
X29441506Y-70721402D01*
X29563818Y-70843714D01*
X29597303Y-70905037D01*
X29592319Y-70974729D01*
X29550447Y-71030662D01*
X29519471Y-71047577D01*
X29387912Y-71096646D01*
X29387906Y-71096649D01*
X29272812Y-71182809D01*
X29272809Y-71182812D01*
X29186649Y-71297906D01*
X29186645Y-71297913D01*
X29136403Y-71432620D01*
X29136401Y-71432627D01*
X29130000Y-71492155D01*
X29130000Y-72140000D01*
X30046314Y-72140000D01*
X30020507Y-72180156D01*
X29980000Y-72318111D01*
X29980000Y-72461889D01*
X30020507Y-72599844D01*
X30046314Y-72640000D01*
X29130000Y-72640000D01*
X29130000Y-73287844D01*
X29136401Y-73347372D01*
X29136403Y-73347379D01*
X29186645Y-73482086D01*
X29186649Y-73482093D01*
X29272809Y-73597187D01*
X29272812Y-73597190D01*
X29387906Y-73683350D01*
X29387913Y-73683354D01*
X29522620Y-73733596D01*
X29522627Y-73733598D01*
X29582155Y-73739999D01*
X29582172Y-73740000D01*
X30230000Y-73740000D01*
X30230000Y-72825501D01*
X30337685Y-72874680D01*
X30444237Y-72890000D01*
X30515763Y-72890000D01*
X30622315Y-72874680D01*
X30730000Y-72825501D01*
X30730000Y-73740000D01*
X31377828Y-73740000D01*
X31377844Y-73739999D01*
X31437372Y-73733598D01*
X31437379Y-73733596D01*
X31572086Y-73683354D01*
X31572093Y-73683350D01*
X31687187Y-73597190D01*
X31687190Y-73597187D01*
X31773350Y-73482093D01*
X31773354Y-73482086D01*
X31823596Y-73347379D01*
X31823598Y-73347372D01*
X31829999Y-73287844D01*
X31830000Y-73287827D01*
X31830000Y-72640000D01*
X30913686Y-72640000D01*
X30939493Y-72599844D01*
X30980000Y-72461889D01*
X30980000Y-72318111D01*
X30939493Y-72180156D01*
X30913686Y-72140000D01*
X31830000Y-72140000D01*
X31830000Y-71492172D01*
X31829999Y-71492155D01*
X31823598Y-71432627D01*
X31823596Y-71432620D01*
X31773354Y-71297913D01*
X31773350Y-71297906D01*
X31687190Y-71182812D01*
X31687187Y-71182809D01*
X31572093Y-71096649D01*
X31572088Y-71096646D01*
X31440528Y-71047577D01*
X31384595Y-71005705D01*
X31360178Y-70940241D01*
X31375030Y-70871968D01*
X31396175Y-70843720D01*
X31518495Y-70721401D01*
X31654035Y-70527830D01*
X31753903Y-70313663D01*
X31815063Y-70085408D01*
X31835659Y-69850000D01*
X31833690Y-69827500D01*
X31825354Y-69732214D01*
X31815063Y-69614592D01*
X31754417Y-69388256D01*
X31753905Y-69386344D01*
X31753904Y-69386343D01*
X31753903Y-69386337D01*
X31654035Y-69172171D01*
X31589497Y-69080000D01*
X31518494Y-68978597D01*
X31351402Y-68811506D01*
X31351396Y-68811501D01*
X31165842Y-68681575D01*
X31122217Y-68626998D01*
X31115023Y-68557500D01*
X31146546Y-68495145D01*
X31165842Y-68478425D01*
X31188026Y-68462891D01*
X31351401Y-68348495D01*
X31518495Y-68181401D01*
X31654035Y-67987830D01*
X31753903Y-67773663D01*
X31815063Y-67545408D01*
X31835659Y-67310000D01*
X31815063Y-67074592D01*
X31753903Y-66846337D01*
X31654035Y-66632171D01*
X31637280Y-66608241D01*
X31518494Y-66438597D01*
X31351402Y-66271506D01*
X31351396Y-66271501D01*
X31165842Y-66141575D01*
X31122217Y-66086998D01*
X31115023Y-66017500D01*
X31146546Y-65955145D01*
X31165842Y-65938425D01*
X31300069Y-65844438D01*
X31351401Y-65808495D01*
X31518495Y-65641401D01*
X31654035Y-65447830D01*
X31753903Y-65233663D01*
X31815063Y-65005408D01*
X31835659Y-64770000D01*
X31815063Y-64534592D01*
X31778422Y-64397844D01*
X36369000Y-64397844D01*
X36375401Y-64457372D01*
X36375403Y-64457379D01*
X36425645Y-64592086D01*
X36425649Y-64592093D01*
X36511809Y-64707187D01*
X36511812Y-64707190D01*
X36626906Y-64793350D01*
X36626913Y-64793354D01*
X36761620Y-64843596D01*
X36761627Y-64843598D01*
X36821155Y-64849999D01*
X36821172Y-64850000D01*
X37469000Y-64850000D01*
X37469000Y-63935501D01*
X37576685Y-63984680D01*
X37683237Y-64000000D01*
X37754763Y-64000000D01*
X37861315Y-63984680D01*
X37969000Y-63935501D01*
X37969000Y-64850000D01*
X38616828Y-64850000D01*
X38616844Y-64849999D01*
X38676372Y-64843598D01*
X38676379Y-64843596D01*
X38811086Y-64793354D01*
X38811093Y-64793350D01*
X38926187Y-64707190D01*
X38926190Y-64707187D01*
X39012350Y-64592093D01*
X39012354Y-64592086D01*
X39061422Y-64460529D01*
X39103293Y-64404595D01*
X39168757Y-64380178D01*
X39237030Y-64395030D01*
X39265285Y-64416181D01*
X39387599Y-64538495D01*
X39449359Y-64581740D01*
X39581165Y-64674032D01*
X39581167Y-64674033D01*
X39581170Y-64674035D01*
X39795337Y-64773903D01*
X40023592Y-64835063D01*
X40194319Y-64850000D01*
X40258999Y-64855659D01*
X40259000Y-64855659D01*
X40259001Y-64855659D01*
X40323681Y-64850000D01*
X40494408Y-64835063D01*
X40722663Y-64773903D01*
X40936830Y-64674035D01*
X41130401Y-64538495D01*
X41297495Y-64371401D01*
X41427425Y-64185842D01*
X41482002Y-64142217D01*
X41551500Y-64135023D01*
X41613855Y-64166546D01*
X41630575Y-64185842D01*
X41760500Y-64371395D01*
X41760505Y-64371401D01*
X41927599Y-64538495D01*
X41989359Y-64581740D01*
X42121165Y-64674032D01*
X42121167Y-64674033D01*
X42121170Y-64674035D01*
X42335337Y-64773903D01*
X42563592Y-64835063D01*
X42734319Y-64850000D01*
X42798999Y-64855659D01*
X42799000Y-64855659D01*
X42799001Y-64855659D01*
X42863681Y-64850000D01*
X43034408Y-64835063D01*
X43262663Y-64773903D01*
X43476830Y-64674035D01*
X43670401Y-64538495D01*
X43837495Y-64371401D01*
X43973035Y-64177830D01*
X44072903Y-63963663D01*
X44134063Y-63735408D01*
X44154659Y-63500000D01*
X44134063Y-63264592D01*
X44072903Y-63036337D01*
X43973035Y-62822171D01*
X43967425Y-62814158D01*
X43837494Y-62628597D01*
X43670402Y-62461506D01*
X43670395Y-62461501D01*
X43476834Y-62325967D01*
X43476830Y-62325965D01*
X43405727Y-62292809D01*
X43262663Y-62226097D01*
X43262659Y-62226096D01*
X43262655Y-62226094D01*
X43034413Y-62164938D01*
X43034403Y-62164936D01*
X42799001Y-62144341D01*
X42798999Y-62144341D01*
X42563596Y-62164936D01*
X42563586Y-62164938D01*
X42335344Y-62226094D01*
X42335335Y-62226098D01*
X42121171Y-62325964D01*
X42121169Y-62325965D01*
X41927597Y-62461505D01*
X41760505Y-62628597D01*
X41630575Y-62814158D01*
X41575998Y-62857783D01*
X41506500Y-62864977D01*
X41444145Y-62833454D01*
X41427425Y-62814158D01*
X41297494Y-62628597D01*
X41130402Y-62461506D01*
X41130395Y-62461501D01*
X40936834Y-62325967D01*
X40936830Y-62325965D01*
X40865727Y-62292809D01*
X40722663Y-62226097D01*
X40722659Y-62226096D01*
X40722655Y-62226094D01*
X40494413Y-62164938D01*
X40494403Y-62164936D01*
X40259001Y-62144341D01*
X40258999Y-62144341D01*
X40023596Y-62164936D01*
X40023586Y-62164938D01*
X39795344Y-62226094D01*
X39795335Y-62226098D01*
X39581171Y-62325964D01*
X39581169Y-62325965D01*
X39387600Y-62461503D01*
X39265284Y-62583819D01*
X39203961Y-62617303D01*
X39134269Y-62612319D01*
X39078336Y-62570447D01*
X39061421Y-62539470D01*
X39012354Y-62407913D01*
X39012350Y-62407906D01*
X38926190Y-62292812D01*
X38926187Y-62292809D01*
X38811093Y-62206649D01*
X38811086Y-62206645D01*
X38676379Y-62156403D01*
X38676372Y-62156401D01*
X38616844Y-62150000D01*
X37969000Y-62150000D01*
X37969000Y-63064498D01*
X37861315Y-63015320D01*
X37754763Y-63000000D01*
X37683237Y-63000000D01*
X37576685Y-63015320D01*
X37469000Y-63064498D01*
X37469000Y-62150000D01*
X36821155Y-62150000D01*
X36761627Y-62156401D01*
X36761620Y-62156403D01*
X36626913Y-62206645D01*
X36626906Y-62206649D01*
X36511812Y-62292809D01*
X36511809Y-62292812D01*
X36425649Y-62407906D01*
X36425645Y-62407913D01*
X36375403Y-62542620D01*
X36375401Y-62542627D01*
X36369000Y-62602155D01*
X36369000Y-63250000D01*
X37285314Y-63250000D01*
X37259507Y-63290156D01*
X37219000Y-63428111D01*
X37219000Y-63571889D01*
X37259507Y-63709844D01*
X37285314Y-63750000D01*
X36369000Y-63750000D01*
X36369000Y-64397844D01*
X31778422Y-64397844D01*
X31757771Y-64320773D01*
X31753905Y-64306344D01*
X31753904Y-64306343D01*
X31753903Y-64306337D01*
X31654035Y-64092171D01*
X31591534Y-64002909D01*
X31518494Y-63898597D01*
X31351402Y-63731506D01*
X31351395Y-63731501D01*
X31157834Y-63595967D01*
X31157830Y-63595965D01*
X31106199Y-63571889D01*
X30943663Y-63496097D01*
X30943659Y-63496096D01*
X30943655Y-63496094D01*
X30715413Y-63434938D01*
X30715403Y-63434936D01*
X30480001Y-63414341D01*
X30479999Y-63414341D01*
X30244596Y-63434936D01*
X30244586Y-63434938D01*
X30016344Y-63496094D01*
X30016335Y-63496098D01*
X29802171Y-63595964D01*
X29802169Y-63595965D01*
X29608597Y-63731505D01*
X29441505Y-63898597D01*
X29305965Y-64092169D01*
X29305964Y-64092171D01*
X29227735Y-64259935D01*
X29208423Y-64301350D01*
X29206098Y-64306335D01*
X29206094Y-64306344D01*
X29144938Y-64534586D01*
X29144936Y-64534596D01*
X29124341Y-64769999D01*
X29124341Y-64770000D01*
X29144936Y-65005403D01*
X29144938Y-65005413D01*
X29206094Y-65233655D01*
X29206096Y-65233659D01*
X29206097Y-65233663D01*
X29238063Y-65302214D01*
X29305965Y-65447830D01*
X29305967Y-65447834D01*
X29441501Y-65641395D01*
X29441506Y-65641402D01*
X29608597Y-65808493D01*
X29608603Y-65808498D01*
X29794158Y-65938425D01*
X29837783Y-65993002D01*
X29844977Y-66062500D01*
X29813454Y-66124855D01*
X29794158Y-66141575D01*
X29608597Y-66271505D01*
X29441505Y-66438597D01*
X29305965Y-66632169D01*
X29305964Y-66632171D01*
X29206098Y-66846335D01*
X29206094Y-66846344D01*
X29144938Y-67074586D01*
X29144936Y-67074596D01*
X29124341Y-67309999D01*
X29124341Y-67310000D01*
X29144936Y-67545403D01*
X29144938Y-67545413D01*
X29206094Y-67773655D01*
X29206096Y-67773659D01*
X29206097Y-67773663D01*
X29305965Y-67987830D01*
X29305967Y-67987834D01*
X29396066Y-68116507D01*
X29437005Y-68174975D01*
X29441501Y-68181395D01*
X29441506Y-68181402D01*
X29608597Y-68348493D01*
X29608603Y-68348498D01*
X29794158Y-68478425D01*
X29837783Y-68533002D01*
X29844977Y-68602500D01*
X29813454Y-68664855D01*
X29794158Y-68681575D01*
X29608597Y-68811505D01*
X29441505Y-68978597D01*
X29305965Y-69172169D01*
X29305964Y-69172171D01*
X29206098Y-69386335D01*
X29206094Y-69386344D01*
X29144938Y-69614586D01*
X29144936Y-69614596D01*
X29124341Y-69849999D01*
X29124341Y-69850000D01*
X20828500Y-69850000D01*
X20828500Y-47274601D01*
X24067536Y-47274601D01*
X24087322Y-47462857D01*
X24087323Y-47462860D01*
X24145814Y-47642878D01*
X24145817Y-47642885D01*
X24240463Y-47806817D01*
X24280680Y-47851482D01*
X24367125Y-47947489D01*
X24520261Y-48058749D01*
X24520266Y-48058752D01*
X24693188Y-48135743D01*
X24693193Y-48135745D01*
X24878350Y-48175101D01*
X24937544Y-48175101D01*
X25004583Y-48194786D01*
X25025225Y-48211420D01*
X26770181Y-49956376D01*
X26803666Y-50017699D01*
X26806500Y-50044057D01*
X26806500Y-58947155D01*
X26786815Y-59014194D01*
X26734011Y-59059949D01*
X26664853Y-59069893D01*
X26624048Y-59056514D01*
X26546731Y-59015188D01*
X26546730Y-59015187D01*
X26546727Y-59015186D01*
X26358132Y-58957976D01*
X26358129Y-58957975D01*
X26162000Y-58938659D01*
X25965870Y-58957975D01*
X25777266Y-59015188D01*
X25603467Y-59108086D01*
X25603460Y-59108090D01*
X25451116Y-59233116D01*
X25326090Y-59385460D01*
X25326086Y-59385467D01*
X25233188Y-59559266D01*
X25175975Y-59747870D01*
X25156659Y-59944000D01*
X25175975Y-60140129D01*
X25233188Y-60328733D01*
X25326086Y-60502532D01*
X25326090Y-60502539D01*
X25451116Y-60654883D01*
X25603460Y-60779909D01*
X25603467Y-60779913D01*
X25777266Y-60872811D01*
X25777269Y-60872811D01*
X25777273Y-60872814D01*
X25965868Y-60930024D01*
X26162000Y-60949341D01*
X26358132Y-60930024D01*
X26546727Y-60872814D01*
X26720538Y-60779910D01*
X26720544Y-60779904D01*
X26725607Y-60776523D01*
X26726703Y-60778164D01*
X26782639Y-60754405D01*
X26851507Y-60766194D01*
X26868148Y-60776888D01*
X26868393Y-60776523D01*
X26873458Y-60779907D01*
X26873462Y-60779910D01*
X27018013Y-60857174D01*
X27043439Y-60870765D01*
X27047273Y-60872814D01*
X27235868Y-60930024D01*
X27432000Y-60949341D01*
X27628132Y-60930024D01*
X27816727Y-60872814D01*
X27819338Y-60871418D01*
X27820864Y-60871100D01*
X27822355Y-60870483D01*
X27822472Y-60870765D01*
X27887737Y-60857174D01*
X27952106Y-60881510D01*
X27959908Y-60887351D01*
X28094623Y-60937597D01*
X28094627Y-60937598D01*
X28154155Y-60943999D01*
X28154172Y-60944000D01*
X28452000Y-60944000D01*
X28452000Y-60151672D01*
X28489871Y-60196805D01*
X28589129Y-60254112D01*
X28673564Y-60269000D01*
X28730436Y-60269000D01*
X28814871Y-60254112D01*
X28914129Y-60196805D01*
X28916483Y-60194000D01*
X28952000Y-60194000D01*
X28952000Y-60944000D01*
X29249828Y-60944000D01*
X29249844Y-60943999D01*
X29309372Y-60937598D01*
X29309379Y-60937596D01*
X29444086Y-60887354D01*
X29444093Y-60887350D01*
X29559187Y-60801190D01*
X29559190Y-60801187D01*
X29645350Y-60686093D01*
X29645354Y-60686086D01*
X29695596Y-60551379D01*
X29695598Y-60551372D01*
X29701999Y-60491844D01*
X29702000Y-60491827D01*
X29702000Y-60194000D01*
X28952000Y-60194000D01*
X28916483Y-60194000D01*
X28987801Y-60109007D01*
X29027000Y-60001306D01*
X29027000Y-59886694D01*
X28987801Y-59778993D01*
X28914129Y-59691195D01*
X28814871Y-59633888D01*
X28730436Y-59619000D01*
X28673564Y-59619000D01*
X28589129Y-59633888D01*
X28489871Y-59691195D01*
X28452000Y-59736327D01*
X28452000Y-58944000D01*
X28952000Y-58944000D01*
X28952000Y-59694000D01*
X29702000Y-59694000D01*
X29702000Y-59396172D01*
X29701999Y-59396155D01*
X29695598Y-59336627D01*
X29695596Y-59336620D01*
X29645354Y-59201913D01*
X29645350Y-59201906D01*
X29559190Y-59086812D01*
X29559187Y-59086809D01*
X29444093Y-59000649D01*
X29444086Y-59000645D01*
X29309379Y-58950403D01*
X29309372Y-58950401D01*
X29249844Y-58944000D01*
X28952000Y-58944000D01*
X28452000Y-58944000D01*
X28181500Y-58944000D01*
X28114461Y-58924315D01*
X28068706Y-58871511D01*
X28057500Y-58820000D01*
X28057500Y-53975000D01*
X32141659Y-53975000D01*
X32160975Y-54171129D01*
X32163184Y-54178412D01*
X32212920Y-54342369D01*
X32218188Y-54359733D01*
X32311086Y-54533532D01*
X32311090Y-54533539D01*
X32436116Y-54685883D01*
X32588460Y-54810909D01*
X32588467Y-54810913D01*
X32762266Y-54903811D01*
X32762269Y-54903811D01*
X32762273Y-54903814D01*
X32950868Y-54961024D01*
X33147000Y-54980341D01*
X33343132Y-54961024D01*
X33531727Y-54903814D01*
X33705538Y-54810910D01*
X33705544Y-54810904D01*
X33710607Y-54807523D01*
X33711703Y-54809164D01*
X33767639Y-54785405D01*
X33836507Y-54797194D01*
X33853148Y-54807888D01*
X33853393Y-54807523D01*
X33858458Y-54810907D01*
X33858462Y-54810910D01*
X33967309Y-54869090D01*
X34028439Y-54901765D01*
X34032273Y-54903814D01*
X34220868Y-54961024D01*
X34417000Y-54980341D01*
X34613132Y-54961024D01*
X34801727Y-54903814D01*
X34804338Y-54902418D01*
X34805864Y-54902100D01*
X34807355Y-54901483D01*
X34807472Y-54901765D01*
X34872737Y-54888174D01*
X34937106Y-54912510D01*
X34944908Y-54918351D01*
X35079623Y-54968597D01*
X35079627Y-54968598D01*
X35139155Y-54974999D01*
X35139172Y-54975000D01*
X35437000Y-54975000D01*
X35437000Y-54182672D01*
X35474871Y-54227805D01*
X35574129Y-54285112D01*
X35658564Y-54300000D01*
X35715436Y-54300000D01*
X35799871Y-54285112D01*
X35899129Y-54227805D01*
X35901483Y-54225000D01*
X35937000Y-54225000D01*
X35937000Y-54975000D01*
X36234828Y-54975000D01*
X36234844Y-54974999D01*
X36294372Y-54968598D01*
X36294379Y-54968596D01*
X36429086Y-54918354D01*
X36429093Y-54918350D01*
X36544187Y-54832190D01*
X36544190Y-54832187D01*
X36630350Y-54717093D01*
X36630354Y-54717086D01*
X36680596Y-54582379D01*
X36680598Y-54582372D01*
X36686999Y-54522844D01*
X36687000Y-54522827D01*
X36687000Y-54225000D01*
X35937000Y-54225000D01*
X35901483Y-54225000D01*
X35972801Y-54140007D01*
X36012000Y-54032306D01*
X36012000Y-53917694D01*
X35972801Y-53809993D01*
X35899129Y-53722195D01*
X35799871Y-53664888D01*
X35715436Y-53650000D01*
X35658564Y-53650000D01*
X35574129Y-53664888D01*
X35474871Y-53722195D01*
X35437000Y-53767327D01*
X35437000Y-52975000D01*
X35937000Y-52975000D01*
X35937000Y-53725000D01*
X36687000Y-53725000D01*
X36687000Y-53427172D01*
X36686999Y-53427155D01*
X36680598Y-53367627D01*
X36680596Y-53367620D01*
X36630354Y-53232913D01*
X36630350Y-53232906D01*
X36544190Y-53117812D01*
X36544187Y-53117809D01*
X36429093Y-53031649D01*
X36429086Y-53031645D01*
X36294379Y-52981403D01*
X36294372Y-52981401D01*
X36234844Y-52975000D01*
X35937000Y-52975000D01*
X35437000Y-52975000D01*
X35139155Y-52975000D01*
X35079627Y-52981401D01*
X35079620Y-52981403D01*
X34944913Y-53031645D01*
X34944907Y-53031648D01*
X34937102Y-53037492D01*
X34871638Y-53061908D01*
X34807470Y-53048249D01*
X34807359Y-53048518D01*
X34805905Y-53047916D01*
X34804341Y-53047583D01*
X34801731Y-53046188D01*
X34801730Y-53046187D01*
X34801727Y-53046186D01*
X34613132Y-52988976D01*
X34613129Y-52988975D01*
X34417000Y-52969659D01*
X34220870Y-52988975D01*
X34032266Y-53046188D01*
X33858467Y-53139086D01*
X33853399Y-53142473D01*
X33852305Y-53140836D01*
X33796337Y-53164596D01*
X33727471Y-53152795D01*
X33710843Y-53142109D01*
X33710601Y-53142473D01*
X33705532Y-53139086D01*
X33531733Y-53046188D01*
X33531727Y-53046186D01*
X33343132Y-52988976D01*
X33343129Y-52988975D01*
X33147000Y-52969659D01*
X32950870Y-52988975D01*
X32762266Y-53046188D01*
X32588467Y-53139086D01*
X32588460Y-53139090D01*
X32436116Y-53264116D01*
X32311090Y-53416460D01*
X32311086Y-53416467D01*
X32218188Y-53590266D01*
X32160975Y-53778870D01*
X32141659Y-53975000D01*
X28057500Y-53975000D01*
X28057500Y-51307999D01*
X37421539Y-51307999D01*
X37441325Y-51496255D01*
X37441326Y-51496258D01*
X37499817Y-51676276D01*
X37499820Y-51676283D01*
X37594466Y-51840215D01*
X37640977Y-51891870D01*
X37721128Y-51980887D01*
X37874264Y-52092147D01*
X37874269Y-52092150D01*
X38047191Y-52169141D01*
X38047194Y-52169142D01*
X38047196Y-52169143D01*
X38232353Y-52208499D01*
X38232354Y-52208499D01*
X38421643Y-52208499D01*
X38421645Y-52208499D01*
X38606802Y-52169143D01*
X38779729Y-52092150D01*
X38875344Y-52022681D01*
X38941150Y-51999202D01*
X38948229Y-51999000D01*
X42385000Y-51999000D01*
X42452039Y-52018685D01*
X42497794Y-52071489D01*
X42509000Y-52123000D01*
X42509000Y-54111057D01*
X42489315Y-54178096D01*
X42477153Y-54194026D01*
X42467466Y-54204785D01*
X42372821Y-54368715D01*
X42372820Y-54368717D01*
X42342917Y-54460748D01*
X42312667Y-54510109D01*
X41528804Y-55293972D01*
X41523352Y-55299104D01*
X41478986Y-55338410D01*
X41478976Y-55338421D01*
X41445298Y-55387212D01*
X41440861Y-55393243D01*
X41404312Y-55439894D01*
X41404311Y-55439896D01*
X41400271Y-55448873D01*
X41389253Y-55468408D01*
X41383655Y-55476519D01*
X41362632Y-55531949D01*
X41359768Y-55538865D01*
X41335442Y-55592916D01*
X41333666Y-55602606D01*
X41327645Y-55624203D01*
X41324152Y-55633414D01*
X41324152Y-55633415D01*
X41317006Y-55692265D01*
X41315879Y-55699667D01*
X41305195Y-55757969D01*
X41305195Y-55757972D01*
X41308774Y-55817137D01*
X41309000Y-55824624D01*
X41309000Y-58375374D01*
X41308774Y-58382861D01*
X41305195Y-58442025D01*
X41305195Y-58442028D01*
X41315879Y-58500333D01*
X41317006Y-58507735D01*
X41324152Y-58566582D01*
X41327644Y-58575792D01*
X41333666Y-58597395D01*
X41335441Y-58607081D01*
X41359772Y-58661144D01*
X41362636Y-58668061D01*
X41383653Y-58723478D01*
X41383656Y-58723482D01*
X41389250Y-58731586D01*
X41400274Y-58751134D01*
X41404308Y-58760099D01*
X41404314Y-58760108D01*
X41440863Y-58806760D01*
X41445302Y-58812792D01*
X41478980Y-58861583D01*
X41523351Y-58900893D01*
X41528805Y-58906027D01*
X44472681Y-61849903D01*
X44506166Y-61911226D01*
X44509000Y-61937584D01*
X44509000Y-66662416D01*
X44489315Y-66729455D01*
X44472681Y-66750097D01*
X42954088Y-68268689D01*
X42892765Y-68302174D01*
X42892188Y-68302298D01*
X42720197Y-68338855D01*
X42720192Y-68338857D01*
X42547270Y-68415848D01*
X42547265Y-68415851D01*
X42394129Y-68527111D01*
X42267466Y-68667785D01*
X42172821Y-68831715D01*
X42172818Y-68831722D01*
X42116533Y-69004952D01*
X42114326Y-69011744D01*
X42094540Y-69200000D01*
X42114326Y-69388256D01*
X42114327Y-69388259D01*
X42172818Y-69568277D01*
X42172821Y-69568284D01*
X42267467Y-69732216D01*
X42393505Y-69872195D01*
X42394129Y-69872888D01*
X42547265Y-69984148D01*
X42547270Y-69984151D01*
X42720192Y-70061142D01*
X42720197Y-70061144D01*
X42905354Y-70100500D01*
X42905355Y-70100500D01*
X43094644Y-70100500D01*
X43094646Y-70100500D01*
X43279803Y-70061144D01*
X43452730Y-69984151D01*
X43605871Y-69872888D01*
X43732533Y-69732216D01*
X43827179Y-69568284D01*
X43885674Y-69388256D01*
X43892441Y-69323858D01*
X43919024Y-69259245D01*
X43928072Y-69249147D01*
X45671209Y-67506010D01*
X45676611Y-67500924D01*
X45721020Y-67461583D01*
X45754718Y-67412760D01*
X45759108Y-67406793D01*
X45795688Y-67360105D01*
X45799722Y-67351139D01*
X45810754Y-67331580D01*
X45816342Y-67323485D01*
X45816342Y-67323484D01*
X45816344Y-67323482D01*
X45837378Y-67268017D01*
X45840218Y-67261161D01*
X45864557Y-67207085D01*
X45866330Y-67197403D01*
X45872356Y-67175788D01*
X45875848Y-67166582D01*
X45882993Y-67107730D01*
X45884119Y-67100336D01*
X45894804Y-67042033D01*
X45894805Y-67042026D01*
X45891226Y-66982860D01*
X45891000Y-66975373D01*
X45891000Y-61624624D01*
X45891226Y-61617137D01*
X45894805Y-61557971D01*
X45894804Y-61557966D01*
X45884119Y-61499663D01*
X45882994Y-61492276D01*
X45875848Y-61433418D01*
X45872359Y-61424218D01*
X45866331Y-61402596D01*
X45864557Y-61392915D01*
X45840220Y-61338840D01*
X45837361Y-61331936D01*
X45816344Y-61276519D01*
X45816344Y-61276518D01*
X45810754Y-61268420D01*
X45799725Y-61248865D01*
X45795688Y-61239895D01*
X45795687Y-61239893D01*
X45759132Y-61193233D01*
X45754703Y-61187214D01*
X45721020Y-61138417D01*
X45676639Y-61099099D01*
X45671201Y-61093979D01*
X42727319Y-58150097D01*
X42693834Y-58088774D01*
X42691000Y-58062416D01*
X42691000Y-57400006D01*
X43694540Y-57400006D01*
X43714326Y-57588262D01*
X43714327Y-57588265D01*
X43772818Y-57768283D01*
X43772821Y-57768290D01*
X43867467Y-57932222D01*
X43906266Y-57975312D01*
X43994129Y-58072894D01*
X44147265Y-58184154D01*
X44147270Y-58184157D01*
X44320192Y-58261148D01*
X44320197Y-58261150D01*
X44505354Y-58300506D01*
X44505355Y-58300506D01*
X44694644Y-58300506D01*
X44694646Y-58300506D01*
X44879803Y-58261150D01*
X44907763Y-58248700D01*
X44977012Y-58239414D01*
X45040289Y-58269041D01*
X45045882Y-58274298D01*
X52541302Y-65769719D01*
X52574787Y-65831042D01*
X52576942Y-65844438D01*
X52585232Y-65923317D01*
X52594590Y-66012346D01*
X52594591Y-66012349D01*
X52653082Y-66192367D01*
X52653085Y-66192374D01*
X52747731Y-66356306D01*
X52874393Y-66496978D01*
X53027529Y-66608238D01*
X53027534Y-66608241D01*
X53200456Y-66685232D01*
X53200461Y-66685234D01*
X53385618Y-66724590D01*
X53385619Y-66724590D01*
X53574908Y-66724590D01*
X53574910Y-66724590D01*
X53760067Y-66685234D01*
X53932994Y-66608241D01*
X54086135Y-66496978D01*
X54212797Y-66356306D01*
X54212802Y-66356296D01*
X54215210Y-66352983D01*
X54217104Y-66351521D01*
X54217145Y-66351477D01*
X54217153Y-66351484D01*
X54270538Y-66310314D01*
X54340151Y-66304330D01*
X54401948Y-66336932D01*
X54407678Y-66342884D01*
X54512129Y-66458888D01*
X54512132Y-66458890D01*
X54665265Y-66570148D01*
X54665270Y-66570151D01*
X54838192Y-66647142D01*
X54838197Y-66647144D01*
X55023354Y-66686500D01*
X55023355Y-66686500D01*
X55212644Y-66686500D01*
X55212646Y-66686500D01*
X55397803Y-66647144D01*
X55570730Y-66570151D01*
X55723871Y-66458888D01*
X55850533Y-66318216D01*
X55945179Y-66154284D01*
X56003674Y-65974256D01*
X56023460Y-65786000D01*
X56003674Y-65597744D01*
X55945179Y-65417716D01*
X55850533Y-65253784D01*
X55723871Y-65113112D01*
X55723870Y-65113111D01*
X55570734Y-65001851D01*
X55570729Y-65001848D01*
X55397807Y-64924857D01*
X55397802Y-64924855D01*
X55252001Y-64893865D01*
X55212646Y-64885500D01*
X55212645Y-64885500D01*
X55153453Y-64885500D01*
X55086414Y-64865815D01*
X55065772Y-64849181D01*
X54255819Y-64039228D01*
X54222334Y-63977905D01*
X54219500Y-63951547D01*
X54219500Y-59264742D01*
X54221224Y-59249122D01*
X54220939Y-59249095D01*
X54221673Y-59241333D01*
X54219561Y-59174112D01*
X54219500Y-59170218D01*
X54219500Y-59142656D01*
X54219500Y-59142650D01*
X54218996Y-59138668D01*
X54218081Y-59127029D01*
X54217486Y-59108086D01*
X54216710Y-59083373D01*
X54211119Y-59064130D01*
X54207173Y-59045078D01*
X54204664Y-59025208D01*
X54188579Y-58984583D01*
X54184806Y-58973562D01*
X54172618Y-58931610D01*
X54172617Y-58931609D01*
X54172617Y-58931607D01*
X54172616Y-58931606D01*
X54162423Y-58914371D01*
X54153861Y-58896894D01*
X54146487Y-58878269D01*
X54120816Y-58842937D01*
X54114405Y-58833177D01*
X54092170Y-58795580D01*
X54092168Y-58795578D01*
X54092165Y-58795574D01*
X54078006Y-58781415D01*
X54065368Y-58766619D01*
X54053594Y-58750413D01*
X54019940Y-58722572D01*
X54011299Y-58714709D01*
X51738960Y-56442369D01*
X51705475Y-56381046D01*
X51703323Y-56367668D01*
X51685674Y-56199744D01*
X51627179Y-56019716D01*
X51532533Y-55855784D01*
X51475885Y-55792870D01*
X55260500Y-55792870D01*
X55260501Y-55792876D01*
X55266908Y-55852483D01*
X55317202Y-55987328D01*
X55317206Y-55987335D01*
X55403452Y-56102544D01*
X55403455Y-56102547D01*
X55518664Y-56188793D01*
X55518671Y-56188797D01*
X55653517Y-56239091D01*
X55653516Y-56239091D01*
X55660444Y-56239835D01*
X55713127Y-56245500D01*
X56808872Y-56245499D01*
X56868483Y-56239091D01*
X57003331Y-56188796D01*
X57118546Y-56102546D01*
X57204796Y-55987331D01*
X57255091Y-55852483D01*
X57261500Y-55792873D01*
X57261499Y-54697128D01*
X57255091Y-54637517D01*
X57241897Y-54602143D01*
X57204797Y-54502671D01*
X57204793Y-54502664D01*
X57118547Y-54387455D01*
X57118544Y-54387452D01*
X57003335Y-54301206D01*
X57003328Y-54301202D01*
X56868482Y-54250908D01*
X56868483Y-54250908D01*
X56808883Y-54244501D01*
X56808881Y-54244500D01*
X56808873Y-54244500D01*
X56808864Y-54244500D01*
X55713129Y-54244500D01*
X55713123Y-54244501D01*
X55653516Y-54250908D01*
X55518671Y-54301202D01*
X55518664Y-54301206D01*
X55403455Y-54387452D01*
X55403452Y-54387455D01*
X55317206Y-54502664D01*
X55317202Y-54502671D01*
X55266908Y-54637517D01*
X55261709Y-54685883D01*
X55260501Y-54697123D01*
X55260500Y-54697135D01*
X55260500Y-55792870D01*
X51475885Y-55792870D01*
X51405871Y-55715112D01*
X51379538Y-55695980D01*
X51252734Y-55603851D01*
X51252729Y-55603848D01*
X51079807Y-55526857D01*
X51079802Y-55526855D01*
X50934001Y-55495865D01*
X50894646Y-55487500D01*
X50705354Y-55487500D01*
X50672897Y-55494398D01*
X50520197Y-55526855D01*
X50520192Y-55526857D01*
X50347270Y-55603848D01*
X50347265Y-55603851D01*
X50194129Y-55715111D01*
X50067466Y-55855785D01*
X49972821Y-56019715D01*
X49972818Y-56019722D01*
X49914327Y-56199740D01*
X49914326Y-56199744D01*
X49909517Y-56245500D01*
X49894821Y-56385329D01*
X49894107Y-56387062D01*
X49894820Y-56390665D01*
X49914326Y-56576256D01*
X49914327Y-56576259D01*
X49972818Y-56756277D01*
X49972821Y-56756284D01*
X50067467Y-56920216D01*
X50142867Y-57003956D01*
X50194129Y-57060888D01*
X50347265Y-57172148D01*
X50347270Y-57172151D01*
X50520192Y-57249142D01*
X50520197Y-57249144D01*
X50705354Y-57288500D01*
X50764548Y-57288500D01*
X50831587Y-57308185D01*
X50852229Y-57324819D01*
X51632073Y-58104663D01*
X51665558Y-58165986D01*
X51660574Y-58235678D01*
X51618702Y-58291611D01*
X51570173Y-58313634D01*
X51536197Y-58320855D01*
X51536192Y-58320857D01*
X51363270Y-58397848D01*
X51363265Y-58397851D01*
X51210129Y-58509111D01*
X51083466Y-58649785D01*
X50988821Y-58813715D01*
X50988818Y-58813722D01*
X50936889Y-58973544D01*
X50930326Y-58993744D01*
X50910540Y-59182000D01*
X50930326Y-59370256D01*
X50930327Y-59370259D01*
X50988818Y-59550277D01*
X50988821Y-59550284D01*
X51083467Y-59714216D01*
X51141793Y-59778993D01*
X51210129Y-59854888D01*
X51210133Y-59854891D01*
X51266384Y-59895759D01*
X51309050Y-59951088D01*
X51317500Y-59996078D01*
X51317500Y-61531312D01*
X51297815Y-61598351D01*
X51285650Y-61614284D01*
X51210466Y-61697784D01*
X51115821Y-61861715D01*
X51115818Y-61861722D01*
X51057327Y-62041740D01*
X51057326Y-62041744D01*
X51042227Y-62185408D01*
X51039342Y-62212857D01*
X51012757Y-62277471D01*
X50955460Y-62317456D01*
X50885641Y-62320116D01*
X50828340Y-62287576D01*
X48319757Y-59778993D01*
X45556983Y-57016218D01*
X45547160Y-57003956D01*
X45546939Y-57004140D01*
X45541966Y-56998128D01*
X45492956Y-56952105D01*
X45490157Y-56949392D01*
X45470657Y-56929891D01*
X45470651Y-56929886D01*
X45467466Y-56927415D01*
X45458614Y-56919854D01*
X45426762Y-56889944D01*
X45426760Y-56889942D01*
X45426757Y-56889941D01*
X45409209Y-56880294D01*
X45392943Y-56869610D01*
X45377113Y-56857331D01*
X45337031Y-56839986D01*
X45326537Y-56834845D01*
X45298043Y-56819179D01*
X45265634Y-56793492D01*
X45205868Y-56727115D01*
X45052734Y-56615857D01*
X45052729Y-56615854D01*
X44879807Y-56538863D01*
X44879802Y-56538861D01*
X44734001Y-56507871D01*
X44694646Y-56499506D01*
X44505354Y-56499506D01*
X44472897Y-56506404D01*
X44320197Y-56538861D01*
X44320192Y-56538863D01*
X44147270Y-56615854D01*
X44147265Y-56615857D01*
X43994129Y-56727117D01*
X43867466Y-56867791D01*
X43772821Y-57031721D01*
X43772818Y-57031728D01*
X43714327Y-57211746D01*
X43714326Y-57211750D01*
X43694540Y-57400006D01*
X42691000Y-57400006D01*
X42691000Y-56137584D01*
X42710685Y-56070545D01*
X42727319Y-56049903D01*
X43103403Y-55673819D01*
X43164726Y-55640334D01*
X43191084Y-55637500D01*
X43294644Y-55637500D01*
X43294646Y-55637500D01*
X43479803Y-55598144D01*
X43652730Y-55521151D01*
X43805871Y-55409888D01*
X43932533Y-55269216D01*
X44027179Y-55105284D01*
X44085674Y-54925256D01*
X44105460Y-54737000D01*
X44085674Y-54548744D01*
X44027179Y-54368716D01*
X43932533Y-54204784D01*
X43926566Y-54198157D01*
X43922847Y-54194026D01*
X43892620Y-54131034D01*
X43891000Y-54111057D01*
X43891000Y-52123000D01*
X43910685Y-52055961D01*
X43963489Y-52010206D01*
X44015000Y-51999000D01*
X47142104Y-51999000D01*
X47209143Y-52018685D01*
X47254898Y-52071489D01*
X47264842Y-52140647D01*
X47235817Y-52204203D01*
X47192540Y-52236279D01*
X47045270Y-52301848D01*
X47045265Y-52301851D01*
X46892129Y-52413111D01*
X46765466Y-52553785D01*
X46670821Y-52717715D01*
X46670818Y-52717722D01*
X46634953Y-52828105D01*
X46612326Y-52897744D01*
X46592540Y-53086000D01*
X46612326Y-53274256D01*
X46612327Y-53274259D01*
X46670818Y-53454277D01*
X46670821Y-53454284D01*
X46765467Y-53618216D01*
X46861616Y-53725000D01*
X46892129Y-53758888D01*
X47045265Y-53870148D01*
X47045270Y-53870151D01*
X47218192Y-53947142D01*
X47218197Y-53947144D01*
X47403354Y-53986500D01*
X47462548Y-53986500D01*
X47529587Y-54006185D01*
X47550229Y-54022819D01*
X48360181Y-54832771D01*
X48393666Y-54894094D01*
X48396500Y-54920452D01*
X48396500Y-57975312D01*
X48376815Y-58042351D01*
X48364650Y-58058284D01*
X48289466Y-58141784D01*
X48194821Y-58305715D01*
X48194818Y-58305722D01*
X48164884Y-58397851D01*
X48136326Y-58485744D01*
X48116540Y-58674000D01*
X48136326Y-58862256D01*
X48136327Y-58862259D01*
X48194818Y-59042277D01*
X48194821Y-59042284D01*
X48289467Y-59206216D01*
X48400833Y-59329900D01*
X48416129Y-59346888D01*
X48569265Y-59458148D01*
X48569270Y-59458151D01*
X48742192Y-59535142D01*
X48742197Y-59535144D01*
X48927354Y-59574500D01*
X48927355Y-59574500D01*
X49116644Y-59574500D01*
X49116646Y-59574500D01*
X49301803Y-59535144D01*
X49474730Y-59458151D01*
X49627871Y-59346888D01*
X49754533Y-59206216D01*
X49849179Y-59042284D01*
X49907674Y-58862256D01*
X49927460Y-58674000D01*
X49907674Y-58485744D01*
X49849179Y-58305716D01*
X49754533Y-58141784D01*
X49732668Y-58117500D01*
X49679350Y-58058284D01*
X49649120Y-57995292D01*
X49647500Y-57975312D01*
X49647500Y-56403631D01*
X49649906Y-56395436D01*
X49649523Y-56394675D01*
X49647500Y-56372368D01*
X49647500Y-54692737D01*
X49649224Y-54677123D01*
X49648938Y-54677096D01*
X49649672Y-54669333D01*
X49647561Y-54602143D01*
X49647500Y-54598249D01*
X49647500Y-54570651D01*
X49647500Y-54570650D01*
X49646997Y-54566670D01*
X49646080Y-54555021D01*
X49644709Y-54511374D01*
X49644709Y-54511372D01*
X49639120Y-54492137D01*
X49635174Y-54473084D01*
X49632664Y-54453208D01*
X49616578Y-54412581D01*
X49612803Y-54401554D01*
X49600617Y-54359610D01*
X49590421Y-54342369D01*
X49581860Y-54324893D01*
X49574486Y-54306269D01*
X49574485Y-54306267D01*
X49559115Y-54285112D01*
X49548809Y-54270926D01*
X49542412Y-54261190D01*
X49520170Y-54223579D01*
X49520167Y-54223576D01*
X49520165Y-54223573D01*
X49506005Y-54209413D01*
X49493370Y-54194620D01*
X49481593Y-54178412D01*
X49447945Y-54150576D01*
X49439304Y-54142713D01*
X48436960Y-53140369D01*
X48403475Y-53079046D01*
X48401323Y-53065668D01*
X48383674Y-52897744D01*
X48325179Y-52717716D01*
X48230533Y-52553784D01*
X48103871Y-52413112D01*
X48103870Y-52413111D01*
X47950734Y-52301851D01*
X47950729Y-52301848D01*
X47803460Y-52236279D01*
X47750223Y-52191029D01*
X47729902Y-52124180D01*
X47748948Y-52056956D01*
X47801314Y-52010701D01*
X47853896Y-51999000D01*
X56020768Y-51999000D01*
X56087807Y-52018685D01*
X56093653Y-52022682D01*
X56189265Y-52092148D01*
X56189270Y-52092151D01*
X56362192Y-52169142D01*
X56362195Y-52169143D01*
X56362197Y-52169144D01*
X56547354Y-52208500D01*
X56547355Y-52208500D01*
X56736644Y-52208500D01*
X56736646Y-52208500D01*
X56921803Y-52169144D01*
X57094730Y-52092151D01*
X57247871Y-51980888D01*
X57374533Y-51840216D01*
X57469179Y-51676284D01*
X57527674Y-51496256D01*
X57547460Y-51308000D01*
X57527674Y-51119744D01*
X57469179Y-50939716D01*
X57374533Y-50775784D01*
X57247871Y-50635112D01*
X57247870Y-50635111D01*
X57094734Y-50523851D01*
X57094729Y-50523848D01*
X56921807Y-50446857D01*
X56921802Y-50446855D01*
X56776001Y-50415865D01*
X56736646Y-50407500D01*
X56547354Y-50407500D01*
X56514897Y-50414398D01*
X56362197Y-50446855D01*
X56362192Y-50446857D01*
X56189270Y-50523848D01*
X56189265Y-50523851D01*
X56093653Y-50593318D01*
X56027847Y-50616798D01*
X56020768Y-50617000D01*
X43838242Y-50617000D01*
X43771203Y-50597315D01*
X43765357Y-50593318D01*
X43669744Y-50523851D01*
X43669739Y-50523848D01*
X43496817Y-50446857D01*
X43496812Y-50446855D01*
X43351011Y-50415865D01*
X43311656Y-50407500D01*
X43122364Y-50407500D01*
X43089907Y-50414398D01*
X42937207Y-50446855D01*
X42937202Y-50446857D01*
X42764280Y-50523848D01*
X42764275Y-50523851D01*
X42668663Y-50593318D01*
X42602857Y-50616798D01*
X42595778Y-50617000D01*
X38948232Y-50617000D01*
X38881193Y-50597315D01*
X38875347Y-50593318D01*
X38779733Y-50523850D01*
X38779728Y-50523847D01*
X38606806Y-50446856D01*
X38606801Y-50446854D01*
X38461000Y-50415864D01*
X38421645Y-50407499D01*
X38232353Y-50407499D01*
X38199896Y-50414397D01*
X38047196Y-50446854D01*
X38047191Y-50446856D01*
X37874269Y-50523847D01*
X37874264Y-50523850D01*
X37721128Y-50635110D01*
X37594465Y-50775784D01*
X37499820Y-50939714D01*
X37499817Y-50939721D01*
X37441326Y-51119739D01*
X37441325Y-51119743D01*
X37421539Y-51307999D01*
X28057500Y-51307999D01*
X28057500Y-49823870D01*
X51577500Y-49823870D01*
X51577501Y-49823876D01*
X51583908Y-49883483D01*
X51634202Y-50018328D01*
X51634206Y-50018335D01*
X51720452Y-50133544D01*
X51720455Y-50133547D01*
X51835664Y-50219793D01*
X51835671Y-50219797D01*
X51970517Y-50270091D01*
X51970516Y-50270091D01*
X51977444Y-50270835D01*
X52030127Y-50276500D01*
X53125872Y-50276499D01*
X53185483Y-50270091D01*
X53320331Y-50219796D01*
X53435546Y-50133546D01*
X53521796Y-50018331D01*
X53572091Y-49883483D01*
X53578500Y-49823873D01*
X53578499Y-48728128D01*
X53572091Y-48668517D01*
X53570910Y-48665351D01*
X53521797Y-48533671D01*
X53521793Y-48533664D01*
X53435547Y-48418455D01*
X53435544Y-48418452D01*
X53320335Y-48332206D01*
X53320328Y-48332202D01*
X53185482Y-48281908D01*
X53185483Y-48281908D01*
X53125883Y-48275501D01*
X53125881Y-48275500D01*
X53125873Y-48275500D01*
X53125864Y-48275500D01*
X52030129Y-48275500D01*
X52030123Y-48275501D01*
X51970516Y-48281908D01*
X51835671Y-48332202D01*
X51835664Y-48332206D01*
X51720455Y-48418452D01*
X51720452Y-48418455D01*
X51634206Y-48533664D01*
X51634202Y-48533671D01*
X51583908Y-48668517D01*
X51577501Y-48728116D01*
X51577501Y-48728123D01*
X51577500Y-48728135D01*
X51577500Y-49823870D01*
X28057500Y-49823870D01*
X28057500Y-49816347D01*
X28059224Y-49800727D01*
X28058939Y-49800701D01*
X28059671Y-49792945D01*
X28059673Y-49792938D01*
X28057561Y-49725731D01*
X28057500Y-49721836D01*
X28057500Y-49694259D01*
X28057500Y-49694255D01*
X28056996Y-49690270D01*
X28056080Y-49678626D01*
X28055965Y-49674952D01*
X28054709Y-49634978D01*
X28049122Y-49615749D01*
X28045174Y-49596689D01*
X28042663Y-49576809D01*
X28026588Y-49536209D01*
X28022804Y-49525157D01*
X28010618Y-49483214D01*
X28010616Y-49483211D01*
X28000423Y-49465976D01*
X27991861Y-49448499D01*
X27984487Y-49429874D01*
X27958816Y-49394542D01*
X27952405Y-49384782D01*
X27930170Y-49347185D01*
X27930168Y-49347183D01*
X27930165Y-49347179D01*
X27916006Y-49333020D01*
X27903368Y-49318224D01*
X27891594Y-49302018D01*
X27857940Y-49274177D01*
X27849299Y-49266314D01*
X26374856Y-47791870D01*
X45227500Y-47791870D01*
X45227501Y-47791876D01*
X45233908Y-47851483D01*
X45284202Y-47986328D01*
X45284206Y-47986335D01*
X45370452Y-48101544D01*
X45370455Y-48101547D01*
X45485664Y-48187793D01*
X45485671Y-48187797D01*
X45620517Y-48238091D01*
X45620516Y-48238091D01*
X45627444Y-48238835D01*
X45680127Y-48244500D01*
X46775872Y-48244499D01*
X46835483Y-48238091D01*
X46970331Y-48187796D01*
X47085546Y-48101546D01*
X47127225Y-48045870D01*
X55133500Y-48045870D01*
X55133501Y-48045876D01*
X55139908Y-48105483D01*
X55190202Y-48240328D01*
X55190206Y-48240335D01*
X55276452Y-48355544D01*
X55276455Y-48355547D01*
X55391664Y-48441793D01*
X55391671Y-48441797D01*
X55526517Y-48492091D01*
X55526516Y-48492091D01*
X55533444Y-48492835D01*
X55586127Y-48498500D01*
X56681872Y-48498499D01*
X56741483Y-48492091D01*
X56876331Y-48441796D01*
X56991546Y-48355546D01*
X57077796Y-48240331D01*
X57128091Y-48105483D01*
X57134500Y-48045873D01*
X57134499Y-46950128D01*
X57128091Y-46890517D01*
X57117276Y-46861521D01*
X57077797Y-46755671D01*
X57077793Y-46755664D01*
X56991547Y-46640455D01*
X56991544Y-46640452D01*
X56876335Y-46554206D01*
X56876328Y-46554202D01*
X56741482Y-46503908D01*
X56741483Y-46503908D01*
X56681883Y-46497501D01*
X56681881Y-46497500D01*
X56681873Y-46497500D01*
X56681864Y-46497500D01*
X55586129Y-46497500D01*
X55586123Y-46497501D01*
X55526516Y-46503908D01*
X55391671Y-46554202D01*
X55391664Y-46554206D01*
X55276455Y-46640452D01*
X55276452Y-46640455D01*
X55190206Y-46755664D01*
X55190202Y-46755671D01*
X55139908Y-46890517D01*
X55135686Y-46929795D01*
X55133501Y-46950123D01*
X55133500Y-46950135D01*
X55133500Y-48045870D01*
X47127225Y-48045870D01*
X47171796Y-47986331D01*
X47222091Y-47851483D01*
X47228500Y-47791873D01*
X47228499Y-46696128D01*
X47222091Y-46636517D01*
X47191390Y-46554204D01*
X47171797Y-46501671D01*
X47171793Y-46501664D01*
X47085547Y-46386455D01*
X47085544Y-46386452D01*
X46970335Y-46300206D01*
X46970328Y-46300202D01*
X46835482Y-46249908D01*
X46835483Y-46249908D01*
X46775883Y-46243501D01*
X46775881Y-46243500D01*
X46775873Y-46243500D01*
X46775864Y-46243500D01*
X45680129Y-46243500D01*
X45680123Y-46243501D01*
X45620516Y-46249908D01*
X45485671Y-46300202D01*
X45485664Y-46300206D01*
X45370455Y-46386452D01*
X45370452Y-46386455D01*
X45284206Y-46501664D01*
X45284202Y-46501671D01*
X45233908Y-46636517D01*
X45228441Y-46687376D01*
X45227501Y-46696123D01*
X45227500Y-46696135D01*
X45227500Y-47791870D01*
X26374856Y-47791870D01*
X25911956Y-47328970D01*
X25878471Y-47267647D01*
X25876319Y-47254269D01*
X25858670Y-47086345D01*
X25800175Y-46906317D01*
X25705529Y-46742385D01*
X25578867Y-46601713D01*
X25578866Y-46601712D01*
X25425730Y-46490452D01*
X25425725Y-46490449D01*
X25252803Y-46413458D01*
X25252798Y-46413456D01*
X25106997Y-46382466D01*
X25067642Y-46374101D01*
X24878350Y-46374101D01*
X24845893Y-46380999D01*
X24693193Y-46413456D01*
X24693188Y-46413458D01*
X24520266Y-46490449D01*
X24520261Y-46490452D01*
X24367125Y-46601712D01*
X24240462Y-46742386D01*
X24145817Y-46906316D01*
X24145814Y-46906323D01*
X24087323Y-47086341D01*
X24087322Y-47086345D01*
X24067536Y-47274601D01*
X20828500Y-47274601D01*
X20828500Y-43688000D01*
X39538341Y-43688000D01*
X39558936Y-43923403D01*
X39558938Y-43923413D01*
X39620094Y-44151655D01*
X39620096Y-44151659D01*
X39620097Y-44151663D01*
X39633805Y-44181059D01*
X39719965Y-44365830D01*
X39719967Y-44365834D01*
X39805800Y-44488415D01*
X39855501Y-44559396D01*
X39855506Y-44559402D01*
X39977430Y-44681326D01*
X40010915Y-44742649D01*
X40005931Y-44812341D01*
X39964059Y-44868274D01*
X39933083Y-44885189D01*
X39801669Y-44934203D01*
X39801664Y-44934206D01*
X39686455Y-45020452D01*
X39686452Y-45020455D01*
X39600206Y-45135664D01*
X39600202Y-45135671D01*
X39549908Y-45270517D01*
X39543501Y-45330116D01*
X39543501Y-45330123D01*
X39543500Y-45330135D01*
X39543500Y-47125870D01*
X39543501Y-47125876D01*
X39549908Y-47185483D01*
X39600202Y-47320328D01*
X39600206Y-47320335D01*
X39686452Y-47435544D01*
X39686455Y-47435547D01*
X39801664Y-47521793D01*
X39801671Y-47521797D01*
X39936517Y-47572091D01*
X39936516Y-47572091D01*
X39943444Y-47572835D01*
X39996127Y-47578500D01*
X41791872Y-47578499D01*
X41851483Y-47572091D01*
X41986331Y-47521796D01*
X42101546Y-47435546D01*
X42187796Y-47320331D01*
X42238091Y-47185483D01*
X42244500Y-47125873D01*
X42244499Y-45330128D01*
X42238091Y-45270517D01*
X42227809Y-45242950D01*
X42187797Y-45135671D01*
X42187793Y-45135664D01*
X42101547Y-45020455D01*
X42101544Y-45020452D01*
X41986335Y-44934206D01*
X41986328Y-44934202D01*
X41854917Y-44885189D01*
X41798983Y-44843318D01*
X41774566Y-44777853D01*
X41789418Y-44709580D01*
X41810563Y-44681332D01*
X41932495Y-44559401D01*
X42068035Y-44365830D01*
X42167903Y-44151663D01*
X42229063Y-43923408D01*
X42249659Y-43688000D01*
X42229063Y-43452592D01*
X42167903Y-43224337D01*
X42068035Y-43010171D01*
X42045419Y-42977871D01*
X41932494Y-42816597D01*
X41765402Y-42649506D01*
X41765396Y-42649501D01*
X41579842Y-42519575D01*
X41536217Y-42464998D01*
X41529023Y-42395500D01*
X41560546Y-42333145D01*
X41579842Y-42316425D01*
X41655609Y-42263372D01*
X41765401Y-42186495D01*
X41932495Y-42019401D01*
X42068035Y-41825830D01*
X42167903Y-41611663D01*
X42229063Y-41383408D01*
X42249659Y-41148000D01*
X42229063Y-40912592D01*
X42167903Y-40684337D01*
X42068035Y-40470171D01*
X42038427Y-40427885D01*
X41932494Y-40276597D01*
X41765402Y-40109506D01*
X41765395Y-40109501D01*
X41571834Y-39973967D01*
X41571830Y-39973965D01*
X41571828Y-39973964D01*
X41357663Y-39874097D01*
X41357659Y-39874096D01*
X41357655Y-39874094D01*
X41129413Y-39812938D01*
X41129403Y-39812936D01*
X40894001Y-39792341D01*
X40893999Y-39792341D01*
X40658596Y-39812936D01*
X40658586Y-39812938D01*
X40430344Y-39874094D01*
X40430335Y-39874098D01*
X40216171Y-39973964D01*
X40216169Y-39973965D01*
X40022597Y-40109505D01*
X39855505Y-40276597D01*
X39719965Y-40470169D01*
X39719964Y-40470171D01*
X39620098Y-40684335D01*
X39620094Y-40684344D01*
X39558938Y-40912586D01*
X39558936Y-40912596D01*
X39538341Y-41147999D01*
X39538341Y-41148000D01*
X39558936Y-41383403D01*
X39558938Y-41383413D01*
X39620094Y-41611655D01*
X39620096Y-41611659D01*
X39620097Y-41611663D01*
X39649858Y-41675485D01*
X39719965Y-41825830D01*
X39719967Y-41825834D01*
X39855501Y-42019395D01*
X39855506Y-42019402D01*
X40022597Y-42186493D01*
X40022603Y-42186498D01*
X40208158Y-42316425D01*
X40251783Y-42371002D01*
X40258977Y-42440500D01*
X40227454Y-42502855D01*
X40208158Y-42519575D01*
X40022597Y-42649505D01*
X39855505Y-42816597D01*
X39719965Y-43010169D01*
X39719964Y-43010171D01*
X39620098Y-43224335D01*
X39620094Y-43224344D01*
X39558938Y-43452586D01*
X39558936Y-43452596D01*
X39538341Y-43687999D01*
X39538341Y-43688000D01*
X20828500Y-43688000D01*
X20828500Y-41656000D01*
X29220659Y-41656000D01*
X29239975Y-41852129D01*
X29297188Y-42040733D01*
X29390086Y-42214532D01*
X29390090Y-42214539D01*
X29515116Y-42366883D01*
X29667460Y-42491909D01*
X29667467Y-42491913D01*
X29841266Y-42584811D01*
X29841269Y-42584811D01*
X29841273Y-42584814D01*
X30029868Y-42642024D01*
X30226000Y-42661341D01*
X30422132Y-42642024D01*
X30610727Y-42584814D01*
X30784538Y-42491910D01*
X30784544Y-42491904D01*
X30789607Y-42488523D01*
X30790703Y-42490164D01*
X30846639Y-42466405D01*
X30915507Y-42478194D01*
X30932148Y-42488888D01*
X30932393Y-42488523D01*
X30937458Y-42491907D01*
X30937462Y-42491910D01*
X31004432Y-42527706D01*
X31107439Y-42582765D01*
X31111273Y-42584814D01*
X31299868Y-42642024D01*
X31496000Y-42661341D01*
X31692132Y-42642024D01*
X31880727Y-42584814D01*
X31883338Y-42583418D01*
X31884864Y-42583100D01*
X31886355Y-42582483D01*
X31886472Y-42582765D01*
X31951737Y-42569174D01*
X32016106Y-42593510D01*
X32023908Y-42599351D01*
X32158623Y-42649597D01*
X32158627Y-42649598D01*
X32218155Y-42655999D01*
X32218172Y-42656000D01*
X32516000Y-42656000D01*
X32516000Y-41863672D01*
X32553871Y-41908805D01*
X32653129Y-41966112D01*
X32737564Y-41981000D01*
X32794436Y-41981000D01*
X32878871Y-41966112D01*
X32978129Y-41908805D01*
X32980483Y-41906000D01*
X33016000Y-41906000D01*
X33016000Y-42656000D01*
X33313828Y-42656000D01*
X33313844Y-42655999D01*
X33373372Y-42649598D01*
X33373379Y-42649596D01*
X33508086Y-42599354D01*
X33508093Y-42599350D01*
X33623187Y-42513190D01*
X33623190Y-42513187D01*
X33709350Y-42398093D01*
X33709354Y-42398086D01*
X33759596Y-42263379D01*
X33759598Y-42263372D01*
X33765999Y-42203844D01*
X33766000Y-42203827D01*
X33766000Y-41906000D01*
X33016000Y-41906000D01*
X32980483Y-41906000D01*
X33051801Y-41821007D01*
X33091000Y-41713306D01*
X33091000Y-41598694D01*
X33051801Y-41490993D01*
X32978129Y-41403195D01*
X32878871Y-41345888D01*
X32794436Y-41331000D01*
X32737564Y-41331000D01*
X32653129Y-41345888D01*
X32553871Y-41403195D01*
X32516000Y-41448327D01*
X32516000Y-40656000D01*
X33016000Y-40656000D01*
X33016000Y-41406000D01*
X33766000Y-41406000D01*
X33766000Y-41108172D01*
X33765999Y-41108155D01*
X33759598Y-41048627D01*
X33759596Y-41048620D01*
X33709354Y-40913913D01*
X33709350Y-40913906D01*
X33623190Y-40798812D01*
X33623187Y-40798809D01*
X33508093Y-40712649D01*
X33508086Y-40712645D01*
X33373379Y-40662403D01*
X33373372Y-40662401D01*
X33313844Y-40656000D01*
X33016000Y-40656000D01*
X32516000Y-40656000D01*
X32218155Y-40656000D01*
X32158627Y-40662401D01*
X32158620Y-40662403D01*
X32023913Y-40712645D01*
X32023907Y-40712648D01*
X32016102Y-40718492D01*
X31950638Y-40742908D01*
X31886470Y-40729249D01*
X31886359Y-40729518D01*
X31884905Y-40728916D01*
X31883341Y-40728583D01*
X31880731Y-40727188D01*
X31880730Y-40727187D01*
X31880727Y-40727186D01*
X31692132Y-40669976D01*
X31692129Y-40669975D01*
X31496000Y-40650659D01*
X31299870Y-40669975D01*
X31111266Y-40727188D01*
X30937467Y-40820086D01*
X30932399Y-40823473D01*
X30931305Y-40821836D01*
X30875337Y-40845596D01*
X30806471Y-40833795D01*
X30789843Y-40823109D01*
X30789601Y-40823473D01*
X30784532Y-40820086D01*
X30610733Y-40727188D01*
X30610727Y-40727186D01*
X30422132Y-40669976D01*
X30422129Y-40669975D01*
X30226000Y-40650659D01*
X30029870Y-40669975D01*
X29841266Y-40727188D01*
X29667467Y-40820086D01*
X29667460Y-40820090D01*
X29515116Y-40945116D01*
X29390090Y-41097460D01*
X29390086Y-41097467D01*
X29297188Y-41271266D01*
X29239975Y-41459870D01*
X29220659Y-41656000D01*
X20828500Y-41656000D01*
X20828500Y-29972000D01*
X26330341Y-29972000D01*
X26350936Y-30207403D01*
X26350938Y-30207413D01*
X26412094Y-30435655D01*
X26412096Y-30435659D01*
X26412097Y-30435663D01*
X26488074Y-30598595D01*
X26511965Y-30649830D01*
X26511967Y-30649834D01*
X26606694Y-30785117D01*
X26640485Y-30833376D01*
X26647501Y-30843395D01*
X26647506Y-30843402D01*
X26769818Y-30965714D01*
X26803303Y-31027037D01*
X26798319Y-31096729D01*
X26756447Y-31152662D01*
X26725471Y-31169577D01*
X26593912Y-31218646D01*
X26593906Y-31218649D01*
X26478812Y-31304809D01*
X26478809Y-31304812D01*
X26392649Y-31419906D01*
X26392645Y-31419913D01*
X26342403Y-31554620D01*
X26342401Y-31554627D01*
X26336000Y-31614155D01*
X26336000Y-32262000D01*
X27252314Y-32262000D01*
X27226507Y-32302156D01*
X27186000Y-32440111D01*
X27186000Y-32583889D01*
X27226507Y-32721844D01*
X27252314Y-32762000D01*
X26336000Y-32762000D01*
X26336000Y-33409844D01*
X26342401Y-33469372D01*
X26342403Y-33469379D01*
X26392645Y-33604086D01*
X26392649Y-33604093D01*
X26478809Y-33719187D01*
X26478812Y-33719190D01*
X26593906Y-33805350D01*
X26593913Y-33805354D01*
X26728620Y-33855596D01*
X26728627Y-33855598D01*
X26788155Y-33861999D01*
X26788172Y-33862000D01*
X27436000Y-33862000D01*
X27436000Y-32947501D01*
X27543685Y-32996680D01*
X27650237Y-33012000D01*
X27721763Y-33012000D01*
X27828315Y-32996680D01*
X27936000Y-32947501D01*
X27936000Y-33862000D01*
X28583828Y-33862000D01*
X28583844Y-33861999D01*
X28643372Y-33855598D01*
X28643379Y-33855596D01*
X28778086Y-33805354D01*
X28778093Y-33805350D01*
X28893187Y-33719190D01*
X28893190Y-33719187D01*
X28979350Y-33604093D01*
X28979354Y-33604086D01*
X29029596Y-33469379D01*
X29029598Y-33469372D01*
X29035999Y-33409844D01*
X29036000Y-33409827D01*
X29036000Y-32762000D01*
X28119686Y-32762000D01*
X28145493Y-32721844D01*
X28186000Y-32583889D01*
X28186000Y-32440111D01*
X28145493Y-32302156D01*
X28119686Y-32262000D01*
X28947416Y-32262000D01*
X29014455Y-32281685D01*
X29035097Y-32298319D01*
X34436390Y-37699611D01*
X34436427Y-37699650D01*
X35180987Y-38444209D01*
X35186107Y-38449647D01*
X35225253Y-38493834D01*
X35225425Y-38494028D01*
X35274222Y-38527711D01*
X35280241Y-38532140D01*
X35326902Y-38568696D01*
X35335873Y-38572733D01*
X35355428Y-38583762D01*
X35363526Y-38589352D01*
X35418950Y-38610371D01*
X35425848Y-38613228D01*
X35479923Y-38637565D01*
X35489604Y-38639339D01*
X35511226Y-38645367D01*
X35520426Y-38648856D01*
X35579276Y-38656001D01*
X35586644Y-38657122D01*
X35644980Y-38667813D01*
X35704147Y-38664234D01*
X35711634Y-38664008D01*
X37178768Y-38664008D01*
X37245807Y-38683693D01*
X37251653Y-38687690D01*
X37347265Y-38757156D01*
X37347270Y-38757159D01*
X37520192Y-38834150D01*
X37520197Y-38834152D01*
X37705354Y-38873508D01*
X37705355Y-38873508D01*
X37894644Y-38873508D01*
X37894646Y-38873508D01*
X38079803Y-38834152D01*
X38252730Y-38757159D01*
X38298410Y-38723971D01*
X38348347Y-38687690D01*
X38414153Y-38664210D01*
X38421232Y-38664008D01*
X52435424Y-38664008D01*
X52502463Y-38683693D01*
X52523105Y-38700327D01*
X54565415Y-40742637D01*
X54598900Y-40803960D01*
X54593916Y-40873652D01*
X54552044Y-40929585D01*
X54486580Y-40954002D01*
X54477734Y-40954318D01*
X54305354Y-40954318D01*
X54272897Y-40961216D01*
X54120197Y-40993673D01*
X54120192Y-40993675D01*
X53947270Y-41070666D01*
X53947265Y-41070669D01*
X53794129Y-41181929D01*
X53667466Y-41322603D01*
X53572821Y-41486533D01*
X53572818Y-41486540D01*
X53514327Y-41666558D01*
X53514326Y-41666562D01*
X53494540Y-41854818D01*
X53514326Y-42043074D01*
X53514327Y-42043077D01*
X53572818Y-42223095D01*
X53572821Y-42223102D01*
X53667467Y-42387034D01*
X53761897Y-42491909D01*
X53794129Y-42527706D01*
X53947265Y-42638966D01*
X53947270Y-42638969D01*
X54120192Y-42715960D01*
X54120197Y-42715962D01*
X54305354Y-42755318D01*
X54325798Y-42755318D01*
X54392837Y-42775003D01*
X54413479Y-42791637D01*
X54899788Y-43277946D01*
X54933273Y-43339269D01*
X54928289Y-43408961D01*
X54904258Y-43448598D01*
X54893470Y-43460578D01*
X54893465Y-43460585D01*
X54798821Y-43624515D01*
X54798818Y-43624522D01*
X54763192Y-43734169D01*
X54740326Y-43804544D01*
X54720540Y-43992800D01*
X54740326Y-44181056D01*
X54740327Y-44181059D01*
X54798818Y-44361077D01*
X54798821Y-44361084D01*
X54893467Y-44525016D01*
X54927977Y-44563343D01*
X55020129Y-44665688D01*
X55173265Y-44776948D01*
X55173270Y-44776951D01*
X55346192Y-44853942D01*
X55346197Y-44853944D01*
X55531354Y-44893300D01*
X55531355Y-44893300D01*
X55720644Y-44893300D01*
X55720646Y-44893300D01*
X55905803Y-44853944D01*
X55957335Y-44831000D01*
X61118135Y-44831000D01*
X61137551Y-45040537D01*
X61137551Y-45040539D01*
X61137552Y-45040542D01*
X61195141Y-45242947D01*
X61195142Y-45242950D01*
X61288942Y-45431325D01*
X61415761Y-45599260D01*
X61527037Y-45700700D01*
X61563319Y-45760411D01*
X61567500Y-45792338D01*
X61567500Y-51363874D01*
X61567274Y-51371361D01*
X61563695Y-51430525D01*
X61563695Y-51430528D01*
X61574379Y-51488833D01*
X61575506Y-51496235D01*
X61582652Y-51555082D01*
X61586144Y-51564292D01*
X61592166Y-51585895D01*
X61593941Y-51595581D01*
X61618272Y-51649644D01*
X61621136Y-51656561D01*
X61642153Y-51711978D01*
X61642156Y-51711982D01*
X61647750Y-51720086D01*
X61658774Y-51739634D01*
X61662808Y-51748599D01*
X61662814Y-51748608D01*
X61699363Y-51795260D01*
X61703802Y-51801292D01*
X61737480Y-51850083D01*
X61781851Y-51889393D01*
X61787305Y-51894527D01*
X63840187Y-53947409D01*
X63873672Y-54008732D01*
X63872281Y-54067182D01*
X63864939Y-54094584D01*
X63864936Y-54094597D01*
X63844341Y-54329999D01*
X63844341Y-54330000D01*
X63864936Y-54565403D01*
X63864938Y-54565413D01*
X63926094Y-54793655D01*
X63926096Y-54793659D01*
X63926097Y-54793663D01*
X64004139Y-54961024D01*
X64025965Y-55007830D01*
X64025967Y-55007834D01*
X64161501Y-55201395D01*
X64161506Y-55201402D01*
X64328597Y-55368493D01*
X64328603Y-55368498D01*
X64514158Y-55498425D01*
X64557783Y-55553002D01*
X64564977Y-55622500D01*
X64533454Y-55684855D01*
X64514158Y-55701575D01*
X64328597Y-55831505D01*
X64161505Y-55998597D01*
X64025965Y-56192169D01*
X64025964Y-56192171D01*
X63926098Y-56406335D01*
X63926094Y-56406344D01*
X63864938Y-56634586D01*
X63864936Y-56634596D01*
X63844341Y-56869999D01*
X63844341Y-56870000D01*
X63864936Y-57105403D01*
X63864938Y-57105413D01*
X63926094Y-57333655D01*
X63926096Y-57333659D01*
X63926097Y-57333663D01*
X64025965Y-57547830D01*
X64025967Y-57547834D01*
X64161501Y-57741395D01*
X64161506Y-57741402D01*
X64328597Y-57908493D01*
X64328603Y-57908498D01*
X64514158Y-58038425D01*
X64557783Y-58093002D01*
X64564977Y-58162500D01*
X64533454Y-58224855D01*
X64514158Y-58241575D01*
X64328597Y-58371505D01*
X64161505Y-58538597D01*
X64025965Y-58732169D01*
X64025964Y-58732171D01*
X63926098Y-58946335D01*
X63926094Y-58946344D01*
X63864938Y-59174586D01*
X63864936Y-59174596D01*
X63844341Y-59409999D01*
X63844341Y-59410000D01*
X63864936Y-59645403D01*
X63864938Y-59645413D01*
X63926094Y-59873655D01*
X63926096Y-59873659D01*
X63926097Y-59873663D01*
X63958896Y-59944000D01*
X64025965Y-60087830D01*
X64025967Y-60087834D01*
X64161501Y-60281395D01*
X64161506Y-60281402D01*
X64328597Y-60448493D01*
X64328603Y-60448498D01*
X64514158Y-60578425D01*
X64557783Y-60633002D01*
X64564977Y-60702500D01*
X64533454Y-60764855D01*
X64514158Y-60781575D01*
X64328597Y-60911505D01*
X64161505Y-61078597D01*
X64025965Y-61272169D01*
X64025964Y-61272171D01*
X63926098Y-61486335D01*
X63926094Y-61486344D01*
X63864938Y-61714586D01*
X63864936Y-61714596D01*
X63844341Y-61949999D01*
X63844341Y-61950000D01*
X63864936Y-62185403D01*
X63864938Y-62185413D01*
X63926094Y-62413655D01*
X63926096Y-62413659D01*
X63926097Y-62413663D01*
X64013993Y-62602155D01*
X64025965Y-62627830D01*
X64025967Y-62627834D01*
X64088791Y-62717555D01*
X64161505Y-62821401D01*
X64328599Y-62988495D01*
X64425384Y-63056265D01*
X64522165Y-63124032D01*
X64522167Y-63124033D01*
X64522170Y-63124035D01*
X64736337Y-63223903D01*
X64964592Y-63285063D01*
X65152918Y-63301539D01*
X65199999Y-63305659D01*
X65200000Y-63305659D01*
X65200001Y-63305659D01*
X65239234Y-63302226D01*
X65435408Y-63285063D01*
X65663663Y-63223903D01*
X65877830Y-63124035D01*
X66071401Y-62988495D01*
X66238495Y-62821401D01*
X66374035Y-62627830D01*
X66473903Y-62413663D01*
X66535063Y-62185408D01*
X66555659Y-61950000D01*
X66535063Y-61714592D01*
X66473903Y-61486337D01*
X66374035Y-61272171D01*
X66364914Y-61259144D01*
X66238494Y-61078597D01*
X66071402Y-60911506D01*
X66071396Y-60911501D01*
X65885842Y-60781575D01*
X65842217Y-60726998D01*
X65835023Y-60657500D01*
X65866546Y-60595145D01*
X65885842Y-60578425D01*
X65908026Y-60562891D01*
X66071401Y-60448495D01*
X66238495Y-60281401D01*
X66374035Y-60087830D01*
X66473903Y-59873663D01*
X66535063Y-59645408D01*
X66555659Y-59410000D01*
X66535063Y-59174592D01*
X66477021Y-58957975D01*
X66473905Y-58946344D01*
X66473904Y-58946343D01*
X66473903Y-58946337D01*
X66374035Y-58732171D01*
X66367949Y-58723478D01*
X66238494Y-58538597D01*
X66071402Y-58371506D01*
X66071396Y-58371501D01*
X65885842Y-58241575D01*
X65842217Y-58186998D01*
X65835023Y-58117500D01*
X65866546Y-58055145D01*
X65885842Y-58038425D01*
X65947442Y-57995292D01*
X66071401Y-57908495D01*
X66238495Y-57741401D01*
X66374035Y-57547830D01*
X66473903Y-57333663D01*
X66535063Y-57105408D01*
X66555659Y-56870000D01*
X66535063Y-56634592D01*
X66473903Y-56406337D01*
X66374035Y-56192171D01*
X66311280Y-56102546D01*
X66238494Y-55998597D01*
X66071402Y-55831506D01*
X66071396Y-55831501D01*
X65885842Y-55701575D01*
X65842217Y-55646998D01*
X65835023Y-55577500D01*
X65866546Y-55515145D01*
X65885842Y-55498425D01*
X65917128Y-55476518D01*
X66071401Y-55368495D01*
X66238495Y-55201401D01*
X66374035Y-55007830D01*
X66473903Y-54793663D01*
X66535063Y-54565408D01*
X66555659Y-54330000D01*
X66535063Y-54094592D01*
X66473903Y-53866337D01*
X66374035Y-53652171D01*
X66350259Y-53618214D01*
X66238494Y-53458597D01*
X66071402Y-53291506D01*
X66071401Y-53291505D01*
X65885405Y-53161269D01*
X65841781Y-53106692D01*
X65834588Y-53037193D01*
X65866110Y-52974839D01*
X65885405Y-52958119D01*
X66071082Y-52828105D01*
X66238105Y-52661082D01*
X66373600Y-52467578D01*
X66473429Y-52253492D01*
X66473432Y-52253486D01*
X66530636Y-52040000D01*
X65633686Y-52040000D01*
X65659493Y-51999844D01*
X65700000Y-51861889D01*
X65700000Y-51718111D01*
X65659493Y-51580156D01*
X65633686Y-51540000D01*
X66530636Y-51540000D01*
X66530635Y-51539999D01*
X66473432Y-51326513D01*
X66473429Y-51326507D01*
X66373600Y-51112422D01*
X66373599Y-51112420D01*
X66238113Y-50918926D01*
X66238108Y-50918920D01*
X66115665Y-50796477D01*
X66082180Y-50735154D01*
X66087164Y-50665462D01*
X66129036Y-50609529D01*
X66160013Y-50592614D01*
X66292086Y-50543354D01*
X66292093Y-50543350D01*
X66407187Y-50457190D01*
X66407190Y-50457187D01*
X66493350Y-50342093D01*
X66493354Y-50342086D01*
X66543596Y-50207379D01*
X66543598Y-50207372D01*
X66549999Y-50147844D01*
X66550000Y-50147827D01*
X66550000Y-49500000D01*
X65633686Y-49500000D01*
X65659493Y-49459844D01*
X65700000Y-49321889D01*
X65700000Y-49178111D01*
X65659493Y-49040156D01*
X65633686Y-49000000D01*
X66550000Y-49000000D01*
X66550000Y-48352172D01*
X66549999Y-48352155D01*
X66543598Y-48292627D01*
X66543596Y-48292620D01*
X66493354Y-48157913D01*
X66493350Y-48157906D01*
X66407190Y-48042812D01*
X66407187Y-48042809D01*
X66292093Y-47956649D01*
X66292086Y-47956645D01*
X66157379Y-47906403D01*
X66157372Y-47906401D01*
X66097844Y-47900000D01*
X65450000Y-47900000D01*
X65450000Y-48814498D01*
X65342315Y-48765320D01*
X65235763Y-48750000D01*
X65164237Y-48750000D01*
X65057685Y-48765320D01*
X64950000Y-48814498D01*
X64950000Y-47900000D01*
X64302155Y-47900000D01*
X64242627Y-47906401D01*
X64242620Y-47906403D01*
X64107913Y-47956645D01*
X64107906Y-47956649D01*
X63992812Y-48042809D01*
X63992809Y-48042812D01*
X63906649Y-48157906D01*
X63906645Y-48157913D01*
X63856403Y-48292620D01*
X63856401Y-48292627D01*
X63850000Y-48352155D01*
X63850000Y-49000000D01*
X64766314Y-49000000D01*
X64740507Y-49040156D01*
X64700000Y-49178111D01*
X64700000Y-49321889D01*
X64740507Y-49459844D01*
X64766314Y-49500000D01*
X63850000Y-49500000D01*
X63850000Y-50147844D01*
X63856401Y-50207372D01*
X63856403Y-50207379D01*
X63906645Y-50342086D01*
X63906649Y-50342093D01*
X63992809Y-50457187D01*
X63992812Y-50457190D01*
X64107906Y-50543350D01*
X64107913Y-50543354D01*
X64239986Y-50592614D01*
X64295920Y-50634485D01*
X64320337Y-50699949D01*
X64305486Y-50768222D01*
X64284335Y-50796477D01*
X64161886Y-50918926D01*
X64026400Y-51112420D01*
X64026399Y-51112422D01*
X63926570Y-51326507D01*
X63926567Y-51326513D01*
X63869364Y-51539999D01*
X63869364Y-51540000D01*
X64766314Y-51540000D01*
X64740507Y-51580156D01*
X64700000Y-51718111D01*
X64700000Y-51861889D01*
X64740507Y-51999844D01*
X64766314Y-52040000D01*
X63938584Y-52040000D01*
X63871545Y-52020315D01*
X63850903Y-52003681D01*
X62985819Y-51138597D01*
X62952334Y-51077274D01*
X62949500Y-51050916D01*
X62949500Y-45792338D01*
X62969185Y-45725299D01*
X62989963Y-45700700D01*
X63101240Y-45599259D01*
X63228058Y-45431325D01*
X63321859Y-45242947D01*
X63379448Y-45040542D01*
X63398865Y-44831000D01*
X63379448Y-44621458D01*
X63321859Y-44419053D01*
X63228058Y-44230675D01*
X63101240Y-44062741D01*
X62945723Y-43920969D01*
X62945721Y-43920967D01*
X62766807Y-43810188D01*
X62766801Y-43810185D01*
X62612148Y-43750273D01*
X62570576Y-43734168D01*
X62363720Y-43695500D01*
X62153280Y-43695500D01*
X61946424Y-43734168D01*
X61946421Y-43734168D01*
X61946421Y-43734169D01*
X61750198Y-43810185D01*
X61750192Y-43810188D01*
X61571278Y-43920967D01*
X61571276Y-43920969D01*
X61415761Y-44062739D01*
X61288942Y-44230674D01*
X61195142Y-44419049D01*
X61137551Y-44621462D01*
X61118135Y-44830999D01*
X61118135Y-44831000D01*
X55957335Y-44831000D01*
X56078730Y-44776951D01*
X56231871Y-44665688D01*
X56358533Y-44525016D01*
X56453179Y-44361084D01*
X56511674Y-44181056D01*
X56531460Y-43992800D01*
X56511674Y-43804544D01*
X56453179Y-43624516D01*
X56358533Y-43460584D01*
X56358529Y-43460578D01*
X56310750Y-43407514D01*
X56280520Y-43344522D01*
X56278900Y-43324542D01*
X56278900Y-43166583D01*
X56280671Y-43150534D01*
X56280434Y-43150512D01*
X56281168Y-43142749D01*
X56278961Y-43072513D01*
X56278900Y-43068619D01*
X56278900Y-43039747D01*
X56278900Y-43039743D01*
X56278342Y-43035334D01*
X56277426Y-43023686D01*
X56275987Y-42977870D01*
X56270030Y-42957367D01*
X56266087Y-42938320D01*
X56263414Y-42917159D01*
X56263413Y-42917156D01*
X56246541Y-42874543D01*
X56242756Y-42863489D01*
X56229965Y-42819459D01*
X56219097Y-42801083D01*
X56210542Y-42783619D01*
X56202688Y-42763781D01*
X56175738Y-42726688D01*
X56169326Y-42716925D01*
X56145996Y-42677475D01*
X56145987Y-42677465D01*
X56130906Y-42662384D01*
X56118271Y-42647592D01*
X56105726Y-42630325D01*
X56105723Y-42630323D01*
X56105723Y-42630322D01*
X56105722Y-42630321D01*
X56070403Y-42601103D01*
X56061762Y-42593240D01*
X55976993Y-42508471D01*
X55969891Y-42495465D01*
X55967835Y-42494886D01*
X55946044Y-42477522D01*
X55334410Y-41865888D01*
X55300925Y-41804565D01*
X55298771Y-41791173D01*
X55298356Y-41787226D01*
X55310922Y-41718496D01*
X55358652Y-41667470D01*
X55426392Y-41650350D01*
X55492634Y-41672570D01*
X55509357Y-41686579D01*
X56093979Y-42271201D01*
X56099099Y-42276639D01*
X56126541Y-42307615D01*
X56130408Y-42315841D01*
X56135113Y-42318739D01*
X56138415Y-42321018D01*
X56138417Y-42321020D01*
X56187215Y-42354702D01*
X56193243Y-42359138D01*
X56239890Y-42395685D01*
X56239893Y-42395687D01*
X56239894Y-42395687D01*
X56239895Y-42395688D01*
X56248866Y-42399725D01*
X56268411Y-42410748D01*
X56276518Y-42416344D01*
X56276519Y-42416344D01*
X56276520Y-42416345D01*
X56276522Y-42416346D01*
X56310305Y-42429158D01*
X56331943Y-42437364D01*
X56338842Y-42440221D01*
X56392915Y-42464557D01*
X56402596Y-42466331D01*
X56424218Y-42472359D01*
X56433418Y-42475848D01*
X56492268Y-42482993D01*
X56499636Y-42484114D01*
X56557972Y-42494805D01*
X56617139Y-42491226D01*
X56624626Y-42491000D01*
X68252374Y-42491000D01*
X68259861Y-42491226D01*
X68319026Y-42494805D01*
X68319026Y-42494804D01*
X68319028Y-42494805D01*
X68377336Y-42484119D01*
X68384730Y-42482993D01*
X68443582Y-42475848D01*
X68452788Y-42472356D01*
X68474403Y-42466330D01*
X68484085Y-42464557D01*
X68538161Y-42440218D01*
X68545017Y-42437378D01*
X68600482Y-42416344D01*
X68608580Y-42410754D01*
X68628139Y-42399722D01*
X68637105Y-42395688D01*
X68683766Y-42359130D01*
X68689798Y-42354692D01*
X68738583Y-42321020D01*
X68777917Y-42276619D01*
X68783003Y-42271217D01*
X70199367Y-40854852D01*
X70260688Y-40821369D01*
X70297846Y-40819007D01*
X70464690Y-40833604D01*
X70478399Y-40834804D01*
X70478400Y-40834804D01*
X70478401Y-40834804D01*
X70514177Y-40831673D01*
X70693065Y-40816023D01*
X70901207Y-40760252D01*
X71096502Y-40669184D01*
X71273017Y-40545587D01*
X71390719Y-40427885D01*
X71452042Y-40394400D01*
X71521734Y-40399384D01*
X71566081Y-40427885D01*
X71683781Y-40545585D01*
X71683787Y-40545590D01*
X71860296Y-40669183D01*
X71860298Y-40669184D01*
X72055593Y-40760252D01*
X72055599Y-40760253D01*
X72055600Y-40760254D01*
X72105698Y-40773677D01*
X72263735Y-40816023D01*
X72435467Y-40831047D01*
X72478399Y-40834804D01*
X72478400Y-40834804D01*
X72478401Y-40834804D01*
X72514177Y-40831673D01*
X72693065Y-40816023D01*
X72901207Y-40760252D01*
X73096502Y-40669184D01*
X73273017Y-40545587D01*
X73425387Y-40393217D01*
X73548984Y-40216702D01*
X73640052Y-40021407D01*
X73695823Y-39813265D01*
X73714604Y-39598600D01*
X73695823Y-39383935D01*
X73640052Y-39175793D01*
X73548984Y-38980498D01*
X73535086Y-38960650D01*
X73425390Y-38803987D01*
X73425385Y-38803981D01*
X73273018Y-38651614D01*
X73273012Y-38651609D01*
X73096503Y-38528016D01*
X73096501Y-38528015D01*
X72998854Y-38482482D01*
X72901207Y-38436948D01*
X72901203Y-38436947D01*
X72901199Y-38436945D01*
X72693070Y-38381178D01*
X72693060Y-38381176D01*
X72478401Y-38362396D01*
X72478399Y-38362396D01*
X72263739Y-38381176D01*
X72263729Y-38381178D01*
X72055600Y-38436945D01*
X72055591Y-38436949D01*
X71860298Y-38528015D01*
X71860296Y-38528016D01*
X71683787Y-38651609D01*
X71683781Y-38651614D01*
X71566081Y-38769315D01*
X71504758Y-38802800D01*
X71435066Y-38797816D01*
X71390719Y-38769315D01*
X71273018Y-38651614D01*
X71273012Y-38651609D01*
X71096503Y-38528016D01*
X71096501Y-38528015D01*
X70998854Y-38482482D01*
X70901207Y-38436948D01*
X70901203Y-38436947D01*
X70901199Y-38436945D01*
X70811675Y-38412958D01*
X70752014Y-38376593D01*
X70721485Y-38313746D01*
X70729780Y-38244371D01*
X70756087Y-38205502D01*
X70921046Y-38040544D01*
X71099771Y-37861819D01*
X71161094Y-37828334D01*
X71187452Y-37825500D01*
X72889548Y-37825500D01*
X72956587Y-37845185D01*
X72977229Y-37861819D01*
X74338181Y-39222771D01*
X74371666Y-39284094D01*
X74374500Y-39310452D01*
X74374500Y-41089546D01*
X74354815Y-41156585D01*
X74338181Y-41177227D01*
X71488208Y-44027199D01*
X71475951Y-44037020D01*
X71476134Y-44037241D01*
X71470122Y-44042214D01*
X71424098Y-44091223D01*
X71421391Y-44094016D01*
X71401889Y-44113517D01*
X71401875Y-44113534D01*
X71399407Y-44116715D01*
X71391843Y-44125570D01*
X71361937Y-44157418D01*
X71361936Y-44157420D01*
X71352284Y-44174976D01*
X71341610Y-44191226D01*
X71329329Y-44207061D01*
X71329324Y-44207068D01*
X71311975Y-44247158D01*
X71306838Y-44257644D01*
X71285803Y-44295906D01*
X71280822Y-44315307D01*
X71274521Y-44333710D01*
X71266562Y-44352102D01*
X71266561Y-44352105D01*
X71259728Y-44395243D01*
X71257360Y-44406674D01*
X71246501Y-44448971D01*
X71246500Y-44448982D01*
X71246500Y-44469016D01*
X71244973Y-44488415D01*
X71241840Y-44508194D01*
X71241840Y-44508195D01*
X71245950Y-44551674D01*
X71246500Y-44563343D01*
X71246500Y-46678533D01*
X71226815Y-46745572D01*
X71174011Y-46791327D01*
X71165836Y-46794714D01*
X71129665Y-46808205D01*
X71014455Y-46894452D01*
X71014452Y-46894455D01*
X70928206Y-47009664D01*
X70928202Y-47009671D01*
X70877908Y-47144517D01*
X70871501Y-47204116D01*
X70871500Y-47204135D01*
X70871500Y-48299870D01*
X70871501Y-48299876D01*
X70877908Y-48359483D01*
X70928202Y-48494328D01*
X70928206Y-48494335D01*
X71014452Y-48609544D01*
X71014455Y-48609547D01*
X71129664Y-48695793D01*
X71129671Y-48695797D01*
X71264517Y-48746091D01*
X71264516Y-48746091D01*
X71271444Y-48746835D01*
X71324127Y-48752500D01*
X72419872Y-48752499D01*
X72479483Y-48746091D01*
X72614331Y-48695796D01*
X72622379Y-48689770D01*
X72687842Y-48665351D01*
X72751474Y-48678895D01*
X72751645Y-48678483D01*
X72753875Y-48679406D01*
X72755146Y-48679677D01*
X72757273Y-48680814D01*
X72945868Y-48738024D01*
X73142000Y-48757341D01*
X73338132Y-48738024D01*
X73526727Y-48680814D01*
X73700538Y-48587910D01*
X73700544Y-48587904D01*
X73705607Y-48584523D01*
X73706703Y-48586164D01*
X73762639Y-48562405D01*
X73831507Y-48574194D01*
X73848148Y-48584888D01*
X73848393Y-48584523D01*
X73853458Y-48587907D01*
X73853462Y-48587910D01*
X73998344Y-48665351D01*
X74025147Y-48679678D01*
X74027273Y-48680814D01*
X74215868Y-48738024D01*
X74412000Y-48757341D01*
X74608132Y-48738024D01*
X74796727Y-48680814D01*
X74970538Y-48587910D01*
X74970544Y-48587904D01*
X74975607Y-48584523D01*
X74976703Y-48586164D01*
X75032639Y-48562405D01*
X75101507Y-48574194D01*
X75118148Y-48584888D01*
X75118393Y-48584523D01*
X75123458Y-48587907D01*
X75123462Y-48587910D01*
X75268344Y-48665351D01*
X75295147Y-48679678D01*
X75297273Y-48680814D01*
X75485868Y-48738024D01*
X75682000Y-48757341D01*
X75878132Y-48738024D01*
X76066727Y-48680814D01*
X76240538Y-48587910D01*
X76240544Y-48587904D01*
X76245607Y-48584523D01*
X76246703Y-48586164D01*
X76302639Y-48562405D01*
X76371507Y-48574194D01*
X76388148Y-48584888D01*
X76388393Y-48584523D01*
X76393458Y-48587907D01*
X76393462Y-48587910D01*
X76538344Y-48665351D01*
X76565147Y-48679678D01*
X76567273Y-48680814D01*
X76755868Y-48738024D01*
X76952000Y-48757341D01*
X77148132Y-48738024D01*
X77336727Y-48680814D01*
X77338853Y-48679678D01*
X77470060Y-48609546D01*
X77510538Y-48587910D01*
X77662883Y-48462883D01*
X77787910Y-48310538D01*
X77849781Y-48194786D01*
X77880811Y-48136733D01*
X77880811Y-48136732D01*
X77880814Y-48136727D01*
X77938024Y-47948132D01*
X77957341Y-47752000D01*
X77938024Y-47555868D01*
X77880814Y-47367273D01*
X77880811Y-47367269D01*
X77880811Y-47367266D01*
X77787913Y-47193467D01*
X77787909Y-47193460D01*
X77662883Y-47041116D01*
X77510539Y-46916090D01*
X77510532Y-46916086D01*
X77336733Y-46823188D01*
X77336727Y-46823186D01*
X77148132Y-46765976D01*
X77148129Y-46765975D01*
X76952000Y-46746659D01*
X76755870Y-46765975D01*
X76567266Y-46823188D01*
X76393467Y-46916086D01*
X76388399Y-46919473D01*
X76387305Y-46917836D01*
X76331337Y-46941596D01*
X76262471Y-46929795D01*
X76245843Y-46919109D01*
X76245601Y-46919473D01*
X76240532Y-46916086D01*
X76066733Y-46823188D01*
X76066727Y-46823186D01*
X75878132Y-46765976D01*
X75878129Y-46765975D01*
X75682000Y-46746659D01*
X75485870Y-46765975D01*
X75297266Y-46823188D01*
X75123467Y-46916086D01*
X75118399Y-46919473D01*
X75117305Y-46917836D01*
X75061337Y-46941596D01*
X74992471Y-46929795D01*
X74975843Y-46919109D01*
X74975601Y-46919473D01*
X74970532Y-46916086D01*
X74796733Y-46823188D01*
X74796727Y-46823186D01*
X74608132Y-46765976D01*
X74608129Y-46765975D01*
X74412000Y-46746659D01*
X74215870Y-46765975D01*
X74027266Y-46823188D01*
X73853467Y-46916086D01*
X73848399Y-46919473D01*
X73847305Y-46917836D01*
X73791337Y-46941596D01*
X73722471Y-46929795D01*
X73705843Y-46919109D01*
X73705601Y-46919473D01*
X73700532Y-46916086D01*
X73526733Y-46823188D01*
X73526727Y-46823186D01*
X73338132Y-46765976D01*
X73338129Y-46765975D01*
X73142000Y-46746659D01*
X72945870Y-46765975D01*
X72869121Y-46789257D01*
X72757273Y-46823186D01*
X72757270Y-46823187D01*
X72757265Y-46823189D01*
X72755136Y-46824327D01*
X72753890Y-46824586D01*
X72751641Y-46825518D01*
X72751464Y-46825091D01*
X72686732Y-46838563D01*
X72622384Y-46814233D01*
X72614331Y-46808204D01*
X72592326Y-46799996D01*
X72578164Y-46794714D01*
X72522231Y-46752841D01*
X72497816Y-46687376D01*
X72497500Y-46678533D01*
X72497500Y-44838452D01*
X72517185Y-44771413D01*
X72533819Y-44750771D01*
X73945321Y-43339269D01*
X75383788Y-41900801D01*
X75396042Y-41890986D01*
X75395859Y-41890764D01*
X75401868Y-41885791D01*
X75401877Y-41885786D01*
X75447949Y-41836722D01*
X75450566Y-41834023D01*
X75470120Y-41814471D01*
X75472576Y-41811303D01*
X75480156Y-41802427D01*
X75510062Y-41770582D01*
X75519715Y-41753020D01*
X75530389Y-41736770D01*
X75542673Y-41720936D01*
X75560019Y-41680850D01*
X75565157Y-41670362D01*
X75567247Y-41666562D01*
X75586197Y-41632092D01*
X75591177Y-41612691D01*
X75597478Y-41594288D01*
X75605438Y-41575896D01*
X75612272Y-41532741D01*
X75614635Y-41521331D01*
X75625500Y-41479019D01*
X75625500Y-41458983D01*
X75627027Y-41439582D01*
X75630160Y-41419804D01*
X75626050Y-41376324D01*
X75625500Y-41364655D01*
X75625500Y-39082737D01*
X75627224Y-39067123D01*
X75626938Y-39067096D01*
X75627672Y-39059333D01*
X75625561Y-38992143D01*
X75625500Y-38988249D01*
X75625500Y-38960651D01*
X75625500Y-38960650D01*
X75624997Y-38956670D01*
X75624080Y-38945021D01*
X75622709Y-38901374D01*
X75622709Y-38901372D01*
X75617120Y-38882137D01*
X75613174Y-38863084D01*
X75610664Y-38843208D01*
X75594578Y-38802581D01*
X75590803Y-38791554D01*
X75578617Y-38749610D01*
X75568421Y-38732369D01*
X75559860Y-38714893D01*
X75552486Y-38696269D01*
X75552485Y-38696267D01*
X75526809Y-38660926D01*
X75520412Y-38651190D01*
X75498170Y-38613579D01*
X75498167Y-38613576D01*
X75498165Y-38613573D01*
X75484005Y-38599413D01*
X75471370Y-38584620D01*
X75461982Y-38571700D01*
X75459594Y-38568413D01*
X75425945Y-38540576D01*
X75417304Y-38532713D01*
X73700803Y-36816212D01*
X73690980Y-36803950D01*
X73690759Y-36804134D01*
X73685786Y-36798122D01*
X73636776Y-36752099D01*
X73633977Y-36749386D01*
X73614477Y-36729885D01*
X73614471Y-36729880D01*
X73611286Y-36727409D01*
X73602434Y-36719848D01*
X73570582Y-36689938D01*
X73570580Y-36689936D01*
X73570577Y-36689935D01*
X73553029Y-36680288D01*
X73536763Y-36669604D01*
X73520932Y-36657324D01*
X73480849Y-36639978D01*
X73470363Y-36634841D01*
X73432094Y-36613803D01*
X73432092Y-36613802D01*
X73412693Y-36608822D01*
X73394281Y-36602518D01*
X73375898Y-36594562D01*
X73375892Y-36594560D01*
X73332760Y-36587729D01*
X73321322Y-36585361D01*
X73279020Y-36574500D01*
X73279019Y-36574500D01*
X73258984Y-36574500D01*
X73239586Y-36572973D01*
X73232162Y-36571797D01*
X73219805Y-36569840D01*
X73219804Y-36569840D01*
X73176325Y-36573950D01*
X73164656Y-36574500D01*
X70959743Y-36574500D01*
X70944122Y-36572775D01*
X70944095Y-36573061D01*
X70936333Y-36572326D01*
X70869113Y-36574439D01*
X70865219Y-36574500D01*
X70837650Y-36574500D01*
X70833673Y-36575002D01*
X70822042Y-36575917D01*
X70778374Y-36577289D01*
X70778368Y-36577290D01*
X70759126Y-36582880D01*
X70740087Y-36586823D01*
X70720217Y-36589334D01*
X70720203Y-36589337D01*
X70679598Y-36605413D01*
X70668554Y-36609194D01*
X70626614Y-36621379D01*
X70626610Y-36621381D01*
X70609366Y-36631579D01*
X70591905Y-36640133D01*
X70573274Y-36647510D01*
X70573262Y-36647517D01*
X70537933Y-36673185D01*
X70528173Y-36679596D01*
X70490580Y-36701829D01*
X70476414Y-36715995D01*
X70461624Y-36728627D01*
X70445414Y-36740404D01*
X70445411Y-36740407D01*
X70417573Y-36774058D01*
X70409711Y-36782697D01*
X68836882Y-38355525D01*
X68775559Y-38389010D01*
X68717109Y-38387619D01*
X68693073Y-38381179D01*
X68693069Y-38381178D01*
X68693065Y-38381177D01*
X68693063Y-38381176D01*
X68693060Y-38381176D01*
X68478401Y-38362396D01*
X68478396Y-38362396D01*
X68386753Y-38370413D01*
X68318253Y-38356646D01*
X68268071Y-38308030D01*
X68252138Y-38240001D01*
X68275514Y-38174158D01*
X68322139Y-38135169D01*
X68518640Y-38040540D01*
X68738510Y-37890635D01*
X68933583Y-37709633D01*
X69099501Y-37501580D01*
X69232556Y-37271121D01*
X69329777Y-37023405D01*
X69388993Y-36763967D01*
X69388994Y-36763957D01*
X69408879Y-36498604D01*
X69408879Y-36498595D01*
X69388994Y-36233242D01*
X69388994Y-36233240D01*
X69388993Y-36233236D01*
X69388993Y-36233233D01*
X69329777Y-35973795D01*
X69232556Y-35726079D01*
X69099501Y-35495620D01*
X68933583Y-35287567D01*
X68933582Y-35287566D01*
X68933579Y-35287562D01*
X68738510Y-35106565D01*
X68738507Y-35106563D01*
X68518640Y-34956660D01*
X68518636Y-34956658D01*
X68518633Y-34956656D01*
X68518632Y-34956655D01*
X68278884Y-34841200D01*
X68278886Y-34841200D01*
X68024595Y-34762761D01*
X68024589Y-34762759D01*
X67761462Y-34723100D01*
X67761455Y-34723100D01*
X67495345Y-34723100D01*
X67495337Y-34723100D01*
X67232210Y-34762759D01*
X67232204Y-34762761D01*
X66977914Y-34841200D01*
X66738169Y-34956655D01*
X66738160Y-34956660D01*
X66518292Y-35106563D01*
X66323220Y-35287562D01*
X66157299Y-35495620D01*
X66024244Y-35726078D01*
X65927025Y-35973789D01*
X65927020Y-35973806D01*
X65867805Y-36233240D01*
X65867805Y-36233242D01*
X65847921Y-36498595D01*
X65847921Y-36498604D01*
X65867805Y-36763957D01*
X65867805Y-36763959D01*
X65867807Y-36763967D01*
X65927023Y-37023405D01*
X66024244Y-37271121D01*
X66157299Y-37501580D01*
X66291306Y-37669618D01*
X66323220Y-37709637D01*
X66437732Y-37815888D01*
X66518290Y-37890635D01*
X66738161Y-38040540D01*
X66977914Y-38155999D01*
X66977915Y-38155999D01*
X66977918Y-38156001D01*
X67232206Y-38234439D01*
X67232207Y-38234439D01*
X67232210Y-38234440D01*
X67495337Y-38274099D01*
X67495342Y-38274099D01*
X67495345Y-38274100D01*
X67495346Y-38274100D01*
X67761454Y-38274100D01*
X67761455Y-38274100D01*
X67862711Y-38258838D01*
X67931934Y-38268311D01*
X67985048Y-38313705D01*
X68005188Y-38380609D01*
X67985960Y-38447781D01*
X67933597Y-38493834D01*
X67860303Y-38528012D01*
X67860296Y-38528016D01*
X67683787Y-38651609D01*
X67683781Y-38651614D01*
X67531414Y-38803981D01*
X67531409Y-38803987D01*
X67407816Y-38980496D01*
X67407815Y-38980498D01*
X67316749Y-39175791D01*
X67316745Y-39175800D01*
X67260978Y-39383929D01*
X67260976Y-39383939D01*
X67242196Y-39598599D01*
X67242196Y-39598600D01*
X67260976Y-39813260D01*
X67260978Y-39813270D01*
X67316745Y-40021399D01*
X67316747Y-40021403D01*
X67316748Y-40021407D01*
X67357827Y-40109501D01*
X67407815Y-40216701D01*
X67407816Y-40216703D01*
X67531409Y-40393212D01*
X67531414Y-40393218D01*
X67683781Y-40545585D01*
X67683787Y-40545590D01*
X67860296Y-40669183D01*
X67860298Y-40669184D01*
X68055593Y-40760252D01*
X68072066Y-40764666D01*
X68131726Y-40801029D01*
X68162257Y-40863875D01*
X68153963Y-40933251D01*
X68127656Y-40972120D01*
X68027095Y-41072682D01*
X67965775Y-41106166D01*
X67939416Y-41109000D01*
X56937584Y-41109000D01*
X56870545Y-41089315D01*
X56849903Y-41072681D01*
X53279035Y-37501813D01*
X53273901Y-37496359D01*
X53234591Y-37451988D01*
X53185800Y-37418310D01*
X53179768Y-37413871D01*
X53133116Y-37377322D01*
X53133107Y-37377316D01*
X53124142Y-37373282D01*
X53104594Y-37362258D01*
X53096490Y-37356664D01*
X53096486Y-37356661D01*
X53041069Y-37335644D01*
X53034152Y-37332780D01*
X52980089Y-37308449D01*
X52980090Y-37308449D01*
X52970403Y-37306674D01*
X52948800Y-37300652D01*
X52939590Y-37297160D01*
X52880743Y-37290014D01*
X52873341Y-37288887D01*
X52815038Y-37278203D01*
X52815033Y-37278203D01*
X52755869Y-37281782D01*
X52748382Y-37282008D01*
X38421232Y-37282008D01*
X38354193Y-37262323D01*
X38348347Y-37258326D01*
X38252734Y-37188859D01*
X38252729Y-37188856D01*
X38079807Y-37111865D01*
X38079802Y-37111863D01*
X37934001Y-37080873D01*
X37894646Y-37072508D01*
X37705354Y-37072508D01*
X37672897Y-37079406D01*
X37520197Y-37111863D01*
X37520192Y-37111865D01*
X37347270Y-37188856D01*
X37347265Y-37188859D01*
X37251653Y-37258326D01*
X37185847Y-37281806D01*
X37178768Y-37282008D01*
X36024592Y-37282008D01*
X35957553Y-37262323D01*
X35936911Y-37245689D01*
X35413650Y-36722427D01*
X35413611Y-36722390D01*
X30187222Y-31496000D01*
X55128659Y-31496000D01*
X55147975Y-31692129D01*
X55205188Y-31880733D01*
X55298086Y-32054532D01*
X55298090Y-32054539D01*
X55423116Y-32206883D01*
X55575460Y-32331909D01*
X55575467Y-32331913D01*
X55749266Y-32424811D01*
X55749269Y-32424811D01*
X55749273Y-32424814D01*
X55937868Y-32482024D01*
X56134000Y-32501341D01*
X56330132Y-32482024D01*
X56518727Y-32424814D01*
X56692538Y-32331910D01*
X56844883Y-32206883D01*
X56969910Y-32054538D01*
X57037827Y-31927475D01*
X57062811Y-31880733D01*
X57062811Y-31880732D01*
X57062814Y-31880727D01*
X57120024Y-31692132D01*
X57139341Y-31496000D01*
X57120024Y-31299868D01*
X57062814Y-31111273D01*
X57061419Y-31108663D01*
X57061100Y-31107135D01*
X57060482Y-31105641D01*
X57060765Y-31105523D01*
X57047174Y-31040261D01*
X57071512Y-30975890D01*
X57077351Y-30968089D01*
X57127597Y-30833376D01*
X57127598Y-30833372D01*
X57133999Y-30773844D01*
X57134000Y-30773827D01*
X57134000Y-30476000D01*
X56348483Y-30476000D01*
X56419801Y-30391007D01*
X56459000Y-30283306D01*
X56459000Y-30168694D01*
X56419801Y-30060993D01*
X56346129Y-29973195D01*
X56246871Y-29915888D01*
X56162436Y-29901000D01*
X56105564Y-29901000D01*
X56021129Y-29915888D01*
X55921871Y-29973195D01*
X55848199Y-30060993D01*
X55809000Y-30168694D01*
X55809000Y-30283306D01*
X55848199Y-30391007D01*
X55919517Y-30476000D01*
X55134000Y-30476000D01*
X55134000Y-30773844D01*
X55140401Y-30833372D01*
X55140402Y-30833376D01*
X55190648Y-30968091D01*
X55196490Y-30975894D01*
X55220908Y-31041359D01*
X55207251Y-31105535D01*
X55207517Y-31105646D01*
X55206921Y-31107082D01*
X55206589Y-31108647D01*
X55205188Y-31111268D01*
X55205187Y-31111270D01*
X55205186Y-31111273D01*
X55195031Y-31144749D01*
X55147975Y-31299870D01*
X55128659Y-31496000D01*
X30187222Y-31496000D01*
X29045812Y-30354590D01*
X29012327Y-30293267D01*
X29013718Y-30234816D01*
X29021063Y-30207408D01*
X29041309Y-29976000D01*
X55134000Y-29976000D01*
X55884000Y-29976000D01*
X55884000Y-29226000D01*
X56384000Y-29226000D01*
X56384000Y-29976000D01*
X57134000Y-29976000D01*
X57134000Y-29678172D01*
X57133999Y-29678155D01*
X57127598Y-29618627D01*
X57127596Y-29618620D01*
X57077354Y-29483913D01*
X57077350Y-29483906D01*
X56991190Y-29368812D01*
X56991187Y-29368809D01*
X56876093Y-29282649D01*
X56876086Y-29282645D01*
X56741379Y-29232403D01*
X56741372Y-29232401D01*
X56681844Y-29226000D01*
X56384000Y-29226000D01*
X55884000Y-29226000D01*
X55586155Y-29226000D01*
X55526627Y-29232401D01*
X55526620Y-29232403D01*
X55391913Y-29282645D01*
X55391906Y-29282649D01*
X55276812Y-29368809D01*
X55276809Y-29368812D01*
X55190649Y-29483906D01*
X55190645Y-29483913D01*
X55140403Y-29618620D01*
X55140401Y-29618627D01*
X55134000Y-29678155D01*
X55134000Y-29976000D01*
X29041309Y-29976000D01*
X29041659Y-29972000D01*
X29039303Y-29945077D01*
X29021063Y-29736596D01*
X29021063Y-29736592D01*
X28959903Y-29508337D01*
X28860035Y-29294171D01*
X28851968Y-29282649D01*
X28724494Y-29100597D01*
X28557402Y-28933506D01*
X28557396Y-28933501D01*
X28371842Y-28803575D01*
X28328217Y-28748998D01*
X28321023Y-28679500D01*
X28352546Y-28617145D01*
X28371842Y-28600425D01*
X28447411Y-28547511D01*
X28557401Y-28470495D01*
X28724495Y-28303401D01*
X28860035Y-28109830D01*
X28959903Y-27895663D01*
X29021063Y-27667408D01*
X29041659Y-27432000D01*
X30082540Y-27432000D01*
X30102326Y-27620256D01*
X30102327Y-27620259D01*
X30160818Y-27800277D01*
X30160821Y-27800284D01*
X30255467Y-27964216D01*
X30331897Y-28049100D01*
X30382129Y-28104888D01*
X30535265Y-28216148D01*
X30535270Y-28216151D01*
X30708192Y-28293142D01*
X30708197Y-28293144D01*
X30893354Y-28332500D01*
X30893355Y-28332500D01*
X31082644Y-28332500D01*
X31082646Y-28332500D01*
X31267803Y-28293144D01*
X31440730Y-28216151D01*
X31593871Y-28104888D01*
X31720533Y-27964216D01*
X31815179Y-27800284D01*
X31873674Y-27620256D01*
X31880441Y-27555859D01*
X31907024Y-27491246D01*
X31916063Y-27481157D01*
X32253905Y-27143316D01*
X32315226Y-27109834D01*
X32341584Y-27107000D01*
X35092637Y-27107000D01*
X35159676Y-27126685D01*
X35194212Y-27159877D01*
X35283500Y-27287395D01*
X35283505Y-27287401D01*
X35450599Y-27454495D01*
X35503085Y-27491246D01*
X35644165Y-27590032D01*
X35644167Y-27590033D01*
X35644170Y-27590035D01*
X35858337Y-27689903D01*
X36086592Y-27751063D01*
X36257319Y-27766000D01*
X36321999Y-27771659D01*
X36322000Y-27771659D01*
X36322001Y-27771659D01*
X36386681Y-27766000D01*
X36557408Y-27751063D01*
X36785663Y-27689903D01*
X36999830Y-27590035D01*
X37193401Y-27454495D01*
X37315717Y-27332178D01*
X37377036Y-27298696D01*
X37446728Y-27303680D01*
X37502662Y-27345551D01*
X37519577Y-27376528D01*
X37568646Y-27508088D01*
X37568649Y-27508093D01*
X37654809Y-27623187D01*
X37654812Y-27623190D01*
X37769906Y-27709350D01*
X37769913Y-27709354D01*
X37904620Y-27759596D01*
X37904627Y-27759598D01*
X37964155Y-27765999D01*
X37964172Y-27766000D01*
X38612000Y-27766000D01*
X38612000Y-26851501D01*
X38719685Y-26900680D01*
X38826237Y-26916000D01*
X38897763Y-26916000D01*
X39004315Y-26900680D01*
X39112000Y-26851501D01*
X39112000Y-27766000D01*
X39759828Y-27766000D01*
X39759844Y-27765999D01*
X39819372Y-27759598D01*
X39819379Y-27759596D01*
X39954086Y-27709354D01*
X39954093Y-27709350D01*
X40069187Y-27623190D01*
X40069190Y-27623187D01*
X40155350Y-27508093D01*
X40155354Y-27508086D01*
X40205596Y-27373379D01*
X40205598Y-27373372D01*
X40211999Y-27313844D01*
X40212000Y-27313827D01*
X40212000Y-26666000D01*
X39295686Y-26666000D01*
X39321493Y-26625844D01*
X39362000Y-26487889D01*
X39362000Y-26416000D01*
X43348341Y-26416000D01*
X43368936Y-26651403D01*
X43368938Y-26651413D01*
X43430094Y-26879655D01*
X43430096Y-26879659D01*
X43430097Y-26879663D01*
X43514280Y-27060193D01*
X43529965Y-27093830D01*
X43529967Y-27093834D01*
X43634933Y-27243740D01*
X43665505Y-27287401D01*
X43832599Y-27454495D01*
X43885085Y-27491246D01*
X44026165Y-27590032D01*
X44026167Y-27590033D01*
X44026170Y-27590035D01*
X44240337Y-27689903D01*
X44468592Y-27751063D01*
X44639319Y-27766000D01*
X44703999Y-27771659D01*
X44704000Y-27771659D01*
X44704001Y-27771659D01*
X44768681Y-27766000D01*
X44939408Y-27751063D01*
X45167663Y-27689903D01*
X45381830Y-27590035D01*
X45575401Y-27454495D01*
X45742495Y-27287401D01*
X45872425Y-27101842D01*
X45927002Y-27058217D01*
X45996500Y-27051023D01*
X46058855Y-27082546D01*
X46075575Y-27101842D01*
X46205500Y-27287395D01*
X46205505Y-27287401D01*
X46372599Y-27454495D01*
X46425085Y-27491246D01*
X46566165Y-27590032D01*
X46566167Y-27590033D01*
X46566170Y-27590035D01*
X46780337Y-27689903D01*
X47008592Y-27751063D01*
X47179319Y-27766000D01*
X47243999Y-27771659D01*
X47244000Y-27771659D01*
X47244001Y-27771659D01*
X47308681Y-27766000D01*
X47479408Y-27751063D01*
X47707663Y-27689903D01*
X47921830Y-27590035D01*
X48115401Y-27454495D01*
X48282495Y-27287401D01*
X48412425Y-27101842D01*
X48467002Y-27058217D01*
X48536500Y-27051023D01*
X48598855Y-27082546D01*
X48615575Y-27101842D01*
X48745500Y-27287395D01*
X48745505Y-27287401D01*
X48912599Y-27454495D01*
X48965085Y-27491246D01*
X49106165Y-27590032D01*
X49106167Y-27590033D01*
X49106170Y-27590035D01*
X49320337Y-27689903D01*
X49548592Y-27751063D01*
X49719319Y-27766000D01*
X49783999Y-27771659D01*
X49784000Y-27771659D01*
X49784001Y-27771659D01*
X49848681Y-27766000D01*
X50019408Y-27751063D01*
X50247663Y-27689903D01*
X50461830Y-27590035D01*
X50655401Y-27454495D01*
X50822495Y-27287401D01*
X50952425Y-27101842D01*
X51007002Y-27058217D01*
X51076500Y-27051023D01*
X51138855Y-27082546D01*
X51155575Y-27101842D01*
X51285500Y-27287395D01*
X51285505Y-27287401D01*
X51452599Y-27454495D01*
X51505085Y-27491246D01*
X51646165Y-27590032D01*
X51646167Y-27590033D01*
X51646170Y-27590035D01*
X51860337Y-27689903D01*
X52088592Y-27751063D01*
X52259319Y-27766000D01*
X52323999Y-27771659D01*
X52324000Y-27771659D01*
X52324001Y-27771659D01*
X52388681Y-27766000D01*
X52559408Y-27751063D01*
X52787663Y-27689903D01*
X53001830Y-27590035D01*
X53195401Y-27454495D01*
X53317717Y-27332178D01*
X53379036Y-27298696D01*
X53448728Y-27303680D01*
X53504662Y-27345551D01*
X53521577Y-27376528D01*
X53570646Y-27508088D01*
X53570649Y-27508093D01*
X53656809Y-27623187D01*
X53656812Y-27623190D01*
X53771906Y-27709350D01*
X53771913Y-27709354D01*
X53906620Y-27759596D01*
X53906627Y-27759598D01*
X53966155Y-27765999D01*
X53966172Y-27766000D01*
X54614000Y-27766000D01*
X54614000Y-26851501D01*
X54721685Y-26900680D01*
X54828237Y-26916000D01*
X54899763Y-26916000D01*
X55006315Y-26900680D01*
X55114000Y-26851501D01*
X55114000Y-27766000D01*
X55761828Y-27766000D01*
X55761844Y-27765999D01*
X55821372Y-27759598D01*
X55821379Y-27759596D01*
X55956086Y-27709354D01*
X55956093Y-27709350D01*
X56071187Y-27623190D01*
X56071190Y-27623187D01*
X56157350Y-27508093D01*
X56157354Y-27508086D01*
X56207596Y-27373379D01*
X56207598Y-27373372D01*
X56213999Y-27313844D01*
X56214000Y-27313827D01*
X56214000Y-26998604D01*
X64847921Y-26998604D01*
X64867805Y-27263957D01*
X64867805Y-27263959D01*
X64925163Y-27515259D01*
X64927023Y-27523405D01*
X65024244Y-27771121D01*
X65157299Y-28001580D01*
X65291306Y-28169618D01*
X65323220Y-28209637D01*
X65437732Y-28315888D01*
X65518290Y-28390635D01*
X65738161Y-28540540D01*
X65977914Y-28655999D01*
X65977915Y-28655999D01*
X65977918Y-28656001D01*
X66107365Y-28695930D01*
X66185431Y-28720011D01*
X66243690Y-28758582D01*
X66271848Y-28822526D01*
X66260964Y-28891543D01*
X66214495Y-28943720D01*
X66202685Y-28950221D01*
X66188416Y-28957092D01*
X66188411Y-28957095D01*
X66011240Y-29077887D01*
X66679791Y-29746437D01*
X66560969Y-29817931D01*
X66426742Y-29945077D01*
X66323538Y-30097292D01*
X65658484Y-29432238D01*
X65607714Y-29495902D01*
X65474696Y-29726296D01*
X65377504Y-29973937D01*
X65377498Y-29973956D01*
X65318303Y-30233307D01*
X65318303Y-30233309D01*
X65298423Y-30498595D01*
X65298423Y-30498604D01*
X65318303Y-30763890D01*
X65318303Y-30763892D01*
X65377498Y-31023243D01*
X65377504Y-31023262D01*
X65474696Y-31270903D01*
X65607716Y-31501300D01*
X65658483Y-31564961D01*
X65658484Y-31564961D01*
X66327166Y-30896279D01*
X66370716Y-30978422D01*
X66490409Y-31119335D01*
X66637595Y-31231223D01*
X66679802Y-31250750D01*
X66011240Y-31919311D01*
X66188411Y-32040104D01*
X66188415Y-32040106D01*
X66428095Y-32155531D01*
X66428099Y-32155532D01*
X66682309Y-32233946D01*
X66682315Y-32233947D01*
X66945376Y-32273599D01*
X66945383Y-32273600D01*
X67211417Y-32273600D01*
X67211423Y-32273599D01*
X67474484Y-32233947D01*
X67474490Y-32233946D01*
X67728699Y-32155533D01*
X67968392Y-32040103D01*
X68145558Y-31919311D01*
X67878532Y-31652285D01*
X69624140Y-31652285D01*
X69634155Y-31837006D01*
X69634155Y-31837011D01*
X69683644Y-32015256D01*
X69683647Y-32015262D01*
X69770298Y-32178702D01*
X69841052Y-32262000D01*
X69890063Y-32319700D01*
X70037336Y-32431654D01*
X70205233Y-32509332D01*
X70205234Y-32509332D01*
X70205236Y-32509333D01*
X70260048Y-32521397D01*
X70385903Y-32549100D01*
X70385906Y-32549100D01*
X70524507Y-32549100D01*
X70524513Y-32549100D01*
X70662310Y-32534114D01*
X70837621Y-32475044D01*
X70996136Y-32379670D01*
X71130441Y-32252449D01*
X71234258Y-32099330D01*
X71302731Y-31927475D01*
X71332660Y-31744917D01*
X71322645Y-31560193D01*
X71321098Y-31554620D01*
X71273155Y-31381943D01*
X71273152Y-31381937D01*
X71186501Y-31218497D01*
X71066737Y-31077500D01*
X70987849Y-31017531D01*
X70919464Y-30965546D01*
X70751567Y-30887868D01*
X70751563Y-30887866D01*
X70570897Y-30848100D01*
X70432287Y-30848100D01*
X70432283Y-30848100D01*
X70294488Y-30863086D01*
X70119176Y-30922157D01*
X70119174Y-30922158D01*
X69960662Y-31017531D01*
X69960661Y-31017532D01*
X69826359Y-31144749D01*
X69722538Y-31297876D01*
X69654069Y-31469722D01*
X69624140Y-31652285D01*
X67878532Y-31652285D01*
X67477009Y-31250761D01*
X67595831Y-31179269D01*
X67730058Y-31052123D01*
X67833261Y-30899908D01*
X68498314Y-31564961D01*
X68498315Y-31564960D01*
X68549079Y-31501306D01*
X68549086Y-31501295D01*
X68682103Y-31270903D01*
X68779295Y-31023262D01*
X68779301Y-31023243D01*
X68838496Y-30763892D01*
X68838496Y-30763890D01*
X68850883Y-30598604D01*
X71897921Y-30598604D01*
X71917805Y-30863957D01*
X71917805Y-30863959D01*
X71973654Y-31108647D01*
X71977023Y-31123405D01*
X72074244Y-31371121D01*
X72207299Y-31601580D01*
X72321605Y-31744914D01*
X72373220Y-31809637D01*
X72449844Y-31880733D01*
X72568290Y-31990635D01*
X72788161Y-32140540D01*
X73027914Y-32255999D01*
X73027915Y-32255999D01*
X73027918Y-32256001D01*
X73282206Y-32334439D01*
X73282207Y-32334439D01*
X73282210Y-32334440D01*
X73545337Y-32374099D01*
X73545342Y-32374099D01*
X73545345Y-32374100D01*
X73545346Y-32374100D01*
X73811454Y-32374100D01*
X73811455Y-32374100D01*
X73811462Y-32374099D01*
X74074589Y-32334440D01*
X74074590Y-32334439D01*
X74074594Y-32334439D01*
X74328882Y-32256001D01*
X74568640Y-32140540D01*
X74788510Y-31990635D01*
X74983583Y-31809633D01*
X75149501Y-31601580D01*
X75282556Y-31371121D01*
X75379777Y-31123405D01*
X75438993Y-30863967D01*
X75439059Y-30863086D01*
X75458879Y-30598604D01*
X75458879Y-30598595D01*
X75438994Y-30333242D01*
X75438994Y-30333240D01*
X75438993Y-30333236D01*
X75438993Y-30333233D01*
X75379777Y-30073795D01*
X75282556Y-29826079D01*
X75149501Y-29595620D01*
X74983583Y-29387567D01*
X74983582Y-29387566D01*
X74983579Y-29387562D01*
X74788510Y-29206565D01*
X74788500Y-29206558D01*
X74779689Y-29200551D01*
X74735389Y-29146524D01*
X74727330Y-29077120D01*
X74758073Y-29014378D01*
X74817857Y-28978216D01*
X74849543Y-28974099D01*
X75001271Y-28974099D01*
X75001272Y-28974099D01*
X75060883Y-28967691D01*
X75195731Y-28917396D01*
X75310946Y-28831146D01*
X75397196Y-28715931D01*
X75447491Y-28581083D01*
X75453900Y-28521473D01*
X75453899Y-25875728D01*
X75447491Y-25816117D01*
X75441659Y-25800481D01*
X75397197Y-25681271D01*
X75397193Y-25681264D01*
X75310947Y-25566055D01*
X75310944Y-25566052D01*
X75195735Y-25479806D01*
X75195728Y-25479802D01*
X75060882Y-25429508D01*
X75060883Y-25429508D01*
X75001283Y-25423101D01*
X75001281Y-25423100D01*
X75001273Y-25423100D01*
X75001264Y-25423100D01*
X72355529Y-25423100D01*
X72355523Y-25423101D01*
X72295916Y-25429508D01*
X72161071Y-25479802D01*
X72161064Y-25479806D01*
X72045855Y-25566052D01*
X72045852Y-25566055D01*
X71959606Y-25681264D01*
X71959602Y-25681271D01*
X71909308Y-25816117D01*
X71904802Y-25858034D01*
X71902901Y-25875723D01*
X71902900Y-25875735D01*
X71902900Y-28521470D01*
X71902901Y-28521476D01*
X71909308Y-28581083D01*
X71959602Y-28715928D01*
X71959606Y-28715935D01*
X72045852Y-28831144D01*
X72045855Y-28831147D01*
X72161064Y-28917393D01*
X72161071Y-28917397D01*
X72204262Y-28933506D01*
X72295917Y-28967691D01*
X72355527Y-28974100D01*
X72507256Y-28974099D01*
X72574294Y-28993783D01*
X72620049Y-29046587D01*
X72629993Y-29115745D01*
X72600968Y-29179301D01*
X72577114Y-29200547D01*
X72568298Y-29206558D01*
X72568295Y-29206560D01*
X72373220Y-29387562D01*
X72207299Y-29595620D01*
X72074244Y-29826078D01*
X71977025Y-30073789D01*
X71977020Y-30073806D01*
X71917805Y-30333240D01*
X71917805Y-30333242D01*
X71897921Y-30598595D01*
X71897921Y-30598604D01*
X68850883Y-30598604D01*
X68858377Y-30498604D01*
X68858377Y-30498595D01*
X68838496Y-30233309D01*
X68838496Y-30233307D01*
X68779301Y-29973956D01*
X68779295Y-29973937D01*
X68682103Y-29726296D01*
X68549083Y-29495899D01*
X68498315Y-29432237D01*
X67829632Y-30100919D01*
X67786084Y-30018778D01*
X67666391Y-29877865D01*
X67519205Y-29765977D01*
X67476996Y-29746449D01*
X68145558Y-29077887D01*
X67968384Y-28957092D01*
X67728699Y-28841666D01*
X67521408Y-28777725D01*
X67463149Y-28739154D01*
X67434991Y-28675210D01*
X67445875Y-28606193D01*
X67492344Y-28554016D01*
X67504144Y-28547520D01*
X67518640Y-28540540D01*
X67738510Y-28390635D01*
X67889899Y-28250165D01*
X67933579Y-28209637D01*
X67933579Y-28209635D01*
X67933583Y-28209633D01*
X68099501Y-28001580D01*
X68232556Y-27771121D01*
X68329777Y-27523405D01*
X68388993Y-27263967D01*
X68390421Y-27244914D01*
X68397362Y-27152285D01*
X69624140Y-27152285D01*
X69634155Y-27337006D01*
X69634155Y-27337011D01*
X69683644Y-27515256D01*
X69683647Y-27515262D01*
X69770298Y-27678702D01*
X69873565Y-27800277D01*
X69890063Y-27819700D01*
X70037336Y-27931654D01*
X70205233Y-28009332D01*
X70205234Y-28009332D01*
X70205236Y-28009333D01*
X70260048Y-28021397D01*
X70385903Y-28049100D01*
X70385906Y-28049100D01*
X70524507Y-28049100D01*
X70524513Y-28049100D01*
X70662310Y-28034114D01*
X70837621Y-27975044D01*
X70996136Y-27879670D01*
X71130441Y-27752449D01*
X71234258Y-27599330D01*
X71237962Y-27590035D01*
X71302730Y-27427477D01*
X71302729Y-27427477D01*
X71302731Y-27427475D01*
X71332660Y-27244917D01*
X71322645Y-27060193D01*
X71322644Y-27060188D01*
X71273155Y-26881943D01*
X71273152Y-26881937D01*
X71186501Y-26718497D01*
X71066737Y-26577500D01*
X71044501Y-26560597D01*
X70919464Y-26465546D01*
X70751567Y-26387868D01*
X70751563Y-26387866D01*
X70570897Y-26348100D01*
X70432287Y-26348100D01*
X70432283Y-26348100D01*
X70294488Y-26363086D01*
X70119176Y-26422157D01*
X70119174Y-26422158D01*
X69960662Y-26517531D01*
X69960661Y-26517532D01*
X69826359Y-26644749D01*
X69722538Y-26797876D01*
X69654069Y-26969722D01*
X69640741Y-27051023D01*
X69632410Y-27101842D01*
X69624140Y-27152285D01*
X68397362Y-27152285D01*
X68408879Y-26998604D01*
X68408879Y-26998595D01*
X68388994Y-26733242D01*
X68388994Y-26733240D01*
X68388993Y-26733236D01*
X68388993Y-26733233D01*
X68329777Y-26473795D01*
X68232556Y-26226079D01*
X68099501Y-25995620D01*
X67933583Y-25787567D01*
X67933582Y-25787566D01*
X67933579Y-25787562D01*
X67738510Y-25606565D01*
X67679088Y-25566052D01*
X67518640Y-25456660D01*
X67518636Y-25456658D01*
X67518633Y-25456656D01*
X67518632Y-25456655D01*
X67278884Y-25341200D01*
X67278886Y-25341200D01*
X67024595Y-25262761D01*
X67024589Y-25262759D01*
X66761462Y-25223100D01*
X66761455Y-25223100D01*
X66495345Y-25223100D01*
X66495337Y-25223100D01*
X66232210Y-25262759D01*
X66232204Y-25262761D01*
X65977914Y-25341200D01*
X65738169Y-25456655D01*
X65738160Y-25456660D01*
X65518292Y-25606563D01*
X65323220Y-25787562D01*
X65157299Y-25995620D01*
X65024244Y-26226078D01*
X64927025Y-26473789D01*
X64927020Y-26473806D01*
X64867805Y-26733240D01*
X64867805Y-26733242D01*
X64847921Y-26998595D01*
X64847921Y-26998604D01*
X56214000Y-26998604D01*
X56214000Y-26666000D01*
X55297686Y-26666000D01*
X55323493Y-26625844D01*
X55364000Y-26487889D01*
X55364000Y-26344111D01*
X55323493Y-26206156D01*
X55297686Y-26166000D01*
X56214000Y-26166000D01*
X56214000Y-25518172D01*
X56213999Y-25518155D01*
X56207598Y-25458627D01*
X56207596Y-25458620D01*
X56157354Y-25323913D01*
X56157350Y-25323906D01*
X56071190Y-25208812D01*
X56071187Y-25208809D01*
X55956093Y-25122649D01*
X55956086Y-25122645D01*
X55821379Y-25072403D01*
X55821372Y-25072401D01*
X55761844Y-25066000D01*
X55114000Y-25066000D01*
X55114000Y-25980498D01*
X55006315Y-25931320D01*
X54899763Y-25916000D01*
X54828237Y-25916000D01*
X54721685Y-25931320D01*
X54614000Y-25980498D01*
X54614000Y-25066000D01*
X53966155Y-25066000D01*
X53906627Y-25072401D01*
X53906620Y-25072403D01*
X53771913Y-25122645D01*
X53771906Y-25122649D01*
X53656812Y-25208809D01*
X53656809Y-25208812D01*
X53570649Y-25323906D01*
X53570645Y-25323913D01*
X53521578Y-25455470D01*
X53479707Y-25511404D01*
X53414242Y-25535821D01*
X53345969Y-25520969D01*
X53317715Y-25499819D01*
X53273366Y-25455470D01*
X53195401Y-25377505D01*
X53195397Y-25377502D01*
X53195396Y-25377501D01*
X53001834Y-25241967D01*
X53001830Y-25241965D01*
X52961374Y-25223100D01*
X52787663Y-25142097D01*
X52787659Y-25142096D01*
X52787655Y-25142094D01*
X52559413Y-25080938D01*
X52559403Y-25080936D01*
X52324001Y-25060341D01*
X52323999Y-25060341D01*
X52088596Y-25080936D01*
X52088586Y-25080938D01*
X51860344Y-25142094D01*
X51860335Y-25142098D01*
X51646171Y-25241964D01*
X51646169Y-25241965D01*
X51452597Y-25377505D01*
X51285505Y-25544597D01*
X51155575Y-25730158D01*
X51100998Y-25773783D01*
X51031500Y-25780977D01*
X50969145Y-25749454D01*
X50952425Y-25730158D01*
X50822494Y-25544597D01*
X50655402Y-25377506D01*
X50655395Y-25377501D01*
X50461834Y-25241967D01*
X50461830Y-25241965D01*
X50421374Y-25223100D01*
X50247663Y-25142097D01*
X50247659Y-25142096D01*
X50247655Y-25142094D01*
X50019413Y-25080938D01*
X50019403Y-25080936D01*
X49784001Y-25060341D01*
X49783999Y-25060341D01*
X49548596Y-25080936D01*
X49548586Y-25080938D01*
X49320344Y-25142094D01*
X49320335Y-25142098D01*
X49106171Y-25241964D01*
X49106169Y-25241965D01*
X48912597Y-25377505D01*
X48745505Y-25544597D01*
X48615575Y-25730158D01*
X48560998Y-25773783D01*
X48491500Y-25780977D01*
X48429145Y-25749454D01*
X48412425Y-25730158D01*
X48282494Y-25544597D01*
X48115402Y-25377506D01*
X48115395Y-25377501D01*
X47921834Y-25241967D01*
X47921830Y-25241965D01*
X47881374Y-25223100D01*
X47707663Y-25142097D01*
X47707659Y-25142096D01*
X47707655Y-25142094D01*
X47479413Y-25080938D01*
X47479403Y-25080936D01*
X47244001Y-25060341D01*
X47243999Y-25060341D01*
X47008596Y-25080936D01*
X47008586Y-25080938D01*
X46780344Y-25142094D01*
X46780335Y-25142098D01*
X46566171Y-25241964D01*
X46566169Y-25241965D01*
X46372597Y-25377505D01*
X46205505Y-25544597D01*
X46075575Y-25730158D01*
X46020998Y-25773783D01*
X45951500Y-25780977D01*
X45889145Y-25749454D01*
X45872425Y-25730158D01*
X45742494Y-25544597D01*
X45575402Y-25377506D01*
X45575395Y-25377501D01*
X45381834Y-25241967D01*
X45381830Y-25241965D01*
X45341374Y-25223100D01*
X45167663Y-25142097D01*
X45167659Y-25142096D01*
X45167655Y-25142094D01*
X44939413Y-25080938D01*
X44939403Y-25080936D01*
X44704001Y-25060341D01*
X44703999Y-25060341D01*
X44468596Y-25080936D01*
X44468586Y-25080938D01*
X44240344Y-25142094D01*
X44240335Y-25142098D01*
X44026171Y-25241964D01*
X44026169Y-25241965D01*
X43832597Y-25377505D01*
X43665505Y-25544597D01*
X43529965Y-25738169D01*
X43529964Y-25738171D01*
X43430098Y-25952335D01*
X43430096Y-25952341D01*
X43368938Y-26180586D01*
X43368936Y-26180596D01*
X43348341Y-26415999D01*
X43348341Y-26416000D01*
X39362000Y-26416000D01*
X39362000Y-26344111D01*
X39321493Y-26206156D01*
X39295686Y-26166000D01*
X40212000Y-26166000D01*
X40212000Y-25518172D01*
X40211999Y-25518155D01*
X40205598Y-25458627D01*
X40205596Y-25458620D01*
X40155354Y-25323913D01*
X40155350Y-25323906D01*
X40069190Y-25208812D01*
X40069187Y-25208809D01*
X39954093Y-25122649D01*
X39954086Y-25122645D01*
X39819379Y-25072403D01*
X39819372Y-25072401D01*
X39759844Y-25066000D01*
X39112000Y-25066000D01*
X39112000Y-25980498D01*
X39004315Y-25931320D01*
X38897763Y-25916000D01*
X38826237Y-25916000D01*
X38719685Y-25931320D01*
X38612000Y-25980498D01*
X38612000Y-25066000D01*
X37964155Y-25066000D01*
X37904627Y-25072401D01*
X37904620Y-25072403D01*
X37769913Y-25122645D01*
X37769906Y-25122649D01*
X37654812Y-25208809D01*
X37654809Y-25208812D01*
X37568649Y-25323906D01*
X37568645Y-25323913D01*
X37519578Y-25455470D01*
X37477707Y-25511404D01*
X37412242Y-25535821D01*
X37343969Y-25520969D01*
X37315715Y-25499819D01*
X37271366Y-25455470D01*
X37193401Y-25377505D01*
X37193397Y-25377502D01*
X37193396Y-25377501D01*
X36999834Y-25241967D01*
X36999830Y-25241965D01*
X36959374Y-25223100D01*
X36785663Y-25142097D01*
X36785659Y-25142096D01*
X36785655Y-25142094D01*
X36557413Y-25080938D01*
X36557403Y-25080936D01*
X36322001Y-25060341D01*
X36321999Y-25060341D01*
X36086596Y-25080936D01*
X36086586Y-25080938D01*
X35858344Y-25142094D01*
X35858335Y-25142098D01*
X35644171Y-25241964D01*
X35644169Y-25241965D01*
X35450597Y-25377505D01*
X35283506Y-25544597D01*
X35283501Y-25544603D01*
X35194212Y-25672123D01*
X35139635Y-25715748D01*
X35092637Y-25725000D01*
X32028626Y-25725000D01*
X32021139Y-25724774D01*
X31961974Y-25721195D01*
X31961969Y-25721195D01*
X31903667Y-25731879D01*
X31896265Y-25733006D01*
X31837415Y-25740152D01*
X31837414Y-25740152D01*
X31828203Y-25743645D01*
X31806606Y-25749666D01*
X31796916Y-25751442D01*
X31759416Y-25768318D01*
X31742858Y-25775770D01*
X31735949Y-25778632D01*
X31680519Y-25799655D01*
X31672408Y-25805253D01*
X31652873Y-25816271D01*
X31643896Y-25820311D01*
X31643894Y-25820312D01*
X31597243Y-25856861D01*
X31591212Y-25861298D01*
X31542421Y-25894976D01*
X31542410Y-25894986D01*
X31503104Y-25939352D01*
X31497972Y-25944804D01*
X30942088Y-26500689D01*
X30880765Y-26534174D01*
X30880188Y-26534298D01*
X30708197Y-26570855D01*
X30708192Y-26570857D01*
X30535270Y-26647848D01*
X30535265Y-26647851D01*
X30382129Y-26759111D01*
X30255466Y-26899785D01*
X30160821Y-27063715D01*
X30160818Y-27063722D01*
X30117645Y-27196596D01*
X30102326Y-27243744D01*
X30082540Y-27432000D01*
X29041659Y-27432000D01*
X29021063Y-27196592D01*
X28959903Y-26968337D01*
X28860035Y-26754171D01*
X28854873Y-26746798D01*
X28724494Y-26560597D01*
X28557402Y-26393506D01*
X28557395Y-26393501D01*
X28549350Y-26387868D01*
X28486859Y-26344111D01*
X28363834Y-26257967D01*
X28363830Y-26257965D01*
X28295448Y-26226078D01*
X28149663Y-26158097D01*
X28149659Y-26158096D01*
X28149655Y-26158094D01*
X27921413Y-26096938D01*
X27921403Y-26096936D01*
X27686001Y-26076341D01*
X27685999Y-26076341D01*
X27450596Y-26096936D01*
X27450586Y-26096938D01*
X27222344Y-26158094D01*
X27222335Y-26158098D01*
X27008171Y-26257964D01*
X27008169Y-26257965D01*
X26814597Y-26393505D01*
X26647505Y-26560597D01*
X26511965Y-26754169D01*
X26511964Y-26754171D01*
X26412098Y-26968335D01*
X26412094Y-26968344D01*
X26350938Y-27196586D01*
X26350936Y-27196596D01*
X26330341Y-27431999D01*
X26330341Y-27432000D01*
X26350936Y-27667403D01*
X26350938Y-27667413D01*
X26412094Y-27895655D01*
X26412096Y-27895659D01*
X26412097Y-27895663D01*
X26476658Y-28034114D01*
X26511965Y-28109830D01*
X26511967Y-28109834D01*
X26647501Y-28303395D01*
X26647506Y-28303402D01*
X26814597Y-28470493D01*
X26814603Y-28470498D01*
X27000158Y-28600425D01*
X27043783Y-28655002D01*
X27050977Y-28724500D01*
X27019454Y-28786855D01*
X27000158Y-28803575D01*
X26814597Y-28933505D01*
X26647505Y-29100597D01*
X26511965Y-29294169D01*
X26511964Y-29294171D01*
X26412098Y-29508335D01*
X26412094Y-29508344D01*
X26350938Y-29736586D01*
X26350936Y-29736596D01*
X26330341Y-29971999D01*
X26330341Y-29972000D01*
X20828500Y-29972000D01*
X20828500Y-23622007D01*
X21874671Y-23622007D01*
X21893964Y-23916363D01*
X21893965Y-23916373D01*
X21893966Y-23916380D01*
X21893968Y-23916390D01*
X21951518Y-24205716D01*
X21951521Y-24205730D01*
X22046349Y-24485080D01*
X22176825Y-24749660D01*
X22176829Y-24749667D01*
X22340725Y-24994955D01*
X22535241Y-25216758D01*
X22757044Y-25411274D01*
X22943442Y-25535821D01*
X23002335Y-25575172D01*
X23266923Y-25705652D01*
X23546278Y-25800481D01*
X23835620Y-25858034D01*
X23863888Y-25859886D01*
X24129993Y-25877329D01*
X24130000Y-25877329D01*
X24130007Y-25877329D01*
X24374582Y-25861298D01*
X24424380Y-25858034D01*
X24713722Y-25800481D01*
X24993077Y-25705652D01*
X25257665Y-25575172D01*
X25502957Y-25411273D01*
X25724758Y-25216758D01*
X25919273Y-24994957D01*
X26083172Y-24749665D01*
X26213652Y-24485077D01*
X26308481Y-24205722D01*
X26366034Y-23916380D01*
X26368680Y-23876007D01*
X76992671Y-23876007D01*
X77011964Y-24170363D01*
X77011965Y-24170373D01*
X77011966Y-24170380D01*
X77011968Y-24170390D01*
X77069518Y-24459716D01*
X77069521Y-24459730D01*
X77164349Y-24739080D01*
X77294825Y-25003660D01*
X77294829Y-25003667D01*
X77458725Y-25248955D01*
X77653241Y-25470758D01*
X77875044Y-25665274D01*
X78120332Y-25829170D01*
X78120339Y-25829174D01*
X78178864Y-25858035D01*
X78384923Y-25959652D01*
X78664278Y-26054481D01*
X78953620Y-26112034D01*
X78981888Y-26113886D01*
X79247993Y-26131329D01*
X79248000Y-26131329D01*
X79248007Y-26131329D01*
X79483675Y-26115881D01*
X79542380Y-26112034D01*
X79831722Y-26054481D01*
X80111077Y-25959652D01*
X80375665Y-25829172D01*
X80620957Y-25665273D01*
X80842758Y-25470758D01*
X81037273Y-25248957D01*
X81201172Y-25003665D01*
X81331652Y-24739077D01*
X81426481Y-24459722D01*
X81484034Y-24170380D01*
X81500682Y-23916390D01*
X81503329Y-23876007D01*
X81503329Y-23875992D01*
X81484035Y-23581636D01*
X81484034Y-23581620D01*
X81426481Y-23292278D01*
X81331652Y-23012923D01*
X81201172Y-22748336D01*
X81037273Y-22503043D01*
X80994655Y-22454447D01*
X80842758Y-22281241D01*
X80620955Y-22086725D01*
X80375667Y-21922829D01*
X80375660Y-21922825D01*
X80111080Y-21792349D01*
X79831730Y-21697521D01*
X79831724Y-21697519D01*
X79831722Y-21697519D01*
X79542380Y-21639966D01*
X79542373Y-21639965D01*
X79542363Y-21639964D01*
X79248007Y-21620671D01*
X79247993Y-21620671D01*
X78953636Y-21639964D01*
X78953624Y-21639965D01*
X78953620Y-21639966D01*
X78953612Y-21639967D01*
X78953609Y-21639968D01*
X78664283Y-21697518D01*
X78664269Y-21697521D01*
X78384919Y-21792349D01*
X78120334Y-21922828D01*
X77875041Y-22086728D01*
X77653241Y-22281241D01*
X77458728Y-22503041D01*
X77294828Y-22748334D01*
X77164349Y-23012919D01*
X77069521Y-23292269D01*
X77069518Y-23292283D01*
X77011968Y-23581609D01*
X77011964Y-23581636D01*
X76992671Y-23875992D01*
X76992671Y-23876007D01*
X26368680Y-23876007D01*
X26385329Y-23622000D01*
X26385329Y-23621992D01*
X26366035Y-23327636D01*
X26366034Y-23327620D01*
X26308481Y-23038278D01*
X26213652Y-22758923D01*
X26083172Y-22494336D01*
X25919273Y-22249043D01*
X25876655Y-22200447D01*
X25724758Y-22027241D01*
X25502955Y-21832725D01*
X25257667Y-21668829D01*
X25257660Y-21668825D01*
X24993080Y-21538349D01*
X24713730Y-21443521D01*
X24713724Y-21443519D01*
X24713722Y-21443519D01*
X24424380Y-21385966D01*
X24424373Y-21385965D01*
X24424363Y-21385964D01*
X24130007Y-21366671D01*
X24129993Y-21366671D01*
X23835636Y-21385964D01*
X23835624Y-21385965D01*
X23835620Y-21385966D01*
X23835612Y-21385967D01*
X23835609Y-21385968D01*
X23546283Y-21443518D01*
X23546269Y-21443521D01*
X23266919Y-21538349D01*
X23002334Y-21668828D01*
X22757041Y-21832728D01*
X22535241Y-22027241D01*
X22340728Y-22249041D01*
X22176828Y-22494334D01*
X22046349Y-22758919D01*
X21951521Y-23038269D01*
X21951518Y-23038283D01*
X21893968Y-23327609D01*
X21893964Y-23327636D01*
X21874671Y-23621992D01*
X21874671Y-23622007D01*
X20828500Y-23622007D01*
X20828500Y-20444500D01*
X20848185Y-20377461D01*
X20900989Y-20331706D01*
X20952500Y-20320500D01*
X82171500Y-20320500D01*
X82238539Y-20340185D01*
G37*
%TD.AperFunction*%
%TD*%
M02*
