%TF.GenerationSoftware,KiCad,Pcbnew,8.0.01-1-dev-1b3cf70eef*%
%TF.CreationDate,2024-03-18T17:19:38-07:00*%
%TF.ProjectId,i2s_to_toslink_pcb,6932735f-746f-45f7-946f-736c696e6b5f,rev?*%
%TF.SameCoordinates,Original*%
%TF.FileFunction,Copper,L2,Bot*%
%TF.FilePolarity,Positive*%
%FSLAX46Y46*%
G04 Gerber Fmt 4.6, Leading zero omitted, Abs format (unit mm)*
G04 Created by KiCad (PCBNEW 8.0.01-1-dev-1b3cf70eef) date 2024-03-18 17:19:38*
%MOMM*%
%LPD*%
G01*
G04 APERTURE LIST*
%TA.AperFunction,ComponentPad*%
%ADD10C,2.600000*%
%TD*%
%TA.AperFunction,ConnectorPad*%
%ADD11C,3.500000*%
%TD*%
%TA.AperFunction,ComponentPad*%
%ADD12R,1.700000X1.700000*%
%TD*%
%TA.AperFunction,ComponentPad*%
%ADD13O,1.700000X1.700000*%
%TD*%
%TA.AperFunction,ComponentPad*%
%ADD14R,1.000000X1.000000*%
%TD*%
%TA.AperFunction,ComponentPad*%
%ADD15R,2.550000X2.550000*%
%TD*%
%TA.AperFunction,ComponentPad*%
%ADD16C,2.550000*%
%TD*%
%TA.AperFunction,ComponentPad*%
%ADD17C,1.462000*%
%TD*%
%TA.AperFunction,ComponentPad*%
%ADD18O,1.000000X1.000000*%
%TD*%
%TA.AperFunction,ViaPad*%
%ADD19C,0.800000*%
%TD*%
%TA.AperFunction,ViaPad*%
%ADD20C,1.270000*%
%TD*%
%TA.AperFunction,Conductor*%
%ADD21C,0.381000*%
%TD*%
%TA.AperFunction,Conductor*%
%ADD22C,0.250000*%
%TD*%
%TA.AperFunction,Conductor*%
%ADD23C,0.304800*%
%TD*%
G04 APERTURE END LIST*
D10*
%TO.P,H1,1*%
%TO.N,N/C*%
X24130000Y-23622000D03*
D11*
X24130000Y-23622000D03*
%TD*%
D12*
%TO.P,J3,1,Pin_1*%
%TO.N,GND*%
X74250000Y-59750000D03*
D13*
%TO.P,J3,2,Pin_2*%
%TO.N,VCC_3V3*%
X74250000Y-62290000D03*
%TD*%
D14*
%TO.P,J17,1,Pin_1*%
%TO.N,CODEC_CLKOUT*%
X56134000Y-47498000D03*
%TD*%
D12*
%TO.P,J2,1,Pin_1*%
%TO.N,GND*%
X41590000Y-27500000D03*
D13*
%TO.P,J2,2,Pin_2*%
%TO.N,EXTERNAL_IN_I2S_MCLK*%
X44130000Y-27500000D03*
%TO.P,J2,3,Pin_3*%
%TO.N,EXTERNAL_IN_I2S_LRCLK*%
X46670000Y-27500000D03*
%TO.P,J2,4,Pin_4*%
%TO.N,EXTERNAL_IN_I2S_BCLK*%
X49210000Y-27500000D03*
%TO.P,J2,5,Pin_5*%
%TO.N,EXTERNAL_IN_I2S_DIN*%
X51750000Y-27500000D03*
%TD*%
D14*
%TO.P,J15,1,Pin_1*%
%TO.N,CODEC_GPO7*%
X51577000Y-54750000D03*
%TD*%
D12*
%TO.P,SW1,1,1*%
%TO.N,GND*%
X59460000Y-79000000D03*
D13*
%TO.P,SW1,2,2*%
%TO.N,Net-(R16-Pad1)*%
X62000000Y-79000000D03*
%TD*%
D12*
%TO.P,J12,1,Pin_1*%
%TO.N,GND*%
X29000000Y-56720000D03*
D13*
%TO.P,J12,2,Pin_2*%
%TO.N,Net-(J12-Pin_2)*%
X29000000Y-59260000D03*
%TO.P,J12,3,Pin_3*%
%TO.N,Net-(J12-Pin_3)*%
X29000000Y-61800000D03*
%TO.P,J12,4,Pin_4*%
%TO.N,Net-(J12-Pin_4)*%
X29000000Y-64340000D03*
%TO.P,J12,5,Pin_5*%
%TO.N,Net-(J12-Pin_5)*%
X29000000Y-66880000D03*
%TD*%
D12*
%TO.P,J9,1,Pin_1*%
%TO.N,GND*%
X35500000Y-34210000D03*
D13*
%TO.P,J9,2,Pin_2*%
%TO.N,CLKGEN_OUT_I2S_MCLK*%
X35500000Y-36750000D03*
%TO.P,J9,3,Pin_3*%
%TO.N,Net-(J9-Pin_3)*%
X35500000Y-39290000D03*
%TD*%
D12*
%TO.P,J7,1,Pin_1*%
%TO.N,GND*%
X24250000Y-33500000D03*
D13*
%TO.P,J7,2,Pin_2*%
%TO.N,EXTERNAL_IN_I2S_BCLK*%
X26790000Y-33500000D03*
%TO.P,J7,3,Pin_3*%
%TO.N,Net-(J7-Pin_3)*%
X29330000Y-33500000D03*
%TD*%
D14*
%TO.P,J14,1,Pin_1*%
%TO.N,CODEC_GPO0*%
X45500000Y-47244000D03*
%TD*%
D10*
%TO.P,H3,1*%
%TO.N,N/C*%
X24130000Y-77978000D03*
D11*
X24130000Y-77978000D03*
%TD*%
D15*
%TO.P,J10,1,DETECTOR_1*%
%TO.N,Net-(J10-DETECTOR_1)*%
X73678400Y-27198600D03*
D16*
%TO.P,J10,2,LEFT_CHANNEL*%
%TO.N,Net-(J10-LEFT_CHANNEL)*%
X67628400Y-36498600D03*
%TO.P,J10,3,RIGHT_CHANNEL*%
%TO.N,Net-(J10-RIGHT_CHANNEL)*%
X73678400Y-30598600D03*
%TO.P,J10,4,GND_1*%
%TO.N,GND*%
X67078400Y-30498600D03*
%TO.P,J10,5,DETECTOR_2*%
%TO.N,Net-(J10-DETECTOR_2)*%
X66628400Y-26998600D03*
D17*
%TO.P,J10,6,GND_2*%
%TO.N,Net-(J10-GND_2)*%
X68478400Y-39598600D03*
%TO.P,J10,7,VCC*%
%TO.N,VCC_3V3*%
X70478400Y-39598600D03*
%TO.P,J10,8,VIN*%
%TO.N,Net-(J10-VIN)*%
X72478400Y-39598600D03*
%TD*%
D14*
%TO.P,J13,1,Pin_1*%
%TO.N,Net-(J10-GND_2)*%
X71872000Y-46400000D03*
D18*
%TO.P,J13,2,Pin_2*%
%TO.N,Net-(J10-LEFT_CHANNEL)*%
X73142000Y-46400000D03*
%TO.P,J13,3,Pin_3*%
%TO.N,Net-(J10-DETECTOR_2)*%
X74412000Y-46400000D03*
%TO.P,J13,4,Pin_4*%
%TO.N,Net-(J10-RIGHT_CHANNEL)*%
X75682000Y-46400000D03*
%TO.P,J13,5,Pin_5*%
%TO.N,Net-(J10-DETECTOR_1)*%
X76952000Y-46400000D03*
%TD*%
D14*
%TO.P,J11,1,Pin_1*%
%TO.N,GND*%
X56134000Y-30226000D03*
D18*
%TO.P,J11,2,Pin_2*%
%TO.N,Net-(J11-Pin_2)*%
X56134000Y-31496000D03*
%TD*%
D12*
%TO.P,J6,1,MISO*%
%TO.N,MCU_MISO*%
X61710000Y-71250000D03*
D13*
%TO.P,J6,2,VCC*%
%TO.N,VIN_5V*%
X61710000Y-68710000D03*
%TO.P,J6,3,SCK*%
%TO.N,MCU_SCK*%
X64250000Y-71250000D03*
%TO.P,J6,4,MOSI*%
%TO.N,MCU_MOSI*%
X64250000Y-68710000D03*
%TO.P,J6,5,~{RST}*%
%TO.N,MCU_RST*%
X66790000Y-71250000D03*
%TO.P,J6,6,GND*%
%TO.N,GND*%
X66790000Y-68710000D03*
%TD*%
D12*
%TO.P,J1,1,Pin_1*%
%TO.N,GND*%
X62000000Y-49180000D03*
D13*
%TO.P,J1,2,Pin_2*%
X62000000Y-51720000D03*
%TO.P,J1,3,Pin_3*%
%TO.N,VCC_3V3*%
X62000000Y-54260000D03*
%TO.P,J1,4,Pin_4*%
%TO.N,MCU_RXD0*%
X62000000Y-56800000D03*
%TO.P,J1,5,Pin_5*%
%TO.N,MCU_TXD0*%
X62000000Y-59340000D03*
%TO.P,J1,6,Pin_6*%
%TO.N,MCU_RST*%
X62000000Y-61880000D03*
%TD*%
D12*
%TO.P,JP1,1,A*%
%TO.N,CLKGEN_OUT_I2S_MCLK*%
X39750000Y-39250000D03*
D13*
%TO.P,JP1,2,C*%
%TO.N,CODEC_IN_I2S_MCLK*%
X39750000Y-36710000D03*
%TO.P,JP1,3,B*%
%TO.N,EXTERNAL_IN_I2S_MCLK*%
X39750000Y-34170000D03*
%TD*%
D12*
%TO.P,J8,1,Pin_1*%
%TO.N,GND*%
X25500000Y-40500000D03*
D13*
%TO.P,J8,2,Pin_2*%
%TO.N,Net-(J8-Pin_2)*%
X28040000Y-40500000D03*
%TO.P,J8,3,Pin_3*%
%TO.N,Net-(J8-Pin_3)*%
X30580000Y-40500000D03*
%TD*%
D14*
%TO.P,J16,1,Pin_1*%
%TO.N,CODEC_RESETB*%
X52000000Y-52000000D03*
%TD*%
D10*
%TO.P,H2,1*%
%TO.N,N/C*%
X79248000Y-23876000D03*
D11*
X79248000Y-23876000D03*
%TD*%
D12*
%TO.P,J5,1,Pin_1*%
%TO.N,Net-(J5-Pin_1)*%
X37340000Y-58500000D03*
D13*
%TO.P,J5,2,Pin_2*%
%TO.N,GND*%
X34800000Y-58500000D03*
%TO.P,J5,3,Pin_3*%
%TO.N,Net-(J5-Pin_3)*%
X37340000Y-55960000D03*
%TO.P,J5,4,Pin_4*%
%TO.N,GND*%
X34800000Y-55960000D03*
%TD*%
D10*
%TO.P,H4,1*%
%TO.N,N/C*%
X79248000Y-77978000D03*
D11*
X79248000Y-77978000D03*
%TD*%
D19*
%TO.N,GND*%
X66000000Y-59250000D03*
X25400000Y-51460400D03*
X42000000Y-58750000D03*
X40198600Y-71614700D03*
X36346900Y-47250000D03*
X45500000Y-50750000D03*
X67200000Y-43800000D03*
X73342800Y-50000000D03*
X58750000Y-73000000D03*
X42256000Y-77244000D03*
X53635200Y-70843200D03*
X41000000Y-45750000D03*
X25762937Y-46651999D03*
X74250000Y-73750000D03*
X43750000Y-56750000D03*
X37375000Y-50875000D03*
X50000000Y-48400000D03*
X46250000Y-60000000D03*
X36500000Y-77000000D03*
X57400000Y-43800000D03*
X48500000Y-60000000D03*
X53000000Y-44500000D03*
X57000000Y-55000000D03*
X38100000Y-44881800D03*
X40224000Y-70033700D03*
D20*
X46000000Y-31750000D03*
D19*
X37400000Y-69141400D03*
%TO.N,MCU_RST*%
X68500000Y-64750000D03*
%TO.N,MCU_SCK*%
X58250000Y-74750000D03*
%TO.N,MCU_MOSI*%
X49368000Y-77294800D03*
%TO.N,MCU_SDA1*%
X47500000Y-52000000D03*
X27000000Y-52000000D03*
X49250000Y-63000000D03*
%TO.N,MCU_SCL1*%
X47730264Y-63000000D03*
X47730264Y-58750000D03*
X28737972Y-52737972D03*
%TO.N,MCU_RXD0*%
X55250000Y-57500000D03*
%TO.N,CODEC_OUT_SPDIF_AUDIO_DATA*%
X54400000Y-41854818D03*
X55626000Y-43992800D03*
D20*
%TO.N,VCC_3V3*%
X57500000Y-63750000D03*
D19*
X26000000Y-43250000D03*
X36500000Y-43250000D03*
X40500000Y-43250000D03*
D20*
X58500000Y-58500000D03*
D19*
%TO.N,MCU_TXD0*%
X52500000Y-60500000D03*
X45361400Y-64611400D03*
%TO.N,CODEC_INT0*%
X46500000Y-56750000D03*
X46500000Y-53100000D03*
%TD*%
D21*
%TO.N,GND*%
X74250000Y-59750000D02*
X72500000Y-58000000D01*
X72500000Y-58000000D02*
X67500000Y-58000000D01*
X67250000Y-58000000D02*
X67500000Y-58000000D01*
X66000000Y-59250000D02*
X67250000Y-58000000D01*
D22*
%TO.N,MCU_RST*%
X68500000Y-64750000D02*
X67250000Y-64750000D01*
X67250000Y-64750000D02*
X64380000Y-61880000D01*
X64380000Y-61880000D02*
X62000000Y-61880000D01*
D21*
%TO.N,MCU_SCK*%
X58250000Y-74750000D02*
X62250000Y-74750000D01*
X62250000Y-74750000D02*
X64250000Y-72750000D01*
X64250000Y-72750000D02*
X64250000Y-71250000D01*
%TO.N,MCU_MOSI*%
X49412800Y-77250000D02*
X49368000Y-77294800D01*
X59000000Y-65750000D02*
X54425700Y-70324300D01*
D22*
X64250000Y-67250000D02*
X62750000Y-65750000D01*
D21*
X62750000Y-65750000D02*
X59000000Y-65750000D01*
X54425700Y-76824300D02*
X54000000Y-77250000D01*
D22*
X64250000Y-68710000D02*
X64250000Y-67250000D01*
D21*
X49412800Y-77250000D02*
X54000000Y-77250000D01*
X54425700Y-70324300D02*
X54425700Y-76824300D01*
D22*
%TO.N,MCU_SDA1*%
X47500000Y-52000000D02*
X27000000Y-52000000D01*
X49250000Y-56250000D02*
X49250000Y-63000000D01*
X47800000Y-54800000D02*
X49250000Y-56250000D01*
X47800000Y-52300000D02*
X47800000Y-54800000D01*
X47500000Y-52000000D02*
X47800000Y-52300000D01*
%TO.N,MCU_SCL1*%
X47730264Y-63000000D02*
X47730264Y-58750000D01*
X28750000Y-52750000D02*
X38224695Y-52750000D01*
X44224695Y-58750000D02*
X47730264Y-58750000D01*
X28737972Y-52737972D02*
X28750000Y-52750000D01*
X38224695Y-52750000D02*
X44224695Y-58750000D01*
%TO.N,MCU_RXD0*%
X55950000Y-56800000D02*
X62000000Y-56800000D01*
X55250000Y-57500000D02*
X55950000Y-56800000D01*
D23*
%TO.N,CODEC_OUT_SPDIF_AUDIO_DATA*%
X55626000Y-43080818D02*
X54400000Y-41854818D01*
X55626000Y-43992800D02*
X55626000Y-43080818D01*
D21*
%TO.N,VCC_3V3*%
X68500000Y-41577000D02*
X68500000Y-47760000D01*
X70478400Y-39598600D02*
X68500000Y-41577000D01*
X68500000Y-47760000D02*
X62000000Y-54260000D01*
X36500000Y-43250000D02*
X26000000Y-43250000D01*
X58500000Y-62750000D02*
X58500000Y-58500000D01*
X57500000Y-63750000D02*
X58500000Y-62750000D01*
X40500000Y-43250000D02*
X36500000Y-43250000D01*
D22*
%TO.N,MCU_TXD0*%
X51000000Y-64500000D02*
X45472800Y-64500000D01*
X52500000Y-63000000D02*
X51000000Y-64500000D01*
X45472800Y-64500000D02*
X45361400Y-64611400D01*
X52500000Y-60500000D02*
X52500000Y-63000000D01*
%TO.N,Net-(J10-GND_2)*%
X71872000Y-44528000D02*
X75000000Y-41400000D01*
X70877000Y-37200000D02*
X68478400Y-39598600D01*
X73200000Y-37200000D02*
X70877000Y-37200000D01*
X75000000Y-41400000D02*
X75000000Y-39000000D01*
X75000000Y-39000000D02*
X73200000Y-37200000D01*
X71872000Y-46400000D02*
X71872000Y-44528000D01*
%TO.N,CODEC_INT0*%
X46500000Y-56750000D02*
X46500000Y-53100000D01*
%TD*%
%TA.AperFunction,Conductor*%
%TO.N,GND*%
G36*
X62250000Y-51286988D02*
G01*
X62192993Y-51254075D01*
X62065826Y-51220000D01*
X61934174Y-51220000D01*
X61807007Y-51254075D01*
X61750000Y-51286988D01*
X61750000Y-49613012D01*
X61807007Y-49645925D01*
X61934174Y-49680000D01*
X62065826Y-49680000D01*
X62192993Y-49645925D01*
X62250000Y-49613012D01*
X62250000Y-51286988D01*
G37*
%TD.AperFunction*%
%TA.AperFunction,Conductor*%
G36*
X48537693Y-59307366D02*
G01*
X48595741Y-59346252D01*
X48623551Y-59410349D01*
X48624500Y-59425657D01*
X48624500Y-62301312D01*
X48604815Y-62368351D01*
X48592651Y-62384284D01*
X48582283Y-62395799D01*
X48522796Y-62432447D01*
X48452939Y-62431118D01*
X48397981Y-62395799D01*
X48387613Y-62384284D01*
X48357384Y-62321292D01*
X48355764Y-62301312D01*
X48355764Y-59448687D01*
X48375449Y-59381648D01*
X48387613Y-59365715D01*
X48408351Y-59342683D01*
X48467836Y-59306037D01*
X48537693Y-59307366D01*
G37*
%TD.AperFunction*%
%TA.AperFunction,Conductor*%
G36*
X45603700Y-52645185D02*
G01*
X45649455Y-52697989D01*
X45659399Y-52767147D01*
X45654592Y-52787818D01*
X45630768Y-52861142D01*
X45614326Y-52911744D01*
X45594540Y-53100000D01*
X45614326Y-53288256D01*
X45614327Y-53288259D01*
X45672818Y-53468277D01*
X45672821Y-53468284D01*
X45767467Y-53632216D01*
X45810772Y-53680310D01*
X45842650Y-53715715D01*
X45872880Y-53778706D01*
X45874500Y-53798687D01*
X45874500Y-56051312D01*
X45854815Y-56118351D01*
X45842650Y-56134284D01*
X45767466Y-56217784D01*
X45672821Y-56381715D01*
X45672818Y-56381722D01*
X45614327Y-56561740D01*
X45614326Y-56561744D01*
X45594540Y-56750000D01*
X45614326Y-56938256D01*
X45614327Y-56938259D01*
X45672818Y-57118277D01*
X45672821Y-57118284D01*
X45767467Y-57282216D01*
X45880421Y-57407664D01*
X45894129Y-57422888D01*
X46047265Y-57534148D01*
X46047270Y-57534151D01*
X46220192Y-57611142D01*
X46220197Y-57611144D01*
X46405354Y-57650500D01*
X46405355Y-57650500D01*
X46594644Y-57650500D01*
X46594646Y-57650500D01*
X46779803Y-57611144D01*
X46952730Y-57534151D01*
X47105871Y-57422888D01*
X47232533Y-57282216D01*
X47327179Y-57118284D01*
X47385674Y-56938256D01*
X47405460Y-56750000D01*
X47385674Y-56561744D01*
X47327179Y-56381716D01*
X47232533Y-56217784D01*
X47206070Y-56188394D01*
X47157350Y-56134284D01*
X47127120Y-56071292D01*
X47125500Y-56051312D01*
X47125500Y-55309453D01*
X47145185Y-55242414D01*
X47197989Y-55196659D01*
X47267147Y-55186715D01*
X47330703Y-55215740D01*
X47337181Y-55221772D01*
X47408332Y-55292923D01*
X47408338Y-55292928D01*
X48588181Y-56472771D01*
X48621666Y-56534094D01*
X48624500Y-56560452D01*
X48624500Y-58074342D01*
X48604815Y-58141381D01*
X48552011Y-58187136D01*
X48482853Y-58197080D01*
X48419297Y-58168055D01*
X48408350Y-58157315D01*
X48394003Y-58141381D01*
X48336135Y-58077112D01*
X48336131Y-58077109D01*
X48182998Y-57965851D01*
X48182993Y-57965848D01*
X48010071Y-57888857D01*
X48010066Y-57888855D01*
X47864265Y-57857865D01*
X47824910Y-57849500D01*
X47635618Y-57849500D01*
X47603161Y-57856398D01*
X47450461Y-57888855D01*
X47450456Y-57888857D01*
X47277534Y-57965848D01*
X47277529Y-57965851D01*
X47124394Y-58077110D01*
X47124390Y-58077114D01*
X47118664Y-58083474D01*
X47059177Y-58120121D01*
X47026516Y-58124500D01*
X44535148Y-58124500D01*
X44468109Y-58104815D01*
X44447467Y-58088181D01*
X41842288Y-55483002D01*
X39196465Y-52837180D01*
X39162981Y-52775858D01*
X39167965Y-52706166D01*
X39209837Y-52650233D01*
X39275301Y-52625816D01*
X39284147Y-52625500D01*
X45536661Y-52625500D01*
X45603700Y-52645185D01*
G37*
%TD.AperFunction*%
%TA.AperFunction,Conductor*%
G36*
X35050000Y-58066988D02*
G01*
X34992993Y-58034075D01*
X34865826Y-58000000D01*
X34734174Y-58000000D01*
X34607007Y-58034075D01*
X34550000Y-58066988D01*
X34550000Y-56393012D01*
X34607007Y-56425925D01*
X34734174Y-56460000D01*
X34865826Y-56460000D01*
X34992993Y-56425925D01*
X35050000Y-56393012D01*
X35050000Y-58066988D01*
G37*
%TD.AperFunction*%
%TA.AperFunction,Conductor*%
G36*
X81943039Y-20119685D02*
G01*
X81988794Y-20172489D01*
X82000000Y-20224000D01*
X82000000Y-82976000D01*
X81980315Y-83043039D01*
X81927511Y-83088794D01*
X81876000Y-83100000D01*
X20624000Y-83100000D01*
X20556961Y-83080315D01*
X20511206Y-83027511D01*
X20500000Y-82976000D01*
X20500000Y-77978007D01*
X21874671Y-77978007D01*
X21893964Y-78272363D01*
X21893965Y-78272373D01*
X21893966Y-78272380D01*
X21893968Y-78272390D01*
X21951518Y-78561716D01*
X21951521Y-78561730D01*
X22046349Y-78841080D01*
X22176825Y-79105660D01*
X22176829Y-79105667D01*
X22340725Y-79350955D01*
X22535241Y-79572758D01*
X22757043Y-79767273D01*
X23002335Y-79931172D01*
X23266923Y-80061652D01*
X23546278Y-80156481D01*
X23835620Y-80214034D01*
X23863888Y-80215886D01*
X24129993Y-80233329D01*
X24130000Y-80233329D01*
X24130007Y-80233329D01*
X24365675Y-80217881D01*
X24424380Y-80214034D01*
X24713722Y-80156481D01*
X24993077Y-80061652D01*
X25257665Y-79931172D01*
X25307544Y-79897844D01*
X58110000Y-79897844D01*
X58116401Y-79957372D01*
X58116403Y-79957379D01*
X58166645Y-80092086D01*
X58166649Y-80092093D01*
X58252809Y-80207187D01*
X58252812Y-80207190D01*
X58367906Y-80293350D01*
X58367913Y-80293354D01*
X58502620Y-80343596D01*
X58502627Y-80343598D01*
X58562155Y-80349999D01*
X58562172Y-80350000D01*
X59210000Y-80350000D01*
X59210000Y-79433012D01*
X59267007Y-79465925D01*
X59394174Y-79500000D01*
X59525826Y-79500000D01*
X59652993Y-79465925D01*
X59710000Y-79433012D01*
X59710000Y-80350000D01*
X60357828Y-80350000D01*
X60357844Y-80349999D01*
X60417372Y-80343598D01*
X60417379Y-80343596D01*
X60552086Y-80293354D01*
X60552093Y-80293350D01*
X60667187Y-80207190D01*
X60667190Y-80207187D01*
X60753350Y-80092093D01*
X60753354Y-80092086D01*
X60802422Y-79960529D01*
X60844293Y-79904595D01*
X60909757Y-79880178D01*
X60978030Y-79895030D01*
X61006285Y-79916181D01*
X61128599Y-80038495D01*
X61161668Y-80061650D01*
X61322165Y-80174032D01*
X61322167Y-80174033D01*
X61322170Y-80174035D01*
X61536337Y-80273903D01*
X61764592Y-80335063D01*
X61935319Y-80350000D01*
X61999999Y-80355659D01*
X62000000Y-80355659D01*
X62000001Y-80355659D01*
X62064681Y-80350000D01*
X62235408Y-80335063D01*
X62463663Y-80273903D01*
X62677830Y-80174035D01*
X62871401Y-80038495D01*
X63038495Y-79871401D01*
X63174035Y-79677830D01*
X63273903Y-79463663D01*
X63335063Y-79235408D01*
X63355659Y-79000000D01*
X63335063Y-78764592D01*
X63273903Y-78536337D01*
X63174035Y-78322171D01*
X63139179Y-78272390D01*
X63038494Y-78128597D01*
X62887903Y-77978007D01*
X76992671Y-77978007D01*
X77011964Y-78272363D01*
X77011965Y-78272373D01*
X77011966Y-78272380D01*
X77011968Y-78272390D01*
X77069518Y-78561716D01*
X77069521Y-78561730D01*
X77164349Y-78841080D01*
X77294825Y-79105660D01*
X77294829Y-79105667D01*
X77458725Y-79350955D01*
X77653241Y-79572758D01*
X77875043Y-79767273D01*
X78120335Y-79931172D01*
X78384923Y-80061652D01*
X78664278Y-80156481D01*
X78953620Y-80214034D01*
X78981888Y-80215886D01*
X79247993Y-80233329D01*
X79248000Y-80233329D01*
X79248007Y-80233329D01*
X79483675Y-80217881D01*
X79542380Y-80214034D01*
X79831722Y-80156481D01*
X80111077Y-80061652D01*
X80375665Y-79931172D01*
X80620957Y-79767273D01*
X80842758Y-79572758D01*
X81037273Y-79350957D01*
X81201172Y-79105665D01*
X81331652Y-78841077D01*
X81426481Y-78561722D01*
X81484034Y-78272380D01*
X81493458Y-78128597D01*
X81503329Y-77978007D01*
X81503329Y-77977992D01*
X81484035Y-77683636D01*
X81484034Y-77683620D01*
X81426481Y-77394278D01*
X81331652Y-77114923D01*
X81201172Y-76850336D01*
X81037273Y-76605043D01*
X80954493Y-76510651D01*
X80842758Y-76383241D01*
X80620955Y-76188725D01*
X80375667Y-76024829D01*
X80375660Y-76024825D01*
X80111080Y-75894349D01*
X79831730Y-75799521D01*
X79831724Y-75799519D01*
X79831722Y-75799519D01*
X79542380Y-75741966D01*
X79542373Y-75741965D01*
X79542363Y-75741964D01*
X79248007Y-75722671D01*
X79247993Y-75722671D01*
X78953636Y-75741964D01*
X78953624Y-75741965D01*
X78953620Y-75741966D01*
X78953612Y-75741967D01*
X78953609Y-75741968D01*
X78664283Y-75799518D01*
X78664269Y-75799521D01*
X78384919Y-75894349D01*
X78120334Y-76024828D01*
X77875041Y-76188728D01*
X77653241Y-76383241D01*
X77458728Y-76605041D01*
X77294828Y-76850334D01*
X77164349Y-77114919D01*
X77069521Y-77394269D01*
X77069518Y-77394283D01*
X77011968Y-77683609D01*
X77011964Y-77683636D01*
X76992671Y-77977992D01*
X76992671Y-77978007D01*
X62887903Y-77978007D01*
X62871402Y-77961506D01*
X62871395Y-77961501D01*
X62677834Y-77825967D01*
X62677830Y-77825965D01*
X62593701Y-77786735D01*
X62463663Y-77726097D01*
X62463659Y-77726096D01*
X62463655Y-77726094D01*
X62235413Y-77664938D01*
X62235403Y-77664936D01*
X62000001Y-77644341D01*
X61999999Y-77644341D01*
X61764596Y-77664936D01*
X61764586Y-77664938D01*
X61536344Y-77726094D01*
X61536335Y-77726098D01*
X61322171Y-77825964D01*
X61322169Y-77825965D01*
X61128600Y-77961503D01*
X61006284Y-78083819D01*
X60944961Y-78117303D01*
X60875269Y-78112319D01*
X60819336Y-78070447D01*
X60802421Y-78039470D01*
X60753354Y-77907913D01*
X60753350Y-77907906D01*
X60667190Y-77792812D01*
X60667187Y-77792809D01*
X60552093Y-77706649D01*
X60552086Y-77706645D01*
X60417379Y-77656403D01*
X60417372Y-77656401D01*
X60357844Y-77650000D01*
X59710000Y-77650000D01*
X59710000Y-78566988D01*
X59652993Y-78534075D01*
X59525826Y-78500000D01*
X59394174Y-78500000D01*
X59267007Y-78534075D01*
X59210000Y-78566988D01*
X59210000Y-77650000D01*
X58562155Y-77650000D01*
X58502627Y-77656401D01*
X58502620Y-77656403D01*
X58367913Y-77706645D01*
X58367906Y-77706649D01*
X58252812Y-77792809D01*
X58252809Y-77792812D01*
X58166649Y-77907906D01*
X58166645Y-77907913D01*
X58116403Y-78042620D01*
X58116401Y-78042627D01*
X58110000Y-78102155D01*
X58110000Y-78750000D01*
X59026988Y-78750000D01*
X58994075Y-78807007D01*
X58960000Y-78934174D01*
X58960000Y-79065826D01*
X58994075Y-79192993D01*
X59026988Y-79250000D01*
X58110000Y-79250000D01*
X58110000Y-79897844D01*
X25307544Y-79897844D01*
X25502957Y-79767273D01*
X25724758Y-79572758D01*
X25919273Y-79350957D01*
X26083172Y-79105665D01*
X26213652Y-78841077D01*
X26308481Y-78561722D01*
X26366034Y-78272380D01*
X26375458Y-78128597D01*
X26385329Y-77978007D01*
X26385329Y-77977992D01*
X26366035Y-77683636D01*
X26366034Y-77683620D01*
X26308481Y-77394278D01*
X26274713Y-77294800D01*
X48462540Y-77294800D01*
X48482326Y-77483056D01*
X48482327Y-77483059D01*
X48540818Y-77663077D01*
X48540821Y-77663084D01*
X48635467Y-77827016D01*
X48714187Y-77914443D01*
X48762129Y-77967688D01*
X48915265Y-78078948D01*
X48915270Y-78078951D01*
X49088192Y-78155942D01*
X49088197Y-78155944D01*
X49273354Y-78195300D01*
X49273355Y-78195300D01*
X49462644Y-78195300D01*
X49462646Y-78195300D01*
X49647803Y-78155944D01*
X49820730Y-78078951D01*
X49875071Y-78039470D01*
X49978009Y-77964682D01*
X50043815Y-77941202D01*
X50050894Y-77941000D01*
X54068060Y-77941000D01*
X54157870Y-77923134D01*
X54201557Y-77914445D01*
X54327311Y-77862356D01*
X54373438Y-77831535D01*
X54380202Y-77827016D01*
X54395787Y-77816601D01*
X54440487Y-77786735D01*
X54962435Y-77264786D01*
X55038056Y-77151611D01*
X55090145Y-77025857D01*
X55109904Y-76926522D01*
X55116700Y-76892359D01*
X55116700Y-70661884D01*
X55136385Y-70594845D01*
X55153019Y-70574203D01*
X59249903Y-66477319D01*
X59311226Y-66443834D01*
X59337584Y-66441000D01*
X62505048Y-66441000D01*
X62572087Y-66460685D01*
X62592729Y-66477319D01*
X63514261Y-67398851D01*
X63547746Y-67460174D01*
X63542762Y-67529866D01*
X63500890Y-67585799D01*
X63497704Y-67588107D01*
X63378594Y-67671508D01*
X63211505Y-67838597D01*
X63081575Y-68024158D01*
X63026998Y-68067783D01*
X62957500Y-68074977D01*
X62895145Y-68043454D01*
X62878425Y-68024158D01*
X62748494Y-67838597D01*
X62581402Y-67671506D01*
X62581395Y-67671501D01*
X62387834Y-67535967D01*
X62387830Y-67535965D01*
X62335500Y-67511563D01*
X62173663Y-67436097D01*
X62173659Y-67436096D01*
X62173655Y-67436094D01*
X61945413Y-67374938D01*
X61945403Y-67374936D01*
X61710001Y-67354341D01*
X61709999Y-67354341D01*
X61474596Y-67374936D01*
X61474586Y-67374938D01*
X61246344Y-67436094D01*
X61246335Y-67436098D01*
X61032171Y-67535964D01*
X61032169Y-67535965D01*
X60838597Y-67671505D01*
X60671505Y-67838597D01*
X60535965Y-68032169D01*
X60535964Y-68032171D01*
X60436098Y-68246335D01*
X60436094Y-68246344D01*
X60374938Y-68474586D01*
X60374936Y-68474596D01*
X60354341Y-68709999D01*
X60354341Y-68710000D01*
X60374936Y-68945403D01*
X60374938Y-68945413D01*
X60436094Y-69173655D01*
X60436096Y-69173659D01*
X60436097Y-69173663D01*
X60516004Y-69345023D01*
X60535965Y-69387830D01*
X60535967Y-69387834D01*
X60644281Y-69542521D01*
X60671501Y-69581396D01*
X60671506Y-69581402D01*
X60793430Y-69703326D01*
X60826915Y-69764649D01*
X60821931Y-69834341D01*
X60780059Y-69890274D01*
X60749083Y-69907189D01*
X60617669Y-69956203D01*
X60617664Y-69956206D01*
X60502455Y-70042452D01*
X60502452Y-70042455D01*
X60416206Y-70157664D01*
X60416202Y-70157671D01*
X60365908Y-70292517D01*
X60359501Y-70352116D01*
X60359500Y-70352135D01*
X60359500Y-72147870D01*
X60359501Y-72147876D01*
X60365908Y-72207483D01*
X60416202Y-72342328D01*
X60416206Y-72342335D01*
X60502452Y-72457544D01*
X60502455Y-72457547D01*
X60617664Y-72543793D01*
X60617671Y-72543797D01*
X60752517Y-72594091D01*
X60752516Y-72594091D01*
X60759444Y-72594835D01*
X60812127Y-72600500D01*
X62607872Y-72600499D01*
X62667483Y-72594091D01*
X62802331Y-72543796D01*
X62917546Y-72457546D01*
X63003796Y-72342331D01*
X63052810Y-72210916D01*
X63094681Y-72154984D01*
X63160145Y-72130566D01*
X63228418Y-72145417D01*
X63256673Y-72166569D01*
X63378599Y-72288495D01*
X63453658Y-72341052D01*
X63466747Y-72350217D01*
X63510372Y-72404794D01*
X63517564Y-72474293D01*
X63486042Y-72536647D01*
X63483304Y-72539473D01*
X62000097Y-74022681D01*
X61938774Y-74056166D01*
X61912416Y-74059000D01*
X58871232Y-74059000D01*
X58804193Y-74039315D01*
X58798347Y-74035318D01*
X58702734Y-73965851D01*
X58702729Y-73965848D01*
X58529807Y-73888857D01*
X58529802Y-73888855D01*
X58384001Y-73857865D01*
X58344646Y-73849500D01*
X58155354Y-73849500D01*
X58122897Y-73856398D01*
X57970197Y-73888855D01*
X57970192Y-73888857D01*
X57797270Y-73965848D01*
X57797265Y-73965851D01*
X57644129Y-74077111D01*
X57517466Y-74217785D01*
X57422821Y-74381715D01*
X57422818Y-74381722D01*
X57364327Y-74561740D01*
X57364326Y-74561744D01*
X57344540Y-74750000D01*
X57364326Y-74938256D01*
X57364327Y-74938259D01*
X57422818Y-75118277D01*
X57422821Y-75118284D01*
X57517467Y-75282216D01*
X57636525Y-75414443D01*
X57644129Y-75422888D01*
X57797265Y-75534148D01*
X57797270Y-75534151D01*
X57970192Y-75611142D01*
X57970197Y-75611144D01*
X58155354Y-75650500D01*
X58155355Y-75650500D01*
X58344644Y-75650500D01*
X58344646Y-75650500D01*
X58529803Y-75611144D01*
X58702730Y-75534151D01*
X58718762Y-75522502D01*
X58798347Y-75464682D01*
X58864153Y-75441202D01*
X58871232Y-75441000D01*
X62318060Y-75441000D01*
X62409112Y-75422888D01*
X62451557Y-75414445D01*
X62577311Y-75362356D01*
X62624637Y-75330734D01*
X62690487Y-75286735D01*
X64786735Y-73190487D01*
X64862356Y-73077311D01*
X64914445Y-72951557D01*
X64941000Y-72818057D01*
X64941000Y-72681943D01*
X64941000Y-72479363D01*
X64960685Y-72412324D01*
X64993877Y-72377788D01*
X65121401Y-72288495D01*
X65288495Y-72121401D01*
X65418425Y-71935842D01*
X65473002Y-71892217D01*
X65542500Y-71885023D01*
X65604855Y-71916546D01*
X65621575Y-71935842D01*
X65751500Y-72121395D01*
X65751505Y-72121401D01*
X65918599Y-72288495D01*
X66006747Y-72350217D01*
X66112165Y-72424032D01*
X66112167Y-72424033D01*
X66112170Y-72424035D01*
X66326337Y-72523903D01*
X66554592Y-72585063D01*
X66731034Y-72600500D01*
X66789999Y-72605659D01*
X66790000Y-72605659D01*
X66790001Y-72605659D01*
X66848966Y-72600500D01*
X67025408Y-72585063D01*
X67253663Y-72523903D01*
X67467830Y-72424035D01*
X67661401Y-72288495D01*
X67828495Y-72121401D01*
X67964035Y-71927830D01*
X68063903Y-71713663D01*
X68125063Y-71485408D01*
X68145659Y-71250000D01*
X68125063Y-71014592D01*
X68063903Y-70786337D01*
X67964035Y-70572171D01*
X67958425Y-70564158D01*
X67828494Y-70378597D01*
X67661402Y-70211506D01*
X67661401Y-70211505D01*
X67475405Y-70081269D01*
X67431781Y-70026692D01*
X67424588Y-69957193D01*
X67456110Y-69894839D01*
X67475405Y-69878119D01*
X67661082Y-69748105D01*
X67828105Y-69581082D01*
X67963600Y-69387578D01*
X68063429Y-69173492D01*
X68063432Y-69173486D01*
X68120636Y-68960000D01*
X67223012Y-68960000D01*
X67255925Y-68902993D01*
X67290000Y-68775826D01*
X67290000Y-68644174D01*
X67255925Y-68517007D01*
X67223012Y-68460000D01*
X68120636Y-68460000D01*
X68120635Y-68459999D01*
X68063432Y-68246513D01*
X68063429Y-68246507D01*
X67963600Y-68032422D01*
X67963599Y-68032420D01*
X67828113Y-67838926D01*
X67828108Y-67838920D01*
X67661082Y-67671894D01*
X67467578Y-67536399D01*
X67253492Y-67436570D01*
X67253486Y-67436567D01*
X67040000Y-67379364D01*
X67040000Y-68276988D01*
X66982993Y-68244075D01*
X66855826Y-68210000D01*
X66724174Y-68210000D01*
X66597007Y-68244075D01*
X66540000Y-68276988D01*
X66540000Y-67379364D01*
X66539999Y-67379364D01*
X66326513Y-67436567D01*
X66326507Y-67436570D01*
X66112422Y-67536399D01*
X66112420Y-67536400D01*
X65918926Y-67671886D01*
X65918920Y-67671891D01*
X65751891Y-67838920D01*
X65751890Y-67838922D01*
X65621880Y-68024595D01*
X65567303Y-68068219D01*
X65497804Y-68075412D01*
X65435450Y-68043890D01*
X65418730Y-68024594D01*
X65288494Y-67838597D01*
X65121402Y-67671506D01*
X65121401Y-67671505D01*
X64959062Y-67557834D01*
X64928376Y-67536347D01*
X64884751Y-67481770D01*
X64875500Y-67434772D01*
X64875500Y-67188393D01*
X64875499Y-67188389D01*
X64851463Y-67067548D01*
X64804311Y-66953714D01*
X64804310Y-66953713D01*
X64804307Y-66953707D01*
X64735859Y-66851268D01*
X64735858Y-66851267D01*
X64648733Y-66764142D01*
X64648732Y-66764141D01*
X63418741Y-65534151D01*
X63391862Y-65493923D01*
X63362359Y-65422694D01*
X63362352Y-65422682D01*
X63286734Y-65309513D01*
X63286731Y-65309509D01*
X63190490Y-65213268D01*
X63190486Y-65213265D01*
X63077317Y-65137647D01*
X63077304Y-65137640D01*
X62951561Y-65085556D01*
X62951551Y-65085553D01*
X62818060Y-65059000D01*
X62818058Y-65059000D01*
X58931942Y-65059000D01*
X58931940Y-65059000D01*
X58836776Y-65077930D01*
X58836775Y-65077930D01*
X58798450Y-65085553D01*
X58798438Y-65085556D01*
X58672690Y-65137642D01*
X58672687Y-65137644D01*
X58559514Y-65213263D01*
X58559507Y-65213269D01*
X53888969Y-69883807D01*
X53888963Y-69883814D01*
X53822087Y-69983903D01*
X53822087Y-69983905D01*
X53813342Y-69996991D01*
X53813341Y-69996993D01*
X53761256Y-70122738D01*
X53761253Y-70122748D01*
X53734700Y-70256239D01*
X53734700Y-76435000D01*
X53715015Y-76502039D01*
X53662211Y-76547794D01*
X53610700Y-76559000D01*
X49927570Y-76559000D01*
X49860531Y-76539315D01*
X49854685Y-76535318D01*
X49820734Y-76510651D01*
X49820729Y-76510648D01*
X49647807Y-76433657D01*
X49647802Y-76433655D01*
X49502001Y-76402665D01*
X49462646Y-76394300D01*
X49273354Y-76394300D01*
X49240897Y-76401198D01*
X49088197Y-76433655D01*
X49088192Y-76433657D01*
X48915270Y-76510648D01*
X48915265Y-76510651D01*
X48762129Y-76621911D01*
X48635466Y-76762585D01*
X48540821Y-76926515D01*
X48540818Y-76926522D01*
X48482327Y-77106540D01*
X48482326Y-77106544D01*
X48462540Y-77294800D01*
X26274713Y-77294800D01*
X26213652Y-77114923D01*
X26083172Y-76850336D01*
X25919273Y-76605043D01*
X25836493Y-76510651D01*
X25724758Y-76383241D01*
X25502955Y-76188725D01*
X25257667Y-76024829D01*
X25257660Y-76024825D01*
X24993080Y-75894349D01*
X24713730Y-75799521D01*
X24713724Y-75799519D01*
X24713722Y-75799519D01*
X24424380Y-75741966D01*
X24424373Y-75741965D01*
X24424363Y-75741964D01*
X24130007Y-75722671D01*
X24129993Y-75722671D01*
X23835636Y-75741964D01*
X23835624Y-75741965D01*
X23835620Y-75741966D01*
X23835612Y-75741967D01*
X23835609Y-75741968D01*
X23546283Y-75799518D01*
X23546269Y-75799521D01*
X23266919Y-75894349D01*
X23002334Y-76024828D01*
X22757041Y-76188728D01*
X22535241Y-76383241D01*
X22340728Y-76605041D01*
X22176828Y-76850334D01*
X22046349Y-77114919D01*
X21951521Y-77394269D01*
X21951518Y-77394283D01*
X21893968Y-77683609D01*
X21893964Y-77683636D01*
X21874671Y-77977992D01*
X21874671Y-77978007D01*
X20500000Y-77978007D01*
X20500000Y-66880000D01*
X27644341Y-66880000D01*
X27664936Y-67115403D01*
X27664938Y-67115413D01*
X27726094Y-67343655D01*
X27726096Y-67343659D01*
X27726097Y-67343663D01*
X27780427Y-67460174D01*
X27825965Y-67557830D01*
X27825967Y-67557834D01*
X27934281Y-67712521D01*
X27961505Y-67751401D01*
X28128599Y-67918495D01*
X28225384Y-67986265D01*
X28322165Y-68054032D01*
X28322167Y-68054033D01*
X28322170Y-68054035D01*
X28536337Y-68153903D01*
X28764592Y-68215063D01*
X28952918Y-68231539D01*
X28999999Y-68235659D01*
X29000000Y-68235659D01*
X29000001Y-68235659D01*
X29039234Y-68232226D01*
X29235408Y-68215063D01*
X29463663Y-68153903D01*
X29677830Y-68054035D01*
X29871401Y-67918495D01*
X30038495Y-67751401D01*
X30174035Y-67557830D01*
X30273903Y-67343663D01*
X30335063Y-67115408D01*
X30355659Y-66880000D01*
X30335063Y-66644592D01*
X30273903Y-66416337D01*
X30174035Y-66202171D01*
X30038495Y-66008599D01*
X30038494Y-66008597D01*
X29871402Y-65841506D01*
X29871396Y-65841501D01*
X29685842Y-65711575D01*
X29642217Y-65656998D01*
X29635023Y-65587500D01*
X29666546Y-65525145D01*
X29685842Y-65508425D01*
X29737088Y-65472542D01*
X29871401Y-65378495D01*
X30038495Y-65211401D01*
X30174035Y-65017830D01*
X30273903Y-64803663D01*
X30335063Y-64575408D01*
X30355659Y-64340000D01*
X30335063Y-64104592D01*
X30277258Y-63888857D01*
X30273905Y-63876344D01*
X30273904Y-63876343D01*
X30273903Y-63876337D01*
X30174035Y-63662171D01*
X30162474Y-63645659D01*
X30038494Y-63468597D01*
X29871402Y-63301506D01*
X29871396Y-63301501D01*
X29685842Y-63171575D01*
X29642217Y-63116998D01*
X29635023Y-63047500D01*
X29666546Y-62985145D01*
X29685842Y-62968425D01*
X29709932Y-62951557D01*
X29871401Y-62838495D01*
X30038495Y-62671401D01*
X30174035Y-62477830D01*
X30273903Y-62263663D01*
X30335063Y-62035408D01*
X30355659Y-61800000D01*
X30335063Y-61564592D01*
X30273903Y-61336337D01*
X30174035Y-61122171D01*
X30169515Y-61115715D01*
X30038494Y-60928597D01*
X29871402Y-60761506D01*
X29871396Y-60761501D01*
X29685842Y-60631575D01*
X29642217Y-60576998D01*
X29635023Y-60507500D01*
X29666546Y-60445145D01*
X29685842Y-60428425D01*
X29852485Y-60311740D01*
X29871401Y-60298495D01*
X30038495Y-60131401D01*
X30174035Y-59937830D01*
X30273903Y-59723663D01*
X30335063Y-59495408D01*
X30355659Y-59260000D01*
X30335063Y-59024592D01*
X30273903Y-58796337D01*
X30252296Y-58750000D01*
X33469364Y-58750000D01*
X33526567Y-58963486D01*
X33526570Y-58963492D01*
X33626399Y-59177578D01*
X33761894Y-59371082D01*
X33928917Y-59538105D01*
X34122421Y-59673600D01*
X34336507Y-59773429D01*
X34336516Y-59773433D01*
X34550000Y-59830634D01*
X34550000Y-58933012D01*
X34607007Y-58965925D01*
X34734174Y-59000000D01*
X34865826Y-59000000D01*
X34992993Y-58965925D01*
X35050000Y-58933012D01*
X35050000Y-59830633D01*
X35263483Y-59773433D01*
X35263492Y-59773429D01*
X35477578Y-59673600D01*
X35671078Y-59538108D01*
X35793133Y-59416053D01*
X35854456Y-59382568D01*
X35924148Y-59387552D01*
X35980082Y-59429423D01*
X35996997Y-59460401D01*
X36046202Y-59592328D01*
X36046206Y-59592335D01*
X36132452Y-59707544D01*
X36132455Y-59707547D01*
X36247664Y-59793793D01*
X36247671Y-59793797D01*
X36382517Y-59844091D01*
X36382516Y-59844091D01*
X36389444Y-59844835D01*
X36442127Y-59850500D01*
X38237872Y-59850499D01*
X38297483Y-59844091D01*
X38432331Y-59793796D01*
X38547546Y-59707546D01*
X38633796Y-59592331D01*
X38684091Y-59457483D01*
X38690500Y-59397873D01*
X38690499Y-57602128D01*
X38684091Y-57542517D01*
X38683002Y-57539598D01*
X38633797Y-57407671D01*
X38633793Y-57407664D01*
X38547547Y-57292455D01*
X38547544Y-57292452D01*
X38432335Y-57206206D01*
X38432328Y-57206202D01*
X38300917Y-57157189D01*
X38244983Y-57115318D01*
X38220566Y-57049853D01*
X38235418Y-56981580D01*
X38256563Y-56953332D01*
X38378495Y-56831401D01*
X38514035Y-56637830D01*
X38613903Y-56423663D01*
X38675063Y-56195408D01*
X38695659Y-55960000D01*
X38675063Y-55724592D01*
X38613903Y-55496337D01*
X38514035Y-55282171D01*
X38508731Y-55274595D01*
X38378494Y-55088597D01*
X38211402Y-54921506D01*
X38211395Y-54921501D01*
X38017834Y-54785967D01*
X38017830Y-54785965D01*
X37884223Y-54723663D01*
X37803663Y-54686097D01*
X37803659Y-54686096D01*
X37803655Y-54686094D01*
X37575413Y-54624938D01*
X37575403Y-54624936D01*
X37340001Y-54604341D01*
X37339999Y-54604341D01*
X37104596Y-54624936D01*
X37104586Y-54624938D01*
X36876344Y-54686094D01*
X36876335Y-54686098D01*
X36662171Y-54785964D01*
X36662169Y-54785965D01*
X36468597Y-54921505D01*
X36301508Y-55088594D01*
X36171269Y-55274595D01*
X36116692Y-55318219D01*
X36047193Y-55325412D01*
X35984839Y-55293890D01*
X35968119Y-55274594D01*
X35838113Y-55088926D01*
X35838108Y-55088920D01*
X35671082Y-54921894D01*
X35477578Y-54786399D01*
X35263492Y-54686570D01*
X35263486Y-54686567D01*
X35050000Y-54629364D01*
X35050000Y-55526988D01*
X34992993Y-55494075D01*
X34865826Y-55460000D01*
X34734174Y-55460000D01*
X34607007Y-55494075D01*
X34550000Y-55526988D01*
X34550000Y-54629364D01*
X34549999Y-54629364D01*
X34336513Y-54686567D01*
X34336507Y-54686570D01*
X34122422Y-54786399D01*
X34122420Y-54786400D01*
X33928926Y-54921886D01*
X33928920Y-54921891D01*
X33761891Y-55088920D01*
X33761886Y-55088926D01*
X33626400Y-55282420D01*
X33626399Y-55282422D01*
X33526570Y-55496507D01*
X33526567Y-55496513D01*
X33469364Y-55709999D01*
X33469364Y-55710000D01*
X34366988Y-55710000D01*
X34334075Y-55767007D01*
X34300000Y-55894174D01*
X34300000Y-56025826D01*
X34334075Y-56152993D01*
X34366988Y-56210000D01*
X33469364Y-56210000D01*
X33526567Y-56423486D01*
X33526570Y-56423492D01*
X33626399Y-56637578D01*
X33761894Y-56831082D01*
X33928917Y-56998105D01*
X34115031Y-57128425D01*
X34158656Y-57183003D01*
X34165848Y-57252501D01*
X34134326Y-57314856D01*
X34115031Y-57331575D01*
X33928922Y-57461890D01*
X33928920Y-57461891D01*
X33761891Y-57628920D01*
X33761886Y-57628926D01*
X33626400Y-57822420D01*
X33626399Y-57822422D01*
X33526570Y-58036507D01*
X33526567Y-58036513D01*
X33469364Y-58249999D01*
X33469364Y-58250000D01*
X34366988Y-58250000D01*
X34334075Y-58307007D01*
X34300000Y-58434174D01*
X34300000Y-58565826D01*
X34334075Y-58692993D01*
X34366988Y-58750000D01*
X33469364Y-58750000D01*
X30252296Y-58750000D01*
X30174035Y-58582171D01*
X30162590Y-58565826D01*
X30038496Y-58388600D01*
X30011038Y-58361142D01*
X29916179Y-58266283D01*
X29882696Y-58204963D01*
X29887680Y-58135271D01*
X29929551Y-58079337D01*
X29960529Y-58062422D01*
X30092086Y-58013354D01*
X30092093Y-58013350D01*
X30207187Y-57927190D01*
X30207190Y-57927187D01*
X30293350Y-57812093D01*
X30293354Y-57812086D01*
X30343596Y-57677379D01*
X30343598Y-57677372D01*
X30349999Y-57617844D01*
X30350000Y-57617827D01*
X30350000Y-56970000D01*
X29433012Y-56970000D01*
X29465925Y-56912993D01*
X29500000Y-56785826D01*
X29500000Y-56654174D01*
X29465925Y-56527007D01*
X29433012Y-56470000D01*
X30350000Y-56470000D01*
X30350000Y-55822172D01*
X30349999Y-55822155D01*
X30343598Y-55762627D01*
X30343596Y-55762620D01*
X30293354Y-55627913D01*
X30293350Y-55627906D01*
X30207190Y-55512812D01*
X30207187Y-55512809D01*
X30092093Y-55426649D01*
X30092086Y-55426645D01*
X29957379Y-55376403D01*
X29957372Y-55376401D01*
X29897844Y-55370000D01*
X29250000Y-55370000D01*
X29250000Y-56286988D01*
X29192993Y-56254075D01*
X29065826Y-56220000D01*
X28934174Y-56220000D01*
X28807007Y-56254075D01*
X28750000Y-56286988D01*
X28750000Y-55370000D01*
X28102155Y-55370000D01*
X28042627Y-55376401D01*
X28042620Y-55376403D01*
X27907913Y-55426645D01*
X27907906Y-55426649D01*
X27792812Y-55512809D01*
X27792809Y-55512812D01*
X27706649Y-55627906D01*
X27706645Y-55627913D01*
X27656403Y-55762620D01*
X27656401Y-55762627D01*
X27650000Y-55822155D01*
X27650000Y-56470000D01*
X28566988Y-56470000D01*
X28534075Y-56527007D01*
X28500000Y-56654174D01*
X28500000Y-56785826D01*
X28534075Y-56912993D01*
X28566988Y-56970000D01*
X27650000Y-56970000D01*
X27650000Y-57617844D01*
X27656401Y-57677372D01*
X27656403Y-57677379D01*
X27706645Y-57812086D01*
X27706649Y-57812093D01*
X27792809Y-57927187D01*
X27792812Y-57927190D01*
X27907906Y-58013350D01*
X27907913Y-58013354D01*
X28039470Y-58062421D01*
X28095403Y-58104292D01*
X28119821Y-58169756D01*
X28104970Y-58238029D01*
X28083819Y-58266284D01*
X27961503Y-58388600D01*
X27825965Y-58582169D01*
X27825964Y-58582171D01*
X27726098Y-58796335D01*
X27726094Y-58796344D01*
X27664938Y-59024586D01*
X27664936Y-59024596D01*
X27644341Y-59259999D01*
X27644341Y-59260000D01*
X27664936Y-59495403D01*
X27664938Y-59495413D01*
X27726094Y-59723655D01*
X27726096Y-59723659D01*
X27726097Y-59723663D01*
X27785242Y-59850499D01*
X27825965Y-59937830D01*
X27825967Y-59937834D01*
X27961501Y-60131395D01*
X27961506Y-60131402D01*
X28128597Y-60298493D01*
X28128603Y-60298498D01*
X28314158Y-60428425D01*
X28357783Y-60483002D01*
X28364977Y-60552500D01*
X28333454Y-60614855D01*
X28314158Y-60631575D01*
X28128597Y-60761505D01*
X27961505Y-60928597D01*
X27825965Y-61122169D01*
X27825964Y-61122171D01*
X27726098Y-61336335D01*
X27726094Y-61336344D01*
X27664938Y-61564586D01*
X27664936Y-61564596D01*
X27644341Y-61799999D01*
X27644341Y-61800000D01*
X27664936Y-62035403D01*
X27664938Y-62035413D01*
X27726094Y-62263655D01*
X27726096Y-62263659D01*
X27726097Y-62263663D01*
X27819412Y-62463778D01*
X27825965Y-62477830D01*
X27825967Y-62477834D01*
X27961501Y-62671395D01*
X27961506Y-62671402D01*
X28128597Y-62838493D01*
X28128603Y-62838498D01*
X28314158Y-62968425D01*
X28357783Y-63023002D01*
X28364977Y-63092500D01*
X28333454Y-63154855D01*
X28314158Y-63171575D01*
X28128597Y-63301505D01*
X27961505Y-63468597D01*
X27825965Y-63662169D01*
X27825964Y-63662171D01*
X27726098Y-63876335D01*
X27726094Y-63876344D01*
X27664938Y-64104586D01*
X27664936Y-64104596D01*
X27644341Y-64339999D01*
X27644341Y-64340000D01*
X27664936Y-64575403D01*
X27664938Y-64575413D01*
X27726094Y-64803655D01*
X27726096Y-64803659D01*
X27726097Y-64803663D01*
X27808174Y-64979677D01*
X27825965Y-65017830D01*
X27825967Y-65017834D01*
X27961501Y-65211395D01*
X27961506Y-65211402D01*
X28128597Y-65378493D01*
X28128603Y-65378498D01*
X28314158Y-65508425D01*
X28357783Y-65563002D01*
X28364977Y-65632500D01*
X28333454Y-65694855D01*
X28314158Y-65711575D01*
X28128597Y-65841505D01*
X27961505Y-66008597D01*
X27825965Y-66202169D01*
X27825964Y-66202171D01*
X27726098Y-66416335D01*
X27726094Y-66416344D01*
X27664938Y-66644586D01*
X27664936Y-66644596D01*
X27644341Y-66879999D01*
X27644341Y-66880000D01*
X20500000Y-66880000D01*
X20500000Y-52000000D01*
X26094540Y-52000000D01*
X26114326Y-52188256D01*
X26114327Y-52188259D01*
X26172818Y-52368277D01*
X26172821Y-52368284D01*
X26267467Y-52532216D01*
X26369185Y-52645185D01*
X26394129Y-52672888D01*
X26547265Y-52784148D01*
X26547270Y-52784151D01*
X26720192Y-52861142D01*
X26720197Y-52861144D01*
X26905354Y-52900500D01*
X26905355Y-52900500D01*
X27094644Y-52900500D01*
X27094646Y-52900500D01*
X27279803Y-52861144D01*
X27452730Y-52784151D01*
X27605871Y-52672888D01*
X27608788Y-52669647D01*
X27611600Y-52666526D01*
X27671087Y-52629879D01*
X27703748Y-52625500D01*
X27709041Y-52625500D01*
X27776080Y-52645185D01*
X27821835Y-52697989D01*
X27832362Y-52736539D01*
X27832512Y-52737969D01*
X27832512Y-52737972D01*
X27852298Y-52926228D01*
X27852299Y-52926231D01*
X27910790Y-53106249D01*
X27910793Y-53106256D01*
X28005439Y-53270188D01*
X28100263Y-53375500D01*
X28132101Y-53410860D01*
X28285237Y-53522120D01*
X28285242Y-53522123D01*
X28458164Y-53599114D01*
X28458169Y-53599116D01*
X28643326Y-53638472D01*
X28643327Y-53638472D01*
X28832616Y-53638472D01*
X28832618Y-53638472D01*
X29017775Y-53599116D01*
X29190702Y-53522123D01*
X29343843Y-53410860D01*
X29343846Y-53410855D01*
X29347740Y-53407351D01*
X29410731Y-53377121D01*
X29430713Y-53375500D01*
X37914243Y-53375500D01*
X37981282Y-53395185D01*
X38001923Y-53411818D01*
X43738836Y-59148732D01*
X43738837Y-59148733D01*
X43825962Y-59235858D01*
X43825963Y-59235859D01*
X43928402Y-59304307D01*
X43928408Y-59304310D01*
X43928409Y-59304311D01*
X44042243Y-59351463D01*
X44077828Y-59358541D01*
X44163086Y-59375499D01*
X44163087Y-59375500D01*
X44163088Y-59375500D01*
X44163089Y-59375500D01*
X46980764Y-59375500D01*
X47047803Y-59395185D01*
X47093558Y-59447989D01*
X47104764Y-59499500D01*
X47104764Y-62301312D01*
X47085079Y-62368351D01*
X47072914Y-62384284D01*
X46997730Y-62467784D01*
X46903085Y-62631715D01*
X46903082Y-62631722D01*
X46863461Y-62753664D01*
X46844590Y-62811744D01*
X46824804Y-63000000D01*
X46844590Y-63188256D01*
X46844591Y-63188259D01*
X46903082Y-63368277D01*
X46903085Y-63368284D01*
X46997731Y-63532216D01*
X47119567Y-63667528D01*
X47149797Y-63730519D01*
X47141172Y-63799854D01*
X47096431Y-63853520D01*
X47029778Y-63874478D01*
X47027417Y-63874500D01*
X45919456Y-63874500D01*
X45852417Y-63854815D01*
X45846571Y-63850818D01*
X45814134Y-63827251D01*
X45814129Y-63827248D01*
X45641207Y-63750257D01*
X45641202Y-63750255D01*
X45495401Y-63719265D01*
X45456046Y-63710900D01*
X45266754Y-63710900D01*
X45234297Y-63717798D01*
X45081597Y-63750255D01*
X45081592Y-63750257D01*
X44908670Y-63827248D01*
X44908665Y-63827251D01*
X44755529Y-63938511D01*
X44628866Y-64079185D01*
X44534221Y-64243115D01*
X44534218Y-64243122D01*
X44475727Y-64423140D01*
X44475726Y-64423144D01*
X44455940Y-64611400D01*
X44475726Y-64799656D01*
X44475727Y-64799659D01*
X44534218Y-64979677D01*
X44534221Y-64979684D01*
X44628867Y-65143616D01*
X44753662Y-65282214D01*
X44755529Y-65284288D01*
X44908665Y-65395548D01*
X44908670Y-65395551D01*
X45081592Y-65472542D01*
X45081597Y-65472544D01*
X45266754Y-65511900D01*
X45266755Y-65511900D01*
X45456044Y-65511900D01*
X45456046Y-65511900D01*
X45641203Y-65472544D01*
X45814130Y-65395551D01*
X45967271Y-65284288D01*
X46031221Y-65213265D01*
X46073305Y-65166527D01*
X46132791Y-65129879D01*
X46165454Y-65125500D01*
X51061607Y-65125500D01*
X51122029Y-65113481D01*
X51182452Y-65101463D01*
X51235888Y-65079329D01*
X51235889Y-65079328D01*
X51235891Y-65079328D01*
X51296281Y-65054314D01*
X51296280Y-65054314D01*
X51296286Y-65054312D01*
X51347509Y-65020084D01*
X51350877Y-65017834D01*
X51360271Y-65011556D01*
X51398733Y-64985858D01*
X51485858Y-64898733D01*
X51485858Y-64898731D01*
X51496066Y-64888524D01*
X51496067Y-64888521D01*
X52985857Y-63398734D01*
X52989798Y-63392837D01*
X53054311Y-63296286D01*
X53101463Y-63182452D01*
X53114482Y-63116998D01*
X53123055Y-63073902D01*
X53123055Y-63073897D01*
X53125500Y-63061607D01*
X53125500Y-62938394D01*
X53125500Y-61198687D01*
X53145185Y-61131648D01*
X53157350Y-61115715D01*
X53178324Y-61092421D01*
X53232533Y-61032216D01*
X53327179Y-60868284D01*
X53385674Y-60688256D01*
X53405460Y-60500000D01*
X53385674Y-60311744D01*
X53327179Y-60131716D01*
X53232533Y-59967784D01*
X53105871Y-59827112D01*
X53105870Y-59827111D01*
X52952734Y-59715851D01*
X52952729Y-59715848D01*
X52779807Y-59638857D01*
X52779802Y-59638855D01*
X52634001Y-59607865D01*
X52594646Y-59599500D01*
X52405354Y-59599500D01*
X52372897Y-59606398D01*
X52220197Y-59638855D01*
X52220192Y-59638857D01*
X52047270Y-59715848D01*
X52047265Y-59715851D01*
X51894129Y-59827111D01*
X51767466Y-59967785D01*
X51672821Y-60131715D01*
X51672818Y-60131722D01*
X51618631Y-60298495D01*
X51614326Y-60311744D01*
X51594540Y-60500000D01*
X51614326Y-60688256D01*
X51614327Y-60688259D01*
X51672818Y-60868277D01*
X51672821Y-60868284D01*
X51767467Y-61032216D01*
X51777496Y-61043354D01*
X51842650Y-61115715D01*
X51872880Y-61178706D01*
X51874500Y-61198687D01*
X51874500Y-62689547D01*
X51854815Y-62756586D01*
X51838181Y-62777228D01*
X50777229Y-63838181D01*
X50715906Y-63871666D01*
X50689548Y-63874500D01*
X49952847Y-63874500D01*
X49885808Y-63854815D01*
X49840053Y-63802011D01*
X49830109Y-63732853D01*
X49859134Y-63669297D01*
X49860697Y-63667528D01*
X49982533Y-63532216D01*
X50077179Y-63368284D01*
X50135674Y-63188256D01*
X50155460Y-63000000D01*
X50135674Y-62811744D01*
X50077179Y-62631716D01*
X49982533Y-62467784D01*
X49978926Y-62463778D01*
X49907350Y-62384284D01*
X49877120Y-62321292D01*
X49875500Y-62301312D01*
X49875500Y-57500000D01*
X54344540Y-57500000D01*
X54364326Y-57688256D01*
X54364327Y-57688259D01*
X54422818Y-57868277D01*
X54422821Y-57868284D01*
X54517467Y-58032216D01*
X54639777Y-58168055D01*
X54644129Y-58172888D01*
X54797265Y-58284148D01*
X54797270Y-58284151D01*
X54970192Y-58361142D01*
X54970197Y-58361144D01*
X55155354Y-58400500D01*
X55155355Y-58400500D01*
X55344644Y-58400500D01*
X55344646Y-58400500D01*
X55529803Y-58361144D01*
X55702730Y-58284151D01*
X55855871Y-58172888D01*
X55982533Y-58032216D01*
X56077179Y-57868284D01*
X56135674Y-57688256D01*
X56151619Y-57536536D01*
X56178203Y-57471924D01*
X56235501Y-57431939D01*
X56274940Y-57425500D01*
X57673110Y-57425500D01*
X57740149Y-57445185D01*
X57785904Y-57497989D01*
X57795848Y-57567147D01*
X57766823Y-57630703D01*
X57756648Y-57641137D01*
X57657261Y-57731739D01*
X57530442Y-57899674D01*
X57436642Y-58088049D01*
X57435376Y-58092500D01*
X57380847Y-58284151D01*
X57379051Y-58290462D01*
X57359635Y-58499999D01*
X57359635Y-58500000D01*
X57379051Y-58709537D01*
X57379051Y-58709539D01*
X57379052Y-58709542D01*
X57406783Y-58807007D01*
X57436642Y-58911950D01*
X57480486Y-59000000D01*
X57530442Y-59100325D01*
X57657260Y-59268259D01*
X57764165Y-59365715D01*
X57768537Y-59369700D01*
X57804819Y-59429411D01*
X57809000Y-59461338D01*
X57809000Y-62412416D01*
X57789315Y-62479455D01*
X57772681Y-62500097D01*
X57694597Y-62578181D01*
X57633274Y-62611666D01*
X57606916Y-62614500D01*
X57605220Y-62614500D01*
X57394780Y-62614500D01*
X57187924Y-62653168D01*
X57187921Y-62653168D01*
X57187921Y-62653169D01*
X56991698Y-62729185D01*
X56991692Y-62729188D01*
X56812778Y-62839967D01*
X56812776Y-62839969D01*
X56657261Y-62981739D01*
X56530442Y-63149674D01*
X56436642Y-63338049D01*
X56379051Y-63540462D01*
X56359635Y-63749999D01*
X56359635Y-63750000D01*
X56379051Y-63959537D01*
X56379051Y-63959539D01*
X56379052Y-63959542D01*
X56436641Y-64161947D01*
X56530442Y-64350325D01*
X56585432Y-64423144D01*
X56657261Y-64518260D01*
X56812776Y-64660030D01*
X56812778Y-64660032D01*
X56991692Y-64770811D01*
X56991698Y-64770814D01*
X57033268Y-64786918D01*
X57187924Y-64846832D01*
X57394780Y-64885500D01*
X57394782Y-64885500D01*
X57605218Y-64885500D01*
X57605220Y-64885500D01*
X57812076Y-64846832D01*
X58008304Y-64770813D01*
X58187223Y-64660031D01*
X58342740Y-64518259D01*
X58469558Y-64350325D01*
X58563359Y-64161947D01*
X58620948Y-63959542D01*
X58640365Y-63750000D01*
X58631900Y-63658652D01*
X58645315Y-63590083D01*
X58667690Y-63559530D01*
X58834384Y-63392837D01*
X59036735Y-63190486D01*
X59112356Y-63077311D01*
X59121999Y-63054032D01*
X59157703Y-62967834D01*
X59164445Y-62951557D01*
X59169365Y-62926824D01*
X59186642Y-62839967D01*
X59191000Y-62818060D01*
X59191000Y-59461338D01*
X59210685Y-59394299D01*
X59231463Y-59369700D01*
X59342740Y-59268259D01*
X59469558Y-59100325D01*
X59563359Y-58911947D01*
X59620948Y-58709542D01*
X59640365Y-58500000D01*
X59620948Y-58290458D01*
X59563359Y-58088053D01*
X59469558Y-57899675D01*
X59342740Y-57731741D01*
X59295042Y-57688259D01*
X59243352Y-57641137D01*
X59207070Y-57581426D01*
X59208831Y-57511579D01*
X59248074Y-57453771D01*
X59312341Y-57426357D01*
X59326890Y-57425500D01*
X60724773Y-57425500D01*
X60791812Y-57445185D01*
X60826348Y-57478377D01*
X60961501Y-57671396D01*
X60961506Y-57671402D01*
X61128597Y-57838493D01*
X61128603Y-57838498D01*
X61314158Y-57968425D01*
X61357783Y-58023002D01*
X61364977Y-58092500D01*
X61333454Y-58154855D01*
X61314158Y-58171575D01*
X61128597Y-58301505D01*
X60961505Y-58468597D01*
X60825965Y-58662169D01*
X60825964Y-58662171D01*
X60726098Y-58876335D01*
X60726094Y-58876344D01*
X60664938Y-59104586D01*
X60664936Y-59104596D01*
X60644341Y-59339999D01*
X60644341Y-59340000D01*
X60664936Y-59575403D01*
X60664938Y-59575413D01*
X60726094Y-59803655D01*
X60726096Y-59803659D01*
X60726097Y-59803663D01*
X60738674Y-59830634D01*
X60825965Y-60017830D01*
X60825967Y-60017834D01*
X60961501Y-60211395D01*
X60961506Y-60211402D01*
X61128597Y-60378493D01*
X61128603Y-60378498D01*
X61314158Y-60508425D01*
X61357783Y-60563002D01*
X61364977Y-60632500D01*
X61333454Y-60694855D01*
X61314158Y-60711575D01*
X61128597Y-60841505D01*
X60961505Y-61008597D01*
X60825965Y-61202169D01*
X60825964Y-61202171D01*
X60726098Y-61416335D01*
X60726094Y-61416344D01*
X60664938Y-61644586D01*
X60664936Y-61644596D01*
X60644341Y-61879999D01*
X60644341Y-61880000D01*
X60664936Y-62115403D01*
X60664938Y-62115413D01*
X60726094Y-62343655D01*
X60726096Y-62343659D01*
X60726097Y-62343663D01*
X60766878Y-62431118D01*
X60825965Y-62557830D01*
X60825967Y-62557834D01*
X60892721Y-62653168D01*
X60961505Y-62751401D01*
X61128599Y-62918495D01*
X61207918Y-62974035D01*
X61322165Y-63054032D01*
X61322167Y-63054033D01*
X61322170Y-63054035D01*
X61536337Y-63153903D01*
X61536343Y-63153904D01*
X61536344Y-63153905D01*
X61591285Y-63168626D01*
X61764592Y-63215063D01*
X61952918Y-63231539D01*
X61999999Y-63235659D01*
X62000000Y-63235659D01*
X62000001Y-63235659D01*
X62039234Y-63232226D01*
X62235408Y-63215063D01*
X62463663Y-63153903D01*
X62677830Y-63054035D01*
X62871401Y-62918495D01*
X63038495Y-62751401D01*
X63173652Y-62558377D01*
X63228229Y-62514752D01*
X63275227Y-62505500D01*
X64069548Y-62505500D01*
X64136587Y-62525185D01*
X64157229Y-62541819D01*
X66761016Y-65145606D01*
X66761045Y-65145637D01*
X66851263Y-65235855D01*
X66851271Y-65235861D01*
X66904144Y-65271190D01*
X66904145Y-65271190D01*
X66953715Y-65304312D01*
X67017504Y-65330734D01*
X67067548Y-65351463D01*
X67127971Y-65363481D01*
X67188393Y-65375500D01*
X67188394Y-65375500D01*
X67796252Y-65375500D01*
X67863291Y-65395185D01*
X67888400Y-65416526D01*
X67894126Y-65422885D01*
X67894130Y-65422889D01*
X68047265Y-65534148D01*
X68047270Y-65534151D01*
X68220192Y-65611142D01*
X68220197Y-65611144D01*
X68405354Y-65650500D01*
X68405355Y-65650500D01*
X68594644Y-65650500D01*
X68594646Y-65650500D01*
X68779803Y-65611144D01*
X68952730Y-65534151D01*
X69105871Y-65422888D01*
X69232533Y-65282216D01*
X69327179Y-65118284D01*
X69385674Y-64938256D01*
X69405460Y-64750000D01*
X69385674Y-64561744D01*
X69327179Y-64381716D01*
X69232533Y-64217784D01*
X69105871Y-64077112D01*
X69105870Y-64077111D01*
X68952734Y-63965851D01*
X68952729Y-63965848D01*
X68779807Y-63888857D01*
X68779802Y-63888855D01*
X68619651Y-63854815D01*
X68594646Y-63849500D01*
X68405354Y-63849500D01*
X68380349Y-63854815D01*
X68220197Y-63888855D01*
X68220192Y-63888857D01*
X68047270Y-63965848D01*
X68047265Y-63965851D01*
X67894130Y-64077110D01*
X67894126Y-64077114D01*
X67888400Y-64083474D01*
X67828913Y-64120121D01*
X67796252Y-64124500D01*
X67560452Y-64124500D01*
X67493413Y-64104815D01*
X67472771Y-64088181D01*
X65674590Y-62290000D01*
X72894341Y-62290000D01*
X72914936Y-62525403D01*
X72914938Y-62525413D01*
X72976094Y-62753655D01*
X72976096Y-62753659D01*
X72976097Y-62753663D01*
X73062239Y-62938394D01*
X73075965Y-62967830D01*
X73075967Y-62967834D01*
X73163260Y-63092500D01*
X73211505Y-63161401D01*
X73378599Y-63328495D01*
X73435414Y-63368277D01*
X73572165Y-63464032D01*
X73572167Y-63464033D01*
X73572170Y-63464035D01*
X73786337Y-63563903D01*
X74014592Y-63625063D01*
X74202918Y-63641539D01*
X74249999Y-63645659D01*
X74250000Y-63645659D01*
X74250001Y-63645659D01*
X74289234Y-63642226D01*
X74485408Y-63625063D01*
X74713663Y-63563903D01*
X74927830Y-63464035D01*
X75121401Y-63328495D01*
X75288495Y-63161401D01*
X75424035Y-62967830D01*
X75523903Y-62753663D01*
X75585063Y-62525408D01*
X75605659Y-62290000D01*
X75585063Y-62054592D01*
X75523903Y-61826337D01*
X75424035Y-61612171D01*
X75332375Y-61481267D01*
X75288496Y-61418600D01*
X75229811Y-61359915D01*
X75166179Y-61296283D01*
X75132696Y-61234963D01*
X75137680Y-61165271D01*
X75179551Y-61109337D01*
X75210529Y-61092422D01*
X75342086Y-61043354D01*
X75342093Y-61043350D01*
X75457187Y-60957190D01*
X75457190Y-60957187D01*
X75543350Y-60842093D01*
X75543354Y-60842086D01*
X75593596Y-60707379D01*
X75593598Y-60707372D01*
X75599999Y-60647844D01*
X75600000Y-60647827D01*
X75600000Y-60000000D01*
X74683012Y-60000000D01*
X74715925Y-59942993D01*
X74750000Y-59815826D01*
X74750000Y-59684174D01*
X74715925Y-59557007D01*
X74683012Y-59500000D01*
X75600000Y-59500000D01*
X75600000Y-58852172D01*
X75599999Y-58852155D01*
X75593598Y-58792627D01*
X75593596Y-58792620D01*
X75543354Y-58657913D01*
X75543350Y-58657906D01*
X75457190Y-58542812D01*
X75457187Y-58542809D01*
X75342093Y-58456649D01*
X75342086Y-58456645D01*
X75207379Y-58406403D01*
X75207372Y-58406401D01*
X75147844Y-58400000D01*
X74500000Y-58400000D01*
X74500000Y-59316988D01*
X74442993Y-59284075D01*
X74315826Y-59250000D01*
X74184174Y-59250000D01*
X74057007Y-59284075D01*
X74000000Y-59316988D01*
X74000000Y-58400000D01*
X73352155Y-58400000D01*
X73292627Y-58406401D01*
X73292620Y-58406403D01*
X73157913Y-58456645D01*
X73157906Y-58456649D01*
X73042812Y-58542809D01*
X73042809Y-58542812D01*
X72956649Y-58657906D01*
X72956645Y-58657913D01*
X72906403Y-58792620D01*
X72906401Y-58792627D01*
X72900000Y-58852155D01*
X72900000Y-59500000D01*
X73816988Y-59500000D01*
X73784075Y-59557007D01*
X73750000Y-59684174D01*
X73750000Y-59815826D01*
X73784075Y-59942993D01*
X73816988Y-60000000D01*
X72900000Y-60000000D01*
X72900000Y-60647844D01*
X72906401Y-60707372D01*
X72906403Y-60707379D01*
X72956645Y-60842086D01*
X72956649Y-60842093D01*
X73042809Y-60957187D01*
X73042812Y-60957190D01*
X73157906Y-61043350D01*
X73157913Y-61043354D01*
X73289470Y-61092421D01*
X73345403Y-61134292D01*
X73369821Y-61199756D01*
X73354970Y-61268029D01*
X73333819Y-61296284D01*
X73211503Y-61418600D01*
X73075965Y-61612169D01*
X73075964Y-61612171D01*
X72976098Y-61826335D01*
X72976094Y-61826344D01*
X72914938Y-62054586D01*
X72914936Y-62054596D01*
X72894341Y-62289999D01*
X72894341Y-62290000D01*
X65674590Y-62290000D01*
X64870198Y-61485608D01*
X64870178Y-61485586D01*
X64778733Y-61394141D01*
X64727509Y-61359915D01*
X64692233Y-61336344D01*
X64676286Y-61325688D01*
X64676283Y-61325686D01*
X64676282Y-61325686D01*
X64676281Y-61325685D01*
X64576006Y-61284151D01*
X64562455Y-61278538D01*
X64562453Y-61278537D01*
X64562452Y-61278537D01*
X64502029Y-61266518D01*
X64441610Y-61254500D01*
X64441607Y-61254500D01*
X64441606Y-61254500D01*
X63275227Y-61254500D01*
X63208188Y-61234815D01*
X63173652Y-61201623D01*
X63038494Y-61008597D01*
X62871402Y-60841506D01*
X62871396Y-60841501D01*
X62685842Y-60711575D01*
X62642217Y-60656998D01*
X62635023Y-60587500D01*
X62666546Y-60525145D01*
X62685842Y-60508425D01*
X62776215Y-60445145D01*
X62871401Y-60378495D01*
X63038495Y-60211401D01*
X63174035Y-60017830D01*
X63273903Y-59803663D01*
X63335063Y-59575408D01*
X63355659Y-59340000D01*
X63335063Y-59104592D01*
X63273903Y-58876337D01*
X63174035Y-58662171D01*
X63118018Y-58582169D01*
X63038494Y-58468597D01*
X62871402Y-58301506D01*
X62871396Y-58301501D01*
X62685842Y-58171575D01*
X62642217Y-58116998D01*
X62635023Y-58047500D01*
X62666546Y-57985145D01*
X62685842Y-57968425D01*
X62708026Y-57952891D01*
X62871401Y-57838495D01*
X63038495Y-57671401D01*
X63174035Y-57477830D01*
X63273903Y-57263663D01*
X63335063Y-57035408D01*
X63355659Y-56800000D01*
X63335063Y-56564592D01*
X63273903Y-56336337D01*
X63174035Y-56122171D01*
X63173652Y-56121623D01*
X63038494Y-55928597D01*
X62871402Y-55761506D01*
X62871396Y-55761501D01*
X62685842Y-55631575D01*
X62642217Y-55576998D01*
X62635023Y-55507500D01*
X62666546Y-55445145D01*
X62685842Y-55428425D01*
X62787159Y-55357482D01*
X62871401Y-55298495D01*
X63038495Y-55131401D01*
X63174035Y-54937830D01*
X63273903Y-54723663D01*
X63335063Y-54495408D01*
X63355659Y-54260000D01*
X63335063Y-54024592D01*
X63327719Y-53997183D01*
X63329380Y-53927334D01*
X63359810Y-53877410D01*
X69036735Y-48200487D01*
X69112356Y-48087311D01*
X69164445Y-47961557D01*
X69179346Y-47886645D01*
X69191000Y-47828060D01*
X69191000Y-41914583D01*
X69210685Y-41847544D01*
X69227314Y-41826906D01*
X70199366Y-40854854D01*
X70260689Y-40821370D01*
X70297853Y-40819008D01*
X70412527Y-40829040D01*
X70478399Y-40834804D01*
X70478400Y-40834804D01*
X70478401Y-40834804D01*
X70514177Y-40831673D01*
X70693065Y-40816023D01*
X70901207Y-40760252D01*
X71096502Y-40669184D01*
X71273017Y-40545587D01*
X71390719Y-40427885D01*
X71452042Y-40394400D01*
X71521734Y-40399384D01*
X71566081Y-40427885D01*
X71683781Y-40545585D01*
X71683787Y-40545590D01*
X71860296Y-40669183D01*
X71860298Y-40669184D01*
X72055593Y-40760252D01*
X72055599Y-40760253D01*
X72055600Y-40760254D01*
X72105698Y-40773677D01*
X72263735Y-40816023D01*
X72435467Y-40831047D01*
X72478399Y-40834804D01*
X72478400Y-40834804D01*
X72478401Y-40834804D01*
X72514177Y-40831673D01*
X72693065Y-40816023D01*
X72901207Y-40760252D01*
X73096502Y-40669184D01*
X73273017Y-40545587D01*
X73425387Y-40393217D01*
X73548984Y-40216702D01*
X73640052Y-40021407D01*
X73695823Y-39813265D01*
X73714604Y-39598600D01*
X73695823Y-39383935D01*
X73640052Y-39175793D01*
X73548984Y-38980498D01*
X73519502Y-38938394D01*
X73425390Y-38803987D01*
X73425385Y-38803981D01*
X73273018Y-38651614D01*
X73273012Y-38651609D01*
X73096503Y-38528016D01*
X73096501Y-38528015D01*
X72998854Y-38482482D01*
X72901207Y-38436948D01*
X72901203Y-38436947D01*
X72901199Y-38436945D01*
X72693070Y-38381178D01*
X72693060Y-38381176D01*
X72478401Y-38362396D01*
X72478399Y-38362396D01*
X72263739Y-38381176D01*
X72263729Y-38381178D01*
X72055600Y-38436945D01*
X72055591Y-38436949D01*
X71860298Y-38528015D01*
X71860296Y-38528016D01*
X71683787Y-38651609D01*
X71683781Y-38651614D01*
X71566081Y-38769315D01*
X71504758Y-38802800D01*
X71435066Y-38797816D01*
X71390719Y-38769315D01*
X71273018Y-38651614D01*
X71273012Y-38651609D01*
X71096503Y-38528016D01*
X71096501Y-38528015D01*
X70998854Y-38482482D01*
X70901207Y-38436948D01*
X70901203Y-38436947D01*
X70901199Y-38436945D01*
X70811676Y-38412958D01*
X70752015Y-38376593D01*
X70721486Y-38313746D01*
X70729781Y-38244371D01*
X70756088Y-38205502D01*
X70894593Y-38066998D01*
X71099772Y-37861819D01*
X71161095Y-37828334D01*
X71187453Y-37825500D01*
X72889548Y-37825500D01*
X72956587Y-37845185D01*
X72977229Y-37861819D01*
X74338181Y-39222771D01*
X74371666Y-39284094D01*
X74374500Y-39310452D01*
X74374500Y-41089547D01*
X74354815Y-41156586D01*
X74338181Y-41177228D01*
X71386141Y-44129267D01*
X71377593Y-44142061D01*
X71371955Y-44150500D01*
X71317690Y-44231710D01*
X71317685Y-44231719D01*
X71288549Y-44302062D01*
X71270538Y-44345543D01*
X71270538Y-44345545D01*
X71270537Y-44345548D01*
X71267447Y-44361084D01*
X71246500Y-44466396D01*
X71246500Y-45326533D01*
X71226815Y-45393572D01*
X71174011Y-45439327D01*
X71165836Y-45442714D01*
X71129665Y-45456205D01*
X71014455Y-45542452D01*
X71014452Y-45542455D01*
X70928206Y-45657664D01*
X70928202Y-45657671D01*
X70877908Y-45792517D01*
X70871501Y-45852116D01*
X70871500Y-45852135D01*
X70871500Y-46947870D01*
X70871501Y-46947876D01*
X70877908Y-47007483D01*
X70928202Y-47142328D01*
X70928206Y-47142335D01*
X71014452Y-47257544D01*
X71014455Y-47257547D01*
X71129664Y-47343793D01*
X71129671Y-47343797D01*
X71264517Y-47394091D01*
X71264516Y-47394091D01*
X71271444Y-47394835D01*
X71324127Y-47400500D01*
X72419872Y-47400499D01*
X72479483Y-47394091D01*
X72614331Y-47343796D01*
X72622379Y-47337770D01*
X72687842Y-47313351D01*
X72751474Y-47326895D01*
X72751645Y-47326483D01*
X72753875Y-47327406D01*
X72755146Y-47327677D01*
X72757273Y-47328814D01*
X72945868Y-47386024D01*
X73142000Y-47405341D01*
X73338132Y-47386024D01*
X73526727Y-47328814D01*
X73700538Y-47235910D01*
X73700544Y-47235904D01*
X73705607Y-47232523D01*
X73706703Y-47234164D01*
X73762639Y-47210405D01*
X73831507Y-47222194D01*
X73848148Y-47232888D01*
X73848393Y-47232523D01*
X73853458Y-47235907D01*
X73853462Y-47235910D01*
X73998344Y-47313351D01*
X74025147Y-47327678D01*
X74027273Y-47328814D01*
X74215868Y-47386024D01*
X74412000Y-47405341D01*
X74608132Y-47386024D01*
X74796727Y-47328814D01*
X74970538Y-47235910D01*
X74970544Y-47235904D01*
X74975607Y-47232523D01*
X74976703Y-47234164D01*
X75032639Y-47210405D01*
X75101507Y-47222194D01*
X75118148Y-47232888D01*
X75118393Y-47232523D01*
X75123458Y-47235907D01*
X75123462Y-47235910D01*
X75268344Y-47313351D01*
X75295147Y-47327678D01*
X75297273Y-47328814D01*
X75485868Y-47386024D01*
X75682000Y-47405341D01*
X75878132Y-47386024D01*
X76066727Y-47328814D01*
X76240538Y-47235910D01*
X76240544Y-47235904D01*
X76245607Y-47232523D01*
X76246703Y-47234164D01*
X76302639Y-47210405D01*
X76371507Y-47222194D01*
X76388148Y-47232888D01*
X76388393Y-47232523D01*
X76393458Y-47235907D01*
X76393462Y-47235910D01*
X76538344Y-47313351D01*
X76565147Y-47327678D01*
X76567273Y-47328814D01*
X76755868Y-47386024D01*
X76952000Y-47405341D01*
X77148132Y-47386024D01*
X77336727Y-47328814D01*
X77338853Y-47327678D01*
X77470060Y-47257546D01*
X77510538Y-47235910D01*
X77662883Y-47110883D01*
X77787910Y-46958538D01*
X77880814Y-46784727D01*
X77938024Y-46596132D01*
X77957341Y-46400000D01*
X77938024Y-46203868D01*
X77880814Y-46015273D01*
X77880811Y-46015269D01*
X77880811Y-46015266D01*
X77787913Y-45841467D01*
X77787909Y-45841460D01*
X77662883Y-45689116D01*
X77510539Y-45564090D01*
X77510532Y-45564086D01*
X77336733Y-45471188D01*
X77336727Y-45471186D01*
X77148132Y-45413976D01*
X77148129Y-45413975D01*
X76952000Y-45394659D01*
X76755870Y-45413975D01*
X76567266Y-45471188D01*
X76393467Y-45564086D01*
X76388399Y-45567473D01*
X76387305Y-45565836D01*
X76331337Y-45589596D01*
X76262471Y-45577795D01*
X76245843Y-45567109D01*
X76245601Y-45567473D01*
X76240532Y-45564086D01*
X76066733Y-45471188D01*
X76066727Y-45471186D01*
X75878132Y-45413976D01*
X75878129Y-45413975D01*
X75682000Y-45394659D01*
X75485870Y-45413975D01*
X75297266Y-45471188D01*
X75123467Y-45564086D01*
X75118399Y-45567473D01*
X75117305Y-45565836D01*
X75061337Y-45589596D01*
X74992471Y-45577795D01*
X74975843Y-45567109D01*
X74975601Y-45567473D01*
X74970532Y-45564086D01*
X74796733Y-45471188D01*
X74796727Y-45471186D01*
X74608132Y-45413976D01*
X74608129Y-45413975D01*
X74412000Y-45394659D01*
X74215870Y-45413975D01*
X74027266Y-45471188D01*
X73853467Y-45564086D01*
X73848399Y-45567473D01*
X73847305Y-45565836D01*
X73791337Y-45589596D01*
X73722471Y-45577795D01*
X73705843Y-45567109D01*
X73705601Y-45567473D01*
X73700532Y-45564086D01*
X73526733Y-45471188D01*
X73526727Y-45471186D01*
X73338132Y-45413976D01*
X73338129Y-45413975D01*
X73142000Y-45394659D01*
X72945870Y-45413975D01*
X72869121Y-45437257D01*
X72757273Y-45471186D01*
X72757270Y-45471187D01*
X72757265Y-45471189D01*
X72755136Y-45472327D01*
X72753890Y-45472586D01*
X72751641Y-45473518D01*
X72751464Y-45473091D01*
X72686732Y-45486563D01*
X72622384Y-45462233D01*
X72614331Y-45456204D01*
X72592326Y-45447996D01*
X72578164Y-45442714D01*
X72522231Y-45400841D01*
X72497816Y-45335376D01*
X72497500Y-45326533D01*
X72497500Y-44838451D01*
X72517185Y-44771412D01*
X72533814Y-44750775D01*
X75398729Y-41885860D01*
X75398733Y-41885858D01*
X75485858Y-41798733D01*
X75520084Y-41747509D01*
X75554312Y-41696286D01*
X75601463Y-41582451D01*
X75625500Y-41461607D01*
X75625500Y-41338393D01*
X75625500Y-38938394D01*
X75601463Y-38817548D01*
X75554311Y-38703714D01*
X75554310Y-38703713D01*
X75554307Y-38703707D01*
X75485859Y-38601268D01*
X75485858Y-38601267D01*
X75398733Y-38514142D01*
X75398732Y-38514141D01*
X73692927Y-36808337D01*
X73692925Y-36808334D01*
X73692925Y-36808335D01*
X73685858Y-36801268D01*
X73685858Y-36801267D01*
X73598733Y-36714142D01*
X73598732Y-36714141D01*
X73598731Y-36714140D01*
X73547509Y-36679915D01*
X73496286Y-36645688D01*
X73496276Y-36645684D01*
X73397782Y-36604887D01*
X73397779Y-36604885D01*
X73397778Y-36604885D01*
X73382455Y-36598538D01*
X73382453Y-36598537D01*
X73382452Y-36598537D01*
X73322029Y-36586518D01*
X73261610Y-36574500D01*
X73261607Y-36574500D01*
X73261606Y-36574500D01*
X70944741Y-36574500D01*
X70944721Y-36574499D01*
X70938607Y-36574499D01*
X70815394Y-36574499D01*
X70714597Y-36594548D01*
X70714592Y-36594548D01*
X70694548Y-36598536D01*
X70694545Y-36598537D01*
X70663354Y-36611458D01*
X70663351Y-36611459D01*
X70580721Y-36645684D01*
X70580708Y-36645691D01*
X70478267Y-36714141D01*
X70478263Y-36714144D01*
X68836883Y-38355525D01*
X68775560Y-38389010D01*
X68717112Y-38387620D01*
X68711329Y-38386070D01*
X68693065Y-38381177D01*
X68549955Y-38368656D01*
X68478401Y-38362396D01*
X68478396Y-38362396D01*
X68386753Y-38370413D01*
X68318253Y-38356646D01*
X68268071Y-38308030D01*
X68252138Y-38240001D01*
X68275514Y-38174158D01*
X68322139Y-38135169D01*
X68518640Y-38040540D01*
X68738510Y-37890635D01*
X68933583Y-37709633D01*
X69099501Y-37501580D01*
X69232556Y-37271121D01*
X69329777Y-37023405D01*
X69388993Y-36763967D01*
X69395292Y-36679915D01*
X69408879Y-36498604D01*
X69408879Y-36498595D01*
X69388994Y-36233242D01*
X69388994Y-36233240D01*
X69388993Y-36233236D01*
X69388993Y-36233233D01*
X69329777Y-35973795D01*
X69232556Y-35726079D01*
X69099501Y-35495620D01*
X68933583Y-35287567D01*
X68933582Y-35287566D01*
X68933579Y-35287562D01*
X68738510Y-35106565D01*
X68738507Y-35106563D01*
X68518640Y-34956660D01*
X68518636Y-34956658D01*
X68518633Y-34956656D01*
X68518632Y-34956655D01*
X68278884Y-34841200D01*
X68278886Y-34841200D01*
X68024595Y-34762761D01*
X68024589Y-34762759D01*
X67761462Y-34723100D01*
X67761455Y-34723100D01*
X67495345Y-34723100D01*
X67495337Y-34723100D01*
X67232210Y-34762759D01*
X67232204Y-34762761D01*
X66977914Y-34841200D01*
X66738169Y-34956655D01*
X66738160Y-34956660D01*
X66518292Y-35106563D01*
X66323220Y-35287562D01*
X66157299Y-35495620D01*
X66024244Y-35726078D01*
X65927025Y-35973789D01*
X65927020Y-35973806D01*
X65867805Y-36233240D01*
X65867805Y-36233242D01*
X65847921Y-36498595D01*
X65847921Y-36498604D01*
X65867805Y-36763957D01*
X65867805Y-36763959D01*
X65909221Y-36945413D01*
X65927023Y-37023405D01*
X66024244Y-37271121D01*
X66157299Y-37501580D01*
X66252849Y-37621395D01*
X66323220Y-37709637D01*
X66437732Y-37815888D01*
X66518290Y-37890635D01*
X66738161Y-38040540D01*
X66738167Y-38040542D01*
X66738169Y-38040544D01*
X66742231Y-38042500D01*
X66977914Y-38155999D01*
X66977915Y-38155999D01*
X66977918Y-38156001D01*
X67232206Y-38234439D01*
X67232207Y-38234439D01*
X67232210Y-38234440D01*
X67495337Y-38274099D01*
X67495342Y-38274099D01*
X67495345Y-38274100D01*
X67495346Y-38274100D01*
X67761454Y-38274100D01*
X67761455Y-38274100D01*
X67862711Y-38258838D01*
X67931934Y-38268311D01*
X67985048Y-38313705D01*
X68005188Y-38380609D01*
X67985960Y-38447781D01*
X67933597Y-38493834D01*
X67860303Y-38528012D01*
X67860296Y-38528016D01*
X67683787Y-38651609D01*
X67683781Y-38651614D01*
X67531414Y-38803981D01*
X67531409Y-38803987D01*
X67407816Y-38980496D01*
X67407815Y-38980498D01*
X67316749Y-39175791D01*
X67316745Y-39175800D01*
X67260978Y-39383929D01*
X67260976Y-39383939D01*
X67242196Y-39598599D01*
X67242196Y-39598600D01*
X67260976Y-39813260D01*
X67260978Y-39813270D01*
X67316745Y-40021399D01*
X67316747Y-40021403D01*
X67316748Y-40021407D01*
X67353351Y-40099901D01*
X67407815Y-40216701D01*
X67407816Y-40216703D01*
X67531409Y-40393212D01*
X67531414Y-40393218D01*
X67683781Y-40545585D01*
X67683787Y-40545590D01*
X67860296Y-40669183D01*
X67860298Y-40669184D01*
X68055593Y-40760252D01*
X68072066Y-40764666D01*
X68131726Y-40801029D01*
X68162257Y-40863875D01*
X68153963Y-40933251D01*
X68127657Y-40972120D01*
X67963265Y-41136513D01*
X67935659Y-41177830D01*
X67932920Y-41181929D01*
X67932919Y-41181930D01*
X67887647Y-41249683D01*
X67887640Y-41249695D01*
X67835556Y-41375438D01*
X67835553Y-41375448D01*
X67809000Y-41508939D01*
X67809000Y-47422415D01*
X67789315Y-47489454D01*
X67772681Y-47510096D01*
X63349096Y-51933681D01*
X63287773Y-51967166D01*
X63261415Y-51970000D01*
X62433012Y-51970000D01*
X62465925Y-51912993D01*
X62500000Y-51785826D01*
X62500000Y-51654174D01*
X62465925Y-51527007D01*
X62433012Y-51470000D01*
X63330636Y-51470000D01*
X63330635Y-51469999D01*
X63273432Y-51256513D01*
X63273429Y-51256507D01*
X63173600Y-51042422D01*
X63173599Y-51042420D01*
X63038113Y-50848926D01*
X63038108Y-50848920D01*
X62915665Y-50726477D01*
X62882180Y-50665154D01*
X62887164Y-50595462D01*
X62929036Y-50539529D01*
X62960013Y-50522614D01*
X63092086Y-50473354D01*
X63092093Y-50473350D01*
X63207187Y-50387190D01*
X63207190Y-50387187D01*
X63293350Y-50272093D01*
X63293354Y-50272086D01*
X63343596Y-50137379D01*
X63343598Y-50137372D01*
X63349999Y-50077844D01*
X63350000Y-50077827D01*
X63350000Y-49430000D01*
X62433012Y-49430000D01*
X62465925Y-49372993D01*
X62500000Y-49245826D01*
X62500000Y-49114174D01*
X62465925Y-48987007D01*
X62433012Y-48930000D01*
X63350000Y-48930000D01*
X63350000Y-48282172D01*
X63349999Y-48282155D01*
X63343598Y-48222627D01*
X63343596Y-48222620D01*
X63293354Y-48087913D01*
X63293350Y-48087906D01*
X63207190Y-47972812D01*
X63207187Y-47972809D01*
X63092093Y-47886649D01*
X63092086Y-47886645D01*
X62957379Y-47836403D01*
X62957372Y-47836401D01*
X62897844Y-47830000D01*
X62250000Y-47830000D01*
X62250000Y-48746988D01*
X62192993Y-48714075D01*
X62065826Y-48680000D01*
X61934174Y-48680000D01*
X61807007Y-48714075D01*
X61750000Y-48746988D01*
X61750000Y-47830000D01*
X61102155Y-47830000D01*
X61042627Y-47836401D01*
X61042620Y-47836403D01*
X60907913Y-47886645D01*
X60907906Y-47886649D01*
X60792812Y-47972809D01*
X60792809Y-47972812D01*
X60706649Y-48087906D01*
X60706645Y-48087913D01*
X60656403Y-48222620D01*
X60656401Y-48222627D01*
X60650000Y-48282155D01*
X60650000Y-48930000D01*
X61566988Y-48930000D01*
X61534075Y-48987007D01*
X61500000Y-49114174D01*
X61500000Y-49245826D01*
X61534075Y-49372993D01*
X61566988Y-49430000D01*
X60650000Y-49430000D01*
X60650000Y-50077844D01*
X60656401Y-50137372D01*
X60656403Y-50137379D01*
X60706645Y-50272086D01*
X60706649Y-50272093D01*
X60792809Y-50387187D01*
X60792812Y-50387190D01*
X60907906Y-50473350D01*
X60907913Y-50473354D01*
X61039986Y-50522614D01*
X61095920Y-50564485D01*
X61120337Y-50629949D01*
X61105486Y-50698222D01*
X61084335Y-50726477D01*
X60961886Y-50848926D01*
X60826400Y-51042420D01*
X60826399Y-51042422D01*
X60726570Y-51256507D01*
X60726567Y-51256513D01*
X60669364Y-51469999D01*
X60669364Y-51470000D01*
X61566988Y-51470000D01*
X61534075Y-51527007D01*
X61500000Y-51654174D01*
X61500000Y-51785826D01*
X61534075Y-51912993D01*
X61566988Y-51970000D01*
X60669364Y-51970000D01*
X60726567Y-52183486D01*
X60726570Y-52183492D01*
X60826399Y-52397578D01*
X60961894Y-52591082D01*
X61128917Y-52758105D01*
X61314595Y-52888119D01*
X61358219Y-52942696D01*
X61365412Y-53012195D01*
X61333890Y-53074549D01*
X61314595Y-53091269D01*
X61128594Y-53221508D01*
X60961505Y-53388597D01*
X60825965Y-53582169D01*
X60825964Y-53582171D01*
X60726098Y-53796335D01*
X60726094Y-53796344D01*
X60664938Y-54024586D01*
X60664936Y-54024596D01*
X60644341Y-54259999D01*
X60644341Y-54260000D01*
X60664936Y-54495403D01*
X60664938Y-54495413D01*
X60726094Y-54723655D01*
X60726096Y-54723659D01*
X60726097Y-54723663D01*
X60755352Y-54786400D01*
X60825965Y-54937830D01*
X60825967Y-54937834D01*
X60961501Y-55131395D01*
X60961506Y-55131402D01*
X61128597Y-55298493D01*
X61128603Y-55298498D01*
X61314158Y-55428425D01*
X61357783Y-55483002D01*
X61364977Y-55552500D01*
X61333454Y-55614855D01*
X61314158Y-55631575D01*
X61128597Y-55761505D01*
X60961505Y-55928597D01*
X60826348Y-56121623D01*
X60771771Y-56165248D01*
X60724773Y-56174500D01*
X55888388Y-56174500D01*
X55767555Y-56198535D01*
X55767547Y-56198537D01*
X55653716Y-56245687D01*
X55551265Y-56314142D01*
X55551262Y-56314145D01*
X55302228Y-56563181D01*
X55240905Y-56596666D01*
X55214547Y-56599500D01*
X55155354Y-56599500D01*
X55144623Y-56601781D01*
X54970197Y-56638855D01*
X54970192Y-56638857D01*
X54797270Y-56715848D01*
X54797265Y-56715851D01*
X54644129Y-56827111D01*
X54517466Y-56967785D01*
X54422821Y-57131715D01*
X54422818Y-57131722D01*
X54370593Y-57292455D01*
X54364326Y-57311744D01*
X54344540Y-57500000D01*
X49875500Y-57500000D01*
X49875500Y-56317741D01*
X49875501Y-56317720D01*
X49875501Y-56188391D01*
X49857349Y-56097142D01*
X49851463Y-56067549D01*
X49804312Y-55953715D01*
X49735858Y-55851267D01*
X49735855Y-55851263D01*
X49182462Y-55297870D01*
X50576500Y-55297870D01*
X50576501Y-55297876D01*
X50582908Y-55357483D01*
X50633202Y-55492328D01*
X50633206Y-55492335D01*
X50719452Y-55607544D01*
X50719455Y-55607547D01*
X50834664Y-55693793D01*
X50834671Y-55693797D01*
X50969517Y-55744091D01*
X50969516Y-55744091D01*
X50976444Y-55744835D01*
X51029127Y-55750500D01*
X52124872Y-55750499D01*
X52184483Y-55744091D01*
X52319331Y-55693796D01*
X52434546Y-55607546D01*
X52520796Y-55492331D01*
X52571091Y-55357483D01*
X52577500Y-55297873D01*
X52577499Y-54202128D01*
X52571091Y-54142517D01*
X52527109Y-54024596D01*
X52520797Y-54007671D01*
X52520793Y-54007664D01*
X52434547Y-53892455D01*
X52434544Y-53892452D01*
X52319335Y-53806206D01*
X52319328Y-53806202D01*
X52184482Y-53755908D01*
X52184483Y-53755908D01*
X52124883Y-53749501D01*
X52124881Y-53749500D01*
X52124873Y-53749500D01*
X52124864Y-53749500D01*
X51029129Y-53749500D01*
X51029123Y-53749501D01*
X50969516Y-53755908D01*
X50834671Y-53806202D01*
X50834664Y-53806206D01*
X50719455Y-53892452D01*
X50719452Y-53892455D01*
X50633206Y-54007664D01*
X50633202Y-54007671D01*
X50582908Y-54142517D01*
X50576501Y-54202116D01*
X50576501Y-54202123D01*
X50576500Y-54202135D01*
X50576500Y-55297870D01*
X49182462Y-55297870D01*
X48461819Y-54577227D01*
X48428334Y-54515904D01*
X48425500Y-54489546D01*
X48425500Y-52547870D01*
X50999500Y-52547870D01*
X50999501Y-52547876D01*
X51005908Y-52607483D01*
X51056202Y-52742328D01*
X51056206Y-52742335D01*
X51142452Y-52857544D01*
X51142455Y-52857547D01*
X51257664Y-52943793D01*
X51257671Y-52943797D01*
X51392517Y-52994091D01*
X51392516Y-52994091D01*
X51399444Y-52994835D01*
X51452127Y-53000500D01*
X52547872Y-53000499D01*
X52607483Y-52994091D01*
X52742331Y-52943796D01*
X52857546Y-52857546D01*
X52943796Y-52742331D01*
X52994091Y-52607483D01*
X53000500Y-52547873D01*
X53000499Y-51452128D01*
X52994091Y-51392517D01*
X52972069Y-51333474D01*
X52943797Y-51257671D01*
X52943793Y-51257664D01*
X52857547Y-51142455D01*
X52857544Y-51142452D01*
X52742335Y-51056206D01*
X52742328Y-51056202D01*
X52607482Y-51005908D01*
X52607483Y-51005908D01*
X52547883Y-50999501D01*
X52547881Y-50999500D01*
X52547873Y-50999500D01*
X52547864Y-50999500D01*
X51452129Y-50999500D01*
X51452123Y-50999501D01*
X51392516Y-51005908D01*
X51257671Y-51056202D01*
X51257664Y-51056206D01*
X51142455Y-51142452D01*
X51142452Y-51142455D01*
X51056206Y-51257664D01*
X51056202Y-51257671D01*
X51005908Y-51392517D01*
X50999501Y-51452116D01*
X50999501Y-51452123D01*
X50999500Y-51452135D01*
X50999500Y-52547870D01*
X48425500Y-52547870D01*
X48425500Y-52238396D01*
X48421841Y-52220000D01*
X48401463Y-52117548D01*
X48401461Y-52117545D01*
X48400274Y-52111573D01*
X48401610Y-52111307D01*
X48397877Y-52072137D01*
X48405460Y-52000000D01*
X48385674Y-51811744D01*
X48327179Y-51631716D01*
X48232533Y-51467784D01*
X48105871Y-51327112D01*
X48105870Y-51327111D01*
X47952734Y-51215851D01*
X47952729Y-51215848D01*
X47779807Y-51138857D01*
X47779802Y-51138855D01*
X47634001Y-51107865D01*
X47594646Y-51099500D01*
X47405354Y-51099500D01*
X47372897Y-51106398D01*
X47220197Y-51138855D01*
X47220192Y-51138857D01*
X47047270Y-51215848D01*
X47047265Y-51215851D01*
X46894130Y-51327110D01*
X46894126Y-51327114D01*
X46888400Y-51333474D01*
X46828913Y-51370121D01*
X46796252Y-51374500D01*
X27703748Y-51374500D01*
X27636709Y-51354815D01*
X27611600Y-51333474D01*
X27605873Y-51327114D01*
X27605869Y-51327110D01*
X27452734Y-51215851D01*
X27452729Y-51215848D01*
X27279807Y-51138857D01*
X27279802Y-51138855D01*
X27134001Y-51107865D01*
X27094646Y-51099500D01*
X26905354Y-51099500D01*
X26872897Y-51106398D01*
X26720197Y-51138855D01*
X26720192Y-51138857D01*
X26547270Y-51215848D01*
X26547265Y-51215851D01*
X26394129Y-51327111D01*
X26267466Y-51467785D01*
X26172821Y-51631715D01*
X26172818Y-51631722D01*
X26122747Y-51785826D01*
X26114326Y-51811744D01*
X26094540Y-52000000D01*
X20500000Y-52000000D01*
X20500000Y-47791870D01*
X44499500Y-47791870D01*
X44499501Y-47791876D01*
X44505908Y-47851483D01*
X44556202Y-47986328D01*
X44556206Y-47986335D01*
X44642452Y-48101544D01*
X44642455Y-48101547D01*
X44757664Y-48187793D01*
X44757671Y-48187797D01*
X44892517Y-48238091D01*
X44892516Y-48238091D01*
X44899444Y-48238835D01*
X44952127Y-48244500D01*
X46047872Y-48244499D01*
X46107483Y-48238091D01*
X46242331Y-48187796D01*
X46357546Y-48101546D01*
X46399225Y-48045870D01*
X55133500Y-48045870D01*
X55133501Y-48045876D01*
X55139908Y-48105483D01*
X55190202Y-48240328D01*
X55190206Y-48240335D01*
X55276452Y-48355544D01*
X55276455Y-48355547D01*
X55391664Y-48441793D01*
X55391671Y-48441797D01*
X55526517Y-48492091D01*
X55526516Y-48492091D01*
X55533444Y-48492835D01*
X55586127Y-48498500D01*
X56681872Y-48498499D01*
X56741483Y-48492091D01*
X56876331Y-48441796D01*
X56991546Y-48355546D01*
X57077796Y-48240331D01*
X57128091Y-48105483D01*
X57134500Y-48045873D01*
X57134499Y-46950128D01*
X57128091Y-46890517D01*
X57077796Y-46755669D01*
X57077795Y-46755668D01*
X57077793Y-46755664D01*
X56991547Y-46640455D01*
X56991544Y-46640452D01*
X56876335Y-46554206D01*
X56876328Y-46554202D01*
X56741482Y-46503908D01*
X56741483Y-46503908D01*
X56681883Y-46497501D01*
X56681881Y-46497500D01*
X56681873Y-46497500D01*
X56681864Y-46497500D01*
X55586129Y-46497500D01*
X55586123Y-46497501D01*
X55526516Y-46503908D01*
X55391671Y-46554202D01*
X55391664Y-46554206D01*
X55276455Y-46640452D01*
X55276452Y-46640455D01*
X55190206Y-46755664D01*
X55190202Y-46755671D01*
X55139908Y-46890517D01*
X55133742Y-46947872D01*
X55133501Y-46950123D01*
X55133500Y-46950135D01*
X55133500Y-48045870D01*
X46399225Y-48045870D01*
X46443796Y-47986331D01*
X46494091Y-47851483D01*
X46500500Y-47791873D01*
X46500499Y-46696128D01*
X46494091Y-46636517D01*
X46479028Y-46596132D01*
X46443797Y-46501671D01*
X46443793Y-46501664D01*
X46357547Y-46386455D01*
X46357544Y-46386452D01*
X46242335Y-46300206D01*
X46242328Y-46300202D01*
X46107482Y-46249908D01*
X46107483Y-46249908D01*
X46047883Y-46243501D01*
X46047881Y-46243500D01*
X46047873Y-46243500D01*
X46047864Y-46243500D01*
X44952129Y-46243500D01*
X44952123Y-46243501D01*
X44892516Y-46249908D01*
X44757671Y-46300202D01*
X44757664Y-46300206D01*
X44642455Y-46386452D01*
X44642452Y-46386455D01*
X44556206Y-46501664D01*
X44556202Y-46501671D01*
X44505908Y-46636517D01*
X44499501Y-46696116D01*
X44499501Y-46696123D01*
X44499500Y-46696135D01*
X44499500Y-47791870D01*
X20500000Y-47791870D01*
X20500000Y-43250000D01*
X25094540Y-43250000D01*
X25114326Y-43438256D01*
X25114327Y-43438259D01*
X25172818Y-43618277D01*
X25172821Y-43618284D01*
X25267467Y-43782216D01*
X25394129Y-43922888D01*
X25547265Y-44034148D01*
X25547270Y-44034151D01*
X25720192Y-44111142D01*
X25720197Y-44111144D01*
X25905354Y-44150500D01*
X25905355Y-44150500D01*
X26094644Y-44150500D01*
X26094646Y-44150500D01*
X26279803Y-44111144D01*
X26452730Y-44034151D01*
X26509645Y-43992800D01*
X26548347Y-43964682D01*
X26614153Y-43941202D01*
X26621232Y-43941000D01*
X35878768Y-43941000D01*
X35945807Y-43960685D01*
X35951653Y-43964682D01*
X36047265Y-44034148D01*
X36047270Y-44034151D01*
X36220192Y-44111142D01*
X36220197Y-44111144D01*
X36405354Y-44150500D01*
X36405355Y-44150500D01*
X36594644Y-44150500D01*
X36594646Y-44150500D01*
X36779803Y-44111144D01*
X36952730Y-44034151D01*
X37009645Y-43992800D01*
X37048347Y-43964682D01*
X37114153Y-43941202D01*
X37121232Y-43941000D01*
X39878768Y-43941000D01*
X39945807Y-43960685D01*
X39951653Y-43964682D01*
X40047265Y-44034148D01*
X40047270Y-44034151D01*
X40220192Y-44111142D01*
X40220197Y-44111144D01*
X40405354Y-44150500D01*
X40405355Y-44150500D01*
X40594644Y-44150500D01*
X40594646Y-44150500D01*
X40779803Y-44111144D01*
X40952730Y-44034151D01*
X41105871Y-43922888D01*
X41232533Y-43782216D01*
X41327179Y-43618284D01*
X41385674Y-43438256D01*
X41405460Y-43250000D01*
X41385674Y-43061744D01*
X41327179Y-42881716D01*
X41232533Y-42717784D01*
X41105871Y-42577112D01*
X41053848Y-42539315D01*
X40952734Y-42465851D01*
X40952729Y-42465848D01*
X40779807Y-42388857D01*
X40779802Y-42388855D01*
X40634001Y-42357865D01*
X40594646Y-42349500D01*
X40405354Y-42349500D01*
X40372897Y-42356398D01*
X40220197Y-42388855D01*
X40220192Y-42388857D01*
X40047270Y-42465848D01*
X40047265Y-42465851D01*
X39951653Y-42535318D01*
X39885847Y-42558798D01*
X39878768Y-42559000D01*
X37121232Y-42559000D01*
X37054193Y-42539315D01*
X37048347Y-42535318D01*
X36952734Y-42465851D01*
X36952729Y-42465848D01*
X36779807Y-42388857D01*
X36779802Y-42388855D01*
X36634001Y-42357865D01*
X36594646Y-42349500D01*
X36405354Y-42349500D01*
X36372897Y-42356398D01*
X36220197Y-42388855D01*
X36220192Y-42388857D01*
X36047270Y-42465848D01*
X36047265Y-42465851D01*
X35951653Y-42535318D01*
X35885847Y-42558798D01*
X35878768Y-42559000D01*
X26621232Y-42559000D01*
X26554193Y-42539315D01*
X26548347Y-42535318D01*
X26452734Y-42465851D01*
X26452729Y-42465848D01*
X26279807Y-42388857D01*
X26279802Y-42388855D01*
X26134001Y-42357865D01*
X26094646Y-42349500D01*
X25905354Y-42349500D01*
X25872897Y-42356398D01*
X25720197Y-42388855D01*
X25720192Y-42388857D01*
X25547270Y-42465848D01*
X25547265Y-42465851D01*
X25394129Y-42577111D01*
X25267466Y-42717785D01*
X25172821Y-42881715D01*
X25172818Y-42881722D01*
X25114327Y-43061740D01*
X25114326Y-43061744D01*
X25094540Y-43250000D01*
X20500000Y-43250000D01*
X20500000Y-41397844D01*
X24150000Y-41397844D01*
X24156401Y-41457372D01*
X24156403Y-41457379D01*
X24206645Y-41592086D01*
X24206649Y-41592093D01*
X24292809Y-41707187D01*
X24292812Y-41707190D01*
X24407906Y-41793350D01*
X24407913Y-41793354D01*
X24542620Y-41843596D01*
X24542627Y-41843598D01*
X24602155Y-41849999D01*
X24602172Y-41850000D01*
X25250000Y-41850000D01*
X25250000Y-40933012D01*
X25307007Y-40965925D01*
X25434174Y-41000000D01*
X25565826Y-41000000D01*
X25692993Y-40965925D01*
X25750000Y-40933012D01*
X25750000Y-41850000D01*
X26397828Y-41850000D01*
X26397844Y-41849999D01*
X26457372Y-41843598D01*
X26457379Y-41843596D01*
X26592086Y-41793354D01*
X26592093Y-41793350D01*
X26707187Y-41707190D01*
X26707190Y-41707187D01*
X26793350Y-41592093D01*
X26793354Y-41592086D01*
X26842422Y-41460529D01*
X26884293Y-41404595D01*
X26949757Y-41380178D01*
X27018030Y-41395030D01*
X27046285Y-41416181D01*
X27168599Y-41538495D01*
X27231365Y-41582444D01*
X27362165Y-41674032D01*
X27362167Y-41674033D01*
X27362170Y-41674035D01*
X27576337Y-41773903D01*
X27804592Y-41835063D01*
X27975319Y-41850000D01*
X28039999Y-41855659D01*
X28040000Y-41855659D01*
X28040001Y-41855659D01*
X28104681Y-41850000D01*
X28275408Y-41835063D01*
X28503663Y-41773903D01*
X28717830Y-41674035D01*
X28911401Y-41538495D01*
X29078495Y-41371401D01*
X29208425Y-41185842D01*
X29263002Y-41142217D01*
X29332500Y-41135023D01*
X29394855Y-41166546D01*
X29411575Y-41185842D01*
X29541500Y-41371395D01*
X29541505Y-41371401D01*
X29708599Y-41538495D01*
X29771365Y-41582444D01*
X29902165Y-41674032D01*
X29902167Y-41674033D01*
X29902170Y-41674035D01*
X30116337Y-41773903D01*
X30344592Y-41835063D01*
X30515319Y-41850000D01*
X30579999Y-41855659D01*
X30580000Y-41855659D01*
X30580001Y-41855659D01*
X30589613Y-41854818D01*
X53494540Y-41854818D01*
X53514326Y-42043074D01*
X53514327Y-42043077D01*
X53572818Y-42223095D01*
X53572821Y-42223102D01*
X53667467Y-42387034D01*
X53794129Y-42527706D01*
X53947265Y-42638966D01*
X53947270Y-42638969D01*
X54120192Y-42715960D01*
X54120197Y-42715962D01*
X54305354Y-42755318D01*
X54325797Y-42755318D01*
X54392836Y-42775003D01*
X54413478Y-42791637D01*
X54899788Y-43277946D01*
X54933273Y-43339269D01*
X54928289Y-43408960D01*
X54904258Y-43448598D01*
X54893470Y-43460578D01*
X54893465Y-43460585D01*
X54798821Y-43624515D01*
X54798818Y-43624522D01*
X54740327Y-43804540D01*
X54740326Y-43804544D01*
X54720540Y-43992800D01*
X54740326Y-44181056D01*
X54740327Y-44181059D01*
X54798818Y-44361077D01*
X54798821Y-44361084D01*
X54893467Y-44525016D01*
X55020129Y-44665688D01*
X55173265Y-44776948D01*
X55173270Y-44776951D01*
X55346192Y-44853942D01*
X55346197Y-44853944D01*
X55531354Y-44893300D01*
X55531355Y-44893300D01*
X55720644Y-44893300D01*
X55720646Y-44893300D01*
X55905803Y-44853944D01*
X56078730Y-44776951D01*
X56231871Y-44665688D01*
X56358533Y-44525016D01*
X56453179Y-44361084D01*
X56511674Y-44181056D01*
X56531460Y-43992800D01*
X56511674Y-43804544D01*
X56453179Y-43624516D01*
X56358533Y-43460584D01*
X56358529Y-43460578D01*
X56310750Y-43407514D01*
X56280520Y-43344522D01*
X56278900Y-43324542D01*
X56278900Y-43016510D01*
X56253810Y-42890379D01*
X56253809Y-42890378D01*
X56253809Y-42890374D01*
X56204592Y-42771554D01*
X56133141Y-42664619D01*
X56133139Y-42664616D01*
X55334410Y-41865887D01*
X55300925Y-41804564D01*
X55298770Y-41791168D01*
X55285674Y-41666562D01*
X55227179Y-41486534D01*
X55132533Y-41322602D01*
X55005871Y-41181930D01*
X55005870Y-41181929D01*
X54852734Y-41070669D01*
X54852729Y-41070666D01*
X54679807Y-40993675D01*
X54679802Y-40993673D01*
X54534001Y-40962683D01*
X54494646Y-40954318D01*
X54305354Y-40954318D01*
X54272897Y-40961216D01*
X54120197Y-40993673D01*
X54120192Y-40993675D01*
X53947270Y-41070666D01*
X53947265Y-41070669D01*
X53794129Y-41181929D01*
X53667466Y-41322603D01*
X53572821Y-41486533D01*
X53572818Y-41486540D01*
X53514327Y-41666558D01*
X53514326Y-41666562D01*
X53494540Y-41854818D01*
X30589613Y-41854818D01*
X30644681Y-41850000D01*
X30815408Y-41835063D01*
X31043663Y-41773903D01*
X31257830Y-41674035D01*
X31451401Y-41538495D01*
X31618495Y-41371401D01*
X31754035Y-41177830D01*
X31853903Y-40963663D01*
X31915063Y-40735408D01*
X31935659Y-40500000D01*
X31931944Y-40457544D01*
X31926420Y-40394400D01*
X31915063Y-40264592D01*
X31853903Y-40036337D01*
X31754035Y-39822171D01*
X31748425Y-39814158D01*
X31618494Y-39628597D01*
X31451402Y-39461506D01*
X31451395Y-39461501D01*
X31257834Y-39325967D01*
X31257830Y-39325965D01*
X31180703Y-39290000D01*
X34144341Y-39290000D01*
X34164936Y-39525403D01*
X34164938Y-39525413D01*
X34226094Y-39753655D01*
X34226096Y-39753659D01*
X34226097Y-39753663D01*
X34274649Y-39857783D01*
X34325965Y-39967830D01*
X34325967Y-39967834D01*
X34373934Y-40036337D01*
X34461505Y-40161401D01*
X34628599Y-40328495D01*
X34648355Y-40342328D01*
X34822165Y-40464032D01*
X34822167Y-40464033D01*
X34822170Y-40464035D01*
X35036337Y-40563903D01*
X35036343Y-40563904D01*
X35036344Y-40563905D01*
X35091285Y-40578626D01*
X35264592Y-40625063D01*
X35452918Y-40641539D01*
X35499999Y-40645659D01*
X35500000Y-40645659D01*
X35500001Y-40645659D01*
X35539234Y-40642226D01*
X35735408Y-40625063D01*
X35963663Y-40563903D01*
X36177830Y-40464035D01*
X36371401Y-40328495D01*
X36538495Y-40161401D01*
X36674035Y-39967830D01*
X36773903Y-39753663D01*
X36835063Y-39525408D01*
X36855659Y-39290000D01*
X36835063Y-39054592D01*
X36773903Y-38826337D01*
X36674035Y-38612171D01*
X36615110Y-38528016D01*
X36538494Y-38418597D01*
X36371402Y-38251506D01*
X36371396Y-38251501D01*
X36185842Y-38121575D01*
X36142217Y-38066998D01*
X36135023Y-37997500D01*
X36166546Y-37935145D01*
X36185842Y-37918425D01*
X36225530Y-37890635D01*
X36371401Y-37788495D01*
X36538495Y-37621401D01*
X36674035Y-37427830D01*
X36773903Y-37213663D01*
X36835063Y-36985408D01*
X36855659Y-36750000D01*
X36852159Y-36710000D01*
X38394341Y-36710000D01*
X38414936Y-36945403D01*
X38414938Y-36945413D01*
X38476094Y-37173655D01*
X38476096Y-37173659D01*
X38476097Y-37173663D01*
X38494750Y-37213664D01*
X38575965Y-37387830D01*
X38575967Y-37387834D01*
X38684281Y-37542521D01*
X38711501Y-37581396D01*
X38711506Y-37581402D01*
X38833430Y-37703326D01*
X38866915Y-37764649D01*
X38861931Y-37834341D01*
X38820059Y-37890274D01*
X38789083Y-37907189D01*
X38657669Y-37956203D01*
X38657664Y-37956206D01*
X38542455Y-38042452D01*
X38542452Y-38042455D01*
X38456206Y-38157664D01*
X38456202Y-38157671D01*
X38405908Y-38292517D01*
X38399501Y-38352116D01*
X38399501Y-38352123D01*
X38399500Y-38352135D01*
X38399500Y-40147870D01*
X38399501Y-40147876D01*
X38405908Y-40207483D01*
X38456202Y-40342328D01*
X38456206Y-40342335D01*
X38542452Y-40457544D01*
X38542455Y-40457547D01*
X38657664Y-40543793D01*
X38657671Y-40543797D01*
X38792517Y-40594091D01*
X38792516Y-40594091D01*
X38799444Y-40594835D01*
X38852127Y-40600500D01*
X40647872Y-40600499D01*
X40707483Y-40594091D01*
X40842331Y-40543796D01*
X40957546Y-40457546D01*
X41043796Y-40342331D01*
X41094091Y-40207483D01*
X41100500Y-40147873D01*
X41100499Y-38352128D01*
X41094091Y-38292517D01*
X41072429Y-38234439D01*
X41043797Y-38157671D01*
X41043793Y-38157664D01*
X40957547Y-38042455D01*
X40957544Y-38042452D01*
X40842335Y-37956206D01*
X40842328Y-37956202D01*
X40710917Y-37907189D01*
X40654983Y-37865318D01*
X40630566Y-37799853D01*
X40645418Y-37731580D01*
X40666563Y-37703332D01*
X40788495Y-37581401D01*
X40924035Y-37387830D01*
X41023903Y-37173663D01*
X41085063Y-36945408D01*
X41105659Y-36710000D01*
X41085063Y-36474592D01*
X41023903Y-36246337D01*
X40924035Y-36032171D01*
X40816504Y-35878599D01*
X40788494Y-35838597D01*
X40621402Y-35671506D01*
X40621396Y-35671501D01*
X40435842Y-35541575D01*
X40392217Y-35486998D01*
X40385023Y-35417500D01*
X40416546Y-35355145D01*
X40435842Y-35338425D01*
X40487739Y-35302086D01*
X40621401Y-35208495D01*
X40788495Y-35041401D01*
X40924035Y-34847830D01*
X41023903Y-34633663D01*
X41085063Y-34405408D01*
X41105659Y-34170000D01*
X41103399Y-34144174D01*
X41101539Y-34122918D01*
X41085063Y-33934592D01*
X41031694Y-33735413D01*
X41023905Y-33706344D01*
X41023904Y-33706343D01*
X41023903Y-33706337D01*
X40924035Y-33492171D01*
X40883426Y-33434174D01*
X40788494Y-33298597D01*
X40621402Y-33131506D01*
X40621395Y-33131501D01*
X40601989Y-33117913D01*
X40576266Y-33099901D01*
X40427834Y-32995967D01*
X40427830Y-32995965D01*
X40427828Y-32995964D01*
X40213663Y-32896097D01*
X40213659Y-32896096D01*
X40213655Y-32896094D01*
X39985413Y-32834938D01*
X39985403Y-32834936D01*
X39750001Y-32814341D01*
X39749999Y-32814341D01*
X39514596Y-32834936D01*
X39514586Y-32834938D01*
X39286344Y-32896094D01*
X39286335Y-32896098D01*
X39072171Y-32995964D01*
X39072169Y-32995965D01*
X38878597Y-33131505D01*
X38711505Y-33298597D01*
X38575965Y-33492169D01*
X38575964Y-33492171D01*
X38476098Y-33706335D01*
X38476094Y-33706344D01*
X38414938Y-33934586D01*
X38414936Y-33934596D01*
X38394341Y-34169999D01*
X38394341Y-34170000D01*
X38414936Y-34405403D01*
X38414938Y-34405413D01*
X38476094Y-34633655D01*
X38476096Y-34633659D01*
X38476097Y-34633663D01*
X38550562Y-34793354D01*
X38575965Y-34847830D01*
X38575967Y-34847834D01*
X38711501Y-35041395D01*
X38711506Y-35041402D01*
X38878597Y-35208493D01*
X38878603Y-35208498D01*
X39064158Y-35338425D01*
X39107783Y-35393002D01*
X39114977Y-35462500D01*
X39083454Y-35524855D01*
X39064158Y-35541575D01*
X38878597Y-35671505D01*
X38711505Y-35838597D01*
X38575965Y-36032169D01*
X38575964Y-36032171D01*
X38476098Y-36246335D01*
X38476094Y-36246344D01*
X38414938Y-36474586D01*
X38414936Y-36474596D01*
X38394341Y-36709999D01*
X38394341Y-36710000D01*
X36852159Y-36710000D01*
X36835063Y-36514592D01*
X36773903Y-36286337D01*
X36674035Y-36072171D01*
X36646025Y-36032169D01*
X36538496Y-35878600D01*
X36498493Y-35838597D01*
X36416179Y-35756283D01*
X36382696Y-35694963D01*
X36387680Y-35625271D01*
X36429551Y-35569337D01*
X36460529Y-35552422D01*
X36592086Y-35503354D01*
X36592093Y-35503350D01*
X36707187Y-35417190D01*
X36707190Y-35417187D01*
X36793350Y-35302093D01*
X36793354Y-35302086D01*
X36843596Y-35167379D01*
X36843598Y-35167372D01*
X36849999Y-35107844D01*
X36850000Y-35107827D01*
X36850000Y-34460000D01*
X35933012Y-34460000D01*
X35965925Y-34402993D01*
X36000000Y-34275826D01*
X36000000Y-34144174D01*
X35965925Y-34017007D01*
X35933012Y-33960000D01*
X36850000Y-33960000D01*
X36850000Y-33312172D01*
X36849999Y-33312155D01*
X36843598Y-33252627D01*
X36843596Y-33252620D01*
X36793354Y-33117913D01*
X36793350Y-33117906D01*
X36707190Y-33002812D01*
X36707187Y-33002809D01*
X36592093Y-32916649D01*
X36592086Y-32916645D01*
X36457379Y-32866403D01*
X36457372Y-32866401D01*
X36397844Y-32860000D01*
X35750000Y-32860000D01*
X35750000Y-33776988D01*
X35692993Y-33744075D01*
X35565826Y-33710000D01*
X35434174Y-33710000D01*
X35307007Y-33744075D01*
X35250000Y-33776988D01*
X35250000Y-32860000D01*
X34602155Y-32860000D01*
X34542627Y-32866401D01*
X34542620Y-32866403D01*
X34407913Y-32916645D01*
X34407906Y-32916649D01*
X34292812Y-33002809D01*
X34292809Y-33002812D01*
X34206649Y-33117906D01*
X34206645Y-33117913D01*
X34156403Y-33252620D01*
X34156401Y-33252627D01*
X34150000Y-33312155D01*
X34150000Y-33960000D01*
X35066988Y-33960000D01*
X35034075Y-34017007D01*
X35000000Y-34144174D01*
X35000000Y-34275826D01*
X35034075Y-34402993D01*
X35066988Y-34460000D01*
X34150000Y-34460000D01*
X34150000Y-35107844D01*
X34156401Y-35167372D01*
X34156403Y-35167379D01*
X34206645Y-35302086D01*
X34206649Y-35302093D01*
X34292809Y-35417187D01*
X34292812Y-35417190D01*
X34407906Y-35503350D01*
X34407913Y-35503354D01*
X34539470Y-35552421D01*
X34595403Y-35594292D01*
X34619821Y-35659756D01*
X34604970Y-35728029D01*
X34583819Y-35756284D01*
X34461503Y-35878600D01*
X34325965Y-36072169D01*
X34325964Y-36072171D01*
X34226098Y-36286335D01*
X34226094Y-36286344D01*
X34164938Y-36514586D01*
X34164936Y-36514596D01*
X34144341Y-36749999D01*
X34144341Y-36750000D01*
X34164936Y-36985403D01*
X34164938Y-36985413D01*
X34226094Y-37213655D01*
X34226096Y-37213659D01*
X34226097Y-37213663D01*
X34307313Y-37387830D01*
X34325965Y-37427830D01*
X34325967Y-37427834D01*
X34461501Y-37621395D01*
X34461506Y-37621402D01*
X34628597Y-37788493D01*
X34628603Y-37788498D01*
X34814158Y-37918425D01*
X34857783Y-37973002D01*
X34864977Y-38042500D01*
X34833454Y-38104855D01*
X34814158Y-38121575D01*
X34628597Y-38251505D01*
X34461505Y-38418597D01*
X34325965Y-38612169D01*
X34325964Y-38612171D01*
X34226098Y-38826335D01*
X34226094Y-38826344D01*
X34164938Y-39054586D01*
X34164936Y-39054596D01*
X34144341Y-39289999D01*
X34144341Y-39290000D01*
X31180703Y-39290000D01*
X31043663Y-39226097D01*
X31043659Y-39226096D01*
X31043655Y-39226094D01*
X30815413Y-39164938D01*
X30815403Y-39164936D01*
X30580001Y-39144341D01*
X30579999Y-39144341D01*
X30344596Y-39164936D01*
X30344586Y-39164938D01*
X30116344Y-39226094D01*
X30116335Y-39226098D01*
X29902171Y-39325964D01*
X29902169Y-39325965D01*
X29708597Y-39461505D01*
X29541505Y-39628597D01*
X29411575Y-39814158D01*
X29356998Y-39857783D01*
X29287500Y-39864977D01*
X29225145Y-39833454D01*
X29208425Y-39814158D01*
X29078494Y-39628597D01*
X28911402Y-39461506D01*
X28911395Y-39461501D01*
X28717834Y-39325967D01*
X28717830Y-39325965D01*
X28640703Y-39290000D01*
X28503663Y-39226097D01*
X28503659Y-39226096D01*
X28503655Y-39226094D01*
X28275413Y-39164938D01*
X28275403Y-39164936D01*
X28040001Y-39144341D01*
X28039999Y-39144341D01*
X27804596Y-39164936D01*
X27804586Y-39164938D01*
X27576344Y-39226094D01*
X27576335Y-39226098D01*
X27362171Y-39325964D01*
X27362169Y-39325965D01*
X27168600Y-39461503D01*
X27046284Y-39583819D01*
X26984961Y-39617303D01*
X26915269Y-39612319D01*
X26859336Y-39570447D01*
X26842421Y-39539470D01*
X26793354Y-39407913D01*
X26793350Y-39407906D01*
X26707190Y-39292812D01*
X26707187Y-39292809D01*
X26592093Y-39206649D01*
X26592086Y-39206645D01*
X26457379Y-39156403D01*
X26457372Y-39156401D01*
X26397844Y-39150000D01*
X25750000Y-39150000D01*
X25750000Y-40066988D01*
X25692993Y-40034075D01*
X25565826Y-40000000D01*
X25434174Y-40000000D01*
X25307007Y-40034075D01*
X25250000Y-40066988D01*
X25250000Y-39150000D01*
X24602155Y-39150000D01*
X24542627Y-39156401D01*
X24542620Y-39156403D01*
X24407913Y-39206645D01*
X24407906Y-39206649D01*
X24292812Y-39292809D01*
X24292809Y-39292812D01*
X24206649Y-39407906D01*
X24206645Y-39407913D01*
X24156403Y-39542620D01*
X24156401Y-39542627D01*
X24150000Y-39602155D01*
X24150000Y-40250000D01*
X25066988Y-40250000D01*
X25034075Y-40307007D01*
X25000000Y-40434174D01*
X25000000Y-40565826D01*
X25034075Y-40692993D01*
X25066988Y-40750000D01*
X24150000Y-40750000D01*
X24150000Y-41397844D01*
X20500000Y-41397844D01*
X20500000Y-34397844D01*
X22900000Y-34397844D01*
X22906401Y-34457372D01*
X22906403Y-34457379D01*
X22956645Y-34592086D01*
X22956649Y-34592093D01*
X23042809Y-34707187D01*
X23042812Y-34707190D01*
X23157906Y-34793350D01*
X23157913Y-34793354D01*
X23292620Y-34843596D01*
X23292627Y-34843598D01*
X23352155Y-34849999D01*
X23352172Y-34850000D01*
X24000000Y-34850000D01*
X24000000Y-33933012D01*
X24057007Y-33965925D01*
X24184174Y-34000000D01*
X24315826Y-34000000D01*
X24442993Y-33965925D01*
X24500000Y-33933012D01*
X24500000Y-34850000D01*
X25147828Y-34850000D01*
X25147844Y-34849999D01*
X25207372Y-34843598D01*
X25207379Y-34843596D01*
X25342086Y-34793354D01*
X25342093Y-34793350D01*
X25457187Y-34707190D01*
X25457190Y-34707187D01*
X25543350Y-34592093D01*
X25543354Y-34592086D01*
X25592422Y-34460529D01*
X25634293Y-34404595D01*
X25699757Y-34380178D01*
X25768030Y-34395030D01*
X25796285Y-34416181D01*
X25918599Y-34538495D01*
X25995135Y-34592086D01*
X26112165Y-34674032D01*
X26112167Y-34674033D01*
X26112170Y-34674035D01*
X26326337Y-34773903D01*
X26554592Y-34835063D01*
X26725319Y-34850000D01*
X26789999Y-34855659D01*
X26790000Y-34855659D01*
X26790001Y-34855659D01*
X26854681Y-34850000D01*
X27025408Y-34835063D01*
X27253663Y-34773903D01*
X27467830Y-34674035D01*
X27661401Y-34538495D01*
X27828495Y-34371401D01*
X27958425Y-34185842D01*
X28013002Y-34142217D01*
X28082500Y-34135023D01*
X28144855Y-34166546D01*
X28161575Y-34185842D01*
X28291500Y-34371395D01*
X28291505Y-34371401D01*
X28458599Y-34538495D01*
X28535135Y-34592086D01*
X28652165Y-34674032D01*
X28652167Y-34674033D01*
X28652170Y-34674035D01*
X28866337Y-34773903D01*
X29094592Y-34835063D01*
X29265319Y-34850000D01*
X29329999Y-34855659D01*
X29330000Y-34855659D01*
X29330001Y-34855659D01*
X29394681Y-34850000D01*
X29565408Y-34835063D01*
X29793663Y-34773903D01*
X30007830Y-34674035D01*
X30201401Y-34538495D01*
X30368495Y-34371401D01*
X30504035Y-34177830D01*
X30603903Y-33963663D01*
X30665063Y-33735408D01*
X30685659Y-33500000D01*
X30665063Y-33264592D01*
X30603903Y-33036337D01*
X30504035Y-32822171D01*
X30498553Y-32814341D01*
X30368494Y-32628597D01*
X30201402Y-32461506D01*
X30201395Y-32461501D01*
X30188260Y-32452304D01*
X30076574Y-32374100D01*
X30007834Y-32325967D01*
X30007830Y-32325965D01*
X29895533Y-32273600D01*
X29793663Y-32226097D01*
X29793659Y-32226096D01*
X29793655Y-32226094D01*
X29565413Y-32164938D01*
X29565403Y-32164936D01*
X29330001Y-32144341D01*
X29329999Y-32144341D01*
X29094596Y-32164936D01*
X29094586Y-32164938D01*
X28866344Y-32226094D01*
X28866335Y-32226098D01*
X28652171Y-32325964D01*
X28652169Y-32325965D01*
X28458597Y-32461505D01*
X28291505Y-32628597D01*
X28161575Y-32814158D01*
X28106998Y-32857783D01*
X28037500Y-32864977D01*
X27975145Y-32833454D01*
X27958425Y-32814158D01*
X27828494Y-32628597D01*
X27661402Y-32461506D01*
X27661395Y-32461501D01*
X27648260Y-32452304D01*
X27536574Y-32374100D01*
X27467834Y-32325967D01*
X27467830Y-32325965D01*
X27355533Y-32273600D01*
X27253663Y-32226097D01*
X27253659Y-32226096D01*
X27253655Y-32226094D01*
X27025413Y-32164938D01*
X27025403Y-32164936D01*
X26790001Y-32144341D01*
X26789999Y-32144341D01*
X26554596Y-32164936D01*
X26554586Y-32164938D01*
X26326344Y-32226094D01*
X26326335Y-32226098D01*
X26112171Y-32325964D01*
X26112169Y-32325965D01*
X25918600Y-32461503D01*
X25796284Y-32583819D01*
X25734961Y-32617303D01*
X25665269Y-32612319D01*
X25609336Y-32570447D01*
X25592421Y-32539470D01*
X25543354Y-32407913D01*
X25543350Y-32407906D01*
X25457190Y-32292812D01*
X25457187Y-32292809D01*
X25342093Y-32206649D01*
X25342086Y-32206645D01*
X25207379Y-32156403D01*
X25207372Y-32156401D01*
X25147844Y-32150000D01*
X24500000Y-32150000D01*
X24500000Y-33066988D01*
X24442993Y-33034075D01*
X24315826Y-33000000D01*
X24184174Y-33000000D01*
X24057007Y-33034075D01*
X24000000Y-33066988D01*
X24000000Y-32150000D01*
X23352155Y-32150000D01*
X23292627Y-32156401D01*
X23292620Y-32156403D01*
X23157913Y-32206645D01*
X23157906Y-32206649D01*
X23042812Y-32292809D01*
X23042809Y-32292812D01*
X22956649Y-32407906D01*
X22956645Y-32407913D01*
X22906403Y-32542620D01*
X22906401Y-32542627D01*
X22900000Y-32602155D01*
X22900000Y-33250000D01*
X23816988Y-33250000D01*
X23784075Y-33307007D01*
X23750000Y-33434174D01*
X23750000Y-33565826D01*
X23784075Y-33692993D01*
X23816988Y-33750000D01*
X22900000Y-33750000D01*
X22900000Y-34397844D01*
X20500000Y-34397844D01*
X20500000Y-31496000D01*
X55128659Y-31496000D01*
X55147975Y-31692129D01*
X55205188Y-31880733D01*
X55298086Y-32054532D01*
X55298090Y-32054539D01*
X55423116Y-32206883D01*
X55575460Y-32331909D01*
X55575467Y-32331913D01*
X55749266Y-32424811D01*
X55749269Y-32424811D01*
X55749273Y-32424814D01*
X55937868Y-32482024D01*
X56134000Y-32501341D01*
X56330132Y-32482024D01*
X56518727Y-32424814D01*
X56692538Y-32331910D01*
X56844883Y-32206883D01*
X56969910Y-32054538D01*
X57027565Y-31946674D01*
X57062811Y-31880733D01*
X57062811Y-31880732D01*
X57062814Y-31880727D01*
X57120024Y-31692132D01*
X57139341Y-31496000D01*
X57120024Y-31299868D01*
X57062814Y-31111273D01*
X57061419Y-31108663D01*
X57061100Y-31107135D01*
X57060482Y-31105641D01*
X57060765Y-31105523D01*
X57047174Y-31040261D01*
X57071512Y-30975890D01*
X57077351Y-30968089D01*
X57127597Y-30833376D01*
X57127598Y-30833372D01*
X57133999Y-30773844D01*
X57134000Y-30773827D01*
X57134000Y-30476000D01*
X56343618Y-30476000D01*
X56394064Y-30425554D01*
X56436851Y-30351445D01*
X56459000Y-30268787D01*
X56459000Y-30183213D01*
X56436851Y-30100555D01*
X56394064Y-30026446D01*
X56333554Y-29965936D01*
X56259445Y-29923149D01*
X56176787Y-29901000D01*
X56091213Y-29901000D01*
X56008555Y-29923149D01*
X55934446Y-29965936D01*
X55873936Y-30026446D01*
X55831149Y-30100555D01*
X55809000Y-30183213D01*
X55809000Y-30268787D01*
X55831149Y-30351445D01*
X55873936Y-30425554D01*
X55924382Y-30476000D01*
X55134000Y-30476000D01*
X55134000Y-30773844D01*
X55140401Y-30833372D01*
X55140402Y-30833376D01*
X55190648Y-30968091D01*
X55196490Y-30975894D01*
X55220908Y-31041359D01*
X55207251Y-31105535D01*
X55207517Y-31105646D01*
X55206921Y-31107082D01*
X55206589Y-31108647D01*
X55205188Y-31111268D01*
X55205187Y-31111270D01*
X55205186Y-31111273D01*
X55190757Y-31158838D01*
X55147975Y-31299870D01*
X55128659Y-31496000D01*
X20500000Y-31496000D01*
X20500000Y-29976000D01*
X55134000Y-29976000D01*
X55884000Y-29976000D01*
X55884000Y-29226000D01*
X56384000Y-29226000D01*
X56384000Y-29976000D01*
X57134000Y-29976000D01*
X57134000Y-29678172D01*
X57133999Y-29678155D01*
X57127598Y-29618627D01*
X57127596Y-29618620D01*
X57077354Y-29483913D01*
X57077350Y-29483906D01*
X56991190Y-29368812D01*
X56991187Y-29368809D01*
X56876093Y-29282649D01*
X56876086Y-29282645D01*
X56741379Y-29232403D01*
X56741372Y-29232401D01*
X56681844Y-29226000D01*
X56384000Y-29226000D01*
X55884000Y-29226000D01*
X55586155Y-29226000D01*
X55526627Y-29232401D01*
X55526620Y-29232403D01*
X55391913Y-29282645D01*
X55391906Y-29282649D01*
X55276812Y-29368809D01*
X55276809Y-29368812D01*
X55190649Y-29483906D01*
X55190645Y-29483913D01*
X55140403Y-29618620D01*
X55140401Y-29618627D01*
X55134000Y-29678155D01*
X55134000Y-29976000D01*
X20500000Y-29976000D01*
X20500000Y-28397844D01*
X40240000Y-28397844D01*
X40246401Y-28457372D01*
X40246403Y-28457379D01*
X40296645Y-28592086D01*
X40296649Y-28592093D01*
X40382809Y-28707187D01*
X40382812Y-28707190D01*
X40497906Y-28793350D01*
X40497913Y-28793354D01*
X40632620Y-28843596D01*
X40632627Y-28843598D01*
X40692155Y-28849999D01*
X40692172Y-28850000D01*
X41340000Y-28850000D01*
X41340000Y-27933012D01*
X41397007Y-27965925D01*
X41524174Y-28000000D01*
X41655826Y-28000000D01*
X41782993Y-27965925D01*
X41840000Y-27933012D01*
X41840000Y-28850000D01*
X42487828Y-28850000D01*
X42487844Y-28849999D01*
X42547372Y-28843598D01*
X42547379Y-28843596D01*
X42682086Y-28793354D01*
X42682093Y-28793350D01*
X42797187Y-28707190D01*
X42797190Y-28707187D01*
X42883350Y-28592093D01*
X42883354Y-28592086D01*
X42932422Y-28460529D01*
X42974293Y-28404595D01*
X43039757Y-28380178D01*
X43108030Y-28395030D01*
X43136285Y-28416181D01*
X43258599Y-28538495D01*
X43319421Y-28581083D01*
X43452165Y-28674032D01*
X43452167Y-28674033D01*
X43452170Y-28674035D01*
X43666337Y-28773903D01*
X43894592Y-28835063D01*
X44065319Y-28850000D01*
X44129999Y-28855659D01*
X44130000Y-28855659D01*
X44130001Y-28855659D01*
X44194681Y-28850000D01*
X44365408Y-28835063D01*
X44593663Y-28773903D01*
X44807830Y-28674035D01*
X45001401Y-28538495D01*
X45168495Y-28371401D01*
X45298425Y-28185842D01*
X45353002Y-28142217D01*
X45422500Y-28135023D01*
X45484855Y-28166546D01*
X45501575Y-28185842D01*
X45631500Y-28371395D01*
X45631505Y-28371401D01*
X45798599Y-28538495D01*
X45859421Y-28581083D01*
X45992165Y-28674032D01*
X45992167Y-28674033D01*
X45992170Y-28674035D01*
X46206337Y-28773903D01*
X46434592Y-28835063D01*
X46605319Y-28850000D01*
X46669999Y-28855659D01*
X46670000Y-28855659D01*
X46670001Y-28855659D01*
X46734681Y-28850000D01*
X46905408Y-28835063D01*
X47133663Y-28773903D01*
X47347830Y-28674035D01*
X47541401Y-28538495D01*
X47708495Y-28371401D01*
X47838425Y-28185842D01*
X47893002Y-28142217D01*
X47962500Y-28135023D01*
X48024855Y-28166546D01*
X48041575Y-28185842D01*
X48171500Y-28371395D01*
X48171505Y-28371401D01*
X48338599Y-28538495D01*
X48399421Y-28581083D01*
X48532165Y-28674032D01*
X48532167Y-28674033D01*
X48532170Y-28674035D01*
X48746337Y-28773903D01*
X48974592Y-28835063D01*
X49145319Y-28850000D01*
X49209999Y-28855659D01*
X49210000Y-28855659D01*
X49210001Y-28855659D01*
X49274681Y-28850000D01*
X49445408Y-28835063D01*
X49673663Y-28773903D01*
X49887830Y-28674035D01*
X50081401Y-28538495D01*
X50248495Y-28371401D01*
X50378425Y-28185842D01*
X50433002Y-28142217D01*
X50502500Y-28135023D01*
X50564855Y-28166546D01*
X50581575Y-28185842D01*
X50711500Y-28371395D01*
X50711505Y-28371401D01*
X50878599Y-28538495D01*
X50939421Y-28581083D01*
X51072165Y-28674032D01*
X51072167Y-28674033D01*
X51072170Y-28674035D01*
X51286337Y-28773903D01*
X51514592Y-28835063D01*
X51685319Y-28850000D01*
X51749999Y-28855659D01*
X51750000Y-28855659D01*
X51750001Y-28855659D01*
X51814681Y-28850000D01*
X51985408Y-28835063D01*
X52213663Y-28773903D01*
X52427830Y-28674035D01*
X52621401Y-28538495D01*
X52788495Y-28371401D01*
X52924035Y-28177830D01*
X53023903Y-27963663D01*
X53085063Y-27735408D01*
X53105659Y-27500000D01*
X53085063Y-27264592D01*
X53023903Y-27036337D01*
X53006308Y-26998604D01*
X64847921Y-26998604D01*
X64867805Y-27263957D01*
X64867805Y-27263959D01*
X64921680Y-27499999D01*
X64927023Y-27523405D01*
X65024244Y-27771121D01*
X65157299Y-28001580D01*
X65263717Y-28135023D01*
X65323220Y-28209637D01*
X65437732Y-28315888D01*
X65518290Y-28390635D01*
X65738161Y-28540540D01*
X65977914Y-28655999D01*
X65977915Y-28655999D01*
X65977918Y-28656001D01*
X66040192Y-28675210D01*
X66185431Y-28720011D01*
X66243690Y-28758582D01*
X66271848Y-28822526D01*
X66260964Y-28891543D01*
X66214495Y-28943720D01*
X66202685Y-28950221D01*
X66188416Y-28957092D01*
X66188411Y-28957095D01*
X66011240Y-29077887D01*
X66677838Y-29744484D01*
X66675774Y-29745340D01*
X66536556Y-29838362D01*
X66418162Y-29956756D01*
X66325140Y-30095974D01*
X66324284Y-30098038D01*
X65658484Y-29432238D01*
X65607714Y-29495902D01*
X65474696Y-29726296D01*
X65377504Y-29973937D01*
X65377498Y-29973956D01*
X65318303Y-30233307D01*
X65318303Y-30233309D01*
X65298423Y-30498595D01*
X65298423Y-30498604D01*
X65318303Y-30763890D01*
X65318303Y-30763892D01*
X65377498Y-31023243D01*
X65377504Y-31023262D01*
X65474696Y-31270903D01*
X65607716Y-31501300D01*
X65658483Y-31564961D01*
X65658484Y-31564961D01*
X66324284Y-30899160D01*
X66325140Y-30901226D01*
X66418162Y-31040444D01*
X66536556Y-31158838D01*
X66675774Y-31251860D01*
X66677837Y-31252714D01*
X66011240Y-31919311D01*
X66188411Y-32040104D01*
X66188415Y-32040106D01*
X66428095Y-32155531D01*
X66428099Y-32155532D01*
X66682309Y-32233946D01*
X66682315Y-32233947D01*
X66945376Y-32273599D01*
X66945383Y-32273600D01*
X67211417Y-32273600D01*
X67211423Y-32273599D01*
X67474484Y-32233947D01*
X67474490Y-32233946D01*
X67728699Y-32155533D01*
X67968392Y-32040103D01*
X68145558Y-31919311D01*
X68008618Y-31782371D01*
X69627900Y-31782371D01*
X69660582Y-31946674D01*
X69660584Y-31946682D01*
X69724695Y-32101460D01*
X69817773Y-32240762D01*
X69936237Y-32359226D01*
X69958498Y-32374100D01*
X70075537Y-32452303D01*
X70075538Y-32452303D01*
X70075539Y-32452304D01*
X70097752Y-32461505D01*
X70230318Y-32516416D01*
X70362056Y-32542620D01*
X70394628Y-32549099D01*
X70394632Y-32549100D01*
X70394633Y-32549100D01*
X70562168Y-32549100D01*
X70562169Y-32549099D01*
X70726482Y-32516416D01*
X70881263Y-32452303D01*
X71020562Y-32359226D01*
X71139026Y-32240762D01*
X71232103Y-32101463D01*
X71296216Y-31946682D01*
X71328900Y-31782367D01*
X71328900Y-31614833D01*
X71296216Y-31450518D01*
X71232103Y-31295737D01*
X71140630Y-31158838D01*
X71139026Y-31156437D01*
X71020562Y-31037973D01*
X70881260Y-30944895D01*
X70726482Y-30880784D01*
X70726474Y-30880782D01*
X70562171Y-30848100D01*
X70562167Y-30848100D01*
X70394633Y-30848100D01*
X70394628Y-30848100D01*
X70230325Y-30880782D01*
X70230317Y-30880784D01*
X70075539Y-30944895D01*
X69936237Y-31037973D01*
X69817773Y-31156437D01*
X69724695Y-31295739D01*
X69660584Y-31450517D01*
X69660582Y-31450525D01*
X69627900Y-31614828D01*
X69627900Y-31782371D01*
X68008618Y-31782371D01*
X67478962Y-31252714D01*
X67481026Y-31251860D01*
X67620244Y-31158838D01*
X67738638Y-31040444D01*
X67831660Y-30901226D01*
X67832514Y-30899161D01*
X68498314Y-31564961D01*
X68498315Y-31564960D01*
X68549079Y-31501306D01*
X68549086Y-31501295D01*
X68682103Y-31270903D01*
X68779295Y-31023262D01*
X68779301Y-31023243D01*
X68838496Y-30763892D01*
X68838496Y-30763890D01*
X68850883Y-30598604D01*
X71897921Y-30598604D01*
X71917805Y-30863957D01*
X71917805Y-30863959D01*
X71973654Y-31108647D01*
X71977023Y-31123405D01*
X72074244Y-31371121D01*
X72207299Y-31601580D01*
X72341306Y-31769618D01*
X72373220Y-31809637D01*
X72449844Y-31880733D01*
X72568290Y-31990635D01*
X72788161Y-32140540D01*
X73027914Y-32255999D01*
X73027915Y-32255999D01*
X73027918Y-32256001D01*
X73282206Y-32334439D01*
X73282207Y-32334439D01*
X73282210Y-32334440D01*
X73545337Y-32374099D01*
X73545342Y-32374099D01*
X73545345Y-32374100D01*
X73545346Y-32374100D01*
X73811454Y-32374100D01*
X73811455Y-32374100D01*
X73910140Y-32359226D01*
X74074589Y-32334440D01*
X74074590Y-32334439D01*
X74074594Y-32334439D01*
X74328882Y-32256001D01*
X74568640Y-32140540D01*
X74788510Y-31990635D01*
X74983583Y-31809633D01*
X75149501Y-31601580D01*
X75282556Y-31371121D01*
X75379777Y-31123405D01*
X75438993Y-30863967D01*
X75438994Y-30863957D01*
X75458879Y-30598604D01*
X75458879Y-30598595D01*
X75438994Y-30333242D01*
X75438994Y-30333240D01*
X75438993Y-30333236D01*
X75438993Y-30333233D01*
X75379777Y-30073795D01*
X75282556Y-29826079D01*
X75149501Y-29595620D01*
X74983583Y-29387567D01*
X74983582Y-29387566D01*
X74983579Y-29387562D01*
X74788510Y-29206565D01*
X74788500Y-29206558D01*
X74779689Y-29200551D01*
X74735389Y-29146524D01*
X74727330Y-29077120D01*
X74758073Y-29014378D01*
X74817857Y-28978216D01*
X74849543Y-28974099D01*
X75001271Y-28974099D01*
X75001272Y-28974099D01*
X75060883Y-28967691D01*
X75195731Y-28917396D01*
X75310946Y-28831146D01*
X75397196Y-28715931D01*
X75447491Y-28581083D01*
X75453900Y-28521473D01*
X75453899Y-25875728D01*
X75447491Y-25816117D01*
X75441659Y-25800481D01*
X75397197Y-25681271D01*
X75397193Y-25681264D01*
X75310947Y-25566055D01*
X75310944Y-25566052D01*
X75195735Y-25479806D01*
X75195728Y-25479802D01*
X75060882Y-25429508D01*
X75060883Y-25429508D01*
X75001283Y-25423101D01*
X75001281Y-25423100D01*
X75001273Y-25423100D01*
X75001264Y-25423100D01*
X72355529Y-25423100D01*
X72355523Y-25423101D01*
X72295916Y-25429508D01*
X72161071Y-25479802D01*
X72161064Y-25479806D01*
X72045855Y-25566052D01*
X72045852Y-25566055D01*
X71959606Y-25681264D01*
X71959602Y-25681271D01*
X71909308Y-25816117D01*
X71904802Y-25858034D01*
X71902901Y-25875723D01*
X71902900Y-25875735D01*
X71902900Y-28521470D01*
X71902901Y-28521476D01*
X71909308Y-28581083D01*
X71959602Y-28715928D01*
X71959606Y-28715935D01*
X72045852Y-28831144D01*
X72045855Y-28831147D01*
X72161064Y-28917393D01*
X72161071Y-28917397D01*
X72206018Y-28934161D01*
X72295917Y-28967691D01*
X72355527Y-28974100D01*
X72507256Y-28974099D01*
X72574294Y-28993783D01*
X72620049Y-29046587D01*
X72629993Y-29115745D01*
X72600968Y-29179301D01*
X72577114Y-29200547D01*
X72568298Y-29206558D01*
X72568295Y-29206560D01*
X72373220Y-29387562D01*
X72207299Y-29595620D01*
X72074244Y-29826078D01*
X71977025Y-30073789D01*
X71977020Y-30073806D01*
X71917805Y-30333240D01*
X71917805Y-30333242D01*
X71897921Y-30598595D01*
X71897921Y-30598604D01*
X68850883Y-30598604D01*
X68858377Y-30498604D01*
X68858377Y-30498595D01*
X68838496Y-30233309D01*
X68838496Y-30233307D01*
X68779301Y-29973956D01*
X68779295Y-29973937D01*
X68682103Y-29726296D01*
X68549083Y-29495899D01*
X68498315Y-29432237D01*
X67832514Y-30098037D01*
X67831660Y-30095974D01*
X67738638Y-29956756D01*
X67620244Y-29838362D01*
X67481026Y-29745340D01*
X67478961Y-29744484D01*
X68145558Y-29077887D01*
X67968384Y-28957092D01*
X67728699Y-28841666D01*
X67521408Y-28777725D01*
X67463149Y-28739154D01*
X67434991Y-28675210D01*
X67445875Y-28606193D01*
X67492344Y-28554016D01*
X67504144Y-28547520D01*
X67518640Y-28540540D01*
X67738510Y-28390635D01*
X67933583Y-28209633D01*
X68099501Y-28001580D01*
X68232556Y-27771121D01*
X68329777Y-27523405D01*
X68384792Y-27282371D01*
X69627900Y-27282371D01*
X69660582Y-27446674D01*
X69660584Y-27446682D01*
X69724695Y-27601460D01*
X69817773Y-27740762D01*
X69936237Y-27859226D01*
X70028894Y-27921137D01*
X70075537Y-27952303D01*
X70230318Y-28016416D01*
X70394628Y-28049099D01*
X70394632Y-28049100D01*
X70394633Y-28049100D01*
X70562168Y-28049100D01*
X70562169Y-28049099D01*
X70726482Y-28016416D01*
X70881263Y-27952303D01*
X71020562Y-27859226D01*
X71139026Y-27740762D01*
X71232103Y-27601463D01*
X71296216Y-27446682D01*
X71328900Y-27282367D01*
X71328900Y-27114833D01*
X71296216Y-26950518D01*
X71232103Y-26795737D01*
X71190339Y-26733233D01*
X71139026Y-26656437D01*
X71020562Y-26537973D01*
X70881260Y-26444895D01*
X70726482Y-26380784D01*
X70726474Y-26380782D01*
X70562171Y-26348100D01*
X70562167Y-26348100D01*
X70394633Y-26348100D01*
X70394628Y-26348100D01*
X70230325Y-26380782D01*
X70230317Y-26380784D01*
X70075539Y-26444895D01*
X69936237Y-26537973D01*
X69817773Y-26656437D01*
X69724695Y-26795739D01*
X69660584Y-26950517D01*
X69660582Y-26950525D01*
X69627900Y-27114828D01*
X69627900Y-27282371D01*
X68384792Y-27282371D01*
X68388993Y-27263967D01*
X68406051Y-27036337D01*
X68408879Y-26998604D01*
X68408879Y-26998595D01*
X68388994Y-26733242D01*
X68388994Y-26733240D01*
X68388993Y-26733236D01*
X68388993Y-26733233D01*
X68329777Y-26473795D01*
X68232556Y-26226079D01*
X68099501Y-25995620D01*
X67933583Y-25787567D01*
X67933582Y-25787566D01*
X67933579Y-25787562D01*
X67738510Y-25606565D01*
X67679088Y-25566052D01*
X67518640Y-25456660D01*
X67518636Y-25456658D01*
X67518633Y-25456656D01*
X67518632Y-25456655D01*
X67278884Y-25341200D01*
X67278886Y-25341200D01*
X67024595Y-25262761D01*
X67024589Y-25262759D01*
X66761462Y-25223100D01*
X66761455Y-25223100D01*
X66495345Y-25223100D01*
X66495337Y-25223100D01*
X66232210Y-25262759D01*
X66232204Y-25262761D01*
X65977914Y-25341200D01*
X65738169Y-25456655D01*
X65738160Y-25456660D01*
X65518292Y-25606563D01*
X65323220Y-25787562D01*
X65157299Y-25995620D01*
X65024244Y-26226078D01*
X64927025Y-26473789D01*
X64927020Y-26473806D01*
X64867805Y-26733240D01*
X64867805Y-26733242D01*
X64847921Y-26998595D01*
X64847921Y-26998604D01*
X53006308Y-26998604D01*
X52924035Y-26822171D01*
X52918425Y-26814158D01*
X52788494Y-26628597D01*
X52621402Y-26461506D01*
X52621395Y-26461501D01*
X52427834Y-26325967D01*
X52427830Y-26325965D01*
X52356727Y-26292809D01*
X52213663Y-26226097D01*
X52213659Y-26226096D01*
X52213655Y-26226094D01*
X51985413Y-26164938D01*
X51985403Y-26164936D01*
X51750001Y-26144341D01*
X51749999Y-26144341D01*
X51514596Y-26164936D01*
X51514586Y-26164938D01*
X51286344Y-26226094D01*
X51286335Y-26226098D01*
X51072171Y-26325964D01*
X51072169Y-26325965D01*
X50878597Y-26461505D01*
X50711505Y-26628597D01*
X50581575Y-26814158D01*
X50526998Y-26857783D01*
X50457500Y-26864977D01*
X50395145Y-26833454D01*
X50378425Y-26814158D01*
X50248494Y-26628597D01*
X50081402Y-26461506D01*
X50081395Y-26461501D01*
X49887834Y-26325967D01*
X49887830Y-26325965D01*
X49816727Y-26292809D01*
X49673663Y-26226097D01*
X49673659Y-26226096D01*
X49673655Y-26226094D01*
X49445413Y-26164938D01*
X49445403Y-26164936D01*
X49210001Y-26144341D01*
X49209999Y-26144341D01*
X48974596Y-26164936D01*
X48974586Y-26164938D01*
X48746344Y-26226094D01*
X48746335Y-26226098D01*
X48532171Y-26325964D01*
X48532169Y-26325965D01*
X48338597Y-26461505D01*
X48171505Y-26628597D01*
X48041575Y-26814158D01*
X47986998Y-26857783D01*
X47917500Y-26864977D01*
X47855145Y-26833454D01*
X47838425Y-26814158D01*
X47708494Y-26628597D01*
X47541402Y-26461506D01*
X47541395Y-26461501D01*
X47347834Y-26325967D01*
X47347830Y-26325965D01*
X47276727Y-26292809D01*
X47133663Y-26226097D01*
X47133659Y-26226096D01*
X47133655Y-26226094D01*
X46905413Y-26164938D01*
X46905403Y-26164936D01*
X46670001Y-26144341D01*
X46669999Y-26144341D01*
X46434596Y-26164936D01*
X46434586Y-26164938D01*
X46206344Y-26226094D01*
X46206335Y-26226098D01*
X45992171Y-26325964D01*
X45992169Y-26325965D01*
X45798597Y-26461505D01*
X45631505Y-26628597D01*
X45501575Y-26814158D01*
X45446998Y-26857783D01*
X45377500Y-26864977D01*
X45315145Y-26833454D01*
X45298425Y-26814158D01*
X45168494Y-26628597D01*
X45001402Y-26461506D01*
X45001395Y-26461501D01*
X44807834Y-26325967D01*
X44807830Y-26325965D01*
X44736727Y-26292809D01*
X44593663Y-26226097D01*
X44593659Y-26226096D01*
X44593655Y-26226094D01*
X44365413Y-26164938D01*
X44365403Y-26164936D01*
X44130001Y-26144341D01*
X44129999Y-26144341D01*
X43894596Y-26164936D01*
X43894586Y-26164938D01*
X43666344Y-26226094D01*
X43666335Y-26226098D01*
X43452171Y-26325964D01*
X43452169Y-26325965D01*
X43258600Y-26461503D01*
X43136284Y-26583819D01*
X43074961Y-26617303D01*
X43005269Y-26612319D01*
X42949336Y-26570447D01*
X42932421Y-26539470D01*
X42883354Y-26407913D01*
X42883350Y-26407906D01*
X42797190Y-26292812D01*
X42797187Y-26292809D01*
X42682093Y-26206649D01*
X42682086Y-26206645D01*
X42547379Y-26156403D01*
X42547372Y-26156401D01*
X42487844Y-26150000D01*
X41840000Y-26150000D01*
X41840000Y-27066988D01*
X41782993Y-27034075D01*
X41655826Y-27000000D01*
X41524174Y-27000000D01*
X41397007Y-27034075D01*
X41340000Y-27066988D01*
X41340000Y-26150000D01*
X40692155Y-26150000D01*
X40632627Y-26156401D01*
X40632620Y-26156403D01*
X40497913Y-26206645D01*
X40497906Y-26206649D01*
X40382812Y-26292809D01*
X40382809Y-26292812D01*
X40296649Y-26407906D01*
X40296645Y-26407913D01*
X40246403Y-26542620D01*
X40246401Y-26542627D01*
X40240000Y-26602155D01*
X40240000Y-27250000D01*
X41156988Y-27250000D01*
X41124075Y-27307007D01*
X41090000Y-27434174D01*
X41090000Y-27565826D01*
X41124075Y-27692993D01*
X41156988Y-27750000D01*
X40240000Y-27750000D01*
X40240000Y-28397844D01*
X20500000Y-28397844D01*
X20500000Y-23622007D01*
X21874671Y-23622007D01*
X21893964Y-23916363D01*
X21893965Y-23916373D01*
X21893966Y-23916380D01*
X21893968Y-23916390D01*
X21951518Y-24205716D01*
X21951521Y-24205730D01*
X22046349Y-24485080D01*
X22176825Y-24749660D01*
X22176829Y-24749667D01*
X22340725Y-24994955D01*
X22535241Y-25216758D01*
X22757044Y-25411274D01*
X22859604Y-25479802D01*
X23002335Y-25575172D01*
X23266923Y-25705652D01*
X23546278Y-25800481D01*
X23835620Y-25858034D01*
X23863888Y-25859886D01*
X24129993Y-25877329D01*
X24130000Y-25877329D01*
X24130007Y-25877329D01*
X24365675Y-25861881D01*
X24424380Y-25858034D01*
X24713722Y-25800481D01*
X24993077Y-25705652D01*
X25257665Y-25575172D01*
X25502957Y-25411273D01*
X25724758Y-25216758D01*
X25919273Y-24994957D01*
X26083172Y-24749665D01*
X26213652Y-24485077D01*
X26308481Y-24205722D01*
X26366034Y-23916380D01*
X26368680Y-23876007D01*
X76992671Y-23876007D01*
X77011964Y-24170363D01*
X77011965Y-24170373D01*
X77011966Y-24170380D01*
X77011968Y-24170390D01*
X77069518Y-24459716D01*
X77069521Y-24459730D01*
X77164349Y-24739080D01*
X77294825Y-25003660D01*
X77294829Y-25003667D01*
X77458725Y-25248955D01*
X77653241Y-25470758D01*
X77875044Y-25665274D01*
X78120332Y-25829170D01*
X78120339Y-25829174D01*
X78178864Y-25858035D01*
X78384923Y-25959652D01*
X78664278Y-26054481D01*
X78953620Y-26112034D01*
X78981888Y-26113886D01*
X79247993Y-26131329D01*
X79248000Y-26131329D01*
X79248007Y-26131329D01*
X79483675Y-26115881D01*
X79542380Y-26112034D01*
X79831722Y-26054481D01*
X80111077Y-25959652D01*
X80375665Y-25829172D01*
X80620957Y-25665273D01*
X80842758Y-25470758D01*
X81037273Y-25248957D01*
X81201172Y-25003665D01*
X81331652Y-24739077D01*
X81426481Y-24459722D01*
X81484034Y-24170380D01*
X81500682Y-23916390D01*
X81503329Y-23876007D01*
X81503329Y-23875992D01*
X81484035Y-23581636D01*
X81484034Y-23581620D01*
X81426481Y-23292278D01*
X81331652Y-23012923D01*
X81201172Y-22748336D01*
X81037273Y-22503043D01*
X80994655Y-22454447D01*
X80842758Y-22281241D01*
X80620955Y-22086725D01*
X80375667Y-21922829D01*
X80375660Y-21922825D01*
X80111080Y-21792349D01*
X79831730Y-21697521D01*
X79831724Y-21697519D01*
X79831722Y-21697519D01*
X79542380Y-21639966D01*
X79542373Y-21639965D01*
X79542363Y-21639964D01*
X79248007Y-21620671D01*
X79247993Y-21620671D01*
X78953636Y-21639964D01*
X78953624Y-21639965D01*
X78953620Y-21639966D01*
X78953612Y-21639967D01*
X78953609Y-21639968D01*
X78664283Y-21697518D01*
X78664269Y-21697521D01*
X78384919Y-21792349D01*
X78120334Y-21922828D01*
X77875041Y-22086728D01*
X77653241Y-22281241D01*
X77458728Y-22503041D01*
X77294828Y-22748334D01*
X77164349Y-23012919D01*
X77069521Y-23292269D01*
X77069518Y-23292283D01*
X77011968Y-23581609D01*
X77011964Y-23581636D01*
X76992671Y-23875992D01*
X76992671Y-23876007D01*
X26368680Y-23876007D01*
X26385329Y-23622000D01*
X26385329Y-23621992D01*
X26366035Y-23327636D01*
X26366034Y-23327620D01*
X26308481Y-23038278D01*
X26213652Y-22758923D01*
X26083172Y-22494336D01*
X25919273Y-22249043D01*
X25876655Y-22200447D01*
X25724758Y-22027241D01*
X25502955Y-21832725D01*
X25257667Y-21668829D01*
X25257660Y-21668825D01*
X24993080Y-21538349D01*
X24713730Y-21443521D01*
X24713724Y-21443519D01*
X24713722Y-21443519D01*
X24424380Y-21385966D01*
X24424373Y-21385965D01*
X24424363Y-21385964D01*
X24130007Y-21366671D01*
X24129993Y-21366671D01*
X23835636Y-21385964D01*
X23835624Y-21385965D01*
X23835620Y-21385966D01*
X23835612Y-21385967D01*
X23835609Y-21385968D01*
X23546283Y-21443518D01*
X23546269Y-21443521D01*
X23266919Y-21538349D01*
X23002334Y-21668828D01*
X22757041Y-21832728D01*
X22535241Y-22027241D01*
X22340728Y-22249041D01*
X22176828Y-22494334D01*
X22046349Y-22758919D01*
X21951521Y-23038269D01*
X21951518Y-23038283D01*
X21893968Y-23327609D01*
X21893964Y-23327636D01*
X21874671Y-23621992D01*
X21874671Y-23622007D01*
X20500000Y-23622007D01*
X20500000Y-20224000D01*
X20519685Y-20156961D01*
X20572489Y-20111206D01*
X20624000Y-20100000D01*
X81876000Y-20100000D01*
X81943039Y-20119685D01*
G37*
%TD.AperFunction*%
%TD*%
M02*
