%TF.GenerationSoftware,KiCad,Pcbnew,8.0.02-1-dev-e0381f25f7*%
%TF.CreationDate,2024-04-02T19:47:07-07:00*%
%TF.ProjectId,i2s_to_toslink_pcb,6932735f-746f-45f7-946f-736c696e6b5f,rev?*%
%TF.SameCoordinates,Original*%
%TF.FileFunction,Soldermask,Top*%
%TF.FilePolarity,Negative*%
%FSLAX46Y46*%
G04 Gerber Fmt 4.6, Leading zero omitted, Abs format (unit mm)*
G04 Created by KiCad (PCBNEW 8.0.02-1-dev-e0381f25f7) date 2024-04-02 19:47:07*
%MOMM*%
%LPD*%
G01*
G04 APERTURE LIST*
G04 Aperture macros list*
%AMRoundRect*
0 Rectangle with rounded corners*
0 $1 Rounding radius*
0 $2 $3 $4 $5 $6 $7 $8 $9 X,Y pos of 4 corners*
0 Add a 4 corners polygon primitive as box body*
4,1,4,$2,$3,$4,$5,$6,$7,$8,$9,$2,$3,0*
0 Add four circle primitives for the rounded corners*
1,1,$1+$1,$2,$3*
1,1,$1+$1,$4,$5*
1,1,$1+$1,$6,$7*
1,1,$1+$1,$8,$9*
0 Add four rect primitives between the rounded corners*
20,1,$1+$1,$2,$3,$4,$5,0*
20,1,$1+$1,$4,$5,$6,$7,0*
20,1,$1+$1,$6,$7,$8,$9,0*
20,1,$1+$1,$8,$9,$2,$3,0*%
G04 Aperture macros list end*
%ADD10RoundRect,0.102000X1.300000X-0.950000X1.300000X0.950000X-1.300000X0.950000X-1.300000X-0.950000X0*%
%ADD11C,2.600000*%
%ADD12C,3.500000*%
%ADD13RoundRect,0.200000X-0.200000X-0.275000X0.200000X-0.275000X0.200000X0.275000X-0.200000X0.275000X0*%
%ADD14RoundRect,0.225000X0.250000X-0.225000X0.250000X0.225000X-0.250000X0.225000X-0.250000X-0.225000X0*%
%ADD15RoundRect,0.140000X-0.170000X0.140000X-0.170000X-0.140000X0.170000X-0.140000X0.170000X0.140000X0*%
%ADD16RoundRect,0.225000X0.225000X0.250000X-0.225000X0.250000X-0.225000X-0.250000X0.225000X-0.250000X0*%
%ADD17RoundRect,0.200000X0.275000X-0.200000X0.275000X0.200000X-0.275000X0.200000X-0.275000X-0.200000X0*%
%ADD18R,1.700000X1.700000*%
%ADD19O,1.700000X1.700000*%
%ADD20R,1.000000X1.000000*%
%ADD21C,1.000000*%
%ADD22R,1.600000X0.550000*%
%ADD23R,0.550000X1.600000*%
%ADD24RoundRect,0.200000X0.200000X0.275000X-0.200000X0.275000X-0.200000X-0.275000X0.200000X-0.275000X0*%
%ADD25RoundRect,0.200000X-0.275000X0.200000X-0.275000X-0.200000X0.275000X-0.200000X0.275000X0.200000X0*%
%ADD26RoundRect,0.225000X-0.250000X0.225000X-0.250000X-0.225000X0.250000X-0.225000X0.250000X0.225000X0*%
%ADD27RoundRect,0.218750X0.218750X0.256250X-0.218750X0.256250X-0.218750X-0.256250X0.218750X-0.256250X0*%
%ADD28R,1.700000X0.900000*%
%ADD29C,1.200000*%
%ADD30R,2.550000X2.550000*%
%ADD31C,2.550000*%
%ADD32C,1.462000*%
%ADD33RoundRect,0.243750X0.243750X0.456250X-0.243750X0.456250X-0.243750X-0.456250X0.243750X-0.456250X0*%
%ADD34R,0.977900X0.508000*%
%ADD35RoundRect,0.243750X-0.243750X-0.456250X0.243750X-0.456250X0.243750X0.456250X-0.243750X0.456250X0*%
%ADD36RoundRect,0.225000X-0.225000X-0.250000X0.225000X-0.250000X0.225000X0.250000X-0.225000X0.250000X0*%
%ADD37R,1.955432X0.420766*%
%ADD38R,1.350000X1.350000*%
%ADD39O,1.350000X1.350000*%
%ADD40RoundRect,0.102000X-1.300000X0.950000X-1.300000X-0.950000X1.300000X-0.950000X1.300000X0.950000X0*%
%ADD41R,0.431800X1.651000*%
%ADD42RoundRect,0.218750X-0.256250X0.218750X-0.256250X-0.218750X0.256250X-0.218750X0.256250X0.218750X0*%
G04 APERTURE END LIST*
D10*
%TO.C,Y1*%
X32800000Y-76266400D03*
X32800000Y-71966400D03*
%TD*%
D11*
%TO.C,H1*%
X24130000Y-23622000D03*
D12*
X24130000Y-23622000D03*
%TD*%
D13*
%TO.C,R19*%
X32550000Y-58600000D03*
X34200000Y-58600000D03*
%TD*%
D14*
%TO.C,C18*%
X59600000Y-32750000D03*
X59600000Y-31200000D03*
%TD*%
D13*
%TO.C,R10*%
X65830200Y-49961400D03*
X67480200Y-49961400D03*
%TD*%
D15*
%TO.C,C10*%
X39600000Y-74440000D03*
X39600000Y-75400000D03*
%TD*%
D16*
%TO.C,C15*%
X38600000Y-48717200D03*
X37050000Y-48717200D03*
%TD*%
D17*
%TO.C,R14*%
X43750000Y-62800000D03*
X43750000Y-61150000D03*
%TD*%
D13*
%TO.C,R4*%
X54500000Y-60500000D03*
X56150000Y-60500000D03*
%TD*%
%TO.C,R6*%
X54175000Y-54600000D03*
X55825000Y-54600000D03*
%TD*%
D18*
%TO.C,J3*%
X37400000Y-55860000D03*
D19*
X37400000Y-58400000D03*
%TD*%
D20*
%TO.C,J17*%
X56134000Y-47498000D03*
%TD*%
D17*
%TO.C,R8*%
X56500000Y-51565000D03*
X56500000Y-49915000D03*
%TD*%
D16*
%TO.C,C8*%
X38658600Y-72418000D03*
X37108600Y-72418000D03*
%TD*%
D21*
%TO.C,TP1*%
X55600000Y-66500000D03*
%TD*%
D14*
%TO.C,C13*%
X24270000Y-45525000D03*
X24270000Y-43975000D03*
%TD*%
D22*
%TO.C,U2*%
X43111400Y-68424200D03*
X43111400Y-69224200D03*
X43111400Y-70024200D03*
X43111400Y-70824200D03*
X43111400Y-71624200D03*
X43111400Y-72424200D03*
X43111400Y-73224200D03*
X43111400Y-74024200D03*
D23*
X44561400Y-75474200D03*
X45361400Y-75474200D03*
X46161400Y-75474200D03*
X46961400Y-75474200D03*
X47761400Y-75474200D03*
X48561400Y-75474200D03*
X49361400Y-75474200D03*
X50161400Y-75474200D03*
D22*
X51611400Y-74024200D03*
X51611400Y-73224200D03*
X51611400Y-72424200D03*
X51611400Y-71624200D03*
X51611400Y-70824200D03*
X51611400Y-70024200D03*
X51611400Y-69224200D03*
X51611400Y-68424200D03*
D23*
X50161400Y-66974200D03*
X49361400Y-66974200D03*
X48561400Y-66974200D03*
X47761400Y-66974200D03*
X46961400Y-66974200D03*
X46161400Y-66974200D03*
X45361400Y-66974200D03*
X44561400Y-66974200D03*
%TD*%
D18*
%TO.C,J2*%
X41590000Y-27500000D03*
D19*
X44130000Y-27500000D03*
X46670000Y-27500000D03*
X49210000Y-27500000D03*
X51750000Y-27500000D03*
%TD*%
D20*
%TO.C,J15*%
X51577000Y-54750000D03*
%TD*%
D14*
%TO.C,C14*%
X24800000Y-50800000D03*
X24800000Y-49250000D03*
%TD*%
D13*
%TO.C,R12*%
X71850000Y-54000000D03*
X73500000Y-54000000D03*
%TD*%
D18*
%TO.C,J12*%
X29000000Y-56720000D03*
D19*
X29000000Y-59260000D03*
X29000000Y-61800000D03*
X29000000Y-64340000D03*
X29000000Y-66880000D03*
%TD*%
D16*
%TO.C,C4*%
X69005000Y-59250000D03*
X67455000Y-59250000D03*
%TD*%
D24*
%TO.C,R13*%
X67708800Y-53949200D03*
X66058800Y-53949200D03*
%TD*%
D18*
%TO.C,J9*%
X30400000Y-28875000D03*
D19*
X30400000Y-31415000D03*
X30400000Y-33955000D03*
%TD*%
D25*
%TO.C,R5*%
X56000000Y-56500000D03*
X56000000Y-58150000D03*
%TD*%
D26*
%TO.C,C23*%
X69830200Y-52412000D03*
X69830200Y-53962000D03*
%TD*%
D17*
%TO.C,R1*%
X44800000Y-54800000D03*
X44800000Y-53150000D03*
%TD*%
D13*
%TO.C,R11*%
X63675000Y-45000000D03*
X65325000Y-45000000D03*
%TD*%
%TO.C,R20*%
X32550000Y-56000000D03*
X34200000Y-56000000D03*
%TD*%
D27*
%TO.C,D2*%
X74637500Y-74150000D03*
X73062500Y-74150000D03*
%TD*%
D18*
%TO.C,J7*%
X25600000Y-28875000D03*
D19*
X25600000Y-31415000D03*
X25600000Y-33955000D03*
%TD*%
D28*
%TO.C,SW1*%
X68000000Y-75650000D03*
X68000000Y-79050000D03*
%TD*%
D20*
%TO.C,J14*%
X45600000Y-46800000D03*
%TD*%
D13*
%TO.C,R16*%
X71400000Y-79100000D03*
X73050000Y-79100000D03*
%TD*%
D15*
%TO.C,C11*%
X40732000Y-76640000D03*
X40732000Y-77600000D03*
%TD*%
D16*
%TO.C,C5*%
X78200000Y-64200000D03*
X76650000Y-64200000D03*
%TD*%
D25*
%TO.C,R9*%
X44600000Y-49200000D03*
X44600000Y-50850000D03*
%TD*%
D11*
%TO.C,H3*%
X24130000Y-77978000D03*
D12*
X24130000Y-77978000D03*
%TD*%
D16*
%TO.C,C16*%
X38600000Y-46126400D03*
X37050000Y-46126400D03*
%TD*%
D29*
%TO.C,J10*%
X70478400Y-31698600D03*
X70478400Y-27198600D03*
D30*
X73678400Y-27198600D03*
D31*
X67628400Y-36498600D03*
X73678400Y-30598600D03*
X67078400Y-30498600D03*
X66628400Y-26998600D03*
D32*
X68478400Y-39598600D03*
X70478400Y-39598600D03*
X72478400Y-39598600D03*
%TD*%
D26*
%TO.C,C12*%
X54300000Y-62025000D03*
X54300000Y-63575000D03*
%TD*%
D25*
%TO.C,R3*%
X42200000Y-53150000D03*
X42200000Y-54800000D03*
%TD*%
D14*
%TO.C,C6*%
X55667200Y-70950000D03*
X55667200Y-69400000D03*
%TD*%
D33*
%TO.C,D3*%
X76600000Y-59800000D03*
X74725000Y-59800000D03*
%TD*%
D34*
%TO.C,U1*%
X74569500Y-69184749D03*
X74569500Y-70134750D03*
X74569500Y-71084751D03*
X77300000Y-71084751D03*
X77300000Y-69184749D03*
%TD*%
D26*
%TO.C,C9*%
X57800000Y-71800000D03*
X57800000Y-73350000D03*
%TD*%
D35*
%TO.C,D1*%
X35862500Y-63800000D03*
X37737500Y-63800000D03*
%TD*%
D26*
%TO.C,C1*%
X68200000Y-61245000D03*
X68200000Y-62795000D03*
%TD*%
D16*
%TO.C,C21*%
X69422500Y-43800000D03*
X67872500Y-43800000D03*
%TD*%
D14*
%TO.C,C19*%
X53200000Y-47975000D03*
X53200000Y-46425000D03*
%TD*%
D36*
%TO.C,C22*%
X69842400Y-49961400D03*
X71392400Y-49961400D03*
%TD*%
D26*
%TO.C,C17*%
X58978800Y-42405000D03*
X58978800Y-43955000D03*
%TD*%
D37*
%TO.C,U3*%
X28412232Y-44827000D03*
X28412232Y-45477001D03*
X28412232Y-46126999D03*
X28412232Y-46777001D03*
X28412232Y-47426999D03*
X28412232Y-48077001D03*
X28412232Y-48726999D03*
X28412232Y-49377001D03*
X28412232Y-50026999D03*
X28412232Y-50677000D03*
X34163000Y-50677000D03*
X34163000Y-50026999D03*
X34163000Y-49377001D03*
X34163000Y-48726999D03*
X34163000Y-48077001D03*
X34163000Y-47426999D03*
X34163000Y-46777001D03*
X34163000Y-46126999D03*
X34163000Y-45477001D03*
X34163000Y-44827000D03*
%TD*%
D38*
%TO.C,J13*%
X72200000Y-46400000D03*
D39*
X74200000Y-46400000D03*
X76200000Y-46400000D03*
X78200000Y-46400000D03*
X80200000Y-46400000D03*
%TD*%
D38*
%TO.C,J11*%
X56400000Y-28000000D03*
D39*
X56400000Y-30000000D03*
%TD*%
D17*
%TO.C,R2*%
X39750000Y-65450000D03*
X39750000Y-63800000D03*
%TD*%
D18*
%TO.C,J6*%
X61710000Y-71250000D03*
D19*
X61710000Y-68710000D03*
X64250000Y-71250000D03*
X64250000Y-68710000D03*
X66790000Y-71250000D03*
X66790000Y-68710000D03*
%TD*%
D40*
%TO.C,Y2*%
X58978000Y-35696000D03*
X58978000Y-39996000D03*
%TD*%
D25*
%TO.C,R18*%
X40000000Y-35375000D03*
X40000000Y-37025000D03*
%TD*%
D18*
%TO.C,J1*%
X62000000Y-49180000D03*
D19*
X62000000Y-51720000D03*
X62000000Y-54260000D03*
X62000000Y-56800000D03*
X62000000Y-59340000D03*
X62000000Y-61880000D03*
%TD*%
D18*
%TO.C,JP1*%
X35600000Y-34080000D03*
D19*
X35600000Y-31540000D03*
X35600000Y-29000000D03*
%TD*%
D41*
%TO.C,U4*%
X44584001Y-41300400D03*
X45234002Y-41300400D03*
X45884001Y-41300400D03*
X46534002Y-41300400D03*
X47184000Y-41300400D03*
X47834002Y-41300400D03*
X48484000Y-41300400D03*
X49133999Y-41300400D03*
X49784000Y-41300400D03*
X50433999Y-41300400D03*
X51084000Y-41300400D03*
X51733999Y-41300400D03*
X52384000Y-41300400D03*
X53033999Y-41300400D03*
X53034001Y-34036000D03*
X52384000Y-34036000D03*
X51734001Y-34036000D03*
X51084000Y-34036000D03*
X50434002Y-34036000D03*
X49784000Y-34036000D03*
X49134002Y-34036000D03*
X48484000Y-34036000D03*
X47834002Y-34036000D03*
X47184000Y-34036000D03*
X46534002Y-34036000D03*
X45884001Y-34036000D03*
X45234002Y-34036000D03*
X44584001Y-34036000D03*
%TD*%
D25*
%TO.C,R17*%
X74600000Y-62465000D03*
X74600000Y-64115000D03*
%TD*%
D17*
%TO.C,R7*%
X50000000Y-47800000D03*
X50000000Y-46150000D03*
%TD*%
D42*
%TO.C,D4*%
X65500000Y-61225000D03*
X65500000Y-62800000D03*
%TD*%
D14*
%TO.C,C20*%
X41750000Y-44150000D03*
X41750000Y-42600000D03*
%TD*%
D26*
%TO.C,C2*%
X71000000Y-61225000D03*
X71000000Y-62775000D03*
%TD*%
D16*
%TO.C,C7*%
X38659600Y-70200000D03*
X37109600Y-70200000D03*
%TD*%
D18*
%TO.C,J8*%
X25500000Y-40500000D03*
D19*
X28040000Y-40500000D03*
X30580000Y-40500000D03*
%TD*%
D20*
%TO.C,J16*%
X52000000Y-52000000D03*
%TD*%
D11*
%TO.C,H2*%
X79248000Y-23876000D03*
D12*
X79248000Y-23876000D03*
%TD*%
D11*
%TO.C,H4*%
X79248000Y-77978000D03*
D12*
X79248000Y-77978000D03*
%TD*%
D24*
%TO.C,R15*%
X74700000Y-76900000D03*
X73050000Y-76900000D03*
%TD*%
M02*
