%TF.GenerationSoftware,KiCad,Pcbnew,7.0.11-1-dev-0f715223e9*%
%TF.CreationDate,2024-01-18T09:46:45-08:00*%
%TF.ProjectId,i2s_to_toslink_pcb,6932735f-746f-45f7-946f-736c696e6b5f,rev?*%
%TF.SameCoordinates,Original*%
%TF.FileFunction,Copper,L1,Top*%
%TF.FilePolarity,Positive*%
%FSLAX46Y46*%
G04 Gerber Fmt 4.6, Leading zero omitted, Abs format (unit mm)*
G04 Created by KiCad (PCBNEW 7.0.11-1-dev-0f715223e9) date 2024-01-18 09:46:45*
%MOMM*%
%LPD*%
G01*
G04 APERTURE LIST*
G04 Aperture macros list*
%AMRoundRect*
0 Rectangle with rounded corners*
0 $1 Rounding radius*
0 $2 $3 $4 $5 $6 $7 $8 $9 X,Y pos of 4 corners*
0 Add a 4 corners polygon primitive as box body*
4,1,4,$2,$3,$4,$5,$6,$7,$8,$9,$2,$3,0*
0 Add four circle primitives for the rounded corners*
1,1,$1+$1,$2,$3*
1,1,$1+$1,$4,$5*
1,1,$1+$1,$6,$7*
1,1,$1+$1,$8,$9*
0 Add four rect primitives between the rounded corners*
20,1,$1+$1,$2,$3,$4,$5,0*
20,1,$1+$1,$4,$5,$6,$7,0*
20,1,$1+$1,$6,$7,$8,$9,0*
20,1,$1+$1,$8,$9,$2,$3,0*%
G04 Aperture macros list end*
%ADD10C,0.203200*%
%TA.AperFunction,NonConductor*%
%ADD11C,0.203200*%
%TD*%
%TA.AperFunction,SMDPad,CuDef*%
%ADD12R,2.006600X2.235200*%
%TD*%
%TA.AperFunction,ComponentPad*%
%ADD13C,2.600000*%
%TD*%
%TA.AperFunction,ConnectorPad*%
%ADD14C,3.500000*%
%TD*%
%TA.AperFunction,SMDPad,CuDef*%
%ADD15RoundRect,0.140000X-0.140000X-0.170000X0.140000X-0.170000X0.140000X0.170000X-0.140000X0.170000X0*%
%TD*%
%TA.AperFunction,SMDPad,CuDef*%
%ADD16RoundRect,0.200000X-0.275000X0.200000X-0.275000X-0.200000X0.275000X-0.200000X0.275000X0.200000X0*%
%TD*%
%TA.AperFunction,SMDPad,CuDef*%
%ADD17RoundRect,0.140000X-0.170000X0.140000X-0.170000X-0.140000X0.170000X-0.140000X0.170000X0.140000X0*%
%TD*%
%TA.AperFunction,SMDPad,CuDef*%
%ADD18RoundRect,0.140000X0.140000X0.170000X-0.140000X0.170000X-0.140000X-0.170000X0.140000X-0.170000X0*%
%TD*%
%TA.AperFunction,ComponentPad*%
%ADD19R,1.700000X1.700000*%
%TD*%
%TA.AperFunction,ComponentPad*%
%ADD20O,1.700000X1.700000*%
%TD*%
%TA.AperFunction,SMDPad,CuDef*%
%ADD21RoundRect,0.135000X-0.135000X-0.185000X0.135000X-0.185000X0.135000X0.185000X-0.135000X0.185000X0*%
%TD*%
%TA.AperFunction,ComponentPad*%
%ADD22R,1.000000X1.000000*%
%TD*%
%TA.AperFunction,SMDPad,CuDef*%
%ADD23C,1.000000*%
%TD*%
%TA.AperFunction,SMDPad,CuDef*%
%ADD24R,1.600000X0.550000*%
%TD*%
%TA.AperFunction,SMDPad,CuDef*%
%ADD25R,0.550000X1.600000*%
%TD*%
%TA.AperFunction,SMDPad,CuDef*%
%ADD26RoundRect,0.140000X0.170000X-0.140000X0.170000X0.140000X-0.170000X0.140000X-0.170000X-0.140000X0*%
%TD*%
%TA.AperFunction,SMDPad,CuDef*%
%ADD27RoundRect,0.200000X0.275000X-0.200000X0.275000X0.200000X-0.275000X0.200000X-0.275000X-0.200000X0*%
%TD*%
%TA.AperFunction,ComponentPad*%
%ADD28O,1.000000X1.000000*%
%TD*%
%TA.AperFunction,SMDPad,CuDef*%
%ADD29RoundRect,0.225000X0.225000X0.250000X-0.225000X0.250000X-0.225000X-0.250000X0.225000X-0.250000X0*%
%TD*%
%TA.AperFunction,SMDPad,CuDef*%
%ADD30RoundRect,0.135000X0.185000X-0.135000X0.185000X0.135000X-0.185000X0.135000X-0.185000X-0.135000X0*%
%TD*%
%TA.AperFunction,SMDPad,CuDef*%
%ADD31RoundRect,0.200000X-0.200000X-0.275000X0.200000X-0.275000X0.200000X0.275000X-0.200000X0.275000X0*%
%TD*%
%TA.AperFunction,ComponentPad*%
%ADD32R,2.550000X2.550000*%
%TD*%
%TA.AperFunction,ComponentPad*%
%ADD33C,2.550000*%
%TD*%
%TA.AperFunction,ComponentPad*%
%ADD34C,1.462000*%
%TD*%
%TA.AperFunction,SMDPad,CuDef*%
%ADD35RoundRect,0.135000X-0.185000X0.135000X-0.185000X-0.135000X0.185000X-0.135000X0.185000X0.135000X0*%
%TD*%
%TA.AperFunction,SMDPad,CuDef*%
%ADD36R,0.508000X0.977900*%
%TD*%
%TA.AperFunction,SMDPad,CuDef*%
%ADD37RoundRect,0.243750X0.243750X0.456250X-0.243750X0.456250X-0.243750X-0.456250X0.243750X-0.456250X0*%
%TD*%
%TA.AperFunction,SMDPad,CuDef*%
%ADD38RoundRect,0.225000X-0.250000X0.225000X-0.250000X-0.225000X0.250000X-0.225000X0.250000X0.225000X0*%
%TD*%
%TA.AperFunction,SMDPad,CuDef*%
%ADD39R,1.955432X0.420766*%
%TD*%
%TA.AperFunction,SMDPad,CuDef*%
%ADD40R,2.600000X1.900000*%
%TD*%
%TA.AperFunction,SMDPad,CuDef*%
%ADD41R,0.431800X1.651000*%
%TD*%
%TA.AperFunction,SMDPad,CuDef*%
%ADD42RoundRect,0.135000X0.135000X0.185000X-0.135000X0.185000X-0.135000X-0.185000X0.135000X-0.185000X0*%
%TD*%
%TA.AperFunction,ViaPad*%
%ADD43C,0.800000*%
%TD*%
%TA.AperFunction,ViaPad*%
%ADD44C,1.270000*%
%TD*%
%TA.AperFunction,Conductor*%
%ADD45C,0.250000*%
%TD*%
%TA.AperFunction,Conductor*%
%ADD46C,0.381000*%
%TD*%
%TA.AperFunction,Conductor*%
%ADD47C,0.304800*%
%TD*%
G04 APERTURE END LIST*
D10*
D11*
X27553588Y-22471093D02*
X27553588Y-21455093D01*
X27989017Y-21551855D02*
X28037398Y-21503474D01*
X28037398Y-21503474D02*
X28134160Y-21455093D01*
X28134160Y-21455093D02*
X28376065Y-21455093D01*
X28376065Y-21455093D02*
X28472827Y-21503474D01*
X28472827Y-21503474D02*
X28521208Y-21551855D01*
X28521208Y-21551855D02*
X28569589Y-21648617D01*
X28569589Y-21648617D02*
X28569589Y-21745379D01*
X28569589Y-21745379D02*
X28521208Y-21890522D01*
X28521208Y-21890522D02*
X27940636Y-22471093D01*
X27940636Y-22471093D02*
X28569589Y-22471093D01*
X28956636Y-22422713D02*
X29101779Y-22471093D01*
X29101779Y-22471093D02*
X29343684Y-22471093D01*
X29343684Y-22471093D02*
X29440446Y-22422713D01*
X29440446Y-22422713D02*
X29488827Y-22374332D01*
X29488827Y-22374332D02*
X29537208Y-22277570D01*
X29537208Y-22277570D02*
X29537208Y-22180808D01*
X29537208Y-22180808D02*
X29488827Y-22084046D01*
X29488827Y-22084046D02*
X29440446Y-22035665D01*
X29440446Y-22035665D02*
X29343684Y-21987284D01*
X29343684Y-21987284D02*
X29150160Y-21938903D01*
X29150160Y-21938903D02*
X29053398Y-21890522D01*
X29053398Y-21890522D02*
X29005017Y-21842141D01*
X29005017Y-21842141D02*
X28956636Y-21745379D01*
X28956636Y-21745379D02*
X28956636Y-21648617D01*
X28956636Y-21648617D02*
X29005017Y-21551855D01*
X29005017Y-21551855D02*
X29053398Y-21503474D01*
X29053398Y-21503474D02*
X29150160Y-21455093D01*
X29150160Y-21455093D02*
X29392065Y-21455093D01*
X29392065Y-21455093D02*
X29537208Y-21503474D01*
X30601588Y-21793760D02*
X30988636Y-21793760D01*
X30746731Y-21455093D02*
X30746731Y-22325951D01*
X30746731Y-22325951D02*
X30795112Y-22422713D01*
X30795112Y-22422713D02*
X30891874Y-22471093D01*
X30891874Y-22471093D02*
X30988636Y-22471093D01*
X31472445Y-22471093D02*
X31375683Y-22422713D01*
X31375683Y-22422713D02*
X31327302Y-22374332D01*
X31327302Y-22374332D02*
X31278921Y-22277570D01*
X31278921Y-22277570D02*
X31278921Y-21987284D01*
X31278921Y-21987284D02*
X31327302Y-21890522D01*
X31327302Y-21890522D02*
X31375683Y-21842141D01*
X31375683Y-21842141D02*
X31472445Y-21793760D01*
X31472445Y-21793760D02*
X31617588Y-21793760D01*
X31617588Y-21793760D02*
X31714350Y-21842141D01*
X31714350Y-21842141D02*
X31762731Y-21890522D01*
X31762731Y-21890522D02*
X31811112Y-21987284D01*
X31811112Y-21987284D02*
X31811112Y-22277570D01*
X31811112Y-22277570D02*
X31762731Y-22374332D01*
X31762731Y-22374332D02*
X31714350Y-22422713D01*
X31714350Y-22422713D02*
X31617588Y-22471093D01*
X31617588Y-22471093D02*
X31472445Y-22471093D01*
X32875492Y-21455093D02*
X33456064Y-21455093D01*
X33165778Y-22471093D02*
X33165778Y-21455093D01*
X33939873Y-22471093D02*
X33843111Y-22422713D01*
X33843111Y-22422713D02*
X33794730Y-22374332D01*
X33794730Y-22374332D02*
X33746349Y-22277570D01*
X33746349Y-22277570D02*
X33746349Y-21987284D01*
X33746349Y-21987284D02*
X33794730Y-21890522D01*
X33794730Y-21890522D02*
X33843111Y-21842141D01*
X33843111Y-21842141D02*
X33939873Y-21793760D01*
X33939873Y-21793760D02*
X34085016Y-21793760D01*
X34085016Y-21793760D02*
X34181778Y-21842141D01*
X34181778Y-21842141D02*
X34230159Y-21890522D01*
X34230159Y-21890522D02*
X34278540Y-21987284D01*
X34278540Y-21987284D02*
X34278540Y-22277570D01*
X34278540Y-22277570D02*
X34230159Y-22374332D01*
X34230159Y-22374332D02*
X34181778Y-22422713D01*
X34181778Y-22422713D02*
X34085016Y-22471093D01*
X34085016Y-22471093D02*
X33939873Y-22471093D01*
X34665587Y-22422713D02*
X34762349Y-22471093D01*
X34762349Y-22471093D02*
X34955873Y-22471093D01*
X34955873Y-22471093D02*
X35052635Y-22422713D01*
X35052635Y-22422713D02*
X35101016Y-22325951D01*
X35101016Y-22325951D02*
X35101016Y-22277570D01*
X35101016Y-22277570D02*
X35052635Y-22180808D01*
X35052635Y-22180808D02*
X34955873Y-22132427D01*
X34955873Y-22132427D02*
X34810730Y-22132427D01*
X34810730Y-22132427D02*
X34713968Y-22084046D01*
X34713968Y-22084046D02*
X34665587Y-21987284D01*
X34665587Y-21987284D02*
X34665587Y-21938903D01*
X34665587Y-21938903D02*
X34713968Y-21842141D01*
X34713968Y-21842141D02*
X34810730Y-21793760D01*
X34810730Y-21793760D02*
X34955873Y-21793760D01*
X34955873Y-21793760D02*
X35052635Y-21842141D01*
X36020254Y-22471093D02*
X35536444Y-22471093D01*
X35536444Y-22471093D02*
X35536444Y-21455093D01*
X36358920Y-22471093D02*
X36358920Y-21793760D01*
X36358920Y-21455093D02*
X36310539Y-21503474D01*
X36310539Y-21503474D02*
X36358920Y-21551855D01*
X36358920Y-21551855D02*
X36407301Y-21503474D01*
X36407301Y-21503474D02*
X36358920Y-21455093D01*
X36358920Y-21455093D02*
X36358920Y-21551855D01*
X36842730Y-21793760D02*
X36842730Y-22471093D01*
X36842730Y-21890522D02*
X36891111Y-21842141D01*
X36891111Y-21842141D02*
X36987873Y-21793760D01*
X36987873Y-21793760D02*
X37133016Y-21793760D01*
X37133016Y-21793760D02*
X37229778Y-21842141D01*
X37229778Y-21842141D02*
X37278159Y-21938903D01*
X37278159Y-21938903D02*
X37278159Y-22471093D01*
X37761968Y-22471093D02*
X37761968Y-21455093D01*
X37858730Y-22084046D02*
X38149016Y-22471093D01*
X38149016Y-21793760D02*
X37761968Y-22180808D01*
D10*
D11*
X80168332Y-73843839D02*
X80216713Y-73892220D01*
X80216713Y-73892220D02*
X80265093Y-74037363D01*
X80265093Y-74037363D02*
X80265093Y-74134125D01*
X80265093Y-74134125D02*
X80216713Y-74279268D01*
X80216713Y-74279268D02*
X80119951Y-74376030D01*
X80119951Y-74376030D02*
X80023189Y-74424411D01*
X80023189Y-74424411D02*
X79829665Y-74472792D01*
X79829665Y-74472792D02*
X79684522Y-74472792D01*
X79684522Y-74472792D02*
X79490998Y-74424411D01*
X79490998Y-74424411D02*
X79394236Y-74376030D01*
X79394236Y-74376030D02*
X79297474Y-74279268D01*
X79297474Y-74279268D02*
X79249093Y-74134125D01*
X79249093Y-74134125D02*
X79249093Y-74037363D01*
X79249093Y-74037363D02*
X79297474Y-73892220D01*
X79297474Y-73892220D02*
X79345855Y-73843839D01*
X80265093Y-73263268D02*
X80216713Y-73360030D01*
X80216713Y-73360030D02*
X80168332Y-73408411D01*
X80168332Y-73408411D02*
X80071570Y-73456792D01*
X80071570Y-73456792D02*
X79781284Y-73456792D01*
X79781284Y-73456792D02*
X79684522Y-73408411D01*
X79684522Y-73408411D02*
X79636141Y-73360030D01*
X79636141Y-73360030D02*
X79587760Y-73263268D01*
X79587760Y-73263268D02*
X79587760Y-73118125D01*
X79587760Y-73118125D02*
X79636141Y-73021363D01*
X79636141Y-73021363D02*
X79684522Y-72972982D01*
X79684522Y-72972982D02*
X79781284Y-72924601D01*
X79781284Y-72924601D02*
X80071570Y-72924601D01*
X80071570Y-72924601D02*
X80168332Y-72972982D01*
X80168332Y-72972982D02*
X80216713Y-73021363D01*
X80216713Y-73021363D02*
X80265093Y-73118125D01*
X80265093Y-73118125D02*
X80265093Y-73263268D01*
X79587760Y-72489173D02*
X80603760Y-72489173D01*
X79636141Y-72489173D02*
X79587760Y-72392411D01*
X79587760Y-72392411D02*
X79587760Y-72198887D01*
X79587760Y-72198887D02*
X79636141Y-72102125D01*
X79636141Y-72102125D02*
X79684522Y-72053744D01*
X79684522Y-72053744D02*
X79781284Y-72005363D01*
X79781284Y-72005363D02*
X80071570Y-72005363D01*
X80071570Y-72005363D02*
X80168332Y-72053744D01*
X80168332Y-72053744D02*
X80216713Y-72102125D01*
X80216713Y-72102125D02*
X80265093Y-72198887D01*
X80265093Y-72198887D02*
X80265093Y-72392411D01*
X80265093Y-72392411D02*
X80216713Y-72489173D01*
X79587760Y-71666697D02*
X80265093Y-71424792D01*
X79587760Y-71182887D02*
X80265093Y-71424792D01*
X80265093Y-71424792D02*
X80506998Y-71521554D01*
X80506998Y-71521554D02*
X80555379Y-71569935D01*
X80555379Y-71569935D02*
X80603760Y-71666697D01*
X80265093Y-70795840D02*
X79587760Y-70795840D01*
X79781284Y-70795840D02*
X79684522Y-70747459D01*
X79684522Y-70747459D02*
X79636141Y-70699078D01*
X79636141Y-70699078D02*
X79587760Y-70602316D01*
X79587760Y-70602316D02*
X79587760Y-70505554D01*
X80265093Y-70166888D02*
X79587760Y-70166888D01*
X79249093Y-70166888D02*
X79297474Y-70215269D01*
X79297474Y-70215269D02*
X79345855Y-70166888D01*
X79345855Y-70166888D02*
X79297474Y-70118507D01*
X79297474Y-70118507D02*
X79249093Y-70166888D01*
X79249093Y-70166888D02*
X79345855Y-70166888D01*
X79587760Y-69247649D02*
X80410236Y-69247649D01*
X80410236Y-69247649D02*
X80506998Y-69296030D01*
X80506998Y-69296030D02*
X80555379Y-69344411D01*
X80555379Y-69344411D02*
X80603760Y-69441173D01*
X80603760Y-69441173D02*
X80603760Y-69586316D01*
X80603760Y-69586316D02*
X80555379Y-69683078D01*
X80216713Y-69247649D02*
X80265093Y-69344411D01*
X80265093Y-69344411D02*
X80265093Y-69537935D01*
X80265093Y-69537935D02*
X80216713Y-69634697D01*
X80216713Y-69634697D02*
X80168332Y-69683078D01*
X80168332Y-69683078D02*
X80071570Y-69731459D01*
X80071570Y-69731459D02*
X79781284Y-69731459D01*
X79781284Y-69731459D02*
X79684522Y-69683078D01*
X79684522Y-69683078D02*
X79636141Y-69634697D01*
X79636141Y-69634697D02*
X79587760Y-69537935D01*
X79587760Y-69537935D02*
X79587760Y-69344411D01*
X79587760Y-69344411D02*
X79636141Y-69247649D01*
X80265093Y-68763840D02*
X79249093Y-68763840D01*
X80265093Y-68328411D02*
X79732903Y-68328411D01*
X79732903Y-68328411D02*
X79636141Y-68376792D01*
X79636141Y-68376792D02*
X79587760Y-68473554D01*
X79587760Y-68473554D02*
X79587760Y-68618697D01*
X79587760Y-68618697D02*
X79636141Y-68715459D01*
X79636141Y-68715459D02*
X79684522Y-68763840D01*
X79587760Y-67989745D02*
X79587760Y-67602697D01*
X79249093Y-67844602D02*
X80119951Y-67844602D01*
X80119951Y-67844602D02*
X80216713Y-67796221D01*
X80216713Y-67796221D02*
X80265093Y-67699459D01*
X80265093Y-67699459D02*
X80265093Y-67602697D01*
X80652141Y-66199650D02*
X80603760Y-66248031D01*
X80603760Y-66248031D02*
X80458617Y-66344793D01*
X80458617Y-66344793D02*
X80361855Y-66393174D01*
X80361855Y-66393174D02*
X80216713Y-66441555D01*
X80216713Y-66441555D02*
X79974808Y-66489936D01*
X79974808Y-66489936D02*
X79781284Y-66489936D01*
X79781284Y-66489936D02*
X79539379Y-66441555D01*
X79539379Y-66441555D02*
X79394236Y-66393174D01*
X79394236Y-66393174D02*
X79297474Y-66344793D01*
X79297474Y-66344793D02*
X79152332Y-66248031D01*
X79152332Y-66248031D02*
X79103951Y-66199650D01*
X80168332Y-65232031D02*
X80216713Y-65280412D01*
X80216713Y-65280412D02*
X80265093Y-65425555D01*
X80265093Y-65425555D02*
X80265093Y-65522317D01*
X80265093Y-65522317D02*
X80216713Y-65667460D01*
X80216713Y-65667460D02*
X80119951Y-65764222D01*
X80119951Y-65764222D02*
X80023189Y-65812603D01*
X80023189Y-65812603D02*
X79829665Y-65860984D01*
X79829665Y-65860984D02*
X79684522Y-65860984D01*
X79684522Y-65860984D02*
X79490998Y-65812603D01*
X79490998Y-65812603D02*
X79394236Y-65764222D01*
X79394236Y-65764222D02*
X79297474Y-65667460D01*
X79297474Y-65667460D02*
X79249093Y-65522317D01*
X79249093Y-65522317D02*
X79249093Y-65425555D01*
X79249093Y-65425555D02*
X79297474Y-65280412D01*
X79297474Y-65280412D02*
X79345855Y-65232031D01*
X80652141Y-64893365D02*
X80603760Y-64844984D01*
X80603760Y-64844984D02*
X80458617Y-64748222D01*
X80458617Y-64748222D02*
X80361855Y-64699841D01*
X80361855Y-64699841D02*
X80216713Y-64651460D01*
X80216713Y-64651460D02*
X79974808Y-64603079D01*
X79974808Y-64603079D02*
X79781284Y-64603079D01*
X79781284Y-64603079D02*
X79539379Y-64651460D01*
X79539379Y-64651460D02*
X79394236Y-64699841D01*
X79394236Y-64699841D02*
X79297474Y-64748222D01*
X79297474Y-64748222D02*
X79152332Y-64844984D01*
X79152332Y-64844984D02*
X79103951Y-64893365D01*
X79345855Y-63393556D02*
X79297474Y-63345175D01*
X79297474Y-63345175D02*
X79249093Y-63248413D01*
X79249093Y-63248413D02*
X79249093Y-63006508D01*
X79249093Y-63006508D02*
X79297474Y-62909746D01*
X79297474Y-62909746D02*
X79345855Y-62861365D01*
X79345855Y-62861365D02*
X79442617Y-62812984D01*
X79442617Y-62812984D02*
X79539379Y-62812984D01*
X79539379Y-62812984D02*
X79684522Y-62861365D01*
X79684522Y-62861365D02*
X80265093Y-63441937D01*
X80265093Y-63441937D02*
X80265093Y-62812984D01*
X79249093Y-62184032D02*
X79249093Y-62087270D01*
X79249093Y-62087270D02*
X79297474Y-61990508D01*
X79297474Y-61990508D02*
X79345855Y-61942127D01*
X79345855Y-61942127D02*
X79442617Y-61893746D01*
X79442617Y-61893746D02*
X79636141Y-61845365D01*
X79636141Y-61845365D02*
X79878046Y-61845365D01*
X79878046Y-61845365D02*
X80071570Y-61893746D01*
X80071570Y-61893746D02*
X80168332Y-61942127D01*
X80168332Y-61942127D02*
X80216713Y-61990508D01*
X80216713Y-61990508D02*
X80265093Y-62087270D01*
X80265093Y-62087270D02*
X80265093Y-62184032D01*
X80265093Y-62184032D02*
X80216713Y-62280794D01*
X80216713Y-62280794D02*
X80168332Y-62329175D01*
X80168332Y-62329175D02*
X80071570Y-62377556D01*
X80071570Y-62377556D02*
X79878046Y-62425937D01*
X79878046Y-62425937D02*
X79636141Y-62425937D01*
X79636141Y-62425937D02*
X79442617Y-62377556D01*
X79442617Y-62377556D02*
X79345855Y-62329175D01*
X79345855Y-62329175D02*
X79297474Y-62280794D01*
X79297474Y-62280794D02*
X79249093Y-62184032D01*
X79345855Y-61458318D02*
X79297474Y-61409937D01*
X79297474Y-61409937D02*
X79249093Y-61313175D01*
X79249093Y-61313175D02*
X79249093Y-61071270D01*
X79249093Y-61071270D02*
X79297474Y-60974508D01*
X79297474Y-60974508D02*
X79345855Y-60926127D01*
X79345855Y-60926127D02*
X79442617Y-60877746D01*
X79442617Y-60877746D02*
X79539379Y-60877746D01*
X79539379Y-60877746D02*
X79684522Y-60926127D01*
X79684522Y-60926127D02*
X80265093Y-61506699D01*
X80265093Y-61506699D02*
X80265093Y-60877746D01*
X79587760Y-60006889D02*
X80265093Y-60006889D01*
X79200713Y-60248794D02*
X79926427Y-60490699D01*
X79926427Y-60490699D02*
X79926427Y-59861746D01*
X80265093Y-58700604D02*
X79249093Y-58700604D01*
X79249093Y-58700604D02*
X79974808Y-58361937D01*
X79974808Y-58361937D02*
X79249093Y-58023270D01*
X79249093Y-58023270D02*
X80265093Y-58023270D01*
X80265093Y-57539461D02*
X79587760Y-57539461D01*
X79249093Y-57539461D02*
X79297474Y-57587842D01*
X79297474Y-57587842D02*
X79345855Y-57539461D01*
X79345855Y-57539461D02*
X79297474Y-57491080D01*
X79297474Y-57491080D02*
X79249093Y-57539461D01*
X79249093Y-57539461D02*
X79345855Y-57539461D01*
X80265093Y-57055651D02*
X79249093Y-57055651D01*
X79878046Y-56958889D02*
X80265093Y-56668603D01*
X79587760Y-56668603D02*
X79974808Y-57055651D01*
X80265093Y-55797746D02*
X79732903Y-55797746D01*
X79732903Y-55797746D02*
X79636141Y-55846127D01*
X79636141Y-55846127D02*
X79587760Y-55942889D01*
X79587760Y-55942889D02*
X79587760Y-56136413D01*
X79587760Y-56136413D02*
X79636141Y-56233175D01*
X80216713Y-55797746D02*
X80265093Y-55894508D01*
X80265093Y-55894508D02*
X80265093Y-56136413D01*
X80265093Y-56136413D02*
X80216713Y-56233175D01*
X80216713Y-56233175D02*
X80119951Y-56281556D01*
X80119951Y-56281556D02*
X80023189Y-56281556D01*
X80023189Y-56281556D02*
X79926427Y-56233175D01*
X79926427Y-56233175D02*
X79878046Y-56136413D01*
X79878046Y-56136413D02*
X79878046Y-55894508D01*
X79878046Y-55894508D02*
X79829665Y-55797746D01*
X80265093Y-54056032D02*
X80265093Y-54539842D01*
X80265093Y-54539842D02*
X79249093Y-54539842D01*
X80265093Y-53281937D02*
X79732903Y-53281937D01*
X79732903Y-53281937D02*
X79636141Y-53330318D01*
X79636141Y-53330318D02*
X79587760Y-53427080D01*
X79587760Y-53427080D02*
X79587760Y-53620604D01*
X79587760Y-53620604D02*
X79636141Y-53717366D01*
X80216713Y-53281937D02*
X80265093Y-53378699D01*
X80265093Y-53378699D02*
X80265093Y-53620604D01*
X80265093Y-53620604D02*
X80216713Y-53717366D01*
X80216713Y-53717366D02*
X80119951Y-53765747D01*
X80119951Y-53765747D02*
X80023189Y-53765747D01*
X80023189Y-53765747D02*
X79926427Y-53717366D01*
X79926427Y-53717366D02*
X79878046Y-53620604D01*
X79878046Y-53620604D02*
X79878046Y-53378699D01*
X79878046Y-53378699D02*
X79829665Y-53281937D01*
X80265093Y-52798128D02*
X79587760Y-52798128D01*
X79249093Y-52798128D02*
X79297474Y-52846509D01*
X79297474Y-52846509D02*
X79345855Y-52798128D01*
X79345855Y-52798128D02*
X79297474Y-52749747D01*
X79297474Y-52749747D02*
X79249093Y-52798128D01*
X79249093Y-52798128D02*
X79345855Y-52798128D01*
X79587760Y-52459461D02*
X79587760Y-52072413D01*
X79249093Y-52314318D02*
X80119951Y-52314318D01*
X80119951Y-52314318D02*
X80216713Y-52265937D01*
X80216713Y-52265937D02*
X80265093Y-52169175D01*
X80265093Y-52169175D02*
X80265093Y-52072413D01*
X80265093Y-51733747D02*
X79587760Y-51733747D01*
X79249093Y-51733747D02*
X79297474Y-51782128D01*
X79297474Y-51782128D02*
X79345855Y-51733747D01*
X79345855Y-51733747D02*
X79297474Y-51685366D01*
X79297474Y-51685366D02*
X79249093Y-51733747D01*
X79249093Y-51733747D02*
X79345855Y-51733747D01*
X80265093Y-51104794D02*
X80216713Y-51201556D01*
X80216713Y-51201556D02*
X80168332Y-51249937D01*
X80168332Y-51249937D02*
X80071570Y-51298318D01*
X80071570Y-51298318D02*
X79781284Y-51298318D01*
X79781284Y-51298318D02*
X79684522Y-51249937D01*
X79684522Y-51249937D02*
X79636141Y-51201556D01*
X79636141Y-51201556D02*
X79587760Y-51104794D01*
X79587760Y-51104794D02*
X79587760Y-50959651D01*
X79587760Y-50959651D02*
X79636141Y-50862889D01*
X79636141Y-50862889D02*
X79684522Y-50814508D01*
X79684522Y-50814508D02*
X79781284Y-50766127D01*
X79781284Y-50766127D02*
X80071570Y-50766127D01*
X80071570Y-50766127D02*
X80168332Y-50814508D01*
X80168332Y-50814508D02*
X80216713Y-50862889D01*
X80216713Y-50862889D02*
X80265093Y-50959651D01*
X80265093Y-50959651D02*
X80265093Y-51104794D01*
D12*
%TO.P,Y1,1,1*%
%TO.N,MCU_XTAL2*%
X39116000Y-74904600D03*
%TO.P,Y1,2,2*%
%TO.N,MCU_XTAL1*%
X39116000Y-70637400D03*
%TD*%
D13*
%TO.P,H1,1*%
%TO.N,N/C*%
X24130000Y-23622000D03*
D14*
X24130000Y-23622000D03*
%TD*%
D15*
%TO.P,C18,1*%
%TO.N,CODEC_XIN*%
X59055000Y-32856000D03*
%TO.P,C18,2*%
%TO.N,GND*%
X60015000Y-32856000D03*
%TD*%
D16*
%TO.P,R10,1*%
%TO.N,Net-(J10-VIN)*%
X76200000Y-55271400D03*
%TO.P,R10,2*%
%TO.N,Net-(C22-Pad1)*%
X76200000Y-56921400D03*
%TD*%
D17*
%TO.P,C10,1*%
%TO.N,MCU_XTAL1*%
X45364400Y-75748000D03*
%TO.P,C10,2*%
%TO.N,GND*%
X45364400Y-76708000D03*
%TD*%
D18*
%TO.P,C15,1*%
%TO.N,GND*%
X38069400Y-48717200D03*
%TO.P,C15,2*%
%TO.N,VCC_3V3*%
X37109400Y-48717200D03*
%TD*%
D19*
%TO.P,J3,1,Pin_1*%
%TO.N,GND*%
X27686000Y-32512000D03*
D20*
%TO.P,J3,2,Pin_2*%
%TO.N,VCC_3V3*%
X27686000Y-29972000D03*
%TO.P,J3,3,Pin_3*%
%TO.N,VIN_5V*%
X27686000Y-27432000D03*
%TD*%
D21*
%TO.P,R4,1*%
%TO.N,MCU_TXD0*%
X54860000Y-60198000D03*
%TO.P,R4,2*%
%TO.N,Net-(J5-Pin_5)*%
X55880000Y-60198000D03*
%TD*%
%TO.P,R6,1*%
%TO.N,CODEC_GPO7*%
X59484800Y-55245000D03*
%TO.P,R6,2*%
%TO.N,GND*%
X60504800Y-55245000D03*
%TD*%
D22*
%TO.P,J17,1,Pin_1*%
%TO.N,CODEC_CLKOUT*%
X56134000Y-47498000D03*
%TD*%
D21*
%TO.P,R8,1*%
%TO.N,CODEC_RESETB*%
X55624000Y-49784000D03*
%TO.P,R8,2*%
%TO.N,VCC_3V3*%
X56644000Y-49784000D03*
%TD*%
D18*
%TO.P,C8,1*%
%TO.N,VCC_3V3*%
X44113600Y-74168000D03*
%TO.P,C8,2*%
%TO.N,GND*%
X43153600Y-74168000D03*
%TD*%
D23*
%TO.P,TP1,1,1*%
%TO.N,Net-(U2-ADC6)*%
X64617600Y-74117200D03*
%TD*%
D17*
%TO.P,C13,1*%
%TO.N,GND*%
X26670000Y-42164000D03*
%TO.P,C13,2*%
%TO.N,VCC_3V3*%
X26670000Y-43124000D03*
%TD*%
D24*
%TO.P,U2,1,PD3*%
%TO.N,Net-(J4-Pin_3)*%
X48861400Y-70174200D03*
%TO.P,U2,2,PD4*%
%TO.N,Net-(J4-Pin_2)*%
X48861400Y-70974200D03*
%TO.P,U2,3,GND*%
%TO.N,GND*%
X48861400Y-71774200D03*
%TO.P,U2,4,VCC*%
%TO.N,VCC_3V3*%
X48861400Y-72574200D03*
%TO.P,U2,5,GND*%
%TO.N,GND*%
X48861400Y-73374200D03*
%TO.P,U2,6,VCC*%
%TO.N,VCC_3V3*%
X48861400Y-74174200D03*
%TO.P,U2,7,XTAL1/PB6*%
%TO.N,MCU_XTAL1*%
X48861400Y-74974200D03*
%TO.P,U2,8,XTAL2/PB7*%
%TO.N,MCU_XTAL2*%
X48861400Y-75774200D03*
D25*
%TO.P,U2,9,PD5*%
%TO.N,Net-(J12-Pin_4)*%
X50311400Y-77224200D03*
%TO.P,U2,10,PD6*%
%TO.N,Net-(J12-Pin_3)*%
X51111400Y-77224200D03*
%TO.P,U2,11,PD7*%
%TO.N,Net-(J12-Pin_2)*%
X51911400Y-77224200D03*
%TO.P,U2,12,PB0*%
%TO.N,unconnected-(U2-PB0-Pad12)*%
X52711400Y-77224200D03*
%TO.P,U2,13,PB1*%
%TO.N,unconnected-(U2-PB1-Pad13)*%
X53511400Y-77224200D03*
%TO.P,U2,14,PB2*%
%TO.N,unconnected-(U2-PB2-Pad14)*%
X54311400Y-77224200D03*
%TO.P,U2,15,PB3*%
%TO.N,MCU_MOSI*%
X55111400Y-77224200D03*
%TO.P,U2,16,PB4*%
%TO.N,MCU_MISO*%
X55911400Y-77224200D03*
D24*
%TO.P,U2,17,PB5*%
%TO.N,MCU_SCK*%
X57361400Y-75774200D03*
%TO.P,U2,18,AVCC*%
%TO.N,VCC_3V3*%
X57361400Y-74974200D03*
%TO.P,U2,19,ADC6*%
%TO.N,Net-(U2-ADC6)*%
X57361400Y-74174200D03*
%TO.P,U2,20,AREF*%
%TO.N,Net-(U2-AREF)*%
X57361400Y-73374200D03*
%TO.P,U2,21,GND*%
%TO.N,GND*%
X57361400Y-72574200D03*
%TO.P,U2,22,ADC7*%
%TO.N,unconnected-(U2-ADC7-Pad22)*%
X57361400Y-71774200D03*
%TO.P,U2,23,PC0*%
%TO.N,MCU_LED*%
X57361400Y-70974200D03*
%TO.P,U2,24,PC1*%
%TO.N,unconnected-(U2-PC1-Pad24)*%
X57361400Y-70174200D03*
D25*
%TO.P,U2,25,PC2*%
%TO.N,unconnected-(U2-PC2-Pad25)*%
X55911400Y-68724200D03*
%TO.P,U2,26,PC3*%
%TO.N,unconnected-(U2-PC3-Pad26)*%
X55111400Y-68724200D03*
%TO.P,U2,27,PC4*%
%TO.N,MCU_SDA1*%
X54311400Y-68724200D03*
%TO.P,U2,28,PC5*%
%TO.N,MCU_SCL1*%
X53511400Y-68724200D03*
%TO.P,U2,29,~{RESET}/PC6*%
%TO.N,MCU_RST*%
X52711400Y-68724200D03*
%TO.P,U2,30,PD0*%
%TO.N,MCU_RXD0*%
X51911400Y-68724200D03*
%TO.P,U2,31,PD1*%
%TO.N,MCU_TXD0*%
X51111400Y-68724200D03*
%TO.P,U2,32,PD2*%
%TO.N,MCU_INT0*%
X50311400Y-68724200D03*
%TD*%
D19*
%TO.P,J2,1,Pin_1*%
%TO.N,GND*%
X54864000Y-26416000D03*
D20*
%TO.P,J2,2,Pin_2*%
%TO.N,EXTERNAL_IN_I2S_DIN*%
X52324000Y-26416000D03*
%TO.P,J2,3,Pin_3*%
%TO.N,EXTERNAL_IN_I2S_BCLK*%
X49784000Y-26416000D03*
%TO.P,J2,4,Pin_4*%
%TO.N,EXTERNAL_IN_I2S_LRCLK*%
X47244000Y-26416000D03*
%TO.P,J2,5,Pin_5*%
%TO.N,EXTERNAL_IN_I2S_MCLK*%
X44704000Y-26416000D03*
%TD*%
D22*
%TO.P,J15,1,Pin_1*%
%TO.N,CODEC_GPO7*%
X56261000Y-55245000D03*
%TD*%
D26*
%TO.P,C14,1*%
%TO.N,GND*%
X25349200Y-50000000D03*
%TO.P,C14,2*%
%TO.N,VCC_3V3*%
X25349200Y-49040000D03*
%TD*%
D16*
%TO.P,R12,1*%
%TO.N,Net-(C23-Pad2)*%
X72161400Y-61291200D03*
%TO.P,R12,2*%
%TO.N,GND*%
X72161400Y-62941200D03*
%TD*%
D19*
%TO.P,J12,1,Pin_1*%
%TO.N,GND*%
X30480000Y-72390000D03*
D20*
%TO.P,J12,2,Pin_2*%
%TO.N,Net-(J12-Pin_2)*%
X30480000Y-69850000D03*
%TO.P,J12,3,Pin_3*%
%TO.N,Net-(J12-Pin_3)*%
X30480000Y-67310000D03*
%TO.P,J12,4,Pin_4*%
%TO.N,Net-(J12-Pin_4)*%
X30480000Y-64770000D03*
%TD*%
D15*
%TO.P,C4,1*%
%TO.N,VCC_3V3*%
X37874000Y-36195000D03*
%TO.P,C4,2*%
%TO.N,GND*%
X38834000Y-36195000D03*
%TD*%
D27*
%TO.P,R13,1*%
%TO.N,Net-(C23-Pad2)*%
X72212200Y-57150000D03*
%TO.P,R13,2*%
%TO.N,CODEC_OUT_SPDIF_AUDIO_DATA*%
X72212200Y-55500000D03*
%TD*%
D22*
%TO.P,J9,1,Pin_1*%
%TO.N,GND*%
X35687000Y-53975000D03*
D28*
%TO.P,J9,2,Pin_2*%
%TO.N,Net-(J9-Pin_2)*%
X34417000Y-53975000D03*
%TO.P,J9,3,Pin_3*%
%TO.N,CLKGEN_OUT_I2S_MCLK*%
X33147000Y-53975000D03*
%TD*%
D21*
%TO.P,R5,1*%
%TO.N,MCU_RXD0*%
X54860000Y-57912000D03*
%TO.P,R5,2*%
%TO.N,Net-(J5-Pin_4)*%
X55880000Y-57912000D03*
%TD*%
D29*
%TO.P,C23,1*%
%TO.N,Net-(C22-Pad1)*%
X73749400Y-59271400D03*
%TO.P,C23,2*%
%TO.N,Net-(C23-Pad2)*%
X72199400Y-59271400D03*
%TD*%
D30*
%TO.P,R1,1*%
%TO.N,MCU_SDA1*%
X46000000Y-57310000D03*
%TO.P,R1,2*%
%TO.N,VCC_3V3*%
X46000000Y-56290000D03*
%TD*%
D31*
%TO.P,R11,1*%
%TO.N,CODEC_OUT_SPDIF_AUDIO_DATA*%
X70104000Y-53213000D03*
%TO.P,R11,2*%
%TO.N,Net-(J10-VIN)*%
X71754000Y-53213000D03*
%TD*%
D22*
%TO.P,J7,1,Pin_1*%
%TO.N,GND*%
X28702000Y-59944000D03*
D28*
%TO.P,J7,2,Pin_2*%
%TO.N,Net-(J7-Pin_2)*%
X27432000Y-59944000D03*
%TO.P,J7,3,Pin_3*%
%TO.N,EXTERNAL_IN_I2S_BCLK*%
X26162000Y-59944000D03*
%TD*%
D22*
%TO.P,J14,1,Pin_1*%
%TO.N,CODEC_GPO0*%
X46228000Y-47244000D03*
%TD*%
D17*
%TO.P,C11,1*%
%TO.N,MCU_XTAL2*%
X46482000Y-78006000D03*
%TO.P,C11,2*%
%TO.N,GND*%
X46482000Y-78966000D03*
%TD*%
D18*
%TO.P,C5,1*%
%TO.N,GND*%
X27686000Y-36576000D03*
%TO.P,C5,2*%
%TO.N,VCC_3V3*%
X26726000Y-36576000D03*
%TD*%
D19*
%TO.P,J5,1,Pin_1*%
%TO.N,GND*%
X65200000Y-49250000D03*
D20*
%TO.P,J5,2,Pin_2*%
X65200000Y-51790000D03*
%TO.P,J5,3,Pin_3*%
%TO.N,VIN_5V*%
X65200000Y-54330000D03*
%TO.P,J5,4,Pin_4*%
%TO.N,Net-(J5-Pin_4)*%
X65200000Y-56870000D03*
%TO.P,J5,5,Pin_5*%
%TO.N,Net-(J5-Pin_5)*%
X65200000Y-59410000D03*
%TO.P,J5,6,Pin_6*%
%TO.N,Net-(J5-Pin_6)*%
X65200000Y-61950000D03*
%TD*%
D21*
%TO.P,R9,1*%
%TO.N,CODEC_GPO0*%
X44956000Y-49276000D03*
%TO.P,R9,2*%
%TO.N,GND*%
X45976000Y-49276000D03*
%TD*%
D13*
%TO.P,H3,1*%
%TO.N,N/C*%
X24130000Y-77978000D03*
D14*
X24130000Y-77978000D03*
%TD*%
D18*
%TO.P,C16,1*%
%TO.N,GND*%
X38097400Y-46126400D03*
%TO.P,C16,2*%
%TO.N,VCC_3V3*%
X37137400Y-46126400D03*
%TD*%
D32*
%TO.P,J10,1,DETECTOR_1*%
%TO.N,Net-(J10-DETECTOR_1)*%
X73678400Y-27198600D03*
D33*
%TO.P,J10,2,LEFT_CHANNEL*%
%TO.N,Net-(J10-LEFT_CHANNEL)*%
X67628400Y-36498600D03*
%TO.P,J10,3,RIGHT_CHANNEL*%
%TO.N,Net-(J10-RIGHT_CHANNEL)*%
X73678400Y-30598600D03*
%TO.P,J10,4,GND_1*%
%TO.N,GND*%
X67078400Y-30498600D03*
%TO.P,J10,5,DETECTOR_2*%
%TO.N,Net-(J10-DETECTOR_2)*%
X66628400Y-26998600D03*
D34*
%TO.P,J10,6,GND_2*%
%TO.N,Net-(J10-GND_2)*%
X68478400Y-39598600D03*
%TO.P,J10,7,VCC*%
%TO.N,VCC_3V3*%
X70478400Y-39598600D03*
%TO.P,J10,8,VIN*%
%TO.N,Net-(J10-VIN)*%
X72478400Y-39598600D03*
%TD*%
D35*
%TO.P,R3,1*%
%TO.N,VCC_3V3*%
X43200000Y-56290000D03*
%TO.P,R3,2*%
%TO.N,MCU_SCL1*%
X43200000Y-57310000D03*
%TD*%
D26*
%TO.P,C6,1*%
%TO.N,Net-(U2-AREF)*%
X61417200Y-73400800D03*
%TO.P,C6,2*%
%TO.N,GND*%
X61417200Y-72440800D03*
%TD*%
D36*
%TO.P,U1,1,VIN*%
%TO.N,VIN_5V*%
X34798000Y-33528000D03*
%TO.P,U1,2,GND*%
%TO.N,GND*%
X33847999Y-33528000D03*
%TO.P,U1,3,nc*%
%TO.N,unconnected-(U1-nc-Pad3)*%
X32897998Y-33528000D03*
%TO.P,U1,4,nc*%
%TO.N,unconnected-(U1-nc-Pad4)*%
X32897998Y-36258500D03*
%TO.P,U1,5,VOUT*%
%TO.N,VCC_3V3*%
X34798000Y-36258500D03*
%TD*%
D17*
%TO.P,C9,1*%
%TO.N,VCC_3V3*%
X61417200Y-74960600D03*
%TO.P,C9,2*%
%TO.N,GND*%
X61417200Y-75920600D03*
%TD*%
D37*
%TO.P,D1,1,K*%
%TO.N,GND*%
X66441800Y-70942200D03*
%TO.P,D1,2,A*%
%TO.N,Net-(D1-A)*%
X64566800Y-70942200D03*
%TD*%
D26*
%TO.P,C1,1*%
%TO.N,GND*%
X38862000Y-30861000D03*
%TO.P,C1,2*%
%TO.N,VIN_5V*%
X38862000Y-29901000D03*
%TD*%
D18*
%TO.P,C21,1*%
%TO.N,VCC_3V3*%
X70302000Y-44704000D03*
%TO.P,C21,2*%
%TO.N,GND*%
X69342000Y-44704000D03*
%TD*%
D15*
%TO.P,C19,1*%
%TO.N,VCC_3V3*%
X51364000Y-46101000D03*
%TO.P,C19,2*%
%TO.N,GND*%
X52324000Y-46101000D03*
%TD*%
D38*
%TO.P,C22,1*%
%TO.N,Net-(C22-Pad1)*%
X76200000Y-59283600D03*
%TO.P,C22,2*%
%TO.N,GND*%
X76200000Y-60833600D03*
%TD*%
D17*
%TO.P,C17,1*%
%TO.N,CODEC_XOP*%
X58978800Y-42700000D03*
%TO.P,C17,2*%
%TO.N,GND*%
X58978800Y-43660000D03*
%TD*%
D15*
%TO.P,C12,1*%
%TO.N,MCU_RST*%
X54920000Y-62484000D03*
%TO.P,C12,2*%
%TO.N,Net-(J5-Pin_6)*%
X55880000Y-62484000D03*
%TD*%
D39*
%TO.P,U3,1,S0_A0_CLK_SEL*%
%TO.N,Net-(J8-Pin_2)*%
X28412232Y-44827000D03*
%TO.P,U3,2,S1_A1*%
%TO.N,Net-(J8-Pin_3)*%
X28412232Y-45477001D03*
%TO.P,U3,3,VCC*%
%TO.N,VCC_3V3*%
X28412232Y-46126999D03*
%TO.P,U3,4,GND*%
%TO.N,GND*%
X28412232Y-46777001D03*
%TO.P,U3,5,CLK_IN0*%
%TO.N,Net-(J7-Pin_2)*%
X28412232Y-47426999D03*
%TO.P,U3,6,CLK_IN1*%
%TO.N,EXTERNAL_IN_I2S_BCLK*%
X28412232Y-48077001D03*
%TO.P,U3,7,VCC*%
%TO.N,VCC_3V3*%
X28412232Y-48726999D03*
%TO.P,U3,8,GND*%
%TO.N,GND*%
X28412232Y-49377001D03*
%TO.P,U3,9,SDATA*%
%TO.N,MCU_SDA1*%
X28412232Y-50026999D03*
%TO.P,U3,10,SCLOCK*%
%TO.N,MCU_SCL1*%
X28412232Y-50677000D03*
%TO.P,U3,11,Y0*%
%TO.N,CLKGEN_OUT_I2S_MCLK*%
X34163000Y-50677000D03*
%TO.P,U3,12,Y1*%
%TO.N,Net-(J9-Pin_2)*%
X34163000Y-50026999D03*
%TO.P,U3,13,GND*%
%TO.N,GND*%
X34163000Y-49377001D03*
%TO.P,U3,14,VCCOUT1*%
%TO.N,VCC_3V3*%
X34163000Y-48726999D03*
%TO.P,U3,15,Y2*%
%TO.N,unconnected-(U3-Y2-Pad15)*%
X34163000Y-48077001D03*
%TO.P,U3,16,Y3*%
%TO.N,unconnected-(U3-Y3-Pad16)*%
X34163000Y-47426999D03*
%TO.P,U3,17,GND*%
%TO.N,GND*%
X34163000Y-46777001D03*
%TO.P,U3,18,VCCOUT2*%
%TO.N,VCC_3V3*%
X34163000Y-46126999D03*
%TO.P,U3,19,Y4*%
%TO.N,unconnected-(U3-Y4-Pad19)*%
X34163000Y-45477001D03*
%TO.P,U3,20,Y5*%
%TO.N,unconnected-(U3-Y5-Pad20)*%
X34163000Y-44827000D03*
%TD*%
D22*
%TO.P,J13,1,Pin_1*%
%TO.N,Net-(J10-GND_2)*%
X71872000Y-47752000D03*
D28*
%TO.P,J13,2,Pin_2*%
%TO.N,Net-(J10-LEFT_CHANNEL)*%
X73142000Y-47752000D03*
%TO.P,J13,3,Pin_3*%
%TO.N,Net-(J10-DETECTOR_2)*%
X74412000Y-47752000D03*
%TO.P,J13,4,Pin_4*%
%TO.N,Net-(J10-RIGHT_CHANNEL)*%
X75682000Y-47752000D03*
%TO.P,J13,5,Pin_5*%
%TO.N,Net-(J10-DETECTOR_1)*%
X76952000Y-47752000D03*
%TD*%
D22*
%TO.P,J11,1,Pin_1*%
%TO.N,GND*%
X56134000Y-30226000D03*
D28*
%TO.P,J11,2,Pin_2*%
%TO.N,Net-(J11-Pin_2)*%
X56134000Y-31496000D03*
%TD*%
D21*
%TO.P,R2,1*%
%TO.N,MCU_LED*%
X60348400Y-70942200D03*
%TO.P,R2,2*%
%TO.N,Net-(D1-A)*%
X61368400Y-70942200D03*
%TD*%
D19*
%TO.P,J6,1,MISO*%
%TO.N,MCU_MISO*%
X74140000Y-73660000D03*
D20*
%TO.P,J6,2,VCC*%
%TO.N,VIN_5V*%
X71600000Y-73660000D03*
%TO.P,J6,3,SCK*%
%TO.N,MCU_SCK*%
X74140000Y-71120000D03*
%TO.P,J6,4,MOSI*%
%TO.N,MCU_MOSI*%
X71600000Y-71120000D03*
%TO.P,J6,5,~{RST}*%
%TO.N,MCU_RST*%
X74140000Y-68580000D03*
%TO.P,J6,6,GND*%
%TO.N,GND*%
X71600000Y-68580000D03*
%TD*%
D15*
%TO.P,C3,1*%
%TO.N,VIN_5V*%
X37874000Y-33528000D03*
%TO.P,C3,2*%
%TO.N,GND*%
X38834000Y-33528000D03*
%TD*%
D40*
%TO.P,Y2,1,1*%
%TO.N,CODEC_XIN*%
X58978000Y-35696000D03*
%TO.P,Y2,2,2*%
%TO.N,CODEC_XOP*%
X58978000Y-39996000D03*
%TD*%
D19*
%TO.P,J1,1,Pin_1*%
%TO.N,GND*%
X38862000Y-26416000D03*
D20*
%TO.P,J1,2,Pin_2*%
%TO.N,VIN_5V*%
X36322000Y-26416000D03*
%TD*%
D19*
%TO.P,JP1,1,A*%
%TO.N,CLKGEN_OUT_I2S_MCLK*%
X40894000Y-46228000D03*
D20*
%TO.P,JP1,2,C*%
%TO.N,CODEC_IN_I2S_MCLK*%
X40894000Y-43688000D03*
%TO.P,JP1,3,B*%
%TO.N,EXTERNAL_IN_I2S_MCLK*%
X40894000Y-41148000D03*
%TD*%
D41*
%TO.P,U4,1,DVDD*%
%TO.N,VCC_3V3*%
X44584001Y-41300400D03*
%TO.P,U4,2,RX1*%
%TO.N,GND*%
X45234002Y-41300400D03*
%TO.P,U4,3,RX0*%
X45884001Y-41300400D03*
%TO.P,U4,4,SCLK*%
%TO.N,MCU_SCL1*%
X46534002Y-41300400D03*
%TO.P,U4,5,GPO0/SWIFMODE*%
%TO.N,CODEC_GPO0*%
X47184000Y-41300400D03*
%TO.P,U4,6,GPO1*%
%TO.N,MCU_INT0*%
X47834002Y-41300400D03*
%TO.P,U4,7,SDIN/HWMODE*%
%TO.N,MCU_SDA1*%
X48484000Y-41300400D03*
%TO.P,U4,8,SDOUT/GPo7*%
%TO.N,CODEC_GPO7*%
X49133999Y-41300400D03*
%TO.P,U4,9,CSB/GPO2*%
%TO.N,Net-(U4-CSB{slash}GPO2)*%
X49784000Y-41300400D03*
%TO.P,U4,10,RESETB*%
%TO.N,CODEC_RESETB*%
X50433999Y-41300400D03*
%TO.P,U4,11,PVDD*%
%TO.N,VCC_3V3*%
X51084000Y-41300400D03*
%TO.P,U4,12,PGND*%
%TO.N,GND*%
X51733999Y-41300400D03*
%TO.P,U4,13,CLKOUT*%
%TO.N,CODEC_CLKOUT*%
X52384000Y-41300400D03*
%TO.P,U4,14,XOP*%
%TO.N,CODEC_XOP*%
X53033999Y-41300400D03*
%TO.P,U4,15,XIN*%
%TO.N,CODEC_XIN*%
X53034001Y-34036000D03*
%TO.P,U4,16,DOUT*%
%TO.N,Net-(J11-Pin_2)*%
X52384000Y-34036000D03*
%TO.P,U4,17,DIN*%
%TO.N,EXTERNAL_IN_I2S_DIN*%
X51734001Y-34036000D03*
%TO.P,U4,18,BCLK*%
%TO.N,EXTERNAL_IN_I2S_BCLK*%
X51084000Y-34036000D03*
%TO.P,U4,19,LRCLK*%
%TO.N,EXTERNAL_IN_I2S_LRCLK*%
X50434002Y-34036000D03*
%TO.P,U4,20,MCLK*%
%TO.N,CODEC_IN_I2S_MCLK*%
X49784000Y-34036000D03*
%TO.P,U4,21,TX0*%
%TO.N,CODEC_OUT_SPDIF_AUDIO_DATA*%
X49134002Y-34036000D03*
%TO.P,U4,22,RX7/GPO6*%
%TO.N,GND*%
X48484000Y-34036000D03*
%TO.P,U4,23,RX6/GPO5*%
X47834002Y-34036000D03*
%TO.P,U4,24,RX5/GPO4*%
X47184000Y-34036000D03*
%TO.P,U4,25,RX4/GPO3*%
X46534002Y-34036000D03*
%TO.P,U4,26,RX3*%
X45884001Y-34036000D03*
%TO.P,U4,27,RX2*%
X45234002Y-34036000D03*
%TO.P,U4,28,DGND*%
X44584001Y-34036000D03*
%TD*%
D42*
%TO.P,R7,1*%
%TO.N,GND*%
X51564000Y-54356000D03*
%TO.P,R7,2*%
%TO.N,Net-(U4-CSB{slash}GPO2)*%
X50544000Y-54356000D03*
%TD*%
D18*
%TO.P,C20,1*%
%TO.N,GND*%
X45593000Y-43942000D03*
%TO.P,C20,2*%
%TO.N,VCC_3V3*%
X44633000Y-43942000D03*
%TD*%
D26*
%TO.P,C2,1*%
%TO.N,GND*%
X36195000Y-30861000D03*
%TO.P,C2,2*%
%TO.N,VIN_5V*%
X36195000Y-29901000D03*
%TD*%
D18*
%TO.P,C7,1*%
%TO.N,VCC_3V3*%
X44114600Y-72567800D03*
%TO.P,C7,2*%
%TO.N,GND*%
X43154600Y-72567800D03*
%TD*%
D22*
%TO.P,J8,1,Pin_1*%
%TO.N,GND*%
X32766000Y-41656000D03*
D28*
%TO.P,J8,2,Pin_2*%
%TO.N,Net-(J8-Pin_2)*%
X31496000Y-41656000D03*
%TO.P,J8,3,Pin_3*%
%TO.N,Net-(J8-Pin_3)*%
X30226000Y-41656000D03*
%TD*%
D22*
%TO.P,J16,1,Pin_1*%
%TO.N,CODEC_RESETB*%
X52578000Y-49276000D03*
%TD*%
D13*
%TO.P,H2,1*%
%TO.N,N/C*%
X79248000Y-23876000D03*
D14*
X79248000Y-23876000D03*
%TD*%
D13*
%TO.P,H4,1*%
%TO.N,N/C*%
X79248000Y-77978000D03*
D14*
X79248000Y-77978000D03*
%TD*%
D19*
%TO.P,J4,1,Pin_1*%
%TO.N,GND*%
X37719000Y-63500000D03*
D20*
%TO.P,J4,2,Pin_2*%
%TO.N,Net-(J4-Pin_2)*%
X40259000Y-63500000D03*
%TO.P,J4,3,Pin_3*%
%TO.N,Net-(J4-Pin_3)*%
X42799000Y-63500000D03*
%TD*%
D43*
%TO.N,VCC_3V3*%
X43000000Y-69200000D03*
%TO.N,Net-(J7-Pin_2)*%
X24972996Y-47274601D03*
%TO.N,GND*%
X35131587Y-29742939D03*
X25400000Y-51460400D03*
X66471800Y-73126600D03*
X61468000Y-32893000D03*
X45948600Y-73364700D03*
X35890200Y-47218600D03*
X47244000Y-49276000D03*
X67400000Y-44799998D03*
X69596000Y-62865000D03*
X36286078Y-30897431D03*
X59893200Y-76581000D03*
X48006000Y-78994000D03*
X59385200Y-72593200D03*
X25762937Y-46651999D03*
X40107249Y-33166370D03*
X52832000Y-54356000D03*
X42926000Y-76708000D03*
X59004200Y-45034200D03*
X40857824Y-35469176D03*
X39624000Y-48768000D03*
X26600000Y-40640002D03*
X45600000Y-45000018D03*
X52324000Y-44196000D03*
X62484000Y-55245000D03*
X38100000Y-44881800D03*
X45974000Y-71783700D03*
X76200000Y-62484000D03*
D44*
X45974000Y-31000000D03*
D43*
X43027600Y-70891400D03*
%TO.N,VIN_5V*%
X30988000Y-27432000D03*
D44*
X62258500Y-44831000D03*
D43*
%TO.N,VCC_3V3*%
X43200000Y-54737000D03*
X56642000Y-51308000D03*
X43217010Y-51308000D03*
X38326999Y-51307999D03*
X37800000Y-37973008D03*
%TO.N,MCU_RST*%
X63246000Y-64770000D03*
%TO.N,MCU_SCK*%
X70799996Y-77470000D03*
%TO.N,MCU_MOSI*%
X55118000Y-79044800D03*
%TO.N,MCU_SDA1*%
X50800000Y-56388000D03*
X55118000Y-65786000D03*
%TO.N,MCU_SCL1*%
X53480264Y-65824090D03*
X44600000Y-57400006D03*
%TO.N,MCU_RXD0*%
X51943000Y-62230000D03*
X51816000Y-59182000D03*
%TO.N,CODEC_OUT_SPDIF_AUDIO_DATA*%
X54400000Y-41854818D03*
X55626000Y-43992800D03*
%TO.N,MCU_INT0*%
X47498000Y-53086000D03*
X49022000Y-58674000D03*
%TD*%
D45*
%TO.N,Net-(J8-Pin_2)*%
X28412232Y-44827000D02*
X28973000Y-44827000D01*
X28973000Y-44827000D02*
X31496000Y-42304000D01*
X31496000Y-42304000D02*
X31496000Y-41656000D01*
D46*
%TO.N,GND*%
X25349200Y-50000000D02*
X25349200Y-51409600D01*
X25349200Y-51409600D02*
X25400000Y-51460400D01*
D45*
%TO.N,MCU_SCL1*%
X43200000Y-57310000D02*
X33561000Y-57310000D01*
X33561000Y-57310000D02*
X28412232Y-52161232D01*
X28412232Y-52161232D02*
X28412232Y-50677000D01*
%TO.N,MCU_SDA1*%
X44321016Y-59375000D02*
X34356000Y-59375000D01*
X27051000Y-52070000D02*
X27051000Y-50089803D01*
X27113804Y-50026999D02*
X28412232Y-50026999D01*
%TO.N,MCU_SCL1*%
X44600000Y-57200000D02*
X44600000Y-57400006D01*
%TO.N,MCU_SDA1*%
X34356000Y-59375000D02*
X27051000Y-52070000D01*
X46000000Y-57310000D02*
X46000000Y-57696016D01*
%TO.N,MCU_SCL1*%
X43200000Y-57310000D02*
X44509994Y-57310000D01*
%TO.N,MCU_SDA1*%
X27051000Y-50089803D02*
X27113804Y-50026999D01*
%TO.N,MCU_SCL1*%
X44509994Y-57310000D02*
X44600000Y-57400006D01*
%TO.N,MCU_SDA1*%
X46000000Y-57696016D02*
X44321016Y-59375000D01*
D46*
%TO.N,VCC_3V3*%
X45869500Y-56159500D02*
X46000000Y-56290000D01*
X43200000Y-56290000D02*
X43330500Y-56159500D01*
X43330500Y-56159500D02*
X45869500Y-56159500D01*
X44114600Y-72567800D02*
X44114600Y-70314600D01*
X44114600Y-70314600D02*
X43000000Y-69200000D01*
X26203001Y-48726999D02*
X25890000Y-49040000D01*
X25890000Y-49040000D02*
X25349200Y-49040000D01*
%TO.N,GND*%
X28412232Y-49377001D02*
X26800000Y-49377001D01*
X26800000Y-49377001D02*
X26177001Y-50000000D01*
X26177001Y-50000000D02*
X25349200Y-50000000D01*
D45*
%TO.N,Net-(J7-Pin_2)*%
X25125394Y-47426999D02*
X24972996Y-47274601D01*
X28412232Y-47426999D02*
X25125394Y-47426999D01*
D47*
%TO.N,EXTERNAL_IN_I2S_BCLK*%
X23900000Y-48400000D02*
X23900000Y-42100000D01*
X24222999Y-48077001D02*
X23900000Y-48400000D01*
X23900000Y-54500000D02*
X23900000Y-48400000D01*
X28412232Y-48077001D02*
X24222999Y-48077001D01*
X25520000Y-40480000D02*
X24700000Y-41300000D01*
X26162000Y-56762000D02*
X23900000Y-54500000D01*
X23900000Y-42100000D02*
X24700000Y-41300000D01*
D46*
%TO.N,GND*%
X25887939Y-46777001D02*
X25762937Y-46651999D01*
X28412232Y-46777001D02*
X25887939Y-46777001D01*
D47*
%TO.N,EXTERNAL_IN_I2S_BCLK*%
X30480000Y-35600000D02*
X30480000Y-33120000D01*
X30480000Y-35600000D02*
X25600000Y-40480000D01*
X25600000Y-40480000D02*
X25520000Y-40480000D01*
X26162000Y-59944000D02*
X26162000Y-56762000D01*
D46*
%TO.N,GND*%
X26670000Y-42164000D02*
X26670000Y-40710002D01*
X26670000Y-40710002D02*
X26600000Y-40640002D01*
%TO.N,VCC_3V3*%
X26240500Y-43553500D02*
X26670000Y-43124000D01*
X26240500Y-45313983D02*
X26240500Y-43553500D01*
X28412232Y-46126999D02*
X27053516Y-46126999D01*
X27053516Y-46126999D02*
X26240500Y-45313983D01*
D47*
%TO.N,EXTERNAL_IN_I2S_BCLK*%
X30480000Y-33120000D02*
X32664400Y-30935600D01*
X32664400Y-30935600D02*
X32664400Y-24835600D01*
X32664400Y-24835600D02*
X33624000Y-23876000D01*
X33624000Y-23876000D02*
X47244000Y-23876000D01*
X47244000Y-23876000D02*
X49784000Y-26416000D01*
D46*
%TO.N,GND*%
X65200000Y-51790000D02*
X65200000Y-49250000D01*
D45*
%TO.N,Net-(J5-Pin_4)*%
X65200000Y-56870000D02*
X56922000Y-56870000D01*
X56922000Y-56870000D02*
X55880000Y-57912000D01*
%TO.N,Net-(J5-Pin_5)*%
X55880000Y-60198000D02*
X64412000Y-60198000D01*
X64412000Y-60198000D02*
X65200000Y-59410000D01*
%TO.N,Net-(J5-Pin_6)*%
X65200000Y-61950000D02*
X56414000Y-61950000D01*
X56414000Y-61950000D02*
X55880000Y-62484000D01*
%TO.N,Net-(J10-VIN)*%
X71754000Y-53213000D02*
X71754000Y-51180000D01*
X71754000Y-51180000D02*
X69850000Y-49276000D01*
D47*
%TO.N,CODEC_OUT_SPDIF_AUDIO_DATA*%
X54400000Y-40988647D02*
X54400000Y-41854818D01*
X49134002Y-35722649D02*
X54400000Y-40988647D01*
X49134002Y-34036000D02*
X49134002Y-35722649D01*
D46*
X67000000Y-46736000D02*
X58369200Y-46736000D01*
X58369200Y-46736000D02*
X55626000Y-43992800D01*
X70104000Y-53213000D02*
X67800000Y-50909000D01*
X67800000Y-50909000D02*
X67800000Y-47536000D01*
X67800000Y-47536000D02*
X67000000Y-46736000D01*
%TO.N,VIN_5V*%
X65200000Y-54330000D02*
X68000000Y-57130000D01*
X68000000Y-57130000D02*
X68000000Y-70060000D01*
X68000000Y-70060000D02*
X71600000Y-73660000D01*
%TO.N,VCC_3V3*%
X37109400Y-50090400D02*
X38326999Y-51307999D01*
X37109400Y-48717200D02*
X37109400Y-50090400D01*
%TO.N,CODEC_XOP*%
X53033999Y-42211294D02*
X53033999Y-41300400D01*
X58978800Y-42700000D02*
X53522705Y-42700000D01*
X53522705Y-42700000D02*
X53033999Y-42211294D01*
D45*
%TO.N,MCU_SCL1*%
X46534002Y-41300400D02*
X46534002Y-45362014D01*
X46534002Y-45362014D02*
X44175000Y-47721016D01*
X44175000Y-47721016D02*
X44175000Y-51775000D01*
X44175000Y-51775000D02*
X44202008Y-51802008D01*
X44202008Y-51802008D02*
X38790516Y-57213500D01*
%TO.N,MCU_SDA1*%
X48484000Y-56600000D02*
X48484000Y-55753000D01*
X46000000Y-57310000D02*
X47774000Y-57310000D01*
X47774000Y-57310000D02*
X48484000Y-56600000D01*
D46*
%TO.N,VCC_3V3*%
X43200000Y-56290000D02*
X43200000Y-54737000D01*
X44633000Y-43942000D02*
X44633000Y-44251999D01*
X44633000Y-44251999D02*
X43217010Y-45667989D01*
X43217010Y-45667989D02*
X43217010Y-51308000D01*
%TO.N,GND*%
X45593000Y-44993018D02*
X45600000Y-45000018D01*
X45593000Y-43942000D02*
X45593000Y-44993018D01*
X67495998Y-44704000D02*
X67400000Y-44799998D01*
X69342000Y-44704000D02*
X67495998Y-44704000D01*
%TO.N,VCC_3V3*%
X70302000Y-44704000D02*
X70302000Y-39775000D01*
X37806750Y-37966258D02*
X37800000Y-37973008D01*
X37806750Y-36671250D02*
X37806750Y-37966258D01*
X37137400Y-38635608D02*
X37800000Y-37973008D01*
X37137400Y-46126400D02*
X37137400Y-38635608D01*
%TO.N,GND*%
X39745619Y-33528000D02*
X40107249Y-33166370D01*
X33847999Y-33528000D02*
X33847999Y-31026527D01*
X36195000Y-30861000D02*
X36231431Y-30897431D01*
X33847999Y-31026527D02*
X35131587Y-29742939D01*
D47*
%TO.N,EXTERNAL_IN_I2S_MCLK*%
X40894000Y-36567765D02*
X41660224Y-35801541D01*
%TO.N,CODEC_IN_I2S_MCLK*%
X44932894Y-29400000D02*
X42165024Y-32167870D01*
D46*
%TO.N,GND*%
X40132000Y-36195000D02*
X40857824Y-35469176D01*
D47*
%TO.N,CODEC_IN_I2S_MCLK*%
X46667106Y-29400000D02*
X44932894Y-29400000D01*
D46*
%TO.N,VIN_5V*%
X36090878Y-29901000D02*
X36195000Y-29901000D01*
%TO.N,GND*%
X38862000Y-33528000D02*
X39745619Y-33528000D01*
D47*
%TO.N,CODEC_IN_I2S_MCLK*%
X42165024Y-42416976D02*
X40894000Y-43688000D01*
D46*
%TO.N,VIN_5V*%
X34798000Y-33528000D02*
X34798000Y-31193878D01*
D47*
%TO.N,CODEC_IN_I2S_MCLK*%
X42165024Y-32167870D02*
X42165024Y-42416976D01*
%TO.N,EXTERNAL_IN_I2S_MCLK*%
X41660224Y-35801541D02*
X41660224Y-29459776D01*
D46*
%TO.N,VIN_5V*%
X34798000Y-31193878D02*
X36090878Y-29901000D01*
D47*
%TO.N,EXTERNAL_IN_I2S_MCLK*%
X40894000Y-41148000D02*
X40894000Y-36567765D01*
X41660224Y-29459776D02*
X44704000Y-26416000D01*
%TO.N,CODEC_IN_I2S_MCLK*%
X49784000Y-34036000D02*
X49784000Y-32516894D01*
X49784000Y-32516894D02*
X46667106Y-29400000D01*
D46*
%TO.N,GND*%
X36231431Y-30897431D02*
X36286078Y-30897431D01*
X38862000Y-36195000D02*
X40132000Y-36195000D01*
X44584001Y-32389999D02*
X45974000Y-31000000D01*
X44584001Y-34036000D02*
X44584001Y-32389999D01*
X47184000Y-32210000D02*
X45974000Y-31000000D01*
X47184000Y-34036000D02*
X47184000Y-32210000D01*
D45*
%TO.N,MCU_MISO*%
X74140000Y-73660000D02*
X74140000Y-77260000D01*
X74140000Y-77260000D02*
X72800000Y-78600000D01*
X57287200Y-78600000D02*
X55911400Y-77224200D01*
X72800000Y-78600000D02*
X57287200Y-78600000D01*
%TO.N,MCU_SCK*%
X59057200Y-77470000D02*
X70799996Y-77470000D01*
X57361400Y-75774200D02*
X59057200Y-77470000D01*
D46*
%TO.N,GND*%
X39751000Y-30861000D02*
X40005000Y-30607000D01*
X45958100Y-73374200D02*
X48861400Y-73374200D01*
X45983500Y-71774200D02*
X48861400Y-71774200D01*
X45234002Y-42729999D02*
X45234002Y-41300400D01*
X59537600Y-72440800D02*
X59385200Y-72593200D01*
X45165001Y-42799000D02*
X45234002Y-42729999D01*
X52324000Y-44196000D02*
X52324000Y-46101000D01*
X51733999Y-42506900D02*
X51733999Y-41300400D01*
X45593000Y-43942000D02*
X45593000Y-43226999D01*
X59893200Y-76581000D02*
X60756800Y-76581000D01*
X45884001Y-41300400D02*
X45234002Y-41300400D01*
X59004200Y-43685400D02*
X58978800Y-43660000D01*
X76200000Y-60833600D02*
X76200000Y-62484000D01*
X66471800Y-73126600D02*
X66471800Y-70972200D01*
X39624000Y-48768000D02*
X39573200Y-48717200D01*
X34163000Y-46777001D02*
X35448601Y-46777001D01*
X35995000Y-53667000D02*
X35995000Y-49902255D01*
X61417200Y-72440800D02*
X59537600Y-72440800D01*
X48484000Y-34036000D02*
X44584001Y-34036000D01*
X43153600Y-74168000D02*
X43153600Y-72568800D01*
X40005000Y-27559000D02*
X38862000Y-26416000D01*
X54864000Y-28956000D02*
X54864000Y-26416000D01*
X38862000Y-30861000D02*
X39751000Y-30861000D01*
X39573200Y-48717200D02*
X38069400Y-48717200D01*
X35448601Y-46777001D02*
X35890200Y-47218600D01*
X45948600Y-73364700D02*
X45958100Y-73374200D01*
X60756800Y-76581000D02*
X61417200Y-75920600D01*
X59004200Y-45034200D02*
X59004200Y-43685400D01*
X35469746Y-49377001D02*
X34163000Y-49377001D01*
X43154600Y-72567800D02*
X43154600Y-71018400D01*
X57361400Y-72574200D02*
X59366200Y-72574200D01*
X45976000Y-49276000D02*
X47244000Y-49276000D01*
X72161400Y-62941200D02*
X69672200Y-62941200D01*
X38097400Y-46126400D02*
X38097400Y-44884400D01*
X43154600Y-71018400D02*
X43027600Y-70891400D01*
X69113400Y-44475400D02*
X69342000Y-44704000D01*
X51564000Y-54356000D02*
X52832000Y-54356000D01*
X48006000Y-78994000D02*
X46510000Y-78994000D01*
X52324000Y-43096901D02*
X51733999Y-42506900D01*
X66471800Y-70972200D02*
X66441800Y-70942200D01*
X35995000Y-49902255D02*
X35469746Y-49377001D01*
X45593000Y-43226999D02*
X45165001Y-42799000D01*
X45364400Y-76708000D02*
X42926000Y-76708000D01*
X60504800Y-55245000D02*
X62484000Y-55245000D01*
X40005000Y-30607000D02*
X40005000Y-27559000D01*
X61431000Y-32856000D02*
X61468000Y-32893000D01*
X45974000Y-71783700D02*
X45983500Y-71774200D01*
X69672200Y-62941200D02*
X69596000Y-62865000D01*
X38097400Y-44884400D02*
X38100000Y-44881800D01*
X52324000Y-44196000D02*
X52324000Y-43096901D01*
X46510000Y-78994000D02*
X46482000Y-78966000D01*
X60015000Y-32856000D02*
X61431000Y-32856000D01*
X56134000Y-30226000D02*
X54864000Y-28956000D01*
X27686000Y-36576000D02*
X27686000Y-32512000D01*
X59366200Y-72574200D02*
X59385200Y-72593200D01*
X36195000Y-30861000D02*
X38862000Y-30861000D01*
X35687000Y-53975000D02*
X35995000Y-53667000D01*
X43153600Y-72568800D02*
X43154600Y-72567800D01*
%TO.N,VIN_5V*%
X30988000Y-24857100D02*
X30988000Y-27432000D01*
X57470700Y-23333100D02*
X62258500Y-28120900D01*
X62258500Y-28120900D02*
X62258500Y-44831000D01*
X36322000Y-26416000D02*
X36322000Y-29774000D01*
X36195000Y-29901000D02*
X38862000Y-29901000D01*
X32512000Y-23333100D02*
X30988000Y-24857100D01*
X36322000Y-29774000D02*
X36195000Y-29901000D01*
X27686000Y-27432000D02*
X30988000Y-27432000D01*
X37874000Y-33528000D02*
X34798000Y-33528000D01*
X32512000Y-23333100D02*
X57470700Y-23333100D01*
%TO.N,VCC_3V3*%
X44224200Y-72568000D02*
X44116200Y-72460000D01*
X44113600Y-72568800D02*
X44114600Y-72567800D01*
X37137400Y-46126400D02*
X37137400Y-48689200D01*
X61403600Y-74974200D02*
X61417200Y-74960600D01*
X44121000Y-72574200D02*
X44114600Y-72567800D01*
X48861400Y-74174200D02*
X44119800Y-74174200D01*
X37099601Y-48726999D02*
X37109400Y-48717200D01*
X37136801Y-46126999D02*
X37137400Y-46126400D01*
X48861400Y-72574200D02*
X44121000Y-72574200D01*
X25908000Y-29972000D02*
X27686000Y-29972000D01*
X51084000Y-45821000D02*
X51364000Y-46101000D01*
X55505400Y-74174200D02*
X56305400Y-74974200D01*
X48861400Y-74174200D02*
X55505400Y-74174200D01*
X37810500Y-36258500D02*
X37874000Y-36195000D01*
X44113600Y-74168000D02*
X44113600Y-72568800D01*
X44113600Y-72462600D02*
X44116200Y-72460000D01*
X50012600Y-39065200D02*
X51084000Y-40136600D01*
X70302000Y-39775000D02*
X70478400Y-39598600D01*
X51084000Y-41300400D02*
X51084000Y-45821000D01*
X45612701Y-39065200D02*
X50012600Y-39065200D01*
X56642000Y-49786000D02*
X56644000Y-49784000D01*
X44119800Y-74174200D02*
X44113600Y-74168000D01*
X37137400Y-48689200D02*
X37109400Y-48717200D01*
X44584001Y-43893001D02*
X44633000Y-43942000D01*
X28412232Y-48726999D02*
X26203001Y-48726999D01*
X28412232Y-46126999D02*
X34163000Y-46126999D01*
X51084000Y-40136600D02*
X51084000Y-41300400D01*
X56305400Y-74974200D02*
X57361400Y-74974200D01*
X26726000Y-36576000D02*
X25146000Y-34996000D01*
X44584001Y-41300400D02*
X44584001Y-43893001D01*
X44584001Y-41300400D02*
X44584001Y-40093900D01*
X25146000Y-34996000D02*
X25146000Y-30734000D01*
X70302000Y-45013999D02*
X70302000Y-44704000D01*
X34163000Y-48726999D02*
X28412232Y-48726999D01*
X57361400Y-74974200D02*
X61403600Y-74974200D01*
X44584001Y-40093900D02*
X45612701Y-39065200D01*
X34798000Y-36258500D02*
X37810500Y-36258500D01*
X25146000Y-30734000D02*
X25908000Y-29972000D01*
X34163000Y-48726999D02*
X37099601Y-48726999D01*
X34163000Y-46126999D02*
X37136801Y-46126999D01*
X56642000Y-51308000D02*
X56642000Y-49786000D01*
D45*
%TO.N,Net-(U2-AREF)*%
X57361400Y-73374200D02*
X61390600Y-73374200D01*
X61390600Y-73374200D02*
X61417200Y-73400800D01*
D46*
%TO.N,MCU_XTAL1*%
X41859200Y-69392800D02*
X41198800Y-68732400D01*
X46934000Y-75748000D02*
X47707800Y-74974200D01*
X39776400Y-68732400D02*
X39116000Y-69392800D01*
X47707800Y-74974200D02*
X48861400Y-74974200D01*
X41198800Y-68732400D02*
X39776400Y-68732400D01*
X39116000Y-69392800D02*
X39116000Y-70637400D01*
X41859200Y-75641200D02*
X41859200Y-69392800D01*
X42136000Y-75918000D02*
X41859200Y-75641200D01*
X45364400Y-75748000D02*
X46934000Y-75748000D01*
X45364400Y-75918000D02*
X42136000Y-75918000D01*
%TO.N,MCU_XTAL2*%
X39116000Y-76962000D02*
X40160000Y-78006000D01*
X46482000Y-78006000D02*
X46629600Y-78006000D01*
X46629600Y-78006000D02*
X48861400Y-75774200D01*
X39116000Y-76962000D02*
X39116000Y-74904600D01*
X46482000Y-78006000D02*
X40160000Y-78006000D01*
D45*
%TO.N,MCU_RST*%
X54920000Y-64714000D02*
X54864000Y-64770000D01*
X52711400Y-65144600D02*
X52711400Y-68724200D01*
X63246000Y-64770000D02*
X54864000Y-64770000D01*
X54864000Y-64770000D02*
X53086000Y-64770000D01*
X54920000Y-62484000D02*
X54920000Y-64714000D01*
X53086000Y-64770000D02*
X52711400Y-65144600D01*
D46*
%TO.N,CODEC_XOP*%
X58978000Y-39996000D02*
X58978000Y-42699200D01*
X58978000Y-42699200D02*
X58978800Y-42700000D01*
%TO.N,CODEC_XIN*%
X54214001Y-32856000D02*
X53034001Y-34036000D01*
X58978000Y-35696000D02*
X58978000Y-32933000D01*
X58978000Y-32933000D02*
X59055000Y-32856000D01*
X59055000Y-32856000D02*
X54214001Y-32856000D01*
D45*
%TO.N,Net-(C22-Pad1)*%
X76200000Y-59283600D02*
X76200000Y-56921400D01*
X76187800Y-59271400D02*
X76200000Y-59283600D01*
X73749400Y-59271400D02*
X76187800Y-59271400D01*
%TO.N,Net-(D1-A)*%
X64566800Y-70942200D02*
X61368400Y-70942200D01*
D47*
%TO.N,EXTERNAL_IN_I2S_DIN*%
X52324000Y-26416000D02*
X51734001Y-27005999D01*
X51734001Y-27005999D02*
X51734001Y-34036000D01*
%TO.N,EXTERNAL_IN_I2S_BCLK*%
X51084000Y-27716000D02*
X51084000Y-34036000D01*
X49784000Y-26416000D02*
X51084000Y-27716000D01*
%TO.N,EXTERNAL_IN_I2S_LRCLK*%
X47244000Y-26416000D02*
X50434002Y-29606002D01*
X50434002Y-29606002D02*
X50434002Y-34036000D01*
D45*
%TO.N,Net-(J4-Pin_2)*%
X46437800Y-70974200D02*
X48861400Y-70974200D01*
X40259000Y-64795400D02*
X46437800Y-70974200D01*
X40259000Y-63500000D02*
X40259000Y-64795400D01*
%TO.N,Net-(J4-Pin_3)*%
X42799000Y-66167000D02*
X42799000Y-63500000D01*
X48861400Y-70174200D02*
X46806200Y-70174200D01*
X46806200Y-70174200D02*
X42799000Y-66167000D01*
%TO.N,Net-(J7-Pin_2)*%
X28327431Y-47511800D02*
X28412232Y-47426999D01*
%TO.N,Net-(J9-Pin_2)*%
X35390716Y-50026999D02*
X34163000Y-50026999D01*
X35479500Y-50115783D02*
X35390716Y-50026999D01*
X35479500Y-51642500D02*
X35479500Y-50115783D01*
X34417000Y-53975000D02*
X34417000Y-52705000D01*
X34417000Y-52705000D02*
X35479500Y-51642500D01*
D47*
%TO.N,CLKGEN_OUT_I2S_MCLK*%
X37644000Y-56106000D02*
X40894000Y-52856000D01*
X40894000Y-46228000D02*
X40894000Y-52856000D01*
X35278000Y-56106000D02*
X37644000Y-56106000D01*
X33147000Y-53975000D02*
X33147000Y-51693000D01*
X33147000Y-53975000D02*
X35278000Y-56106000D01*
X33147000Y-51693000D02*
X34163000Y-50677000D01*
D45*
%TO.N,Net-(J10-DETECTOR_1)*%
X73617400Y-27241000D02*
X76952000Y-30575600D01*
X76952000Y-47752000D02*
X76952000Y-30575600D01*
%TO.N,Net-(J10-RIGHT_CHANNEL)*%
X73617400Y-30641000D02*
X75682000Y-32705600D01*
X75682000Y-47752000D02*
X75682000Y-32705600D01*
%TO.N,Net-(J10-DETECTOR_2)*%
X74091999Y-36880999D02*
X69215000Y-32004000D01*
X69215000Y-32004000D02*
X69215000Y-29585200D01*
X74412000Y-47752000D02*
X74091999Y-48072001D01*
X74091999Y-48072001D02*
X74091999Y-36880999D01*
X69215000Y-29585200D02*
X66628400Y-26998600D01*
%TO.N,Net-(J10-VIN)*%
X69850000Y-49276000D02*
X69850000Y-46736000D01*
X75565000Y-53213000D02*
X71754000Y-53213000D01*
X69850000Y-46736000D02*
X71374000Y-45212000D01*
X71374000Y-40703000D02*
X72478400Y-39598600D01*
X71374000Y-45212000D02*
X71374000Y-40703000D01*
X76200000Y-55271400D02*
X76200000Y-53848000D01*
X76200000Y-53848000D02*
X75565000Y-53213000D01*
%TO.N,Net-(J11-Pin_2)*%
X53848500Y-31496000D02*
X56134000Y-31496000D01*
X52384000Y-34036000D02*
X52384000Y-32960500D01*
X52384000Y-32960500D02*
X53848500Y-31496000D01*
%TO.N,MCU_MOSI*%
X55118000Y-79044800D02*
X55118000Y-77230800D01*
X55118000Y-77230800D02*
X55111400Y-77224200D01*
%TO.N,MCU_SDA1*%
X48484000Y-55753000D02*
X48484000Y-41300400D01*
X54311400Y-66592600D02*
X54311400Y-68724200D01*
X55118000Y-65786000D02*
X54311400Y-66592600D01*
X50800000Y-56388000D02*
X49149000Y-56388000D01*
X48514000Y-55753000D02*
X48484000Y-55753000D01*
X49149000Y-56388000D02*
X48514000Y-55753000D01*
%TO.N,MCU_LED*%
X57361400Y-70974200D02*
X60316400Y-70974200D01*
X60316400Y-70974200D02*
X60348400Y-70942200D01*
%TO.N,MCU_SCL1*%
X53511400Y-65855226D02*
X53511400Y-68724200D01*
X53480264Y-65824090D02*
X53511400Y-65855226D01*
%TO.N,MCU_TXD0*%
X51111400Y-61664600D02*
X51111400Y-68724200D01*
X52578000Y-60198000D02*
X51111400Y-61664600D01*
X54860000Y-60198000D02*
X52578000Y-60198000D01*
%TO.N,MCU_RXD0*%
X51911400Y-62261600D02*
X51911400Y-68724200D01*
X51943000Y-62230000D02*
X51911400Y-62261600D01*
X51816000Y-59182000D02*
X53086000Y-57912000D01*
X53086000Y-57912000D02*
X54860000Y-57912000D01*
%TO.N,CODEC_GPO0*%
X46228000Y-48004000D02*
X44956000Y-49276000D01*
X46228000Y-47244000D02*
X47184000Y-46288000D01*
X46228000Y-47244000D02*
X46228000Y-48004000D01*
X47184000Y-46288000D02*
X47184000Y-41300400D01*
D46*
%TO.N,CODEC_GPO7*%
X49401000Y-55245000D02*
X56261000Y-55245000D01*
X49133999Y-41300400D02*
X49133999Y-54977999D01*
X49133999Y-54977999D02*
X49401000Y-55245000D01*
X56261000Y-55245000D02*
X59484800Y-55245000D01*
%TO.N,Net-(U4-CSB{slash}GPO2)*%
X50544000Y-54356000D02*
X49784000Y-53596000D01*
X49784000Y-53596000D02*
X49784000Y-41300400D01*
D45*
%TO.N,CODEC_RESETB*%
X54610000Y-49784000D02*
X55624000Y-49784000D01*
X52578000Y-49276000D02*
X54102000Y-49276000D01*
X54102000Y-49276000D02*
X54610000Y-49784000D01*
X50433999Y-49276000D02*
X50433999Y-41300400D01*
X52451000Y-49276000D02*
X50433999Y-49276000D01*
D46*
%TO.N,CODEC_OUT_SPDIF_AUDIO_DATA*%
X72212200Y-55500000D02*
X70740000Y-55500000D01*
X70740000Y-55500000D02*
X70104000Y-54864000D01*
X70104000Y-54864000D02*
X70104000Y-53213000D01*
D45*
%TO.N,Net-(U2-ADC6)*%
X64560600Y-74174200D02*
X64617600Y-74117200D01*
X57361400Y-74174200D02*
X64560600Y-74174200D01*
%TO.N,MCU_INT0*%
X47498000Y-53086000D02*
X48034000Y-52550000D01*
X49022000Y-58674000D02*
X49022000Y-67434800D01*
X49022000Y-67434800D02*
X50311400Y-68724200D01*
X48034000Y-52550000D02*
X48034000Y-42450900D01*
X47834002Y-42250902D02*
X47834002Y-41300400D01*
X48034000Y-42450900D02*
X47834002Y-42250902D01*
%TO.N,CODEC_CLKOUT*%
X56134000Y-46113000D02*
X52384000Y-42363000D01*
X52384000Y-42363000D02*
X52384000Y-41300400D01*
X56134000Y-47498000D02*
X56134000Y-46113000D01*
%TO.N,Net-(C23-Pad2)*%
X72199400Y-57162800D02*
X72212200Y-57150000D01*
X72199400Y-59271400D02*
X72199400Y-57162800D01*
X72199400Y-61253200D02*
X72161400Y-61291200D01*
X72199400Y-59271400D02*
X72199400Y-61253200D01*
%TO.N,Net-(J8-Pin_3)*%
X26924000Y-45176867D02*
X26924000Y-44250894D01*
X28412232Y-45477001D02*
X27224134Y-45477001D01*
X26924000Y-44250894D02*
X29518894Y-41656000D01*
X27224134Y-45477001D02*
X26924000Y-45176867D01*
X29518894Y-41656000D02*
X30226000Y-41656000D01*
%TO.N,Net-(J12-Pin_4)*%
X49549400Y-79756000D02*
X39878000Y-79756000D01*
X39878000Y-79756000D02*
X36322000Y-76200000D01*
X36322000Y-76200000D02*
X36322000Y-70612000D01*
X36322000Y-70612000D02*
X30480000Y-64770000D01*
X50311400Y-77224200D02*
X50311400Y-78994000D01*
X50311400Y-78994000D02*
X49549400Y-79756000D01*
%TO.N,Net-(J12-Pin_3)*%
X35560000Y-76454000D02*
X35560000Y-72390000D01*
X50153400Y-80206000D02*
X39312000Y-80206000D01*
X51111400Y-77224200D02*
X51111400Y-79248000D01*
X51111400Y-79248000D02*
X50153400Y-80206000D01*
X35560000Y-72390000D02*
X30480000Y-67310000D01*
X39312000Y-80206000D02*
X35560000Y-76454000D01*
%TO.N,Net-(J12-Pin_2)*%
X50438200Y-80721200D02*
X51911400Y-79248000D01*
X39065200Y-80721200D02*
X50438200Y-80721200D01*
X30480000Y-69850000D02*
X34798000Y-74168000D01*
X34798000Y-74168000D02*
X34798000Y-76454000D01*
X51911400Y-79248000D02*
X51911400Y-77224200D01*
X34798000Y-76454000D02*
X39065200Y-80721200D01*
%TO.N,Net-(J10-LEFT_CHANNEL)*%
X73641999Y-38843999D02*
X71296600Y-36498600D01*
X73641999Y-47252001D02*
X73641999Y-38843999D01*
X73142000Y-47752000D02*
X73641999Y-47252001D01*
X71296600Y-36498600D02*
X67628400Y-36498600D01*
%TD*%
M02*
