%TF.GenerationSoftware,KiCad,Pcbnew,7.0.11-1-dev-0f715223e9*%
%TF.CreationDate,2024-01-18T09:50:59-08:00*%
%TF.ProjectId,i2s_to_toslink_pcb,6932735f-746f-45f7-946f-736c696e6b5f,rev?*%
%TF.SameCoordinates,Original*%
%TF.FileFunction,Drillmap*%
%TF.FilePolarity,Positive*%
%FSLAX45Y45*%
G04 Gerber Fmt 4.5, Leading zero omitted, Abs format (unit mm)*
G04 Created by KiCad (PCBNEW 7.0.11-1-dev-0f715223e9) date 2024-01-18 09:50:59*
%MOMM*%
%LPD*%
G01*
G04 APERTURE LIST*
%ADD10C,0.100000*%
%ADD11C,0.200000*%
%ADD12C,0.170000*%
%ADD13C,0.220000*%
G04 APERTURE END LIST*
D10*
X2082800Y-2032000D02*
X8229600Y-2032000D01*
X8229600Y-8204200D01*
X2082800Y-8204200D01*
X2082800Y-2032000D01*
D11*
D10*
X2477300Y-4707460D02*
X2517300Y-4747460D01*
X2517300Y-4707460D02*
X2477300Y-4747460D01*
X2520000Y-5126040D02*
X2560000Y-5166040D01*
X2560000Y-5126040D02*
X2520000Y-5166040D01*
X2556294Y-4645200D02*
X2596294Y-4685200D01*
X2596294Y-4645200D02*
X2556294Y-4685200D01*
X2640000Y-4044000D02*
X2680000Y-4084000D01*
X2680000Y-4044000D02*
X2640000Y-4084000D01*
X3078800Y-2723200D02*
X3118800Y-2763200D01*
X3118800Y-2723200D02*
X3078800Y-2763200D01*
X3493159Y-2954294D02*
X3533159Y-2994294D01*
X3533159Y-2954294D02*
X3493159Y-2994294D01*
X3569020Y-4701860D02*
X3609020Y-4741860D01*
X3609020Y-4701860D02*
X3569020Y-4741860D01*
X3608608Y-3069743D02*
X3648608Y-3109743D01*
X3648608Y-3069743D02*
X3608608Y-3109743D01*
X3760000Y-3777301D02*
X3800000Y-3817301D01*
X3800000Y-3777301D02*
X3760000Y-3817301D01*
X3790000Y-4468180D02*
X3830000Y-4508180D01*
X3830000Y-4468180D02*
X3790000Y-4508180D01*
X3812700Y-5110800D02*
X3852700Y-5150800D01*
X3852700Y-5110800D02*
X3812700Y-5150800D01*
X3942400Y-4856800D02*
X3982400Y-4896800D01*
X3982400Y-4856800D02*
X3942400Y-4896800D01*
X3990725Y-3296637D02*
X4030725Y-3336637D01*
X4030725Y-3296637D02*
X3990725Y-3336637D01*
X4065782Y-3526918D02*
X4105782Y-3566918D01*
X4105782Y-3526918D02*
X4065782Y-3566918D01*
X4272600Y-7650800D02*
X4312600Y-7690800D01*
X4312600Y-7650800D02*
X4272600Y-7690800D01*
X4280000Y-6900000D02*
X4320000Y-6940000D01*
X4320000Y-6900000D02*
X4280000Y-6940000D01*
X4282760Y-7069140D02*
X4322760Y-7109140D01*
X4322760Y-7069140D02*
X4282760Y-7109140D01*
X4300000Y-5453700D02*
X4340000Y-5493700D01*
X4340000Y-5453700D02*
X4300000Y-5493700D01*
X4301701Y-5110800D02*
X4341701Y-5150800D01*
X4341701Y-5110800D02*
X4301701Y-5150800D01*
X4440000Y-5720001D02*
X4480000Y-5760001D01*
X4480000Y-5720001D02*
X4440000Y-5760001D01*
X4540000Y-4480002D02*
X4580000Y-4520002D01*
X4580000Y-4480002D02*
X4540000Y-4520002D01*
X4574860Y-7316470D02*
X4614860Y-7356470D01*
X4614860Y-7316470D02*
X4574860Y-7356470D01*
X4577400Y-7158370D02*
X4617400Y-7198370D01*
X4617400Y-7158370D02*
X4577400Y-7198370D01*
X4704400Y-4907600D02*
X4744400Y-4947600D01*
X4744400Y-4907600D02*
X4704400Y-4947600D01*
X4729800Y-5288600D02*
X4769800Y-5328600D01*
X4769800Y-5288600D02*
X4729800Y-5328600D01*
X4780600Y-7879400D02*
X4820600Y-7919400D01*
X4820600Y-7879400D02*
X4780600Y-7919400D01*
X4882200Y-5847400D02*
X4922200Y-5887400D01*
X4922200Y-5847400D02*
X4882200Y-5887400D01*
X5060000Y-5618800D02*
X5100000Y-5658800D01*
X5100000Y-5618800D02*
X5060000Y-5658800D01*
X5161600Y-5898200D02*
X5201600Y-5938200D01*
X5201600Y-5898200D02*
X5161600Y-5938200D01*
X5174300Y-6203000D02*
X5214300Y-6243000D01*
X5214300Y-6203000D02*
X5174300Y-6243000D01*
X5212400Y-4399600D02*
X5252400Y-4439600D01*
X5252400Y-4399600D02*
X5212400Y-4439600D01*
X5263200Y-5415600D02*
X5303200Y-5455600D01*
X5303200Y-5415600D02*
X5263200Y-5455600D01*
X5328026Y-6562409D02*
X5368026Y-6602409D01*
X5368026Y-6562409D02*
X5328026Y-6602409D01*
X5420000Y-4165482D02*
X5460000Y-4205482D01*
X5460000Y-4165482D02*
X5420000Y-4205482D01*
X5491800Y-6558600D02*
X5531800Y-6598600D01*
X5531800Y-6558600D02*
X5491800Y-6598600D01*
X5491800Y-7884480D02*
X5531800Y-7924480D01*
X5531800Y-7884480D02*
X5491800Y-7924480D01*
X5542600Y-4379280D02*
X5582600Y-4419280D01*
X5582600Y-4379280D02*
X5542600Y-4419280D01*
X5644200Y-5110800D02*
X5684200Y-5150800D01*
X5684200Y-5110800D02*
X5644200Y-5150800D01*
X5880420Y-4483420D02*
X5920420Y-4523420D01*
X5920420Y-4483420D02*
X5880420Y-4523420D01*
X5918520Y-7239320D02*
X5958520Y-7279320D01*
X5958520Y-7239320D02*
X5918520Y-7279320D01*
X5969320Y-7638100D02*
X6009320Y-7678100D01*
X6009320Y-7638100D02*
X5969320Y-7678100D01*
X6126800Y-3269300D02*
X6166800Y-3309300D01*
X6166800Y-3269300D02*
X6126800Y-3309300D01*
X6228400Y-5504500D02*
X6268400Y-5544500D01*
X6268400Y-5504500D02*
X6228400Y-5544500D01*
X6304600Y-6457000D02*
X6344600Y-6497000D01*
X6344600Y-6457000D02*
X6304600Y-6497000D01*
X6627180Y-7292660D02*
X6667180Y-7332660D01*
X6667180Y-7292660D02*
X6627180Y-7332660D01*
X6720000Y-4460000D02*
X6760000Y-4500000D01*
X6760000Y-4460000D02*
X6720000Y-4500000D01*
X6939600Y-6266500D02*
X6979600Y-6306500D01*
X6979600Y-6266500D02*
X6939600Y-6306500D01*
X7060000Y-7727000D02*
X7100000Y-7767000D01*
X7100000Y-7727000D02*
X7060000Y-7767000D01*
X7600000Y-6228400D02*
X7640000Y-6268400D01*
X7640000Y-6228400D02*
X7600000Y-6268400D01*
X4629150Y-3100000D02*
G75*
G03*
X4565650Y-3100000I-31750J0D01*
G01*
X4565650Y-3100000D02*
G75*
G03*
X4629150Y-3100000I31750J0D01*
G01*
X6257600Y-4483100D02*
G75*
G03*
X6194100Y-4483100I-31750J0D01*
G01*
X6194100Y-4483100D02*
G75*
G03*
X6257600Y-4483100I31750J0D01*
G01*
X2616200Y-5961900D02*
X2616200Y-6026900D01*
X2583700Y-5994400D02*
X2648700Y-5994400D01*
X2743200Y-5961900D02*
X2743200Y-6026900D01*
X2710700Y-5994400D02*
X2775700Y-5994400D01*
X2870200Y-5961900D02*
X2870200Y-6026900D01*
X2837700Y-5994400D02*
X2902700Y-5994400D01*
X3022600Y-4133100D02*
X3022600Y-4198100D01*
X2990100Y-4165600D02*
X3055100Y-4165600D01*
X3149600Y-4133100D02*
X3149600Y-4198100D01*
X3117100Y-4165600D02*
X3182100Y-4165600D01*
X3276600Y-4133100D02*
X3276600Y-4198100D01*
X3244100Y-4165600D02*
X3309100Y-4165600D01*
X3314700Y-5365000D02*
X3314700Y-5430000D01*
X3282200Y-5397500D02*
X3347200Y-5397500D01*
X3441700Y-5365000D02*
X3441700Y-5430000D01*
X3409200Y-5397500D02*
X3474200Y-5397500D01*
X3568700Y-5365000D02*
X3568700Y-5430000D01*
X3536200Y-5397500D02*
X3601200Y-5397500D01*
X4622800Y-4691900D02*
X4622800Y-4756900D01*
X4590300Y-4724400D02*
X4655300Y-4724400D01*
X5257800Y-4895100D02*
X5257800Y-4960100D01*
X5225300Y-4927600D02*
X5290300Y-4927600D01*
X5613400Y-2990100D02*
X5613400Y-3055100D01*
X5580900Y-3022600D02*
X5645900Y-3022600D01*
X5613400Y-3117100D02*
X5613400Y-3182100D01*
X5580900Y-3149600D02*
X5645900Y-3149600D01*
X5613400Y-4717300D02*
X5613400Y-4782300D01*
X5580900Y-4749800D02*
X5645900Y-4749800D01*
X5626100Y-5492000D02*
X5626100Y-5557000D01*
X5593600Y-5524500D02*
X5658600Y-5524500D01*
X7187200Y-4742700D02*
X7187200Y-4807700D01*
X7154700Y-4775200D02*
X7219700Y-4775200D01*
X7314200Y-4742700D02*
X7314200Y-4807700D01*
X7281700Y-4775200D02*
X7346700Y-4775200D01*
X7441200Y-4742700D02*
X7441200Y-4807700D01*
X7408700Y-4775200D02*
X7473700Y-4775200D01*
X7568200Y-4742700D02*
X7568200Y-4807700D01*
X7535700Y-4775200D02*
X7600700Y-4775200D01*
X7695200Y-4742700D02*
X7695200Y-4807700D01*
X7662700Y-4775200D02*
X7727700Y-4775200D01*
X6881074Y-3993094D02*
X6881074Y-3926626D01*
X6814606Y-3926626D01*
X6814606Y-3993094D01*
X6881074Y-3993094D01*
X7081074Y-3993094D02*
X7081074Y-3926626D01*
X7014606Y-3926626D01*
X7014606Y-3993094D01*
X7081074Y-3993094D01*
X7281074Y-3993094D02*
X7281074Y-3926626D01*
X7214606Y-3926626D01*
X7214606Y-3993094D01*
X7281074Y-3993094D01*
X2768600Y-2793200D02*
X2818600Y-2743200D01*
X2768600Y-2693200D01*
X2718600Y-2743200D01*
X2768600Y-2793200D01*
X2768600Y-3047200D02*
X2818600Y-2997200D01*
X2768600Y-2947200D01*
X2718600Y-2997200D01*
X2768600Y-3047200D01*
X2768600Y-3301200D02*
X2818600Y-3251200D01*
X2768600Y-3201200D01*
X2718600Y-3251200D01*
X2768600Y-3301200D01*
X3048000Y-6527000D02*
X3098000Y-6477000D01*
X3048000Y-6427000D01*
X2998000Y-6477000D01*
X3048000Y-6527000D01*
X3048000Y-6781000D02*
X3098000Y-6731000D01*
X3048000Y-6681000D01*
X2998000Y-6731000D01*
X3048000Y-6781000D01*
X3048000Y-7035000D02*
X3098000Y-6985000D01*
X3048000Y-6935000D01*
X2998000Y-6985000D01*
X3048000Y-7035000D01*
X3048000Y-7289000D02*
X3098000Y-7239000D01*
X3048000Y-7189000D01*
X2998000Y-7239000D01*
X3048000Y-7289000D01*
X3632200Y-2691600D02*
X3682200Y-2641600D01*
X3632200Y-2591600D01*
X3582200Y-2641600D01*
X3632200Y-2691600D01*
X3771900Y-6400000D02*
X3821900Y-6350000D01*
X3771900Y-6300000D01*
X3721900Y-6350000D01*
X3771900Y-6400000D01*
X3886200Y-2691600D02*
X3936200Y-2641600D01*
X3886200Y-2591600D01*
X3836200Y-2641600D01*
X3886200Y-2691600D01*
X4025900Y-6400000D02*
X4075900Y-6350000D01*
X4025900Y-6300000D01*
X3975900Y-6350000D01*
X4025900Y-6400000D01*
X4089400Y-4164800D02*
X4139400Y-4114800D01*
X4089400Y-4064800D01*
X4039400Y-4114800D01*
X4089400Y-4164800D01*
X4089400Y-4418800D02*
X4139400Y-4368800D01*
X4089400Y-4318800D01*
X4039400Y-4368800D01*
X4089400Y-4418800D01*
X4089400Y-4672800D02*
X4139400Y-4622800D01*
X4089400Y-4572800D01*
X4039400Y-4622800D01*
X4089400Y-4672800D01*
X4279900Y-6400000D02*
X4329900Y-6350000D01*
X4279900Y-6300000D01*
X4229900Y-6350000D01*
X4279900Y-6400000D01*
X4470400Y-2691600D02*
X4520400Y-2641600D01*
X4470400Y-2591600D01*
X4420400Y-2641600D01*
X4470400Y-2691600D01*
X4724400Y-2691600D02*
X4774400Y-2641600D01*
X4724400Y-2591600D01*
X4674400Y-2641600D01*
X4724400Y-2691600D01*
X4978400Y-2691600D02*
X5028400Y-2641600D01*
X4978400Y-2591600D01*
X4928400Y-2641600D01*
X4978400Y-2691600D01*
X5232400Y-2691600D02*
X5282400Y-2641600D01*
X5232400Y-2591600D01*
X5182400Y-2641600D01*
X5232400Y-2691600D01*
X5486400Y-2691600D02*
X5536400Y-2641600D01*
X5486400Y-2591600D01*
X5436400Y-2641600D01*
X5486400Y-2691600D01*
X6520000Y-4975000D02*
X6570000Y-4925000D01*
X6520000Y-4875000D01*
X6470000Y-4925000D01*
X6520000Y-4975000D01*
X6520000Y-5229000D02*
X6570000Y-5179000D01*
X6520000Y-5129000D01*
X6470000Y-5179000D01*
X6520000Y-5229000D01*
X6520000Y-5483000D02*
X6570000Y-5433000D01*
X6520000Y-5383000D01*
X6470000Y-5433000D01*
X6520000Y-5483000D01*
X6520000Y-5737000D02*
X6570000Y-5687000D01*
X6520000Y-5637000D01*
X6470000Y-5687000D01*
X6520000Y-5737000D01*
X6520000Y-5991000D02*
X6570000Y-5941000D01*
X6520000Y-5891000D01*
X6470000Y-5941000D01*
X6520000Y-5991000D01*
X6520000Y-6245000D02*
X6570000Y-6195000D01*
X6520000Y-6145000D01*
X6470000Y-6195000D01*
X6520000Y-6245000D01*
X7160000Y-6908000D02*
X7210000Y-6858000D01*
X7160000Y-6808000D01*
X7110000Y-6858000D01*
X7160000Y-6908000D01*
X7160000Y-7162000D02*
X7210000Y-7112000D01*
X7160000Y-7062000D01*
X7110000Y-7112000D01*
X7160000Y-7162000D01*
X7160000Y-7416000D02*
X7210000Y-7366000D01*
X7160000Y-7316000D01*
X7110000Y-7366000D01*
X7160000Y-7416000D01*
X7414000Y-6908000D02*
X7464000Y-6858000D01*
X7414000Y-6808000D01*
X7364000Y-6858000D01*
X7414000Y-6908000D01*
X7414000Y-7162000D02*
X7464000Y-7112000D01*
X7414000Y-7062000D01*
X7364000Y-7112000D01*
X7414000Y-7162000D01*
X7414000Y-7416000D02*
X7464000Y-7366000D01*
X7414000Y-7316000D01*
X7364000Y-7366000D01*
X7414000Y-7416000D01*
D12*
X6577840Y-2614860D02*
X6747840Y-2784860D01*
X6747840Y-2614860D02*
X6577840Y-2784860D01*
X6747840Y-2699860D02*
G75*
G03*
X6577840Y-2699860I-85000J0D01*
G01*
X6577840Y-2699860D02*
G75*
G03*
X6747840Y-2699860I85000J0D01*
G01*
X6622840Y-2964860D02*
X6792840Y-3134860D01*
X6792840Y-2964860D02*
X6622840Y-3134860D01*
X6792840Y-3049860D02*
G75*
G03*
X6622840Y-3049860I-85000J0D01*
G01*
X6622840Y-3049860D02*
G75*
G03*
X6792840Y-3049860I85000J0D01*
G01*
X6677840Y-3564860D02*
X6847840Y-3734860D01*
X6847840Y-3564860D02*
X6677840Y-3734860D01*
X6847840Y-3649860D02*
G75*
G03*
X6677840Y-3649860I-85000J0D01*
G01*
X6677840Y-3649860D02*
G75*
G03*
X6847840Y-3649860I85000J0D01*
G01*
X7282840Y-2634860D02*
X7452840Y-2804860D01*
X7452840Y-2634860D02*
X7282840Y-2804860D01*
X7452840Y-2719860D02*
G75*
G03*
X7282840Y-2719860I-85000J0D01*
G01*
X7282840Y-2719860D02*
G75*
G03*
X7452840Y-2719860I85000J0D01*
G01*
X7282840Y-2974860D02*
X7452840Y-3144860D01*
X7452840Y-2974860D02*
X7282840Y-3144860D01*
X7452840Y-3059860D02*
G75*
G03*
X7282840Y-3059860I-85000J0D01*
G01*
X7282840Y-3059860D02*
G75*
G03*
X7452840Y-3059860I85000J0D01*
G01*
D13*
X2303000Y-2252200D02*
X2523000Y-2472200D01*
X2523000Y-2252200D02*
X2303000Y-2472200D01*
X2413000Y-2252200D02*
X2413000Y-2472200D01*
X2303000Y-2362200D02*
X2523000Y-2362200D01*
X2303000Y-7687800D02*
X2523000Y-7907800D01*
X2523000Y-7687800D02*
X2303000Y-7907800D01*
X2413000Y-7687800D02*
X2413000Y-7907800D01*
X2303000Y-7797800D02*
X2523000Y-7797800D01*
X7814800Y-2277600D02*
X8034800Y-2497600D01*
X8034800Y-2277600D02*
X7814800Y-2497600D01*
X7924800Y-2277600D02*
X7924800Y-2497600D01*
X7814800Y-2387600D02*
X8034800Y-2387600D01*
X7814800Y-7687800D02*
X8034800Y-7907800D01*
X8034800Y-7687800D02*
X7814800Y-7907800D01*
X7924800Y-7687800D02*
X7924800Y-7907800D01*
X7814800Y-7797800D02*
X8034800Y-7797800D01*
D11*
X2338577Y-8520684D02*
X2338577Y-8320684D01*
X2338577Y-8320684D02*
X2386196Y-8320684D01*
X2386196Y-8320684D02*
X2414767Y-8330208D01*
X2414767Y-8330208D02*
X2433815Y-8349255D01*
X2433815Y-8349255D02*
X2443339Y-8368303D01*
X2443339Y-8368303D02*
X2452863Y-8406398D01*
X2452863Y-8406398D02*
X2452863Y-8434970D01*
X2452863Y-8434970D02*
X2443339Y-8473065D01*
X2443339Y-8473065D02*
X2433815Y-8492112D01*
X2433815Y-8492112D02*
X2414767Y-8511160D01*
X2414767Y-8511160D02*
X2386196Y-8520684D01*
X2386196Y-8520684D02*
X2338577Y-8520684D01*
X2538577Y-8520684D02*
X2538577Y-8387350D01*
X2538577Y-8425446D02*
X2548101Y-8406398D01*
X2548101Y-8406398D02*
X2557624Y-8396874D01*
X2557624Y-8396874D02*
X2576672Y-8387350D01*
X2576672Y-8387350D02*
X2595720Y-8387350D01*
X2662386Y-8520684D02*
X2662386Y-8387350D01*
X2662386Y-8320684D02*
X2652863Y-8330208D01*
X2652863Y-8330208D02*
X2662386Y-8339731D01*
X2662386Y-8339731D02*
X2671910Y-8330208D01*
X2671910Y-8330208D02*
X2662386Y-8320684D01*
X2662386Y-8320684D02*
X2662386Y-8339731D01*
X2786196Y-8520684D02*
X2767148Y-8511160D01*
X2767148Y-8511160D02*
X2757624Y-8492112D01*
X2757624Y-8492112D02*
X2757624Y-8320684D01*
X2890958Y-8520684D02*
X2871910Y-8511160D01*
X2871910Y-8511160D02*
X2862386Y-8492112D01*
X2862386Y-8492112D02*
X2862386Y-8320684D01*
X3119529Y-8520684D02*
X3119529Y-8320684D01*
X3119529Y-8320684D02*
X3186196Y-8463541D01*
X3186196Y-8463541D02*
X3252862Y-8320684D01*
X3252862Y-8320684D02*
X3252862Y-8520684D01*
X3433815Y-8520684D02*
X3433815Y-8415922D01*
X3433815Y-8415922D02*
X3424291Y-8396874D01*
X3424291Y-8396874D02*
X3405243Y-8387350D01*
X3405243Y-8387350D02*
X3367148Y-8387350D01*
X3367148Y-8387350D02*
X3348101Y-8396874D01*
X3433815Y-8511160D02*
X3414767Y-8520684D01*
X3414767Y-8520684D02*
X3367148Y-8520684D01*
X3367148Y-8520684D02*
X3348101Y-8511160D01*
X3348101Y-8511160D02*
X3338577Y-8492112D01*
X3338577Y-8492112D02*
X3338577Y-8473065D01*
X3338577Y-8473065D02*
X3348101Y-8454017D01*
X3348101Y-8454017D02*
X3367148Y-8444493D01*
X3367148Y-8444493D02*
X3414767Y-8444493D01*
X3414767Y-8444493D02*
X3433815Y-8434970D01*
X3529053Y-8387350D02*
X3529053Y-8587350D01*
X3529053Y-8396874D02*
X3548101Y-8387350D01*
X3548101Y-8387350D02*
X3586196Y-8387350D01*
X3586196Y-8387350D02*
X3605243Y-8396874D01*
X3605243Y-8396874D02*
X3614767Y-8406398D01*
X3614767Y-8406398D02*
X3624291Y-8425446D01*
X3624291Y-8425446D02*
X3624291Y-8482589D01*
X3624291Y-8482589D02*
X3614767Y-8501636D01*
X3614767Y-8501636D02*
X3605243Y-8511160D01*
X3605243Y-8511160D02*
X3586196Y-8520684D01*
X3586196Y-8520684D02*
X3548101Y-8520684D01*
X3548101Y-8520684D02*
X3529053Y-8511160D01*
X3710005Y-8501636D02*
X3719529Y-8511160D01*
X3719529Y-8511160D02*
X3710005Y-8520684D01*
X3710005Y-8520684D02*
X3700482Y-8511160D01*
X3700482Y-8511160D02*
X3710005Y-8501636D01*
X3710005Y-8501636D02*
X3710005Y-8520684D01*
X3710005Y-8396874D02*
X3719529Y-8406398D01*
X3719529Y-8406398D02*
X3710005Y-8415922D01*
X3710005Y-8415922D02*
X3700482Y-8406398D01*
X3700482Y-8406398D02*
X3710005Y-8396874D01*
X3710005Y-8396874D02*
X3710005Y-8415922D01*
D10*
X2037800Y-8829200D02*
X2077800Y-8869200D01*
X2077800Y-8829200D02*
X2037800Y-8869200D01*
D11*
X2376672Y-8740684D02*
X2395720Y-8740684D01*
X2395720Y-8740684D02*
X2414767Y-8750208D01*
X2414767Y-8750208D02*
X2424291Y-8759731D01*
X2424291Y-8759731D02*
X2433815Y-8778779D01*
X2433815Y-8778779D02*
X2443339Y-8816874D01*
X2443339Y-8816874D02*
X2443339Y-8864493D01*
X2443339Y-8864493D02*
X2433815Y-8902589D01*
X2433815Y-8902589D02*
X2424291Y-8921636D01*
X2424291Y-8921636D02*
X2414767Y-8931160D01*
X2414767Y-8931160D02*
X2395720Y-8940684D01*
X2395720Y-8940684D02*
X2376672Y-8940684D01*
X2376672Y-8940684D02*
X2357624Y-8931160D01*
X2357624Y-8931160D02*
X2348101Y-8921636D01*
X2348101Y-8921636D02*
X2338577Y-8902589D01*
X2338577Y-8902589D02*
X2329053Y-8864493D01*
X2329053Y-8864493D02*
X2329053Y-8816874D01*
X2329053Y-8816874D02*
X2338577Y-8778779D01*
X2338577Y-8778779D02*
X2348101Y-8759731D01*
X2348101Y-8759731D02*
X2357624Y-8750208D01*
X2357624Y-8750208D02*
X2376672Y-8740684D01*
X2529053Y-8921636D02*
X2538577Y-8931160D01*
X2538577Y-8931160D02*
X2529053Y-8940684D01*
X2529053Y-8940684D02*
X2519529Y-8931160D01*
X2519529Y-8931160D02*
X2529053Y-8921636D01*
X2529053Y-8921636D02*
X2529053Y-8940684D01*
X2710005Y-8807350D02*
X2710005Y-8940684D01*
X2662386Y-8731160D02*
X2614767Y-8874017D01*
X2614767Y-8874017D02*
X2738577Y-8874017D01*
X2852862Y-8740684D02*
X2871910Y-8740684D01*
X2871910Y-8740684D02*
X2890958Y-8750208D01*
X2890958Y-8750208D02*
X2900482Y-8759731D01*
X2900482Y-8759731D02*
X2910005Y-8778779D01*
X2910005Y-8778779D02*
X2919529Y-8816874D01*
X2919529Y-8816874D02*
X2919529Y-8864493D01*
X2919529Y-8864493D02*
X2910005Y-8902589D01*
X2910005Y-8902589D02*
X2900482Y-8921636D01*
X2900482Y-8921636D02*
X2890958Y-8931160D01*
X2890958Y-8931160D02*
X2871910Y-8940684D01*
X2871910Y-8940684D02*
X2852862Y-8940684D01*
X2852862Y-8940684D02*
X2833815Y-8931160D01*
X2833815Y-8931160D02*
X2824291Y-8921636D01*
X2824291Y-8921636D02*
X2814767Y-8902589D01*
X2814767Y-8902589D02*
X2805243Y-8864493D01*
X2805243Y-8864493D02*
X2805243Y-8816874D01*
X2805243Y-8816874D02*
X2814767Y-8778779D01*
X2814767Y-8778779D02*
X2824291Y-8759731D01*
X2824291Y-8759731D02*
X2833815Y-8750208D01*
X2833815Y-8750208D02*
X2852862Y-8740684D01*
X3043339Y-8740684D02*
X3062386Y-8740684D01*
X3062386Y-8740684D02*
X3081434Y-8750208D01*
X3081434Y-8750208D02*
X3090958Y-8759731D01*
X3090958Y-8759731D02*
X3100482Y-8778779D01*
X3100482Y-8778779D02*
X3110005Y-8816874D01*
X3110005Y-8816874D02*
X3110005Y-8864493D01*
X3110005Y-8864493D02*
X3100482Y-8902589D01*
X3100482Y-8902589D02*
X3090958Y-8921636D01*
X3090958Y-8921636D02*
X3081434Y-8931160D01*
X3081434Y-8931160D02*
X3062386Y-8940684D01*
X3062386Y-8940684D02*
X3043339Y-8940684D01*
X3043339Y-8940684D02*
X3024291Y-8931160D01*
X3024291Y-8931160D02*
X3014767Y-8921636D01*
X3014767Y-8921636D02*
X3005243Y-8902589D01*
X3005243Y-8902589D02*
X2995720Y-8864493D01*
X2995720Y-8864493D02*
X2995720Y-8816874D01*
X2995720Y-8816874D02*
X3005243Y-8778779D01*
X3005243Y-8778779D02*
X3014767Y-8759731D01*
X3014767Y-8759731D02*
X3024291Y-8750208D01*
X3024291Y-8750208D02*
X3043339Y-8740684D01*
X3195720Y-8940684D02*
X3195720Y-8807350D01*
X3195720Y-8826398D02*
X3205243Y-8816874D01*
X3205243Y-8816874D02*
X3224291Y-8807350D01*
X3224291Y-8807350D02*
X3252863Y-8807350D01*
X3252863Y-8807350D02*
X3271910Y-8816874D01*
X3271910Y-8816874D02*
X3281434Y-8835922D01*
X3281434Y-8835922D02*
X3281434Y-8940684D01*
X3281434Y-8835922D02*
X3290958Y-8816874D01*
X3290958Y-8816874D02*
X3310005Y-8807350D01*
X3310005Y-8807350D02*
X3338577Y-8807350D01*
X3338577Y-8807350D02*
X3357624Y-8816874D01*
X3357624Y-8816874D02*
X3367148Y-8835922D01*
X3367148Y-8835922D02*
X3367148Y-8940684D01*
X3462386Y-8940684D02*
X3462386Y-8807350D01*
X3462386Y-8826398D02*
X3471910Y-8816874D01*
X3471910Y-8816874D02*
X3490958Y-8807350D01*
X3490958Y-8807350D02*
X3519529Y-8807350D01*
X3519529Y-8807350D02*
X3538577Y-8816874D01*
X3538577Y-8816874D02*
X3548101Y-8835922D01*
X3548101Y-8835922D02*
X3548101Y-8940684D01*
X3548101Y-8835922D02*
X3557624Y-8816874D01*
X3557624Y-8816874D02*
X3576672Y-8807350D01*
X3576672Y-8807350D02*
X3605243Y-8807350D01*
X3605243Y-8807350D02*
X3624291Y-8816874D01*
X3624291Y-8816874D02*
X3633815Y-8835922D01*
X3633815Y-8835922D02*
X3633815Y-8940684D01*
X4024291Y-8731160D02*
X3852863Y-8988303D01*
X4281434Y-8740684D02*
X4300482Y-8740684D01*
X4300482Y-8740684D02*
X4319529Y-8750208D01*
X4319529Y-8750208D02*
X4329053Y-8759731D01*
X4329053Y-8759731D02*
X4338577Y-8778779D01*
X4338577Y-8778779D02*
X4348101Y-8816874D01*
X4348101Y-8816874D02*
X4348101Y-8864493D01*
X4348101Y-8864493D02*
X4338577Y-8902589D01*
X4338577Y-8902589D02*
X4329053Y-8921636D01*
X4329053Y-8921636D02*
X4319529Y-8931160D01*
X4319529Y-8931160D02*
X4300482Y-8940684D01*
X4300482Y-8940684D02*
X4281434Y-8940684D01*
X4281434Y-8940684D02*
X4262387Y-8931160D01*
X4262387Y-8931160D02*
X4252863Y-8921636D01*
X4252863Y-8921636D02*
X4243339Y-8902589D01*
X4243339Y-8902589D02*
X4233815Y-8864493D01*
X4233815Y-8864493D02*
X4233815Y-8816874D01*
X4233815Y-8816874D02*
X4243339Y-8778779D01*
X4243339Y-8778779D02*
X4252863Y-8759731D01*
X4252863Y-8759731D02*
X4262387Y-8750208D01*
X4262387Y-8750208D02*
X4281434Y-8740684D01*
X4433815Y-8921636D02*
X4443339Y-8931160D01*
X4443339Y-8931160D02*
X4433815Y-8940684D01*
X4433815Y-8940684D02*
X4424291Y-8931160D01*
X4424291Y-8931160D02*
X4433815Y-8921636D01*
X4433815Y-8921636D02*
X4433815Y-8940684D01*
X4567148Y-8740684D02*
X4586196Y-8740684D01*
X4586196Y-8740684D02*
X4605244Y-8750208D01*
X4605244Y-8750208D02*
X4614768Y-8759731D01*
X4614768Y-8759731D02*
X4624291Y-8778779D01*
X4624291Y-8778779D02*
X4633815Y-8816874D01*
X4633815Y-8816874D02*
X4633815Y-8864493D01*
X4633815Y-8864493D02*
X4624291Y-8902589D01*
X4624291Y-8902589D02*
X4614768Y-8921636D01*
X4614768Y-8921636D02*
X4605244Y-8931160D01*
X4605244Y-8931160D02*
X4586196Y-8940684D01*
X4586196Y-8940684D02*
X4567148Y-8940684D01*
X4567148Y-8940684D02*
X4548101Y-8931160D01*
X4548101Y-8931160D02*
X4538577Y-8921636D01*
X4538577Y-8921636D02*
X4529053Y-8902589D01*
X4529053Y-8902589D02*
X4519529Y-8864493D01*
X4519529Y-8864493D02*
X4519529Y-8816874D01*
X4519529Y-8816874D02*
X4529053Y-8778779D01*
X4529053Y-8778779D02*
X4538577Y-8759731D01*
X4538577Y-8759731D02*
X4548101Y-8750208D01*
X4548101Y-8750208D02*
X4567148Y-8740684D01*
X4824291Y-8940684D02*
X4710006Y-8940684D01*
X4767148Y-8940684D02*
X4767148Y-8740684D01*
X4767148Y-8740684D02*
X4748101Y-8769255D01*
X4748101Y-8769255D02*
X4729053Y-8788303D01*
X4729053Y-8788303D02*
X4710006Y-8797827D01*
X5005244Y-8740684D02*
X4910006Y-8740684D01*
X4910006Y-8740684D02*
X4900482Y-8835922D01*
X4900482Y-8835922D02*
X4910006Y-8826398D01*
X4910006Y-8826398D02*
X4929053Y-8816874D01*
X4929053Y-8816874D02*
X4976672Y-8816874D01*
X4976672Y-8816874D02*
X4995720Y-8826398D01*
X4995720Y-8826398D02*
X5005244Y-8835922D01*
X5005244Y-8835922D02*
X5014768Y-8854970D01*
X5014768Y-8854970D02*
X5014768Y-8902589D01*
X5014768Y-8902589D02*
X5005244Y-8921636D01*
X5005244Y-8921636D02*
X4995720Y-8931160D01*
X4995720Y-8931160D02*
X4976672Y-8940684D01*
X4976672Y-8940684D02*
X4929053Y-8940684D01*
X4929053Y-8940684D02*
X4910006Y-8931160D01*
X4910006Y-8931160D02*
X4900482Y-8921636D01*
X5081434Y-8740684D02*
X5214768Y-8740684D01*
X5214768Y-8740684D02*
X5129053Y-8940684D01*
X5281434Y-8740684D02*
X5281434Y-8778779D01*
X5357625Y-8740684D02*
X5357625Y-8778779D01*
X5652863Y-9016874D02*
X5643339Y-9007350D01*
X5643339Y-9007350D02*
X5624291Y-8978779D01*
X5624291Y-8978779D02*
X5614768Y-8959731D01*
X5614768Y-8959731D02*
X5605244Y-8931160D01*
X5605244Y-8931160D02*
X5595720Y-8883541D01*
X5595720Y-8883541D02*
X5595720Y-8845446D01*
X5595720Y-8845446D02*
X5605244Y-8797827D01*
X5605244Y-8797827D02*
X5614768Y-8769255D01*
X5614768Y-8769255D02*
X5624291Y-8750208D01*
X5624291Y-8750208D02*
X5643339Y-8721636D01*
X5643339Y-8721636D02*
X5652863Y-8712112D01*
X5814768Y-8807350D02*
X5814768Y-8940684D01*
X5767148Y-8731160D02*
X5719529Y-8874017D01*
X5719529Y-8874017D02*
X5843339Y-8874017D01*
X5929053Y-8940684D02*
X5967148Y-8940684D01*
X5967148Y-8940684D02*
X5986196Y-8931160D01*
X5986196Y-8931160D02*
X5995720Y-8921636D01*
X5995720Y-8921636D02*
X6014768Y-8893065D01*
X6014768Y-8893065D02*
X6024291Y-8854970D01*
X6024291Y-8854970D02*
X6024291Y-8778779D01*
X6024291Y-8778779D02*
X6014768Y-8759731D01*
X6014768Y-8759731D02*
X6005244Y-8750208D01*
X6005244Y-8750208D02*
X5986196Y-8740684D01*
X5986196Y-8740684D02*
X5948101Y-8740684D01*
X5948101Y-8740684D02*
X5929053Y-8750208D01*
X5929053Y-8750208D02*
X5919529Y-8759731D01*
X5919529Y-8759731D02*
X5910006Y-8778779D01*
X5910006Y-8778779D02*
X5910006Y-8826398D01*
X5910006Y-8826398D02*
X5919529Y-8845446D01*
X5919529Y-8845446D02*
X5929053Y-8854970D01*
X5929053Y-8854970D02*
X5948101Y-8864493D01*
X5948101Y-8864493D02*
X5986196Y-8864493D01*
X5986196Y-8864493D02*
X6005244Y-8854970D01*
X6005244Y-8854970D02*
X6014768Y-8845446D01*
X6014768Y-8845446D02*
X6024291Y-8826398D01*
X6262387Y-8940684D02*
X6262387Y-8740684D01*
X6348101Y-8940684D02*
X6348101Y-8835922D01*
X6348101Y-8835922D02*
X6338577Y-8816874D01*
X6338577Y-8816874D02*
X6319530Y-8807350D01*
X6319530Y-8807350D02*
X6290958Y-8807350D01*
X6290958Y-8807350D02*
X6271910Y-8816874D01*
X6271910Y-8816874D02*
X6262387Y-8826398D01*
X6471910Y-8940684D02*
X6452863Y-8931160D01*
X6452863Y-8931160D02*
X6443339Y-8921636D01*
X6443339Y-8921636D02*
X6433815Y-8902589D01*
X6433815Y-8902589D02*
X6433815Y-8845446D01*
X6433815Y-8845446D02*
X6443339Y-8826398D01*
X6443339Y-8826398D02*
X6452863Y-8816874D01*
X6452863Y-8816874D02*
X6471910Y-8807350D01*
X6471910Y-8807350D02*
X6500482Y-8807350D01*
X6500482Y-8807350D02*
X6519530Y-8816874D01*
X6519530Y-8816874D02*
X6529053Y-8826398D01*
X6529053Y-8826398D02*
X6538577Y-8845446D01*
X6538577Y-8845446D02*
X6538577Y-8902589D01*
X6538577Y-8902589D02*
X6529053Y-8921636D01*
X6529053Y-8921636D02*
X6519530Y-8931160D01*
X6519530Y-8931160D02*
X6500482Y-8940684D01*
X6500482Y-8940684D02*
X6471910Y-8940684D01*
X6652863Y-8940684D02*
X6633815Y-8931160D01*
X6633815Y-8931160D02*
X6624291Y-8912112D01*
X6624291Y-8912112D02*
X6624291Y-8740684D01*
X6805244Y-8931160D02*
X6786196Y-8940684D01*
X6786196Y-8940684D02*
X6748101Y-8940684D01*
X6748101Y-8940684D02*
X6729053Y-8931160D01*
X6729053Y-8931160D02*
X6719530Y-8912112D01*
X6719530Y-8912112D02*
X6719530Y-8835922D01*
X6719530Y-8835922D02*
X6729053Y-8816874D01*
X6729053Y-8816874D02*
X6748101Y-8807350D01*
X6748101Y-8807350D02*
X6786196Y-8807350D01*
X6786196Y-8807350D02*
X6805244Y-8816874D01*
X6805244Y-8816874D02*
X6814768Y-8835922D01*
X6814768Y-8835922D02*
X6814768Y-8854970D01*
X6814768Y-8854970D02*
X6719530Y-8874017D01*
X6890958Y-8931160D02*
X6910006Y-8940684D01*
X6910006Y-8940684D02*
X6948101Y-8940684D01*
X6948101Y-8940684D02*
X6967149Y-8931160D01*
X6967149Y-8931160D02*
X6976672Y-8912112D01*
X6976672Y-8912112D02*
X6976672Y-8902589D01*
X6976672Y-8902589D02*
X6967149Y-8883541D01*
X6967149Y-8883541D02*
X6948101Y-8874017D01*
X6948101Y-8874017D02*
X6919530Y-8874017D01*
X6919530Y-8874017D02*
X6900482Y-8864493D01*
X6900482Y-8864493D02*
X6890958Y-8845446D01*
X6890958Y-8845446D02*
X6890958Y-8835922D01*
X6890958Y-8835922D02*
X6900482Y-8816874D01*
X6900482Y-8816874D02*
X6919530Y-8807350D01*
X6919530Y-8807350D02*
X6948101Y-8807350D01*
X6948101Y-8807350D02*
X6967149Y-8816874D01*
X7043339Y-9016874D02*
X7052863Y-9007350D01*
X7052863Y-9007350D02*
X7071911Y-8978779D01*
X7071911Y-8978779D02*
X7081434Y-8959731D01*
X7081434Y-8959731D02*
X7090958Y-8931160D01*
X7090958Y-8931160D02*
X7100482Y-8883541D01*
X7100482Y-8883541D02*
X7100482Y-8845446D01*
X7100482Y-8845446D02*
X7090958Y-8797827D01*
X7090958Y-8797827D02*
X7081434Y-8769255D01*
X7081434Y-8769255D02*
X7071911Y-8750208D01*
X7071911Y-8750208D02*
X7052863Y-8721636D01*
X7052863Y-8721636D02*
X7043339Y-8712112D01*
D10*
X2077800Y-9113200D02*
G75*
G03*
X2014300Y-9113200I-31750J0D01*
G01*
X2014300Y-9113200D02*
G75*
G03*
X2077800Y-9113200I31750J0D01*
G01*
D11*
X2376672Y-9004684D02*
X2395720Y-9004684D01*
X2395720Y-9004684D02*
X2414767Y-9014208D01*
X2414767Y-9014208D02*
X2424291Y-9023731D01*
X2424291Y-9023731D02*
X2433815Y-9042779D01*
X2433815Y-9042779D02*
X2443339Y-9080874D01*
X2443339Y-9080874D02*
X2443339Y-9128493D01*
X2443339Y-9128493D02*
X2433815Y-9166589D01*
X2433815Y-9166589D02*
X2424291Y-9185636D01*
X2424291Y-9185636D02*
X2414767Y-9195160D01*
X2414767Y-9195160D02*
X2395720Y-9204684D01*
X2395720Y-9204684D02*
X2376672Y-9204684D01*
X2376672Y-9204684D02*
X2357624Y-9195160D01*
X2357624Y-9195160D02*
X2348101Y-9185636D01*
X2348101Y-9185636D02*
X2338577Y-9166589D01*
X2338577Y-9166589D02*
X2329053Y-9128493D01*
X2329053Y-9128493D02*
X2329053Y-9080874D01*
X2329053Y-9080874D02*
X2338577Y-9042779D01*
X2338577Y-9042779D02*
X2348101Y-9023731D01*
X2348101Y-9023731D02*
X2357624Y-9014208D01*
X2357624Y-9014208D02*
X2376672Y-9004684D01*
X2529053Y-9185636D02*
X2538577Y-9195160D01*
X2538577Y-9195160D02*
X2529053Y-9204684D01*
X2529053Y-9204684D02*
X2519529Y-9195160D01*
X2519529Y-9195160D02*
X2529053Y-9185636D01*
X2529053Y-9185636D02*
X2529053Y-9204684D01*
X2710005Y-9004684D02*
X2671910Y-9004684D01*
X2671910Y-9004684D02*
X2652863Y-9014208D01*
X2652863Y-9014208D02*
X2643339Y-9023731D01*
X2643339Y-9023731D02*
X2624291Y-9052303D01*
X2624291Y-9052303D02*
X2614767Y-9090398D01*
X2614767Y-9090398D02*
X2614767Y-9166589D01*
X2614767Y-9166589D02*
X2624291Y-9185636D01*
X2624291Y-9185636D02*
X2633815Y-9195160D01*
X2633815Y-9195160D02*
X2652863Y-9204684D01*
X2652863Y-9204684D02*
X2690958Y-9204684D01*
X2690958Y-9204684D02*
X2710005Y-9195160D01*
X2710005Y-9195160D02*
X2719529Y-9185636D01*
X2719529Y-9185636D02*
X2729053Y-9166589D01*
X2729053Y-9166589D02*
X2729053Y-9118970D01*
X2729053Y-9118970D02*
X2719529Y-9099922D01*
X2719529Y-9099922D02*
X2710005Y-9090398D01*
X2710005Y-9090398D02*
X2690958Y-9080874D01*
X2690958Y-9080874D02*
X2652863Y-9080874D01*
X2652863Y-9080874D02*
X2633815Y-9090398D01*
X2633815Y-9090398D02*
X2624291Y-9099922D01*
X2624291Y-9099922D02*
X2614767Y-9118970D01*
X2795720Y-9004684D02*
X2919529Y-9004684D01*
X2919529Y-9004684D02*
X2852862Y-9080874D01*
X2852862Y-9080874D02*
X2881434Y-9080874D01*
X2881434Y-9080874D02*
X2900482Y-9090398D01*
X2900482Y-9090398D02*
X2910005Y-9099922D01*
X2910005Y-9099922D02*
X2919529Y-9118970D01*
X2919529Y-9118970D02*
X2919529Y-9166589D01*
X2919529Y-9166589D02*
X2910005Y-9185636D01*
X2910005Y-9185636D02*
X2900482Y-9195160D01*
X2900482Y-9195160D02*
X2881434Y-9204684D01*
X2881434Y-9204684D02*
X2824291Y-9204684D01*
X2824291Y-9204684D02*
X2805243Y-9195160D01*
X2805243Y-9195160D02*
X2795720Y-9185636D01*
X3100482Y-9004684D02*
X3005243Y-9004684D01*
X3005243Y-9004684D02*
X2995720Y-9099922D01*
X2995720Y-9099922D02*
X3005243Y-9090398D01*
X3005243Y-9090398D02*
X3024291Y-9080874D01*
X3024291Y-9080874D02*
X3071910Y-9080874D01*
X3071910Y-9080874D02*
X3090958Y-9090398D01*
X3090958Y-9090398D02*
X3100482Y-9099922D01*
X3100482Y-9099922D02*
X3110005Y-9118970D01*
X3110005Y-9118970D02*
X3110005Y-9166589D01*
X3110005Y-9166589D02*
X3100482Y-9185636D01*
X3100482Y-9185636D02*
X3090958Y-9195160D01*
X3090958Y-9195160D02*
X3071910Y-9204684D01*
X3071910Y-9204684D02*
X3024291Y-9204684D01*
X3024291Y-9204684D02*
X3005243Y-9195160D01*
X3005243Y-9195160D02*
X2995720Y-9185636D01*
X3195720Y-9204684D02*
X3195720Y-9071350D01*
X3195720Y-9090398D02*
X3205243Y-9080874D01*
X3205243Y-9080874D02*
X3224291Y-9071350D01*
X3224291Y-9071350D02*
X3252863Y-9071350D01*
X3252863Y-9071350D02*
X3271910Y-9080874D01*
X3271910Y-9080874D02*
X3281434Y-9099922D01*
X3281434Y-9099922D02*
X3281434Y-9204684D01*
X3281434Y-9099922D02*
X3290958Y-9080874D01*
X3290958Y-9080874D02*
X3310005Y-9071350D01*
X3310005Y-9071350D02*
X3338577Y-9071350D01*
X3338577Y-9071350D02*
X3357624Y-9080874D01*
X3357624Y-9080874D02*
X3367148Y-9099922D01*
X3367148Y-9099922D02*
X3367148Y-9204684D01*
X3462386Y-9204684D02*
X3462386Y-9071350D01*
X3462386Y-9090398D02*
X3471910Y-9080874D01*
X3471910Y-9080874D02*
X3490958Y-9071350D01*
X3490958Y-9071350D02*
X3519529Y-9071350D01*
X3519529Y-9071350D02*
X3538577Y-9080874D01*
X3538577Y-9080874D02*
X3548101Y-9099922D01*
X3548101Y-9099922D02*
X3548101Y-9204684D01*
X3548101Y-9099922D02*
X3557624Y-9080874D01*
X3557624Y-9080874D02*
X3576672Y-9071350D01*
X3576672Y-9071350D02*
X3605243Y-9071350D01*
X3605243Y-9071350D02*
X3624291Y-9080874D01*
X3624291Y-9080874D02*
X3633815Y-9099922D01*
X3633815Y-9099922D02*
X3633815Y-9204684D01*
X4024291Y-8995160D02*
X3852863Y-9252303D01*
X4281434Y-9004684D02*
X4300482Y-9004684D01*
X4300482Y-9004684D02*
X4319529Y-9014208D01*
X4319529Y-9014208D02*
X4329053Y-9023731D01*
X4329053Y-9023731D02*
X4338577Y-9042779D01*
X4338577Y-9042779D02*
X4348101Y-9080874D01*
X4348101Y-9080874D02*
X4348101Y-9128493D01*
X4348101Y-9128493D02*
X4338577Y-9166589D01*
X4338577Y-9166589D02*
X4329053Y-9185636D01*
X4329053Y-9185636D02*
X4319529Y-9195160D01*
X4319529Y-9195160D02*
X4300482Y-9204684D01*
X4300482Y-9204684D02*
X4281434Y-9204684D01*
X4281434Y-9204684D02*
X4262387Y-9195160D01*
X4262387Y-9195160D02*
X4252863Y-9185636D01*
X4252863Y-9185636D02*
X4243339Y-9166589D01*
X4243339Y-9166589D02*
X4233815Y-9128493D01*
X4233815Y-9128493D02*
X4233815Y-9080874D01*
X4233815Y-9080874D02*
X4243339Y-9042779D01*
X4243339Y-9042779D02*
X4252863Y-9023731D01*
X4252863Y-9023731D02*
X4262387Y-9014208D01*
X4262387Y-9014208D02*
X4281434Y-9004684D01*
X4433815Y-9185636D02*
X4443339Y-9195160D01*
X4443339Y-9195160D02*
X4433815Y-9204684D01*
X4433815Y-9204684D02*
X4424291Y-9195160D01*
X4424291Y-9195160D02*
X4433815Y-9185636D01*
X4433815Y-9185636D02*
X4433815Y-9204684D01*
X4567148Y-9004684D02*
X4586196Y-9004684D01*
X4586196Y-9004684D02*
X4605244Y-9014208D01*
X4605244Y-9014208D02*
X4614768Y-9023731D01*
X4614768Y-9023731D02*
X4624291Y-9042779D01*
X4624291Y-9042779D02*
X4633815Y-9080874D01*
X4633815Y-9080874D02*
X4633815Y-9128493D01*
X4633815Y-9128493D02*
X4624291Y-9166589D01*
X4624291Y-9166589D02*
X4614768Y-9185636D01*
X4614768Y-9185636D02*
X4605244Y-9195160D01*
X4605244Y-9195160D02*
X4586196Y-9204684D01*
X4586196Y-9204684D02*
X4567148Y-9204684D01*
X4567148Y-9204684D02*
X4548101Y-9195160D01*
X4548101Y-9195160D02*
X4538577Y-9185636D01*
X4538577Y-9185636D02*
X4529053Y-9166589D01*
X4529053Y-9166589D02*
X4519529Y-9128493D01*
X4519529Y-9128493D02*
X4519529Y-9080874D01*
X4519529Y-9080874D02*
X4529053Y-9042779D01*
X4529053Y-9042779D02*
X4538577Y-9023731D01*
X4538577Y-9023731D02*
X4548101Y-9014208D01*
X4548101Y-9014208D02*
X4567148Y-9004684D01*
X4710006Y-9023731D02*
X4719529Y-9014208D01*
X4719529Y-9014208D02*
X4738577Y-9004684D01*
X4738577Y-9004684D02*
X4786196Y-9004684D01*
X4786196Y-9004684D02*
X4805244Y-9014208D01*
X4805244Y-9014208D02*
X4814768Y-9023731D01*
X4814768Y-9023731D02*
X4824291Y-9042779D01*
X4824291Y-9042779D02*
X4824291Y-9061827D01*
X4824291Y-9061827D02*
X4814768Y-9090398D01*
X4814768Y-9090398D02*
X4700482Y-9204684D01*
X4700482Y-9204684D02*
X4824291Y-9204684D01*
X5005244Y-9004684D02*
X4910006Y-9004684D01*
X4910006Y-9004684D02*
X4900482Y-9099922D01*
X4900482Y-9099922D02*
X4910006Y-9090398D01*
X4910006Y-9090398D02*
X4929053Y-9080874D01*
X4929053Y-9080874D02*
X4976672Y-9080874D01*
X4976672Y-9080874D02*
X4995720Y-9090398D01*
X4995720Y-9090398D02*
X5005244Y-9099922D01*
X5005244Y-9099922D02*
X5014768Y-9118970D01*
X5014768Y-9118970D02*
X5014768Y-9166589D01*
X5014768Y-9166589D02*
X5005244Y-9185636D01*
X5005244Y-9185636D02*
X4995720Y-9195160D01*
X4995720Y-9195160D02*
X4976672Y-9204684D01*
X4976672Y-9204684D02*
X4929053Y-9204684D01*
X4929053Y-9204684D02*
X4910006Y-9195160D01*
X4910006Y-9195160D02*
X4900482Y-9185636D01*
X5138577Y-9004684D02*
X5157625Y-9004684D01*
X5157625Y-9004684D02*
X5176672Y-9014208D01*
X5176672Y-9014208D02*
X5186196Y-9023731D01*
X5186196Y-9023731D02*
X5195720Y-9042779D01*
X5195720Y-9042779D02*
X5205244Y-9080874D01*
X5205244Y-9080874D02*
X5205244Y-9128493D01*
X5205244Y-9128493D02*
X5195720Y-9166589D01*
X5195720Y-9166589D02*
X5186196Y-9185636D01*
X5186196Y-9185636D02*
X5176672Y-9195160D01*
X5176672Y-9195160D02*
X5157625Y-9204684D01*
X5157625Y-9204684D02*
X5138577Y-9204684D01*
X5138577Y-9204684D02*
X5119529Y-9195160D01*
X5119529Y-9195160D02*
X5110006Y-9185636D01*
X5110006Y-9185636D02*
X5100482Y-9166589D01*
X5100482Y-9166589D02*
X5090958Y-9128493D01*
X5090958Y-9128493D02*
X5090958Y-9080874D01*
X5090958Y-9080874D02*
X5100482Y-9042779D01*
X5100482Y-9042779D02*
X5110006Y-9023731D01*
X5110006Y-9023731D02*
X5119529Y-9014208D01*
X5119529Y-9014208D02*
X5138577Y-9004684D01*
X5281434Y-9004684D02*
X5281434Y-9042779D01*
X5357625Y-9004684D02*
X5357625Y-9042779D01*
X5652863Y-9280874D02*
X5643339Y-9271350D01*
X5643339Y-9271350D02*
X5624291Y-9242779D01*
X5624291Y-9242779D02*
X5614768Y-9223731D01*
X5614768Y-9223731D02*
X5605244Y-9195160D01*
X5605244Y-9195160D02*
X5595720Y-9147541D01*
X5595720Y-9147541D02*
X5595720Y-9109446D01*
X5595720Y-9109446D02*
X5605244Y-9061827D01*
X5605244Y-9061827D02*
X5614768Y-9033255D01*
X5614768Y-9033255D02*
X5624291Y-9014208D01*
X5624291Y-9014208D02*
X5643339Y-8985636D01*
X5643339Y-8985636D02*
X5652863Y-8976112D01*
X5719529Y-9023731D02*
X5729053Y-9014208D01*
X5729053Y-9014208D02*
X5748101Y-9004684D01*
X5748101Y-9004684D02*
X5795720Y-9004684D01*
X5795720Y-9004684D02*
X5814768Y-9014208D01*
X5814768Y-9014208D02*
X5824291Y-9023731D01*
X5824291Y-9023731D02*
X5833815Y-9042779D01*
X5833815Y-9042779D02*
X5833815Y-9061827D01*
X5833815Y-9061827D02*
X5824291Y-9090398D01*
X5824291Y-9090398D02*
X5710006Y-9204684D01*
X5710006Y-9204684D02*
X5833815Y-9204684D01*
X6071910Y-9204684D02*
X6071910Y-9004684D01*
X6157625Y-9204684D02*
X6157625Y-9099922D01*
X6157625Y-9099922D02*
X6148101Y-9080874D01*
X6148101Y-9080874D02*
X6129053Y-9071350D01*
X6129053Y-9071350D02*
X6100482Y-9071350D01*
X6100482Y-9071350D02*
X6081434Y-9080874D01*
X6081434Y-9080874D02*
X6071910Y-9090398D01*
X6281434Y-9204684D02*
X6262387Y-9195160D01*
X6262387Y-9195160D02*
X6252863Y-9185636D01*
X6252863Y-9185636D02*
X6243339Y-9166589D01*
X6243339Y-9166589D02*
X6243339Y-9109446D01*
X6243339Y-9109446D02*
X6252863Y-9090398D01*
X6252863Y-9090398D02*
X6262387Y-9080874D01*
X6262387Y-9080874D02*
X6281434Y-9071350D01*
X6281434Y-9071350D02*
X6310006Y-9071350D01*
X6310006Y-9071350D02*
X6329053Y-9080874D01*
X6329053Y-9080874D02*
X6338577Y-9090398D01*
X6338577Y-9090398D02*
X6348101Y-9109446D01*
X6348101Y-9109446D02*
X6348101Y-9166589D01*
X6348101Y-9166589D02*
X6338577Y-9185636D01*
X6338577Y-9185636D02*
X6329053Y-9195160D01*
X6329053Y-9195160D02*
X6310006Y-9204684D01*
X6310006Y-9204684D02*
X6281434Y-9204684D01*
X6462387Y-9204684D02*
X6443339Y-9195160D01*
X6443339Y-9195160D02*
X6433815Y-9176112D01*
X6433815Y-9176112D02*
X6433815Y-9004684D01*
X6614768Y-9195160D02*
X6595720Y-9204684D01*
X6595720Y-9204684D02*
X6557625Y-9204684D01*
X6557625Y-9204684D02*
X6538577Y-9195160D01*
X6538577Y-9195160D02*
X6529053Y-9176112D01*
X6529053Y-9176112D02*
X6529053Y-9099922D01*
X6529053Y-9099922D02*
X6538577Y-9080874D01*
X6538577Y-9080874D02*
X6557625Y-9071350D01*
X6557625Y-9071350D02*
X6595720Y-9071350D01*
X6595720Y-9071350D02*
X6614768Y-9080874D01*
X6614768Y-9080874D02*
X6624291Y-9099922D01*
X6624291Y-9099922D02*
X6624291Y-9118970D01*
X6624291Y-9118970D02*
X6529053Y-9138017D01*
X6700482Y-9195160D02*
X6719530Y-9204684D01*
X6719530Y-9204684D02*
X6757625Y-9204684D01*
X6757625Y-9204684D02*
X6776672Y-9195160D01*
X6776672Y-9195160D02*
X6786196Y-9176112D01*
X6786196Y-9176112D02*
X6786196Y-9166589D01*
X6786196Y-9166589D02*
X6776672Y-9147541D01*
X6776672Y-9147541D02*
X6757625Y-9138017D01*
X6757625Y-9138017D02*
X6729053Y-9138017D01*
X6729053Y-9138017D02*
X6710006Y-9128493D01*
X6710006Y-9128493D02*
X6700482Y-9109446D01*
X6700482Y-9109446D02*
X6700482Y-9099922D01*
X6700482Y-9099922D02*
X6710006Y-9080874D01*
X6710006Y-9080874D02*
X6729053Y-9071350D01*
X6729053Y-9071350D02*
X6757625Y-9071350D01*
X6757625Y-9071350D02*
X6776672Y-9080874D01*
X6852863Y-9280874D02*
X6862387Y-9271350D01*
X6862387Y-9271350D02*
X6881434Y-9242779D01*
X6881434Y-9242779D02*
X6890958Y-9223731D01*
X6890958Y-9223731D02*
X6900482Y-9195160D01*
X6900482Y-9195160D02*
X6910006Y-9147541D01*
X6910006Y-9147541D02*
X6910006Y-9109446D01*
X6910006Y-9109446D02*
X6900482Y-9061827D01*
X6900482Y-9061827D02*
X6890958Y-9033255D01*
X6890958Y-9033255D02*
X6881434Y-9014208D01*
X6881434Y-9014208D02*
X6862387Y-8985636D01*
X6862387Y-8985636D02*
X6852863Y-8976112D01*
D10*
X2045300Y-9344700D02*
X2045300Y-9409700D01*
X2012800Y-9377200D02*
X2077800Y-9377200D01*
D11*
X2376672Y-9268684D02*
X2395720Y-9268684D01*
X2395720Y-9268684D02*
X2414767Y-9278208D01*
X2414767Y-9278208D02*
X2424291Y-9287731D01*
X2424291Y-9287731D02*
X2433815Y-9306779D01*
X2433815Y-9306779D02*
X2443339Y-9344874D01*
X2443339Y-9344874D02*
X2443339Y-9392493D01*
X2443339Y-9392493D02*
X2433815Y-9430589D01*
X2433815Y-9430589D02*
X2424291Y-9449636D01*
X2424291Y-9449636D02*
X2414767Y-9459160D01*
X2414767Y-9459160D02*
X2395720Y-9468684D01*
X2395720Y-9468684D02*
X2376672Y-9468684D01*
X2376672Y-9468684D02*
X2357624Y-9459160D01*
X2357624Y-9459160D02*
X2348101Y-9449636D01*
X2348101Y-9449636D02*
X2338577Y-9430589D01*
X2338577Y-9430589D02*
X2329053Y-9392493D01*
X2329053Y-9392493D02*
X2329053Y-9344874D01*
X2329053Y-9344874D02*
X2338577Y-9306779D01*
X2338577Y-9306779D02*
X2348101Y-9287731D01*
X2348101Y-9287731D02*
X2357624Y-9278208D01*
X2357624Y-9278208D02*
X2376672Y-9268684D01*
X2529053Y-9449636D02*
X2538577Y-9459160D01*
X2538577Y-9459160D02*
X2529053Y-9468684D01*
X2529053Y-9468684D02*
X2519529Y-9459160D01*
X2519529Y-9459160D02*
X2529053Y-9449636D01*
X2529053Y-9449636D02*
X2529053Y-9468684D01*
X2710005Y-9268684D02*
X2671910Y-9268684D01*
X2671910Y-9268684D02*
X2652863Y-9278208D01*
X2652863Y-9278208D02*
X2643339Y-9287731D01*
X2643339Y-9287731D02*
X2624291Y-9316303D01*
X2624291Y-9316303D02*
X2614767Y-9354398D01*
X2614767Y-9354398D02*
X2614767Y-9430589D01*
X2614767Y-9430589D02*
X2624291Y-9449636D01*
X2624291Y-9449636D02*
X2633815Y-9459160D01*
X2633815Y-9459160D02*
X2652863Y-9468684D01*
X2652863Y-9468684D02*
X2690958Y-9468684D01*
X2690958Y-9468684D02*
X2710005Y-9459160D01*
X2710005Y-9459160D02*
X2719529Y-9449636D01*
X2719529Y-9449636D02*
X2729053Y-9430589D01*
X2729053Y-9430589D02*
X2729053Y-9382970D01*
X2729053Y-9382970D02*
X2719529Y-9363922D01*
X2719529Y-9363922D02*
X2710005Y-9354398D01*
X2710005Y-9354398D02*
X2690958Y-9344874D01*
X2690958Y-9344874D02*
X2652863Y-9344874D01*
X2652863Y-9344874D02*
X2633815Y-9354398D01*
X2633815Y-9354398D02*
X2624291Y-9363922D01*
X2624291Y-9363922D02*
X2614767Y-9382970D01*
X2910005Y-9268684D02*
X2814767Y-9268684D01*
X2814767Y-9268684D02*
X2805243Y-9363922D01*
X2805243Y-9363922D02*
X2814767Y-9354398D01*
X2814767Y-9354398D02*
X2833815Y-9344874D01*
X2833815Y-9344874D02*
X2881434Y-9344874D01*
X2881434Y-9344874D02*
X2900482Y-9354398D01*
X2900482Y-9354398D02*
X2910005Y-9363922D01*
X2910005Y-9363922D02*
X2919529Y-9382970D01*
X2919529Y-9382970D02*
X2919529Y-9430589D01*
X2919529Y-9430589D02*
X2910005Y-9449636D01*
X2910005Y-9449636D02*
X2900482Y-9459160D01*
X2900482Y-9459160D02*
X2881434Y-9468684D01*
X2881434Y-9468684D02*
X2833815Y-9468684D01*
X2833815Y-9468684D02*
X2814767Y-9459160D01*
X2814767Y-9459160D02*
X2805243Y-9449636D01*
X3043339Y-9268684D02*
X3062386Y-9268684D01*
X3062386Y-9268684D02*
X3081434Y-9278208D01*
X3081434Y-9278208D02*
X3090958Y-9287731D01*
X3090958Y-9287731D02*
X3100482Y-9306779D01*
X3100482Y-9306779D02*
X3110005Y-9344874D01*
X3110005Y-9344874D02*
X3110005Y-9392493D01*
X3110005Y-9392493D02*
X3100482Y-9430589D01*
X3100482Y-9430589D02*
X3090958Y-9449636D01*
X3090958Y-9449636D02*
X3081434Y-9459160D01*
X3081434Y-9459160D02*
X3062386Y-9468684D01*
X3062386Y-9468684D02*
X3043339Y-9468684D01*
X3043339Y-9468684D02*
X3024291Y-9459160D01*
X3024291Y-9459160D02*
X3014767Y-9449636D01*
X3014767Y-9449636D02*
X3005243Y-9430589D01*
X3005243Y-9430589D02*
X2995720Y-9392493D01*
X2995720Y-9392493D02*
X2995720Y-9344874D01*
X2995720Y-9344874D02*
X3005243Y-9306779D01*
X3005243Y-9306779D02*
X3014767Y-9287731D01*
X3014767Y-9287731D02*
X3024291Y-9278208D01*
X3024291Y-9278208D02*
X3043339Y-9268684D01*
X3195720Y-9468684D02*
X3195720Y-9335350D01*
X3195720Y-9354398D02*
X3205243Y-9344874D01*
X3205243Y-9344874D02*
X3224291Y-9335350D01*
X3224291Y-9335350D02*
X3252863Y-9335350D01*
X3252863Y-9335350D02*
X3271910Y-9344874D01*
X3271910Y-9344874D02*
X3281434Y-9363922D01*
X3281434Y-9363922D02*
X3281434Y-9468684D01*
X3281434Y-9363922D02*
X3290958Y-9344874D01*
X3290958Y-9344874D02*
X3310005Y-9335350D01*
X3310005Y-9335350D02*
X3338577Y-9335350D01*
X3338577Y-9335350D02*
X3357624Y-9344874D01*
X3357624Y-9344874D02*
X3367148Y-9363922D01*
X3367148Y-9363922D02*
X3367148Y-9468684D01*
X3462386Y-9468684D02*
X3462386Y-9335350D01*
X3462386Y-9354398D02*
X3471910Y-9344874D01*
X3471910Y-9344874D02*
X3490958Y-9335350D01*
X3490958Y-9335350D02*
X3519529Y-9335350D01*
X3519529Y-9335350D02*
X3538577Y-9344874D01*
X3538577Y-9344874D02*
X3548101Y-9363922D01*
X3548101Y-9363922D02*
X3548101Y-9468684D01*
X3548101Y-9363922D02*
X3557624Y-9344874D01*
X3557624Y-9344874D02*
X3576672Y-9335350D01*
X3576672Y-9335350D02*
X3605243Y-9335350D01*
X3605243Y-9335350D02*
X3624291Y-9344874D01*
X3624291Y-9344874D02*
X3633815Y-9363922D01*
X3633815Y-9363922D02*
X3633815Y-9468684D01*
X4024291Y-9259160D02*
X3852863Y-9516303D01*
X4281434Y-9268684D02*
X4300482Y-9268684D01*
X4300482Y-9268684D02*
X4319529Y-9278208D01*
X4319529Y-9278208D02*
X4329053Y-9287731D01*
X4329053Y-9287731D02*
X4338577Y-9306779D01*
X4338577Y-9306779D02*
X4348101Y-9344874D01*
X4348101Y-9344874D02*
X4348101Y-9392493D01*
X4348101Y-9392493D02*
X4338577Y-9430589D01*
X4338577Y-9430589D02*
X4329053Y-9449636D01*
X4329053Y-9449636D02*
X4319529Y-9459160D01*
X4319529Y-9459160D02*
X4300482Y-9468684D01*
X4300482Y-9468684D02*
X4281434Y-9468684D01*
X4281434Y-9468684D02*
X4262387Y-9459160D01*
X4262387Y-9459160D02*
X4252863Y-9449636D01*
X4252863Y-9449636D02*
X4243339Y-9430589D01*
X4243339Y-9430589D02*
X4233815Y-9392493D01*
X4233815Y-9392493D02*
X4233815Y-9344874D01*
X4233815Y-9344874D02*
X4243339Y-9306779D01*
X4243339Y-9306779D02*
X4252863Y-9287731D01*
X4252863Y-9287731D02*
X4262387Y-9278208D01*
X4262387Y-9278208D02*
X4281434Y-9268684D01*
X4433815Y-9449636D02*
X4443339Y-9459160D01*
X4443339Y-9459160D02*
X4433815Y-9468684D01*
X4433815Y-9468684D02*
X4424291Y-9459160D01*
X4424291Y-9459160D02*
X4433815Y-9449636D01*
X4433815Y-9449636D02*
X4433815Y-9468684D01*
X4567148Y-9268684D02*
X4586196Y-9268684D01*
X4586196Y-9268684D02*
X4605244Y-9278208D01*
X4605244Y-9278208D02*
X4614768Y-9287731D01*
X4614768Y-9287731D02*
X4624291Y-9306779D01*
X4624291Y-9306779D02*
X4633815Y-9344874D01*
X4633815Y-9344874D02*
X4633815Y-9392493D01*
X4633815Y-9392493D02*
X4624291Y-9430589D01*
X4624291Y-9430589D02*
X4614768Y-9449636D01*
X4614768Y-9449636D02*
X4605244Y-9459160D01*
X4605244Y-9459160D02*
X4586196Y-9468684D01*
X4586196Y-9468684D02*
X4567148Y-9468684D01*
X4567148Y-9468684D02*
X4548101Y-9459160D01*
X4548101Y-9459160D02*
X4538577Y-9449636D01*
X4538577Y-9449636D02*
X4529053Y-9430589D01*
X4529053Y-9430589D02*
X4519529Y-9392493D01*
X4519529Y-9392493D02*
X4519529Y-9344874D01*
X4519529Y-9344874D02*
X4529053Y-9306779D01*
X4529053Y-9306779D02*
X4538577Y-9287731D01*
X4538577Y-9287731D02*
X4548101Y-9278208D01*
X4548101Y-9278208D02*
X4567148Y-9268684D01*
X4710006Y-9287731D02*
X4719529Y-9278208D01*
X4719529Y-9278208D02*
X4738577Y-9268684D01*
X4738577Y-9268684D02*
X4786196Y-9268684D01*
X4786196Y-9268684D02*
X4805244Y-9278208D01*
X4805244Y-9278208D02*
X4814768Y-9287731D01*
X4814768Y-9287731D02*
X4824291Y-9306779D01*
X4824291Y-9306779D02*
X4824291Y-9325827D01*
X4824291Y-9325827D02*
X4814768Y-9354398D01*
X4814768Y-9354398D02*
X4700482Y-9468684D01*
X4700482Y-9468684D02*
X4824291Y-9468684D01*
X5005244Y-9268684D02*
X4910006Y-9268684D01*
X4910006Y-9268684D02*
X4900482Y-9363922D01*
X4900482Y-9363922D02*
X4910006Y-9354398D01*
X4910006Y-9354398D02*
X4929053Y-9344874D01*
X4929053Y-9344874D02*
X4976672Y-9344874D01*
X4976672Y-9344874D02*
X4995720Y-9354398D01*
X4995720Y-9354398D02*
X5005244Y-9363922D01*
X5005244Y-9363922D02*
X5014768Y-9382970D01*
X5014768Y-9382970D02*
X5014768Y-9430589D01*
X5014768Y-9430589D02*
X5005244Y-9449636D01*
X5005244Y-9449636D02*
X4995720Y-9459160D01*
X4995720Y-9459160D02*
X4976672Y-9468684D01*
X4976672Y-9468684D02*
X4929053Y-9468684D01*
X4929053Y-9468684D02*
X4910006Y-9459160D01*
X4910006Y-9459160D02*
X4900482Y-9449636D01*
X5186196Y-9268684D02*
X5148101Y-9268684D01*
X5148101Y-9268684D02*
X5129053Y-9278208D01*
X5129053Y-9278208D02*
X5119529Y-9287731D01*
X5119529Y-9287731D02*
X5100482Y-9316303D01*
X5100482Y-9316303D02*
X5090958Y-9354398D01*
X5090958Y-9354398D02*
X5090958Y-9430589D01*
X5090958Y-9430589D02*
X5100482Y-9449636D01*
X5100482Y-9449636D02*
X5110006Y-9459160D01*
X5110006Y-9459160D02*
X5129053Y-9468684D01*
X5129053Y-9468684D02*
X5167149Y-9468684D01*
X5167149Y-9468684D02*
X5186196Y-9459160D01*
X5186196Y-9459160D02*
X5195720Y-9449636D01*
X5195720Y-9449636D02*
X5205244Y-9430589D01*
X5205244Y-9430589D02*
X5205244Y-9382970D01*
X5205244Y-9382970D02*
X5195720Y-9363922D01*
X5195720Y-9363922D02*
X5186196Y-9354398D01*
X5186196Y-9354398D02*
X5167149Y-9344874D01*
X5167149Y-9344874D02*
X5129053Y-9344874D01*
X5129053Y-9344874D02*
X5110006Y-9354398D01*
X5110006Y-9354398D02*
X5100482Y-9363922D01*
X5100482Y-9363922D02*
X5090958Y-9382970D01*
X5281434Y-9268684D02*
X5281434Y-9306779D01*
X5357625Y-9268684D02*
X5357625Y-9306779D01*
X5652863Y-9544874D02*
X5643339Y-9535350D01*
X5643339Y-9535350D02*
X5624291Y-9506779D01*
X5624291Y-9506779D02*
X5614768Y-9487731D01*
X5614768Y-9487731D02*
X5605244Y-9459160D01*
X5605244Y-9459160D02*
X5595720Y-9411541D01*
X5595720Y-9411541D02*
X5595720Y-9373446D01*
X5595720Y-9373446D02*
X5605244Y-9325827D01*
X5605244Y-9325827D02*
X5614768Y-9297255D01*
X5614768Y-9297255D02*
X5624291Y-9278208D01*
X5624291Y-9278208D02*
X5643339Y-9249636D01*
X5643339Y-9249636D02*
X5652863Y-9240112D01*
X5719529Y-9287731D02*
X5729053Y-9278208D01*
X5729053Y-9278208D02*
X5748101Y-9268684D01*
X5748101Y-9268684D02*
X5795720Y-9268684D01*
X5795720Y-9268684D02*
X5814768Y-9278208D01*
X5814768Y-9278208D02*
X5824291Y-9287731D01*
X5824291Y-9287731D02*
X5833815Y-9306779D01*
X5833815Y-9306779D02*
X5833815Y-9325827D01*
X5833815Y-9325827D02*
X5824291Y-9354398D01*
X5824291Y-9354398D02*
X5710006Y-9468684D01*
X5710006Y-9468684D02*
X5833815Y-9468684D01*
X5957625Y-9268684D02*
X5976672Y-9268684D01*
X5976672Y-9268684D02*
X5995720Y-9278208D01*
X5995720Y-9278208D02*
X6005244Y-9287731D01*
X6005244Y-9287731D02*
X6014768Y-9306779D01*
X6014768Y-9306779D02*
X6024291Y-9344874D01*
X6024291Y-9344874D02*
X6024291Y-9392493D01*
X6024291Y-9392493D02*
X6014768Y-9430589D01*
X6014768Y-9430589D02*
X6005244Y-9449636D01*
X6005244Y-9449636D02*
X5995720Y-9459160D01*
X5995720Y-9459160D02*
X5976672Y-9468684D01*
X5976672Y-9468684D02*
X5957625Y-9468684D01*
X5957625Y-9468684D02*
X5938577Y-9459160D01*
X5938577Y-9459160D02*
X5929053Y-9449636D01*
X5929053Y-9449636D02*
X5919529Y-9430589D01*
X5919529Y-9430589D02*
X5910006Y-9392493D01*
X5910006Y-9392493D02*
X5910006Y-9344874D01*
X5910006Y-9344874D02*
X5919529Y-9306779D01*
X5919529Y-9306779D02*
X5929053Y-9287731D01*
X5929053Y-9287731D02*
X5938577Y-9278208D01*
X5938577Y-9278208D02*
X5957625Y-9268684D01*
X6262387Y-9468684D02*
X6262387Y-9268684D01*
X6348101Y-9468684D02*
X6348101Y-9363922D01*
X6348101Y-9363922D02*
X6338577Y-9344874D01*
X6338577Y-9344874D02*
X6319530Y-9335350D01*
X6319530Y-9335350D02*
X6290958Y-9335350D01*
X6290958Y-9335350D02*
X6271910Y-9344874D01*
X6271910Y-9344874D02*
X6262387Y-9354398D01*
X6471910Y-9468684D02*
X6452863Y-9459160D01*
X6452863Y-9459160D02*
X6443339Y-9449636D01*
X6443339Y-9449636D02*
X6433815Y-9430589D01*
X6433815Y-9430589D02*
X6433815Y-9373446D01*
X6433815Y-9373446D02*
X6443339Y-9354398D01*
X6443339Y-9354398D02*
X6452863Y-9344874D01*
X6452863Y-9344874D02*
X6471910Y-9335350D01*
X6471910Y-9335350D02*
X6500482Y-9335350D01*
X6500482Y-9335350D02*
X6519530Y-9344874D01*
X6519530Y-9344874D02*
X6529053Y-9354398D01*
X6529053Y-9354398D02*
X6538577Y-9373446D01*
X6538577Y-9373446D02*
X6538577Y-9430589D01*
X6538577Y-9430589D02*
X6529053Y-9449636D01*
X6529053Y-9449636D02*
X6519530Y-9459160D01*
X6519530Y-9459160D02*
X6500482Y-9468684D01*
X6500482Y-9468684D02*
X6471910Y-9468684D01*
X6652863Y-9468684D02*
X6633815Y-9459160D01*
X6633815Y-9459160D02*
X6624291Y-9440112D01*
X6624291Y-9440112D02*
X6624291Y-9268684D01*
X6805244Y-9459160D02*
X6786196Y-9468684D01*
X6786196Y-9468684D02*
X6748101Y-9468684D01*
X6748101Y-9468684D02*
X6729053Y-9459160D01*
X6729053Y-9459160D02*
X6719530Y-9440112D01*
X6719530Y-9440112D02*
X6719530Y-9363922D01*
X6719530Y-9363922D02*
X6729053Y-9344874D01*
X6729053Y-9344874D02*
X6748101Y-9335350D01*
X6748101Y-9335350D02*
X6786196Y-9335350D01*
X6786196Y-9335350D02*
X6805244Y-9344874D01*
X6805244Y-9344874D02*
X6814768Y-9363922D01*
X6814768Y-9363922D02*
X6814768Y-9382970D01*
X6814768Y-9382970D02*
X6719530Y-9402017D01*
X6890958Y-9459160D02*
X6910006Y-9468684D01*
X6910006Y-9468684D02*
X6948101Y-9468684D01*
X6948101Y-9468684D02*
X6967149Y-9459160D01*
X6967149Y-9459160D02*
X6976672Y-9440112D01*
X6976672Y-9440112D02*
X6976672Y-9430589D01*
X6976672Y-9430589D02*
X6967149Y-9411541D01*
X6967149Y-9411541D02*
X6948101Y-9402017D01*
X6948101Y-9402017D02*
X6919530Y-9402017D01*
X6919530Y-9402017D02*
X6900482Y-9392493D01*
X6900482Y-9392493D02*
X6890958Y-9373446D01*
X6890958Y-9373446D02*
X6890958Y-9363922D01*
X6890958Y-9363922D02*
X6900482Y-9344874D01*
X6900482Y-9344874D02*
X6919530Y-9335350D01*
X6919530Y-9335350D02*
X6948101Y-9335350D01*
X6948101Y-9335350D02*
X6967149Y-9344874D01*
X7043339Y-9544874D02*
X7052863Y-9535350D01*
X7052863Y-9535350D02*
X7071911Y-9506779D01*
X7071911Y-9506779D02*
X7081434Y-9487731D01*
X7081434Y-9487731D02*
X7090958Y-9459160D01*
X7090958Y-9459160D02*
X7100482Y-9411541D01*
X7100482Y-9411541D02*
X7100482Y-9373446D01*
X7100482Y-9373446D02*
X7090958Y-9325827D01*
X7090958Y-9325827D02*
X7081434Y-9297255D01*
X7081434Y-9297255D02*
X7071911Y-9278208D01*
X7071911Y-9278208D02*
X7052863Y-9249636D01*
X7052863Y-9249636D02*
X7043339Y-9240112D01*
D10*
X2064034Y-9674434D02*
X2064034Y-9607966D01*
X1997566Y-9607966D01*
X1997566Y-9674434D01*
X2064034Y-9674434D01*
D11*
X2376672Y-9532684D02*
X2395720Y-9532684D01*
X2395720Y-9532684D02*
X2414767Y-9542208D01*
X2414767Y-9542208D02*
X2424291Y-9551731D01*
X2424291Y-9551731D02*
X2433815Y-9570779D01*
X2433815Y-9570779D02*
X2443339Y-9608874D01*
X2443339Y-9608874D02*
X2443339Y-9656493D01*
X2443339Y-9656493D02*
X2433815Y-9694589D01*
X2433815Y-9694589D02*
X2424291Y-9713636D01*
X2424291Y-9713636D02*
X2414767Y-9723160D01*
X2414767Y-9723160D02*
X2395720Y-9732684D01*
X2395720Y-9732684D02*
X2376672Y-9732684D01*
X2376672Y-9732684D02*
X2357624Y-9723160D01*
X2357624Y-9723160D02*
X2348101Y-9713636D01*
X2348101Y-9713636D02*
X2338577Y-9694589D01*
X2338577Y-9694589D02*
X2329053Y-9656493D01*
X2329053Y-9656493D02*
X2329053Y-9608874D01*
X2329053Y-9608874D02*
X2338577Y-9570779D01*
X2338577Y-9570779D02*
X2348101Y-9551731D01*
X2348101Y-9551731D02*
X2357624Y-9542208D01*
X2357624Y-9542208D02*
X2376672Y-9532684D01*
X2529053Y-9713636D02*
X2538577Y-9723160D01*
X2538577Y-9723160D02*
X2529053Y-9732684D01*
X2529053Y-9732684D02*
X2519529Y-9723160D01*
X2519529Y-9723160D02*
X2529053Y-9713636D01*
X2529053Y-9713636D02*
X2529053Y-9732684D01*
X2633815Y-9732684D02*
X2671910Y-9732684D01*
X2671910Y-9732684D02*
X2690958Y-9723160D01*
X2690958Y-9723160D02*
X2700482Y-9713636D01*
X2700482Y-9713636D02*
X2719529Y-9685065D01*
X2719529Y-9685065D02*
X2729053Y-9646970D01*
X2729053Y-9646970D02*
X2729053Y-9570779D01*
X2729053Y-9570779D02*
X2719529Y-9551731D01*
X2719529Y-9551731D02*
X2710005Y-9542208D01*
X2710005Y-9542208D02*
X2690958Y-9532684D01*
X2690958Y-9532684D02*
X2652863Y-9532684D01*
X2652863Y-9532684D02*
X2633815Y-9542208D01*
X2633815Y-9542208D02*
X2624291Y-9551731D01*
X2624291Y-9551731D02*
X2614767Y-9570779D01*
X2614767Y-9570779D02*
X2614767Y-9618398D01*
X2614767Y-9618398D02*
X2624291Y-9637446D01*
X2624291Y-9637446D02*
X2633815Y-9646970D01*
X2633815Y-9646970D02*
X2652863Y-9656493D01*
X2652863Y-9656493D02*
X2690958Y-9656493D01*
X2690958Y-9656493D02*
X2710005Y-9646970D01*
X2710005Y-9646970D02*
X2719529Y-9637446D01*
X2719529Y-9637446D02*
X2729053Y-9618398D01*
X2900482Y-9599350D02*
X2900482Y-9732684D01*
X2852862Y-9523160D02*
X2805243Y-9666017D01*
X2805243Y-9666017D02*
X2929053Y-9666017D01*
X3043339Y-9532684D02*
X3062386Y-9532684D01*
X3062386Y-9532684D02*
X3081434Y-9542208D01*
X3081434Y-9542208D02*
X3090958Y-9551731D01*
X3090958Y-9551731D02*
X3100482Y-9570779D01*
X3100482Y-9570779D02*
X3110005Y-9608874D01*
X3110005Y-9608874D02*
X3110005Y-9656493D01*
X3110005Y-9656493D02*
X3100482Y-9694589D01*
X3100482Y-9694589D02*
X3090958Y-9713636D01*
X3090958Y-9713636D02*
X3081434Y-9723160D01*
X3081434Y-9723160D02*
X3062386Y-9732684D01*
X3062386Y-9732684D02*
X3043339Y-9732684D01*
X3043339Y-9732684D02*
X3024291Y-9723160D01*
X3024291Y-9723160D02*
X3014767Y-9713636D01*
X3014767Y-9713636D02*
X3005243Y-9694589D01*
X3005243Y-9694589D02*
X2995720Y-9656493D01*
X2995720Y-9656493D02*
X2995720Y-9608874D01*
X2995720Y-9608874D02*
X3005243Y-9570779D01*
X3005243Y-9570779D02*
X3014767Y-9551731D01*
X3014767Y-9551731D02*
X3024291Y-9542208D01*
X3024291Y-9542208D02*
X3043339Y-9532684D01*
X3195720Y-9732684D02*
X3195720Y-9599350D01*
X3195720Y-9618398D02*
X3205243Y-9608874D01*
X3205243Y-9608874D02*
X3224291Y-9599350D01*
X3224291Y-9599350D02*
X3252863Y-9599350D01*
X3252863Y-9599350D02*
X3271910Y-9608874D01*
X3271910Y-9608874D02*
X3281434Y-9627922D01*
X3281434Y-9627922D02*
X3281434Y-9732684D01*
X3281434Y-9627922D02*
X3290958Y-9608874D01*
X3290958Y-9608874D02*
X3310005Y-9599350D01*
X3310005Y-9599350D02*
X3338577Y-9599350D01*
X3338577Y-9599350D02*
X3357624Y-9608874D01*
X3357624Y-9608874D02*
X3367148Y-9627922D01*
X3367148Y-9627922D02*
X3367148Y-9732684D01*
X3462386Y-9732684D02*
X3462386Y-9599350D01*
X3462386Y-9618398D02*
X3471910Y-9608874D01*
X3471910Y-9608874D02*
X3490958Y-9599350D01*
X3490958Y-9599350D02*
X3519529Y-9599350D01*
X3519529Y-9599350D02*
X3538577Y-9608874D01*
X3538577Y-9608874D02*
X3548101Y-9627922D01*
X3548101Y-9627922D02*
X3548101Y-9732684D01*
X3548101Y-9627922D02*
X3557624Y-9608874D01*
X3557624Y-9608874D02*
X3576672Y-9599350D01*
X3576672Y-9599350D02*
X3605243Y-9599350D01*
X3605243Y-9599350D02*
X3624291Y-9608874D01*
X3624291Y-9608874D02*
X3633815Y-9627922D01*
X3633815Y-9627922D02*
X3633815Y-9732684D01*
X4024291Y-9523160D02*
X3852863Y-9780303D01*
X4281434Y-9532684D02*
X4300482Y-9532684D01*
X4300482Y-9532684D02*
X4319529Y-9542208D01*
X4319529Y-9542208D02*
X4329053Y-9551731D01*
X4329053Y-9551731D02*
X4338577Y-9570779D01*
X4338577Y-9570779D02*
X4348101Y-9608874D01*
X4348101Y-9608874D02*
X4348101Y-9656493D01*
X4348101Y-9656493D02*
X4338577Y-9694589D01*
X4338577Y-9694589D02*
X4329053Y-9713636D01*
X4329053Y-9713636D02*
X4319529Y-9723160D01*
X4319529Y-9723160D02*
X4300482Y-9732684D01*
X4300482Y-9732684D02*
X4281434Y-9732684D01*
X4281434Y-9732684D02*
X4262387Y-9723160D01*
X4262387Y-9723160D02*
X4252863Y-9713636D01*
X4252863Y-9713636D02*
X4243339Y-9694589D01*
X4243339Y-9694589D02*
X4233815Y-9656493D01*
X4233815Y-9656493D02*
X4233815Y-9608874D01*
X4233815Y-9608874D02*
X4243339Y-9570779D01*
X4243339Y-9570779D02*
X4252863Y-9551731D01*
X4252863Y-9551731D02*
X4262387Y-9542208D01*
X4262387Y-9542208D02*
X4281434Y-9532684D01*
X4433815Y-9713636D02*
X4443339Y-9723160D01*
X4443339Y-9723160D02*
X4433815Y-9732684D01*
X4433815Y-9732684D02*
X4424291Y-9723160D01*
X4424291Y-9723160D02*
X4433815Y-9713636D01*
X4433815Y-9713636D02*
X4433815Y-9732684D01*
X4567148Y-9532684D02*
X4586196Y-9532684D01*
X4586196Y-9532684D02*
X4605244Y-9542208D01*
X4605244Y-9542208D02*
X4614768Y-9551731D01*
X4614768Y-9551731D02*
X4624291Y-9570779D01*
X4624291Y-9570779D02*
X4633815Y-9608874D01*
X4633815Y-9608874D02*
X4633815Y-9656493D01*
X4633815Y-9656493D02*
X4624291Y-9694589D01*
X4624291Y-9694589D02*
X4614768Y-9713636D01*
X4614768Y-9713636D02*
X4605244Y-9723160D01*
X4605244Y-9723160D02*
X4586196Y-9732684D01*
X4586196Y-9732684D02*
X4567148Y-9732684D01*
X4567148Y-9732684D02*
X4548101Y-9723160D01*
X4548101Y-9723160D02*
X4538577Y-9713636D01*
X4538577Y-9713636D02*
X4529053Y-9694589D01*
X4529053Y-9694589D02*
X4519529Y-9656493D01*
X4519529Y-9656493D02*
X4519529Y-9608874D01*
X4519529Y-9608874D02*
X4529053Y-9570779D01*
X4529053Y-9570779D02*
X4538577Y-9551731D01*
X4538577Y-9551731D02*
X4548101Y-9542208D01*
X4548101Y-9542208D02*
X4567148Y-9532684D01*
X4700482Y-9532684D02*
X4824291Y-9532684D01*
X4824291Y-9532684D02*
X4757625Y-9608874D01*
X4757625Y-9608874D02*
X4786196Y-9608874D01*
X4786196Y-9608874D02*
X4805244Y-9618398D01*
X4805244Y-9618398D02*
X4814768Y-9627922D01*
X4814768Y-9627922D02*
X4824291Y-9646970D01*
X4824291Y-9646970D02*
X4824291Y-9694589D01*
X4824291Y-9694589D02*
X4814768Y-9713636D01*
X4814768Y-9713636D02*
X4805244Y-9723160D01*
X4805244Y-9723160D02*
X4786196Y-9732684D01*
X4786196Y-9732684D02*
X4729053Y-9732684D01*
X4729053Y-9732684D02*
X4710006Y-9723160D01*
X4710006Y-9723160D02*
X4700482Y-9713636D01*
X4890958Y-9532684D02*
X5024291Y-9532684D01*
X5024291Y-9532684D02*
X4938577Y-9732684D01*
X5138577Y-9532684D02*
X5157625Y-9532684D01*
X5157625Y-9532684D02*
X5176672Y-9542208D01*
X5176672Y-9542208D02*
X5186196Y-9551731D01*
X5186196Y-9551731D02*
X5195720Y-9570779D01*
X5195720Y-9570779D02*
X5205244Y-9608874D01*
X5205244Y-9608874D02*
X5205244Y-9656493D01*
X5205244Y-9656493D02*
X5195720Y-9694589D01*
X5195720Y-9694589D02*
X5186196Y-9713636D01*
X5186196Y-9713636D02*
X5176672Y-9723160D01*
X5176672Y-9723160D02*
X5157625Y-9732684D01*
X5157625Y-9732684D02*
X5138577Y-9732684D01*
X5138577Y-9732684D02*
X5119529Y-9723160D01*
X5119529Y-9723160D02*
X5110006Y-9713636D01*
X5110006Y-9713636D02*
X5100482Y-9694589D01*
X5100482Y-9694589D02*
X5090958Y-9656493D01*
X5090958Y-9656493D02*
X5090958Y-9608874D01*
X5090958Y-9608874D02*
X5100482Y-9570779D01*
X5100482Y-9570779D02*
X5110006Y-9551731D01*
X5110006Y-9551731D02*
X5119529Y-9542208D01*
X5119529Y-9542208D02*
X5138577Y-9532684D01*
X5281434Y-9532684D02*
X5281434Y-9570779D01*
X5357625Y-9532684D02*
X5357625Y-9570779D01*
X5652863Y-9808874D02*
X5643339Y-9799350D01*
X5643339Y-9799350D02*
X5624291Y-9770779D01*
X5624291Y-9770779D02*
X5614768Y-9751731D01*
X5614768Y-9751731D02*
X5605244Y-9723160D01*
X5605244Y-9723160D02*
X5595720Y-9675541D01*
X5595720Y-9675541D02*
X5595720Y-9637446D01*
X5595720Y-9637446D02*
X5605244Y-9589827D01*
X5605244Y-9589827D02*
X5614768Y-9561255D01*
X5614768Y-9561255D02*
X5624291Y-9542208D01*
X5624291Y-9542208D02*
X5643339Y-9513636D01*
X5643339Y-9513636D02*
X5652863Y-9504112D01*
X5710006Y-9532684D02*
X5833815Y-9532684D01*
X5833815Y-9532684D02*
X5767148Y-9608874D01*
X5767148Y-9608874D02*
X5795720Y-9608874D01*
X5795720Y-9608874D02*
X5814768Y-9618398D01*
X5814768Y-9618398D02*
X5824291Y-9627922D01*
X5824291Y-9627922D02*
X5833815Y-9646970D01*
X5833815Y-9646970D02*
X5833815Y-9694589D01*
X5833815Y-9694589D02*
X5824291Y-9713636D01*
X5824291Y-9713636D02*
X5814768Y-9723160D01*
X5814768Y-9723160D02*
X5795720Y-9732684D01*
X5795720Y-9732684D02*
X5738577Y-9732684D01*
X5738577Y-9732684D02*
X5719529Y-9723160D01*
X5719529Y-9723160D02*
X5710006Y-9713636D01*
X6071910Y-9732684D02*
X6071910Y-9532684D01*
X6157625Y-9732684D02*
X6157625Y-9627922D01*
X6157625Y-9627922D02*
X6148101Y-9608874D01*
X6148101Y-9608874D02*
X6129053Y-9599350D01*
X6129053Y-9599350D02*
X6100482Y-9599350D01*
X6100482Y-9599350D02*
X6081434Y-9608874D01*
X6081434Y-9608874D02*
X6071910Y-9618398D01*
X6281434Y-9732684D02*
X6262387Y-9723160D01*
X6262387Y-9723160D02*
X6252863Y-9713636D01*
X6252863Y-9713636D02*
X6243339Y-9694589D01*
X6243339Y-9694589D02*
X6243339Y-9637446D01*
X6243339Y-9637446D02*
X6252863Y-9618398D01*
X6252863Y-9618398D02*
X6262387Y-9608874D01*
X6262387Y-9608874D02*
X6281434Y-9599350D01*
X6281434Y-9599350D02*
X6310006Y-9599350D01*
X6310006Y-9599350D02*
X6329053Y-9608874D01*
X6329053Y-9608874D02*
X6338577Y-9618398D01*
X6338577Y-9618398D02*
X6348101Y-9637446D01*
X6348101Y-9637446D02*
X6348101Y-9694589D01*
X6348101Y-9694589D02*
X6338577Y-9713636D01*
X6338577Y-9713636D02*
X6329053Y-9723160D01*
X6329053Y-9723160D02*
X6310006Y-9732684D01*
X6310006Y-9732684D02*
X6281434Y-9732684D01*
X6462387Y-9732684D02*
X6443339Y-9723160D01*
X6443339Y-9723160D02*
X6433815Y-9704112D01*
X6433815Y-9704112D02*
X6433815Y-9532684D01*
X6614768Y-9723160D02*
X6595720Y-9732684D01*
X6595720Y-9732684D02*
X6557625Y-9732684D01*
X6557625Y-9732684D02*
X6538577Y-9723160D01*
X6538577Y-9723160D02*
X6529053Y-9704112D01*
X6529053Y-9704112D02*
X6529053Y-9627922D01*
X6529053Y-9627922D02*
X6538577Y-9608874D01*
X6538577Y-9608874D02*
X6557625Y-9599350D01*
X6557625Y-9599350D02*
X6595720Y-9599350D01*
X6595720Y-9599350D02*
X6614768Y-9608874D01*
X6614768Y-9608874D02*
X6624291Y-9627922D01*
X6624291Y-9627922D02*
X6624291Y-9646970D01*
X6624291Y-9646970D02*
X6529053Y-9666017D01*
X6700482Y-9723160D02*
X6719530Y-9732684D01*
X6719530Y-9732684D02*
X6757625Y-9732684D01*
X6757625Y-9732684D02*
X6776672Y-9723160D01*
X6776672Y-9723160D02*
X6786196Y-9704112D01*
X6786196Y-9704112D02*
X6786196Y-9694589D01*
X6786196Y-9694589D02*
X6776672Y-9675541D01*
X6776672Y-9675541D02*
X6757625Y-9666017D01*
X6757625Y-9666017D02*
X6729053Y-9666017D01*
X6729053Y-9666017D02*
X6710006Y-9656493D01*
X6710006Y-9656493D02*
X6700482Y-9637446D01*
X6700482Y-9637446D02*
X6700482Y-9627922D01*
X6700482Y-9627922D02*
X6710006Y-9608874D01*
X6710006Y-9608874D02*
X6729053Y-9599350D01*
X6729053Y-9599350D02*
X6757625Y-9599350D01*
X6757625Y-9599350D02*
X6776672Y-9608874D01*
X6852863Y-9808874D02*
X6862387Y-9799350D01*
X6862387Y-9799350D02*
X6881434Y-9770779D01*
X6881434Y-9770779D02*
X6890958Y-9751731D01*
X6890958Y-9751731D02*
X6900482Y-9723160D01*
X6900482Y-9723160D02*
X6910006Y-9675541D01*
X6910006Y-9675541D02*
X6910006Y-9637446D01*
X6910006Y-9637446D02*
X6900482Y-9589827D01*
X6900482Y-9589827D02*
X6890958Y-9561255D01*
X6890958Y-9561255D02*
X6881434Y-9542208D01*
X6881434Y-9542208D02*
X6862387Y-9513636D01*
X6862387Y-9513636D02*
X6852863Y-9504112D01*
D10*
X2027800Y-9955200D02*
X2077800Y-9905200D01*
X2027800Y-9855200D01*
X1977800Y-9905200D01*
X2027800Y-9955200D01*
D11*
X2443339Y-9996684D02*
X2329053Y-9996684D01*
X2386196Y-9996684D02*
X2386196Y-9796684D01*
X2386196Y-9796684D02*
X2367148Y-9825255D01*
X2367148Y-9825255D02*
X2348101Y-9844303D01*
X2348101Y-9844303D02*
X2329053Y-9853827D01*
X2529053Y-9977636D02*
X2538577Y-9987160D01*
X2538577Y-9987160D02*
X2529053Y-9996684D01*
X2529053Y-9996684D02*
X2519529Y-9987160D01*
X2519529Y-9987160D02*
X2529053Y-9977636D01*
X2529053Y-9977636D02*
X2529053Y-9996684D01*
X2662386Y-9796684D02*
X2681434Y-9796684D01*
X2681434Y-9796684D02*
X2700482Y-9806208D01*
X2700482Y-9806208D02*
X2710005Y-9815731D01*
X2710005Y-9815731D02*
X2719529Y-9834779D01*
X2719529Y-9834779D02*
X2729053Y-9872874D01*
X2729053Y-9872874D02*
X2729053Y-9920493D01*
X2729053Y-9920493D02*
X2719529Y-9958589D01*
X2719529Y-9958589D02*
X2710005Y-9977636D01*
X2710005Y-9977636D02*
X2700482Y-9987160D01*
X2700482Y-9987160D02*
X2681434Y-9996684D01*
X2681434Y-9996684D02*
X2662386Y-9996684D01*
X2662386Y-9996684D02*
X2643339Y-9987160D01*
X2643339Y-9987160D02*
X2633815Y-9977636D01*
X2633815Y-9977636D02*
X2624291Y-9958589D01*
X2624291Y-9958589D02*
X2614767Y-9920493D01*
X2614767Y-9920493D02*
X2614767Y-9872874D01*
X2614767Y-9872874D02*
X2624291Y-9834779D01*
X2624291Y-9834779D02*
X2633815Y-9815731D01*
X2633815Y-9815731D02*
X2643339Y-9806208D01*
X2643339Y-9806208D02*
X2662386Y-9796684D01*
X2852862Y-9796684D02*
X2871910Y-9796684D01*
X2871910Y-9796684D02*
X2890958Y-9806208D01*
X2890958Y-9806208D02*
X2900482Y-9815731D01*
X2900482Y-9815731D02*
X2910005Y-9834779D01*
X2910005Y-9834779D02*
X2919529Y-9872874D01*
X2919529Y-9872874D02*
X2919529Y-9920493D01*
X2919529Y-9920493D02*
X2910005Y-9958589D01*
X2910005Y-9958589D02*
X2900482Y-9977636D01*
X2900482Y-9977636D02*
X2890958Y-9987160D01*
X2890958Y-9987160D02*
X2871910Y-9996684D01*
X2871910Y-9996684D02*
X2852862Y-9996684D01*
X2852862Y-9996684D02*
X2833815Y-9987160D01*
X2833815Y-9987160D02*
X2824291Y-9977636D01*
X2824291Y-9977636D02*
X2814767Y-9958589D01*
X2814767Y-9958589D02*
X2805243Y-9920493D01*
X2805243Y-9920493D02*
X2805243Y-9872874D01*
X2805243Y-9872874D02*
X2814767Y-9834779D01*
X2814767Y-9834779D02*
X2824291Y-9815731D01*
X2824291Y-9815731D02*
X2833815Y-9806208D01*
X2833815Y-9806208D02*
X2852862Y-9796684D01*
X3043339Y-9796684D02*
X3062386Y-9796684D01*
X3062386Y-9796684D02*
X3081434Y-9806208D01*
X3081434Y-9806208D02*
X3090958Y-9815731D01*
X3090958Y-9815731D02*
X3100482Y-9834779D01*
X3100482Y-9834779D02*
X3110005Y-9872874D01*
X3110005Y-9872874D02*
X3110005Y-9920493D01*
X3110005Y-9920493D02*
X3100482Y-9958589D01*
X3100482Y-9958589D02*
X3090958Y-9977636D01*
X3090958Y-9977636D02*
X3081434Y-9987160D01*
X3081434Y-9987160D02*
X3062386Y-9996684D01*
X3062386Y-9996684D02*
X3043339Y-9996684D01*
X3043339Y-9996684D02*
X3024291Y-9987160D01*
X3024291Y-9987160D02*
X3014767Y-9977636D01*
X3014767Y-9977636D02*
X3005243Y-9958589D01*
X3005243Y-9958589D02*
X2995720Y-9920493D01*
X2995720Y-9920493D02*
X2995720Y-9872874D01*
X2995720Y-9872874D02*
X3005243Y-9834779D01*
X3005243Y-9834779D02*
X3014767Y-9815731D01*
X3014767Y-9815731D02*
X3024291Y-9806208D01*
X3024291Y-9806208D02*
X3043339Y-9796684D01*
X3195720Y-9996684D02*
X3195720Y-9863350D01*
X3195720Y-9882398D02*
X3205243Y-9872874D01*
X3205243Y-9872874D02*
X3224291Y-9863350D01*
X3224291Y-9863350D02*
X3252863Y-9863350D01*
X3252863Y-9863350D02*
X3271910Y-9872874D01*
X3271910Y-9872874D02*
X3281434Y-9891922D01*
X3281434Y-9891922D02*
X3281434Y-9996684D01*
X3281434Y-9891922D02*
X3290958Y-9872874D01*
X3290958Y-9872874D02*
X3310005Y-9863350D01*
X3310005Y-9863350D02*
X3338577Y-9863350D01*
X3338577Y-9863350D02*
X3357624Y-9872874D01*
X3357624Y-9872874D02*
X3367148Y-9891922D01*
X3367148Y-9891922D02*
X3367148Y-9996684D01*
X3462386Y-9996684D02*
X3462386Y-9863350D01*
X3462386Y-9882398D02*
X3471910Y-9872874D01*
X3471910Y-9872874D02*
X3490958Y-9863350D01*
X3490958Y-9863350D02*
X3519529Y-9863350D01*
X3519529Y-9863350D02*
X3538577Y-9872874D01*
X3538577Y-9872874D02*
X3548101Y-9891922D01*
X3548101Y-9891922D02*
X3548101Y-9996684D01*
X3548101Y-9891922D02*
X3557624Y-9872874D01*
X3557624Y-9872874D02*
X3576672Y-9863350D01*
X3576672Y-9863350D02*
X3605243Y-9863350D01*
X3605243Y-9863350D02*
X3624291Y-9872874D01*
X3624291Y-9872874D02*
X3633815Y-9891922D01*
X3633815Y-9891922D02*
X3633815Y-9996684D01*
X4024291Y-9787160D02*
X3852863Y-10044303D01*
X4281434Y-9796684D02*
X4300482Y-9796684D01*
X4300482Y-9796684D02*
X4319529Y-9806208D01*
X4319529Y-9806208D02*
X4329053Y-9815731D01*
X4329053Y-9815731D02*
X4338577Y-9834779D01*
X4338577Y-9834779D02*
X4348101Y-9872874D01*
X4348101Y-9872874D02*
X4348101Y-9920493D01*
X4348101Y-9920493D02*
X4338577Y-9958589D01*
X4338577Y-9958589D02*
X4329053Y-9977636D01*
X4329053Y-9977636D02*
X4319529Y-9987160D01*
X4319529Y-9987160D02*
X4300482Y-9996684D01*
X4300482Y-9996684D02*
X4281434Y-9996684D01*
X4281434Y-9996684D02*
X4262387Y-9987160D01*
X4262387Y-9987160D02*
X4252863Y-9977636D01*
X4252863Y-9977636D02*
X4243339Y-9958589D01*
X4243339Y-9958589D02*
X4233815Y-9920493D01*
X4233815Y-9920493D02*
X4233815Y-9872874D01*
X4233815Y-9872874D02*
X4243339Y-9834779D01*
X4243339Y-9834779D02*
X4252863Y-9815731D01*
X4252863Y-9815731D02*
X4262387Y-9806208D01*
X4262387Y-9806208D02*
X4281434Y-9796684D01*
X4433815Y-9977636D02*
X4443339Y-9987160D01*
X4443339Y-9987160D02*
X4433815Y-9996684D01*
X4433815Y-9996684D02*
X4424291Y-9987160D01*
X4424291Y-9987160D02*
X4433815Y-9977636D01*
X4433815Y-9977636D02*
X4433815Y-9996684D01*
X4567148Y-9796684D02*
X4586196Y-9796684D01*
X4586196Y-9796684D02*
X4605244Y-9806208D01*
X4605244Y-9806208D02*
X4614768Y-9815731D01*
X4614768Y-9815731D02*
X4624291Y-9834779D01*
X4624291Y-9834779D02*
X4633815Y-9872874D01*
X4633815Y-9872874D02*
X4633815Y-9920493D01*
X4633815Y-9920493D02*
X4624291Y-9958589D01*
X4624291Y-9958589D02*
X4614768Y-9977636D01*
X4614768Y-9977636D02*
X4605244Y-9987160D01*
X4605244Y-9987160D02*
X4586196Y-9996684D01*
X4586196Y-9996684D02*
X4567148Y-9996684D01*
X4567148Y-9996684D02*
X4548101Y-9987160D01*
X4548101Y-9987160D02*
X4538577Y-9977636D01*
X4538577Y-9977636D02*
X4529053Y-9958589D01*
X4529053Y-9958589D02*
X4519529Y-9920493D01*
X4519529Y-9920493D02*
X4519529Y-9872874D01*
X4519529Y-9872874D02*
X4529053Y-9834779D01*
X4529053Y-9834779D02*
X4538577Y-9815731D01*
X4538577Y-9815731D02*
X4548101Y-9806208D01*
X4548101Y-9806208D02*
X4567148Y-9796684D01*
X4700482Y-9796684D02*
X4824291Y-9796684D01*
X4824291Y-9796684D02*
X4757625Y-9872874D01*
X4757625Y-9872874D02*
X4786196Y-9872874D01*
X4786196Y-9872874D02*
X4805244Y-9882398D01*
X4805244Y-9882398D02*
X4814768Y-9891922D01*
X4814768Y-9891922D02*
X4824291Y-9910970D01*
X4824291Y-9910970D02*
X4824291Y-9958589D01*
X4824291Y-9958589D02*
X4814768Y-9977636D01*
X4814768Y-9977636D02*
X4805244Y-9987160D01*
X4805244Y-9987160D02*
X4786196Y-9996684D01*
X4786196Y-9996684D02*
X4729053Y-9996684D01*
X4729053Y-9996684D02*
X4710006Y-9987160D01*
X4710006Y-9987160D02*
X4700482Y-9977636D01*
X4919529Y-9996684D02*
X4957625Y-9996684D01*
X4957625Y-9996684D02*
X4976672Y-9987160D01*
X4976672Y-9987160D02*
X4986196Y-9977636D01*
X4986196Y-9977636D02*
X5005244Y-9949065D01*
X5005244Y-9949065D02*
X5014768Y-9910970D01*
X5014768Y-9910970D02*
X5014768Y-9834779D01*
X5014768Y-9834779D02*
X5005244Y-9815731D01*
X5005244Y-9815731D02*
X4995720Y-9806208D01*
X4995720Y-9806208D02*
X4976672Y-9796684D01*
X4976672Y-9796684D02*
X4938577Y-9796684D01*
X4938577Y-9796684D02*
X4919529Y-9806208D01*
X4919529Y-9806208D02*
X4910006Y-9815731D01*
X4910006Y-9815731D02*
X4900482Y-9834779D01*
X4900482Y-9834779D02*
X4900482Y-9882398D01*
X4900482Y-9882398D02*
X4910006Y-9901446D01*
X4910006Y-9901446D02*
X4919529Y-9910970D01*
X4919529Y-9910970D02*
X4938577Y-9920493D01*
X4938577Y-9920493D02*
X4976672Y-9920493D01*
X4976672Y-9920493D02*
X4995720Y-9910970D01*
X4995720Y-9910970D02*
X5005244Y-9901446D01*
X5005244Y-9901446D02*
X5014768Y-9882398D01*
X5186196Y-9863350D02*
X5186196Y-9996684D01*
X5138577Y-9787160D02*
X5090958Y-9930017D01*
X5090958Y-9930017D02*
X5214768Y-9930017D01*
X5281434Y-9796684D02*
X5281434Y-9834779D01*
X5357625Y-9796684D02*
X5357625Y-9834779D01*
X5652863Y-10072874D02*
X5643339Y-10063350D01*
X5643339Y-10063350D02*
X5624291Y-10034779D01*
X5624291Y-10034779D02*
X5614768Y-10015731D01*
X5614768Y-10015731D02*
X5605244Y-9987160D01*
X5605244Y-9987160D02*
X5595720Y-9939541D01*
X5595720Y-9939541D02*
X5595720Y-9901446D01*
X5595720Y-9901446D02*
X5605244Y-9853827D01*
X5605244Y-9853827D02*
X5614768Y-9825255D01*
X5614768Y-9825255D02*
X5624291Y-9806208D01*
X5624291Y-9806208D02*
X5643339Y-9777636D01*
X5643339Y-9777636D02*
X5652863Y-9768112D01*
X5710006Y-9796684D02*
X5833815Y-9796684D01*
X5833815Y-9796684D02*
X5767148Y-9872874D01*
X5767148Y-9872874D02*
X5795720Y-9872874D01*
X5795720Y-9872874D02*
X5814768Y-9882398D01*
X5814768Y-9882398D02*
X5824291Y-9891922D01*
X5824291Y-9891922D02*
X5833815Y-9910970D01*
X5833815Y-9910970D02*
X5833815Y-9958589D01*
X5833815Y-9958589D02*
X5824291Y-9977636D01*
X5824291Y-9977636D02*
X5814768Y-9987160D01*
X5814768Y-9987160D02*
X5795720Y-9996684D01*
X5795720Y-9996684D02*
X5738577Y-9996684D01*
X5738577Y-9996684D02*
X5719529Y-9987160D01*
X5719529Y-9987160D02*
X5710006Y-9977636D01*
X5910006Y-9815731D02*
X5919529Y-9806208D01*
X5919529Y-9806208D02*
X5938577Y-9796684D01*
X5938577Y-9796684D02*
X5986196Y-9796684D01*
X5986196Y-9796684D02*
X6005244Y-9806208D01*
X6005244Y-9806208D02*
X6014768Y-9815731D01*
X6014768Y-9815731D02*
X6024291Y-9834779D01*
X6024291Y-9834779D02*
X6024291Y-9853827D01*
X6024291Y-9853827D02*
X6014768Y-9882398D01*
X6014768Y-9882398D02*
X5900482Y-9996684D01*
X5900482Y-9996684D02*
X6024291Y-9996684D01*
X6262387Y-9996684D02*
X6262387Y-9796684D01*
X6348101Y-9996684D02*
X6348101Y-9891922D01*
X6348101Y-9891922D02*
X6338577Y-9872874D01*
X6338577Y-9872874D02*
X6319530Y-9863350D01*
X6319530Y-9863350D02*
X6290958Y-9863350D01*
X6290958Y-9863350D02*
X6271910Y-9872874D01*
X6271910Y-9872874D02*
X6262387Y-9882398D01*
X6471910Y-9996684D02*
X6452863Y-9987160D01*
X6452863Y-9987160D02*
X6443339Y-9977636D01*
X6443339Y-9977636D02*
X6433815Y-9958589D01*
X6433815Y-9958589D02*
X6433815Y-9901446D01*
X6433815Y-9901446D02*
X6443339Y-9882398D01*
X6443339Y-9882398D02*
X6452863Y-9872874D01*
X6452863Y-9872874D02*
X6471910Y-9863350D01*
X6471910Y-9863350D02*
X6500482Y-9863350D01*
X6500482Y-9863350D02*
X6519530Y-9872874D01*
X6519530Y-9872874D02*
X6529053Y-9882398D01*
X6529053Y-9882398D02*
X6538577Y-9901446D01*
X6538577Y-9901446D02*
X6538577Y-9958589D01*
X6538577Y-9958589D02*
X6529053Y-9977636D01*
X6529053Y-9977636D02*
X6519530Y-9987160D01*
X6519530Y-9987160D02*
X6500482Y-9996684D01*
X6500482Y-9996684D02*
X6471910Y-9996684D01*
X6652863Y-9996684D02*
X6633815Y-9987160D01*
X6633815Y-9987160D02*
X6624291Y-9968112D01*
X6624291Y-9968112D02*
X6624291Y-9796684D01*
X6805244Y-9987160D02*
X6786196Y-9996684D01*
X6786196Y-9996684D02*
X6748101Y-9996684D01*
X6748101Y-9996684D02*
X6729053Y-9987160D01*
X6729053Y-9987160D02*
X6719530Y-9968112D01*
X6719530Y-9968112D02*
X6719530Y-9891922D01*
X6719530Y-9891922D02*
X6729053Y-9872874D01*
X6729053Y-9872874D02*
X6748101Y-9863350D01*
X6748101Y-9863350D02*
X6786196Y-9863350D01*
X6786196Y-9863350D02*
X6805244Y-9872874D01*
X6805244Y-9872874D02*
X6814768Y-9891922D01*
X6814768Y-9891922D02*
X6814768Y-9910970D01*
X6814768Y-9910970D02*
X6719530Y-9930017D01*
X6890958Y-9987160D02*
X6910006Y-9996684D01*
X6910006Y-9996684D02*
X6948101Y-9996684D01*
X6948101Y-9996684D02*
X6967149Y-9987160D01*
X6967149Y-9987160D02*
X6976672Y-9968112D01*
X6976672Y-9968112D02*
X6976672Y-9958589D01*
X6976672Y-9958589D02*
X6967149Y-9939541D01*
X6967149Y-9939541D02*
X6948101Y-9930017D01*
X6948101Y-9930017D02*
X6919530Y-9930017D01*
X6919530Y-9930017D02*
X6900482Y-9920493D01*
X6900482Y-9920493D02*
X6890958Y-9901446D01*
X6890958Y-9901446D02*
X6890958Y-9891922D01*
X6890958Y-9891922D02*
X6900482Y-9872874D01*
X6900482Y-9872874D02*
X6919530Y-9863350D01*
X6919530Y-9863350D02*
X6948101Y-9863350D01*
X6948101Y-9863350D02*
X6967149Y-9872874D01*
X7043339Y-10072874D02*
X7052863Y-10063350D01*
X7052863Y-10063350D02*
X7071911Y-10034779D01*
X7071911Y-10034779D02*
X7081434Y-10015731D01*
X7081434Y-10015731D02*
X7090958Y-9987160D01*
X7090958Y-9987160D02*
X7100482Y-9939541D01*
X7100482Y-9939541D02*
X7100482Y-9901446D01*
X7100482Y-9901446D02*
X7090958Y-9853827D01*
X7090958Y-9853827D02*
X7081434Y-9825255D01*
X7081434Y-9825255D02*
X7071911Y-9806208D01*
X7071911Y-9806208D02*
X7052863Y-9777636D01*
X7052863Y-9777636D02*
X7043339Y-9768112D01*
D12*
X1907800Y-10084200D02*
X2077800Y-10254200D01*
X2077800Y-10084200D02*
X1907800Y-10254200D01*
X2077800Y-10169200D02*
G75*
G03*
X1907800Y-10169200I-85000J0D01*
G01*
X1907800Y-10169200D02*
G75*
G03*
X2077800Y-10169200I85000J0D01*
G01*
D11*
X2443339Y-10260684D02*
X2329053Y-10260684D01*
X2386196Y-10260684D02*
X2386196Y-10060684D01*
X2386196Y-10060684D02*
X2367148Y-10089255D01*
X2367148Y-10089255D02*
X2348101Y-10108303D01*
X2348101Y-10108303D02*
X2329053Y-10117827D01*
X2529053Y-10241636D02*
X2538577Y-10251160D01*
X2538577Y-10251160D02*
X2529053Y-10260684D01*
X2529053Y-10260684D02*
X2519529Y-10251160D01*
X2519529Y-10251160D02*
X2529053Y-10241636D01*
X2529053Y-10241636D02*
X2529053Y-10260684D01*
X2605244Y-10060684D02*
X2738577Y-10060684D01*
X2738577Y-10060684D02*
X2652863Y-10260684D01*
X2852862Y-10060684D02*
X2871910Y-10060684D01*
X2871910Y-10060684D02*
X2890958Y-10070208D01*
X2890958Y-10070208D02*
X2900482Y-10079731D01*
X2900482Y-10079731D02*
X2910005Y-10098779D01*
X2910005Y-10098779D02*
X2919529Y-10136874D01*
X2919529Y-10136874D02*
X2919529Y-10184493D01*
X2919529Y-10184493D02*
X2910005Y-10222589D01*
X2910005Y-10222589D02*
X2900482Y-10241636D01*
X2900482Y-10241636D02*
X2890958Y-10251160D01*
X2890958Y-10251160D02*
X2871910Y-10260684D01*
X2871910Y-10260684D02*
X2852862Y-10260684D01*
X2852862Y-10260684D02*
X2833815Y-10251160D01*
X2833815Y-10251160D02*
X2824291Y-10241636D01*
X2824291Y-10241636D02*
X2814767Y-10222589D01*
X2814767Y-10222589D02*
X2805243Y-10184493D01*
X2805243Y-10184493D02*
X2805243Y-10136874D01*
X2805243Y-10136874D02*
X2814767Y-10098779D01*
X2814767Y-10098779D02*
X2824291Y-10079731D01*
X2824291Y-10079731D02*
X2833815Y-10070208D01*
X2833815Y-10070208D02*
X2852862Y-10060684D01*
X3043339Y-10060684D02*
X3062386Y-10060684D01*
X3062386Y-10060684D02*
X3081434Y-10070208D01*
X3081434Y-10070208D02*
X3090958Y-10079731D01*
X3090958Y-10079731D02*
X3100482Y-10098779D01*
X3100482Y-10098779D02*
X3110005Y-10136874D01*
X3110005Y-10136874D02*
X3110005Y-10184493D01*
X3110005Y-10184493D02*
X3100482Y-10222589D01*
X3100482Y-10222589D02*
X3090958Y-10241636D01*
X3090958Y-10241636D02*
X3081434Y-10251160D01*
X3081434Y-10251160D02*
X3062386Y-10260684D01*
X3062386Y-10260684D02*
X3043339Y-10260684D01*
X3043339Y-10260684D02*
X3024291Y-10251160D01*
X3024291Y-10251160D02*
X3014767Y-10241636D01*
X3014767Y-10241636D02*
X3005243Y-10222589D01*
X3005243Y-10222589D02*
X2995720Y-10184493D01*
X2995720Y-10184493D02*
X2995720Y-10136874D01*
X2995720Y-10136874D02*
X3005243Y-10098779D01*
X3005243Y-10098779D02*
X3014767Y-10079731D01*
X3014767Y-10079731D02*
X3024291Y-10070208D01*
X3024291Y-10070208D02*
X3043339Y-10060684D01*
X3195720Y-10260684D02*
X3195720Y-10127350D01*
X3195720Y-10146398D02*
X3205243Y-10136874D01*
X3205243Y-10136874D02*
X3224291Y-10127350D01*
X3224291Y-10127350D02*
X3252863Y-10127350D01*
X3252863Y-10127350D02*
X3271910Y-10136874D01*
X3271910Y-10136874D02*
X3281434Y-10155922D01*
X3281434Y-10155922D02*
X3281434Y-10260684D01*
X3281434Y-10155922D02*
X3290958Y-10136874D01*
X3290958Y-10136874D02*
X3310005Y-10127350D01*
X3310005Y-10127350D02*
X3338577Y-10127350D01*
X3338577Y-10127350D02*
X3357624Y-10136874D01*
X3357624Y-10136874D02*
X3367148Y-10155922D01*
X3367148Y-10155922D02*
X3367148Y-10260684D01*
X3462386Y-10260684D02*
X3462386Y-10127350D01*
X3462386Y-10146398D02*
X3471910Y-10136874D01*
X3471910Y-10136874D02*
X3490958Y-10127350D01*
X3490958Y-10127350D02*
X3519529Y-10127350D01*
X3519529Y-10127350D02*
X3538577Y-10136874D01*
X3538577Y-10136874D02*
X3548101Y-10155922D01*
X3548101Y-10155922D02*
X3548101Y-10260684D01*
X3548101Y-10155922D02*
X3557624Y-10136874D01*
X3557624Y-10136874D02*
X3576672Y-10127350D01*
X3576672Y-10127350D02*
X3605243Y-10127350D01*
X3605243Y-10127350D02*
X3624291Y-10136874D01*
X3624291Y-10136874D02*
X3633815Y-10155922D01*
X3633815Y-10155922D02*
X3633815Y-10260684D01*
X4024291Y-10051160D02*
X3852863Y-10308303D01*
X4281434Y-10060684D02*
X4300482Y-10060684D01*
X4300482Y-10060684D02*
X4319529Y-10070208D01*
X4319529Y-10070208D02*
X4329053Y-10079731D01*
X4329053Y-10079731D02*
X4338577Y-10098779D01*
X4338577Y-10098779D02*
X4348101Y-10136874D01*
X4348101Y-10136874D02*
X4348101Y-10184493D01*
X4348101Y-10184493D02*
X4338577Y-10222589D01*
X4338577Y-10222589D02*
X4329053Y-10241636D01*
X4329053Y-10241636D02*
X4319529Y-10251160D01*
X4319529Y-10251160D02*
X4300482Y-10260684D01*
X4300482Y-10260684D02*
X4281434Y-10260684D01*
X4281434Y-10260684D02*
X4262387Y-10251160D01*
X4262387Y-10251160D02*
X4252863Y-10241636D01*
X4252863Y-10241636D02*
X4243339Y-10222589D01*
X4243339Y-10222589D02*
X4233815Y-10184493D01*
X4233815Y-10184493D02*
X4233815Y-10136874D01*
X4233815Y-10136874D02*
X4243339Y-10098779D01*
X4243339Y-10098779D02*
X4252863Y-10079731D01*
X4252863Y-10079731D02*
X4262387Y-10070208D01*
X4262387Y-10070208D02*
X4281434Y-10060684D01*
X4433815Y-10241636D02*
X4443339Y-10251160D01*
X4443339Y-10251160D02*
X4433815Y-10260684D01*
X4433815Y-10260684D02*
X4424291Y-10251160D01*
X4424291Y-10251160D02*
X4433815Y-10241636D01*
X4433815Y-10241636D02*
X4433815Y-10260684D01*
X4567148Y-10060684D02*
X4586196Y-10060684D01*
X4586196Y-10060684D02*
X4605244Y-10070208D01*
X4605244Y-10070208D02*
X4614768Y-10079731D01*
X4614768Y-10079731D02*
X4624291Y-10098779D01*
X4624291Y-10098779D02*
X4633815Y-10136874D01*
X4633815Y-10136874D02*
X4633815Y-10184493D01*
X4633815Y-10184493D02*
X4624291Y-10222589D01*
X4624291Y-10222589D02*
X4614768Y-10241636D01*
X4614768Y-10241636D02*
X4605244Y-10251160D01*
X4605244Y-10251160D02*
X4586196Y-10260684D01*
X4586196Y-10260684D02*
X4567148Y-10260684D01*
X4567148Y-10260684D02*
X4548101Y-10251160D01*
X4548101Y-10251160D02*
X4538577Y-10241636D01*
X4538577Y-10241636D02*
X4529053Y-10222589D01*
X4529053Y-10222589D02*
X4519529Y-10184493D01*
X4519529Y-10184493D02*
X4519529Y-10136874D01*
X4519529Y-10136874D02*
X4529053Y-10098779D01*
X4529053Y-10098779D02*
X4538577Y-10079731D01*
X4538577Y-10079731D02*
X4548101Y-10070208D01*
X4548101Y-10070208D02*
X4567148Y-10060684D01*
X4805244Y-10060684D02*
X4767148Y-10060684D01*
X4767148Y-10060684D02*
X4748101Y-10070208D01*
X4748101Y-10070208D02*
X4738577Y-10079731D01*
X4738577Y-10079731D02*
X4719529Y-10108303D01*
X4719529Y-10108303D02*
X4710006Y-10146398D01*
X4710006Y-10146398D02*
X4710006Y-10222589D01*
X4710006Y-10222589D02*
X4719529Y-10241636D01*
X4719529Y-10241636D02*
X4729053Y-10251160D01*
X4729053Y-10251160D02*
X4748101Y-10260684D01*
X4748101Y-10260684D02*
X4786196Y-10260684D01*
X4786196Y-10260684D02*
X4805244Y-10251160D01*
X4805244Y-10251160D02*
X4814768Y-10241636D01*
X4814768Y-10241636D02*
X4824291Y-10222589D01*
X4824291Y-10222589D02*
X4824291Y-10174970D01*
X4824291Y-10174970D02*
X4814768Y-10155922D01*
X4814768Y-10155922D02*
X4805244Y-10146398D01*
X4805244Y-10146398D02*
X4786196Y-10136874D01*
X4786196Y-10136874D02*
X4748101Y-10136874D01*
X4748101Y-10136874D02*
X4729053Y-10146398D01*
X4729053Y-10146398D02*
X4719529Y-10155922D01*
X4719529Y-10155922D02*
X4710006Y-10174970D01*
X4995720Y-10060684D02*
X4957625Y-10060684D01*
X4957625Y-10060684D02*
X4938577Y-10070208D01*
X4938577Y-10070208D02*
X4929053Y-10079731D01*
X4929053Y-10079731D02*
X4910006Y-10108303D01*
X4910006Y-10108303D02*
X4900482Y-10146398D01*
X4900482Y-10146398D02*
X4900482Y-10222589D01*
X4900482Y-10222589D02*
X4910006Y-10241636D01*
X4910006Y-10241636D02*
X4919529Y-10251160D01*
X4919529Y-10251160D02*
X4938577Y-10260684D01*
X4938577Y-10260684D02*
X4976672Y-10260684D01*
X4976672Y-10260684D02*
X4995720Y-10251160D01*
X4995720Y-10251160D02*
X5005244Y-10241636D01*
X5005244Y-10241636D02*
X5014768Y-10222589D01*
X5014768Y-10222589D02*
X5014768Y-10174970D01*
X5014768Y-10174970D02*
X5005244Y-10155922D01*
X5005244Y-10155922D02*
X4995720Y-10146398D01*
X4995720Y-10146398D02*
X4976672Y-10136874D01*
X4976672Y-10136874D02*
X4938577Y-10136874D01*
X4938577Y-10136874D02*
X4919529Y-10146398D01*
X4919529Y-10146398D02*
X4910006Y-10155922D01*
X4910006Y-10155922D02*
X4900482Y-10174970D01*
X5110006Y-10260684D02*
X5148101Y-10260684D01*
X5148101Y-10260684D02*
X5167149Y-10251160D01*
X5167149Y-10251160D02*
X5176672Y-10241636D01*
X5176672Y-10241636D02*
X5195720Y-10213065D01*
X5195720Y-10213065D02*
X5205244Y-10174970D01*
X5205244Y-10174970D02*
X5205244Y-10098779D01*
X5205244Y-10098779D02*
X5195720Y-10079731D01*
X5195720Y-10079731D02*
X5186196Y-10070208D01*
X5186196Y-10070208D02*
X5167149Y-10060684D01*
X5167149Y-10060684D02*
X5129053Y-10060684D01*
X5129053Y-10060684D02*
X5110006Y-10070208D01*
X5110006Y-10070208D02*
X5100482Y-10079731D01*
X5100482Y-10079731D02*
X5090958Y-10098779D01*
X5090958Y-10098779D02*
X5090958Y-10146398D01*
X5090958Y-10146398D02*
X5100482Y-10165446D01*
X5100482Y-10165446D02*
X5110006Y-10174970D01*
X5110006Y-10174970D02*
X5129053Y-10184493D01*
X5129053Y-10184493D02*
X5167149Y-10184493D01*
X5167149Y-10184493D02*
X5186196Y-10174970D01*
X5186196Y-10174970D02*
X5195720Y-10165446D01*
X5195720Y-10165446D02*
X5205244Y-10146398D01*
X5281434Y-10060684D02*
X5281434Y-10098779D01*
X5357625Y-10060684D02*
X5357625Y-10098779D01*
X5652863Y-10336874D02*
X5643339Y-10327350D01*
X5643339Y-10327350D02*
X5624291Y-10298779D01*
X5624291Y-10298779D02*
X5614768Y-10279731D01*
X5614768Y-10279731D02*
X5605244Y-10251160D01*
X5605244Y-10251160D02*
X5595720Y-10203541D01*
X5595720Y-10203541D02*
X5595720Y-10165446D01*
X5595720Y-10165446D02*
X5605244Y-10117827D01*
X5605244Y-10117827D02*
X5614768Y-10089255D01*
X5614768Y-10089255D02*
X5624291Y-10070208D01*
X5624291Y-10070208D02*
X5643339Y-10041636D01*
X5643339Y-10041636D02*
X5652863Y-10032112D01*
X5824291Y-10060684D02*
X5729053Y-10060684D01*
X5729053Y-10060684D02*
X5719529Y-10155922D01*
X5719529Y-10155922D02*
X5729053Y-10146398D01*
X5729053Y-10146398D02*
X5748101Y-10136874D01*
X5748101Y-10136874D02*
X5795720Y-10136874D01*
X5795720Y-10136874D02*
X5814768Y-10146398D01*
X5814768Y-10146398D02*
X5824291Y-10155922D01*
X5824291Y-10155922D02*
X5833815Y-10174970D01*
X5833815Y-10174970D02*
X5833815Y-10222589D01*
X5833815Y-10222589D02*
X5824291Y-10241636D01*
X5824291Y-10241636D02*
X5814768Y-10251160D01*
X5814768Y-10251160D02*
X5795720Y-10260684D01*
X5795720Y-10260684D02*
X5748101Y-10260684D01*
X5748101Y-10260684D02*
X5729053Y-10251160D01*
X5729053Y-10251160D02*
X5719529Y-10241636D01*
X6071910Y-10260684D02*
X6071910Y-10060684D01*
X6157625Y-10260684D02*
X6157625Y-10155922D01*
X6157625Y-10155922D02*
X6148101Y-10136874D01*
X6148101Y-10136874D02*
X6129053Y-10127350D01*
X6129053Y-10127350D02*
X6100482Y-10127350D01*
X6100482Y-10127350D02*
X6081434Y-10136874D01*
X6081434Y-10136874D02*
X6071910Y-10146398D01*
X6281434Y-10260684D02*
X6262387Y-10251160D01*
X6262387Y-10251160D02*
X6252863Y-10241636D01*
X6252863Y-10241636D02*
X6243339Y-10222589D01*
X6243339Y-10222589D02*
X6243339Y-10165446D01*
X6243339Y-10165446D02*
X6252863Y-10146398D01*
X6252863Y-10146398D02*
X6262387Y-10136874D01*
X6262387Y-10136874D02*
X6281434Y-10127350D01*
X6281434Y-10127350D02*
X6310006Y-10127350D01*
X6310006Y-10127350D02*
X6329053Y-10136874D01*
X6329053Y-10136874D02*
X6338577Y-10146398D01*
X6338577Y-10146398D02*
X6348101Y-10165446D01*
X6348101Y-10165446D02*
X6348101Y-10222589D01*
X6348101Y-10222589D02*
X6338577Y-10241636D01*
X6338577Y-10241636D02*
X6329053Y-10251160D01*
X6329053Y-10251160D02*
X6310006Y-10260684D01*
X6310006Y-10260684D02*
X6281434Y-10260684D01*
X6462387Y-10260684D02*
X6443339Y-10251160D01*
X6443339Y-10251160D02*
X6433815Y-10232112D01*
X6433815Y-10232112D02*
X6433815Y-10060684D01*
X6614768Y-10251160D02*
X6595720Y-10260684D01*
X6595720Y-10260684D02*
X6557625Y-10260684D01*
X6557625Y-10260684D02*
X6538577Y-10251160D01*
X6538577Y-10251160D02*
X6529053Y-10232112D01*
X6529053Y-10232112D02*
X6529053Y-10155922D01*
X6529053Y-10155922D02*
X6538577Y-10136874D01*
X6538577Y-10136874D02*
X6557625Y-10127350D01*
X6557625Y-10127350D02*
X6595720Y-10127350D01*
X6595720Y-10127350D02*
X6614768Y-10136874D01*
X6614768Y-10136874D02*
X6624291Y-10155922D01*
X6624291Y-10155922D02*
X6624291Y-10174970D01*
X6624291Y-10174970D02*
X6529053Y-10194017D01*
X6700482Y-10251160D02*
X6719530Y-10260684D01*
X6719530Y-10260684D02*
X6757625Y-10260684D01*
X6757625Y-10260684D02*
X6776672Y-10251160D01*
X6776672Y-10251160D02*
X6786196Y-10232112D01*
X6786196Y-10232112D02*
X6786196Y-10222589D01*
X6786196Y-10222589D02*
X6776672Y-10203541D01*
X6776672Y-10203541D02*
X6757625Y-10194017D01*
X6757625Y-10194017D02*
X6729053Y-10194017D01*
X6729053Y-10194017D02*
X6710006Y-10184493D01*
X6710006Y-10184493D02*
X6700482Y-10165446D01*
X6700482Y-10165446D02*
X6700482Y-10155922D01*
X6700482Y-10155922D02*
X6710006Y-10136874D01*
X6710006Y-10136874D02*
X6729053Y-10127350D01*
X6729053Y-10127350D02*
X6757625Y-10127350D01*
X6757625Y-10127350D02*
X6776672Y-10136874D01*
X6852863Y-10336874D02*
X6862387Y-10327350D01*
X6862387Y-10327350D02*
X6881434Y-10298779D01*
X6881434Y-10298779D02*
X6890958Y-10279731D01*
X6890958Y-10279731D02*
X6900482Y-10251160D01*
X6900482Y-10251160D02*
X6910006Y-10203541D01*
X6910006Y-10203541D02*
X6910006Y-10165446D01*
X6910006Y-10165446D02*
X6900482Y-10117827D01*
X6900482Y-10117827D02*
X6890958Y-10089255D01*
X6890958Y-10089255D02*
X6881434Y-10070208D01*
X6881434Y-10070208D02*
X6862387Y-10041636D01*
X6862387Y-10041636D02*
X6852863Y-10032112D01*
X1877800Y-10359200D02*
X2077800Y-10559200D01*
X2077800Y-10359200D02*
X1877800Y-10559200D01*
X1977800Y-10359200D02*
X1977800Y-10559200D01*
X1877800Y-10459200D02*
X2077800Y-10459200D01*
X2329053Y-10369731D02*
X2338577Y-10360208D01*
X2338577Y-10360208D02*
X2357624Y-10350684D01*
X2357624Y-10350684D02*
X2405244Y-10350684D01*
X2405244Y-10350684D02*
X2424291Y-10360208D01*
X2424291Y-10360208D02*
X2433815Y-10369731D01*
X2433815Y-10369731D02*
X2443339Y-10388779D01*
X2443339Y-10388779D02*
X2443339Y-10407827D01*
X2443339Y-10407827D02*
X2433815Y-10436398D01*
X2433815Y-10436398D02*
X2319529Y-10550684D01*
X2319529Y-10550684D02*
X2443339Y-10550684D01*
X2529053Y-10531636D02*
X2538577Y-10541160D01*
X2538577Y-10541160D02*
X2529053Y-10550684D01*
X2529053Y-10550684D02*
X2519529Y-10541160D01*
X2519529Y-10541160D02*
X2529053Y-10531636D01*
X2529053Y-10531636D02*
X2529053Y-10550684D01*
X2614767Y-10369731D02*
X2624291Y-10360208D01*
X2624291Y-10360208D02*
X2643339Y-10350684D01*
X2643339Y-10350684D02*
X2690958Y-10350684D01*
X2690958Y-10350684D02*
X2710005Y-10360208D01*
X2710005Y-10360208D02*
X2719529Y-10369731D01*
X2719529Y-10369731D02*
X2729053Y-10388779D01*
X2729053Y-10388779D02*
X2729053Y-10407827D01*
X2729053Y-10407827D02*
X2719529Y-10436398D01*
X2719529Y-10436398D02*
X2605244Y-10550684D01*
X2605244Y-10550684D02*
X2729053Y-10550684D01*
X2852862Y-10350684D02*
X2871910Y-10350684D01*
X2871910Y-10350684D02*
X2890958Y-10360208D01*
X2890958Y-10360208D02*
X2900482Y-10369731D01*
X2900482Y-10369731D02*
X2910005Y-10388779D01*
X2910005Y-10388779D02*
X2919529Y-10426874D01*
X2919529Y-10426874D02*
X2919529Y-10474493D01*
X2919529Y-10474493D02*
X2910005Y-10512589D01*
X2910005Y-10512589D02*
X2900482Y-10531636D01*
X2900482Y-10531636D02*
X2890958Y-10541160D01*
X2890958Y-10541160D02*
X2871910Y-10550684D01*
X2871910Y-10550684D02*
X2852862Y-10550684D01*
X2852862Y-10550684D02*
X2833815Y-10541160D01*
X2833815Y-10541160D02*
X2824291Y-10531636D01*
X2824291Y-10531636D02*
X2814767Y-10512589D01*
X2814767Y-10512589D02*
X2805243Y-10474493D01*
X2805243Y-10474493D02*
X2805243Y-10426874D01*
X2805243Y-10426874D02*
X2814767Y-10388779D01*
X2814767Y-10388779D02*
X2824291Y-10369731D01*
X2824291Y-10369731D02*
X2833815Y-10360208D01*
X2833815Y-10360208D02*
X2852862Y-10350684D01*
X3043339Y-10350684D02*
X3062386Y-10350684D01*
X3062386Y-10350684D02*
X3081434Y-10360208D01*
X3081434Y-10360208D02*
X3090958Y-10369731D01*
X3090958Y-10369731D02*
X3100482Y-10388779D01*
X3100482Y-10388779D02*
X3110005Y-10426874D01*
X3110005Y-10426874D02*
X3110005Y-10474493D01*
X3110005Y-10474493D02*
X3100482Y-10512589D01*
X3100482Y-10512589D02*
X3090958Y-10531636D01*
X3090958Y-10531636D02*
X3081434Y-10541160D01*
X3081434Y-10541160D02*
X3062386Y-10550684D01*
X3062386Y-10550684D02*
X3043339Y-10550684D01*
X3043339Y-10550684D02*
X3024291Y-10541160D01*
X3024291Y-10541160D02*
X3014767Y-10531636D01*
X3014767Y-10531636D02*
X3005243Y-10512589D01*
X3005243Y-10512589D02*
X2995720Y-10474493D01*
X2995720Y-10474493D02*
X2995720Y-10426874D01*
X2995720Y-10426874D02*
X3005243Y-10388779D01*
X3005243Y-10388779D02*
X3014767Y-10369731D01*
X3014767Y-10369731D02*
X3024291Y-10360208D01*
X3024291Y-10360208D02*
X3043339Y-10350684D01*
X3195720Y-10550684D02*
X3195720Y-10417350D01*
X3195720Y-10436398D02*
X3205243Y-10426874D01*
X3205243Y-10426874D02*
X3224291Y-10417350D01*
X3224291Y-10417350D02*
X3252863Y-10417350D01*
X3252863Y-10417350D02*
X3271910Y-10426874D01*
X3271910Y-10426874D02*
X3281434Y-10445922D01*
X3281434Y-10445922D02*
X3281434Y-10550684D01*
X3281434Y-10445922D02*
X3290958Y-10426874D01*
X3290958Y-10426874D02*
X3310005Y-10417350D01*
X3310005Y-10417350D02*
X3338577Y-10417350D01*
X3338577Y-10417350D02*
X3357624Y-10426874D01*
X3357624Y-10426874D02*
X3367148Y-10445922D01*
X3367148Y-10445922D02*
X3367148Y-10550684D01*
X3462386Y-10550684D02*
X3462386Y-10417350D01*
X3462386Y-10436398D02*
X3471910Y-10426874D01*
X3471910Y-10426874D02*
X3490958Y-10417350D01*
X3490958Y-10417350D02*
X3519529Y-10417350D01*
X3519529Y-10417350D02*
X3538577Y-10426874D01*
X3538577Y-10426874D02*
X3548101Y-10445922D01*
X3548101Y-10445922D02*
X3548101Y-10550684D01*
X3548101Y-10445922D02*
X3557624Y-10426874D01*
X3557624Y-10426874D02*
X3576672Y-10417350D01*
X3576672Y-10417350D02*
X3605243Y-10417350D01*
X3605243Y-10417350D02*
X3624291Y-10426874D01*
X3624291Y-10426874D02*
X3633815Y-10445922D01*
X3633815Y-10445922D02*
X3633815Y-10550684D01*
X4024291Y-10341160D02*
X3852863Y-10598303D01*
X4281434Y-10350684D02*
X4300482Y-10350684D01*
X4300482Y-10350684D02*
X4319529Y-10360208D01*
X4319529Y-10360208D02*
X4329053Y-10369731D01*
X4329053Y-10369731D02*
X4338577Y-10388779D01*
X4338577Y-10388779D02*
X4348101Y-10426874D01*
X4348101Y-10426874D02*
X4348101Y-10474493D01*
X4348101Y-10474493D02*
X4338577Y-10512589D01*
X4338577Y-10512589D02*
X4329053Y-10531636D01*
X4329053Y-10531636D02*
X4319529Y-10541160D01*
X4319529Y-10541160D02*
X4300482Y-10550684D01*
X4300482Y-10550684D02*
X4281434Y-10550684D01*
X4281434Y-10550684D02*
X4262387Y-10541160D01*
X4262387Y-10541160D02*
X4252863Y-10531636D01*
X4252863Y-10531636D02*
X4243339Y-10512589D01*
X4243339Y-10512589D02*
X4233815Y-10474493D01*
X4233815Y-10474493D02*
X4233815Y-10426874D01*
X4233815Y-10426874D02*
X4243339Y-10388779D01*
X4243339Y-10388779D02*
X4252863Y-10369731D01*
X4252863Y-10369731D02*
X4262387Y-10360208D01*
X4262387Y-10360208D02*
X4281434Y-10350684D01*
X4433815Y-10531636D02*
X4443339Y-10541160D01*
X4443339Y-10541160D02*
X4433815Y-10550684D01*
X4433815Y-10550684D02*
X4424291Y-10541160D01*
X4424291Y-10541160D02*
X4433815Y-10531636D01*
X4433815Y-10531636D02*
X4433815Y-10550684D01*
X4567148Y-10350684D02*
X4586196Y-10350684D01*
X4586196Y-10350684D02*
X4605244Y-10360208D01*
X4605244Y-10360208D02*
X4614768Y-10369731D01*
X4614768Y-10369731D02*
X4624291Y-10388779D01*
X4624291Y-10388779D02*
X4633815Y-10426874D01*
X4633815Y-10426874D02*
X4633815Y-10474493D01*
X4633815Y-10474493D02*
X4624291Y-10512589D01*
X4624291Y-10512589D02*
X4614768Y-10531636D01*
X4614768Y-10531636D02*
X4605244Y-10541160D01*
X4605244Y-10541160D02*
X4586196Y-10550684D01*
X4586196Y-10550684D02*
X4567148Y-10550684D01*
X4567148Y-10550684D02*
X4548101Y-10541160D01*
X4548101Y-10541160D02*
X4538577Y-10531636D01*
X4538577Y-10531636D02*
X4529053Y-10512589D01*
X4529053Y-10512589D02*
X4519529Y-10474493D01*
X4519529Y-10474493D02*
X4519529Y-10426874D01*
X4519529Y-10426874D02*
X4529053Y-10388779D01*
X4529053Y-10388779D02*
X4538577Y-10369731D01*
X4538577Y-10369731D02*
X4548101Y-10360208D01*
X4548101Y-10360208D02*
X4567148Y-10350684D01*
X4748101Y-10436398D02*
X4729053Y-10426874D01*
X4729053Y-10426874D02*
X4719529Y-10417350D01*
X4719529Y-10417350D02*
X4710006Y-10398303D01*
X4710006Y-10398303D02*
X4710006Y-10388779D01*
X4710006Y-10388779D02*
X4719529Y-10369731D01*
X4719529Y-10369731D02*
X4729053Y-10360208D01*
X4729053Y-10360208D02*
X4748101Y-10350684D01*
X4748101Y-10350684D02*
X4786196Y-10350684D01*
X4786196Y-10350684D02*
X4805244Y-10360208D01*
X4805244Y-10360208D02*
X4814768Y-10369731D01*
X4814768Y-10369731D02*
X4824291Y-10388779D01*
X4824291Y-10388779D02*
X4824291Y-10398303D01*
X4824291Y-10398303D02*
X4814768Y-10417350D01*
X4814768Y-10417350D02*
X4805244Y-10426874D01*
X4805244Y-10426874D02*
X4786196Y-10436398D01*
X4786196Y-10436398D02*
X4748101Y-10436398D01*
X4748101Y-10436398D02*
X4729053Y-10445922D01*
X4729053Y-10445922D02*
X4719529Y-10455446D01*
X4719529Y-10455446D02*
X4710006Y-10474493D01*
X4710006Y-10474493D02*
X4710006Y-10512589D01*
X4710006Y-10512589D02*
X4719529Y-10531636D01*
X4719529Y-10531636D02*
X4729053Y-10541160D01*
X4729053Y-10541160D02*
X4748101Y-10550684D01*
X4748101Y-10550684D02*
X4786196Y-10550684D01*
X4786196Y-10550684D02*
X4805244Y-10541160D01*
X4805244Y-10541160D02*
X4814768Y-10531636D01*
X4814768Y-10531636D02*
X4824291Y-10512589D01*
X4824291Y-10512589D02*
X4824291Y-10474493D01*
X4824291Y-10474493D02*
X4814768Y-10455446D01*
X4814768Y-10455446D02*
X4805244Y-10445922D01*
X4805244Y-10445922D02*
X4786196Y-10436398D01*
X4995720Y-10350684D02*
X4957625Y-10350684D01*
X4957625Y-10350684D02*
X4938577Y-10360208D01*
X4938577Y-10360208D02*
X4929053Y-10369731D01*
X4929053Y-10369731D02*
X4910006Y-10398303D01*
X4910006Y-10398303D02*
X4900482Y-10436398D01*
X4900482Y-10436398D02*
X4900482Y-10512589D01*
X4900482Y-10512589D02*
X4910006Y-10531636D01*
X4910006Y-10531636D02*
X4919529Y-10541160D01*
X4919529Y-10541160D02*
X4938577Y-10550684D01*
X4938577Y-10550684D02*
X4976672Y-10550684D01*
X4976672Y-10550684D02*
X4995720Y-10541160D01*
X4995720Y-10541160D02*
X5005244Y-10531636D01*
X5005244Y-10531636D02*
X5014768Y-10512589D01*
X5014768Y-10512589D02*
X5014768Y-10464970D01*
X5014768Y-10464970D02*
X5005244Y-10445922D01*
X5005244Y-10445922D02*
X4995720Y-10436398D01*
X4995720Y-10436398D02*
X4976672Y-10426874D01*
X4976672Y-10426874D02*
X4938577Y-10426874D01*
X4938577Y-10426874D02*
X4919529Y-10436398D01*
X4919529Y-10436398D02*
X4910006Y-10445922D01*
X4910006Y-10445922D02*
X4900482Y-10464970D01*
X5186196Y-10350684D02*
X5148101Y-10350684D01*
X5148101Y-10350684D02*
X5129053Y-10360208D01*
X5129053Y-10360208D02*
X5119529Y-10369731D01*
X5119529Y-10369731D02*
X5100482Y-10398303D01*
X5100482Y-10398303D02*
X5090958Y-10436398D01*
X5090958Y-10436398D02*
X5090958Y-10512589D01*
X5090958Y-10512589D02*
X5100482Y-10531636D01*
X5100482Y-10531636D02*
X5110006Y-10541160D01*
X5110006Y-10541160D02*
X5129053Y-10550684D01*
X5129053Y-10550684D02*
X5167149Y-10550684D01*
X5167149Y-10550684D02*
X5186196Y-10541160D01*
X5186196Y-10541160D02*
X5195720Y-10531636D01*
X5195720Y-10531636D02*
X5205244Y-10512589D01*
X5205244Y-10512589D02*
X5205244Y-10464970D01*
X5205244Y-10464970D02*
X5195720Y-10445922D01*
X5195720Y-10445922D02*
X5186196Y-10436398D01*
X5186196Y-10436398D02*
X5167149Y-10426874D01*
X5167149Y-10426874D02*
X5129053Y-10426874D01*
X5129053Y-10426874D02*
X5110006Y-10436398D01*
X5110006Y-10436398D02*
X5100482Y-10445922D01*
X5100482Y-10445922D02*
X5090958Y-10464970D01*
X5281434Y-10350684D02*
X5281434Y-10388779D01*
X5357625Y-10350684D02*
X5357625Y-10388779D01*
X5652863Y-10626874D02*
X5643339Y-10617350D01*
X5643339Y-10617350D02*
X5624291Y-10588779D01*
X5624291Y-10588779D02*
X5614768Y-10569731D01*
X5614768Y-10569731D02*
X5605244Y-10541160D01*
X5605244Y-10541160D02*
X5595720Y-10493541D01*
X5595720Y-10493541D02*
X5595720Y-10455446D01*
X5595720Y-10455446D02*
X5605244Y-10407827D01*
X5605244Y-10407827D02*
X5614768Y-10379255D01*
X5614768Y-10379255D02*
X5624291Y-10360208D01*
X5624291Y-10360208D02*
X5643339Y-10331636D01*
X5643339Y-10331636D02*
X5652863Y-10322112D01*
X5814768Y-10417350D02*
X5814768Y-10550684D01*
X5767148Y-10341160D02*
X5719529Y-10484017D01*
X5719529Y-10484017D02*
X5843339Y-10484017D01*
X6071910Y-10550684D02*
X6071910Y-10350684D01*
X6157625Y-10550684D02*
X6157625Y-10445922D01*
X6157625Y-10445922D02*
X6148101Y-10426874D01*
X6148101Y-10426874D02*
X6129053Y-10417350D01*
X6129053Y-10417350D02*
X6100482Y-10417350D01*
X6100482Y-10417350D02*
X6081434Y-10426874D01*
X6081434Y-10426874D02*
X6071910Y-10436398D01*
X6281434Y-10550684D02*
X6262387Y-10541160D01*
X6262387Y-10541160D02*
X6252863Y-10531636D01*
X6252863Y-10531636D02*
X6243339Y-10512589D01*
X6243339Y-10512589D02*
X6243339Y-10455446D01*
X6243339Y-10455446D02*
X6252863Y-10436398D01*
X6252863Y-10436398D02*
X6262387Y-10426874D01*
X6262387Y-10426874D02*
X6281434Y-10417350D01*
X6281434Y-10417350D02*
X6310006Y-10417350D01*
X6310006Y-10417350D02*
X6329053Y-10426874D01*
X6329053Y-10426874D02*
X6338577Y-10436398D01*
X6338577Y-10436398D02*
X6348101Y-10455446D01*
X6348101Y-10455446D02*
X6348101Y-10512589D01*
X6348101Y-10512589D02*
X6338577Y-10531636D01*
X6338577Y-10531636D02*
X6329053Y-10541160D01*
X6329053Y-10541160D02*
X6310006Y-10550684D01*
X6310006Y-10550684D02*
X6281434Y-10550684D01*
X6462387Y-10550684D02*
X6443339Y-10541160D01*
X6443339Y-10541160D02*
X6433815Y-10522112D01*
X6433815Y-10522112D02*
X6433815Y-10350684D01*
X6614768Y-10541160D02*
X6595720Y-10550684D01*
X6595720Y-10550684D02*
X6557625Y-10550684D01*
X6557625Y-10550684D02*
X6538577Y-10541160D01*
X6538577Y-10541160D02*
X6529053Y-10522112D01*
X6529053Y-10522112D02*
X6529053Y-10445922D01*
X6529053Y-10445922D02*
X6538577Y-10426874D01*
X6538577Y-10426874D02*
X6557625Y-10417350D01*
X6557625Y-10417350D02*
X6595720Y-10417350D01*
X6595720Y-10417350D02*
X6614768Y-10426874D01*
X6614768Y-10426874D02*
X6624291Y-10445922D01*
X6624291Y-10445922D02*
X6624291Y-10464970D01*
X6624291Y-10464970D02*
X6529053Y-10484017D01*
X6700482Y-10541160D02*
X6719530Y-10550684D01*
X6719530Y-10550684D02*
X6757625Y-10550684D01*
X6757625Y-10550684D02*
X6776672Y-10541160D01*
X6776672Y-10541160D02*
X6786196Y-10522112D01*
X6786196Y-10522112D02*
X6786196Y-10512589D01*
X6786196Y-10512589D02*
X6776672Y-10493541D01*
X6776672Y-10493541D02*
X6757625Y-10484017D01*
X6757625Y-10484017D02*
X6729053Y-10484017D01*
X6729053Y-10484017D02*
X6710006Y-10474493D01*
X6710006Y-10474493D02*
X6700482Y-10455446D01*
X6700482Y-10455446D02*
X6700482Y-10445922D01*
X6700482Y-10445922D02*
X6710006Y-10426874D01*
X6710006Y-10426874D02*
X6729053Y-10417350D01*
X6729053Y-10417350D02*
X6757625Y-10417350D01*
X6757625Y-10417350D02*
X6776672Y-10426874D01*
X6852863Y-10626874D02*
X6862387Y-10617350D01*
X6862387Y-10617350D02*
X6881434Y-10588779D01*
X6881434Y-10588779D02*
X6890958Y-10569731D01*
X6890958Y-10569731D02*
X6900482Y-10541160D01*
X6900482Y-10541160D02*
X6910006Y-10493541D01*
X6910006Y-10493541D02*
X6910006Y-10455446D01*
X6910006Y-10455446D02*
X6900482Y-10407827D01*
X6900482Y-10407827D02*
X6890958Y-10379255D01*
X6890958Y-10379255D02*
X6881434Y-10360208D01*
X6881434Y-10360208D02*
X6862387Y-10331636D01*
X6862387Y-10331636D02*
X6852863Y-10322112D01*
M02*
