%TF.GenerationSoftware,KiCad,Pcbnew,8.0.02-1-dev-e0381f25f7*%
%TF.CreationDate,2024-04-02T19:47:07-07:00*%
%TF.ProjectId,i2s_to_toslink_pcb,6932735f-746f-45f7-946f-736c696e6b5f,rev?*%
%TF.SameCoordinates,Original*%
%TF.FileFunction,Soldermask,Bot*%
%TF.FilePolarity,Negative*%
%FSLAX46Y46*%
G04 Gerber Fmt 4.6, Leading zero omitted, Abs format (unit mm)*
G04 Created by KiCad (PCBNEW 8.0.02-1-dev-e0381f25f7) date 2024-04-02 19:47:07*
%MOMM*%
%LPD*%
G01*
G04 APERTURE LIST*
%ADD10C,2.600000*%
%ADD11C,3.500000*%
%ADD12R,1.700000X1.700000*%
%ADD13O,1.700000X1.700000*%
%ADD14R,1.000000X1.000000*%
%ADD15C,1.200000*%
%ADD16R,2.550000X2.550000*%
%ADD17C,2.550000*%
%ADD18C,1.462000*%
%ADD19R,1.350000X1.350000*%
%ADD20O,1.350000X1.350000*%
G04 APERTURE END LIST*
D10*
%TO.C,H1*%
X24130000Y-23622000D03*
D11*
X24130000Y-23622000D03*
%TD*%
D12*
%TO.C,J3*%
X37400000Y-55860000D03*
D13*
X37400000Y-58400000D03*
%TD*%
D14*
%TO.C,J17*%
X56134000Y-47498000D03*
%TD*%
D12*
%TO.C,J2*%
X41590000Y-27500000D03*
D13*
X44130000Y-27500000D03*
X46670000Y-27500000D03*
X49210000Y-27500000D03*
X51750000Y-27500000D03*
%TD*%
D14*
%TO.C,J15*%
X51577000Y-54750000D03*
%TD*%
D12*
%TO.C,J12*%
X29000000Y-56720000D03*
D13*
X29000000Y-59260000D03*
X29000000Y-61800000D03*
X29000000Y-64340000D03*
X29000000Y-66880000D03*
%TD*%
D12*
%TO.C,J9*%
X30400000Y-28875000D03*
D13*
X30400000Y-31415000D03*
X30400000Y-33955000D03*
%TD*%
D12*
%TO.C,J7*%
X25600000Y-28875000D03*
D13*
X25600000Y-31415000D03*
X25600000Y-33955000D03*
%TD*%
D14*
%TO.C,J14*%
X45600000Y-46800000D03*
%TD*%
D10*
%TO.C,H3*%
X24130000Y-77978000D03*
D11*
X24130000Y-77978000D03*
%TD*%
D15*
%TO.C,J10*%
X70478400Y-31698600D03*
X70478400Y-27198600D03*
D16*
X73678400Y-27198600D03*
D17*
X67628400Y-36498600D03*
X73678400Y-30598600D03*
X67078400Y-30498600D03*
X66628400Y-26998600D03*
D18*
X68478400Y-39598600D03*
X70478400Y-39598600D03*
X72478400Y-39598600D03*
%TD*%
D19*
%TO.C,J13*%
X72200000Y-46400000D03*
D20*
X74200000Y-46400000D03*
X76200000Y-46400000D03*
X78200000Y-46400000D03*
X80200000Y-46400000D03*
%TD*%
D19*
%TO.C,J11*%
X56400000Y-28000000D03*
D20*
X56400000Y-30000000D03*
%TD*%
D12*
%TO.C,J6*%
X61710000Y-71250000D03*
D13*
X61710000Y-68710000D03*
X64250000Y-71250000D03*
X64250000Y-68710000D03*
X66790000Y-71250000D03*
X66790000Y-68710000D03*
%TD*%
D12*
%TO.C,J1*%
X62000000Y-49180000D03*
D13*
X62000000Y-51720000D03*
X62000000Y-54260000D03*
X62000000Y-56800000D03*
X62000000Y-59340000D03*
X62000000Y-61880000D03*
%TD*%
D12*
%TO.C,JP1*%
X35600000Y-34080000D03*
D13*
X35600000Y-31540000D03*
X35600000Y-29000000D03*
%TD*%
D12*
%TO.C,J8*%
X25500000Y-40500000D03*
D13*
X28040000Y-40500000D03*
X30580000Y-40500000D03*
%TD*%
D14*
%TO.C,J16*%
X52000000Y-52000000D03*
%TD*%
D10*
%TO.C,H2*%
X79248000Y-23876000D03*
D11*
X79248000Y-23876000D03*
%TD*%
D10*
%TO.C,H4*%
X79248000Y-77978000D03*
D11*
X79248000Y-77978000D03*
%TD*%
M02*
