M48
; DRILL file {KiCad 8.0.02-1-dev-e0381f25f7} date 2024-04-02T19:47:03-0700
; FORMAT={-:-/ absolute / inch / decimal}
; #@! TF.CreationDate,2024-04-02T19:47:03-07:00
; #@! TF.GenerationSoftware,Kicad,Pcbnew,8.0.02-1-dev-e0381f25f7
; #@! TF.FileFunction,Plated,1,2,PTH
FMAT,2
INCH
; #@! TA.AperFunction,Plated,PTH,ViaDrill
T1C0.0157
; #@! TA.AperFunction,Plated,PTH,ViaDrill
T2C0.0250
; #@! TA.AperFunction,Plated,PTH,ComponentDrill
T3C0.0256
; #@! TA.AperFunction,Plated,PTH,ComponentDrill
T4C0.0315
; #@! TA.AperFunction,Plated,PTH,ComponentDrill
T5C0.0370
; #@! TA.AperFunction,Plated,PTH,ComponentDrill
T6C0.0394
; #@! TA.AperFunction,Plated,PTH,ComponentDrill
T7C0.0669
; #@! TA.AperFunction,Plated,PTH,ComponentDrill
T8C0.0866
%
G90
G05
T1
X0.9764Y-2.0709
X1.0143Y-1.8367
X1.0236Y-1.7028
X1.063Y-2.0472
X1.1339Y-2.0866
X1.3307Y-2.5118
X1.4173Y-1.8661
X1.4331Y-2.9685
X1.4715Y-2.003
X1.4724Y-2.7221
X1.5Y-1.767
X1.5748Y-1.6772
X1.5826Y-2.8195
X1.5836Y-2.7572
X1.5906Y-2.1575
X1.6142Y-1.811
X1.6636Y-3.0551
X1.685Y-2.3504
X1.7717Y-2.2638
X1.8268Y-1.9764
X1.8307Y-2.0906
X1.8307Y-2.3031
X1.8701Y-2.0472
X1.9094Y-2.5
X1.9436Y-3.0431
X1.9685Y-1.937
X1.9882Y-2.5
X2.0945Y-1.7638
X2.1116Y-2.7891
X2.1417Y-1.6478
X2.19Y-1.732
X2.2047Y-2.5039
X2.2598Y-1.7244
X2.2598Y-2.1496
X2.2933Y-2.9429
X2.3386Y-2.8898
X2.5827Y-2.3327
X2.6034Y-1.7008
X2.6969Y-2.5492
X2.7717Y-2.9783
X2.7953Y-2.5394
X2.8695Y-2.7598
X2.8875Y-1.9685
X3.0866Y-2.3543
T2
X1.6693Y-1.3307
X2.3031Y-2.2244
X2.3031Y-2.3819
X2.3031Y-2.5
T3
X1.7953Y-1.8425
X2.0306Y-2.1555
X2.0472Y-2.0472
X2.21Y-1.87
T4
X2.2205Y-1.1024
X2.2205Y-1.1811
X2.8425Y-1.8268
X2.9213Y-1.8268
X3.0Y-1.8268
X3.0787Y-1.8268
X3.1575Y-1.8268
T5
X2.696Y-1.559
X2.7747Y-1.559
X2.8535Y-1.559
T6
X1.0039Y-1.5945
X1.0079Y-1.1368
X1.0079Y-1.2368
X1.0079Y-1.3368
X1.1039Y-1.5945
X1.1417Y-2.2331
X1.1417Y-2.3331
X1.1417Y-2.4331
X1.1417Y-2.5331
X1.1417Y-2.6331
X1.1969Y-1.1368
X1.1969Y-1.2368
X1.1969Y-1.3368
X1.2039Y-1.5945
X1.4016Y-1.1417
X1.4016Y-1.2417
X1.4016Y-1.3417
X1.4724Y-2.1992
X1.4724Y-2.2992
X1.6374Y-1.0827
X1.7374Y-1.0827
X1.8374Y-1.0827
X1.9374Y-1.0827
X2.0374Y-1.0827
X2.4295Y-2.7051
X2.4295Y-2.8051
X2.4409Y-1.9362
X2.4409Y-2.0362
X2.4409Y-2.1362
X2.4409Y-2.2362
X2.4409Y-2.3362
X2.4409Y-2.4362
X2.5295Y-2.7051
X2.5295Y-2.8051
X2.6295Y-2.7051
X2.6295Y-2.8051
T7
X2.6232Y-1.0629
X2.6409Y-1.2007
X2.6625Y-1.437
X2.9007Y-1.0708
X2.9007Y-1.2047
T8
X0.95Y-0.93
X0.95Y-3.07
X3.12Y-0.94
X3.12Y-3.07
M30
