%TF.GenerationSoftware,KiCad,Pcbnew,7.0.11-1-dev-0f715223e9*%
%TF.CreationDate,2024-01-18T09:51:02-08:00*%
%TF.ProjectId,i2s_to_toslink_pcb,6932735f-746f-45f7-946f-736c696e6b5f,rev?*%
%TF.SameCoordinates,Original*%
%TF.FileFunction,Soldermask,Top*%
%TF.FilePolarity,Negative*%
%FSLAX46Y46*%
G04 Gerber Fmt 4.6, Leading zero omitted, Abs format (unit mm)*
G04 Created by KiCad (PCBNEW 7.0.11-1-dev-0f715223e9) date 2024-01-18 09:51:02*
%MOMM*%
%LPD*%
G01*
G04 APERTURE LIST*
G04 Aperture macros list*
%AMRoundRect*
0 Rectangle with rounded corners*
0 $1 Rounding radius*
0 $2 $3 $4 $5 $6 $7 $8 $9 X,Y pos of 4 corners*
0 Add a 4 corners polygon primitive as box body*
4,1,4,$2,$3,$4,$5,$6,$7,$8,$9,$2,$3,0*
0 Add four circle primitives for the rounded corners*
1,1,$1+$1,$2,$3*
1,1,$1+$1,$4,$5*
1,1,$1+$1,$6,$7*
1,1,$1+$1,$8,$9*
0 Add four rect primitives between the rounded corners*
20,1,$1+$1,$2,$3,$4,$5,0*
20,1,$1+$1,$4,$5,$6,$7,0*
20,1,$1+$1,$6,$7,$8,$9,0*
20,1,$1+$1,$8,$9,$2,$3,0*%
G04 Aperture macros list end*
%ADD10R,2.006600X2.235200*%
%ADD11C,2.600000*%
%ADD12C,3.500000*%
%ADD13RoundRect,0.140000X-0.140000X-0.170000X0.140000X-0.170000X0.140000X0.170000X-0.140000X0.170000X0*%
%ADD14RoundRect,0.200000X-0.275000X0.200000X-0.275000X-0.200000X0.275000X-0.200000X0.275000X0.200000X0*%
%ADD15RoundRect,0.140000X-0.170000X0.140000X-0.170000X-0.140000X0.170000X-0.140000X0.170000X0.140000X0*%
%ADD16RoundRect,0.140000X0.140000X0.170000X-0.140000X0.170000X-0.140000X-0.170000X0.140000X-0.170000X0*%
%ADD17R,1.700000X1.700000*%
%ADD18O,1.700000X1.700000*%
%ADD19RoundRect,0.135000X-0.135000X-0.185000X0.135000X-0.185000X0.135000X0.185000X-0.135000X0.185000X0*%
%ADD20R,1.000000X1.000000*%
%ADD21C,1.000000*%
%ADD22R,1.600000X0.550000*%
%ADD23R,0.550000X1.600000*%
%ADD24RoundRect,0.140000X0.170000X-0.140000X0.170000X0.140000X-0.170000X0.140000X-0.170000X-0.140000X0*%
%ADD25RoundRect,0.200000X0.275000X-0.200000X0.275000X0.200000X-0.275000X0.200000X-0.275000X-0.200000X0*%
%ADD26O,1.000000X1.000000*%
%ADD27RoundRect,0.225000X0.225000X0.250000X-0.225000X0.250000X-0.225000X-0.250000X0.225000X-0.250000X0*%
%ADD28RoundRect,0.135000X0.185000X-0.135000X0.185000X0.135000X-0.185000X0.135000X-0.185000X-0.135000X0*%
%ADD29RoundRect,0.200000X-0.200000X-0.275000X0.200000X-0.275000X0.200000X0.275000X-0.200000X0.275000X0*%
%ADD30C,1.200000*%
%ADD31R,2.550000X2.550000*%
%ADD32C,2.550000*%
%ADD33C,1.462000*%
%ADD34RoundRect,0.135000X-0.185000X0.135000X-0.185000X-0.135000X0.185000X-0.135000X0.185000X0.135000X0*%
%ADD35R,0.508000X0.977900*%
%ADD36RoundRect,0.243750X0.243750X0.456250X-0.243750X0.456250X-0.243750X-0.456250X0.243750X-0.456250X0*%
%ADD37RoundRect,0.225000X-0.250000X0.225000X-0.250000X-0.225000X0.250000X-0.225000X0.250000X0.225000X0*%
%ADD38R,1.955432X0.420766*%
%ADD39RoundRect,0.102000X-1.300000X0.950000X-1.300000X-0.950000X1.300000X-0.950000X1.300000X0.950000X0*%
%ADD40R,0.431800X1.651000*%
%ADD41RoundRect,0.135000X0.135000X0.185000X-0.135000X0.185000X-0.135000X-0.185000X0.135000X-0.185000X0*%
G04 APERTURE END LIST*
D10*
%TO.C,Y1*%
X39116000Y-74904600D03*
X39116000Y-70637400D03*
%TD*%
D11*
%TO.C,H1*%
X24130000Y-23622000D03*
D12*
X24130000Y-23622000D03*
%TD*%
D13*
%TO.C,C18*%
X59055000Y-32856000D03*
X60015000Y-32856000D03*
%TD*%
D14*
%TO.C,R10*%
X76200000Y-55271400D03*
X76200000Y-56921400D03*
%TD*%
D15*
%TO.C,C10*%
X45364400Y-75748000D03*
X45364400Y-76708000D03*
%TD*%
D16*
%TO.C,C15*%
X38069400Y-48717200D03*
X37109400Y-48717200D03*
%TD*%
D17*
%TO.C,J3*%
X27686000Y-32512000D03*
D18*
X27686000Y-29972000D03*
X27686000Y-27432000D03*
%TD*%
D19*
%TO.C,R4*%
X54860000Y-60198000D03*
X55880000Y-60198000D03*
%TD*%
%TO.C,R6*%
X59484800Y-55245000D03*
X60504800Y-55245000D03*
%TD*%
D20*
%TO.C,J17*%
X56134000Y-47498000D03*
%TD*%
D19*
%TO.C,R8*%
X55624000Y-49784000D03*
X56644000Y-49784000D03*
%TD*%
D16*
%TO.C,C8*%
X44113600Y-74168000D03*
X43153600Y-74168000D03*
%TD*%
D21*
%TO.C,TP1*%
X64617600Y-74117200D03*
%TD*%
D15*
%TO.C,C13*%
X26670000Y-42164000D03*
X26670000Y-43124000D03*
%TD*%
D22*
%TO.C,U2*%
X48861400Y-70174200D03*
X48861400Y-70974200D03*
X48861400Y-71774200D03*
X48861400Y-72574200D03*
X48861400Y-73374200D03*
X48861400Y-74174200D03*
X48861400Y-74974200D03*
X48861400Y-75774200D03*
D23*
X50311400Y-77224200D03*
X51111400Y-77224200D03*
X51911400Y-77224200D03*
X52711400Y-77224200D03*
X53511400Y-77224200D03*
X54311400Y-77224200D03*
X55111400Y-77224200D03*
X55911400Y-77224200D03*
D22*
X57361400Y-75774200D03*
X57361400Y-74974200D03*
X57361400Y-74174200D03*
X57361400Y-73374200D03*
X57361400Y-72574200D03*
X57361400Y-71774200D03*
X57361400Y-70974200D03*
X57361400Y-70174200D03*
D23*
X55911400Y-68724200D03*
X55111400Y-68724200D03*
X54311400Y-68724200D03*
X53511400Y-68724200D03*
X52711400Y-68724200D03*
X51911400Y-68724200D03*
X51111400Y-68724200D03*
X50311400Y-68724200D03*
%TD*%
D17*
%TO.C,J2*%
X54864000Y-26416000D03*
D18*
X52324000Y-26416000D03*
X49784000Y-26416000D03*
X47244000Y-26416000D03*
X44704000Y-26416000D03*
%TD*%
D20*
%TO.C,J15*%
X56261000Y-55245000D03*
%TD*%
D24*
%TO.C,C14*%
X25349200Y-50000000D03*
X25349200Y-49040000D03*
%TD*%
D14*
%TO.C,R12*%
X72161400Y-61291200D03*
X72161400Y-62941200D03*
%TD*%
D17*
%TO.C,J12*%
X30480000Y-72390000D03*
D18*
X30480000Y-69850000D03*
X30480000Y-67310000D03*
X30480000Y-64770000D03*
%TD*%
D13*
%TO.C,C4*%
X37874000Y-36195000D03*
X38834000Y-36195000D03*
%TD*%
D25*
%TO.C,R13*%
X72212200Y-57150000D03*
X72212200Y-55500000D03*
%TD*%
D20*
%TO.C,J9*%
X35687000Y-53975000D03*
D26*
X34417000Y-53975000D03*
X33147000Y-53975000D03*
%TD*%
D19*
%TO.C,R5*%
X54860000Y-57912000D03*
X55880000Y-57912000D03*
%TD*%
D27*
%TO.C,C23*%
X73749400Y-59271400D03*
X72199400Y-59271400D03*
%TD*%
D28*
%TO.C,R1*%
X46000000Y-57310000D03*
X46000000Y-56290000D03*
%TD*%
D29*
%TO.C,R11*%
X70104000Y-53213000D03*
X71754000Y-53213000D03*
%TD*%
D20*
%TO.C,J7*%
X28702000Y-59944000D03*
D26*
X27432000Y-59944000D03*
X26162000Y-59944000D03*
%TD*%
D20*
%TO.C,J14*%
X46228000Y-47244000D03*
%TD*%
D15*
%TO.C,C11*%
X46482000Y-78006000D03*
X46482000Y-78966000D03*
%TD*%
D16*
%TO.C,C5*%
X27686000Y-36576000D03*
X26726000Y-36576000D03*
%TD*%
D17*
%TO.C,J5*%
X65200000Y-49250000D03*
D18*
X65200000Y-51790000D03*
X65200000Y-54330000D03*
X65200000Y-56870000D03*
X65200000Y-59410000D03*
X65200000Y-61950000D03*
%TD*%
D19*
%TO.C,R9*%
X44956000Y-49276000D03*
X45976000Y-49276000D03*
%TD*%
D11*
%TO.C,H3*%
X24130000Y-77978000D03*
D12*
X24130000Y-77978000D03*
%TD*%
D16*
%TO.C,C16*%
X38097400Y-46126400D03*
X37137400Y-46126400D03*
%TD*%
D30*
%TO.C,J10*%
X70478400Y-31698600D03*
X70478400Y-27198600D03*
D31*
X73678400Y-27198600D03*
D32*
X67628400Y-36498600D03*
X73678400Y-30598600D03*
X67078400Y-30498600D03*
X66628400Y-26998600D03*
D33*
X68478400Y-39598600D03*
X70478400Y-39598600D03*
X72478400Y-39598600D03*
%TD*%
D34*
%TO.C,R3*%
X43200000Y-56290000D03*
X43200000Y-57310000D03*
%TD*%
D24*
%TO.C,C6*%
X61417200Y-73400800D03*
X61417200Y-72440800D03*
%TD*%
D35*
%TO.C,U1*%
X34798000Y-33528000D03*
X33847999Y-33528000D03*
X32897998Y-33528000D03*
X32897998Y-36258500D03*
X34798000Y-36258500D03*
%TD*%
D15*
%TO.C,C9*%
X61417200Y-74960600D03*
X61417200Y-75920600D03*
%TD*%
D36*
%TO.C,D1*%
X66441800Y-70942200D03*
X64566800Y-70942200D03*
%TD*%
D24*
%TO.C,C1*%
X38862000Y-30861000D03*
X38862000Y-29901000D03*
%TD*%
D16*
%TO.C,C21*%
X70302000Y-44704000D03*
X69342000Y-44704000D03*
%TD*%
D13*
%TO.C,C19*%
X51364000Y-46101000D03*
X52324000Y-46101000D03*
%TD*%
D37*
%TO.C,C22*%
X76200000Y-59283600D03*
X76200000Y-60833600D03*
%TD*%
D15*
%TO.C,C17*%
X58978800Y-42700000D03*
X58978800Y-43660000D03*
%TD*%
D13*
%TO.C,C12*%
X54920000Y-62484000D03*
X55880000Y-62484000D03*
%TD*%
D38*
%TO.C,U3*%
X28412232Y-44827000D03*
X28412232Y-45477001D03*
X28412232Y-46126999D03*
X28412232Y-46777001D03*
X28412232Y-47426999D03*
X28412232Y-48077001D03*
X28412232Y-48726999D03*
X28412232Y-49377001D03*
X28412232Y-50026999D03*
X28412232Y-50677000D03*
X34163000Y-50677000D03*
X34163000Y-50026999D03*
X34163000Y-49377001D03*
X34163000Y-48726999D03*
X34163000Y-48077001D03*
X34163000Y-47426999D03*
X34163000Y-46777001D03*
X34163000Y-46126999D03*
X34163000Y-45477001D03*
X34163000Y-44827000D03*
%TD*%
D20*
%TO.C,J13*%
X71872000Y-47752000D03*
D26*
X73142000Y-47752000D03*
X74412000Y-47752000D03*
X75682000Y-47752000D03*
X76952000Y-47752000D03*
%TD*%
D20*
%TO.C,J11*%
X56134000Y-30226000D03*
D26*
X56134000Y-31496000D03*
%TD*%
D19*
%TO.C,R2*%
X60348400Y-70942200D03*
X61368400Y-70942200D03*
%TD*%
D17*
%TO.C,J6*%
X74140000Y-73660000D03*
D18*
X71600000Y-73660000D03*
X74140000Y-71120000D03*
X71600000Y-71120000D03*
X74140000Y-68580000D03*
X71600000Y-68580000D03*
%TD*%
D13*
%TO.C,C3*%
X37874000Y-33528000D03*
X38834000Y-33528000D03*
%TD*%
D39*
%TO.C,Y2*%
X58978000Y-35696000D03*
X58978000Y-39996000D03*
%TD*%
D17*
%TO.C,J1*%
X38862000Y-26416000D03*
D18*
X36322000Y-26416000D03*
%TD*%
D17*
%TO.C,JP1*%
X40894000Y-46228000D03*
D18*
X40894000Y-43688000D03*
X40894000Y-41148000D03*
%TD*%
D40*
%TO.C,U4*%
X44584001Y-41300400D03*
X45234002Y-41300400D03*
X45884001Y-41300400D03*
X46534002Y-41300400D03*
X47184000Y-41300400D03*
X47834002Y-41300400D03*
X48484000Y-41300400D03*
X49133999Y-41300400D03*
X49784000Y-41300400D03*
X50433999Y-41300400D03*
X51084000Y-41300400D03*
X51733999Y-41300400D03*
X52384000Y-41300400D03*
X53033999Y-41300400D03*
X53034001Y-34036000D03*
X52384000Y-34036000D03*
X51734001Y-34036000D03*
X51084000Y-34036000D03*
X50434002Y-34036000D03*
X49784000Y-34036000D03*
X49134002Y-34036000D03*
X48484000Y-34036000D03*
X47834002Y-34036000D03*
X47184000Y-34036000D03*
X46534002Y-34036000D03*
X45884001Y-34036000D03*
X45234002Y-34036000D03*
X44584001Y-34036000D03*
%TD*%
D41*
%TO.C,R7*%
X51564000Y-54356000D03*
X50544000Y-54356000D03*
%TD*%
D16*
%TO.C,C20*%
X45593000Y-43942000D03*
X44633000Y-43942000D03*
%TD*%
D24*
%TO.C,C2*%
X36195000Y-30861000D03*
X36195000Y-29901000D03*
%TD*%
D16*
%TO.C,C7*%
X44114600Y-72567800D03*
X43154600Y-72567800D03*
%TD*%
D20*
%TO.C,J8*%
X32766000Y-41656000D03*
D26*
X31496000Y-41656000D03*
X30226000Y-41656000D03*
%TD*%
D20*
%TO.C,J16*%
X52578000Y-49276000D03*
%TD*%
D11*
%TO.C,H2*%
X79248000Y-23876000D03*
D12*
X79248000Y-23876000D03*
%TD*%
D11*
%TO.C,H4*%
X79248000Y-77978000D03*
D12*
X79248000Y-77978000D03*
%TD*%
D17*
%TO.C,J4*%
X37719000Y-63500000D03*
D18*
X40259000Y-63500000D03*
X42799000Y-63500000D03*
%TD*%
M02*
