%TF.GenerationSoftware,KiCad,Pcbnew,8.0.01-1-dev-1b3cf70eef*%
%TF.CreationDate,2024-03-18T17:19:38-07:00*%
%TF.ProjectId,i2s_to_toslink_pcb,6932735f-746f-45f7-946f-736c696e6b5f,rev?*%
%TF.SameCoordinates,Original*%
%TF.FileFunction,Copper,L1,Top*%
%TF.FilePolarity,Positive*%
%FSLAX46Y46*%
G04 Gerber Fmt 4.6, Leading zero omitted, Abs format (unit mm)*
G04 Created by KiCad (PCBNEW 8.0.01-1-dev-1b3cf70eef) date 2024-03-18 17:19:38*
%MOMM*%
%LPD*%
G01*
G04 APERTURE LIST*
G04 Aperture macros list*
%AMRoundRect*
0 Rectangle with rounded corners*
0 $1 Rounding radius*
0 $2 $3 $4 $5 $6 $7 $8 $9 X,Y pos of 4 corners*
0 Add a 4 corners polygon primitive as box body*
4,1,4,$2,$3,$4,$5,$6,$7,$8,$9,$2,$3,0*
0 Add four circle primitives for the rounded corners*
1,1,$1+$1,$2,$3*
1,1,$1+$1,$4,$5*
1,1,$1+$1,$6,$7*
1,1,$1+$1,$8,$9*
0 Add four rect primitives between the rounded corners*
20,1,$1+$1,$2,$3,$4,$5,0*
20,1,$1+$1,$4,$5,$6,$7,0*
20,1,$1+$1,$6,$7,$8,$9,0*
20,1,$1+$1,$8,$9,$2,$3,0*%
G04 Aperture macros list end*
%ADD10C,0.100000*%
%TA.AperFunction,NonConductor*%
%ADD11C,0.100000*%
%TD*%
%ADD12C,0.150000*%
%TA.AperFunction,NonConductor*%
%ADD13C,0.150000*%
%TD*%
%ADD14C,0.203200*%
%TA.AperFunction,NonConductor*%
%ADD15C,0.203200*%
%TD*%
%TA.AperFunction,SMDPad,CuDef*%
%ADD16R,2.006600X2.235200*%
%TD*%
%TA.AperFunction,ComponentPad*%
%ADD17C,2.600000*%
%TD*%
%TA.AperFunction,ConnectorPad*%
%ADD18C,3.500000*%
%TD*%
%TA.AperFunction,SMDPad,CuDef*%
%ADD19RoundRect,0.140000X0.170000X-0.140000X0.170000X0.140000X-0.170000X0.140000X-0.170000X-0.140000X0*%
%TD*%
%TA.AperFunction,SMDPad,CuDef*%
%ADD20RoundRect,0.200000X-0.200000X-0.275000X0.200000X-0.275000X0.200000X0.275000X-0.200000X0.275000X0*%
%TD*%
%TA.AperFunction,SMDPad,CuDef*%
%ADD21RoundRect,0.140000X-0.170000X0.140000X-0.170000X-0.140000X0.170000X-0.140000X0.170000X0.140000X0*%
%TD*%
%TA.AperFunction,SMDPad,CuDef*%
%ADD22RoundRect,0.140000X0.140000X0.170000X-0.140000X0.170000X-0.140000X-0.170000X0.140000X-0.170000X0*%
%TD*%
%TA.AperFunction,SMDPad,CuDef*%
%ADD23RoundRect,0.135000X0.185000X-0.135000X0.185000X0.135000X-0.185000X0.135000X-0.185000X-0.135000X0*%
%TD*%
%TA.AperFunction,ComponentPad*%
%ADD24R,1.700000X1.700000*%
%TD*%
%TA.AperFunction,ComponentPad*%
%ADD25O,1.700000X1.700000*%
%TD*%
%TA.AperFunction,SMDPad,CuDef*%
%ADD26RoundRect,0.135000X-0.185000X0.135000X-0.185000X-0.135000X0.185000X-0.135000X0.185000X0.135000X0*%
%TD*%
%TA.AperFunction,SMDPad,CuDef*%
%ADD27RoundRect,0.135000X-0.135000X-0.185000X0.135000X-0.185000X0.135000X0.185000X-0.135000X0.185000X0*%
%TD*%
%TA.AperFunction,ComponentPad*%
%ADD28R,1.000000X1.000000*%
%TD*%
%TA.AperFunction,SMDPad,CuDef*%
%ADD29C,1.000000*%
%TD*%
%TA.AperFunction,SMDPad,CuDef*%
%ADD30R,1.600000X0.550000*%
%TD*%
%TA.AperFunction,SMDPad,CuDef*%
%ADD31R,0.550000X1.600000*%
%TD*%
%TA.AperFunction,SMDPad,CuDef*%
%ADD32RoundRect,0.200000X0.200000X0.275000X-0.200000X0.275000X-0.200000X-0.275000X0.200000X-0.275000X0*%
%TD*%
%TA.AperFunction,SMDPad,CuDef*%
%ADD33RoundRect,0.225000X-0.250000X0.225000X-0.250000X-0.225000X0.250000X-0.225000X0.250000X0.225000X0*%
%TD*%
%TA.AperFunction,SMDPad,CuDef*%
%ADD34RoundRect,0.147500X0.147500X0.172500X-0.147500X0.172500X-0.147500X-0.172500X0.147500X-0.172500X0*%
%TD*%
%TA.AperFunction,ComponentPad*%
%ADD35R,2.550000X2.550000*%
%TD*%
%TA.AperFunction,ComponentPad*%
%ADD36C,2.550000*%
%TD*%
%TA.AperFunction,ComponentPad*%
%ADD37C,1.462000*%
%TD*%
%TA.AperFunction,SMDPad,CuDef*%
%ADD38R,0.508000X0.977900*%
%TD*%
%TA.AperFunction,SMDPad,CuDef*%
%ADD39RoundRect,0.243750X-0.456250X0.243750X-0.456250X-0.243750X0.456250X-0.243750X0.456250X0.243750X0*%
%TD*%
%TA.AperFunction,SMDPad,CuDef*%
%ADD40RoundRect,0.225000X-0.225000X-0.250000X0.225000X-0.250000X0.225000X0.250000X-0.225000X0.250000X0*%
%TD*%
%TA.AperFunction,SMDPad,CuDef*%
%ADD41R,1.955432X0.420766*%
%TD*%
%TA.AperFunction,ComponentPad*%
%ADD42O,1.000000X1.000000*%
%TD*%
%TA.AperFunction,SMDPad,CuDef*%
%ADD43R,2.600000X1.900000*%
%TD*%
%TA.AperFunction,SMDPad,CuDef*%
%ADD44R,0.431800X1.651000*%
%TD*%
%TA.AperFunction,SMDPad,CuDef*%
%ADD45RoundRect,0.135000X0.135000X0.185000X-0.135000X0.185000X-0.135000X-0.185000X0.135000X-0.185000X0*%
%TD*%
%TA.AperFunction,ViaPad*%
%ADD46C,0.800000*%
%TD*%
%TA.AperFunction,ViaPad*%
%ADD47C,1.270000*%
%TD*%
%TA.AperFunction,Conductor*%
%ADD48C,0.381000*%
%TD*%
%TA.AperFunction,Conductor*%
%ADD49C,0.250000*%
%TD*%
%TA.AperFunction,Conductor*%
%ADD50C,0.304800*%
%TD*%
G04 APERTURE END LIST*
D10*
D11*
X48522931Y-24877847D02*
X48637217Y-24915942D01*
X48637217Y-24915942D02*
X48675312Y-24954038D01*
X48675312Y-24954038D02*
X48713408Y-25030228D01*
X48713408Y-25030228D02*
X48713408Y-25144514D01*
X48713408Y-25144514D02*
X48675312Y-25220704D01*
X48675312Y-25220704D02*
X48637217Y-25258800D01*
X48637217Y-25258800D02*
X48561027Y-25296895D01*
X48561027Y-25296895D02*
X48256265Y-25296895D01*
X48256265Y-25296895D02*
X48256265Y-24496895D01*
X48256265Y-24496895D02*
X48522931Y-24496895D01*
X48522931Y-24496895D02*
X48599122Y-24534990D01*
X48599122Y-24534990D02*
X48637217Y-24573085D01*
X48637217Y-24573085D02*
X48675312Y-24649276D01*
X48675312Y-24649276D02*
X48675312Y-24725466D01*
X48675312Y-24725466D02*
X48637217Y-24801657D01*
X48637217Y-24801657D02*
X48599122Y-24839752D01*
X48599122Y-24839752D02*
X48522931Y-24877847D01*
X48522931Y-24877847D02*
X48256265Y-24877847D01*
X49513408Y-25220704D02*
X49475312Y-25258800D01*
X49475312Y-25258800D02*
X49361027Y-25296895D01*
X49361027Y-25296895D02*
X49284836Y-25296895D01*
X49284836Y-25296895D02*
X49170550Y-25258800D01*
X49170550Y-25258800D02*
X49094360Y-25182609D01*
X49094360Y-25182609D02*
X49056265Y-25106419D01*
X49056265Y-25106419D02*
X49018169Y-24954038D01*
X49018169Y-24954038D02*
X49018169Y-24839752D01*
X49018169Y-24839752D02*
X49056265Y-24687371D01*
X49056265Y-24687371D02*
X49094360Y-24611180D01*
X49094360Y-24611180D02*
X49170550Y-24534990D01*
X49170550Y-24534990D02*
X49284836Y-24496895D01*
X49284836Y-24496895D02*
X49361027Y-24496895D01*
X49361027Y-24496895D02*
X49475312Y-24534990D01*
X49475312Y-24534990D02*
X49513408Y-24573085D01*
X50237217Y-25296895D02*
X49856265Y-25296895D01*
X49856265Y-25296895D02*
X49856265Y-24496895D01*
X50503884Y-25296895D02*
X50503884Y-24496895D01*
X50961027Y-25296895D02*
X50618169Y-24839752D01*
X50961027Y-24496895D02*
X50503884Y-24954038D01*
D12*
D13*
X59789160Y-66339533D02*
X60398684Y-66339533D01*
X60093922Y-66644295D02*
X60093922Y-66034771D01*
X61198683Y-66644295D02*
X60741540Y-66644295D01*
X60970112Y-66644295D02*
X60970112Y-65844295D01*
X60970112Y-65844295D02*
X60893921Y-65958580D01*
X60893921Y-65958580D02*
X60817731Y-66034771D01*
X60817731Y-66034771D02*
X60741540Y-66072866D01*
X61427255Y-65844295D02*
X61693922Y-66644295D01*
X61693922Y-66644295D02*
X61960588Y-65844295D01*
X62608207Y-65844295D02*
X62227255Y-65844295D01*
X62227255Y-65844295D02*
X62189159Y-66225247D01*
X62189159Y-66225247D02*
X62227255Y-66187152D01*
X62227255Y-66187152D02*
X62303445Y-66149057D01*
X62303445Y-66149057D02*
X62493921Y-66149057D01*
X62493921Y-66149057D02*
X62570112Y-66187152D01*
X62570112Y-66187152D02*
X62608207Y-66225247D01*
X62608207Y-66225247D02*
X62646302Y-66301438D01*
X62646302Y-66301438D02*
X62646302Y-66491914D01*
X62646302Y-66491914D02*
X62608207Y-66568104D01*
X62608207Y-66568104D02*
X62570112Y-66606200D01*
X62570112Y-66606200D02*
X62493921Y-66644295D01*
X62493921Y-66644295D02*
X62303445Y-66644295D01*
X62303445Y-66644295D02*
X62227255Y-66606200D01*
X62227255Y-66606200D02*
X62189159Y-66568104D01*
D12*
D13*
X66208207Y-65882390D02*
X66132017Y-65844295D01*
X66132017Y-65844295D02*
X66017731Y-65844295D01*
X66017731Y-65844295D02*
X65903445Y-65882390D01*
X65903445Y-65882390D02*
X65827255Y-65958580D01*
X65827255Y-65958580D02*
X65789160Y-66034771D01*
X65789160Y-66034771D02*
X65751064Y-66187152D01*
X65751064Y-66187152D02*
X65751064Y-66301438D01*
X65751064Y-66301438D02*
X65789160Y-66453819D01*
X65789160Y-66453819D02*
X65827255Y-66530009D01*
X65827255Y-66530009D02*
X65903445Y-66606200D01*
X65903445Y-66606200D02*
X66017731Y-66644295D01*
X66017731Y-66644295D02*
X66093922Y-66644295D01*
X66093922Y-66644295D02*
X66208207Y-66606200D01*
X66208207Y-66606200D02*
X66246303Y-66568104D01*
X66246303Y-66568104D02*
X66246303Y-66301438D01*
X66246303Y-66301438D02*
X66093922Y-66301438D01*
X66589160Y-66644295D02*
X66589160Y-65844295D01*
X66589160Y-65844295D02*
X67046303Y-66644295D01*
X67046303Y-66644295D02*
X67046303Y-65844295D01*
X67427255Y-66644295D02*
X67427255Y-65844295D01*
X67427255Y-65844295D02*
X67617731Y-65844295D01*
X67617731Y-65844295D02*
X67732017Y-65882390D01*
X67732017Y-65882390D02*
X67808207Y-65958580D01*
X67808207Y-65958580D02*
X67846302Y-66034771D01*
X67846302Y-66034771D02*
X67884398Y-66187152D01*
X67884398Y-66187152D02*
X67884398Y-66301438D01*
X67884398Y-66301438D02*
X67846302Y-66453819D01*
X67846302Y-66453819D02*
X67808207Y-66530009D01*
X67808207Y-66530009D02*
X67732017Y-66606200D01*
X67732017Y-66606200D02*
X67617731Y-66644295D01*
X67617731Y-66644295D02*
X67427255Y-66644295D01*
D10*
D11*
X39903104Y-56913408D02*
X40284057Y-56646741D01*
X39903104Y-56456265D02*
X40703104Y-56456265D01*
X40703104Y-56456265D02*
X40703104Y-56761027D01*
X40703104Y-56761027D02*
X40665009Y-56837217D01*
X40665009Y-56837217D02*
X40626914Y-56875312D01*
X40626914Y-56875312D02*
X40550723Y-56913408D01*
X40550723Y-56913408D02*
X40436438Y-56913408D01*
X40436438Y-56913408D02*
X40360247Y-56875312D01*
X40360247Y-56875312D02*
X40322152Y-56837217D01*
X40322152Y-56837217D02*
X40284057Y-56761027D01*
X40284057Y-56761027D02*
X40284057Y-56456265D01*
X40703104Y-57180074D02*
X39903104Y-57713408D01*
X40703104Y-57713408D02*
X39903104Y-57180074D01*
X40703104Y-58170551D02*
X40703104Y-58246741D01*
X40703104Y-58246741D02*
X40665009Y-58322932D01*
X40665009Y-58322932D02*
X40626914Y-58361027D01*
X40626914Y-58361027D02*
X40550723Y-58399122D01*
X40550723Y-58399122D02*
X40398342Y-58437217D01*
X40398342Y-58437217D02*
X40207866Y-58437217D01*
X40207866Y-58437217D02*
X40055485Y-58399122D01*
X40055485Y-58399122D02*
X39979295Y-58361027D01*
X39979295Y-58361027D02*
X39941200Y-58322932D01*
X39941200Y-58322932D02*
X39903104Y-58246741D01*
X39903104Y-58246741D02*
X39903104Y-58170551D01*
X39903104Y-58170551D02*
X39941200Y-58094360D01*
X39941200Y-58094360D02*
X39979295Y-58056265D01*
X39979295Y-58056265D02*
X40055485Y-58018170D01*
X40055485Y-58018170D02*
X40207866Y-57980074D01*
X40207866Y-57980074D02*
X40398342Y-57980074D01*
X40398342Y-57980074D02*
X40550723Y-58018170D01*
X40550723Y-58018170D02*
X40626914Y-58056265D01*
X40626914Y-58056265D02*
X40665009Y-58094360D01*
X40665009Y-58094360D02*
X40703104Y-58170551D01*
X39903104Y-59846742D02*
X40284057Y-59580075D01*
X39903104Y-59389599D02*
X40703104Y-59389599D01*
X40703104Y-59389599D02*
X40703104Y-59694361D01*
X40703104Y-59694361D02*
X40665009Y-59770551D01*
X40665009Y-59770551D02*
X40626914Y-59808646D01*
X40626914Y-59808646D02*
X40550723Y-59846742D01*
X40550723Y-59846742D02*
X40436438Y-59846742D01*
X40436438Y-59846742D02*
X40360247Y-59808646D01*
X40360247Y-59808646D02*
X40322152Y-59770551D01*
X40322152Y-59770551D02*
X40284057Y-59694361D01*
X40284057Y-59694361D02*
X40284057Y-59389599D01*
X40703104Y-60113408D02*
X39903104Y-60646742D01*
X40703104Y-60646742D02*
X39903104Y-60113408D01*
X39903104Y-61370551D02*
X39903104Y-60913408D01*
X39903104Y-61141980D02*
X40703104Y-61141980D01*
X40703104Y-61141980D02*
X40588819Y-61065789D01*
X40588819Y-61065789D02*
X40512628Y-60989599D01*
X40512628Y-60989599D02*
X40474533Y-60913408D01*
D10*
D11*
X42656265Y-25296895D02*
X42656265Y-24496895D01*
X42656265Y-24496895D02*
X42922931Y-25068323D01*
X42922931Y-25068323D02*
X43189598Y-24496895D01*
X43189598Y-24496895D02*
X43189598Y-25296895D01*
X44027694Y-25220704D02*
X43989598Y-25258800D01*
X43989598Y-25258800D02*
X43875313Y-25296895D01*
X43875313Y-25296895D02*
X43799122Y-25296895D01*
X43799122Y-25296895D02*
X43684836Y-25258800D01*
X43684836Y-25258800D02*
X43608646Y-25182609D01*
X43608646Y-25182609D02*
X43570551Y-25106419D01*
X43570551Y-25106419D02*
X43532455Y-24954038D01*
X43532455Y-24954038D02*
X43532455Y-24839752D01*
X43532455Y-24839752D02*
X43570551Y-24687371D01*
X43570551Y-24687371D02*
X43608646Y-24611180D01*
X43608646Y-24611180D02*
X43684836Y-24534990D01*
X43684836Y-24534990D02*
X43799122Y-24496895D01*
X43799122Y-24496895D02*
X43875313Y-24496895D01*
X43875313Y-24496895D02*
X43989598Y-24534990D01*
X43989598Y-24534990D02*
X44027694Y-24573085D01*
X44751503Y-25296895D02*
X44370551Y-25296895D01*
X44370551Y-25296895D02*
X44370551Y-24496895D01*
X45018170Y-25296895D02*
X45018170Y-24496895D01*
X45475313Y-25296895D02*
X45132455Y-24839752D01*
X45475313Y-24496895D02*
X45018170Y-24954038D01*
D14*
D15*
X80365093Y-44124411D02*
X79349093Y-44124411D01*
X79445855Y-43688982D02*
X79397474Y-43640601D01*
X79397474Y-43640601D02*
X79349093Y-43543839D01*
X79349093Y-43543839D02*
X79349093Y-43301934D01*
X79349093Y-43301934D02*
X79397474Y-43205172D01*
X79397474Y-43205172D02*
X79445855Y-43156791D01*
X79445855Y-43156791D02*
X79542617Y-43108410D01*
X79542617Y-43108410D02*
X79639379Y-43108410D01*
X79639379Y-43108410D02*
X79784522Y-43156791D01*
X79784522Y-43156791D02*
X80365093Y-43737363D01*
X80365093Y-43737363D02*
X80365093Y-43108410D01*
X80316713Y-42721363D02*
X80365093Y-42576220D01*
X80365093Y-42576220D02*
X80365093Y-42334315D01*
X80365093Y-42334315D02*
X80316713Y-42237553D01*
X80316713Y-42237553D02*
X80268332Y-42189172D01*
X80268332Y-42189172D02*
X80171570Y-42140791D01*
X80171570Y-42140791D02*
X80074808Y-42140791D01*
X80074808Y-42140791D02*
X79978046Y-42189172D01*
X79978046Y-42189172D02*
X79929665Y-42237553D01*
X79929665Y-42237553D02*
X79881284Y-42334315D01*
X79881284Y-42334315D02*
X79832903Y-42527839D01*
X79832903Y-42527839D02*
X79784522Y-42624601D01*
X79784522Y-42624601D02*
X79736141Y-42672982D01*
X79736141Y-42672982D02*
X79639379Y-42721363D01*
X79639379Y-42721363D02*
X79542617Y-42721363D01*
X79542617Y-42721363D02*
X79445855Y-42672982D01*
X79445855Y-42672982D02*
X79397474Y-42624601D01*
X79397474Y-42624601D02*
X79349093Y-42527839D01*
X79349093Y-42527839D02*
X79349093Y-42285934D01*
X79349093Y-42285934D02*
X79397474Y-42140791D01*
X79687760Y-41076411D02*
X79687760Y-40689363D01*
X79349093Y-40931268D02*
X80219951Y-40931268D01*
X80219951Y-40931268D02*
X80316713Y-40882887D01*
X80316713Y-40882887D02*
X80365093Y-40786125D01*
X80365093Y-40786125D02*
X80365093Y-40689363D01*
X80365093Y-40205554D02*
X80316713Y-40302316D01*
X80316713Y-40302316D02*
X80268332Y-40350697D01*
X80268332Y-40350697D02*
X80171570Y-40399078D01*
X80171570Y-40399078D02*
X79881284Y-40399078D01*
X79881284Y-40399078D02*
X79784522Y-40350697D01*
X79784522Y-40350697D02*
X79736141Y-40302316D01*
X79736141Y-40302316D02*
X79687760Y-40205554D01*
X79687760Y-40205554D02*
X79687760Y-40060411D01*
X79687760Y-40060411D02*
X79736141Y-39963649D01*
X79736141Y-39963649D02*
X79784522Y-39915268D01*
X79784522Y-39915268D02*
X79881284Y-39866887D01*
X79881284Y-39866887D02*
X80171570Y-39866887D01*
X80171570Y-39866887D02*
X80268332Y-39915268D01*
X80268332Y-39915268D02*
X80316713Y-39963649D01*
X80316713Y-39963649D02*
X80365093Y-40060411D01*
X80365093Y-40060411D02*
X80365093Y-40205554D01*
X79349093Y-38802507D02*
X79349093Y-38221935D01*
X80365093Y-38512221D02*
X79349093Y-38512221D01*
X80365093Y-37738126D02*
X80316713Y-37834888D01*
X80316713Y-37834888D02*
X80268332Y-37883269D01*
X80268332Y-37883269D02*
X80171570Y-37931650D01*
X80171570Y-37931650D02*
X79881284Y-37931650D01*
X79881284Y-37931650D02*
X79784522Y-37883269D01*
X79784522Y-37883269D02*
X79736141Y-37834888D01*
X79736141Y-37834888D02*
X79687760Y-37738126D01*
X79687760Y-37738126D02*
X79687760Y-37592983D01*
X79687760Y-37592983D02*
X79736141Y-37496221D01*
X79736141Y-37496221D02*
X79784522Y-37447840D01*
X79784522Y-37447840D02*
X79881284Y-37399459D01*
X79881284Y-37399459D02*
X80171570Y-37399459D01*
X80171570Y-37399459D02*
X80268332Y-37447840D01*
X80268332Y-37447840D02*
X80316713Y-37496221D01*
X80316713Y-37496221D02*
X80365093Y-37592983D01*
X80365093Y-37592983D02*
X80365093Y-37738126D01*
X80316713Y-37012412D02*
X80365093Y-36915650D01*
X80365093Y-36915650D02*
X80365093Y-36722126D01*
X80365093Y-36722126D02*
X80316713Y-36625364D01*
X80316713Y-36625364D02*
X80219951Y-36576983D01*
X80219951Y-36576983D02*
X80171570Y-36576983D01*
X80171570Y-36576983D02*
X80074808Y-36625364D01*
X80074808Y-36625364D02*
X80026427Y-36722126D01*
X80026427Y-36722126D02*
X80026427Y-36867269D01*
X80026427Y-36867269D02*
X79978046Y-36964031D01*
X79978046Y-36964031D02*
X79881284Y-37012412D01*
X79881284Y-37012412D02*
X79832903Y-37012412D01*
X79832903Y-37012412D02*
X79736141Y-36964031D01*
X79736141Y-36964031D02*
X79687760Y-36867269D01*
X79687760Y-36867269D02*
X79687760Y-36722126D01*
X79687760Y-36722126D02*
X79736141Y-36625364D01*
X80365093Y-35657745D02*
X80365093Y-36141555D01*
X80365093Y-36141555D02*
X79349093Y-36141555D01*
X80365093Y-35319079D02*
X79687760Y-35319079D01*
X79349093Y-35319079D02*
X79397474Y-35367460D01*
X79397474Y-35367460D02*
X79445855Y-35319079D01*
X79445855Y-35319079D02*
X79397474Y-35270698D01*
X79397474Y-35270698D02*
X79349093Y-35319079D01*
X79349093Y-35319079D02*
X79445855Y-35319079D01*
X79687760Y-34835269D02*
X80365093Y-34835269D01*
X79784522Y-34835269D02*
X79736141Y-34786888D01*
X79736141Y-34786888D02*
X79687760Y-34690126D01*
X79687760Y-34690126D02*
X79687760Y-34544983D01*
X79687760Y-34544983D02*
X79736141Y-34448221D01*
X79736141Y-34448221D02*
X79832903Y-34399840D01*
X79832903Y-34399840D02*
X80365093Y-34399840D01*
X80365093Y-33916031D02*
X79349093Y-33916031D01*
X79978046Y-33819269D02*
X80365093Y-33528983D01*
X79687760Y-33528983D02*
X80074808Y-33916031D01*
X79687760Y-32416222D02*
X80365093Y-32174317D01*
X80365093Y-32174317D02*
X79687760Y-31932412D01*
X79349093Y-31351841D02*
X79349093Y-31255079D01*
X79349093Y-31255079D02*
X79397474Y-31158317D01*
X79397474Y-31158317D02*
X79445855Y-31109936D01*
X79445855Y-31109936D02*
X79542617Y-31061555D01*
X79542617Y-31061555D02*
X79736141Y-31013174D01*
X79736141Y-31013174D02*
X79978046Y-31013174D01*
X79978046Y-31013174D02*
X80171570Y-31061555D01*
X80171570Y-31061555D02*
X80268332Y-31109936D01*
X80268332Y-31109936D02*
X80316713Y-31158317D01*
X80316713Y-31158317D02*
X80365093Y-31255079D01*
X80365093Y-31255079D02*
X80365093Y-31351841D01*
X80365093Y-31351841D02*
X80316713Y-31448603D01*
X80316713Y-31448603D02*
X80268332Y-31496984D01*
X80268332Y-31496984D02*
X80171570Y-31545365D01*
X80171570Y-31545365D02*
X79978046Y-31593746D01*
X79978046Y-31593746D02*
X79736141Y-31593746D01*
X79736141Y-31593746D02*
X79542617Y-31545365D01*
X79542617Y-31545365D02*
X79445855Y-31496984D01*
X79445855Y-31496984D02*
X79397474Y-31448603D01*
X79397474Y-31448603D02*
X79349093Y-31351841D01*
X80268332Y-30577746D02*
X80316713Y-30529365D01*
X80316713Y-30529365D02*
X80365093Y-30577746D01*
X80365093Y-30577746D02*
X80316713Y-30626127D01*
X80316713Y-30626127D02*
X80268332Y-30577746D01*
X80268332Y-30577746D02*
X80365093Y-30577746D01*
X79445855Y-30142317D02*
X79397474Y-30093936D01*
X79397474Y-30093936D02*
X79349093Y-29997174D01*
X79349093Y-29997174D02*
X79349093Y-29755269D01*
X79349093Y-29755269D02*
X79397474Y-29658507D01*
X79397474Y-29658507D02*
X79445855Y-29610126D01*
X79445855Y-29610126D02*
X79542617Y-29561745D01*
X79542617Y-29561745D02*
X79639379Y-29561745D01*
X79639379Y-29561745D02*
X79784522Y-29610126D01*
X79784522Y-29610126D02*
X80365093Y-30190698D01*
X80365093Y-30190698D02*
X80365093Y-29561745D01*
D10*
D11*
X51856265Y-25296895D02*
X51856265Y-24496895D01*
X52199121Y-24573085D02*
X52237217Y-24534990D01*
X52237217Y-24534990D02*
X52313407Y-24496895D01*
X52313407Y-24496895D02*
X52503883Y-24496895D01*
X52503883Y-24496895D02*
X52580074Y-24534990D01*
X52580074Y-24534990D02*
X52618169Y-24573085D01*
X52618169Y-24573085D02*
X52656264Y-24649276D01*
X52656264Y-24649276D02*
X52656264Y-24725466D01*
X52656264Y-24725466D02*
X52618169Y-24839752D01*
X52618169Y-24839752D02*
X52161026Y-25296895D01*
X52161026Y-25296895D02*
X52656264Y-25296895D01*
X52961026Y-25258800D02*
X53075312Y-25296895D01*
X53075312Y-25296895D02*
X53265788Y-25296895D01*
X53265788Y-25296895D02*
X53341979Y-25258800D01*
X53341979Y-25258800D02*
X53380074Y-25220704D01*
X53380074Y-25220704D02*
X53418169Y-25144514D01*
X53418169Y-25144514D02*
X53418169Y-25068323D01*
X53418169Y-25068323D02*
X53380074Y-24992133D01*
X53380074Y-24992133D02*
X53341979Y-24954038D01*
X53341979Y-24954038D02*
X53265788Y-24915942D01*
X53265788Y-24915942D02*
X53113407Y-24877847D01*
X53113407Y-24877847D02*
X53037217Y-24839752D01*
X53037217Y-24839752D02*
X52999122Y-24801657D01*
X52999122Y-24801657D02*
X52961026Y-24725466D01*
X52961026Y-24725466D02*
X52961026Y-24649276D01*
X52961026Y-24649276D02*
X52999122Y-24573085D01*
X52999122Y-24573085D02*
X53037217Y-24534990D01*
X53037217Y-24534990D02*
X53113407Y-24496895D01*
X53113407Y-24496895D02*
X53303884Y-24496895D01*
X53303884Y-24496895D02*
X53418169Y-24534990D01*
X53570551Y-25373085D02*
X54180074Y-25373085D01*
X54370551Y-25296895D02*
X54370551Y-24496895D01*
X54370551Y-24496895D02*
X54561027Y-24496895D01*
X54561027Y-24496895D02*
X54675313Y-24534990D01*
X54675313Y-24534990D02*
X54751503Y-24611180D01*
X54751503Y-24611180D02*
X54789598Y-24687371D01*
X54789598Y-24687371D02*
X54827694Y-24839752D01*
X54827694Y-24839752D02*
X54827694Y-24954038D01*
X54827694Y-24954038D02*
X54789598Y-25106419D01*
X54789598Y-25106419D02*
X54751503Y-25182609D01*
X54751503Y-25182609D02*
X54675313Y-25258800D01*
X54675313Y-25258800D02*
X54561027Y-25296895D01*
X54561027Y-25296895D02*
X54370551Y-25296895D01*
X55170551Y-25296895D02*
X55170551Y-24496895D01*
X55551503Y-25296895D02*
X55551503Y-24496895D01*
X55551503Y-24496895D02*
X56008646Y-25296895D01*
X56008646Y-25296895D02*
X56008646Y-24496895D01*
D12*
D13*
X31932390Y-56291792D02*
X31894295Y-56367982D01*
X31894295Y-56367982D02*
X31894295Y-56482268D01*
X31894295Y-56482268D02*
X31932390Y-56596554D01*
X31932390Y-56596554D02*
X32008580Y-56672744D01*
X32008580Y-56672744D02*
X32084771Y-56710839D01*
X32084771Y-56710839D02*
X32237152Y-56748935D01*
X32237152Y-56748935D02*
X32351438Y-56748935D01*
X32351438Y-56748935D02*
X32503819Y-56710839D01*
X32503819Y-56710839D02*
X32580009Y-56672744D01*
X32580009Y-56672744D02*
X32656200Y-56596554D01*
X32656200Y-56596554D02*
X32694295Y-56482268D01*
X32694295Y-56482268D02*
X32694295Y-56406077D01*
X32694295Y-56406077D02*
X32656200Y-56291792D01*
X32656200Y-56291792D02*
X32618104Y-56253696D01*
X32618104Y-56253696D02*
X32351438Y-56253696D01*
X32351438Y-56253696D02*
X32351438Y-56406077D01*
X32694295Y-55910839D02*
X31894295Y-55910839D01*
X31894295Y-55910839D02*
X32694295Y-55453696D01*
X32694295Y-55453696D02*
X31894295Y-55453696D01*
X32694295Y-55072744D02*
X31894295Y-55072744D01*
X31894295Y-55072744D02*
X31894295Y-54882268D01*
X31894295Y-54882268D02*
X31932390Y-54767982D01*
X31932390Y-54767982D02*
X32008580Y-54691792D01*
X32008580Y-54691792D02*
X32084771Y-54653697D01*
X32084771Y-54653697D02*
X32237152Y-54615601D01*
X32237152Y-54615601D02*
X32351438Y-54615601D01*
X32351438Y-54615601D02*
X32503819Y-54653697D01*
X32503819Y-54653697D02*
X32580009Y-54691792D01*
X32580009Y-54691792D02*
X32656200Y-54767982D01*
X32656200Y-54767982D02*
X32694295Y-54882268D01*
X32694295Y-54882268D02*
X32694295Y-55072744D01*
D12*
D13*
X27546303Y-38218104D02*
X27508207Y-38256200D01*
X27508207Y-38256200D02*
X27393922Y-38294295D01*
X27393922Y-38294295D02*
X27317731Y-38294295D01*
X27317731Y-38294295D02*
X27203445Y-38256200D01*
X27203445Y-38256200D02*
X27127255Y-38180009D01*
X27127255Y-38180009D02*
X27089160Y-38103819D01*
X27089160Y-38103819D02*
X27051064Y-37951438D01*
X27051064Y-37951438D02*
X27051064Y-37837152D01*
X27051064Y-37837152D02*
X27089160Y-37684771D01*
X27089160Y-37684771D02*
X27127255Y-37608580D01*
X27127255Y-37608580D02*
X27203445Y-37532390D01*
X27203445Y-37532390D02*
X27317731Y-37494295D01*
X27317731Y-37494295D02*
X27393922Y-37494295D01*
X27393922Y-37494295D02*
X27508207Y-37532390D01*
X27508207Y-37532390D02*
X27546303Y-37570485D01*
X28270112Y-38294295D02*
X27889160Y-38294295D01*
X27889160Y-38294295D02*
X27889160Y-37494295D01*
X28536779Y-38294295D02*
X28536779Y-37494295D01*
X28993922Y-38294295D02*
X28651064Y-37837152D01*
X28993922Y-37494295D02*
X28536779Y-37951438D01*
X29336779Y-38294295D02*
X29336779Y-37494295D01*
X29527255Y-38370485D02*
X30136778Y-38370485D01*
X30212969Y-37494295D02*
X30670112Y-37494295D01*
X30441540Y-38294295D02*
X30441540Y-37494295D01*
X30936779Y-38294295D02*
X30936779Y-37494295D01*
X30936779Y-37494295D02*
X31241541Y-37494295D01*
X31241541Y-37494295D02*
X31317731Y-37532390D01*
X31317731Y-37532390D02*
X31355826Y-37570485D01*
X31355826Y-37570485D02*
X31393922Y-37646676D01*
X31393922Y-37646676D02*
X31393922Y-37760961D01*
X31393922Y-37760961D02*
X31355826Y-37837152D01*
X31355826Y-37837152D02*
X31317731Y-37875247D01*
X31317731Y-37875247D02*
X31241541Y-37913342D01*
X31241541Y-37913342D02*
X30936779Y-37913342D01*
D10*
D11*
X46437217Y-23496895D02*
X46056265Y-23496895D01*
X46056265Y-23496895D02*
X46056265Y-22696895D01*
X47161027Y-23496895D02*
X46894360Y-23115942D01*
X46703884Y-23496895D02*
X46703884Y-22696895D01*
X46703884Y-22696895D02*
X47008646Y-22696895D01*
X47008646Y-22696895D02*
X47084836Y-22734990D01*
X47084836Y-22734990D02*
X47122931Y-22773085D01*
X47122931Y-22773085D02*
X47161027Y-22849276D01*
X47161027Y-22849276D02*
X47161027Y-22963561D01*
X47161027Y-22963561D02*
X47122931Y-23039752D01*
X47122931Y-23039752D02*
X47084836Y-23077847D01*
X47084836Y-23077847D02*
X47008646Y-23115942D01*
X47008646Y-23115942D02*
X46703884Y-23115942D01*
X47961027Y-23420704D02*
X47922931Y-23458800D01*
X47922931Y-23458800D02*
X47808646Y-23496895D01*
X47808646Y-23496895D02*
X47732455Y-23496895D01*
X47732455Y-23496895D02*
X47618169Y-23458800D01*
X47618169Y-23458800D02*
X47541979Y-23382609D01*
X47541979Y-23382609D02*
X47503884Y-23306419D01*
X47503884Y-23306419D02*
X47465788Y-23154038D01*
X47465788Y-23154038D02*
X47465788Y-23039752D01*
X47465788Y-23039752D02*
X47503884Y-22887371D01*
X47503884Y-22887371D02*
X47541979Y-22811180D01*
X47541979Y-22811180D02*
X47618169Y-22734990D01*
X47618169Y-22734990D02*
X47732455Y-22696895D01*
X47732455Y-22696895D02*
X47808646Y-22696895D01*
X47808646Y-22696895D02*
X47922931Y-22734990D01*
X47922931Y-22734990D02*
X47961027Y-22773085D01*
X48684836Y-23496895D02*
X48303884Y-23496895D01*
X48303884Y-23496895D02*
X48303884Y-22696895D01*
X48951503Y-23496895D02*
X48951503Y-22696895D01*
X49408646Y-23496895D02*
X49065788Y-23039752D01*
X49408646Y-22696895D02*
X48951503Y-23154038D01*
D10*
D11*
X40275312Y-24534990D02*
X40199122Y-24496895D01*
X40199122Y-24496895D02*
X40084836Y-24496895D01*
X40084836Y-24496895D02*
X39970550Y-24534990D01*
X39970550Y-24534990D02*
X39894360Y-24611180D01*
X39894360Y-24611180D02*
X39856265Y-24687371D01*
X39856265Y-24687371D02*
X39818169Y-24839752D01*
X39818169Y-24839752D02*
X39818169Y-24954038D01*
X39818169Y-24954038D02*
X39856265Y-25106419D01*
X39856265Y-25106419D02*
X39894360Y-25182609D01*
X39894360Y-25182609D02*
X39970550Y-25258800D01*
X39970550Y-25258800D02*
X40084836Y-25296895D01*
X40084836Y-25296895D02*
X40161027Y-25296895D01*
X40161027Y-25296895D02*
X40275312Y-25258800D01*
X40275312Y-25258800D02*
X40313408Y-25220704D01*
X40313408Y-25220704D02*
X40313408Y-24954038D01*
X40313408Y-24954038D02*
X40161027Y-24954038D01*
X40656265Y-25296895D02*
X40656265Y-24496895D01*
X40656265Y-24496895D02*
X41113408Y-25296895D01*
X41113408Y-25296895D02*
X41113408Y-24496895D01*
X41494360Y-25296895D02*
X41494360Y-24496895D01*
X41494360Y-24496895D02*
X41684836Y-24496895D01*
X41684836Y-24496895D02*
X41799122Y-24534990D01*
X41799122Y-24534990D02*
X41875312Y-24611180D01*
X41875312Y-24611180D02*
X41913407Y-24687371D01*
X41913407Y-24687371D02*
X41951503Y-24839752D01*
X41951503Y-24839752D02*
X41951503Y-24954038D01*
X41951503Y-24954038D02*
X41913407Y-25106419D01*
X41913407Y-25106419D02*
X41875312Y-25182609D01*
X41875312Y-25182609D02*
X41799122Y-25258800D01*
X41799122Y-25258800D02*
X41684836Y-25296895D01*
X41684836Y-25296895D02*
X41494360Y-25296895D01*
D12*
D13*
X57689160Y-81894295D02*
X57689160Y-81094295D01*
X57689160Y-81094295D02*
X57955826Y-81665723D01*
X57955826Y-81665723D02*
X58222493Y-81094295D01*
X58222493Y-81094295D02*
X58222493Y-81894295D01*
X59060589Y-81818104D02*
X59022493Y-81856200D01*
X59022493Y-81856200D02*
X58908208Y-81894295D01*
X58908208Y-81894295D02*
X58832017Y-81894295D01*
X58832017Y-81894295D02*
X58717731Y-81856200D01*
X58717731Y-81856200D02*
X58641541Y-81780009D01*
X58641541Y-81780009D02*
X58603446Y-81703819D01*
X58603446Y-81703819D02*
X58565350Y-81551438D01*
X58565350Y-81551438D02*
X58565350Y-81437152D01*
X58565350Y-81437152D02*
X58603446Y-81284771D01*
X58603446Y-81284771D02*
X58641541Y-81208580D01*
X58641541Y-81208580D02*
X58717731Y-81132390D01*
X58717731Y-81132390D02*
X58832017Y-81094295D01*
X58832017Y-81094295D02*
X58908208Y-81094295D01*
X58908208Y-81094295D02*
X59022493Y-81132390D01*
X59022493Y-81132390D02*
X59060589Y-81170485D01*
X59403446Y-81094295D02*
X59403446Y-81741914D01*
X59403446Y-81741914D02*
X59441541Y-81818104D01*
X59441541Y-81818104D02*
X59479636Y-81856200D01*
X59479636Y-81856200D02*
X59555827Y-81894295D01*
X59555827Y-81894295D02*
X59708208Y-81894295D01*
X59708208Y-81894295D02*
X59784398Y-81856200D01*
X59784398Y-81856200D02*
X59822493Y-81818104D01*
X59822493Y-81818104D02*
X59860589Y-81741914D01*
X59860589Y-81741914D02*
X59860589Y-81094295D01*
X61308208Y-81894295D02*
X61041541Y-81513342D01*
X60851065Y-81894295D02*
X60851065Y-81094295D01*
X60851065Y-81094295D02*
X61155827Y-81094295D01*
X61155827Y-81094295D02*
X61232017Y-81132390D01*
X61232017Y-81132390D02*
X61270112Y-81170485D01*
X61270112Y-81170485D02*
X61308208Y-81246676D01*
X61308208Y-81246676D02*
X61308208Y-81360961D01*
X61308208Y-81360961D02*
X61270112Y-81437152D01*
X61270112Y-81437152D02*
X61232017Y-81475247D01*
X61232017Y-81475247D02*
X61155827Y-81513342D01*
X61155827Y-81513342D02*
X60851065Y-81513342D01*
X61955827Y-81856200D02*
X61879636Y-81894295D01*
X61879636Y-81894295D02*
X61727255Y-81894295D01*
X61727255Y-81894295D02*
X61651065Y-81856200D01*
X61651065Y-81856200D02*
X61612969Y-81780009D01*
X61612969Y-81780009D02*
X61612969Y-81475247D01*
X61612969Y-81475247D02*
X61651065Y-81399057D01*
X61651065Y-81399057D02*
X61727255Y-81360961D01*
X61727255Y-81360961D02*
X61879636Y-81360961D01*
X61879636Y-81360961D02*
X61955827Y-81399057D01*
X61955827Y-81399057D02*
X61993922Y-81475247D01*
X61993922Y-81475247D02*
X61993922Y-81551438D01*
X61993922Y-81551438D02*
X61612969Y-81627628D01*
X62298683Y-81856200D02*
X62374874Y-81894295D01*
X62374874Y-81894295D02*
X62527255Y-81894295D01*
X62527255Y-81894295D02*
X62603445Y-81856200D01*
X62603445Y-81856200D02*
X62641541Y-81780009D01*
X62641541Y-81780009D02*
X62641541Y-81741914D01*
X62641541Y-81741914D02*
X62603445Y-81665723D01*
X62603445Y-81665723D02*
X62527255Y-81627628D01*
X62527255Y-81627628D02*
X62412969Y-81627628D01*
X62412969Y-81627628D02*
X62336779Y-81589533D01*
X62336779Y-81589533D02*
X62298683Y-81513342D01*
X62298683Y-81513342D02*
X62298683Y-81475247D01*
X62298683Y-81475247D02*
X62336779Y-81399057D01*
X62336779Y-81399057D02*
X62412969Y-81360961D01*
X62412969Y-81360961D02*
X62527255Y-81360961D01*
X62527255Y-81360961D02*
X62603445Y-81399057D01*
X63289160Y-81856200D02*
X63212969Y-81894295D01*
X63212969Y-81894295D02*
X63060588Y-81894295D01*
X63060588Y-81894295D02*
X62984398Y-81856200D01*
X62984398Y-81856200D02*
X62946302Y-81780009D01*
X62946302Y-81780009D02*
X62946302Y-81475247D01*
X62946302Y-81475247D02*
X62984398Y-81399057D01*
X62984398Y-81399057D02*
X63060588Y-81360961D01*
X63060588Y-81360961D02*
X63212969Y-81360961D01*
X63212969Y-81360961D02*
X63289160Y-81399057D01*
X63289160Y-81399057D02*
X63327255Y-81475247D01*
X63327255Y-81475247D02*
X63327255Y-81551438D01*
X63327255Y-81551438D02*
X62946302Y-81627628D01*
X63555826Y-81360961D02*
X63860588Y-81360961D01*
X63670112Y-81094295D02*
X63670112Y-81780009D01*
X63670112Y-81780009D02*
X63708207Y-81856200D01*
X63708207Y-81856200D02*
X63784397Y-81894295D01*
X63784397Y-81894295D02*
X63860588Y-81894295D01*
D12*
D13*
X31932390Y-59091792D02*
X31894295Y-59167982D01*
X31894295Y-59167982D02*
X31894295Y-59282268D01*
X31894295Y-59282268D02*
X31932390Y-59396554D01*
X31932390Y-59396554D02*
X32008580Y-59472744D01*
X32008580Y-59472744D02*
X32084771Y-59510839D01*
X32084771Y-59510839D02*
X32237152Y-59548935D01*
X32237152Y-59548935D02*
X32351438Y-59548935D01*
X32351438Y-59548935D02*
X32503819Y-59510839D01*
X32503819Y-59510839D02*
X32580009Y-59472744D01*
X32580009Y-59472744D02*
X32656200Y-59396554D01*
X32656200Y-59396554D02*
X32694295Y-59282268D01*
X32694295Y-59282268D02*
X32694295Y-59206077D01*
X32694295Y-59206077D02*
X32656200Y-59091792D01*
X32656200Y-59091792D02*
X32618104Y-59053696D01*
X32618104Y-59053696D02*
X32351438Y-59053696D01*
X32351438Y-59053696D02*
X32351438Y-59206077D01*
X32694295Y-58710839D02*
X31894295Y-58710839D01*
X31894295Y-58710839D02*
X32694295Y-58253696D01*
X32694295Y-58253696D02*
X31894295Y-58253696D01*
X32694295Y-57872744D02*
X31894295Y-57872744D01*
X31894295Y-57872744D02*
X31894295Y-57682268D01*
X31894295Y-57682268D02*
X31932390Y-57567982D01*
X31932390Y-57567982D02*
X32008580Y-57491792D01*
X32008580Y-57491792D02*
X32084771Y-57453697D01*
X32084771Y-57453697D02*
X32237152Y-57415601D01*
X32237152Y-57415601D02*
X32351438Y-57415601D01*
X32351438Y-57415601D02*
X32503819Y-57453697D01*
X32503819Y-57453697D02*
X32580009Y-57491792D01*
X32580009Y-57491792D02*
X32656200Y-57567982D01*
X32656200Y-57567982D02*
X32694295Y-57682268D01*
X32694295Y-57682268D02*
X32694295Y-57872744D01*
D14*
D15*
X80168332Y-73843839D02*
X80216713Y-73892220D01*
X80216713Y-73892220D02*
X80265093Y-74037363D01*
X80265093Y-74037363D02*
X80265093Y-74134125D01*
X80265093Y-74134125D02*
X80216713Y-74279268D01*
X80216713Y-74279268D02*
X80119951Y-74376030D01*
X80119951Y-74376030D02*
X80023189Y-74424411D01*
X80023189Y-74424411D02*
X79829665Y-74472792D01*
X79829665Y-74472792D02*
X79684522Y-74472792D01*
X79684522Y-74472792D02*
X79490998Y-74424411D01*
X79490998Y-74424411D02*
X79394236Y-74376030D01*
X79394236Y-74376030D02*
X79297474Y-74279268D01*
X79297474Y-74279268D02*
X79249093Y-74134125D01*
X79249093Y-74134125D02*
X79249093Y-74037363D01*
X79249093Y-74037363D02*
X79297474Y-73892220D01*
X79297474Y-73892220D02*
X79345855Y-73843839D01*
X80265093Y-73263268D02*
X80216713Y-73360030D01*
X80216713Y-73360030D02*
X80168332Y-73408411D01*
X80168332Y-73408411D02*
X80071570Y-73456792D01*
X80071570Y-73456792D02*
X79781284Y-73456792D01*
X79781284Y-73456792D02*
X79684522Y-73408411D01*
X79684522Y-73408411D02*
X79636141Y-73360030D01*
X79636141Y-73360030D02*
X79587760Y-73263268D01*
X79587760Y-73263268D02*
X79587760Y-73118125D01*
X79587760Y-73118125D02*
X79636141Y-73021363D01*
X79636141Y-73021363D02*
X79684522Y-72972982D01*
X79684522Y-72972982D02*
X79781284Y-72924601D01*
X79781284Y-72924601D02*
X80071570Y-72924601D01*
X80071570Y-72924601D02*
X80168332Y-72972982D01*
X80168332Y-72972982D02*
X80216713Y-73021363D01*
X80216713Y-73021363D02*
X80265093Y-73118125D01*
X80265093Y-73118125D02*
X80265093Y-73263268D01*
X79587760Y-72489173D02*
X80603760Y-72489173D01*
X79636141Y-72489173D02*
X79587760Y-72392411D01*
X79587760Y-72392411D02*
X79587760Y-72198887D01*
X79587760Y-72198887D02*
X79636141Y-72102125D01*
X79636141Y-72102125D02*
X79684522Y-72053744D01*
X79684522Y-72053744D02*
X79781284Y-72005363D01*
X79781284Y-72005363D02*
X80071570Y-72005363D01*
X80071570Y-72005363D02*
X80168332Y-72053744D01*
X80168332Y-72053744D02*
X80216713Y-72102125D01*
X80216713Y-72102125D02*
X80265093Y-72198887D01*
X80265093Y-72198887D02*
X80265093Y-72392411D01*
X80265093Y-72392411D02*
X80216713Y-72489173D01*
X79587760Y-71666697D02*
X80265093Y-71424792D01*
X79587760Y-71182887D02*
X80265093Y-71424792D01*
X80265093Y-71424792D02*
X80506998Y-71521554D01*
X80506998Y-71521554D02*
X80555379Y-71569935D01*
X80555379Y-71569935D02*
X80603760Y-71666697D01*
X80265093Y-70795840D02*
X79587760Y-70795840D01*
X79781284Y-70795840D02*
X79684522Y-70747459D01*
X79684522Y-70747459D02*
X79636141Y-70699078D01*
X79636141Y-70699078D02*
X79587760Y-70602316D01*
X79587760Y-70602316D02*
X79587760Y-70505554D01*
X80265093Y-70166888D02*
X79587760Y-70166888D01*
X79249093Y-70166888D02*
X79297474Y-70215269D01*
X79297474Y-70215269D02*
X79345855Y-70166888D01*
X79345855Y-70166888D02*
X79297474Y-70118507D01*
X79297474Y-70118507D02*
X79249093Y-70166888D01*
X79249093Y-70166888D02*
X79345855Y-70166888D01*
X79587760Y-69247649D02*
X80410236Y-69247649D01*
X80410236Y-69247649D02*
X80506998Y-69296030D01*
X80506998Y-69296030D02*
X80555379Y-69344411D01*
X80555379Y-69344411D02*
X80603760Y-69441173D01*
X80603760Y-69441173D02*
X80603760Y-69586316D01*
X80603760Y-69586316D02*
X80555379Y-69683078D01*
X80216713Y-69247649D02*
X80265093Y-69344411D01*
X80265093Y-69344411D02*
X80265093Y-69537935D01*
X80265093Y-69537935D02*
X80216713Y-69634697D01*
X80216713Y-69634697D02*
X80168332Y-69683078D01*
X80168332Y-69683078D02*
X80071570Y-69731459D01*
X80071570Y-69731459D02*
X79781284Y-69731459D01*
X79781284Y-69731459D02*
X79684522Y-69683078D01*
X79684522Y-69683078D02*
X79636141Y-69634697D01*
X79636141Y-69634697D02*
X79587760Y-69537935D01*
X79587760Y-69537935D02*
X79587760Y-69344411D01*
X79587760Y-69344411D02*
X79636141Y-69247649D01*
X80265093Y-68763840D02*
X79249093Y-68763840D01*
X80265093Y-68328411D02*
X79732903Y-68328411D01*
X79732903Y-68328411D02*
X79636141Y-68376792D01*
X79636141Y-68376792D02*
X79587760Y-68473554D01*
X79587760Y-68473554D02*
X79587760Y-68618697D01*
X79587760Y-68618697D02*
X79636141Y-68715459D01*
X79636141Y-68715459D02*
X79684522Y-68763840D01*
X79587760Y-67989745D02*
X79587760Y-67602697D01*
X79249093Y-67844602D02*
X80119951Y-67844602D01*
X80119951Y-67844602D02*
X80216713Y-67796221D01*
X80216713Y-67796221D02*
X80265093Y-67699459D01*
X80265093Y-67699459D02*
X80265093Y-67602697D01*
X80652141Y-66199650D02*
X80603760Y-66248031D01*
X80603760Y-66248031D02*
X80458617Y-66344793D01*
X80458617Y-66344793D02*
X80361855Y-66393174D01*
X80361855Y-66393174D02*
X80216713Y-66441555D01*
X80216713Y-66441555D02*
X79974808Y-66489936D01*
X79974808Y-66489936D02*
X79781284Y-66489936D01*
X79781284Y-66489936D02*
X79539379Y-66441555D01*
X79539379Y-66441555D02*
X79394236Y-66393174D01*
X79394236Y-66393174D02*
X79297474Y-66344793D01*
X79297474Y-66344793D02*
X79152332Y-66248031D01*
X79152332Y-66248031D02*
X79103951Y-66199650D01*
X80168332Y-65232031D02*
X80216713Y-65280412D01*
X80216713Y-65280412D02*
X80265093Y-65425555D01*
X80265093Y-65425555D02*
X80265093Y-65522317D01*
X80265093Y-65522317D02*
X80216713Y-65667460D01*
X80216713Y-65667460D02*
X80119951Y-65764222D01*
X80119951Y-65764222D02*
X80023189Y-65812603D01*
X80023189Y-65812603D02*
X79829665Y-65860984D01*
X79829665Y-65860984D02*
X79684522Y-65860984D01*
X79684522Y-65860984D02*
X79490998Y-65812603D01*
X79490998Y-65812603D02*
X79394236Y-65764222D01*
X79394236Y-65764222D02*
X79297474Y-65667460D01*
X79297474Y-65667460D02*
X79249093Y-65522317D01*
X79249093Y-65522317D02*
X79249093Y-65425555D01*
X79249093Y-65425555D02*
X79297474Y-65280412D01*
X79297474Y-65280412D02*
X79345855Y-65232031D01*
X80652141Y-64893365D02*
X80603760Y-64844984D01*
X80603760Y-64844984D02*
X80458617Y-64748222D01*
X80458617Y-64748222D02*
X80361855Y-64699841D01*
X80361855Y-64699841D02*
X80216713Y-64651460D01*
X80216713Y-64651460D02*
X79974808Y-64603079D01*
X79974808Y-64603079D02*
X79781284Y-64603079D01*
X79781284Y-64603079D02*
X79539379Y-64651460D01*
X79539379Y-64651460D02*
X79394236Y-64699841D01*
X79394236Y-64699841D02*
X79297474Y-64748222D01*
X79297474Y-64748222D02*
X79152332Y-64844984D01*
X79152332Y-64844984D02*
X79103951Y-64893365D01*
X79345855Y-63393556D02*
X79297474Y-63345175D01*
X79297474Y-63345175D02*
X79249093Y-63248413D01*
X79249093Y-63248413D02*
X79249093Y-63006508D01*
X79249093Y-63006508D02*
X79297474Y-62909746D01*
X79297474Y-62909746D02*
X79345855Y-62861365D01*
X79345855Y-62861365D02*
X79442617Y-62812984D01*
X79442617Y-62812984D02*
X79539379Y-62812984D01*
X79539379Y-62812984D02*
X79684522Y-62861365D01*
X79684522Y-62861365D02*
X80265093Y-63441937D01*
X80265093Y-63441937D02*
X80265093Y-62812984D01*
X79249093Y-62184032D02*
X79249093Y-62087270D01*
X79249093Y-62087270D02*
X79297474Y-61990508D01*
X79297474Y-61990508D02*
X79345855Y-61942127D01*
X79345855Y-61942127D02*
X79442617Y-61893746D01*
X79442617Y-61893746D02*
X79636141Y-61845365D01*
X79636141Y-61845365D02*
X79878046Y-61845365D01*
X79878046Y-61845365D02*
X80071570Y-61893746D01*
X80071570Y-61893746D02*
X80168332Y-61942127D01*
X80168332Y-61942127D02*
X80216713Y-61990508D01*
X80216713Y-61990508D02*
X80265093Y-62087270D01*
X80265093Y-62087270D02*
X80265093Y-62184032D01*
X80265093Y-62184032D02*
X80216713Y-62280794D01*
X80216713Y-62280794D02*
X80168332Y-62329175D01*
X80168332Y-62329175D02*
X80071570Y-62377556D01*
X80071570Y-62377556D02*
X79878046Y-62425937D01*
X79878046Y-62425937D02*
X79636141Y-62425937D01*
X79636141Y-62425937D02*
X79442617Y-62377556D01*
X79442617Y-62377556D02*
X79345855Y-62329175D01*
X79345855Y-62329175D02*
X79297474Y-62280794D01*
X79297474Y-62280794D02*
X79249093Y-62184032D01*
X79345855Y-61458318D02*
X79297474Y-61409937D01*
X79297474Y-61409937D02*
X79249093Y-61313175D01*
X79249093Y-61313175D02*
X79249093Y-61071270D01*
X79249093Y-61071270D02*
X79297474Y-60974508D01*
X79297474Y-60974508D02*
X79345855Y-60926127D01*
X79345855Y-60926127D02*
X79442617Y-60877746D01*
X79442617Y-60877746D02*
X79539379Y-60877746D01*
X79539379Y-60877746D02*
X79684522Y-60926127D01*
X79684522Y-60926127D02*
X80265093Y-61506699D01*
X80265093Y-61506699D02*
X80265093Y-60877746D01*
X79587760Y-60006889D02*
X80265093Y-60006889D01*
X79200713Y-60248794D02*
X79926427Y-60490699D01*
X79926427Y-60490699D02*
X79926427Y-59861746D01*
X80265093Y-58700604D02*
X79249093Y-58700604D01*
X79249093Y-58700604D02*
X79974808Y-58361937D01*
X79974808Y-58361937D02*
X79249093Y-58023270D01*
X79249093Y-58023270D02*
X80265093Y-58023270D01*
X80265093Y-57539461D02*
X79587760Y-57539461D01*
X79249093Y-57539461D02*
X79297474Y-57587842D01*
X79297474Y-57587842D02*
X79345855Y-57539461D01*
X79345855Y-57539461D02*
X79297474Y-57491080D01*
X79297474Y-57491080D02*
X79249093Y-57539461D01*
X79249093Y-57539461D02*
X79345855Y-57539461D01*
X80265093Y-57055651D02*
X79249093Y-57055651D01*
X79878046Y-56958889D02*
X80265093Y-56668603D01*
X79587760Y-56668603D02*
X79974808Y-57055651D01*
X80265093Y-55797746D02*
X79732903Y-55797746D01*
X79732903Y-55797746D02*
X79636141Y-55846127D01*
X79636141Y-55846127D02*
X79587760Y-55942889D01*
X79587760Y-55942889D02*
X79587760Y-56136413D01*
X79587760Y-56136413D02*
X79636141Y-56233175D01*
X80216713Y-55797746D02*
X80265093Y-55894508D01*
X80265093Y-55894508D02*
X80265093Y-56136413D01*
X80265093Y-56136413D02*
X80216713Y-56233175D01*
X80216713Y-56233175D02*
X80119951Y-56281556D01*
X80119951Y-56281556D02*
X80023189Y-56281556D01*
X80023189Y-56281556D02*
X79926427Y-56233175D01*
X79926427Y-56233175D02*
X79878046Y-56136413D01*
X79878046Y-56136413D02*
X79878046Y-55894508D01*
X79878046Y-55894508D02*
X79829665Y-55797746D01*
X80265093Y-54056032D02*
X80265093Y-54539842D01*
X80265093Y-54539842D02*
X79249093Y-54539842D01*
X80265093Y-53281937D02*
X79732903Y-53281937D01*
X79732903Y-53281937D02*
X79636141Y-53330318D01*
X79636141Y-53330318D02*
X79587760Y-53427080D01*
X79587760Y-53427080D02*
X79587760Y-53620604D01*
X79587760Y-53620604D02*
X79636141Y-53717366D01*
X80216713Y-53281937D02*
X80265093Y-53378699D01*
X80265093Y-53378699D02*
X80265093Y-53620604D01*
X80265093Y-53620604D02*
X80216713Y-53717366D01*
X80216713Y-53717366D02*
X80119951Y-53765747D01*
X80119951Y-53765747D02*
X80023189Y-53765747D01*
X80023189Y-53765747D02*
X79926427Y-53717366D01*
X79926427Y-53717366D02*
X79878046Y-53620604D01*
X79878046Y-53620604D02*
X79878046Y-53378699D01*
X79878046Y-53378699D02*
X79829665Y-53281937D01*
X80265093Y-52798128D02*
X79587760Y-52798128D01*
X79249093Y-52798128D02*
X79297474Y-52846509D01*
X79297474Y-52846509D02*
X79345855Y-52798128D01*
X79345855Y-52798128D02*
X79297474Y-52749747D01*
X79297474Y-52749747D02*
X79249093Y-52798128D01*
X79249093Y-52798128D02*
X79345855Y-52798128D01*
X79587760Y-52459461D02*
X79587760Y-52072413D01*
X79249093Y-52314318D02*
X80119951Y-52314318D01*
X80119951Y-52314318D02*
X80216713Y-52265937D01*
X80216713Y-52265937D02*
X80265093Y-52169175D01*
X80265093Y-52169175D02*
X80265093Y-52072413D01*
X80265093Y-51733747D02*
X79587760Y-51733747D01*
X79249093Y-51733747D02*
X79297474Y-51782128D01*
X79297474Y-51782128D02*
X79345855Y-51733747D01*
X79345855Y-51733747D02*
X79297474Y-51685366D01*
X79297474Y-51685366D02*
X79249093Y-51733747D01*
X79249093Y-51733747D02*
X79345855Y-51733747D01*
X80265093Y-51104794D02*
X80216713Y-51201556D01*
X80216713Y-51201556D02*
X80168332Y-51249937D01*
X80168332Y-51249937D02*
X80071570Y-51298318D01*
X80071570Y-51298318D02*
X79781284Y-51298318D01*
X79781284Y-51298318D02*
X79684522Y-51249937D01*
X79684522Y-51249937D02*
X79636141Y-51201556D01*
X79636141Y-51201556D02*
X79587760Y-51104794D01*
X79587760Y-51104794D02*
X79587760Y-50959651D01*
X79587760Y-50959651D02*
X79636141Y-50862889D01*
X79636141Y-50862889D02*
X79684522Y-50814508D01*
X79684522Y-50814508D02*
X79781284Y-50766127D01*
X79781284Y-50766127D02*
X80071570Y-50766127D01*
X80071570Y-50766127D02*
X80168332Y-50814508D01*
X80168332Y-50814508D02*
X80216713Y-50862889D01*
X80216713Y-50862889D02*
X80265093Y-50959651D01*
X80265093Y-50959651D02*
X80265093Y-51104794D01*
D12*
D13*
X28146303Y-31018104D02*
X28108207Y-31056200D01*
X28108207Y-31056200D02*
X27993922Y-31094295D01*
X27993922Y-31094295D02*
X27917731Y-31094295D01*
X27917731Y-31094295D02*
X27803445Y-31056200D01*
X27803445Y-31056200D02*
X27727255Y-30980009D01*
X27727255Y-30980009D02*
X27689160Y-30903819D01*
X27689160Y-30903819D02*
X27651064Y-30751438D01*
X27651064Y-30751438D02*
X27651064Y-30637152D01*
X27651064Y-30637152D02*
X27689160Y-30484771D01*
X27689160Y-30484771D02*
X27727255Y-30408580D01*
X27727255Y-30408580D02*
X27803445Y-30332390D01*
X27803445Y-30332390D02*
X27917731Y-30294295D01*
X27917731Y-30294295D02*
X27993922Y-30294295D01*
X27993922Y-30294295D02*
X28108207Y-30332390D01*
X28108207Y-30332390D02*
X28146303Y-30370485D01*
X28870112Y-31094295D02*
X28489160Y-31094295D01*
X28489160Y-31094295D02*
X28489160Y-30294295D01*
X29136779Y-31094295D02*
X29136779Y-30294295D01*
X29593922Y-31094295D02*
X29251064Y-30637152D01*
X29593922Y-30294295D02*
X29136779Y-30751438D01*
X30089160Y-30294295D02*
X30241541Y-30294295D01*
X30241541Y-30294295D02*
X30317731Y-30332390D01*
X30317731Y-30332390D02*
X30393922Y-30408580D01*
X30393922Y-30408580D02*
X30432017Y-30560961D01*
X30432017Y-30560961D02*
X30432017Y-30827628D01*
X30432017Y-30827628D02*
X30393922Y-30980009D01*
X30393922Y-30980009D02*
X30317731Y-31056200D01*
X30317731Y-31056200D02*
X30241541Y-31094295D01*
X30241541Y-31094295D02*
X30089160Y-31094295D01*
X30089160Y-31094295D02*
X30012969Y-31056200D01*
X30012969Y-31056200D02*
X29936779Y-30980009D01*
X29936779Y-30980009D02*
X29898683Y-30827628D01*
X29898683Y-30827628D02*
X29898683Y-30560961D01*
X29898683Y-30560961D02*
X29936779Y-30408580D01*
X29936779Y-30408580D02*
X30012969Y-30332390D01*
X30012969Y-30332390D02*
X30089160Y-30294295D01*
X30584398Y-31170485D02*
X31193921Y-31170485D01*
X31270112Y-30294295D02*
X31727255Y-30294295D01*
X31498683Y-31094295D02*
X31498683Y-30294295D01*
X31993922Y-31094295D02*
X31993922Y-30294295D01*
X31993922Y-30294295D02*
X32298684Y-30294295D01*
X32298684Y-30294295D02*
X32374874Y-30332390D01*
X32374874Y-30332390D02*
X32412969Y-30370485D01*
X32412969Y-30370485D02*
X32451065Y-30446676D01*
X32451065Y-30446676D02*
X32451065Y-30560961D01*
X32451065Y-30560961D02*
X32412969Y-30637152D01*
X32412969Y-30637152D02*
X32374874Y-30675247D01*
X32374874Y-30675247D02*
X32298684Y-30713342D01*
X32298684Y-30713342D02*
X31993922Y-30713342D01*
D12*
D13*
X25362295Y-64580951D02*
X24562295Y-64580951D01*
X24562295Y-64580951D02*
X25133723Y-64314285D01*
X25133723Y-64314285D02*
X24562295Y-64047618D01*
X24562295Y-64047618D02*
X25362295Y-64047618D01*
X25286104Y-63209522D02*
X25324200Y-63247618D01*
X25324200Y-63247618D02*
X25362295Y-63361903D01*
X25362295Y-63361903D02*
X25362295Y-63438094D01*
X25362295Y-63438094D02*
X25324200Y-63552380D01*
X25324200Y-63552380D02*
X25248009Y-63628570D01*
X25248009Y-63628570D02*
X25171819Y-63666665D01*
X25171819Y-63666665D02*
X25019438Y-63704761D01*
X25019438Y-63704761D02*
X24905152Y-63704761D01*
X24905152Y-63704761D02*
X24752771Y-63666665D01*
X24752771Y-63666665D02*
X24676580Y-63628570D01*
X24676580Y-63628570D02*
X24600390Y-63552380D01*
X24600390Y-63552380D02*
X24562295Y-63438094D01*
X24562295Y-63438094D02*
X24562295Y-63361903D01*
X24562295Y-63361903D02*
X24600390Y-63247618D01*
X24600390Y-63247618D02*
X24638485Y-63209522D01*
X24562295Y-62866665D02*
X25209914Y-62866665D01*
X25209914Y-62866665D02*
X25286104Y-62828570D01*
X25286104Y-62828570D02*
X25324200Y-62790475D01*
X25324200Y-62790475D02*
X25362295Y-62714284D01*
X25362295Y-62714284D02*
X25362295Y-62561903D01*
X25362295Y-62561903D02*
X25324200Y-62485713D01*
X25324200Y-62485713D02*
X25286104Y-62447618D01*
X25286104Y-62447618D02*
X25209914Y-62409522D01*
X25209914Y-62409522D02*
X24562295Y-62409522D01*
X25438485Y-62219047D02*
X25438485Y-61609523D01*
X24600390Y-60999999D02*
X24562295Y-61076189D01*
X24562295Y-61076189D02*
X24562295Y-61190475D01*
X24562295Y-61190475D02*
X24600390Y-61304761D01*
X24600390Y-61304761D02*
X24676580Y-61380951D01*
X24676580Y-61380951D02*
X24752771Y-61419046D01*
X24752771Y-61419046D02*
X24905152Y-61457142D01*
X24905152Y-61457142D02*
X25019438Y-61457142D01*
X25019438Y-61457142D02*
X25171819Y-61419046D01*
X25171819Y-61419046D02*
X25248009Y-61380951D01*
X25248009Y-61380951D02*
X25324200Y-61304761D01*
X25324200Y-61304761D02*
X25362295Y-61190475D01*
X25362295Y-61190475D02*
X25362295Y-61114284D01*
X25362295Y-61114284D02*
X25324200Y-60999999D01*
X25324200Y-60999999D02*
X25286104Y-60961903D01*
X25286104Y-60961903D02*
X25019438Y-60961903D01*
X25019438Y-60961903D02*
X25019438Y-61114284D01*
X25362295Y-60619046D02*
X24562295Y-60619046D01*
X24562295Y-60619046D02*
X24562295Y-60314284D01*
X24562295Y-60314284D02*
X24600390Y-60238094D01*
X24600390Y-60238094D02*
X24638485Y-60199999D01*
X24638485Y-60199999D02*
X24714676Y-60161903D01*
X24714676Y-60161903D02*
X24828961Y-60161903D01*
X24828961Y-60161903D02*
X24905152Y-60199999D01*
X24905152Y-60199999D02*
X24943247Y-60238094D01*
X24943247Y-60238094D02*
X24981342Y-60314284D01*
X24981342Y-60314284D02*
X24981342Y-60619046D01*
X25362295Y-59819046D02*
X24562295Y-59819046D01*
X24562295Y-59285713D02*
X24562295Y-59133332D01*
X24562295Y-59133332D02*
X24600390Y-59057142D01*
X24600390Y-59057142D02*
X24676580Y-58980951D01*
X24676580Y-58980951D02*
X24828961Y-58942856D01*
X24828961Y-58942856D02*
X25095628Y-58942856D01*
X25095628Y-58942856D02*
X25248009Y-58980951D01*
X25248009Y-58980951D02*
X25324200Y-59057142D01*
X25324200Y-59057142D02*
X25362295Y-59133332D01*
X25362295Y-59133332D02*
X25362295Y-59285713D01*
X25362295Y-59285713D02*
X25324200Y-59361904D01*
X25324200Y-59361904D02*
X25248009Y-59438094D01*
X25248009Y-59438094D02*
X25095628Y-59476190D01*
X25095628Y-59476190D02*
X24828961Y-59476190D01*
X24828961Y-59476190D02*
X24676580Y-59438094D01*
X24676580Y-59438094D02*
X24600390Y-59361904D01*
X24600390Y-59361904D02*
X24562295Y-59285713D01*
X25324200Y-58638095D02*
X25362295Y-58523809D01*
X25362295Y-58523809D02*
X25362295Y-58333333D01*
X25362295Y-58333333D02*
X25324200Y-58257142D01*
X25324200Y-58257142D02*
X25286104Y-58219047D01*
X25286104Y-58219047D02*
X25209914Y-58180952D01*
X25209914Y-58180952D02*
X25133723Y-58180952D01*
X25133723Y-58180952D02*
X25057533Y-58219047D01*
X25057533Y-58219047D02*
X25019438Y-58257142D01*
X25019438Y-58257142D02*
X24981342Y-58333333D01*
X24981342Y-58333333D02*
X24943247Y-58485714D01*
X24943247Y-58485714D02*
X24905152Y-58561904D01*
X24905152Y-58561904D02*
X24867057Y-58599999D01*
X24867057Y-58599999D02*
X24790866Y-58638095D01*
X24790866Y-58638095D02*
X24714676Y-58638095D01*
X24714676Y-58638095D02*
X24638485Y-58599999D01*
X24638485Y-58599999D02*
X24600390Y-58561904D01*
X24600390Y-58561904D02*
X24562295Y-58485714D01*
X24562295Y-58485714D02*
X24562295Y-58295237D01*
X24562295Y-58295237D02*
X24600390Y-58180952D01*
D10*
D11*
X52788704Y-50088094D02*
X52826800Y-50126190D01*
X52826800Y-50126190D02*
X52864895Y-50240475D01*
X52864895Y-50240475D02*
X52864895Y-50316666D01*
X52864895Y-50316666D02*
X52826800Y-50430952D01*
X52826800Y-50430952D02*
X52750609Y-50507142D01*
X52750609Y-50507142D02*
X52674419Y-50545237D01*
X52674419Y-50545237D02*
X52522038Y-50583333D01*
X52522038Y-50583333D02*
X52407752Y-50583333D01*
X52407752Y-50583333D02*
X52255371Y-50545237D01*
X52255371Y-50545237D02*
X52179180Y-50507142D01*
X52179180Y-50507142D02*
X52102990Y-50430952D01*
X52102990Y-50430952D02*
X52064895Y-50316666D01*
X52064895Y-50316666D02*
X52064895Y-50240475D01*
X52064895Y-50240475D02*
X52102990Y-50126190D01*
X52102990Y-50126190D02*
X52141085Y-50088094D01*
X52864895Y-49288094D02*
X52483942Y-49554761D01*
X52864895Y-49745237D02*
X52064895Y-49745237D01*
X52064895Y-49745237D02*
X52064895Y-49440475D01*
X52064895Y-49440475D02*
X52102990Y-49364285D01*
X52102990Y-49364285D02*
X52141085Y-49326190D01*
X52141085Y-49326190D02*
X52217276Y-49288094D01*
X52217276Y-49288094D02*
X52331561Y-49288094D01*
X52331561Y-49288094D02*
X52407752Y-49326190D01*
X52407752Y-49326190D02*
X52445847Y-49364285D01*
X52445847Y-49364285D02*
X52483942Y-49440475D01*
X52483942Y-49440475D02*
X52483942Y-49745237D01*
X52826800Y-48983333D02*
X52864895Y-48869047D01*
X52864895Y-48869047D02*
X52864895Y-48678571D01*
X52864895Y-48678571D02*
X52826800Y-48602380D01*
X52826800Y-48602380D02*
X52788704Y-48564285D01*
X52788704Y-48564285D02*
X52712514Y-48526190D01*
X52712514Y-48526190D02*
X52636323Y-48526190D01*
X52636323Y-48526190D02*
X52560133Y-48564285D01*
X52560133Y-48564285D02*
X52522038Y-48602380D01*
X52522038Y-48602380D02*
X52483942Y-48678571D01*
X52483942Y-48678571D02*
X52445847Y-48830952D01*
X52445847Y-48830952D02*
X52407752Y-48907142D01*
X52407752Y-48907142D02*
X52369657Y-48945237D01*
X52369657Y-48945237D02*
X52293466Y-48983333D01*
X52293466Y-48983333D02*
X52217276Y-48983333D01*
X52217276Y-48983333D02*
X52141085Y-48945237D01*
X52141085Y-48945237D02*
X52102990Y-48907142D01*
X52102990Y-48907142D02*
X52064895Y-48830952D01*
X52064895Y-48830952D02*
X52064895Y-48640475D01*
X52064895Y-48640475D02*
X52102990Y-48526190D01*
X52064895Y-48297618D02*
X52064895Y-47840475D01*
X52864895Y-48069047D02*
X52064895Y-48069047D01*
D16*
%TO.P,Y1,1,1*%
%TO.N,MCU_XTAL2*%
X33366000Y-76250000D03*
%TO.P,Y1,2,2*%
%TO.N,MCU_XTAL1*%
X33366000Y-71982800D03*
%TD*%
D17*
%TO.P,H1,1*%
%TO.N,N/C*%
X24130000Y-23622000D03*
D18*
X24130000Y-23622000D03*
%TD*%
D19*
%TO.P,C18,1*%
%TO.N,CODEC_XIN*%
X59000000Y-32800000D03*
%TO.P,C18,2*%
%TO.N,GND*%
X59000000Y-31840000D03*
%TD*%
D20*
%TO.P,R10,1*%
%TO.N,Net-(J10-VIN)*%
X65830200Y-49961400D03*
%TO.P,R10,2*%
%TO.N,Net-(C22-Pad1)*%
X67480200Y-49961400D03*
%TD*%
D21*
%TO.P,C10,1*%
%TO.N,MCU_XTAL1*%
X39614400Y-73998000D03*
%TO.P,C10,2*%
%TO.N,GND*%
X39614400Y-74958000D03*
%TD*%
D22*
%TO.P,C15,1*%
%TO.N,GND*%
X38069400Y-48717200D03*
%TO.P,C15,2*%
%TO.N,VCC_3V3*%
X37109400Y-48717200D03*
%TD*%
D23*
%TO.P,R14,1*%
%TO.N,MCU_INT0*%
X43750000Y-62260000D03*
%TO.P,R14,2*%
%TO.N,CODEC_INT0*%
X43750000Y-61240000D03*
%TD*%
D24*
%TO.P,J3,1,Pin_1*%
%TO.N,GND*%
X74250000Y-59750000D03*
D25*
%TO.P,J3,2,Pin_2*%
%TO.N,VCC_3V3*%
X74250000Y-62290000D03*
%TD*%
D26*
%TO.P,R4,1*%
%TO.N,MCU_RXD0*%
X53500000Y-57480000D03*
%TO.P,R4,2*%
%TO.N,VCC_3V3*%
X53500000Y-58500000D03*
%TD*%
D27*
%TO.P,R6,1*%
%TO.N,CODEC_GPO7*%
X54490000Y-55250000D03*
%TO.P,R6,2*%
%TO.N,GND*%
X55510000Y-55250000D03*
%TD*%
D28*
%TO.P,J17,1,Pin_1*%
%TO.N,CODEC_CLKOUT*%
X56134000Y-47498000D03*
%TD*%
D23*
%TO.P,R8,1*%
%TO.N,CODEC_RESETB*%
X56500000Y-51250000D03*
%TO.P,R8,2*%
%TO.N,VCC_3V3*%
X56500000Y-50230000D03*
%TD*%
D22*
%TO.P,C8,1*%
%TO.N,VCC_3V3*%
X38363600Y-72418000D03*
%TO.P,C8,2*%
%TO.N,GND*%
X37403600Y-72418000D03*
%TD*%
D29*
%TO.P,TP1,1,1*%
%TO.N,Net-(U2-ADC7)*%
X54750000Y-65500000D03*
%TD*%
D19*
%TO.P,C13,1*%
%TO.N,GND*%
X24270000Y-45230000D03*
%TO.P,C13,2*%
%TO.N,VCC_3V3*%
X24270000Y-44270000D03*
%TD*%
D30*
%TO.P,U2,1,PD3*%
%TO.N,MCU_LED*%
X43111400Y-68424200D03*
%TO.P,U2,2,PD4*%
%TO.N,Net-(J12-Pin_5)*%
X43111400Y-69224200D03*
%TO.P,U2,3,GND*%
%TO.N,GND*%
X43111400Y-70024200D03*
%TO.P,U2,4,VCC*%
%TO.N,VCC_3V3*%
X43111400Y-70824200D03*
%TO.P,U2,5,GND*%
%TO.N,GND*%
X43111400Y-71624200D03*
%TO.P,U2,6,VCC*%
%TO.N,VCC_3V3*%
X43111400Y-72424200D03*
%TO.P,U2,7,XTAL1/PB6*%
%TO.N,MCU_XTAL1*%
X43111400Y-73224200D03*
%TO.P,U2,8,XTAL2/PB7*%
%TO.N,MCU_XTAL2*%
X43111400Y-74024200D03*
D31*
%TO.P,U2,9,PD5*%
%TO.N,Net-(J12-Pin_4)*%
X44561400Y-75474200D03*
%TO.P,U2,10,PD6*%
%TO.N,Net-(J12-Pin_3)*%
X45361400Y-75474200D03*
%TO.P,U2,11,PD7*%
%TO.N,Net-(J12-Pin_2)*%
X46161400Y-75474200D03*
%TO.P,U2,12,PB0*%
%TO.N,unconnected-(U2-PB0-Pad12)*%
X46961400Y-75474200D03*
%TO.P,U2,13,PB1*%
%TO.N,unconnected-(U2-PB1-Pad13)*%
X47761400Y-75474200D03*
%TO.P,U2,14,PB2*%
%TO.N,unconnected-(U2-PB2-Pad14)*%
X48561400Y-75474200D03*
%TO.P,U2,15,PB3*%
%TO.N,MCU_MOSI*%
X49361400Y-75474200D03*
%TO.P,U2,16,PB4*%
%TO.N,MCU_MISO*%
X50161400Y-75474200D03*
D30*
%TO.P,U2,17,PB5*%
%TO.N,MCU_SCK*%
X51611400Y-74024200D03*
%TO.P,U2,18,AVCC*%
%TO.N,VCC_3V3*%
X51611400Y-73224200D03*
%TO.P,U2,19,ADC6*%
%TO.N,unconnected-(U2-ADC6-Pad19)*%
X51611400Y-72424200D03*
%TO.P,U2,20,AREF*%
%TO.N,Net-(U2-AREF)*%
X51611400Y-71624200D03*
%TO.P,U2,21,GND*%
%TO.N,GND*%
X51611400Y-70824200D03*
%TO.P,U2,22,ADC7*%
%TO.N,Net-(U2-ADC7)*%
X51611400Y-70024200D03*
%TO.P,U2,23,PC0*%
%TO.N,unconnected-(U2-PC0-Pad23)*%
X51611400Y-69224200D03*
%TO.P,U2,24,PC1*%
%TO.N,unconnected-(U2-PC1-Pad24)*%
X51611400Y-68424200D03*
D31*
%TO.P,U2,25,PC2*%
%TO.N,unconnected-(U2-PC2-Pad25)*%
X50161400Y-66974200D03*
%TO.P,U2,26,PC3*%
%TO.N,unconnected-(U2-PC3-Pad26)*%
X49361400Y-66974200D03*
%TO.P,U2,27,PC4*%
%TO.N,MCU_SDA1*%
X48561400Y-66974200D03*
%TO.P,U2,28,PC5*%
%TO.N,MCU_SCL1*%
X47761400Y-66974200D03*
%TO.P,U2,29,~{RESET}/PC6*%
%TO.N,MCU_RST*%
X46961400Y-66974200D03*
%TO.P,U2,30,PD0*%
%TO.N,MCU_RXD0*%
X46161400Y-66974200D03*
%TO.P,U2,31,PD1*%
%TO.N,MCU_TXD0*%
X45361400Y-66974200D03*
%TO.P,U2,32,PD2*%
%TO.N,MCU_INT0*%
X44561400Y-66974200D03*
%TD*%
D24*
%TO.P,J2,1,Pin_1*%
%TO.N,GND*%
X41590000Y-27500000D03*
D25*
%TO.P,J2,2,Pin_2*%
%TO.N,EXTERNAL_IN_I2S_MCLK*%
X44130000Y-27500000D03*
%TO.P,J2,3,Pin_3*%
%TO.N,EXTERNAL_IN_I2S_LRCLK*%
X46670000Y-27500000D03*
%TO.P,J2,4,Pin_4*%
%TO.N,EXTERNAL_IN_I2S_BCLK*%
X49210000Y-27500000D03*
%TO.P,J2,5,Pin_5*%
%TO.N,EXTERNAL_IN_I2S_DIN*%
X51750000Y-27500000D03*
%TD*%
D28*
%TO.P,J15,1,Pin_1*%
%TO.N,CODEC_GPO7*%
X51577000Y-54750000D03*
%TD*%
D19*
%TO.P,C14,1*%
%TO.N,GND*%
X25349200Y-50000000D03*
%TO.P,C14,2*%
%TO.N,VCC_3V3*%
X25349200Y-49040000D03*
%TD*%
D24*
%TO.P,SW1,1,1*%
%TO.N,GND*%
X59460000Y-79000000D03*
D25*
%TO.P,SW1,2,2*%
%TO.N,Net-(R16-Pad1)*%
X62000000Y-79000000D03*
%TD*%
D20*
%TO.P,R12,1*%
%TO.N,Net-(C23-Pad2)*%
X71850000Y-54000000D03*
%TO.P,R12,2*%
%TO.N,GND*%
X73500000Y-54000000D03*
%TD*%
D24*
%TO.P,J12,1,Pin_1*%
%TO.N,GND*%
X29000000Y-56720000D03*
D25*
%TO.P,J12,2,Pin_2*%
%TO.N,Net-(J12-Pin_2)*%
X29000000Y-59260000D03*
%TO.P,J12,3,Pin_3*%
%TO.N,Net-(J12-Pin_3)*%
X29000000Y-61800000D03*
%TO.P,J12,4,Pin_4*%
%TO.N,Net-(J12-Pin_4)*%
X29000000Y-64340000D03*
%TO.P,J12,5,Pin_5*%
%TO.N,Net-(J12-Pin_5)*%
X29000000Y-66880000D03*
%TD*%
D22*
%TO.P,C4,1*%
%TO.N,VCC_3V3*%
X68710000Y-59250000D03*
%TO.P,C4,2*%
%TO.N,GND*%
X67750000Y-59250000D03*
%TD*%
D32*
%TO.P,R13,1*%
%TO.N,Net-(C23-Pad2)*%
X67708800Y-53949200D03*
%TO.P,R13,2*%
%TO.N,CODEC_OUT_SPDIF_AUDIO_DATA*%
X66058800Y-53949200D03*
%TD*%
D24*
%TO.P,J9,1,Pin_1*%
%TO.N,GND*%
X35500000Y-34210000D03*
D25*
%TO.P,J9,2,Pin_2*%
%TO.N,CLKGEN_OUT_I2S_MCLK*%
X35500000Y-36750000D03*
%TO.P,J9,3,Pin_3*%
%TO.N,Net-(J9-Pin_3)*%
X35500000Y-39290000D03*
%TD*%
D26*
%TO.P,R5,1*%
%TO.N,VCC_3V3*%
X56000000Y-58490000D03*
%TO.P,R5,2*%
%TO.N,MCU_TXD0*%
X56000000Y-59510000D03*
%TD*%
D33*
%TO.P,C23,1*%
%TO.N,Net-(C22-Pad1)*%
X69830200Y-52412000D03*
%TO.P,C23,2*%
%TO.N,Net-(C23-Pad2)*%
X69830200Y-53962000D03*
%TD*%
D23*
%TO.P,R1,1*%
%TO.N,MCU_SDA1*%
X45400000Y-54200000D03*
%TO.P,R1,2*%
%TO.N,VCC_3V3*%
X45400000Y-53180000D03*
%TD*%
D20*
%TO.P,R11,1*%
%TO.N,CODEC_OUT_SPDIF_AUDIO_DATA*%
X63675000Y-45000000D03*
%TO.P,R11,2*%
%TO.N,Net-(J10-VIN)*%
X65325000Y-45000000D03*
%TD*%
D34*
%TO.P,D2,1,K*%
%TO.N,VCC_3V3*%
X73470000Y-76000000D03*
%TO.P,D2,2,A*%
%TO.N,MCU_RST*%
X72500000Y-76000000D03*
%TD*%
D24*
%TO.P,J7,1,Pin_1*%
%TO.N,GND*%
X24250000Y-33500000D03*
D25*
%TO.P,J7,2,Pin_2*%
%TO.N,EXTERNAL_IN_I2S_BCLK*%
X26790000Y-33500000D03*
%TO.P,J7,3,Pin_3*%
%TO.N,Net-(J7-Pin_3)*%
X29330000Y-33500000D03*
%TD*%
D28*
%TO.P,J14,1,Pin_1*%
%TO.N,CODEC_GPO0*%
X45500000Y-47244000D03*
%TD*%
D27*
%TO.P,R16,1*%
%TO.N,Net-(R16-Pad1)*%
X67230000Y-78750000D03*
%TO.P,R16,2*%
%TO.N,MCU_RST*%
X68250000Y-78750000D03*
%TD*%
D21*
%TO.P,C11,1*%
%TO.N,MCU_XTAL2*%
X40732000Y-76256000D03*
%TO.P,C11,2*%
%TO.N,GND*%
X40732000Y-77216000D03*
%TD*%
D22*
%TO.P,C5,1*%
%TO.N,GND*%
X76750000Y-66750000D03*
%TO.P,C5,2*%
%TO.N,VCC_3V3*%
X75790000Y-66750000D03*
%TD*%
D26*
%TO.P,R9,1*%
%TO.N,CODEC_GPO0*%
X44000000Y-49750000D03*
%TO.P,R9,2*%
%TO.N,GND*%
X44000000Y-50770000D03*
%TD*%
D17*
%TO.P,H3,1*%
%TO.N,N/C*%
X24130000Y-77978000D03*
D18*
X24130000Y-77978000D03*
%TD*%
D22*
%TO.P,C16,1*%
%TO.N,GND*%
X38097400Y-46126400D03*
%TO.P,C16,2*%
%TO.N,VCC_3V3*%
X37137400Y-46126400D03*
%TD*%
D35*
%TO.P,J10,1,DETECTOR_1*%
%TO.N,Net-(J10-DETECTOR_1)*%
X73678400Y-27198600D03*
D36*
%TO.P,J10,2,LEFT_CHANNEL*%
%TO.N,Net-(J10-LEFT_CHANNEL)*%
X67628400Y-36498600D03*
%TO.P,J10,3,RIGHT_CHANNEL*%
%TO.N,Net-(J10-RIGHT_CHANNEL)*%
X73678400Y-30598600D03*
%TO.P,J10,4,GND_1*%
%TO.N,GND*%
X67078400Y-30498600D03*
%TO.P,J10,5,DETECTOR_2*%
%TO.N,Net-(J10-DETECTOR_2)*%
X66628400Y-26998600D03*
D37*
%TO.P,J10,6,GND_2*%
%TO.N,Net-(J10-GND_2)*%
X68478400Y-39598600D03*
%TO.P,J10,7,VCC*%
%TO.N,VCC_3V3*%
X70478400Y-39598600D03*
%TO.P,J10,8,VIN*%
%TO.N,Net-(J10-VIN)*%
X72478400Y-39598600D03*
%TD*%
D22*
%TO.P,C12,1*%
%TO.N,MCU_RST*%
X68210000Y-76000000D03*
%TO.P,C12,2*%
%TO.N,GND*%
X67250000Y-76000000D03*
%TD*%
D26*
%TO.P,R3,1*%
%TO.N,VCC_3V3*%
X42750000Y-53180000D03*
%TO.P,R3,2*%
%TO.N,MCU_SCL1*%
X42750000Y-54200000D03*
%TD*%
D19*
%TO.P,C6,1*%
%TO.N,Net-(U2-AREF)*%
X55667200Y-71650800D03*
%TO.P,C6,2*%
%TO.N,GND*%
X55667200Y-70690800D03*
%TD*%
D38*
%TO.P,U1,1,VIN*%
%TO.N,VIN_5V*%
X73349998Y-71750000D03*
%TO.P,U1,2,GND*%
%TO.N,GND*%
X74299999Y-71750000D03*
%TO.P,U1,3,NC*%
%TO.N,unconnected-(U1-NC-Pad3)*%
X75250000Y-71750000D03*
%TO.P,U1,4,NC*%
%TO.N,unconnected-(U1-NC-Pad4)*%
X75250000Y-69019500D03*
%TO.P,U1,5,VOUT*%
%TO.N,VCC_3V3*%
X73349998Y-69019500D03*
%TD*%
D21*
%TO.P,C9,1*%
%TO.N,VCC_3V3*%
X57500000Y-72520000D03*
%TO.P,C9,2*%
%TO.N,GND*%
X57500000Y-73480000D03*
%TD*%
D39*
%TO.P,D1,1,K*%
%TO.N,GND*%
X36800000Y-62662500D03*
%TO.P,D1,2,A*%
%TO.N,Net-(D1-A)*%
X36800000Y-64537500D03*
%TD*%
D19*
%TO.P,C1,1*%
%TO.N,VIN_5V*%
X66000000Y-62500000D03*
%TO.P,C1,2*%
%TO.N,GND*%
X66000000Y-61540000D03*
%TD*%
D22*
%TO.P,C21,1*%
%TO.N,VCC_3V3*%
X70000000Y-43800000D03*
%TO.P,C21,2*%
%TO.N,GND*%
X69040000Y-43800000D03*
%TD*%
D19*
%TO.P,C19,1*%
%TO.N,VCC_3V3*%
X53500000Y-47000000D03*
%TO.P,C19,2*%
%TO.N,GND*%
X53500000Y-46040000D03*
%TD*%
D40*
%TO.P,C22,1*%
%TO.N,Net-(C22-Pad1)*%
X69842400Y-49961400D03*
%TO.P,C22,2*%
%TO.N,GND*%
X71392400Y-49961400D03*
%TD*%
D21*
%TO.P,C17,1*%
%TO.N,CODEC_XOP*%
X58978800Y-42700000D03*
%TO.P,C17,2*%
%TO.N,GND*%
X58978800Y-43660000D03*
%TD*%
D41*
%TO.P,U3,1,S0_A0_CLK_SEL*%
%TO.N,Net-(J8-Pin_3)*%
X28412232Y-44827000D03*
%TO.P,U3,2,S1_A1*%
%TO.N,Net-(J8-Pin_2)*%
X28412232Y-45477001D03*
%TO.P,U3,3,VCC*%
%TO.N,VCC_3V3*%
X28412232Y-46126999D03*
%TO.P,U3,4,GND*%
%TO.N,GND*%
X28412232Y-46777001D03*
%TO.P,U3,5,CLK_IN0*%
%TO.N,Net-(J7-Pin_3)*%
X28412232Y-47426999D03*
%TO.P,U3,6,CLK_IN1*%
%TO.N,EXTERNAL_IN_I2S_BCLK*%
X28412232Y-48077001D03*
%TO.P,U3,7,VCC*%
%TO.N,VCC_3V3*%
X28412232Y-48726999D03*
%TO.P,U3,8,GND*%
%TO.N,GND*%
X28412232Y-49377001D03*
%TO.P,U3,9,SDATA*%
%TO.N,MCU_SDA1*%
X28412232Y-50026999D03*
%TO.P,U3,10,SCLOCK*%
%TO.N,MCU_SCL1*%
X28412232Y-50677000D03*
%TO.P,U3,11,Y0*%
%TO.N,CLKGEN_OUT_I2S_MCLK*%
X34163000Y-50677000D03*
%TO.P,U3,12,Y1*%
%TO.N,Net-(J9-Pin_3)*%
X34163000Y-50026999D03*
%TO.P,U3,13,GND*%
%TO.N,GND*%
X34163000Y-49377001D03*
%TO.P,U3,14,VCCOUT1*%
%TO.N,VCC_3V3*%
X34163000Y-48726999D03*
%TO.P,U3,15,Y2*%
%TO.N,unconnected-(U3-Y2-Pad15)*%
X34163000Y-48077001D03*
%TO.P,U3,16,Y3*%
%TO.N,unconnected-(U3-Y3-Pad16)*%
X34163000Y-47426999D03*
%TO.P,U3,17,GND*%
%TO.N,GND*%
X34163000Y-46777001D03*
%TO.P,U3,18,VCCOUT2*%
%TO.N,VCC_3V3*%
X34163000Y-46126999D03*
%TO.P,U3,19,Y4*%
%TO.N,unconnected-(U3-Y4-Pad19)*%
X34163000Y-45477001D03*
%TO.P,U3,20,Y5*%
%TO.N,unconnected-(U3-Y5-Pad20)*%
X34163000Y-44827000D03*
%TD*%
D28*
%TO.P,J13,1,Pin_1*%
%TO.N,Net-(J10-GND_2)*%
X71872000Y-46400000D03*
D42*
%TO.P,J13,2,Pin_2*%
%TO.N,Net-(J10-LEFT_CHANNEL)*%
X73142000Y-46400000D03*
%TO.P,J13,3,Pin_3*%
%TO.N,Net-(J10-DETECTOR_2)*%
X74412000Y-46400000D03*
%TO.P,J13,4,Pin_4*%
%TO.N,Net-(J10-RIGHT_CHANNEL)*%
X75682000Y-46400000D03*
%TO.P,J13,5,Pin_5*%
%TO.N,Net-(J10-DETECTOR_1)*%
X76952000Y-46400000D03*
%TD*%
D28*
%TO.P,J11,1,Pin_1*%
%TO.N,GND*%
X56134000Y-30226000D03*
D42*
%TO.P,J11,2,Pin_2*%
%TO.N,Net-(J11-Pin_2)*%
X56134000Y-31496000D03*
%TD*%
D23*
%TO.P,R2,1*%
%TO.N,MCU_LED*%
X39750000Y-66750000D03*
%TO.P,R2,2*%
%TO.N,Net-(D1-A)*%
X39750000Y-65730000D03*
%TD*%
D24*
%TO.P,J6,1,MISO*%
%TO.N,MCU_MISO*%
X61710000Y-71250000D03*
D25*
%TO.P,J6,2,VCC*%
%TO.N,VIN_5V*%
X61710000Y-68710000D03*
%TO.P,J6,3,SCK*%
%TO.N,MCU_SCK*%
X64250000Y-71250000D03*
%TO.P,J6,4,MOSI*%
%TO.N,MCU_MOSI*%
X64250000Y-68710000D03*
%TO.P,J6,5,~{RST}*%
%TO.N,MCU_RST*%
X66790000Y-71250000D03*
%TO.P,J6,6,GND*%
%TO.N,GND*%
X66790000Y-68710000D03*
%TD*%
D19*
%TO.P,C3,1*%
%TO.N,VIN_5V*%
X68000000Y-62500000D03*
%TO.P,C3,2*%
%TO.N,GND*%
X68000000Y-61540000D03*
%TD*%
D43*
%TO.P,Y2,1,1*%
%TO.N,CODEC_XIN*%
X58978000Y-35696000D03*
%TO.P,Y2,2,2*%
%TO.N,CODEC_XOP*%
X58978000Y-39996000D03*
%TD*%
D24*
%TO.P,J1,1,Pin_1*%
%TO.N,GND*%
X62000000Y-49180000D03*
D25*
%TO.P,J1,2,Pin_2*%
X62000000Y-51720000D03*
%TO.P,J1,3,Pin_3*%
%TO.N,VCC_3V3*%
X62000000Y-54260000D03*
%TO.P,J1,4,Pin_4*%
%TO.N,MCU_RXD0*%
X62000000Y-56800000D03*
%TO.P,J1,5,Pin_5*%
%TO.N,MCU_TXD0*%
X62000000Y-59340000D03*
%TO.P,J1,6,Pin_6*%
%TO.N,MCU_RST*%
X62000000Y-61880000D03*
%TD*%
D24*
%TO.P,JP1,1,A*%
%TO.N,CLKGEN_OUT_I2S_MCLK*%
X39750000Y-39250000D03*
D25*
%TO.P,JP1,2,C*%
%TO.N,CODEC_IN_I2S_MCLK*%
X39750000Y-36710000D03*
%TO.P,JP1,3,B*%
%TO.N,EXTERNAL_IN_I2S_MCLK*%
X39750000Y-34170000D03*
%TD*%
D44*
%TO.P,U4,1,DVDD*%
%TO.N,VCC_3V3*%
X44584001Y-41300400D03*
%TO.P,U4,2,RX1*%
%TO.N,Net-(J5-Pin_3)*%
X45234002Y-41300400D03*
%TO.P,U4,3,RX0*%
%TO.N,Net-(J5-Pin_1)*%
X45884001Y-41300400D03*
%TO.P,U4,4,SCLK*%
%TO.N,MCU_SCL1*%
X46534002Y-41300400D03*
%TO.P,U4,5,GPO0/SWIFMODE*%
%TO.N,CODEC_GPO0*%
X47184000Y-41300400D03*
%TO.P,U4,6,GPO1*%
%TO.N,CODEC_INT0*%
X47834002Y-41300400D03*
%TO.P,U4,7,SDIN/HWMODE*%
%TO.N,MCU_SDA1*%
X48484000Y-41300400D03*
%TO.P,U4,8,SDOUT/GPo7*%
%TO.N,CODEC_GPO7*%
X49133999Y-41300400D03*
%TO.P,U4,9,CSB/GPO2*%
%TO.N,Net-(U4-CSB{slash}GPO2)*%
X49784000Y-41300400D03*
%TO.P,U4,10,RESETB*%
%TO.N,CODEC_RESETB*%
X50433999Y-41300400D03*
%TO.P,U4,11,PVDD*%
%TO.N,VCC_3V3*%
X51084000Y-41300400D03*
%TO.P,U4,12,PGND*%
%TO.N,GND*%
X51733999Y-41300400D03*
%TO.P,U4,13,CLKOUT*%
%TO.N,CODEC_CLKOUT*%
X52384000Y-41300400D03*
%TO.P,U4,14,XOP*%
%TO.N,CODEC_XOP*%
X53033999Y-41300400D03*
%TO.P,U4,15,XIN*%
%TO.N,CODEC_XIN*%
X53034001Y-34036000D03*
%TO.P,U4,16,DOUT*%
%TO.N,Net-(J11-Pin_2)*%
X52384000Y-34036000D03*
%TO.P,U4,17,DIN*%
%TO.N,EXTERNAL_IN_I2S_DIN*%
X51734001Y-34036000D03*
%TO.P,U4,18,BCLK*%
%TO.N,EXTERNAL_IN_I2S_BCLK*%
X51084000Y-34036000D03*
%TO.P,U4,19,LRCLK*%
%TO.N,EXTERNAL_IN_I2S_LRCLK*%
X50434002Y-34036000D03*
%TO.P,U4,20,MCLK*%
%TO.N,CODEC_IN_I2S_MCLK*%
X49784000Y-34036000D03*
%TO.P,U4,21,TX0*%
%TO.N,CODEC_OUT_SPDIF_AUDIO_DATA*%
X49134002Y-34036000D03*
%TO.P,U4,22,RX7/GPO6*%
%TO.N,GND*%
X48484000Y-34036000D03*
%TO.P,U4,23,RX6/GPO5*%
X47834002Y-34036000D03*
%TO.P,U4,24,RX5/GPO4*%
X47184000Y-34036000D03*
%TO.P,U4,25,RX4/GPO3*%
X46534002Y-34036000D03*
%TO.P,U4,26,RX3*%
X45884001Y-34036000D03*
%TO.P,U4,27,RX2*%
X45234002Y-34036000D03*
%TO.P,U4,28,DGND*%
X44584001Y-34036000D03*
%TD*%
D23*
%TO.P,R7,1*%
%TO.N,GND*%
X50000000Y-47020000D03*
%TO.P,R7,2*%
%TO.N,Net-(U4-CSB{slash}GPO2)*%
X50000000Y-46000000D03*
%TD*%
D19*
%TO.P,C20,1*%
%TO.N,GND*%
X41750000Y-44230000D03*
%TO.P,C20,2*%
%TO.N,VCC_3V3*%
X41750000Y-43270000D03*
%TD*%
%TO.P,C2,1*%
%TO.N,VIN_5V*%
X70000000Y-62480000D03*
%TO.P,C2,2*%
%TO.N,GND*%
X70000000Y-61520000D03*
%TD*%
D22*
%TO.P,C7,1*%
%TO.N,VCC_3V3*%
X38364600Y-70817800D03*
%TO.P,C7,2*%
%TO.N,GND*%
X37404600Y-70817800D03*
%TD*%
D24*
%TO.P,J8,1,Pin_1*%
%TO.N,GND*%
X25500000Y-40500000D03*
D25*
%TO.P,J8,2,Pin_2*%
%TO.N,Net-(J8-Pin_2)*%
X28040000Y-40500000D03*
%TO.P,J8,3,Pin_3*%
%TO.N,Net-(J8-Pin_3)*%
X30580000Y-40500000D03*
%TD*%
D28*
%TO.P,J16,1,Pin_1*%
%TO.N,CODEC_RESETB*%
X52000000Y-52000000D03*
%TD*%
D17*
%TO.P,H2,1*%
%TO.N,N/C*%
X79248000Y-23876000D03*
D18*
X79248000Y-23876000D03*
%TD*%
D24*
%TO.P,J5,1,Pin_1*%
%TO.N,Net-(J5-Pin_1)*%
X37340000Y-58500000D03*
D25*
%TO.P,J5,2,Pin_2*%
%TO.N,GND*%
X34800000Y-58500000D03*
%TO.P,J5,3,Pin_3*%
%TO.N,Net-(J5-Pin_3)*%
X37340000Y-55960000D03*
%TO.P,J5,4,Pin_4*%
%TO.N,GND*%
X34800000Y-55960000D03*
%TD*%
D17*
%TO.P,H4,1*%
%TO.N,N/C*%
X79248000Y-77978000D03*
D18*
X79248000Y-77978000D03*
%TD*%
D45*
%TO.P,R15,1*%
%TO.N,VCC_3V3*%
X73520000Y-78750000D03*
%TO.P,R15,2*%
%TO.N,MCU_RST*%
X72500000Y-78750000D03*
%TD*%
D46*
%TO.N,GND*%
X66000000Y-59250000D03*
X25400000Y-51460400D03*
X42000000Y-58750000D03*
X40198600Y-71614700D03*
X36346900Y-47250000D03*
X45500000Y-50750000D03*
X67200000Y-43800000D03*
X73342800Y-50000000D03*
X58750000Y-73000000D03*
X42256000Y-77244000D03*
X53635200Y-70843200D03*
X41000000Y-45750000D03*
X25762937Y-46651999D03*
X74250000Y-73750000D03*
X43750000Y-56750000D03*
X37375000Y-50875000D03*
X50000000Y-48400000D03*
X46250000Y-60000000D03*
X36500000Y-77000000D03*
X57400000Y-43800000D03*
X48500000Y-60000000D03*
X53000000Y-44500000D03*
X57000000Y-55000000D03*
X38100000Y-44881800D03*
X40224000Y-70033700D03*
D47*
X46000000Y-31750000D03*
D46*
X37400000Y-69141400D03*
%TO.N,MCU_RST*%
X68500000Y-64750000D03*
%TO.N,MCU_SCK*%
X58250000Y-74750000D03*
%TO.N,MCU_MOSI*%
X49368000Y-77294800D03*
%TO.N,MCU_SDA1*%
X47500000Y-52000000D03*
X27000000Y-52000000D03*
X49250000Y-63000000D03*
%TO.N,MCU_SCL1*%
X47730264Y-63000000D03*
X47730264Y-58750000D03*
X28737972Y-52737972D03*
%TO.N,MCU_RXD0*%
X55250000Y-57500000D03*
%TO.N,CODEC_OUT_SPDIF_AUDIO_DATA*%
X54400000Y-41854818D03*
X55626000Y-43992800D03*
D47*
%TO.N,VCC_3V3*%
X57500000Y-63750000D03*
D46*
X26000000Y-43250000D03*
X36500000Y-43250000D03*
X40500000Y-43250000D03*
D47*
X58500000Y-58500000D03*
D46*
%TO.N,MCU_TXD0*%
X52500000Y-60500000D03*
X45361400Y-64611400D03*
%TO.N,CODEC_INT0*%
X46500000Y-56750000D03*
X46500000Y-53100000D03*
%TD*%
D48*
%TO.N,GND*%
X25887939Y-46777001D02*
X25762937Y-46651999D01*
X53635200Y-70843200D02*
X55514800Y-70843200D01*
X38542000Y-74958000D02*
X36500000Y-77000000D01*
X40208100Y-71624200D02*
X43111400Y-71624200D01*
X36346900Y-47250000D02*
X35873901Y-46777001D01*
X37404600Y-70817800D02*
X37404600Y-69146000D01*
X73304200Y-49961400D02*
X73342800Y-50000000D01*
X56134000Y-30226000D02*
X57386000Y-30226000D01*
X25349200Y-50000000D02*
X25349200Y-51409600D01*
X58838800Y-43800000D02*
X58978800Y-43660000D01*
X43750000Y-56750000D02*
X43750000Y-57000000D01*
X40233500Y-70024200D02*
X40224000Y-70033700D01*
X73500000Y-50157200D02*
X73342800Y-50000000D01*
X73500000Y-54000000D02*
X73500000Y-50157200D01*
X53000000Y-44500000D02*
X51733999Y-43233999D01*
X36800000Y-62662500D02*
X34800000Y-60662500D01*
X74250000Y-73725000D02*
X74250000Y-71774999D01*
X53000000Y-44500000D02*
X53000000Y-45540000D01*
X55514800Y-70843200D02*
X55667200Y-70690800D01*
X39614400Y-74958000D02*
X38542000Y-74958000D01*
X46000000Y-31750000D02*
X45884001Y-31865999D01*
X37403600Y-72418000D02*
X37403600Y-70818800D01*
X48484000Y-34036000D02*
X45234002Y-34036000D01*
X66275000Y-61545000D02*
X67995000Y-61545000D01*
X55510000Y-55250000D02*
X56750000Y-55250000D01*
X57500000Y-73480000D02*
X58270000Y-73480000D01*
X57386000Y-30226000D02*
X59000000Y-31840000D01*
X24270000Y-45980000D02*
X24270000Y-45230000D01*
X41750000Y-45000000D02*
X41000000Y-45750000D01*
X40198600Y-71614700D02*
X40208100Y-71624200D01*
X37404600Y-69146000D02*
X37400000Y-69141400D01*
X71392400Y-49961400D02*
X73304200Y-49961400D01*
X26177001Y-50000000D02*
X25349200Y-50000000D01*
X24250000Y-46000000D02*
X24270000Y-45980000D01*
X45234002Y-34036000D02*
X44584001Y-34036000D01*
X51611400Y-70824200D02*
X53616200Y-70824200D01*
X76750000Y-66750000D02*
X76750000Y-62250000D01*
X57400000Y-43800000D02*
X58838800Y-43800000D01*
X43750000Y-57000000D02*
X42000000Y-58750000D01*
X51733999Y-43233999D02*
X51733999Y-41300400D01*
X53000000Y-45540000D02*
X53500000Y-46040000D01*
X35873901Y-46777001D02*
X34163000Y-46777001D01*
X35877001Y-49377001D02*
X34163000Y-49377001D01*
X45500000Y-50750000D02*
X45480000Y-50770000D01*
X38097400Y-46126400D02*
X38097400Y-44884400D01*
X43111400Y-70024200D02*
X40233500Y-70024200D01*
X45884001Y-31865999D02*
X45884001Y-34036000D01*
X58270000Y-73480000D02*
X58750000Y-73000000D01*
X37404600Y-69268400D02*
X37277600Y-69141400D01*
X28412232Y-49377001D02*
X26800000Y-49377001D01*
X25349200Y-51409600D02*
X25400000Y-51460400D01*
X37375000Y-50875000D02*
X35877001Y-49377001D01*
X67750000Y-59250000D02*
X66000000Y-59250000D01*
X42256000Y-77244000D02*
X40760000Y-77244000D01*
X62460000Y-76000000D02*
X67250000Y-76000000D01*
X66000000Y-61540000D02*
X66000000Y-59250000D01*
X24901999Y-46651999D02*
X24250000Y-46000000D01*
X25762937Y-46651999D02*
X24901999Y-46651999D01*
X41750000Y-44230000D02*
X41750000Y-45000000D01*
X59460000Y-79000000D02*
X62460000Y-76000000D01*
X28412232Y-46777001D02*
X25887939Y-46777001D01*
X46250000Y-60000000D02*
X48500000Y-60000000D01*
X38097400Y-44884400D02*
X38100000Y-44881800D01*
X76750000Y-62250000D02*
X74250000Y-59750000D01*
X56750000Y-55250000D02*
X57000000Y-55000000D01*
X50000000Y-48400000D02*
X50000000Y-47020000D01*
X67200000Y-43800000D02*
X69040000Y-43800000D01*
X34800000Y-60662500D02*
X34800000Y-58500000D01*
X45480000Y-50770000D02*
X44000000Y-50770000D01*
X26800000Y-49377001D02*
X26177001Y-50000000D01*
X68000000Y-61540000D02*
X69980000Y-61540000D01*
X53616200Y-70824200D02*
X53635200Y-70843200D01*
X38069400Y-48717200D02*
X38069400Y-46154400D01*
%TO.N,VIN_5V*%
X66000000Y-63858960D02*
X66000000Y-62500000D01*
X68000000Y-62500000D02*
X66280000Y-62500000D01*
X70000000Y-68400002D02*
X70000000Y-62480000D01*
X61710000Y-68148960D02*
X66000000Y-63858960D01*
X73349998Y-71750000D02*
X70000000Y-68400002D01*
X70000000Y-62480000D02*
X68020000Y-62480000D01*
X66280000Y-62500000D02*
X66275000Y-62505000D01*
D49*
%TO.N,Net-(U2-AREF)*%
X51611400Y-71624200D02*
X55640600Y-71624200D01*
D48*
%TO.N,MCU_XTAL1*%
X36109200Y-73000000D02*
X37107200Y-73998000D01*
X41184000Y-73998000D02*
X41957800Y-73224200D01*
X41957800Y-73224200D02*
X43111400Y-73224200D01*
X39614400Y-73998000D02*
X40000000Y-73998000D01*
X33366000Y-70484200D02*
X33850200Y-70000000D01*
X36109200Y-70500000D02*
X36109200Y-73000000D01*
X37107200Y-73998000D02*
X40000000Y-73998000D01*
X35609200Y-70000000D02*
X36109200Y-70500000D01*
X40000000Y-73998000D02*
X41184000Y-73998000D01*
X33366000Y-71982800D02*
X33366000Y-70484200D01*
X33850200Y-70000000D02*
X35609200Y-70000000D01*
%TO.N,MCU_XTAL2*%
X33366000Y-77366000D02*
X34000000Y-78000000D01*
X40732000Y-76256000D02*
X40879600Y-76256000D01*
X34000000Y-78000000D02*
X37000000Y-78000000D01*
X37000000Y-78000000D02*
X38744000Y-76256000D01*
X40879600Y-76256000D02*
X43111400Y-74024200D01*
X33366000Y-76250000D02*
X33366000Y-77366000D01*
X38744000Y-76256000D02*
X40732000Y-76256000D01*
D49*
%TO.N,MCU_RST*%
X69250000Y-65500000D02*
X69250000Y-71000000D01*
X46961400Y-66974200D02*
X46961400Y-62288600D01*
X68210000Y-78710000D02*
X68250000Y-78750000D01*
X69000000Y-71250000D02*
X66790000Y-71250000D01*
X46961400Y-62288600D02*
X47370000Y-61880000D01*
X68250000Y-78750000D02*
X72500000Y-78750000D01*
X72500000Y-78750000D02*
X72500000Y-76000000D01*
X69250000Y-71000000D02*
X69000000Y-71250000D01*
X68210000Y-76000000D02*
X68210000Y-78710000D01*
X72500000Y-74250000D02*
X69250000Y-71000000D01*
X72500000Y-76000000D02*
X72500000Y-74250000D01*
X68500000Y-64750000D02*
X69250000Y-65500000D01*
X47370000Y-61880000D02*
X62000000Y-61880000D01*
D48*
%TO.N,CODEC_XOP*%
X58978000Y-39996000D02*
X58978000Y-42699200D01*
X53522705Y-42700000D02*
X53033999Y-42211294D01*
X58978800Y-42700000D02*
X53522705Y-42700000D01*
X53033999Y-42211294D02*
X53033999Y-41300400D01*
%TO.N,CODEC_XIN*%
X53034001Y-34036000D02*
X57318000Y-34036000D01*
X57318000Y-34036000D02*
X58978000Y-35696000D01*
X58978000Y-35696000D02*
X58978000Y-32822000D01*
D49*
%TO.N,Net-(C22-Pad1)*%
X69842400Y-49961400D02*
X67480200Y-49961400D01*
X69830200Y-52412000D02*
X69830200Y-49973600D01*
%TO.N,Net-(D1-A)*%
X39750000Y-65730000D02*
X37992500Y-65730000D01*
X37992500Y-65730000D02*
X36800000Y-64537500D01*
D50*
%TO.N,EXTERNAL_IN_I2S_DIN*%
X51750000Y-31484001D02*
X51750000Y-27500000D01*
X51734001Y-31500000D02*
X51734001Y-34036000D01*
X51734001Y-31500000D02*
X51750000Y-31484001D01*
%TO.N,EXTERNAL_IN_I2S_BCLK*%
X22200000Y-45875146D02*
X22200000Y-38090000D01*
X26790000Y-33500000D02*
X26790000Y-28210000D01*
X28412232Y-48077001D02*
X24401855Y-48077001D01*
X51084000Y-29374000D02*
X49210000Y-27500000D01*
X26790000Y-28210000D02*
X32400000Y-22600000D01*
X44310000Y-22600000D02*
X49210000Y-27500000D01*
X24401855Y-48077001D02*
X22200000Y-45875146D01*
X51084000Y-34036000D02*
X51084000Y-29374000D01*
X22200000Y-38090000D02*
X26790000Y-33500000D01*
X32400000Y-22600000D02*
X44310000Y-22600000D01*
%TO.N,EXTERNAL_IN_I2S_LRCLK*%
X46670000Y-27500000D02*
X50434002Y-31264002D01*
X50434002Y-31264002D02*
X50434002Y-34036000D01*
%TO.N,EXTERNAL_IN_I2S_MCLK*%
X44130000Y-27500000D02*
X39750000Y-31880000D01*
X39750000Y-31880000D02*
X39750000Y-34170000D01*
D49*
%TO.N,Net-(J8-Pin_2)*%
X28412232Y-45477001D02*
X27184516Y-45477001D01*
X28040000Y-42710000D02*
X28040000Y-40500000D01*
X26750000Y-44000000D02*
X28040000Y-42710000D01*
X27184516Y-45477001D02*
X26750000Y-45042485D01*
X26750000Y-45042485D02*
X26750000Y-44000000D01*
D50*
%TO.N,CLKGEN_OUT_I2S_MCLK*%
X35563400Y-52077400D02*
X38097746Y-52077400D01*
X34163000Y-50677000D02*
X35563400Y-52077400D01*
X38000000Y-39250000D02*
X35500000Y-36750000D01*
X39750000Y-39250000D02*
X38000000Y-39250000D01*
X39500000Y-50675146D02*
X39500000Y-39500000D01*
X38097746Y-52077400D02*
X39500000Y-50675146D01*
D49*
%TO.N,Net-(J10-DETECTOR_1)*%
X76952000Y-30472200D02*
X76952000Y-46400000D01*
X73678400Y-27198600D02*
X76952000Y-30472200D01*
%TO.N,Net-(J10-RIGHT_CHANNEL)*%
X73617400Y-30641000D02*
X75682000Y-32705600D01*
X75682000Y-46400000D02*
X75682000Y-32602200D01*
X75682000Y-32602200D02*
X73678400Y-30598600D01*
%TO.N,Net-(J10-DETECTOR_2)*%
X74412000Y-37201000D02*
X69215000Y-32004000D01*
X69215000Y-29585200D02*
X66628400Y-26998600D01*
X74412000Y-46400000D02*
X74412000Y-37201000D01*
X69215000Y-32004000D02*
X69215000Y-29585200D01*
D48*
%TO.N,Net-(J10-VIN)*%
X65325000Y-45000000D02*
X70174000Y-45000000D01*
X70174000Y-45000000D02*
X71374000Y-43800000D01*
X65325000Y-45000000D02*
X65325000Y-49456200D01*
X71374000Y-43800000D02*
X71374000Y-40703000D01*
X71374000Y-40703000D02*
X72478400Y-39598600D01*
X65325000Y-49456200D02*
X65830200Y-49961400D01*
D49*
%TO.N,Net-(J11-Pin_2)*%
X53848500Y-31496000D02*
X56134000Y-31496000D01*
X52384000Y-34036000D02*
X52384000Y-32960500D01*
X52384000Y-32960500D02*
X53848500Y-31496000D01*
%TO.N,MCU_MISO*%
X61710000Y-74040000D02*
X59175000Y-76575000D01*
X61710000Y-71250000D02*
X61710000Y-74040000D01*
X59175000Y-76575000D02*
X51262200Y-76575000D01*
X51262200Y-76575000D02*
X50161400Y-75474200D01*
D48*
%TO.N,MCU_SCK*%
X58250000Y-74750000D02*
X52750000Y-74750000D01*
X52750000Y-74750000D02*
X52024200Y-74024200D01*
D49*
%TO.N,MCU_MOSI*%
X49368000Y-77294800D02*
X49368000Y-75480800D01*
D50*
%TO.N,CODEC_IN_I2S_MCLK*%
X49784000Y-34036000D02*
X49784000Y-32516894D01*
X42500000Y-33960000D02*
X39750000Y-36710000D01*
X47767106Y-30500000D02*
X43832894Y-30500000D01*
X49784000Y-32516894D02*
X47767106Y-30500000D01*
X42500000Y-31832894D02*
X42500000Y-33960000D01*
X43832894Y-30500000D02*
X42500000Y-31832894D01*
D49*
%TO.N,MCU_SDA1*%
X47500000Y-52000000D02*
X48484000Y-51016000D01*
X27184516Y-50026999D02*
X27000000Y-50211515D01*
X48561400Y-66974200D02*
X48561400Y-63688600D01*
X48484000Y-51016000D02*
X48484000Y-41300400D01*
X27000000Y-50211515D02*
X27000000Y-52000000D01*
X47050000Y-54200000D02*
X45400000Y-54200000D01*
X48561400Y-63688600D02*
X49250000Y-63000000D01*
X28412232Y-50026999D02*
X27184516Y-50026999D01*
X47500000Y-53750000D02*
X47050000Y-54200000D01*
X47500000Y-52000000D02*
X47500000Y-53750000D01*
%TO.N,MCU_LED*%
X41424200Y-68424200D02*
X39750000Y-66750000D01*
X43111400Y-68424200D02*
X41424200Y-68424200D01*
%TO.N,MCU_SCL1*%
X41500000Y-53750000D02*
X41500000Y-51749500D01*
X42750000Y-54200000D02*
X41950000Y-54200000D01*
X46534002Y-42909196D02*
X46534002Y-41300400D01*
X43249750Y-49999750D02*
X43249750Y-46193448D01*
X43249750Y-46193448D02*
X46534002Y-42909196D01*
X47761400Y-63031136D02*
X47761400Y-66974200D01*
X28737972Y-52737972D02*
X28737972Y-51002740D01*
X41950000Y-54200000D02*
X41500000Y-53750000D01*
X47730264Y-55730264D02*
X47730264Y-58750000D01*
X47710528Y-55750000D02*
X47730264Y-55730264D01*
X47730264Y-63000000D02*
X47761400Y-63031136D01*
X41500000Y-51749500D02*
X43249750Y-49999750D01*
X28737972Y-51002740D02*
X28412232Y-50677000D01*
X42750000Y-54200000D02*
X42750000Y-55250000D01*
X42750000Y-55250000D02*
X43250000Y-55750000D01*
X43250000Y-55750000D02*
X47710528Y-55750000D01*
%TO.N,MCU_RXD0*%
X49750000Y-61000000D02*
X46750000Y-61000000D01*
X55230000Y-57480000D02*
X53500000Y-57480000D01*
X46750000Y-61000000D02*
X46161400Y-61588600D01*
X46161400Y-61588600D02*
X46161400Y-66974200D01*
X55250000Y-57500000D02*
X55230000Y-57480000D01*
X53500000Y-57480000D02*
X53270000Y-57480000D01*
X53270000Y-57480000D02*
X49750000Y-61000000D01*
%TO.N,CODEC_GPO0*%
X47184000Y-43000000D02*
X47184000Y-41300400D01*
X44000000Y-49750000D02*
X44000000Y-48744000D01*
X44000000Y-48744000D02*
X45500000Y-47244000D01*
X45500000Y-44684000D02*
X47184000Y-43000000D01*
X45500000Y-47244000D02*
X45500000Y-44684000D01*
D48*
%TO.N,CODEC_GPO7*%
X49133999Y-41300400D02*
X49133999Y-53133999D01*
X49133999Y-53133999D02*
X51250000Y-55250000D01*
X51250000Y-55250000D02*
X51577000Y-55250000D01*
X53990000Y-54750000D02*
X54490000Y-55250000D01*
X51577000Y-54750000D02*
X53990000Y-54750000D01*
D49*
%TO.N,Net-(U4-CSB{slash}GPO2)*%
X49784000Y-45000000D02*
X49784000Y-41300400D01*
X50000000Y-46000000D02*
X49875000Y-45875000D01*
X49875000Y-45875000D02*
X49875000Y-45091000D01*
X49875000Y-45091000D02*
X49784000Y-45000000D01*
%TO.N,CODEC_RESETB*%
X52000000Y-52000000D02*
X55750000Y-52000000D01*
X50433999Y-44967000D02*
X51108500Y-45641500D01*
X50433999Y-41300400D02*
X50433999Y-44967000D01*
X51108500Y-51108500D02*
X52000000Y-52000000D01*
X55750000Y-52000000D02*
X56500000Y-51250000D01*
X51108500Y-45641500D02*
X51108500Y-51108500D01*
D48*
%TO.N,CODEC_OUT_SPDIF_AUDIO_DATA*%
X64500000Y-52500000D02*
X64500000Y-46500000D01*
X55626000Y-43992800D02*
X56633200Y-45000000D01*
X63675000Y-45675000D02*
X63675000Y-45000000D01*
D50*
X49134002Y-34036000D02*
X49134002Y-35722649D01*
X54400000Y-40988647D02*
X54400000Y-41854818D01*
D48*
X64500000Y-46500000D02*
X63675000Y-45675000D01*
D50*
X49134002Y-35722649D02*
X54400000Y-40988647D01*
D48*
X65949200Y-53949200D02*
X64500000Y-52500000D01*
X63675000Y-45000000D02*
X56633200Y-45000000D01*
D49*
%TO.N,MCU_INT0*%
X44561400Y-66974200D02*
X43750000Y-66162800D01*
X43750000Y-66162800D02*
X43750000Y-62260000D01*
%TO.N,CODEC_CLKOUT*%
X56134000Y-46113000D02*
X52384000Y-42363000D01*
X52384000Y-42363000D02*
X52384000Y-41300400D01*
X56134000Y-47498000D02*
X56134000Y-46113000D01*
%TO.N,Net-(C23-Pad2)*%
X69830200Y-53962000D02*
X67721600Y-53962000D01*
X69830200Y-53962000D02*
X71812000Y-53962000D01*
%TO.N,Net-(J8-Pin_3)*%
X28412232Y-44827000D02*
X28412232Y-44587768D01*
X28412232Y-44587768D02*
X30580000Y-42420000D01*
X30580000Y-42420000D02*
X30580000Y-40500000D01*
D48*
%TO.N,VCC_3V3*%
X73349998Y-69019500D02*
X73349998Y-66750000D01*
X59000000Y-55000000D02*
X59000000Y-54250000D01*
X38474200Y-70818000D02*
X38366200Y-70710000D01*
X37137400Y-46126400D02*
X37137400Y-48689200D01*
X75790000Y-67059999D02*
X75790000Y-66750000D01*
X36500000Y-43250000D02*
X36500000Y-45109100D01*
X43111400Y-72424200D02*
X38369800Y-72424200D01*
X78000000Y-73250000D02*
X78000000Y-69269999D01*
X70478400Y-43321600D02*
X70000000Y-43800000D01*
X37109400Y-48717200D02*
X34172799Y-48717200D01*
X35482101Y-46126999D02*
X34163000Y-46126999D01*
X73520000Y-78750000D02*
X73520000Y-76050000D01*
X40520000Y-43270000D02*
X40500000Y-43250000D01*
X57730000Y-50230000D02*
X59000000Y-51500000D01*
X62000000Y-54260000D02*
X59010000Y-54260000D01*
X68710000Y-58940001D02*
X64029999Y-54260000D01*
X43111400Y-70824200D02*
X38371000Y-70824200D01*
X49755400Y-72424200D02*
X50555400Y-73224200D01*
X41750000Y-43270000D02*
X40520000Y-43270000D01*
X43111400Y-72424200D02*
X49755400Y-72424200D01*
X51084000Y-41300400D02*
X51084000Y-44584000D01*
X52500000Y-47000000D02*
X53500000Y-47000000D01*
X70478400Y-39598600D02*
X70478400Y-43321600D01*
X26203001Y-48726999D02*
X25890000Y-49040000D01*
X56000000Y-58000000D02*
X58500000Y-55500000D01*
X51084000Y-44584000D02*
X52250000Y-45750000D01*
X73520000Y-76050000D02*
X73470000Y-76000000D01*
X58500000Y-55500000D02*
X58000000Y-56000000D01*
X50000000Y-56750000D02*
X48464764Y-55214764D01*
X73349998Y-66750000D02*
X75790000Y-66750000D01*
X38363600Y-72418000D02*
X38363600Y-70818800D01*
X27053516Y-46126999D02*
X25196517Y-44270000D01*
X53500000Y-49250000D02*
X54480000Y-50230000D01*
X50012600Y-39065200D02*
X51084000Y-40136600D01*
X56000000Y-58490000D02*
X58490000Y-58490000D01*
X44584001Y-41300400D02*
X42989600Y-41300400D01*
X55632064Y-56000000D02*
X54882064Y-56750000D01*
X58490000Y-58490000D02*
X58500000Y-58500000D01*
X25196517Y-44053483D02*
X25196517Y-44270000D01*
X71710000Y-59750000D02*
X68710000Y-59750000D01*
X44484500Y-55234500D02*
X44000000Y-54750000D01*
X44000000Y-53180000D02*
X45400000Y-53180000D01*
X78000000Y-69269999D02*
X75790000Y-67059999D01*
X68710000Y-59250000D02*
X68710000Y-58940001D01*
X73349998Y-66750000D02*
X73349998Y-63915002D01*
X55980000Y-72520000D02*
X55250000Y-73250000D01*
X64029999Y-54260000D02*
X62000000Y-54260000D01*
X57500000Y-72520000D02*
X55980000Y-72520000D01*
X45612701Y-39065200D02*
X50012600Y-39065200D01*
X73349998Y-63915002D02*
X74250000Y-63015000D01*
X26000000Y-43250000D02*
X25196517Y-44053483D01*
X58000000Y-56000000D02*
X55632064Y-56000000D01*
X75250000Y-76000000D02*
X78000000Y-73250000D01*
X73470000Y-76000000D02*
X75250000Y-76000000D01*
X44000000Y-54750000D02*
X44000000Y-53180000D01*
X52250000Y-46750000D02*
X52500000Y-47000000D01*
X48464764Y-55214764D02*
X47516736Y-55214764D01*
X43200000Y-53180000D02*
X44000000Y-53180000D01*
X28412232Y-48726999D02*
X26203001Y-48726999D01*
X47516736Y-55214764D02*
X47497000Y-55234500D01*
X28412232Y-46126999D02*
X34163000Y-46126999D01*
X55990000Y-58480000D02*
X53520000Y-58480000D01*
X54480000Y-50230000D02*
X56500000Y-50230000D01*
X51084000Y-40136600D02*
X51084000Y-41300400D01*
X50555400Y-73224200D02*
X51611400Y-73224200D01*
X41750000Y-42540000D02*
X42989600Y-41300400D01*
X74250000Y-62290000D02*
X71710000Y-59750000D01*
X44584001Y-41300400D02*
X44584001Y-40093900D01*
X25890000Y-49040000D02*
X25349200Y-49040000D01*
X25196517Y-44270000D02*
X24270000Y-44270000D01*
X59000000Y-54250000D02*
X59000000Y-51500000D01*
X55250000Y-73250000D02*
X51637200Y-73250000D01*
X34163000Y-48726999D02*
X28412232Y-48726999D01*
X47497000Y-55234500D02*
X44484500Y-55234500D01*
X56000000Y-58490000D02*
X56000000Y-58000000D01*
X52250000Y-45750000D02*
X52250000Y-46750000D01*
X53500000Y-47000000D02*
X53500000Y-49250000D01*
X58500000Y-55500000D02*
X59000000Y-55000000D01*
X44584001Y-40093900D02*
X45612701Y-39065200D01*
X41750000Y-43270000D02*
X41750000Y-42540000D01*
X57500000Y-63750000D02*
X57500000Y-72520000D01*
X36500000Y-45109100D02*
X35482101Y-46126999D01*
X34163000Y-46126999D02*
X37136801Y-46126999D01*
X54882064Y-56750000D02*
X50000000Y-56750000D01*
X57730000Y-50230000D02*
X56500000Y-50230000D01*
X28412232Y-46126999D02*
X27053516Y-46126999D01*
X59010000Y-54260000D02*
X59000000Y-54250000D01*
D49*
%TO.N,MCU_TXD0*%
X56010000Y-59500000D02*
X61840000Y-59500000D01*
X53490000Y-59510000D02*
X56000000Y-59510000D01*
X45361400Y-64611400D02*
X45361400Y-66974200D01*
X52500000Y-60500000D02*
X53490000Y-59510000D01*
%TO.N,Net-(J12-Pin_4)*%
X43055400Y-78750000D02*
X31750000Y-78750000D01*
X27000000Y-74000000D02*
X27000000Y-66340000D01*
X31750000Y-78750000D02*
X27000000Y-74000000D01*
X44561400Y-75474200D02*
X44561400Y-77244000D01*
X27000000Y-66340000D02*
X29000000Y-64340000D01*
X44561400Y-77244000D02*
X43055400Y-78750000D01*
%TO.N,Net-(J12-Pin_3)*%
X43929700Y-78929700D02*
X45361400Y-77498000D01*
X26550000Y-64250000D02*
X29000000Y-61800000D01*
X43929700Y-78929700D02*
X43659400Y-79200000D01*
X45361400Y-77498000D02*
X45361400Y-75474200D01*
X43609400Y-79250000D02*
X43929700Y-78929700D01*
X26550000Y-74550000D02*
X26550000Y-64250000D01*
X43659400Y-79200000D02*
X31200000Y-79200000D01*
X31200000Y-79200000D02*
X26550000Y-74550000D01*
%TO.N,Net-(J12-Pin_2)*%
X30750000Y-79750000D02*
X26100000Y-75100000D01*
X43909400Y-79750000D02*
X30750000Y-79750000D01*
X46161400Y-77498000D02*
X43909400Y-79750000D01*
X26100000Y-75100000D02*
X26100000Y-62160000D01*
X26100000Y-62160000D02*
X29000000Y-59260000D01*
X46161400Y-75474200D02*
X46161400Y-77498000D01*
%TO.N,Net-(J10-LEFT_CHANNEL)*%
X71898600Y-36498600D02*
X73800000Y-38400000D01*
X73800000Y-38400000D02*
X73800000Y-43600000D01*
X73142000Y-44258000D02*
X73142000Y-46400000D01*
X73800000Y-43600000D02*
X73142000Y-44258000D01*
X67628400Y-36498600D02*
X71898600Y-36498600D01*
%TO.N,Net-(J12-Pin_5)*%
X37905800Y-66880000D02*
X29000000Y-66880000D01*
X40250000Y-69224200D02*
X37905800Y-66880000D01*
X43111400Y-69224200D02*
X40250000Y-69224200D01*
%TO.N,Net-(U2-ADC7)*%
X54750000Y-67935600D02*
X54750000Y-65500000D01*
X52661400Y-70024200D02*
X54750000Y-67935600D01*
X51611400Y-70024200D02*
X52661400Y-70024200D01*
%TO.N,Net-(J5-Pin_3)*%
X41750000Y-46250000D02*
X41750000Y-49750000D01*
X45234002Y-41300400D02*
X45234002Y-42765998D01*
X45234002Y-42765998D02*
X41750000Y-46250000D01*
X41750000Y-49750000D02*
X37340000Y-54160000D01*
X37340000Y-54160000D02*
X37340000Y-55960000D01*
%TO.N,Net-(J5-Pin_1)*%
X45884001Y-41300400D02*
X45884001Y-42752395D01*
X39400000Y-57200000D02*
X38100000Y-58500000D01*
X38100000Y-58500000D02*
X37340000Y-58500000D01*
X39400000Y-53100000D02*
X39400000Y-57200000D01*
X42625000Y-49875000D02*
X39400000Y-53100000D01*
X45884001Y-42752395D02*
X42625000Y-46011396D01*
X42625000Y-46011396D02*
X42625000Y-49875000D01*
%TO.N,Net-(J9-Pin_3)*%
X34163000Y-50026999D02*
X35390716Y-50026999D01*
X38825000Y-50675000D02*
X38825000Y-44155000D01*
X35390716Y-50026999D02*
X36963717Y-51600000D01*
X38825000Y-44155000D02*
X35500000Y-40830000D01*
X36963717Y-51600000D02*
X37900000Y-51600000D01*
X37900000Y-51600000D02*
X38825000Y-50675000D01*
X35500000Y-40830000D02*
X35500000Y-39290000D01*
%TO.N,Net-(J7-Pin_3)*%
X22800000Y-45800000D02*
X22800000Y-38200000D01*
X29330000Y-34920000D02*
X29330000Y-33500000D01*
X24250000Y-36750000D02*
X27500000Y-36750000D01*
X28412232Y-47426999D02*
X24426999Y-47426999D01*
X27500000Y-36750000D02*
X29330000Y-34920000D01*
X24426999Y-47426999D02*
X22800000Y-45800000D01*
X22800000Y-38200000D02*
X24250000Y-36750000D01*
%TO.N,CODEC_INT0*%
X46500000Y-53100000D02*
X46500000Y-51474695D01*
X46500000Y-56750000D02*
X45500000Y-56750000D01*
X45500000Y-56750000D02*
X43750000Y-58500000D01*
X46500000Y-51474695D02*
X47834002Y-50140693D01*
X47834002Y-50140693D02*
X47834002Y-41300400D01*
X43750000Y-58500000D02*
X43750000Y-61240000D01*
%TO.N,Net-(R16-Pad1)*%
X66980000Y-79000000D02*
X67230000Y-78750000D01*
X62000000Y-79000000D02*
X66980000Y-79000000D01*
%TD*%
M02*
