%TF.GenerationSoftware,KiCad,Pcbnew,8.0.02-1-dev-e0381f25f7*%
%TF.CreationDate,2024-04-02T19:47:04-07:00*%
%TF.ProjectId,i2s_to_toslink_pcb,6932735f-746f-45f7-946f-736c696e6b5f,rev?*%
%TF.SameCoordinates,Original*%
%TF.FileFunction,Drillmap*%
%TF.FilePolarity,Positive*%
%FSLAX45Y45*%
G04 Gerber Fmt 4.5, Leading zero omitted, Abs format (unit mm)*
G04 Created by KiCad (PCBNEW 8.0.02-1-dev-e0381f25f7) date 2024-04-02 19:47:04*
%MOMM*%
%LPD*%
G01*
G04 APERTURE LIST*
%ADD10C,0.100000*%
%ADD11C,0.200000*%
%ADD12C,0.120000*%
G04 APERTURE END LIST*
D10*
X2075000Y-2007700D02*
X8245000Y-2007700D01*
X8245000Y-8275000D01*
X2075000Y-8275000D01*
X2075000Y-2007700D01*
D11*
D12*
X6987840Y-2659860D02*
X7107840Y-2779860D01*
X7107840Y-2659860D02*
X6987840Y-2779860D01*
X6987840Y-3109860D02*
X7107840Y-3229860D01*
X7107840Y-3109860D02*
X6987840Y-3229860D01*
D11*
X2330777Y-8591484D02*
X2330777Y-8391484D01*
X2330777Y-8391484D02*
X2378396Y-8391484D01*
X2378396Y-8391484D02*
X2406967Y-8401008D01*
X2406967Y-8401008D02*
X2426015Y-8420055D01*
X2426015Y-8420055D02*
X2435539Y-8439103D01*
X2435539Y-8439103D02*
X2445063Y-8477198D01*
X2445063Y-8477198D02*
X2445063Y-8505770D01*
X2445063Y-8505770D02*
X2435539Y-8543865D01*
X2435539Y-8543865D02*
X2426015Y-8562912D01*
X2426015Y-8562912D02*
X2406967Y-8581960D01*
X2406967Y-8581960D02*
X2378396Y-8591484D01*
X2378396Y-8591484D02*
X2330777Y-8591484D01*
X2530777Y-8591484D02*
X2530777Y-8458150D01*
X2530777Y-8496246D02*
X2540301Y-8477198D01*
X2540301Y-8477198D02*
X2549824Y-8467674D01*
X2549824Y-8467674D02*
X2568872Y-8458150D01*
X2568872Y-8458150D02*
X2587920Y-8458150D01*
X2654586Y-8591484D02*
X2654586Y-8458150D01*
X2654586Y-8391484D02*
X2645063Y-8401008D01*
X2645063Y-8401008D02*
X2654586Y-8410531D01*
X2654586Y-8410531D02*
X2664110Y-8401008D01*
X2664110Y-8401008D02*
X2654586Y-8391484D01*
X2654586Y-8391484D02*
X2654586Y-8410531D01*
X2778396Y-8591484D02*
X2759348Y-8581960D01*
X2759348Y-8581960D02*
X2749824Y-8562912D01*
X2749824Y-8562912D02*
X2749824Y-8391484D01*
X2883158Y-8591484D02*
X2864110Y-8581960D01*
X2864110Y-8581960D02*
X2854586Y-8562912D01*
X2854586Y-8562912D02*
X2854586Y-8391484D01*
X3111729Y-8591484D02*
X3111729Y-8391484D01*
X3111729Y-8391484D02*
X3178396Y-8534341D01*
X3178396Y-8534341D02*
X3245062Y-8391484D01*
X3245062Y-8391484D02*
X3245062Y-8591484D01*
X3426015Y-8591484D02*
X3426015Y-8486722D01*
X3426015Y-8486722D02*
X3416491Y-8467674D01*
X3416491Y-8467674D02*
X3397443Y-8458150D01*
X3397443Y-8458150D02*
X3359348Y-8458150D01*
X3359348Y-8458150D02*
X3340301Y-8467674D01*
X3426015Y-8581960D02*
X3406967Y-8591484D01*
X3406967Y-8591484D02*
X3359348Y-8591484D01*
X3359348Y-8591484D02*
X3340301Y-8581960D01*
X3340301Y-8581960D02*
X3330777Y-8562912D01*
X3330777Y-8562912D02*
X3330777Y-8543865D01*
X3330777Y-8543865D02*
X3340301Y-8524817D01*
X3340301Y-8524817D02*
X3359348Y-8515293D01*
X3359348Y-8515293D02*
X3406967Y-8515293D01*
X3406967Y-8515293D02*
X3426015Y-8505770D01*
X3521253Y-8458150D02*
X3521253Y-8658150D01*
X3521253Y-8467674D02*
X3540301Y-8458150D01*
X3540301Y-8458150D02*
X3578396Y-8458150D01*
X3578396Y-8458150D02*
X3597443Y-8467674D01*
X3597443Y-8467674D02*
X3606967Y-8477198D01*
X3606967Y-8477198D02*
X3616491Y-8496246D01*
X3616491Y-8496246D02*
X3616491Y-8553389D01*
X3616491Y-8553389D02*
X3606967Y-8572436D01*
X3606967Y-8572436D02*
X3597443Y-8581960D01*
X3597443Y-8581960D02*
X3578396Y-8591484D01*
X3578396Y-8591484D02*
X3540301Y-8591484D01*
X3540301Y-8591484D02*
X3521253Y-8581960D01*
X3702205Y-8572436D02*
X3711729Y-8581960D01*
X3711729Y-8581960D02*
X3702205Y-8591484D01*
X3702205Y-8591484D02*
X3692682Y-8581960D01*
X3692682Y-8581960D02*
X3702205Y-8572436D01*
X3702205Y-8572436D02*
X3702205Y-8591484D01*
X3702205Y-8467674D02*
X3711729Y-8477198D01*
X3711729Y-8477198D02*
X3702205Y-8486722D01*
X3702205Y-8486722D02*
X3692682Y-8477198D01*
X3692682Y-8477198D02*
X3702205Y-8467674D01*
X3702205Y-8467674D02*
X3702205Y-8486722D01*
D12*
X1950000Y-8860000D02*
X2070000Y-8980000D01*
X2070000Y-8860000D02*
X1950000Y-8980000D01*
D11*
X2435539Y-9011484D02*
X2321253Y-9011484D01*
X2378396Y-9011484D02*
X2378396Y-8811484D01*
X2378396Y-8811484D02*
X2359348Y-8840055D01*
X2359348Y-8840055D02*
X2340301Y-8859103D01*
X2340301Y-8859103D02*
X2321253Y-8868627D01*
X2521253Y-8992436D02*
X2530777Y-9001960D01*
X2530777Y-9001960D02*
X2521253Y-9011484D01*
X2521253Y-9011484D02*
X2511729Y-9001960D01*
X2511729Y-9001960D02*
X2521253Y-8992436D01*
X2521253Y-8992436D02*
X2521253Y-9011484D01*
X2606967Y-8830531D02*
X2616491Y-8821008D01*
X2616491Y-8821008D02*
X2635539Y-8811484D01*
X2635539Y-8811484D02*
X2683158Y-8811484D01*
X2683158Y-8811484D02*
X2702205Y-8821008D01*
X2702205Y-8821008D02*
X2711729Y-8830531D01*
X2711729Y-8830531D02*
X2721253Y-8849579D01*
X2721253Y-8849579D02*
X2721253Y-8868627D01*
X2721253Y-8868627D02*
X2711729Y-8897198D01*
X2711729Y-8897198D02*
X2597444Y-9011484D01*
X2597444Y-9011484D02*
X2721253Y-9011484D01*
X2845062Y-8811484D02*
X2864110Y-8811484D01*
X2864110Y-8811484D02*
X2883158Y-8821008D01*
X2883158Y-8821008D02*
X2892682Y-8830531D01*
X2892682Y-8830531D02*
X2902205Y-8849579D01*
X2902205Y-8849579D02*
X2911729Y-8887674D01*
X2911729Y-8887674D02*
X2911729Y-8935293D01*
X2911729Y-8935293D02*
X2902205Y-8973389D01*
X2902205Y-8973389D02*
X2892682Y-8992436D01*
X2892682Y-8992436D02*
X2883158Y-9001960D01*
X2883158Y-9001960D02*
X2864110Y-9011484D01*
X2864110Y-9011484D02*
X2845062Y-9011484D01*
X2845062Y-9011484D02*
X2826015Y-9001960D01*
X2826015Y-9001960D02*
X2816491Y-8992436D01*
X2816491Y-8992436D02*
X2806967Y-8973389D01*
X2806967Y-8973389D02*
X2797443Y-8935293D01*
X2797443Y-8935293D02*
X2797443Y-8887674D01*
X2797443Y-8887674D02*
X2806967Y-8849579D01*
X2806967Y-8849579D02*
X2816491Y-8830531D01*
X2816491Y-8830531D02*
X2826015Y-8821008D01*
X2826015Y-8821008D02*
X2845062Y-8811484D01*
X3035539Y-8811484D02*
X3054586Y-8811484D01*
X3054586Y-8811484D02*
X3073634Y-8821008D01*
X3073634Y-8821008D02*
X3083158Y-8830531D01*
X3083158Y-8830531D02*
X3092682Y-8849579D01*
X3092682Y-8849579D02*
X3102205Y-8887674D01*
X3102205Y-8887674D02*
X3102205Y-8935293D01*
X3102205Y-8935293D02*
X3092682Y-8973389D01*
X3092682Y-8973389D02*
X3083158Y-8992436D01*
X3083158Y-8992436D02*
X3073634Y-9001960D01*
X3073634Y-9001960D02*
X3054586Y-9011484D01*
X3054586Y-9011484D02*
X3035539Y-9011484D01*
X3035539Y-9011484D02*
X3016491Y-9001960D01*
X3016491Y-9001960D02*
X3006967Y-8992436D01*
X3006967Y-8992436D02*
X2997443Y-8973389D01*
X2997443Y-8973389D02*
X2987920Y-8935293D01*
X2987920Y-8935293D02*
X2987920Y-8887674D01*
X2987920Y-8887674D02*
X2997443Y-8849579D01*
X2997443Y-8849579D02*
X3006967Y-8830531D01*
X3006967Y-8830531D02*
X3016491Y-8821008D01*
X3016491Y-8821008D02*
X3035539Y-8811484D01*
X3187920Y-9011484D02*
X3187920Y-8878150D01*
X3187920Y-8897198D02*
X3197443Y-8887674D01*
X3197443Y-8887674D02*
X3216491Y-8878150D01*
X3216491Y-8878150D02*
X3245063Y-8878150D01*
X3245063Y-8878150D02*
X3264110Y-8887674D01*
X3264110Y-8887674D02*
X3273634Y-8906722D01*
X3273634Y-8906722D02*
X3273634Y-9011484D01*
X3273634Y-8906722D02*
X3283158Y-8887674D01*
X3283158Y-8887674D02*
X3302205Y-8878150D01*
X3302205Y-8878150D02*
X3330777Y-8878150D01*
X3330777Y-8878150D02*
X3349824Y-8887674D01*
X3349824Y-8887674D02*
X3359348Y-8906722D01*
X3359348Y-8906722D02*
X3359348Y-9011484D01*
X3454586Y-9011484D02*
X3454586Y-8878150D01*
X3454586Y-8897198D02*
X3464110Y-8887674D01*
X3464110Y-8887674D02*
X3483158Y-8878150D01*
X3483158Y-8878150D02*
X3511729Y-8878150D01*
X3511729Y-8878150D02*
X3530777Y-8887674D01*
X3530777Y-8887674D02*
X3540301Y-8906722D01*
X3540301Y-8906722D02*
X3540301Y-9011484D01*
X3540301Y-8906722D02*
X3549824Y-8887674D01*
X3549824Y-8887674D02*
X3568872Y-8878150D01*
X3568872Y-8878150D02*
X3597443Y-8878150D01*
X3597443Y-8878150D02*
X3616491Y-8887674D01*
X3616491Y-8887674D02*
X3626015Y-8906722D01*
X3626015Y-8906722D02*
X3626015Y-9011484D01*
X4016491Y-8801960D02*
X3845063Y-9059103D01*
X4273634Y-8811484D02*
X4292682Y-8811484D01*
X4292682Y-8811484D02*
X4311729Y-8821008D01*
X4311729Y-8821008D02*
X4321253Y-8830531D01*
X4321253Y-8830531D02*
X4330777Y-8849579D01*
X4330777Y-8849579D02*
X4340301Y-8887674D01*
X4340301Y-8887674D02*
X4340301Y-8935293D01*
X4340301Y-8935293D02*
X4330777Y-8973389D01*
X4330777Y-8973389D02*
X4321253Y-8992436D01*
X4321253Y-8992436D02*
X4311729Y-9001960D01*
X4311729Y-9001960D02*
X4292682Y-9011484D01*
X4292682Y-9011484D02*
X4273634Y-9011484D01*
X4273634Y-9011484D02*
X4254587Y-9001960D01*
X4254587Y-9001960D02*
X4245063Y-8992436D01*
X4245063Y-8992436D02*
X4235539Y-8973389D01*
X4235539Y-8973389D02*
X4226015Y-8935293D01*
X4226015Y-8935293D02*
X4226015Y-8887674D01*
X4226015Y-8887674D02*
X4235539Y-8849579D01*
X4235539Y-8849579D02*
X4245063Y-8830531D01*
X4245063Y-8830531D02*
X4254587Y-8821008D01*
X4254587Y-8821008D02*
X4273634Y-8811484D01*
X4426015Y-8992436D02*
X4435539Y-9001960D01*
X4435539Y-9001960D02*
X4426015Y-9011484D01*
X4426015Y-9011484D02*
X4416491Y-9001960D01*
X4416491Y-9001960D02*
X4426015Y-8992436D01*
X4426015Y-8992436D02*
X4426015Y-9011484D01*
X4559348Y-8811484D02*
X4578396Y-8811484D01*
X4578396Y-8811484D02*
X4597444Y-8821008D01*
X4597444Y-8821008D02*
X4606968Y-8830531D01*
X4606968Y-8830531D02*
X4616491Y-8849579D01*
X4616491Y-8849579D02*
X4626015Y-8887674D01*
X4626015Y-8887674D02*
X4626015Y-8935293D01*
X4626015Y-8935293D02*
X4616491Y-8973389D01*
X4616491Y-8973389D02*
X4606968Y-8992436D01*
X4606968Y-8992436D02*
X4597444Y-9001960D01*
X4597444Y-9001960D02*
X4578396Y-9011484D01*
X4578396Y-9011484D02*
X4559348Y-9011484D01*
X4559348Y-9011484D02*
X4540301Y-9001960D01*
X4540301Y-9001960D02*
X4530777Y-8992436D01*
X4530777Y-8992436D02*
X4521253Y-8973389D01*
X4521253Y-8973389D02*
X4511729Y-8935293D01*
X4511729Y-8935293D02*
X4511729Y-8887674D01*
X4511729Y-8887674D02*
X4521253Y-8849579D01*
X4521253Y-8849579D02*
X4530777Y-8830531D01*
X4530777Y-8830531D02*
X4540301Y-8821008D01*
X4540301Y-8821008D02*
X4559348Y-8811484D01*
X4797444Y-8878150D02*
X4797444Y-9011484D01*
X4749825Y-8801960D02*
X4702206Y-8944817D01*
X4702206Y-8944817D02*
X4826015Y-8944817D01*
X4883158Y-8811484D02*
X5016491Y-8811484D01*
X5016491Y-8811484D02*
X4930777Y-9011484D01*
X5083158Y-8830531D02*
X5092682Y-8821008D01*
X5092682Y-8821008D02*
X5111729Y-8811484D01*
X5111729Y-8811484D02*
X5159349Y-8811484D01*
X5159349Y-8811484D02*
X5178396Y-8821008D01*
X5178396Y-8821008D02*
X5187920Y-8830531D01*
X5187920Y-8830531D02*
X5197444Y-8849579D01*
X5197444Y-8849579D02*
X5197444Y-8868627D01*
X5197444Y-8868627D02*
X5187920Y-8897198D01*
X5187920Y-8897198D02*
X5073634Y-9011484D01*
X5073634Y-9011484D02*
X5197444Y-9011484D01*
X5273634Y-8811484D02*
X5273634Y-8849579D01*
X5349825Y-8811484D02*
X5349825Y-8849579D01*
X5645063Y-9087674D02*
X5635539Y-9078150D01*
X5635539Y-9078150D02*
X5616491Y-9049579D01*
X5616491Y-9049579D02*
X5606968Y-9030531D01*
X5606968Y-9030531D02*
X5597444Y-9001960D01*
X5597444Y-9001960D02*
X5587920Y-8954341D01*
X5587920Y-8954341D02*
X5587920Y-8916246D01*
X5587920Y-8916246D02*
X5597444Y-8868627D01*
X5597444Y-8868627D02*
X5606968Y-8840055D01*
X5606968Y-8840055D02*
X5616491Y-8821008D01*
X5616491Y-8821008D02*
X5635539Y-8792436D01*
X5635539Y-8792436D02*
X5645063Y-8782912D01*
X5711729Y-8830531D02*
X5721253Y-8821008D01*
X5721253Y-8821008D02*
X5740301Y-8811484D01*
X5740301Y-8811484D02*
X5787920Y-8811484D01*
X5787920Y-8811484D02*
X5806968Y-8821008D01*
X5806968Y-8821008D02*
X5816491Y-8830531D01*
X5816491Y-8830531D02*
X5826015Y-8849579D01*
X5826015Y-8849579D02*
X5826015Y-8868627D01*
X5826015Y-8868627D02*
X5816491Y-8897198D01*
X5816491Y-8897198D02*
X5702206Y-9011484D01*
X5702206Y-9011484D02*
X5826015Y-9011484D01*
X6064110Y-9011484D02*
X6064110Y-8811484D01*
X6149825Y-9011484D02*
X6149825Y-8906722D01*
X6149825Y-8906722D02*
X6140301Y-8887674D01*
X6140301Y-8887674D02*
X6121253Y-8878150D01*
X6121253Y-8878150D02*
X6092682Y-8878150D01*
X6092682Y-8878150D02*
X6073634Y-8887674D01*
X6073634Y-8887674D02*
X6064110Y-8897198D01*
X6273634Y-9011484D02*
X6254587Y-9001960D01*
X6254587Y-9001960D02*
X6245063Y-8992436D01*
X6245063Y-8992436D02*
X6235539Y-8973389D01*
X6235539Y-8973389D02*
X6235539Y-8916246D01*
X6235539Y-8916246D02*
X6245063Y-8897198D01*
X6245063Y-8897198D02*
X6254587Y-8887674D01*
X6254587Y-8887674D02*
X6273634Y-8878150D01*
X6273634Y-8878150D02*
X6302206Y-8878150D01*
X6302206Y-8878150D02*
X6321253Y-8887674D01*
X6321253Y-8887674D02*
X6330777Y-8897198D01*
X6330777Y-8897198D02*
X6340301Y-8916246D01*
X6340301Y-8916246D02*
X6340301Y-8973389D01*
X6340301Y-8973389D02*
X6330777Y-8992436D01*
X6330777Y-8992436D02*
X6321253Y-9001960D01*
X6321253Y-9001960D02*
X6302206Y-9011484D01*
X6302206Y-9011484D02*
X6273634Y-9011484D01*
X6454587Y-9011484D02*
X6435539Y-9001960D01*
X6435539Y-9001960D02*
X6426015Y-8982912D01*
X6426015Y-8982912D02*
X6426015Y-8811484D01*
X6606968Y-9001960D02*
X6587920Y-9011484D01*
X6587920Y-9011484D02*
X6549825Y-9011484D01*
X6549825Y-9011484D02*
X6530777Y-9001960D01*
X6530777Y-9001960D02*
X6521253Y-8982912D01*
X6521253Y-8982912D02*
X6521253Y-8906722D01*
X6521253Y-8906722D02*
X6530777Y-8887674D01*
X6530777Y-8887674D02*
X6549825Y-8878150D01*
X6549825Y-8878150D02*
X6587920Y-8878150D01*
X6587920Y-8878150D02*
X6606968Y-8887674D01*
X6606968Y-8887674D02*
X6616491Y-8906722D01*
X6616491Y-8906722D02*
X6616491Y-8925770D01*
X6616491Y-8925770D02*
X6521253Y-8944817D01*
X6692682Y-9001960D02*
X6711730Y-9011484D01*
X6711730Y-9011484D02*
X6749825Y-9011484D01*
X6749825Y-9011484D02*
X6768872Y-9001960D01*
X6768872Y-9001960D02*
X6778396Y-8982912D01*
X6778396Y-8982912D02*
X6778396Y-8973389D01*
X6778396Y-8973389D02*
X6768872Y-8954341D01*
X6768872Y-8954341D02*
X6749825Y-8944817D01*
X6749825Y-8944817D02*
X6721253Y-8944817D01*
X6721253Y-8944817D02*
X6702206Y-8935293D01*
X6702206Y-8935293D02*
X6692682Y-8916246D01*
X6692682Y-8916246D02*
X6692682Y-8906722D01*
X6692682Y-8906722D02*
X6702206Y-8887674D01*
X6702206Y-8887674D02*
X6721253Y-8878150D01*
X6721253Y-8878150D02*
X6749825Y-8878150D01*
X6749825Y-8878150D02*
X6768872Y-8887674D01*
X6845063Y-9087674D02*
X6854587Y-9078150D01*
X6854587Y-9078150D02*
X6873634Y-9049579D01*
X6873634Y-9049579D02*
X6883158Y-9030531D01*
X6883158Y-9030531D02*
X6892682Y-9001960D01*
X6892682Y-9001960D02*
X6902206Y-8954341D01*
X6902206Y-8954341D02*
X6902206Y-8916246D01*
X6902206Y-8916246D02*
X6892682Y-8868627D01*
X6892682Y-8868627D02*
X6883158Y-8840055D01*
X6883158Y-8840055D02*
X6873634Y-8821008D01*
X6873634Y-8821008D02*
X6854587Y-8792436D01*
X6854587Y-8792436D02*
X6845063Y-8782912D01*
X7206968Y-9087674D02*
X7197444Y-9078150D01*
X7197444Y-9078150D02*
X7178396Y-9049579D01*
X7178396Y-9049579D02*
X7168872Y-9030531D01*
X7168872Y-9030531D02*
X7159349Y-9001960D01*
X7159349Y-9001960D02*
X7149825Y-8954341D01*
X7149825Y-8954341D02*
X7149825Y-8916246D01*
X7149825Y-8916246D02*
X7159349Y-8868627D01*
X7159349Y-8868627D02*
X7168872Y-8840055D01*
X7168872Y-8840055D02*
X7178396Y-8821008D01*
X7178396Y-8821008D02*
X7197444Y-8792436D01*
X7197444Y-8792436D02*
X7206968Y-8782912D01*
X7283158Y-8878150D02*
X7283158Y-9011484D01*
X7283158Y-8897198D02*
X7292682Y-8887674D01*
X7292682Y-8887674D02*
X7311730Y-8878150D01*
X7311730Y-8878150D02*
X7340301Y-8878150D01*
X7340301Y-8878150D02*
X7359349Y-8887674D01*
X7359349Y-8887674D02*
X7368872Y-8906722D01*
X7368872Y-8906722D02*
X7368872Y-9011484D01*
X7492682Y-9011484D02*
X7473634Y-9001960D01*
X7473634Y-9001960D02*
X7464111Y-8992436D01*
X7464111Y-8992436D02*
X7454587Y-8973389D01*
X7454587Y-8973389D02*
X7454587Y-8916246D01*
X7454587Y-8916246D02*
X7464111Y-8897198D01*
X7464111Y-8897198D02*
X7473634Y-8887674D01*
X7473634Y-8887674D02*
X7492682Y-8878150D01*
X7492682Y-8878150D02*
X7521253Y-8878150D01*
X7521253Y-8878150D02*
X7540301Y-8887674D01*
X7540301Y-8887674D02*
X7549825Y-8897198D01*
X7549825Y-8897198D02*
X7559349Y-8916246D01*
X7559349Y-8916246D02*
X7559349Y-8973389D01*
X7559349Y-8973389D02*
X7549825Y-8992436D01*
X7549825Y-8992436D02*
X7540301Y-9001960D01*
X7540301Y-9001960D02*
X7521253Y-9011484D01*
X7521253Y-9011484D02*
X7492682Y-9011484D01*
X7616492Y-8878150D02*
X7692682Y-8878150D01*
X7645063Y-8811484D02*
X7645063Y-8982912D01*
X7645063Y-8982912D02*
X7654587Y-9001960D01*
X7654587Y-9001960D02*
X7673634Y-9011484D01*
X7673634Y-9011484D02*
X7692682Y-9011484D01*
X7911730Y-8878150D02*
X7911730Y-9078150D01*
X7911730Y-8887674D02*
X7930777Y-8878150D01*
X7930777Y-8878150D02*
X7968873Y-8878150D01*
X7968873Y-8878150D02*
X7987920Y-8887674D01*
X7987920Y-8887674D02*
X7997444Y-8897198D01*
X7997444Y-8897198D02*
X8006968Y-8916246D01*
X8006968Y-8916246D02*
X8006968Y-8973389D01*
X8006968Y-8973389D02*
X7997444Y-8992436D01*
X7997444Y-8992436D02*
X7987920Y-9001960D01*
X7987920Y-9001960D02*
X7968873Y-9011484D01*
X7968873Y-9011484D02*
X7930777Y-9011484D01*
X7930777Y-9011484D02*
X7911730Y-9001960D01*
X8121253Y-9011484D02*
X8102206Y-9001960D01*
X8102206Y-9001960D02*
X8092682Y-8982912D01*
X8092682Y-8982912D02*
X8092682Y-8811484D01*
X8283158Y-9011484D02*
X8283158Y-8906722D01*
X8283158Y-8906722D02*
X8273634Y-8887674D01*
X8273634Y-8887674D02*
X8254587Y-8878150D01*
X8254587Y-8878150D02*
X8216492Y-8878150D01*
X8216492Y-8878150D02*
X8197444Y-8887674D01*
X8283158Y-9001960D02*
X8264111Y-9011484D01*
X8264111Y-9011484D02*
X8216492Y-9011484D01*
X8216492Y-9011484D02*
X8197444Y-9001960D01*
X8197444Y-9001960D02*
X8187920Y-8982912D01*
X8187920Y-8982912D02*
X8187920Y-8963865D01*
X8187920Y-8963865D02*
X8197444Y-8944817D01*
X8197444Y-8944817D02*
X8216492Y-8935293D01*
X8216492Y-8935293D02*
X8264111Y-8935293D01*
X8264111Y-8935293D02*
X8283158Y-8925770D01*
X8349825Y-8878150D02*
X8426015Y-8878150D01*
X8378396Y-8811484D02*
X8378396Y-8982912D01*
X8378396Y-8982912D02*
X8387920Y-9001960D01*
X8387920Y-9001960D02*
X8406968Y-9011484D01*
X8406968Y-9011484D02*
X8426015Y-9011484D01*
X8568873Y-9001960D02*
X8549825Y-9011484D01*
X8549825Y-9011484D02*
X8511730Y-9011484D01*
X8511730Y-9011484D02*
X8492682Y-9001960D01*
X8492682Y-9001960D02*
X8483158Y-8982912D01*
X8483158Y-8982912D02*
X8483158Y-8906722D01*
X8483158Y-8906722D02*
X8492682Y-8887674D01*
X8492682Y-8887674D02*
X8511730Y-8878150D01*
X8511730Y-8878150D02*
X8549825Y-8878150D01*
X8549825Y-8878150D02*
X8568873Y-8887674D01*
X8568873Y-8887674D02*
X8578396Y-8906722D01*
X8578396Y-8906722D02*
X8578396Y-8925770D01*
X8578396Y-8925770D02*
X8483158Y-8944817D01*
X8749825Y-9011484D02*
X8749825Y-8811484D01*
X8749825Y-9001960D02*
X8730777Y-9011484D01*
X8730777Y-9011484D02*
X8692682Y-9011484D01*
X8692682Y-9011484D02*
X8673635Y-9001960D01*
X8673635Y-9001960D02*
X8664111Y-8992436D01*
X8664111Y-8992436D02*
X8654587Y-8973389D01*
X8654587Y-8973389D02*
X8654587Y-8916246D01*
X8654587Y-8916246D02*
X8664111Y-8897198D01*
X8664111Y-8897198D02*
X8673635Y-8887674D01*
X8673635Y-8887674D02*
X8692682Y-8878150D01*
X8692682Y-8878150D02*
X8730777Y-8878150D01*
X8730777Y-8878150D02*
X8749825Y-8887674D01*
X8826016Y-9087674D02*
X8835539Y-9078150D01*
X8835539Y-9078150D02*
X8854587Y-9049579D01*
X8854587Y-9049579D02*
X8864111Y-9030531D01*
X8864111Y-9030531D02*
X8873635Y-9001960D01*
X8873635Y-9001960D02*
X8883158Y-8954341D01*
X8883158Y-8954341D02*
X8883158Y-8916246D01*
X8883158Y-8916246D02*
X8873635Y-8868627D01*
X8873635Y-8868627D02*
X8864111Y-8840055D01*
X8864111Y-8840055D02*
X8854587Y-8821008D01*
X8854587Y-8821008D02*
X8835539Y-8792436D01*
X8835539Y-8792436D02*
X8826016Y-8782912D01*
M02*
