%TF.GenerationSoftware,KiCad,Pcbnew,7.0.11-1-dev-0f715223e9*%
%TF.CreationDate,2024-01-18T09:46:45-08:00*%
%TF.ProjectId,i2s_to_toslink_pcb,6932735f-746f-45f7-946f-736c696e6b5f,rev?*%
%TF.SameCoordinates,Original*%
%TF.FileFunction,Legend,Top*%
%TF.FilePolarity,Positive*%
%FSLAX46Y46*%
G04 Gerber Fmt 4.6, Leading zero omitted, Abs format (unit mm)*
G04 Created by KiCad (PCBNEW 7.0.11-1-dev-0f715223e9) date 2024-01-18 09:46:45*
%MOMM*%
%LPD*%
G01*
G04 APERTURE LIST*
%ADD10C,0.150000*%
%ADD11C,0.152400*%
%ADD12C,0.120000*%
%ADD13C,0.100000*%
%ADD14C,0.200000*%
%ADD15C,0.250000*%
%ADD16C,0.500000*%
%ADD17C,0.127000*%
G04 APERTURE END LIST*
D10*
X39094628Y-73247190D02*
X39570819Y-73247190D01*
X38570819Y-73580523D02*
X39094628Y-73247190D01*
X39094628Y-73247190D02*
X38570819Y-72913857D01*
X39570819Y-72056714D02*
X39570819Y-72628142D01*
X39570819Y-72342428D02*
X38570819Y-72342428D01*
X38570819Y-72342428D02*
X38713676Y-72437666D01*
X38713676Y-72437666D02*
X38808914Y-72532904D01*
X38808914Y-72532904D02*
X38856533Y-72628142D01*
X58892142Y-32055580D02*
X58844523Y-32103200D01*
X58844523Y-32103200D02*
X58701666Y-32150819D01*
X58701666Y-32150819D02*
X58606428Y-32150819D01*
X58606428Y-32150819D02*
X58463571Y-32103200D01*
X58463571Y-32103200D02*
X58368333Y-32007961D01*
X58368333Y-32007961D02*
X58320714Y-31912723D01*
X58320714Y-31912723D02*
X58273095Y-31722247D01*
X58273095Y-31722247D02*
X58273095Y-31579390D01*
X58273095Y-31579390D02*
X58320714Y-31388914D01*
X58320714Y-31388914D02*
X58368333Y-31293676D01*
X58368333Y-31293676D02*
X58463571Y-31198438D01*
X58463571Y-31198438D02*
X58606428Y-31150819D01*
X58606428Y-31150819D02*
X58701666Y-31150819D01*
X58701666Y-31150819D02*
X58844523Y-31198438D01*
X58844523Y-31198438D02*
X58892142Y-31246057D01*
X59844523Y-32150819D02*
X59273095Y-32150819D01*
X59558809Y-32150819D02*
X59558809Y-31150819D01*
X59558809Y-31150819D02*
X59463571Y-31293676D01*
X59463571Y-31293676D02*
X59368333Y-31388914D01*
X59368333Y-31388914D02*
X59273095Y-31436533D01*
X60415952Y-31579390D02*
X60320714Y-31531771D01*
X60320714Y-31531771D02*
X60273095Y-31484152D01*
X60273095Y-31484152D02*
X60225476Y-31388914D01*
X60225476Y-31388914D02*
X60225476Y-31341295D01*
X60225476Y-31341295D02*
X60273095Y-31246057D01*
X60273095Y-31246057D02*
X60320714Y-31198438D01*
X60320714Y-31198438D02*
X60415952Y-31150819D01*
X60415952Y-31150819D02*
X60606428Y-31150819D01*
X60606428Y-31150819D02*
X60701666Y-31198438D01*
X60701666Y-31198438D02*
X60749285Y-31246057D01*
X60749285Y-31246057D02*
X60796904Y-31341295D01*
X60796904Y-31341295D02*
X60796904Y-31388914D01*
X60796904Y-31388914D02*
X60749285Y-31484152D01*
X60749285Y-31484152D02*
X60701666Y-31531771D01*
X60701666Y-31531771D02*
X60606428Y-31579390D01*
X60606428Y-31579390D02*
X60415952Y-31579390D01*
X60415952Y-31579390D02*
X60320714Y-31627009D01*
X60320714Y-31627009D02*
X60273095Y-31674628D01*
X60273095Y-31674628D02*
X60225476Y-31769866D01*
X60225476Y-31769866D02*
X60225476Y-31960342D01*
X60225476Y-31960342D02*
X60273095Y-32055580D01*
X60273095Y-32055580D02*
X60320714Y-32103200D01*
X60320714Y-32103200D02*
X60415952Y-32150819D01*
X60415952Y-32150819D02*
X60606428Y-32150819D01*
X60606428Y-32150819D02*
X60701666Y-32103200D01*
X60701666Y-32103200D02*
X60749285Y-32055580D01*
X60749285Y-32055580D02*
X60796904Y-31960342D01*
X60796904Y-31960342D02*
X60796904Y-31769866D01*
X60796904Y-31769866D02*
X60749285Y-31674628D01*
X60749285Y-31674628D02*
X60701666Y-31627009D01*
X60701666Y-31627009D02*
X60606428Y-31579390D01*
X78084819Y-56739257D02*
X77608628Y-57072590D01*
X78084819Y-57310685D02*
X77084819Y-57310685D01*
X77084819Y-57310685D02*
X77084819Y-56929733D01*
X77084819Y-56929733D02*
X77132438Y-56834495D01*
X77132438Y-56834495D02*
X77180057Y-56786876D01*
X77180057Y-56786876D02*
X77275295Y-56739257D01*
X77275295Y-56739257D02*
X77418152Y-56739257D01*
X77418152Y-56739257D02*
X77513390Y-56786876D01*
X77513390Y-56786876D02*
X77561009Y-56834495D01*
X77561009Y-56834495D02*
X77608628Y-56929733D01*
X77608628Y-56929733D02*
X77608628Y-57310685D01*
X78084819Y-55786876D02*
X78084819Y-56358304D01*
X78084819Y-56072590D02*
X77084819Y-56072590D01*
X77084819Y-56072590D02*
X77227676Y-56167828D01*
X77227676Y-56167828D02*
X77322914Y-56263066D01*
X77322914Y-56263066D02*
X77370533Y-56358304D01*
X77084819Y-55167828D02*
X77084819Y-55072590D01*
X77084819Y-55072590D02*
X77132438Y-54977352D01*
X77132438Y-54977352D02*
X77180057Y-54929733D01*
X77180057Y-54929733D02*
X77275295Y-54882114D01*
X77275295Y-54882114D02*
X77465771Y-54834495D01*
X77465771Y-54834495D02*
X77703866Y-54834495D01*
X77703866Y-54834495D02*
X77894342Y-54882114D01*
X77894342Y-54882114D02*
X77989580Y-54929733D01*
X77989580Y-54929733D02*
X78037200Y-54977352D01*
X78037200Y-54977352D02*
X78084819Y-55072590D01*
X78084819Y-55072590D02*
X78084819Y-55167828D01*
X78084819Y-55167828D02*
X78037200Y-55263066D01*
X78037200Y-55263066D02*
X77989580Y-55310685D01*
X77989580Y-55310685D02*
X77894342Y-55358304D01*
X77894342Y-55358304D02*
X77703866Y-55405923D01*
X77703866Y-55405923D02*
X77465771Y-55405923D01*
X77465771Y-55405923D02*
X77275295Y-55358304D01*
X77275295Y-55358304D02*
X77180057Y-55310685D01*
X77180057Y-55310685D02*
X77132438Y-55263066D01*
X77132438Y-55263066D02*
X77084819Y-55167828D01*
X46883980Y-76870857D02*
X46931600Y-76918476D01*
X46931600Y-76918476D02*
X46979219Y-77061333D01*
X46979219Y-77061333D02*
X46979219Y-77156571D01*
X46979219Y-77156571D02*
X46931600Y-77299428D01*
X46931600Y-77299428D02*
X46836361Y-77394666D01*
X46836361Y-77394666D02*
X46741123Y-77442285D01*
X46741123Y-77442285D02*
X46550647Y-77489904D01*
X46550647Y-77489904D02*
X46407790Y-77489904D01*
X46407790Y-77489904D02*
X46217314Y-77442285D01*
X46217314Y-77442285D02*
X46122076Y-77394666D01*
X46122076Y-77394666D02*
X46026838Y-77299428D01*
X46026838Y-77299428D02*
X45979219Y-77156571D01*
X45979219Y-77156571D02*
X45979219Y-77061333D01*
X45979219Y-77061333D02*
X46026838Y-76918476D01*
X46026838Y-76918476D02*
X46074457Y-76870857D01*
X46979219Y-75918476D02*
X46979219Y-76489904D01*
X46979219Y-76204190D02*
X45979219Y-76204190D01*
X45979219Y-76204190D02*
X46122076Y-76299428D01*
X46122076Y-76299428D02*
X46217314Y-76394666D01*
X46217314Y-76394666D02*
X46264933Y-76489904D01*
X45979219Y-75299428D02*
X45979219Y-75204190D01*
X45979219Y-75204190D02*
X46026838Y-75108952D01*
X46026838Y-75108952D02*
X46074457Y-75061333D01*
X46074457Y-75061333D02*
X46169695Y-75013714D01*
X46169695Y-75013714D02*
X46360171Y-74966095D01*
X46360171Y-74966095D02*
X46598266Y-74966095D01*
X46598266Y-74966095D02*
X46788742Y-75013714D01*
X46788742Y-75013714D02*
X46883980Y-75061333D01*
X46883980Y-75061333D02*
X46931600Y-75108952D01*
X46931600Y-75108952D02*
X46979219Y-75204190D01*
X46979219Y-75204190D02*
X46979219Y-75299428D01*
X46979219Y-75299428D02*
X46931600Y-75394666D01*
X46931600Y-75394666D02*
X46883980Y-75442285D01*
X46883980Y-75442285D02*
X46788742Y-75489904D01*
X46788742Y-75489904D02*
X46598266Y-75537523D01*
X46598266Y-75537523D02*
X46360171Y-75537523D01*
X46360171Y-75537523D02*
X46169695Y-75489904D01*
X46169695Y-75489904D02*
X46074457Y-75442285D01*
X46074457Y-75442285D02*
X46026838Y-75394666D01*
X46026838Y-75394666D02*
X45979219Y-75299428D01*
X36946542Y-50236780D02*
X36898923Y-50284400D01*
X36898923Y-50284400D02*
X36756066Y-50332019D01*
X36756066Y-50332019D02*
X36660828Y-50332019D01*
X36660828Y-50332019D02*
X36517971Y-50284400D01*
X36517971Y-50284400D02*
X36422733Y-50189161D01*
X36422733Y-50189161D02*
X36375114Y-50093923D01*
X36375114Y-50093923D02*
X36327495Y-49903447D01*
X36327495Y-49903447D02*
X36327495Y-49760590D01*
X36327495Y-49760590D02*
X36375114Y-49570114D01*
X36375114Y-49570114D02*
X36422733Y-49474876D01*
X36422733Y-49474876D02*
X36517971Y-49379638D01*
X36517971Y-49379638D02*
X36660828Y-49332019D01*
X36660828Y-49332019D02*
X36756066Y-49332019D01*
X36756066Y-49332019D02*
X36898923Y-49379638D01*
X36898923Y-49379638D02*
X36946542Y-49427257D01*
X37898923Y-50332019D02*
X37327495Y-50332019D01*
X37613209Y-50332019D02*
X37613209Y-49332019D01*
X37613209Y-49332019D02*
X37517971Y-49474876D01*
X37517971Y-49474876D02*
X37422733Y-49570114D01*
X37422733Y-49570114D02*
X37327495Y-49617733D01*
X38803685Y-49332019D02*
X38327495Y-49332019D01*
X38327495Y-49332019D02*
X38279876Y-49808209D01*
X38279876Y-49808209D02*
X38327495Y-49760590D01*
X38327495Y-49760590D02*
X38422733Y-49712971D01*
X38422733Y-49712971D02*
X38660828Y-49712971D01*
X38660828Y-49712971D02*
X38756066Y-49760590D01*
X38756066Y-49760590D02*
X38803685Y-49808209D01*
X38803685Y-49808209D02*
X38851304Y-49903447D01*
X38851304Y-49903447D02*
X38851304Y-50141542D01*
X38851304Y-50141542D02*
X38803685Y-50236780D01*
X38803685Y-50236780D02*
X38756066Y-50284400D01*
X38756066Y-50284400D02*
X38660828Y-50332019D01*
X38660828Y-50332019D02*
X38422733Y-50332019D01*
X38422733Y-50332019D02*
X38327495Y-50284400D01*
X38327495Y-50284400D02*
X38279876Y-50236780D01*
X27352666Y-34296819D02*
X27352666Y-35011104D01*
X27352666Y-35011104D02*
X27305047Y-35153961D01*
X27305047Y-35153961D02*
X27209809Y-35249200D01*
X27209809Y-35249200D02*
X27066952Y-35296819D01*
X27066952Y-35296819D02*
X26971714Y-35296819D01*
X27733619Y-34296819D02*
X28352666Y-34296819D01*
X28352666Y-34296819D02*
X28019333Y-34677771D01*
X28019333Y-34677771D02*
X28162190Y-34677771D01*
X28162190Y-34677771D02*
X28257428Y-34725390D01*
X28257428Y-34725390D02*
X28305047Y-34773009D01*
X28305047Y-34773009D02*
X28352666Y-34868247D01*
X28352666Y-34868247D02*
X28352666Y-35106342D01*
X28352666Y-35106342D02*
X28305047Y-35201580D01*
X28305047Y-35201580D02*
X28257428Y-35249200D01*
X28257428Y-35249200D02*
X28162190Y-35296819D01*
X28162190Y-35296819D02*
X27876476Y-35296819D01*
X27876476Y-35296819D02*
X27781238Y-35249200D01*
X27781238Y-35249200D02*
X27733619Y-35201580D01*
X55203333Y-59482819D02*
X54870000Y-59006628D01*
X54631905Y-59482819D02*
X54631905Y-58482819D01*
X54631905Y-58482819D02*
X55012857Y-58482819D01*
X55012857Y-58482819D02*
X55108095Y-58530438D01*
X55108095Y-58530438D02*
X55155714Y-58578057D01*
X55155714Y-58578057D02*
X55203333Y-58673295D01*
X55203333Y-58673295D02*
X55203333Y-58816152D01*
X55203333Y-58816152D02*
X55155714Y-58911390D01*
X55155714Y-58911390D02*
X55108095Y-58959009D01*
X55108095Y-58959009D02*
X55012857Y-59006628D01*
X55012857Y-59006628D02*
X54631905Y-59006628D01*
X56060476Y-58816152D02*
X56060476Y-59482819D01*
X55822381Y-58435200D02*
X55584286Y-59149485D01*
X55584286Y-59149485D02*
X56203333Y-59149485D01*
X59497933Y-56842819D02*
X59164600Y-56366628D01*
X58926505Y-56842819D02*
X58926505Y-55842819D01*
X58926505Y-55842819D02*
X59307457Y-55842819D01*
X59307457Y-55842819D02*
X59402695Y-55890438D01*
X59402695Y-55890438D02*
X59450314Y-55938057D01*
X59450314Y-55938057D02*
X59497933Y-56033295D01*
X59497933Y-56033295D02*
X59497933Y-56176152D01*
X59497933Y-56176152D02*
X59450314Y-56271390D01*
X59450314Y-56271390D02*
X59402695Y-56319009D01*
X59402695Y-56319009D02*
X59307457Y-56366628D01*
X59307457Y-56366628D02*
X58926505Y-56366628D01*
X60355076Y-55842819D02*
X60164600Y-55842819D01*
X60164600Y-55842819D02*
X60069362Y-55890438D01*
X60069362Y-55890438D02*
X60021743Y-55938057D01*
X60021743Y-55938057D02*
X59926505Y-56080914D01*
X59926505Y-56080914D02*
X59878886Y-56271390D01*
X59878886Y-56271390D02*
X59878886Y-56652342D01*
X59878886Y-56652342D02*
X59926505Y-56747580D01*
X59926505Y-56747580D02*
X59974124Y-56795200D01*
X59974124Y-56795200D02*
X60069362Y-56842819D01*
X60069362Y-56842819D02*
X60259838Y-56842819D01*
X60259838Y-56842819D02*
X60355076Y-56795200D01*
X60355076Y-56795200D02*
X60402695Y-56747580D01*
X60402695Y-56747580D02*
X60450314Y-56652342D01*
X60450314Y-56652342D02*
X60450314Y-56414247D01*
X60450314Y-56414247D02*
X60402695Y-56319009D01*
X60402695Y-56319009D02*
X60355076Y-56271390D01*
X60355076Y-56271390D02*
X60259838Y-56223771D01*
X60259838Y-56223771D02*
X60069362Y-56223771D01*
X60069362Y-56223771D02*
X59974124Y-56271390D01*
X59974124Y-56271390D02*
X59926505Y-56319009D01*
X59926505Y-56319009D02*
X59878886Y-56414247D01*
X58245476Y-47968819D02*
X58245476Y-48683104D01*
X58245476Y-48683104D02*
X58197857Y-48825961D01*
X58197857Y-48825961D02*
X58102619Y-48921200D01*
X58102619Y-48921200D02*
X57959762Y-48968819D01*
X57959762Y-48968819D02*
X57864524Y-48968819D01*
X59245476Y-48968819D02*
X58674048Y-48968819D01*
X58959762Y-48968819D02*
X58959762Y-47968819D01*
X58959762Y-47968819D02*
X58864524Y-48111676D01*
X58864524Y-48111676D02*
X58769286Y-48206914D01*
X58769286Y-48206914D02*
X58674048Y-48254533D01*
X59578810Y-47968819D02*
X60245476Y-47968819D01*
X60245476Y-47968819D02*
X59816905Y-48968819D01*
X54339733Y-51661219D02*
X54006400Y-51185028D01*
X53768305Y-51661219D02*
X53768305Y-50661219D01*
X53768305Y-50661219D02*
X54149257Y-50661219D01*
X54149257Y-50661219D02*
X54244495Y-50708838D01*
X54244495Y-50708838D02*
X54292114Y-50756457D01*
X54292114Y-50756457D02*
X54339733Y-50851695D01*
X54339733Y-50851695D02*
X54339733Y-50994552D01*
X54339733Y-50994552D02*
X54292114Y-51089790D01*
X54292114Y-51089790D02*
X54244495Y-51137409D01*
X54244495Y-51137409D02*
X54149257Y-51185028D01*
X54149257Y-51185028D02*
X53768305Y-51185028D01*
X54911162Y-51089790D02*
X54815924Y-51042171D01*
X54815924Y-51042171D02*
X54768305Y-50994552D01*
X54768305Y-50994552D02*
X54720686Y-50899314D01*
X54720686Y-50899314D02*
X54720686Y-50851695D01*
X54720686Y-50851695D02*
X54768305Y-50756457D01*
X54768305Y-50756457D02*
X54815924Y-50708838D01*
X54815924Y-50708838D02*
X54911162Y-50661219D01*
X54911162Y-50661219D02*
X55101638Y-50661219D01*
X55101638Y-50661219D02*
X55196876Y-50708838D01*
X55196876Y-50708838D02*
X55244495Y-50756457D01*
X55244495Y-50756457D02*
X55292114Y-50851695D01*
X55292114Y-50851695D02*
X55292114Y-50899314D01*
X55292114Y-50899314D02*
X55244495Y-50994552D01*
X55244495Y-50994552D02*
X55196876Y-51042171D01*
X55196876Y-51042171D02*
X55101638Y-51089790D01*
X55101638Y-51089790D02*
X54911162Y-51089790D01*
X54911162Y-51089790D02*
X54815924Y-51137409D01*
X54815924Y-51137409D02*
X54768305Y-51185028D01*
X54768305Y-51185028D02*
X54720686Y-51280266D01*
X54720686Y-51280266D02*
X54720686Y-51470742D01*
X54720686Y-51470742D02*
X54768305Y-51565980D01*
X54768305Y-51565980D02*
X54815924Y-51613600D01*
X54815924Y-51613600D02*
X54911162Y-51661219D01*
X54911162Y-51661219D02*
X55101638Y-51661219D01*
X55101638Y-51661219D02*
X55196876Y-51613600D01*
X55196876Y-51613600D02*
X55244495Y-51565980D01*
X55244495Y-51565980D02*
X55292114Y-51470742D01*
X55292114Y-51470742D02*
X55292114Y-51280266D01*
X55292114Y-51280266D02*
X55244495Y-51185028D01*
X55244495Y-51185028D02*
X55196876Y-51137409D01*
X55196876Y-51137409D02*
X55101638Y-51089790D01*
X41235333Y-77581780D02*
X41187714Y-77629400D01*
X41187714Y-77629400D02*
X41044857Y-77677019D01*
X41044857Y-77677019D02*
X40949619Y-77677019D01*
X40949619Y-77677019D02*
X40806762Y-77629400D01*
X40806762Y-77629400D02*
X40711524Y-77534161D01*
X40711524Y-77534161D02*
X40663905Y-77438923D01*
X40663905Y-77438923D02*
X40616286Y-77248447D01*
X40616286Y-77248447D02*
X40616286Y-77105590D01*
X40616286Y-77105590D02*
X40663905Y-76915114D01*
X40663905Y-76915114D02*
X40711524Y-76819876D01*
X40711524Y-76819876D02*
X40806762Y-76724638D01*
X40806762Y-76724638D02*
X40949619Y-76677019D01*
X40949619Y-76677019D02*
X41044857Y-76677019D01*
X41044857Y-76677019D02*
X41187714Y-76724638D01*
X41187714Y-76724638D02*
X41235333Y-76772257D01*
X41806762Y-77105590D02*
X41711524Y-77057971D01*
X41711524Y-77057971D02*
X41663905Y-77010352D01*
X41663905Y-77010352D02*
X41616286Y-76915114D01*
X41616286Y-76915114D02*
X41616286Y-76867495D01*
X41616286Y-76867495D02*
X41663905Y-76772257D01*
X41663905Y-76772257D02*
X41711524Y-76724638D01*
X41711524Y-76724638D02*
X41806762Y-76677019D01*
X41806762Y-76677019D02*
X41997238Y-76677019D01*
X41997238Y-76677019D02*
X42092476Y-76724638D01*
X42092476Y-76724638D02*
X42140095Y-76772257D01*
X42140095Y-76772257D02*
X42187714Y-76867495D01*
X42187714Y-76867495D02*
X42187714Y-76915114D01*
X42187714Y-76915114D02*
X42140095Y-77010352D01*
X42140095Y-77010352D02*
X42092476Y-77057971D01*
X42092476Y-77057971D02*
X41997238Y-77105590D01*
X41997238Y-77105590D02*
X41806762Y-77105590D01*
X41806762Y-77105590D02*
X41711524Y-77153209D01*
X41711524Y-77153209D02*
X41663905Y-77200828D01*
X41663905Y-77200828D02*
X41616286Y-77296066D01*
X41616286Y-77296066D02*
X41616286Y-77486542D01*
X41616286Y-77486542D02*
X41663905Y-77581780D01*
X41663905Y-77581780D02*
X41711524Y-77629400D01*
X41711524Y-77629400D02*
X41806762Y-77677019D01*
X41806762Y-77677019D02*
X41997238Y-77677019D01*
X41997238Y-77677019D02*
X42092476Y-77629400D01*
X42092476Y-77629400D02*
X42140095Y-77581780D01*
X42140095Y-77581780D02*
X42187714Y-77486542D01*
X42187714Y-77486542D02*
X42187714Y-77296066D01*
X42187714Y-77296066D02*
X42140095Y-77200828D01*
X42140095Y-77200828D02*
X42092476Y-77153209D01*
X42092476Y-77153209D02*
X41997238Y-77105590D01*
X63431895Y-75324619D02*
X64003323Y-75324619D01*
X63717609Y-76324619D02*
X63717609Y-75324619D01*
X64336657Y-76324619D02*
X64336657Y-75324619D01*
X64336657Y-75324619D02*
X64717609Y-75324619D01*
X64717609Y-75324619D02*
X64812847Y-75372238D01*
X64812847Y-75372238D02*
X64860466Y-75419857D01*
X64860466Y-75419857D02*
X64908085Y-75515095D01*
X64908085Y-75515095D02*
X64908085Y-75657952D01*
X64908085Y-75657952D02*
X64860466Y-75753190D01*
X64860466Y-75753190D02*
X64812847Y-75800809D01*
X64812847Y-75800809D02*
X64717609Y-75848428D01*
X64717609Y-75848428D02*
X64336657Y-75848428D01*
X65860466Y-76324619D02*
X65289038Y-76324619D01*
X65574752Y-76324619D02*
X65574752Y-75324619D01*
X65574752Y-75324619D02*
X65479514Y-75467476D01*
X65479514Y-75467476D02*
X65384276Y-75562714D01*
X65384276Y-75562714D02*
X65289038Y-75610333D01*
X28553580Y-43258857D02*
X28601200Y-43306476D01*
X28601200Y-43306476D02*
X28648819Y-43449333D01*
X28648819Y-43449333D02*
X28648819Y-43544571D01*
X28648819Y-43544571D02*
X28601200Y-43687428D01*
X28601200Y-43687428D02*
X28505961Y-43782666D01*
X28505961Y-43782666D02*
X28410723Y-43830285D01*
X28410723Y-43830285D02*
X28220247Y-43877904D01*
X28220247Y-43877904D02*
X28077390Y-43877904D01*
X28077390Y-43877904D02*
X27886914Y-43830285D01*
X27886914Y-43830285D02*
X27791676Y-43782666D01*
X27791676Y-43782666D02*
X27696438Y-43687428D01*
X27696438Y-43687428D02*
X27648819Y-43544571D01*
X27648819Y-43544571D02*
X27648819Y-43449333D01*
X27648819Y-43449333D02*
X27696438Y-43306476D01*
X27696438Y-43306476D02*
X27744057Y-43258857D01*
X28648819Y-42306476D02*
X28648819Y-42877904D01*
X28648819Y-42592190D02*
X27648819Y-42592190D01*
X27648819Y-42592190D02*
X27791676Y-42687428D01*
X27791676Y-42687428D02*
X27886914Y-42782666D01*
X27886914Y-42782666D02*
X27934533Y-42877904D01*
X27648819Y-41973142D02*
X27648819Y-41354095D01*
X27648819Y-41354095D02*
X28029771Y-41687428D01*
X28029771Y-41687428D02*
X28029771Y-41544571D01*
X28029771Y-41544571D02*
X28077390Y-41449333D01*
X28077390Y-41449333D02*
X28125009Y-41401714D01*
X28125009Y-41401714D02*
X28220247Y-41354095D01*
X28220247Y-41354095D02*
X28458342Y-41354095D01*
X28458342Y-41354095D02*
X28553580Y-41401714D01*
X28553580Y-41401714D02*
X28601200Y-41449333D01*
X28601200Y-41449333D02*
X28648819Y-41544571D01*
X28648819Y-41544571D02*
X28648819Y-41830285D01*
X28648819Y-41830285D02*
X28601200Y-41925523D01*
X28601200Y-41925523D02*
X28553580Y-41973142D01*
X56642095Y-66256819D02*
X56642095Y-67066342D01*
X56642095Y-67066342D02*
X56689714Y-67161580D01*
X56689714Y-67161580D02*
X56737333Y-67209200D01*
X56737333Y-67209200D02*
X56832571Y-67256819D01*
X56832571Y-67256819D02*
X57023047Y-67256819D01*
X57023047Y-67256819D02*
X57118285Y-67209200D01*
X57118285Y-67209200D02*
X57165904Y-67161580D01*
X57165904Y-67161580D02*
X57213523Y-67066342D01*
X57213523Y-67066342D02*
X57213523Y-66256819D01*
X57642095Y-66352057D02*
X57689714Y-66304438D01*
X57689714Y-66304438D02*
X57784952Y-66256819D01*
X57784952Y-66256819D02*
X58023047Y-66256819D01*
X58023047Y-66256819D02*
X58118285Y-66304438D01*
X58118285Y-66304438D02*
X58165904Y-66352057D01*
X58165904Y-66352057D02*
X58213523Y-66447295D01*
X58213523Y-66447295D02*
X58213523Y-66542533D01*
X58213523Y-66542533D02*
X58165904Y-66685390D01*
X58165904Y-66685390D02*
X57594476Y-67256819D01*
X57594476Y-67256819D02*
X58213523Y-67256819D01*
X56648819Y-26749333D02*
X57363104Y-26749333D01*
X57363104Y-26749333D02*
X57505961Y-26796952D01*
X57505961Y-26796952D02*
X57601200Y-26892190D01*
X57601200Y-26892190D02*
X57648819Y-27035047D01*
X57648819Y-27035047D02*
X57648819Y-27130285D01*
X56744057Y-26320761D02*
X56696438Y-26273142D01*
X56696438Y-26273142D02*
X56648819Y-26177904D01*
X56648819Y-26177904D02*
X56648819Y-25939809D01*
X56648819Y-25939809D02*
X56696438Y-25844571D01*
X56696438Y-25844571D02*
X56744057Y-25796952D01*
X56744057Y-25796952D02*
X56839295Y-25749333D01*
X56839295Y-25749333D02*
X56934533Y-25749333D01*
X56934533Y-25749333D02*
X57077390Y-25796952D01*
X57077390Y-25796952D02*
X57648819Y-26368380D01*
X57648819Y-26368380D02*
X57648819Y-25749333D01*
X52149476Y-55842819D02*
X52149476Y-56557104D01*
X52149476Y-56557104D02*
X52101857Y-56699961D01*
X52101857Y-56699961D02*
X52006619Y-56795200D01*
X52006619Y-56795200D02*
X51863762Y-56842819D01*
X51863762Y-56842819D02*
X51768524Y-56842819D01*
X53149476Y-56842819D02*
X52578048Y-56842819D01*
X52863762Y-56842819D02*
X52863762Y-55842819D01*
X52863762Y-55842819D02*
X52768524Y-55985676D01*
X52768524Y-55985676D02*
X52673286Y-56080914D01*
X52673286Y-56080914D02*
X52578048Y-56128533D01*
X54054238Y-55842819D02*
X53578048Y-55842819D01*
X53578048Y-55842819D02*
X53530429Y-56319009D01*
X53530429Y-56319009D02*
X53578048Y-56271390D01*
X53578048Y-56271390D02*
X53673286Y-56223771D01*
X53673286Y-56223771D02*
X53911381Y-56223771D01*
X53911381Y-56223771D02*
X54006619Y-56271390D01*
X54006619Y-56271390D02*
X54054238Y-56319009D01*
X54054238Y-56319009D02*
X54101857Y-56414247D01*
X54101857Y-56414247D02*
X54101857Y-56652342D01*
X54101857Y-56652342D02*
X54054238Y-56747580D01*
X54054238Y-56747580D02*
X54006619Y-56795200D01*
X54006619Y-56795200D02*
X53911381Y-56842819D01*
X53911381Y-56842819D02*
X53673286Y-56842819D01*
X53673286Y-56842819D02*
X53578048Y-56795200D01*
X53578048Y-56795200D02*
X53530429Y-56747580D01*
X24387980Y-50190857D02*
X24435600Y-50238476D01*
X24435600Y-50238476D02*
X24483219Y-50381333D01*
X24483219Y-50381333D02*
X24483219Y-50476571D01*
X24483219Y-50476571D02*
X24435600Y-50619428D01*
X24435600Y-50619428D02*
X24340361Y-50714666D01*
X24340361Y-50714666D02*
X24245123Y-50762285D01*
X24245123Y-50762285D02*
X24054647Y-50809904D01*
X24054647Y-50809904D02*
X23911790Y-50809904D01*
X23911790Y-50809904D02*
X23721314Y-50762285D01*
X23721314Y-50762285D02*
X23626076Y-50714666D01*
X23626076Y-50714666D02*
X23530838Y-50619428D01*
X23530838Y-50619428D02*
X23483219Y-50476571D01*
X23483219Y-50476571D02*
X23483219Y-50381333D01*
X23483219Y-50381333D02*
X23530838Y-50238476D01*
X23530838Y-50238476D02*
X23578457Y-50190857D01*
X24483219Y-49238476D02*
X24483219Y-49809904D01*
X24483219Y-49524190D02*
X23483219Y-49524190D01*
X23483219Y-49524190D02*
X23626076Y-49619428D01*
X23626076Y-49619428D02*
X23721314Y-49714666D01*
X23721314Y-49714666D02*
X23768933Y-49809904D01*
X23816552Y-48381333D02*
X24483219Y-48381333D01*
X23435600Y-48619428D02*
X24149885Y-48857523D01*
X24149885Y-48857523D02*
X24149885Y-48238476D01*
X74046219Y-62759057D02*
X73570028Y-63092390D01*
X74046219Y-63330485D02*
X73046219Y-63330485D01*
X73046219Y-63330485D02*
X73046219Y-62949533D01*
X73046219Y-62949533D02*
X73093838Y-62854295D01*
X73093838Y-62854295D02*
X73141457Y-62806676D01*
X73141457Y-62806676D02*
X73236695Y-62759057D01*
X73236695Y-62759057D02*
X73379552Y-62759057D01*
X73379552Y-62759057D02*
X73474790Y-62806676D01*
X73474790Y-62806676D02*
X73522409Y-62854295D01*
X73522409Y-62854295D02*
X73570028Y-62949533D01*
X73570028Y-62949533D02*
X73570028Y-63330485D01*
X74046219Y-61806676D02*
X74046219Y-62378104D01*
X74046219Y-62092390D02*
X73046219Y-62092390D01*
X73046219Y-62092390D02*
X73189076Y-62187628D01*
X73189076Y-62187628D02*
X73284314Y-62282866D01*
X73284314Y-62282866D02*
X73331933Y-62378104D01*
X73141457Y-61425723D02*
X73093838Y-61378104D01*
X73093838Y-61378104D02*
X73046219Y-61282866D01*
X73046219Y-61282866D02*
X73046219Y-61044771D01*
X73046219Y-61044771D02*
X73093838Y-60949533D01*
X73093838Y-60949533D02*
X73141457Y-60901914D01*
X73141457Y-60901914D02*
X73236695Y-60854295D01*
X73236695Y-60854295D02*
X73331933Y-60854295D01*
X73331933Y-60854295D02*
X73474790Y-60901914D01*
X73474790Y-60901914D02*
X74046219Y-61473342D01*
X74046219Y-61473342D02*
X74046219Y-60854295D01*
X29670476Y-74174819D02*
X29670476Y-74889104D01*
X29670476Y-74889104D02*
X29622857Y-75031961D01*
X29622857Y-75031961D02*
X29527619Y-75127200D01*
X29527619Y-75127200D02*
X29384762Y-75174819D01*
X29384762Y-75174819D02*
X29289524Y-75174819D01*
X30670476Y-75174819D02*
X30099048Y-75174819D01*
X30384762Y-75174819D02*
X30384762Y-74174819D01*
X30384762Y-74174819D02*
X30289524Y-74317676D01*
X30289524Y-74317676D02*
X30194286Y-74412914D01*
X30194286Y-74412914D02*
X30099048Y-74460533D01*
X31051429Y-74270057D02*
X31099048Y-74222438D01*
X31099048Y-74222438D02*
X31194286Y-74174819D01*
X31194286Y-74174819D02*
X31432381Y-74174819D01*
X31432381Y-74174819D02*
X31527619Y-74222438D01*
X31527619Y-74222438D02*
X31575238Y-74270057D01*
X31575238Y-74270057D02*
X31622857Y-74365295D01*
X31622857Y-74365295D02*
X31622857Y-74460533D01*
X31622857Y-74460533D02*
X31575238Y-74603390D01*
X31575238Y-74603390D02*
X31003810Y-75174819D01*
X31003810Y-75174819D02*
X31622857Y-75174819D01*
X38187333Y-35394580D02*
X38139714Y-35442200D01*
X38139714Y-35442200D02*
X37996857Y-35489819D01*
X37996857Y-35489819D02*
X37901619Y-35489819D01*
X37901619Y-35489819D02*
X37758762Y-35442200D01*
X37758762Y-35442200D02*
X37663524Y-35346961D01*
X37663524Y-35346961D02*
X37615905Y-35251723D01*
X37615905Y-35251723D02*
X37568286Y-35061247D01*
X37568286Y-35061247D02*
X37568286Y-34918390D01*
X37568286Y-34918390D02*
X37615905Y-34727914D01*
X37615905Y-34727914D02*
X37663524Y-34632676D01*
X37663524Y-34632676D02*
X37758762Y-34537438D01*
X37758762Y-34537438D02*
X37901619Y-34489819D01*
X37901619Y-34489819D02*
X37996857Y-34489819D01*
X37996857Y-34489819D02*
X38139714Y-34537438D01*
X38139714Y-34537438D02*
X38187333Y-34585057D01*
X39044476Y-34823152D02*
X39044476Y-35489819D01*
X38806381Y-34442200D02*
X38568286Y-35156485D01*
X38568286Y-35156485D02*
X39187333Y-35156485D01*
X71237019Y-56967857D02*
X70760828Y-57301190D01*
X71237019Y-57539285D02*
X70237019Y-57539285D01*
X70237019Y-57539285D02*
X70237019Y-57158333D01*
X70237019Y-57158333D02*
X70284638Y-57063095D01*
X70284638Y-57063095D02*
X70332257Y-57015476D01*
X70332257Y-57015476D02*
X70427495Y-56967857D01*
X70427495Y-56967857D02*
X70570352Y-56967857D01*
X70570352Y-56967857D02*
X70665590Y-57015476D01*
X70665590Y-57015476D02*
X70713209Y-57063095D01*
X70713209Y-57063095D02*
X70760828Y-57158333D01*
X70760828Y-57158333D02*
X70760828Y-57539285D01*
X71237019Y-56015476D02*
X71237019Y-56586904D01*
X71237019Y-56301190D02*
X70237019Y-56301190D01*
X70237019Y-56301190D02*
X70379876Y-56396428D01*
X70379876Y-56396428D02*
X70475114Y-56491666D01*
X70475114Y-56491666D02*
X70522733Y-56586904D01*
X70237019Y-55682142D02*
X70237019Y-55063095D01*
X70237019Y-55063095D02*
X70617971Y-55396428D01*
X70617971Y-55396428D02*
X70617971Y-55253571D01*
X70617971Y-55253571D02*
X70665590Y-55158333D01*
X70665590Y-55158333D02*
X70713209Y-55110714D01*
X70713209Y-55110714D02*
X70808447Y-55063095D01*
X70808447Y-55063095D02*
X71046542Y-55063095D01*
X71046542Y-55063095D02*
X71141780Y-55110714D01*
X71141780Y-55110714D02*
X71189400Y-55158333D01*
X71189400Y-55158333D02*
X71237019Y-55253571D01*
X71237019Y-55253571D02*
X71237019Y-55539285D01*
X71237019Y-55539285D02*
X71189400Y-55634523D01*
X71189400Y-55634523D02*
X71141780Y-55682142D01*
X36836819Y-54308333D02*
X37551104Y-54308333D01*
X37551104Y-54308333D02*
X37693961Y-54355952D01*
X37693961Y-54355952D02*
X37789200Y-54451190D01*
X37789200Y-54451190D02*
X37836819Y-54594047D01*
X37836819Y-54594047D02*
X37836819Y-54689285D01*
X37836819Y-53784523D02*
X37836819Y-53594047D01*
X37836819Y-53594047D02*
X37789200Y-53498809D01*
X37789200Y-53498809D02*
X37741580Y-53451190D01*
X37741580Y-53451190D02*
X37598723Y-53355952D01*
X37598723Y-53355952D02*
X37408247Y-53308333D01*
X37408247Y-53308333D02*
X37027295Y-53308333D01*
X37027295Y-53308333D02*
X36932057Y-53355952D01*
X36932057Y-53355952D02*
X36884438Y-53403571D01*
X36884438Y-53403571D02*
X36836819Y-53498809D01*
X36836819Y-53498809D02*
X36836819Y-53689285D01*
X36836819Y-53689285D02*
X36884438Y-53784523D01*
X36884438Y-53784523D02*
X36932057Y-53832142D01*
X36932057Y-53832142D02*
X37027295Y-53879761D01*
X37027295Y-53879761D02*
X37265390Y-53879761D01*
X37265390Y-53879761D02*
X37360628Y-53832142D01*
X37360628Y-53832142D02*
X37408247Y-53784523D01*
X37408247Y-53784523D02*
X37455866Y-53689285D01*
X37455866Y-53689285D02*
X37455866Y-53498809D01*
X37455866Y-53498809D02*
X37408247Y-53403571D01*
X37408247Y-53403571D02*
X37360628Y-53355952D01*
X37360628Y-53355952D02*
X37265390Y-53308333D01*
X57360333Y-59255819D02*
X57027000Y-58779628D01*
X56788905Y-59255819D02*
X56788905Y-58255819D01*
X56788905Y-58255819D02*
X57169857Y-58255819D01*
X57169857Y-58255819D02*
X57265095Y-58303438D01*
X57265095Y-58303438D02*
X57312714Y-58351057D01*
X57312714Y-58351057D02*
X57360333Y-58446295D01*
X57360333Y-58446295D02*
X57360333Y-58589152D01*
X57360333Y-58589152D02*
X57312714Y-58684390D01*
X57312714Y-58684390D02*
X57265095Y-58732009D01*
X57265095Y-58732009D02*
X57169857Y-58779628D01*
X57169857Y-58779628D02*
X56788905Y-58779628D01*
X58265095Y-58255819D02*
X57788905Y-58255819D01*
X57788905Y-58255819D02*
X57741286Y-58732009D01*
X57741286Y-58732009D02*
X57788905Y-58684390D01*
X57788905Y-58684390D02*
X57884143Y-58636771D01*
X57884143Y-58636771D02*
X58122238Y-58636771D01*
X58122238Y-58636771D02*
X58217476Y-58684390D01*
X58217476Y-58684390D02*
X58265095Y-58732009D01*
X58265095Y-58732009D02*
X58312714Y-58827247D01*
X58312714Y-58827247D02*
X58312714Y-59065342D01*
X58312714Y-59065342D02*
X58265095Y-59160580D01*
X58265095Y-59160580D02*
X58217476Y-59208200D01*
X58217476Y-59208200D02*
X58122238Y-59255819D01*
X58122238Y-59255819D02*
X57884143Y-59255819D01*
X57884143Y-59255819D02*
X57788905Y-59208200D01*
X57788905Y-59208200D02*
X57741286Y-59160580D01*
X70759580Y-59977257D02*
X70807200Y-60024876D01*
X70807200Y-60024876D02*
X70854819Y-60167733D01*
X70854819Y-60167733D02*
X70854819Y-60262971D01*
X70854819Y-60262971D02*
X70807200Y-60405828D01*
X70807200Y-60405828D02*
X70711961Y-60501066D01*
X70711961Y-60501066D02*
X70616723Y-60548685D01*
X70616723Y-60548685D02*
X70426247Y-60596304D01*
X70426247Y-60596304D02*
X70283390Y-60596304D01*
X70283390Y-60596304D02*
X70092914Y-60548685D01*
X70092914Y-60548685D02*
X69997676Y-60501066D01*
X69997676Y-60501066D02*
X69902438Y-60405828D01*
X69902438Y-60405828D02*
X69854819Y-60262971D01*
X69854819Y-60262971D02*
X69854819Y-60167733D01*
X69854819Y-60167733D02*
X69902438Y-60024876D01*
X69902438Y-60024876D02*
X69950057Y-59977257D01*
X69950057Y-59596304D02*
X69902438Y-59548685D01*
X69902438Y-59548685D02*
X69854819Y-59453447D01*
X69854819Y-59453447D02*
X69854819Y-59215352D01*
X69854819Y-59215352D02*
X69902438Y-59120114D01*
X69902438Y-59120114D02*
X69950057Y-59072495D01*
X69950057Y-59072495D02*
X70045295Y-59024876D01*
X70045295Y-59024876D02*
X70140533Y-59024876D01*
X70140533Y-59024876D02*
X70283390Y-59072495D01*
X70283390Y-59072495D02*
X70854819Y-59643923D01*
X70854819Y-59643923D02*
X70854819Y-59024876D01*
X69854819Y-58691542D02*
X69854819Y-58072495D01*
X69854819Y-58072495D02*
X70235771Y-58405828D01*
X70235771Y-58405828D02*
X70235771Y-58262971D01*
X70235771Y-58262971D02*
X70283390Y-58167733D01*
X70283390Y-58167733D02*
X70331009Y-58120114D01*
X70331009Y-58120114D02*
X70426247Y-58072495D01*
X70426247Y-58072495D02*
X70664342Y-58072495D01*
X70664342Y-58072495D02*
X70759580Y-58120114D01*
X70759580Y-58120114D02*
X70807200Y-58167733D01*
X70807200Y-58167733D02*
X70854819Y-58262971D01*
X70854819Y-58262971D02*
X70854819Y-58548685D01*
X70854819Y-58548685D02*
X70807200Y-58643923D01*
X70807200Y-58643923D02*
X70759580Y-58691542D01*
X45692819Y-54809666D02*
X45216628Y-55142999D01*
X45692819Y-55381094D02*
X44692819Y-55381094D01*
X44692819Y-55381094D02*
X44692819Y-55000142D01*
X44692819Y-55000142D02*
X44740438Y-54904904D01*
X44740438Y-54904904D02*
X44788057Y-54857285D01*
X44788057Y-54857285D02*
X44883295Y-54809666D01*
X44883295Y-54809666D02*
X45026152Y-54809666D01*
X45026152Y-54809666D02*
X45121390Y-54857285D01*
X45121390Y-54857285D02*
X45169009Y-54904904D01*
X45169009Y-54904904D02*
X45216628Y-55000142D01*
X45216628Y-55000142D02*
X45216628Y-55381094D01*
X45692819Y-53857285D02*
X45692819Y-54428713D01*
X45692819Y-54142999D02*
X44692819Y-54142999D01*
X44692819Y-54142999D02*
X44835676Y-54238237D01*
X44835676Y-54238237D02*
X44930914Y-54333475D01*
X44930914Y-54333475D02*
X44978533Y-54428713D01*
X70286142Y-52237819D02*
X69952809Y-51761628D01*
X69714714Y-52237819D02*
X69714714Y-51237819D01*
X69714714Y-51237819D02*
X70095666Y-51237819D01*
X70095666Y-51237819D02*
X70190904Y-51285438D01*
X70190904Y-51285438D02*
X70238523Y-51333057D01*
X70238523Y-51333057D02*
X70286142Y-51428295D01*
X70286142Y-51428295D02*
X70286142Y-51571152D01*
X70286142Y-51571152D02*
X70238523Y-51666390D01*
X70238523Y-51666390D02*
X70190904Y-51714009D01*
X70190904Y-51714009D02*
X70095666Y-51761628D01*
X70095666Y-51761628D02*
X69714714Y-51761628D01*
X71238523Y-52237819D02*
X70667095Y-52237819D01*
X70952809Y-52237819D02*
X70952809Y-51237819D01*
X70952809Y-51237819D02*
X70857571Y-51380676D01*
X70857571Y-51380676D02*
X70762333Y-51475914D01*
X70762333Y-51475914D02*
X70667095Y-51523533D01*
X72190904Y-52237819D02*
X71619476Y-52237819D01*
X71905190Y-52237819D02*
X71905190Y-51237819D01*
X71905190Y-51237819D02*
X71809952Y-51380676D01*
X71809952Y-51380676D02*
X71714714Y-51475914D01*
X71714714Y-51475914D02*
X71619476Y-51523533D01*
X29851819Y-60277333D02*
X30566104Y-60277333D01*
X30566104Y-60277333D02*
X30708961Y-60324952D01*
X30708961Y-60324952D02*
X30804200Y-60420190D01*
X30804200Y-60420190D02*
X30851819Y-60563047D01*
X30851819Y-60563047D02*
X30851819Y-60658285D01*
X29851819Y-59896380D02*
X29851819Y-59229714D01*
X29851819Y-59229714D02*
X30851819Y-59658285D01*
X46825819Y-51736523D02*
X47540104Y-51736523D01*
X47540104Y-51736523D02*
X47682961Y-51784142D01*
X47682961Y-51784142D02*
X47778200Y-51879380D01*
X47778200Y-51879380D02*
X47825819Y-52022237D01*
X47825819Y-52022237D02*
X47825819Y-52117475D01*
X47825819Y-50736523D02*
X47825819Y-51307951D01*
X47825819Y-51022237D02*
X46825819Y-51022237D01*
X46825819Y-51022237D02*
X46968676Y-51117475D01*
X46968676Y-51117475D02*
X47063914Y-51212713D01*
X47063914Y-51212713D02*
X47111533Y-51307951D01*
X47159152Y-49879380D02*
X47825819Y-49879380D01*
X46778200Y-50117475D02*
X47492485Y-50355570D01*
X47492485Y-50355570D02*
X47492485Y-49736523D01*
X48001580Y-79128857D02*
X48049200Y-79176476D01*
X48049200Y-79176476D02*
X48096819Y-79319333D01*
X48096819Y-79319333D02*
X48096819Y-79414571D01*
X48096819Y-79414571D02*
X48049200Y-79557428D01*
X48049200Y-79557428D02*
X47953961Y-79652666D01*
X47953961Y-79652666D02*
X47858723Y-79700285D01*
X47858723Y-79700285D02*
X47668247Y-79747904D01*
X47668247Y-79747904D02*
X47525390Y-79747904D01*
X47525390Y-79747904D02*
X47334914Y-79700285D01*
X47334914Y-79700285D02*
X47239676Y-79652666D01*
X47239676Y-79652666D02*
X47144438Y-79557428D01*
X47144438Y-79557428D02*
X47096819Y-79414571D01*
X47096819Y-79414571D02*
X47096819Y-79319333D01*
X47096819Y-79319333D02*
X47144438Y-79176476D01*
X47144438Y-79176476D02*
X47192057Y-79128857D01*
X48096819Y-78176476D02*
X48096819Y-78747904D01*
X48096819Y-78462190D02*
X47096819Y-78462190D01*
X47096819Y-78462190D02*
X47239676Y-78557428D01*
X47239676Y-78557428D02*
X47334914Y-78652666D01*
X47334914Y-78652666D02*
X47382533Y-78747904D01*
X48096819Y-77224095D02*
X48096819Y-77795523D01*
X48096819Y-77509809D02*
X47096819Y-77509809D01*
X47096819Y-77509809D02*
X47239676Y-77605047D01*
X47239676Y-77605047D02*
X47334914Y-77700285D01*
X47334914Y-77700285D02*
X47382533Y-77795523D01*
X27039333Y-38095580D02*
X26991714Y-38143200D01*
X26991714Y-38143200D02*
X26848857Y-38190819D01*
X26848857Y-38190819D02*
X26753619Y-38190819D01*
X26753619Y-38190819D02*
X26610762Y-38143200D01*
X26610762Y-38143200D02*
X26515524Y-38047961D01*
X26515524Y-38047961D02*
X26467905Y-37952723D01*
X26467905Y-37952723D02*
X26420286Y-37762247D01*
X26420286Y-37762247D02*
X26420286Y-37619390D01*
X26420286Y-37619390D02*
X26467905Y-37428914D01*
X26467905Y-37428914D02*
X26515524Y-37333676D01*
X26515524Y-37333676D02*
X26610762Y-37238438D01*
X26610762Y-37238438D02*
X26753619Y-37190819D01*
X26753619Y-37190819D02*
X26848857Y-37190819D01*
X26848857Y-37190819D02*
X26991714Y-37238438D01*
X26991714Y-37238438D02*
X27039333Y-37286057D01*
X27944095Y-37190819D02*
X27467905Y-37190819D01*
X27467905Y-37190819D02*
X27420286Y-37667009D01*
X27420286Y-37667009D02*
X27467905Y-37619390D01*
X27467905Y-37619390D02*
X27563143Y-37571771D01*
X27563143Y-37571771D02*
X27801238Y-37571771D01*
X27801238Y-37571771D02*
X27896476Y-37619390D01*
X27896476Y-37619390D02*
X27944095Y-37667009D01*
X27944095Y-37667009D02*
X27991714Y-37762247D01*
X27991714Y-37762247D02*
X27991714Y-38000342D01*
X27991714Y-38000342D02*
X27944095Y-38095580D01*
X27944095Y-38095580D02*
X27896476Y-38143200D01*
X27896476Y-38143200D02*
X27801238Y-38190819D01*
X27801238Y-38190819D02*
X27563143Y-38190819D01*
X27563143Y-38190819D02*
X27467905Y-38143200D01*
X27467905Y-38143200D02*
X27420286Y-38095580D01*
X61945666Y-49847819D02*
X61945666Y-50562104D01*
X61945666Y-50562104D02*
X61898047Y-50704961D01*
X61898047Y-50704961D02*
X61802809Y-50800200D01*
X61802809Y-50800200D02*
X61659952Y-50847819D01*
X61659952Y-50847819D02*
X61564714Y-50847819D01*
X62898047Y-49847819D02*
X62421857Y-49847819D01*
X62421857Y-49847819D02*
X62374238Y-50324009D01*
X62374238Y-50324009D02*
X62421857Y-50276390D01*
X62421857Y-50276390D02*
X62517095Y-50228771D01*
X62517095Y-50228771D02*
X62755190Y-50228771D01*
X62755190Y-50228771D02*
X62850428Y-50276390D01*
X62850428Y-50276390D02*
X62898047Y-50324009D01*
X62898047Y-50324009D02*
X62945666Y-50419247D01*
X62945666Y-50419247D02*
X62945666Y-50657342D01*
X62945666Y-50657342D02*
X62898047Y-50752580D01*
X62898047Y-50752580D02*
X62850428Y-50800200D01*
X62850428Y-50800200D02*
X62755190Y-50847819D01*
X62755190Y-50847819D02*
X62517095Y-50847819D01*
X62517095Y-50847819D02*
X62421857Y-50800200D01*
X62421857Y-50800200D02*
X62374238Y-50752580D01*
X49984819Y-49696666D02*
X49508628Y-50029999D01*
X49984819Y-50268094D02*
X48984819Y-50268094D01*
X48984819Y-50268094D02*
X48984819Y-49887142D01*
X48984819Y-49887142D02*
X49032438Y-49791904D01*
X49032438Y-49791904D02*
X49080057Y-49744285D01*
X49080057Y-49744285D02*
X49175295Y-49696666D01*
X49175295Y-49696666D02*
X49318152Y-49696666D01*
X49318152Y-49696666D02*
X49413390Y-49744285D01*
X49413390Y-49744285D02*
X49461009Y-49791904D01*
X49461009Y-49791904D02*
X49508628Y-49887142D01*
X49508628Y-49887142D02*
X49508628Y-50268094D01*
X49984819Y-49220475D02*
X49984819Y-49029999D01*
X49984819Y-49029999D02*
X49937200Y-48934761D01*
X49937200Y-48934761D02*
X49889580Y-48887142D01*
X49889580Y-48887142D02*
X49746723Y-48791904D01*
X49746723Y-48791904D02*
X49556247Y-48744285D01*
X49556247Y-48744285D02*
X49175295Y-48744285D01*
X49175295Y-48744285D02*
X49080057Y-48791904D01*
X49080057Y-48791904D02*
X49032438Y-48839523D01*
X49032438Y-48839523D02*
X48984819Y-48934761D01*
X48984819Y-48934761D02*
X48984819Y-49125237D01*
X48984819Y-49125237D02*
X49032438Y-49220475D01*
X49032438Y-49220475D02*
X49080057Y-49268094D01*
X49080057Y-49268094D02*
X49175295Y-49315713D01*
X49175295Y-49315713D02*
X49413390Y-49315713D01*
X49413390Y-49315713D02*
X49508628Y-49268094D01*
X49508628Y-49268094D02*
X49556247Y-49220475D01*
X49556247Y-49220475D02*
X49603866Y-49125237D01*
X49603866Y-49125237D02*
X49603866Y-48934761D01*
X49603866Y-48934761D02*
X49556247Y-48839523D01*
X49556247Y-48839523D02*
X49508628Y-48791904D01*
X49508628Y-48791904D02*
X49413390Y-48744285D01*
X36974542Y-47645980D02*
X36926923Y-47693600D01*
X36926923Y-47693600D02*
X36784066Y-47741219D01*
X36784066Y-47741219D02*
X36688828Y-47741219D01*
X36688828Y-47741219D02*
X36545971Y-47693600D01*
X36545971Y-47693600D02*
X36450733Y-47598361D01*
X36450733Y-47598361D02*
X36403114Y-47503123D01*
X36403114Y-47503123D02*
X36355495Y-47312647D01*
X36355495Y-47312647D02*
X36355495Y-47169790D01*
X36355495Y-47169790D02*
X36403114Y-46979314D01*
X36403114Y-46979314D02*
X36450733Y-46884076D01*
X36450733Y-46884076D02*
X36545971Y-46788838D01*
X36545971Y-46788838D02*
X36688828Y-46741219D01*
X36688828Y-46741219D02*
X36784066Y-46741219D01*
X36784066Y-46741219D02*
X36926923Y-46788838D01*
X36926923Y-46788838D02*
X36974542Y-46836457D01*
X37926923Y-47741219D02*
X37355495Y-47741219D01*
X37641209Y-47741219D02*
X37641209Y-46741219D01*
X37641209Y-46741219D02*
X37545971Y-46884076D01*
X37545971Y-46884076D02*
X37450733Y-46979314D01*
X37450733Y-46979314D02*
X37355495Y-47026933D01*
X38784066Y-46741219D02*
X38593590Y-46741219D01*
X38593590Y-46741219D02*
X38498352Y-46788838D01*
X38498352Y-46788838D02*
X38450733Y-46836457D01*
X38450733Y-46836457D02*
X38355495Y-46979314D01*
X38355495Y-46979314D02*
X38307876Y-47169790D01*
X38307876Y-47169790D02*
X38307876Y-47550742D01*
X38307876Y-47550742D02*
X38355495Y-47645980D01*
X38355495Y-47645980D02*
X38403114Y-47693600D01*
X38403114Y-47693600D02*
X38498352Y-47741219D01*
X38498352Y-47741219D02*
X38688828Y-47741219D01*
X38688828Y-47741219D02*
X38784066Y-47693600D01*
X38784066Y-47693600D02*
X38831685Y-47645980D01*
X38831685Y-47645980D02*
X38879304Y-47550742D01*
X38879304Y-47550742D02*
X38879304Y-47312647D01*
X38879304Y-47312647D02*
X38831685Y-47217409D01*
X38831685Y-47217409D02*
X38784066Y-47169790D01*
X38784066Y-47169790D02*
X38688828Y-47122171D01*
X38688828Y-47122171D02*
X38498352Y-47122171D01*
X38498352Y-47122171D02*
X38403114Y-47169790D01*
X38403114Y-47169790D02*
X38355495Y-47217409D01*
X38355495Y-47217409D02*
X38307876Y-47312647D01*
X42384819Y-56331666D02*
X41908628Y-56664999D01*
X42384819Y-56903094D02*
X41384819Y-56903094D01*
X41384819Y-56903094D02*
X41384819Y-56522142D01*
X41384819Y-56522142D02*
X41432438Y-56426904D01*
X41432438Y-56426904D02*
X41480057Y-56379285D01*
X41480057Y-56379285D02*
X41575295Y-56331666D01*
X41575295Y-56331666D02*
X41718152Y-56331666D01*
X41718152Y-56331666D02*
X41813390Y-56379285D01*
X41813390Y-56379285D02*
X41861009Y-56426904D01*
X41861009Y-56426904D02*
X41908628Y-56522142D01*
X41908628Y-56522142D02*
X41908628Y-56903094D01*
X41384819Y-55998332D02*
X41384819Y-55379285D01*
X41384819Y-55379285D02*
X41765771Y-55712618D01*
X41765771Y-55712618D02*
X41765771Y-55569761D01*
X41765771Y-55569761D02*
X41813390Y-55474523D01*
X41813390Y-55474523D02*
X41861009Y-55426904D01*
X41861009Y-55426904D02*
X41956247Y-55379285D01*
X41956247Y-55379285D02*
X42194342Y-55379285D01*
X42194342Y-55379285D02*
X42289580Y-55426904D01*
X42289580Y-55426904D02*
X42337200Y-55474523D01*
X42337200Y-55474523D02*
X42384819Y-55569761D01*
X42384819Y-55569761D02*
X42384819Y-55855475D01*
X42384819Y-55855475D02*
X42337200Y-55950713D01*
X42337200Y-55950713D02*
X42289580Y-55998332D01*
X60616780Y-73087466D02*
X60664400Y-73135085D01*
X60664400Y-73135085D02*
X60712019Y-73277942D01*
X60712019Y-73277942D02*
X60712019Y-73373180D01*
X60712019Y-73373180D02*
X60664400Y-73516037D01*
X60664400Y-73516037D02*
X60569161Y-73611275D01*
X60569161Y-73611275D02*
X60473923Y-73658894D01*
X60473923Y-73658894D02*
X60283447Y-73706513D01*
X60283447Y-73706513D02*
X60140590Y-73706513D01*
X60140590Y-73706513D02*
X59950114Y-73658894D01*
X59950114Y-73658894D02*
X59854876Y-73611275D01*
X59854876Y-73611275D02*
X59759638Y-73516037D01*
X59759638Y-73516037D02*
X59712019Y-73373180D01*
X59712019Y-73373180D02*
X59712019Y-73277942D01*
X59712019Y-73277942D02*
X59759638Y-73135085D01*
X59759638Y-73135085D02*
X59807257Y-73087466D01*
X59712019Y-72230323D02*
X59712019Y-72420799D01*
X59712019Y-72420799D02*
X59759638Y-72516037D01*
X59759638Y-72516037D02*
X59807257Y-72563656D01*
X59807257Y-72563656D02*
X59950114Y-72658894D01*
X59950114Y-72658894D02*
X60140590Y-72706513D01*
X60140590Y-72706513D02*
X60521542Y-72706513D01*
X60521542Y-72706513D02*
X60616780Y-72658894D01*
X60616780Y-72658894D02*
X60664400Y-72611275D01*
X60664400Y-72611275D02*
X60712019Y-72516037D01*
X60712019Y-72516037D02*
X60712019Y-72325561D01*
X60712019Y-72325561D02*
X60664400Y-72230323D01*
X60664400Y-72230323D02*
X60616780Y-72182704D01*
X60616780Y-72182704D02*
X60521542Y-72135085D01*
X60521542Y-72135085D02*
X60283447Y-72135085D01*
X60283447Y-72135085D02*
X60188209Y-72182704D01*
X60188209Y-72182704D02*
X60140590Y-72230323D01*
X60140590Y-72230323D02*
X60092971Y-72325561D01*
X60092971Y-72325561D02*
X60092971Y-72516037D01*
X60092971Y-72516037D02*
X60140590Y-72611275D01*
X60140590Y-72611275D02*
X60188209Y-72658894D01*
X60188209Y-72658894D02*
X60283447Y-72706513D01*
X34393179Y-34131345D02*
X33583656Y-34131345D01*
X33583656Y-34131345D02*
X33488418Y-34178964D01*
X33488418Y-34178964D02*
X33440799Y-34226583D01*
X33440799Y-34226583D02*
X33393179Y-34321821D01*
X33393179Y-34321821D02*
X33393179Y-34512297D01*
X33393179Y-34512297D02*
X33440799Y-34607535D01*
X33440799Y-34607535D02*
X33488418Y-34655154D01*
X33488418Y-34655154D02*
X33583656Y-34702773D01*
X33583656Y-34702773D02*
X34393179Y-34702773D01*
X33393179Y-35702773D02*
X33393179Y-35131345D01*
X33393179Y-35417059D02*
X34393179Y-35417059D01*
X34393179Y-35417059D02*
X34250322Y-35321821D01*
X34250322Y-35321821D02*
X34155084Y-35226583D01*
X34155084Y-35226583D02*
X34107465Y-35131345D01*
X36345180Y-32200000D02*
X36107085Y-32200000D01*
X36202323Y-31961905D02*
X36107085Y-32200000D01*
X36107085Y-32200000D02*
X36202323Y-32438095D01*
X35916609Y-32057143D02*
X36107085Y-32200000D01*
X36107085Y-32200000D02*
X35916609Y-32342857D01*
X36994179Y-32800000D02*
X36756084Y-32800000D01*
X36851322Y-32561905D02*
X36756084Y-32800000D01*
X36756084Y-32800000D02*
X36851322Y-33038095D01*
X36565608Y-32657143D02*
X36756084Y-32800000D01*
X36756084Y-32800000D02*
X36565608Y-32942857D01*
X62936780Y-75607266D02*
X62984400Y-75654885D01*
X62984400Y-75654885D02*
X63032019Y-75797742D01*
X63032019Y-75797742D02*
X63032019Y-75892980D01*
X63032019Y-75892980D02*
X62984400Y-76035837D01*
X62984400Y-76035837D02*
X62889161Y-76131075D01*
X62889161Y-76131075D02*
X62793923Y-76178694D01*
X62793923Y-76178694D02*
X62603447Y-76226313D01*
X62603447Y-76226313D02*
X62460590Y-76226313D01*
X62460590Y-76226313D02*
X62270114Y-76178694D01*
X62270114Y-76178694D02*
X62174876Y-76131075D01*
X62174876Y-76131075D02*
X62079638Y-76035837D01*
X62079638Y-76035837D02*
X62032019Y-75892980D01*
X62032019Y-75892980D02*
X62032019Y-75797742D01*
X62032019Y-75797742D02*
X62079638Y-75654885D01*
X62079638Y-75654885D02*
X62127257Y-75607266D01*
X63032019Y-75131075D02*
X63032019Y-74940599D01*
X63032019Y-74940599D02*
X62984400Y-74845361D01*
X62984400Y-74845361D02*
X62936780Y-74797742D01*
X62936780Y-74797742D02*
X62793923Y-74702504D01*
X62793923Y-74702504D02*
X62603447Y-74654885D01*
X62603447Y-74654885D02*
X62222495Y-74654885D01*
X62222495Y-74654885D02*
X62127257Y-74702504D01*
X62127257Y-74702504D02*
X62079638Y-74750123D01*
X62079638Y-74750123D02*
X62032019Y-74845361D01*
X62032019Y-74845361D02*
X62032019Y-75035837D01*
X62032019Y-75035837D02*
X62079638Y-75131075D01*
X62079638Y-75131075D02*
X62127257Y-75178694D01*
X62127257Y-75178694D02*
X62222495Y-75226313D01*
X62222495Y-75226313D02*
X62460590Y-75226313D01*
X62460590Y-75226313D02*
X62555828Y-75178694D01*
X62555828Y-75178694D02*
X62603447Y-75131075D01*
X62603447Y-75131075D02*
X62651066Y-75035837D01*
X62651066Y-75035837D02*
X62651066Y-74845361D01*
X62651066Y-74845361D02*
X62603447Y-74750123D01*
X62603447Y-74750123D02*
X62555828Y-74702504D01*
X62555828Y-74702504D02*
X62460590Y-74654885D01*
X64616105Y-68171219D02*
X64616105Y-67171219D01*
X64616105Y-67171219D02*
X64854200Y-67171219D01*
X64854200Y-67171219D02*
X64997057Y-67218838D01*
X64997057Y-67218838D02*
X65092295Y-67314076D01*
X65092295Y-67314076D02*
X65139914Y-67409314D01*
X65139914Y-67409314D02*
X65187533Y-67599790D01*
X65187533Y-67599790D02*
X65187533Y-67742647D01*
X65187533Y-67742647D02*
X65139914Y-67933123D01*
X65139914Y-67933123D02*
X65092295Y-68028361D01*
X65092295Y-68028361D02*
X64997057Y-68123600D01*
X64997057Y-68123600D02*
X64854200Y-68171219D01*
X64854200Y-68171219D02*
X64616105Y-68171219D01*
X66139914Y-68171219D02*
X65568486Y-68171219D01*
X65854200Y-68171219D02*
X65854200Y-67171219D01*
X65854200Y-67171219D02*
X65758962Y-67314076D01*
X65758962Y-67314076D02*
X65663724Y-67409314D01*
X65663724Y-67409314D02*
X65568486Y-67456933D01*
X38061580Y-30547666D02*
X38109200Y-30595285D01*
X38109200Y-30595285D02*
X38156819Y-30738142D01*
X38156819Y-30738142D02*
X38156819Y-30833380D01*
X38156819Y-30833380D02*
X38109200Y-30976237D01*
X38109200Y-30976237D02*
X38013961Y-31071475D01*
X38013961Y-31071475D02*
X37918723Y-31119094D01*
X37918723Y-31119094D02*
X37728247Y-31166713D01*
X37728247Y-31166713D02*
X37585390Y-31166713D01*
X37585390Y-31166713D02*
X37394914Y-31119094D01*
X37394914Y-31119094D02*
X37299676Y-31071475D01*
X37299676Y-31071475D02*
X37204438Y-30976237D01*
X37204438Y-30976237D02*
X37156819Y-30833380D01*
X37156819Y-30833380D02*
X37156819Y-30738142D01*
X37156819Y-30738142D02*
X37204438Y-30595285D01*
X37204438Y-30595285D02*
X37252057Y-30547666D01*
X38156819Y-29595285D02*
X38156819Y-30166713D01*
X38156819Y-29880999D02*
X37156819Y-29880999D01*
X37156819Y-29880999D02*
X37299676Y-29976237D01*
X37299676Y-29976237D02*
X37394914Y-30071475D01*
X37394914Y-30071475D02*
X37442533Y-30166713D01*
X64635142Y-44555580D02*
X64587523Y-44603200D01*
X64587523Y-44603200D02*
X64444666Y-44650819D01*
X64444666Y-44650819D02*
X64349428Y-44650819D01*
X64349428Y-44650819D02*
X64206571Y-44603200D01*
X64206571Y-44603200D02*
X64111333Y-44507961D01*
X64111333Y-44507961D02*
X64063714Y-44412723D01*
X64063714Y-44412723D02*
X64016095Y-44222247D01*
X64016095Y-44222247D02*
X64016095Y-44079390D01*
X64016095Y-44079390D02*
X64063714Y-43888914D01*
X64063714Y-43888914D02*
X64111333Y-43793676D01*
X64111333Y-43793676D02*
X64206571Y-43698438D01*
X64206571Y-43698438D02*
X64349428Y-43650819D01*
X64349428Y-43650819D02*
X64444666Y-43650819D01*
X64444666Y-43650819D02*
X64587523Y-43698438D01*
X64587523Y-43698438D02*
X64635142Y-43746057D01*
X65016095Y-43746057D02*
X65063714Y-43698438D01*
X65063714Y-43698438D02*
X65158952Y-43650819D01*
X65158952Y-43650819D02*
X65397047Y-43650819D01*
X65397047Y-43650819D02*
X65492285Y-43698438D01*
X65492285Y-43698438D02*
X65539904Y-43746057D01*
X65539904Y-43746057D02*
X65587523Y-43841295D01*
X65587523Y-43841295D02*
X65587523Y-43936533D01*
X65587523Y-43936533D02*
X65539904Y-44079390D01*
X65539904Y-44079390D02*
X64968476Y-44650819D01*
X64968476Y-44650819D02*
X65587523Y-44650819D01*
X66539904Y-44650819D02*
X65968476Y-44650819D01*
X66254190Y-44650819D02*
X66254190Y-43650819D01*
X66254190Y-43650819D02*
X66158952Y-43793676D01*
X66158952Y-43793676D02*
X66063714Y-43888914D01*
X66063714Y-43888914D02*
X65968476Y-43936533D01*
X53953580Y-46108857D02*
X54001200Y-46156476D01*
X54001200Y-46156476D02*
X54048819Y-46299333D01*
X54048819Y-46299333D02*
X54048819Y-46394571D01*
X54048819Y-46394571D02*
X54001200Y-46537428D01*
X54001200Y-46537428D02*
X53905961Y-46632666D01*
X53905961Y-46632666D02*
X53810723Y-46680285D01*
X53810723Y-46680285D02*
X53620247Y-46727904D01*
X53620247Y-46727904D02*
X53477390Y-46727904D01*
X53477390Y-46727904D02*
X53286914Y-46680285D01*
X53286914Y-46680285D02*
X53191676Y-46632666D01*
X53191676Y-46632666D02*
X53096438Y-46537428D01*
X53096438Y-46537428D02*
X53048819Y-46394571D01*
X53048819Y-46394571D02*
X53048819Y-46299333D01*
X53048819Y-46299333D02*
X53096438Y-46156476D01*
X53096438Y-46156476D02*
X53144057Y-46108857D01*
X54048819Y-45156476D02*
X54048819Y-45727904D01*
X54048819Y-45442190D02*
X53048819Y-45442190D01*
X53048819Y-45442190D02*
X53191676Y-45537428D01*
X53191676Y-45537428D02*
X53286914Y-45632666D01*
X53286914Y-45632666D02*
X53334533Y-45727904D01*
X54048819Y-44680285D02*
X54048819Y-44489809D01*
X54048819Y-44489809D02*
X54001200Y-44394571D01*
X54001200Y-44394571D02*
X53953580Y-44346952D01*
X53953580Y-44346952D02*
X53810723Y-44251714D01*
X53810723Y-44251714D02*
X53620247Y-44204095D01*
X53620247Y-44204095D02*
X53239295Y-44204095D01*
X53239295Y-44204095D02*
X53144057Y-44251714D01*
X53144057Y-44251714D02*
X53096438Y-44299333D01*
X53096438Y-44299333D02*
X53048819Y-44394571D01*
X53048819Y-44394571D02*
X53048819Y-44585047D01*
X53048819Y-44585047D02*
X53096438Y-44680285D01*
X53096438Y-44680285D02*
X53144057Y-44727904D01*
X53144057Y-44727904D02*
X53239295Y-44775523D01*
X53239295Y-44775523D02*
X53477390Y-44775523D01*
X53477390Y-44775523D02*
X53572628Y-44727904D01*
X53572628Y-44727904D02*
X53620247Y-44680285D01*
X53620247Y-44680285D02*
X53667866Y-44585047D01*
X53667866Y-44585047D02*
X53667866Y-44394571D01*
X53667866Y-44394571D02*
X53620247Y-44299333D01*
X53620247Y-44299333D02*
X53572628Y-44251714D01*
X53572628Y-44251714D02*
X53477390Y-44204095D01*
X77989580Y-60701457D02*
X78037200Y-60749076D01*
X78037200Y-60749076D02*
X78084819Y-60891933D01*
X78084819Y-60891933D02*
X78084819Y-60987171D01*
X78084819Y-60987171D02*
X78037200Y-61130028D01*
X78037200Y-61130028D02*
X77941961Y-61225266D01*
X77941961Y-61225266D02*
X77846723Y-61272885D01*
X77846723Y-61272885D02*
X77656247Y-61320504D01*
X77656247Y-61320504D02*
X77513390Y-61320504D01*
X77513390Y-61320504D02*
X77322914Y-61272885D01*
X77322914Y-61272885D02*
X77227676Y-61225266D01*
X77227676Y-61225266D02*
X77132438Y-61130028D01*
X77132438Y-61130028D02*
X77084819Y-60987171D01*
X77084819Y-60987171D02*
X77084819Y-60891933D01*
X77084819Y-60891933D02*
X77132438Y-60749076D01*
X77132438Y-60749076D02*
X77180057Y-60701457D01*
X77180057Y-60320504D02*
X77132438Y-60272885D01*
X77132438Y-60272885D02*
X77084819Y-60177647D01*
X77084819Y-60177647D02*
X77084819Y-59939552D01*
X77084819Y-59939552D02*
X77132438Y-59844314D01*
X77132438Y-59844314D02*
X77180057Y-59796695D01*
X77180057Y-59796695D02*
X77275295Y-59749076D01*
X77275295Y-59749076D02*
X77370533Y-59749076D01*
X77370533Y-59749076D02*
X77513390Y-59796695D01*
X77513390Y-59796695D02*
X78084819Y-60368123D01*
X78084819Y-60368123D02*
X78084819Y-59749076D01*
X77180057Y-59368123D02*
X77132438Y-59320504D01*
X77132438Y-59320504D02*
X77084819Y-59225266D01*
X77084819Y-59225266D02*
X77084819Y-58987171D01*
X77084819Y-58987171D02*
X77132438Y-58891933D01*
X77132438Y-58891933D02*
X77180057Y-58844314D01*
X77180057Y-58844314D02*
X77275295Y-58796695D01*
X77275295Y-58796695D02*
X77370533Y-58796695D01*
X77370533Y-58796695D02*
X77513390Y-58844314D01*
X77513390Y-58844314D02*
X78084819Y-59415742D01*
X78084819Y-59415742D02*
X78084819Y-58796695D01*
X60498380Y-43822857D02*
X60546000Y-43870476D01*
X60546000Y-43870476D02*
X60593619Y-44013333D01*
X60593619Y-44013333D02*
X60593619Y-44108571D01*
X60593619Y-44108571D02*
X60546000Y-44251428D01*
X60546000Y-44251428D02*
X60450761Y-44346666D01*
X60450761Y-44346666D02*
X60355523Y-44394285D01*
X60355523Y-44394285D02*
X60165047Y-44441904D01*
X60165047Y-44441904D02*
X60022190Y-44441904D01*
X60022190Y-44441904D02*
X59831714Y-44394285D01*
X59831714Y-44394285D02*
X59736476Y-44346666D01*
X59736476Y-44346666D02*
X59641238Y-44251428D01*
X59641238Y-44251428D02*
X59593619Y-44108571D01*
X59593619Y-44108571D02*
X59593619Y-44013333D01*
X59593619Y-44013333D02*
X59641238Y-43870476D01*
X59641238Y-43870476D02*
X59688857Y-43822857D01*
X60593619Y-42870476D02*
X60593619Y-43441904D01*
X60593619Y-43156190D02*
X59593619Y-43156190D01*
X59593619Y-43156190D02*
X59736476Y-43251428D01*
X59736476Y-43251428D02*
X59831714Y-43346666D01*
X59831714Y-43346666D02*
X59879333Y-43441904D01*
X59593619Y-42537142D02*
X59593619Y-41870476D01*
X59593619Y-41870476D02*
X60593619Y-42299047D01*
X54757142Y-61683580D02*
X54709523Y-61731200D01*
X54709523Y-61731200D02*
X54566666Y-61778819D01*
X54566666Y-61778819D02*
X54471428Y-61778819D01*
X54471428Y-61778819D02*
X54328571Y-61731200D01*
X54328571Y-61731200D02*
X54233333Y-61635961D01*
X54233333Y-61635961D02*
X54185714Y-61540723D01*
X54185714Y-61540723D02*
X54138095Y-61350247D01*
X54138095Y-61350247D02*
X54138095Y-61207390D01*
X54138095Y-61207390D02*
X54185714Y-61016914D01*
X54185714Y-61016914D02*
X54233333Y-60921676D01*
X54233333Y-60921676D02*
X54328571Y-60826438D01*
X54328571Y-60826438D02*
X54471428Y-60778819D01*
X54471428Y-60778819D02*
X54566666Y-60778819D01*
X54566666Y-60778819D02*
X54709523Y-60826438D01*
X54709523Y-60826438D02*
X54757142Y-60874057D01*
X55709523Y-61778819D02*
X55138095Y-61778819D01*
X55423809Y-61778819D02*
X55423809Y-60778819D01*
X55423809Y-60778819D02*
X55328571Y-60921676D01*
X55328571Y-60921676D02*
X55233333Y-61016914D01*
X55233333Y-61016914D02*
X55138095Y-61064533D01*
X56090476Y-60874057D02*
X56138095Y-60826438D01*
X56138095Y-60826438D02*
X56233333Y-60778819D01*
X56233333Y-60778819D02*
X56471428Y-60778819D01*
X56471428Y-60778819D02*
X56566666Y-60826438D01*
X56566666Y-60826438D02*
X56614285Y-60874057D01*
X56614285Y-60874057D02*
X56661904Y-60969295D01*
X56661904Y-60969295D02*
X56661904Y-61064533D01*
X56661904Y-61064533D02*
X56614285Y-61207390D01*
X56614285Y-61207390D02*
X56042857Y-61778819D01*
X56042857Y-61778819D02*
X56661904Y-61778819D01*
X30238095Y-51454819D02*
X30238095Y-52264342D01*
X30238095Y-52264342D02*
X30285714Y-52359580D01*
X30285714Y-52359580D02*
X30333333Y-52407200D01*
X30333333Y-52407200D02*
X30428571Y-52454819D01*
X30428571Y-52454819D02*
X30619047Y-52454819D01*
X30619047Y-52454819D02*
X30714285Y-52407200D01*
X30714285Y-52407200D02*
X30761904Y-52359580D01*
X30761904Y-52359580D02*
X30809523Y-52264342D01*
X30809523Y-52264342D02*
X30809523Y-51454819D01*
X31190476Y-51454819D02*
X31809523Y-51454819D01*
X31809523Y-51454819D02*
X31476190Y-51835771D01*
X31476190Y-51835771D02*
X31619047Y-51835771D01*
X31619047Y-51835771D02*
X31714285Y-51883390D01*
X31714285Y-51883390D02*
X31761904Y-51931009D01*
X31761904Y-51931009D02*
X31809523Y-52026247D01*
X31809523Y-52026247D02*
X31809523Y-52264342D01*
X31809523Y-52264342D02*
X31761904Y-52359580D01*
X31761904Y-52359580D02*
X31714285Y-52407200D01*
X31714285Y-52407200D02*
X31619047Y-52454819D01*
X31619047Y-52454819D02*
X31333333Y-52454819D01*
X31333333Y-52454819D02*
X31238095Y-52407200D01*
X31238095Y-52407200D02*
X31190476Y-52359580D01*
X69631819Y-48561523D02*
X70346104Y-48561523D01*
X70346104Y-48561523D02*
X70488961Y-48609142D01*
X70488961Y-48609142D02*
X70584200Y-48704380D01*
X70584200Y-48704380D02*
X70631819Y-48847237D01*
X70631819Y-48847237D02*
X70631819Y-48942475D01*
X70631819Y-47561523D02*
X70631819Y-48132951D01*
X70631819Y-47847237D02*
X69631819Y-47847237D01*
X69631819Y-47847237D02*
X69774676Y-47942475D01*
X69774676Y-47942475D02*
X69869914Y-48037713D01*
X69869914Y-48037713D02*
X69917533Y-48132951D01*
X69631819Y-47228189D02*
X69631819Y-46609142D01*
X69631819Y-46609142D02*
X70012771Y-46942475D01*
X70012771Y-46942475D02*
X70012771Y-46799618D01*
X70012771Y-46799618D02*
X70060390Y-46704380D01*
X70060390Y-46704380D02*
X70108009Y-46656761D01*
X70108009Y-46656761D02*
X70203247Y-46609142D01*
X70203247Y-46609142D02*
X70441342Y-46609142D01*
X70441342Y-46609142D02*
X70536580Y-46656761D01*
X70536580Y-46656761D02*
X70584200Y-46704380D01*
X70584200Y-46704380D02*
X70631819Y-46799618D01*
X70631819Y-46799618D02*
X70631819Y-47085332D01*
X70631819Y-47085332D02*
X70584200Y-47180570D01*
X70584200Y-47180570D02*
X70536580Y-47228189D01*
X55324476Y-27985819D02*
X55324476Y-28700104D01*
X55324476Y-28700104D02*
X55276857Y-28842961D01*
X55276857Y-28842961D02*
X55181619Y-28938200D01*
X55181619Y-28938200D02*
X55038762Y-28985819D01*
X55038762Y-28985819D02*
X54943524Y-28985819D01*
X56324476Y-28985819D02*
X55753048Y-28985819D01*
X56038762Y-28985819D02*
X56038762Y-27985819D01*
X56038762Y-27985819D02*
X55943524Y-28128676D01*
X55943524Y-28128676D02*
X55848286Y-28223914D01*
X55848286Y-28223914D02*
X55753048Y-28271533D01*
X57276857Y-28985819D02*
X56705429Y-28985819D01*
X56991143Y-28985819D02*
X56991143Y-27985819D01*
X56991143Y-27985819D02*
X56895905Y-28128676D01*
X56895905Y-28128676D02*
X56800667Y-28223914D01*
X56800667Y-28223914D02*
X56705429Y-28271533D01*
X60691733Y-70227019D02*
X60358400Y-69750828D01*
X60120305Y-70227019D02*
X60120305Y-69227019D01*
X60120305Y-69227019D02*
X60501257Y-69227019D01*
X60501257Y-69227019D02*
X60596495Y-69274638D01*
X60596495Y-69274638D02*
X60644114Y-69322257D01*
X60644114Y-69322257D02*
X60691733Y-69417495D01*
X60691733Y-69417495D02*
X60691733Y-69560352D01*
X60691733Y-69560352D02*
X60644114Y-69655590D01*
X60644114Y-69655590D02*
X60596495Y-69703209D01*
X60596495Y-69703209D02*
X60501257Y-69750828D01*
X60501257Y-69750828D02*
X60120305Y-69750828D01*
X61072686Y-69322257D02*
X61120305Y-69274638D01*
X61120305Y-69274638D02*
X61215543Y-69227019D01*
X61215543Y-69227019D02*
X61453638Y-69227019D01*
X61453638Y-69227019D02*
X61548876Y-69274638D01*
X61548876Y-69274638D02*
X61596495Y-69322257D01*
X61596495Y-69322257D02*
X61644114Y-69417495D01*
X61644114Y-69417495D02*
X61644114Y-69512733D01*
X61644114Y-69512733D02*
X61596495Y-69655590D01*
X61596495Y-69655590D02*
X61025067Y-70227019D01*
X61025067Y-70227019D02*
X61644114Y-70227019D01*
X72536666Y-75444819D02*
X72536666Y-76159104D01*
X72536666Y-76159104D02*
X72489047Y-76301961D01*
X72489047Y-76301961D02*
X72393809Y-76397200D01*
X72393809Y-76397200D02*
X72250952Y-76444819D01*
X72250952Y-76444819D02*
X72155714Y-76444819D01*
X73441428Y-75444819D02*
X73250952Y-75444819D01*
X73250952Y-75444819D02*
X73155714Y-75492438D01*
X73155714Y-75492438D02*
X73108095Y-75540057D01*
X73108095Y-75540057D02*
X73012857Y-75682914D01*
X73012857Y-75682914D02*
X72965238Y-75873390D01*
X72965238Y-75873390D02*
X72965238Y-76254342D01*
X72965238Y-76254342D02*
X73012857Y-76349580D01*
X73012857Y-76349580D02*
X73060476Y-76397200D01*
X73060476Y-76397200D02*
X73155714Y-76444819D01*
X73155714Y-76444819D02*
X73346190Y-76444819D01*
X73346190Y-76444819D02*
X73441428Y-76397200D01*
X73441428Y-76397200D02*
X73489047Y-76349580D01*
X73489047Y-76349580D02*
X73536666Y-76254342D01*
X73536666Y-76254342D02*
X73536666Y-76016247D01*
X73536666Y-76016247D02*
X73489047Y-75921009D01*
X73489047Y-75921009D02*
X73441428Y-75873390D01*
X73441428Y-75873390D02*
X73346190Y-75825771D01*
X73346190Y-75825771D02*
X73155714Y-75825771D01*
X73155714Y-75825771D02*
X73060476Y-75873390D01*
X73060476Y-75873390D02*
X73012857Y-75921009D01*
X73012857Y-75921009D02*
X72965238Y-76016247D01*
X38187333Y-32727580D02*
X38139714Y-32775200D01*
X38139714Y-32775200D02*
X37996857Y-32822819D01*
X37996857Y-32822819D02*
X37901619Y-32822819D01*
X37901619Y-32822819D02*
X37758762Y-32775200D01*
X37758762Y-32775200D02*
X37663524Y-32679961D01*
X37663524Y-32679961D02*
X37615905Y-32584723D01*
X37615905Y-32584723D02*
X37568286Y-32394247D01*
X37568286Y-32394247D02*
X37568286Y-32251390D01*
X37568286Y-32251390D02*
X37615905Y-32060914D01*
X37615905Y-32060914D02*
X37663524Y-31965676D01*
X37663524Y-31965676D02*
X37758762Y-31870438D01*
X37758762Y-31870438D02*
X37901619Y-31822819D01*
X37901619Y-31822819D02*
X37996857Y-31822819D01*
X37996857Y-31822819D02*
X38139714Y-31870438D01*
X38139714Y-31870438D02*
X38187333Y-31918057D01*
X38520667Y-31822819D02*
X39139714Y-31822819D01*
X39139714Y-31822819D02*
X38806381Y-32203771D01*
X38806381Y-32203771D02*
X38949238Y-32203771D01*
X38949238Y-32203771D02*
X39044476Y-32251390D01*
X39044476Y-32251390D02*
X39092095Y-32299009D01*
X39092095Y-32299009D02*
X39139714Y-32394247D01*
X39139714Y-32394247D02*
X39139714Y-32632342D01*
X39139714Y-32632342D02*
X39092095Y-32727580D01*
X39092095Y-32727580D02*
X39044476Y-32775200D01*
X39044476Y-32775200D02*
X38949238Y-32822819D01*
X38949238Y-32822819D02*
X38663524Y-32822819D01*
X38663524Y-32822819D02*
X38568286Y-32775200D01*
X38568286Y-32775200D02*
X38520667Y-32727580D01*
X59008011Y-38253609D02*
X59491820Y-38253609D01*
X58475820Y-38592276D02*
X59008011Y-38253609D01*
X59008011Y-38253609D02*
X58475820Y-37914942D01*
X58572582Y-37624657D02*
X58524201Y-37576276D01*
X58524201Y-37576276D02*
X58475820Y-37479514D01*
X58475820Y-37479514D02*
X58475820Y-37237609D01*
X58475820Y-37237609D02*
X58524201Y-37140847D01*
X58524201Y-37140847D02*
X58572582Y-37092466D01*
X58572582Y-37092466D02*
X58669344Y-37044085D01*
X58669344Y-37044085D02*
X58766106Y-37044085D01*
X58766106Y-37044085D02*
X58911249Y-37092466D01*
X58911249Y-37092466D02*
X59491820Y-37673038D01*
X59491820Y-37673038D02*
X59491820Y-37044085D01*
X40646819Y-26749333D02*
X41361104Y-26749333D01*
X41361104Y-26749333D02*
X41503961Y-26796952D01*
X41503961Y-26796952D02*
X41599200Y-26892190D01*
X41599200Y-26892190D02*
X41646819Y-27035047D01*
X41646819Y-27035047D02*
X41646819Y-27130285D01*
X41646819Y-25749333D02*
X41646819Y-26320761D01*
X41646819Y-26035047D02*
X40646819Y-26035047D01*
X40646819Y-26035047D02*
X40789676Y-26130285D01*
X40789676Y-26130285D02*
X40884914Y-26225523D01*
X40884914Y-26225523D02*
X40932533Y-26320761D01*
X41618819Y-50236333D02*
X42333104Y-50236333D01*
X42333104Y-50236333D02*
X42475961Y-50283952D01*
X42475961Y-50283952D02*
X42571200Y-50379190D01*
X42571200Y-50379190D02*
X42618819Y-50522047D01*
X42618819Y-50522047D02*
X42618819Y-50617285D01*
X42618819Y-49760142D02*
X41618819Y-49760142D01*
X41618819Y-49760142D02*
X41618819Y-49379190D01*
X41618819Y-49379190D02*
X41666438Y-49283952D01*
X41666438Y-49283952D02*
X41714057Y-49236333D01*
X41714057Y-49236333D02*
X41809295Y-49188714D01*
X41809295Y-49188714D02*
X41952152Y-49188714D01*
X41952152Y-49188714D02*
X42047390Y-49236333D01*
X42047390Y-49236333D02*
X42095009Y-49283952D01*
X42095009Y-49283952D02*
X42142628Y-49379190D01*
X42142628Y-49379190D02*
X42142628Y-49760142D01*
X42618819Y-48236333D02*
X42618819Y-48807761D01*
X42618819Y-48522047D02*
X41618819Y-48522047D01*
X41618819Y-48522047D02*
X41761676Y-48617285D01*
X41761676Y-48617285D02*
X41856914Y-48712523D01*
X41856914Y-48712523D02*
X41904533Y-48807761D01*
X48263820Y-38430104D02*
X49073343Y-38430104D01*
X49073343Y-38430104D02*
X49168581Y-38382485D01*
X49168581Y-38382485D02*
X49216201Y-38334866D01*
X49216201Y-38334866D02*
X49263820Y-38239628D01*
X49263820Y-38239628D02*
X49263820Y-38049152D01*
X49263820Y-38049152D02*
X49216201Y-37953914D01*
X49216201Y-37953914D02*
X49168581Y-37906295D01*
X49168581Y-37906295D02*
X49073343Y-37858676D01*
X49073343Y-37858676D02*
X48263820Y-37858676D01*
X48597153Y-36953914D02*
X49263820Y-36953914D01*
X48216201Y-37192009D02*
X48930486Y-37430104D01*
X48930486Y-37430104D02*
X48930486Y-36811057D01*
X43142819Y-41401999D02*
X43380914Y-41401999D01*
X43285676Y-41640094D02*
X43380914Y-41401999D01*
X43380914Y-41401999D02*
X43285676Y-41163904D01*
X43571390Y-41544856D02*
X43380914Y-41401999D01*
X43380914Y-41401999D02*
X43571390Y-41259142D01*
X42464020Y-41554399D02*
X42702115Y-41554399D01*
X42606877Y-41792494D02*
X42702115Y-41554399D01*
X42702115Y-41554399D02*
X42606877Y-41316304D01*
X42892591Y-41697256D02*
X42702115Y-41554399D01*
X42702115Y-41554399D02*
X42892591Y-41411542D01*
X53808333Y-53540819D02*
X53475000Y-53064628D01*
X53236905Y-53540819D02*
X53236905Y-52540819D01*
X53236905Y-52540819D02*
X53617857Y-52540819D01*
X53617857Y-52540819D02*
X53713095Y-52588438D01*
X53713095Y-52588438D02*
X53760714Y-52636057D01*
X53760714Y-52636057D02*
X53808333Y-52731295D01*
X53808333Y-52731295D02*
X53808333Y-52874152D01*
X53808333Y-52874152D02*
X53760714Y-52969390D01*
X53760714Y-52969390D02*
X53713095Y-53017009D01*
X53713095Y-53017009D02*
X53617857Y-53064628D01*
X53617857Y-53064628D02*
X53236905Y-53064628D01*
X54141667Y-52540819D02*
X54808333Y-52540819D01*
X54808333Y-52540819D02*
X54379762Y-53540819D01*
X43793580Y-44457857D02*
X43841200Y-44505476D01*
X43841200Y-44505476D02*
X43888819Y-44648333D01*
X43888819Y-44648333D02*
X43888819Y-44743571D01*
X43888819Y-44743571D02*
X43841200Y-44886428D01*
X43841200Y-44886428D02*
X43745961Y-44981666D01*
X43745961Y-44981666D02*
X43650723Y-45029285D01*
X43650723Y-45029285D02*
X43460247Y-45076904D01*
X43460247Y-45076904D02*
X43317390Y-45076904D01*
X43317390Y-45076904D02*
X43126914Y-45029285D01*
X43126914Y-45029285D02*
X43031676Y-44981666D01*
X43031676Y-44981666D02*
X42936438Y-44886428D01*
X42936438Y-44886428D02*
X42888819Y-44743571D01*
X42888819Y-44743571D02*
X42888819Y-44648333D01*
X42888819Y-44648333D02*
X42936438Y-44505476D01*
X42936438Y-44505476D02*
X42984057Y-44457857D01*
X42984057Y-44076904D02*
X42936438Y-44029285D01*
X42936438Y-44029285D02*
X42888819Y-43934047D01*
X42888819Y-43934047D02*
X42888819Y-43695952D01*
X42888819Y-43695952D02*
X42936438Y-43600714D01*
X42936438Y-43600714D02*
X42984057Y-43553095D01*
X42984057Y-43553095D02*
X43079295Y-43505476D01*
X43079295Y-43505476D02*
X43174533Y-43505476D01*
X43174533Y-43505476D02*
X43317390Y-43553095D01*
X43317390Y-43553095D02*
X43888819Y-44124523D01*
X43888819Y-44124523D02*
X43888819Y-43505476D01*
X42888819Y-42886428D02*
X42888819Y-42791190D01*
X42888819Y-42791190D02*
X42936438Y-42695952D01*
X42936438Y-42695952D02*
X42984057Y-42648333D01*
X42984057Y-42648333D02*
X43079295Y-42600714D01*
X43079295Y-42600714D02*
X43269771Y-42553095D01*
X43269771Y-42553095D02*
X43507866Y-42553095D01*
X43507866Y-42553095D02*
X43698342Y-42600714D01*
X43698342Y-42600714D02*
X43793580Y-42648333D01*
X43793580Y-42648333D02*
X43841200Y-42695952D01*
X43841200Y-42695952D02*
X43888819Y-42791190D01*
X43888819Y-42791190D02*
X43888819Y-42886428D01*
X43888819Y-42886428D02*
X43841200Y-42981666D01*
X43841200Y-42981666D02*
X43793580Y-43029285D01*
X43793580Y-43029285D02*
X43698342Y-43076904D01*
X43698342Y-43076904D02*
X43507866Y-43124523D01*
X43507866Y-43124523D02*
X43269771Y-43124523D01*
X43269771Y-43124523D02*
X43079295Y-43076904D01*
X43079295Y-43076904D02*
X42984057Y-43029285D01*
X42984057Y-43029285D02*
X42936438Y-42981666D01*
X42936438Y-42981666D02*
X42888819Y-42886428D01*
X35394580Y-30547666D02*
X35442200Y-30595285D01*
X35442200Y-30595285D02*
X35489819Y-30738142D01*
X35489819Y-30738142D02*
X35489819Y-30833380D01*
X35489819Y-30833380D02*
X35442200Y-30976237D01*
X35442200Y-30976237D02*
X35346961Y-31071475D01*
X35346961Y-31071475D02*
X35251723Y-31119094D01*
X35251723Y-31119094D02*
X35061247Y-31166713D01*
X35061247Y-31166713D02*
X34918390Y-31166713D01*
X34918390Y-31166713D02*
X34727914Y-31119094D01*
X34727914Y-31119094D02*
X34632676Y-31071475D01*
X34632676Y-31071475D02*
X34537438Y-30976237D01*
X34537438Y-30976237D02*
X34489819Y-30833380D01*
X34489819Y-30833380D02*
X34489819Y-30738142D01*
X34489819Y-30738142D02*
X34537438Y-30595285D01*
X34537438Y-30595285D02*
X34585057Y-30547666D01*
X34585057Y-30166713D02*
X34537438Y-30119094D01*
X34537438Y-30119094D02*
X34489819Y-30023856D01*
X34489819Y-30023856D02*
X34489819Y-29785761D01*
X34489819Y-29785761D02*
X34537438Y-29690523D01*
X34537438Y-29690523D02*
X34585057Y-29642904D01*
X34585057Y-29642904D02*
X34680295Y-29595285D01*
X34680295Y-29595285D02*
X34775533Y-29595285D01*
X34775533Y-29595285D02*
X34918390Y-29642904D01*
X34918390Y-29642904D02*
X35489819Y-30214332D01*
X35489819Y-30214332D02*
X35489819Y-29595285D01*
X33915819Y-41989333D02*
X34630104Y-41989333D01*
X34630104Y-41989333D02*
X34772961Y-42036952D01*
X34772961Y-42036952D02*
X34868200Y-42132190D01*
X34868200Y-42132190D02*
X34915819Y-42275047D01*
X34915819Y-42275047D02*
X34915819Y-42370285D01*
X34344390Y-41370285D02*
X34296771Y-41465523D01*
X34296771Y-41465523D02*
X34249152Y-41513142D01*
X34249152Y-41513142D02*
X34153914Y-41560761D01*
X34153914Y-41560761D02*
X34106295Y-41560761D01*
X34106295Y-41560761D02*
X34011057Y-41513142D01*
X34011057Y-41513142D02*
X33963438Y-41465523D01*
X33963438Y-41465523D02*
X33915819Y-41370285D01*
X33915819Y-41370285D02*
X33915819Y-41179809D01*
X33915819Y-41179809D02*
X33963438Y-41084571D01*
X33963438Y-41084571D02*
X34011057Y-41036952D01*
X34011057Y-41036952D02*
X34106295Y-40989333D01*
X34106295Y-40989333D02*
X34153914Y-40989333D01*
X34153914Y-40989333D02*
X34249152Y-41036952D01*
X34249152Y-41036952D02*
X34296771Y-41084571D01*
X34296771Y-41084571D02*
X34344390Y-41179809D01*
X34344390Y-41179809D02*
X34344390Y-41370285D01*
X34344390Y-41370285D02*
X34392009Y-41465523D01*
X34392009Y-41465523D02*
X34439628Y-41513142D01*
X34439628Y-41513142D02*
X34534866Y-41560761D01*
X34534866Y-41560761D02*
X34725342Y-41560761D01*
X34725342Y-41560761D02*
X34820580Y-41513142D01*
X34820580Y-41513142D02*
X34868200Y-41465523D01*
X34868200Y-41465523D02*
X34915819Y-41370285D01*
X34915819Y-41370285D02*
X34915819Y-41179809D01*
X34915819Y-41179809D02*
X34868200Y-41084571D01*
X34868200Y-41084571D02*
X34820580Y-41036952D01*
X34820580Y-41036952D02*
X34725342Y-40989333D01*
X34725342Y-40989333D02*
X34534866Y-40989333D01*
X34534866Y-40989333D02*
X34439628Y-41036952D01*
X34439628Y-41036952D02*
X34392009Y-41084571D01*
X34392009Y-41084571D02*
X34344390Y-41179809D01*
X51133476Y-46825819D02*
X51133476Y-47540104D01*
X51133476Y-47540104D02*
X51085857Y-47682961D01*
X51085857Y-47682961D02*
X50990619Y-47778200D01*
X50990619Y-47778200D02*
X50847762Y-47825819D01*
X50847762Y-47825819D02*
X50752524Y-47825819D01*
X52133476Y-47825819D02*
X51562048Y-47825819D01*
X51847762Y-47825819D02*
X51847762Y-46825819D01*
X51847762Y-46825819D02*
X51752524Y-46968676D01*
X51752524Y-46968676D02*
X51657286Y-47063914D01*
X51657286Y-47063914D02*
X51562048Y-47111533D01*
X52990619Y-46825819D02*
X52800143Y-46825819D01*
X52800143Y-46825819D02*
X52704905Y-46873438D01*
X52704905Y-46873438D02*
X52657286Y-46921057D01*
X52657286Y-46921057D02*
X52562048Y-47063914D01*
X52562048Y-47063914D02*
X52514429Y-47254390D01*
X52514429Y-47254390D02*
X52514429Y-47635342D01*
X52514429Y-47635342D02*
X52562048Y-47730580D01*
X52562048Y-47730580D02*
X52609667Y-47778200D01*
X52609667Y-47778200D02*
X52704905Y-47825819D01*
X52704905Y-47825819D02*
X52895381Y-47825819D01*
X52895381Y-47825819D02*
X52990619Y-47778200D01*
X52990619Y-47778200D02*
X53038238Y-47730580D01*
X53038238Y-47730580D02*
X53085857Y-47635342D01*
X53085857Y-47635342D02*
X53085857Y-47397247D01*
X53085857Y-47397247D02*
X53038238Y-47302009D01*
X53038238Y-47302009D02*
X52990619Y-47254390D01*
X52990619Y-47254390D02*
X52895381Y-47206771D01*
X52895381Y-47206771D02*
X52704905Y-47206771D01*
X52704905Y-47206771D02*
X52609667Y-47254390D01*
X52609667Y-47254390D02*
X52562048Y-47302009D01*
X52562048Y-47302009D02*
X52514429Y-47397247D01*
X34843819Y-63833333D02*
X35558104Y-63833333D01*
X35558104Y-63833333D02*
X35700961Y-63880952D01*
X35700961Y-63880952D02*
X35796200Y-63976190D01*
X35796200Y-63976190D02*
X35843819Y-64119047D01*
X35843819Y-64119047D02*
X35843819Y-64214285D01*
X35177152Y-62928571D02*
X35843819Y-62928571D01*
X34796200Y-63166666D02*
X35510485Y-63404761D01*
X35510485Y-63404761D02*
X35510485Y-62785714D01*
D11*
%TO.C,Y1*%
X41097200Y-75996800D02*
X41097200Y-69545200D01*
X41097200Y-69545200D02*
X40452040Y-69545200D01*
X37134800Y-69545200D02*
X37134800Y-75996800D01*
X37134800Y-75996800D02*
X37779960Y-75996800D01*
X40452040Y-75996800D02*
X41097200Y-75996800D01*
X37779960Y-69545200D02*
X37134800Y-69545200D01*
D12*
%TO.C,C18*%
X59427164Y-33216000D02*
X59642836Y-33216000D01*
X59427164Y-32496000D02*
X59642836Y-32496000D01*
%TO.C,R10*%
X75677500Y-55859142D02*
X75677500Y-56333658D01*
X76722500Y-55859142D02*
X76722500Y-56333658D01*
%TO.C,C10*%
X45004400Y-76120164D02*
X45004400Y-76335836D01*
X45724400Y-76120164D02*
X45724400Y-76335836D01*
%TO.C,C15*%
X37697236Y-48357200D02*
X37481564Y-48357200D01*
X37697236Y-49077200D02*
X37481564Y-49077200D01*
%TO.C,J3*%
X29016000Y-26102000D02*
X26356000Y-26102000D01*
X29016000Y-31242000D02*
X29016000Y-26102000D01*
X29016000Y-32512000D02*
X29016000Y-33842000D01*
X26356000Y-31242000D02*
X26356000Y-26102000D01*
X29016000Y-33842000D02*
X27686000Y-33842000D01*
X29016000Y-31242000D02*
X26356000Y-31242000D01*
%TO.C,R4*%
X55216359Y-59818000D02*
X55523641Y-59818000D01*
X55216359Y-60578000D02*
X55523641Y-60578000D01*
%TO.C,R6*%
X59841159Y-54865000D02*
X60148441Y-54865000D01*
X59841159Y-55625000D02*
X60148441Y-55625000D01*
%TO.C,J17*%
X55024000Y-48258000D02*
X55024000Y-48193000D01*
X56697471Y-48258000D02*
X57244000Y-48258000D01*
X55024000Y-47498000D02*
X55024000Y-46738000D01*
X55024000Y-48258000D02*
X55570529Y-48258000D01*
X57244000Y-48258000D02*
X57244000Y-48193000D01*
X55024000Y-48258000D02*
X57244000Y-48258000D01*
X55024000Y-46738000D02*
X56134000Y-46738000D01*
%TO.C,R8*%
X55980359Y-49404000D02*
X56287641Y-49404000D01*
X55980359Y-50164000D02*
X56287641Y-50164000D01*
%TO.C,C8*%
X43741436Y-73808000D02*
X43525764Y-73808000D01*
X43741436Y-74528000D02*
X43525764Y-74528000D01*
%TO.C,TP1*%
X65317600Y-74117200D02*
G75*
G03*
X63917600Y-74117200I-700000J0D01*
G01*
X63917600Y-74117200D02*
G75*
G03*
X65317600Y-74117200I700000J0D01*
G01*
%TO.C,C13*%
X26310000Y-42536164D02*
X26310000Y-42751836D01*
X27030000Y-42536164D02*
X27030000Y-42751836D01*
D10*
%TO.C,U2*%
X49486400Y-76599200D02*
X49811400Y-76599200D01*
X49486400Y-69349200D02*
X49486400Y-69574200D01*
X49486400Y-69349200D02*
X49811400Y-69349200D01*
X56736400Y-69349200D02*
X56411400Y-69349200D01*
X56736400Y-69349200D02*
X56736400Y-69674200D01*
X56736400Y-76599200D02*
X56736400Y-76274200D01*
X56736400Y-76599200D02*
X56411400Y-76599200D01*
X49486400Y-76599200D02*
X49486400Y-76274200D01*
X49486400Y-69574200D02*
X48061400Y-69574200D01*
D12*
%TO.C,J2*%
X53594000Y-27746000D02*
X43374000Y-27746000D01*
X56194000Y-25086000D02*
X56194000Y-26416000D01*
X53594000Y-25086000D02*
X43374000Y-25086000D01*
X43374000Y-25086000D02*
X43374000Y-27746000D01*
X53594000Y-25086000D02*
X53594000Y-27746000D01*
X54864000Y-25086000D02*
X56194000Y-25086000D01*
%TO.C,J15*%
X55151000Y-56005000D02*
X55151000Y-55940000D01*
X56824471Y-56005000D02*
X57371000Y-56005000D01*
X55151000Y-55245000D02*
X55151000Y-54485000D01*
X55151000Y-56005000D02*
X55697529Y-56005000D01*
X57371000Y-56005000D02*
X57371000Y-55940000D01*
X55151000Y-56005000D02*
X57371000Y-56005000D01*
X55151000Y-54485000D02*
X56261000Y-54485000D01*
%TO.C,C14*%
X25709200Y-49627836D02*
X25709200Y-49412164D01*
X24989200Y-49627836D02*
X24989200Y-49412164D01*
%TO.C,R12*%
X71638900Y-61878942D02*
X71638900Y-62353458D01*
X72683900Y-61878942D02*
X72683900Y-62353458D01*
%TO.C,J12*%
X29150000Y-71120000D02*
X29150000Y-63440000D01*
X31810000Y-72390000D02*
X31810000Y-73720000D01*
X31810000Y-63440000D02*
X29150000Y-63440000D01*
X31810000Y-71120000D02*
X29150000Y-71120000D01*
X31810000Y-73720000D02*
X30480000Y-73720000D01*
X31810000Y-71120000D02*
X31810000Y-63440000D01*
%TO.C,C4*%
X38246164Y-36555000D02*
X38461836Y-36555000D01*
X38246164Y-35835000D02*
X38461836Y-35835000D01*
%TO.C,R13*%
X72734700Y-56562258D02*
X72734700Y-56087742D01*
X71689700Y-56562258D02*
X71689700Y-56087742D01*
%TO.C,J9*%
X32452000Y-52865000D02*
X32452000Y-53667470D01*
X34927000Y-54538471D02*
X34927000Y-55085000D01*
X34927000Y-55085000D02*
X32452000Y-55085000D01*
X34927000Y-52865000D02*
X34927000Y-53411529D01*
X35687000Y-52865000D02*
X36447000Y-52865000D01*
X36447000Y-52865000D02*
X36447000Y-53975000D01*
X34927000Y-52865000D02*
X32452000Y-52865000D01*
X32452000Y-54282530D02*
X32452000Y-55085000D01*
%TO.C,R5*%
X55216359Y-57532000D02*
X55523641Y-57532000D01*
X55216359Y-58292000D02*
X55523641Y-58292000D01*
%TO.C,C23*%
X73114980Y-58761400D02*
X72833820Y-58761400D01*
X73114980Y-59781400D02*
X72833820Y-59781400D01*
%TO.C,R1*%
X45620000Y-56953641D02*
X45620000Y-56646359D01*
X46380000Y-56953641D02*
X46380000Y-56646359D01*
%TO.C,R11*%
X70691742Y-53735500D02*
X71166258Y-53735500D01*
X70691742Y-52690500D02*
X71166258Y-52690500D01*
%TO.C,J7*%
X25467000Y-58834000D02*
X25467000Y-59636470D01*
X27942000Y-60507471D02*
X27942000Y-61054000D01*
X27942000Y-61054000D02*
X25467000Y-61054000D01*
X27942000Y-58834000D02*
X27942000Y-59380529D01*
X28702000Y-58834000D02*
X29462000Y-58834000D01*
X29462000Y-58834000D02*
X29462000Y-59944000D01*
X27942000Y-58834000D02*
X25467000Y-58834000D01*
X25467000Y-60251530D02*
X25467000Y-61054000D01*
%TO.C,J14*%
X45118000Y-48004000D02*
X45118000Y-47939000D01*
X46791471Y-48004000D02*
X47338000Y-48004000D01*
X45118000Y-47244000D02*
X45118000Y-46484000D01*
X45118000Y-48004000D02*
X45664529Y-48004000D01*
X47338000Y-48004000D02*
X47338000Y-47939000D01*
X45118000Y-48004000D02*
X47338000Y-48004000D01*
X45118000Y-46484000D02*
X46228000Y-46484000D01*
%TO.C,C11*%
X46122000Y-78378164D02*
X46122000Y-78593836D01*
X46842000Y-78378164D02*
X46842000Y-78593836D01*
%TO.C,C5*%
X27313836Y-36216000D02*
X27098164Y-36216000D01*
X27313836Y-36936000D02*
X27098164Y-36936000D01*
%TO.C,J5*%
X63870000Y-50520000D02*
X63870000Y-63280000D01*
X63870000Y-49250000D02*
X63870000Y-47920000D01*
X63870000Y-47920000D02*
X65200000Y-47920000D01*
X63870000Y-50520000D02*
X66530000Y-50520000D01*
X63870000Y-63280000D02*
X66530000Y-63280000D01*
X66530000Y-50520000D02*
X66530000Y-63280000D01*
%TO.C,R9*%
X45312359Y-48896000D02*
X45619641Y-48896000D01*
X45312359Y-49656000D02*
X45619641Y-49656000D01*
%TO.C,C16*%
X37725236Y-45766400D02*
X37509564Y-45766400D01*
X37725236Y-46486400D02*
X37509564Y-46486400D01*
D13*
%TO.C,J10*%
X75478400Y-27198600D02*
X75478400Y-27198600D01*
X75378400Y-27198600D02*
X75378400Y-27198600D01*
D14*
X74178400Y-40998600D02*
X66178400Y-40998600D01*
X74178400Y-32198600D02*
X74178400Y-40998600D01*
X74178400Y-25398600D02*
X74178400Y-25198600D01*
X74178400Y-25198600D02*
X66178400Y-25198600D01*
X72978400Y-25198600D02*
X72978400Y-23198600D01*
X72978400Y-23198600D02*
X67978400Y-23198600D01*
X67978400Y-23198600D02*
X67978400Y-25198600D01*
X66178400Y-40998600D02*
X66178400Y-32198600D01*
X66178400Y-25198600D02*
X66178400Y-25398600D01*
D13*
X75378400Y-27198600D02*
G75*
G03*
X75478400Y-27198600I50000J0D01*
G01*
X75478400Y-27198600D02*
G75*
G03*
X75378400Y-27198600I-50000J0D01*
G01*
D12*
%TO.C,R3*%
X43580000Y-56646359D02*
X43580000Y-56953641D01*
X42820000Y-56646359D02*
X42820000Y-56953641D01*
%TO.C,C6*%
X61777200Y-73028636D02*
X61777200Y-72812964D01*
X61057200Y-73028636D02*
X61057200Y-72812964D01*
D11*
%TO.C,U1*%
X32196999Y-33889950D02*
X32196999Y-35896550D01*
X33484738Y-35896550D02*
X34211260Y-35896550D01*
X35498999Y-35896550D02*
X35498999Y-33889950D01*
D12*
%TO.C,C9*%
X61057200Y-75332764D02*
X61057200Y-75548436D01*
X61777200Y-75332764D02*
X61777200Y-75548436D01*
%TO.C,D1*%
X67189300Y-69982200D02*
X64504300Y-69982200D01*
X67189300Y-71902200D02*
X67189300Y-69982200D01*
X64504300Y-71902200D02*
X67189300Y-71902200D01*
%TO.C,C1*%
X39222000Y-30488836D02*
X39222000Y-30273164D01*
X38502000Y-30488836D02*
X38502000Y-30273164D01*
%TO.C,C21*%
X69929836Y-44344000D02*
X69714164Y-44344000D01*
X69929836Y-45064000D02*
X69714164Y-45064000D01*
%TO.C,C19*%
X51736164Y-46461000D02*
X51951836Y-46461000D01*
X51736164Y-45741000D02*
X51951836Y-45741000D01*
%TO.C,C22*%
X75690000Y-59918020D02*
X75690000Y-60199180D01*
X76710000Y-59918020D02*
X76710000Y-60199180D01*
%TO.C,C17*%
X58618800Y-43072164D02*
X58618800Y-43287836D01*
X59338800Y-43072164D02*
X59338800Y-43287836D01*
%TO.C,C12*%
X55292164Y-62844000D02*
X55507836Y-62844000D01*
X55292164Y-62124000D02*
X55507836Y-62124000D01*
D10*
%TO.C,U3*%
X29889948Y-51002001D02*
X29889948Y-44501999D01*
X29889948Y-51002001D02*
X32685284Y-51002001D01*
X32685284Y-51002001D02*
X32685284Y-44501999D01*
X29889948Y-44501999D02*
X32685284Y-44501999D01*
D15*
X26984518Y-44827000D02*
G75*
G03*
X26734516Y-44827000I-125001J0D01*
G01*
X26734516Y-44827000D02*
G75*
G03*
X26984518Y-44827000I125001J0D01*
G01*
D16*
X30889949Y-45252000D02*
G75*
G03*
X30389949Y-45252000I-250000J0D01*
G01*
X30389949Y-45252000D02*
G75*
G03*
X30889949Y-45252000I250000J0D01*
G01*
D12*
%TO.C,J13*%
X77647000Y-47444470D02*
X77647000Y-46642000D01*
X71112000Y-48862000D02*
X71112000Y-47752000D01*
X71872000Y-48862000D02*
X71112000Y-48862000D01*
X72632000Y-48862000D02*
X77647000Y-48862000D01*
X77647000Y-48862000D02*
X77647000Y-48059530D01*
X72632000Y-47188529D02*
X72632000Y-46642000D01*
X72632000Y-48862000D02*
X72632000Y-48315471D01*
X72632000Y-46642000D02*
X77647000Y-46642000D01*
%TO.C,J11*%
X56697471Y-30986000D02*
X57244000Y-30986000D01*
X55024000Y-30986000D02*
X55570529Y-30986000D01*
X55024000Y-29466000D02*
X56134000Y-29466000D01*
X55024000Y-30986000D02*
X55024000Y-32191000D01*
X55024000Y-32191000D02*
X55826470Y-32191000D01*
X55024000Y-30226000D02*
X55024000Y-29466000D01*
X57244000Y-30986000D02*
X57244000Y-32191000D01*
X56441530Y-32191000D02*
X57244000Y-32191000D01*
%TO.C,R2*%
X60704759Y-70562200D02*
X61012041Y-70562200D01*
X60704759Y-71322200D02*
X61012041Y-71322200D01*
%TO.C,J6*%
X72870000Y-72390000D02*
X72870000Y-74990000D01*
X75470000Y-67250000D02*
X70270000Y-67250000D01*
X70270000Y-74990000D02*
X70270000Y-67250000D01*
X75470000Y-74990000D02*
X74140000Y-74990000D01*
X75470000Y-72390000D02*
X75470000Y-67250000D01*
X75470000Y-72390000D02*
X72870000Y-72390000D01*
X75470000Y-73660000D02*
X75470000Y-74990000D01*
X72870000Y-74990000D02*
X70270000Y-74990000D01*
%TO.C,C3*%
X38246164Y-33888000D02*
X38461836Y-33888000D01*
X38246164Y-33168000D02*
X38461836Y-33168000D01*
D17*
%TO.C,Y2*%
X60728000Y-34846000D02*
X60728000Y-40846000D01*
X57228000Y-34846000D02*
X57228000Y-40846000D01*
D12*
%TO.C,J1*%
X38862000Y-25086000D02*
X40192000Y-25086000D01*
X34992000Y-25086000D02*
X34992000Y-27746000D01*
X37592000Y-25086000D02*
X34992000Y-25086000D01*
X37592000Y-25086000D02*
X37592000Y-27746000D01*
X40192000Y-25086000D02*
X40192000Y-26416000D01*
X37592000Y-27746000D02*
X34992000Y-27746000D01*
%TO.C,JP1*%
X42224000Y-39818000D02*
X39564000Y-39818000D01*
X42224000Y-44958000D02*
X42224000Y-39818000D01*
X42224000Y-46228000D02*
X42224000Y-47558000D01*
X39564000Y-44958000D02*
X39564000Y-39818000D01*
X42224000Y-47558000D02*
X40894000Y-47558000D01*
X42224000Y-44958000D02*
X39564000Y-44958000D01*
%TO.C,U4*%
G36*
X50624499Y-42633900D02*
G01*
X50243499Y-42633900D01*
X50243499Y-42379900D01*
X50624499Y-42379900D01*
X50624499Y-42633900D01*
G37*
G36*
X49974500Y-32956500D02*
G01*
X49593500Y-32956500D01*
X49593500Y-32702500D01*
X49974500Y-32702500D01*
X49974500Y-32956500D01*
G37*
D11*
X54181101Y-40589200D02*
X54181101Y-34747200D01*
X54181101Y-34747200D02*
X53582641Y-34747200D01*
X43436901Y-34747200D02*
X43436901Y-40589200D01*
X43436901Y-40589200D02*
X44035361Y-40589200D01*
X53582639Y-40589200D02*
X54181101Y-40589200D01*
X44035361Y-34747200D02*
X43436901Y-34747200D01*
D12*
%TO.C,R7*%
X51207641Y-54736000D02*
X50900359Y-54736000D01*
X51207641Y-53976000D02*
X50900359Y-53976000D01*
%TO.C,C20*%
X45220836Y-43582000D02*
X45005164Y-43582000D01*
X45220836Y-44302000D02*
X45005164Y-44302000D01*
%TO.C,C2*%
X36555000Y-30488836D02*
X36555000Y-30273164D01*
X35835000Y-30488836D02*
X35835000Y-30273164D01*
%TO.C,C7*%
X43742436Y-72207800D02*
X43526764Y-72207800D01*
X43742436Y-72927800D02*
X43526764Y-72927800D01*
%TO.C,J8*%
X29531000Y-40546000D02*
X29531000Y-41348470D01*
X32006000Y-42219471D02*
X32006000Y-42766000D01*
X32006000Y-42766000D02*
X29531000Y-42766000D01*
X32006000Y-40546000D02*
X32006000Y-41092529D01*
X32766000Y-40546000D02*
X33526000Y-40546000D01*
X33526000Y-40546000D02*
X33526000Y-41656000D01*
X32006000Y-40546000D02*
X29531000Y-40546000D01*
X29531000Y-41963530D02*
X29531000Y-42766000D01*
%TO.C,J16*%
X51468000Y-50036000D02*
X51468000Y-49971000D01*
X53141471Y-50036000D02*
X53688000Y-50036000D01*
X51468000Y-49276000D02*
X51468000Y-48516000D01*
X51468000Y-50036000D02*
X52014529Y-50036000D01*
X53688000Y-50036000D02*
X53688000Y-49971000D01*
X51468000Y-50036000D02*
X53688000Y-50036000D01*
X51468000Y-48516000D02*
X52578000Y-48516000D01*
%TO.C,J4*%
X44129000Y-64830000D02*
X44129000Y-62170000D01*
X38989000Y-64830000D02*
X44129000Y-64830000D01*
X37719000Y-64830000D02*
X36389000Y-64830000D01*
X38989000Y-62170000D02*
X44129000Y-62170000D01*
X36389000Y-64830000D02*
X36389000Y-63500000D01*
X38989000Y-64830000D02*
X38989000Y-62170000D01*
%TD*%
M02*
