%TF.GenerationSoftware,KiCad,Pcbnew,8.0.02-1-dev-e0381f25f7*%
%TF.CreationDate,2024-04-02T19:47:07-07:00*%
%TF.ProjectId,i2s_to_toslink_pcb,6932735f-746f-45f7-946f-736c696e6b5f,rev?*%
%TF.SameCoordinates,Original*%
%TF.FileFunction,Legend,Top*%
%TF.FilePolarity,Positive*%
%FSLAX46Y46*%
G04 Gerber Fmt 4.6, Leading zero omitted, Abs format (unit mm)*
G04 Created by KiCad (PCBNEW 8.0.02-1-dev-e0381f25f7) date 2024-04-02 19:47:07*
%MOMM*%
%LPD*%
G01*
G04 APERTURE LIST*
%ADD10C,0.100000*%
%ADD11C,0.150000*%
%ADD12C,0.203200*%
%ADD13C,0.127000*%
%ADD14C,0.120000*%
%ADD15C,0.200000*%
%ADD16C,0.152400*%
%ADD17C,0.250000*%
%ADD18C,0.500000*%
%ADD19C,0.000000*%
G04 APERTURE END LIST*
D10*
X48522931Y-24877847D02*
X48637217Y-24915942D01*
X48637217Y-24915942D02*
X48675312Y-24954038D01*
X48675312Y-24954038D02*
X48713408Y-25030228D01*
X48713408Y-25030228D02*
X48713408Y-25144514D01*
X48713408Y-25144514D02*
X48675312Y-25220704D01*
X48675312Y-25220704D02*
X48637217Y-25258800D01*
X48637217Y-25258800D02*
X48561027Y-25296895D01*
X48561027Y-25296895D02*
X48256265Y-25296895D01*
X48256265Y-25296895D02*
X48256265Y-24496895D01*
X48256265Y-24496895D02*
X48522931Y-24496895D01*
X48522931Y-24496895D02*
X48599122Y-24534990D01*
X48599122Y-24534990D02*
X48637217Y-24573085D01*
X48637217Y-24573085D02*
X48675312Y-24649276D01*
X48675312Y-24649276D02*
X48675312Y-24725466D01*
X48675312Y-24725466D02*
X48637217Y-24801657D01*
X48637217Y-24801657D02*
X48599122Y-24839752D01*
X48599122Y-24839752D02*
X48522931Y-24877847D01*
X48522931Y-24877847D02*
X48256265Y-24877847D01*
X49513408Y-25220704D02*
X49475312Y-25258800D01*
X49475312Y-25258800D02*
X49361027Y-25296895D01*
X49361027Y-25296895D02*
X49284836Y-25296895D01*
X49284836Y-25296895D02*
X49170550Y-25258800D01*
X49170550Y-25258800D02*
X49094360Y-25182609D01*
X49094360Y-25182609D02*
X49056265Y-25106419D01*
X49056265Y-25106419D02*
X49018169Y-24954038D01*
X49018169Y-24954038D02*
X49018169Y-24839752D01*
X49018169Y-24839752D02*
X49056265Y-24687371D01*
X49056265Y-24687371D02*
X49094360Y-24611180D01*
X49094360Y-24611180D02*
X49170550Y-24534990D01*
X49170550Y-24534990D02*
X49284836Y-24496895D01*
X49284836Y-24496895D02*
X49361027Y-24496895D01*
X49361027Y-24496895D02*
X49475312Y-24534990D01*
X49475312Y-24534990D02*
X49513408Y-24573085D01*
X50237217Y-25296895D02*
X49856265Y-25296895D01*
X49856265Y-25296895D02*
X49856265Y-24496895D01*
X50503884Y-25296895D02*
X50503884Y-24496895D01*
X50961027Y-25296895D02*
X50618169Y-24839752D01*
X50961027Y-24496895D02*
X50503884Y-24954038D01*
D11*
X59789160Y-66339533D02*
X60398684Y-66339533D01*
X60093922Y-66644295D02*
X60093922Y-66034771D01*
X61198683Y-66644295D02*
X60741540Y-66644295D01*
X60970112Y-66644295D02*
X60970112Y-65844295D01*
X60970112Y-65844295D02*
X60893921Y-65958580D01*
X60893921Y-65958580D02*
X60817731Y-66034771D01*
X60817731Y-66034771D02*
X60741540Y-66072866D01*
X61427255Y-65844295D02*
X61693922Y-66644295D01*
X61693922Y-66644295D02*
X61960588Y-65844295D01*
X62608207Y-65844295D02*
X62227255Y-65844295D01*
X62227255Y-65844295D02*
X62189159Y-66225247D01*
X62189159Y-66225247D02*
X62227255Y-66187152D01*
X62227255Y-66187152D02*
X62303445Y-66149057D01*
X62303445Y-66149057D02*
X62493921Y-66149057D01*
X62493921Y-66149057D02*
X62570112Y-66187152D01*
X62570112Y-66187152D02*
X62608207Y-66225247D01*
X62608207Y-66225247D02*
X62646302Y-66301438D01*
X62646302Y-66301438D02*
X62646302Y-66491914D01*
X62646302Y-66491914D02*
X62608207Y-66568104D01*
X62608207Y-66568104D02*
X62570112Y-66606200D01*
X62570112Y-66606200D02*
X62493921Y-66644295D01*
X62493921Y-66644295D02*
X62303445Y-66644295D01*
X62303445Y-66644295D02*
X62227255Y-66606200D01*
X62227255Y-66606200D02*
X62189159Y-66568104D01*
X66208207Y-65882390D02*
X66132017Y-65844295D01*
X66132017Y-65844295D02*
X66017731Y-65844295D01*
X66017731Y-65844295D02*
X65903445Y-65882390D01*
X65903445Y-65882390D02*
X65827255Y-65958580D01*
X65827255Y-65958580D02*
X65789160Y-66034771D01*
X65789160Y-66034771D02*
X65751064Y-66187152D01*
X65751064Y-66187152D02*
X65751064Y-66301438D01*
X65751064Y-66301438D02*
X65789160Y-66453819D01*
X65789160Y-66453819D02*
X65827255Y-66530009D01*
X65827255Y-66530009D02*
X65903445Y-66606200D01*
X65903445Y-66606200D02*
X66017731Y-66644295D01*
X66017731Y-66644295D02*
X66093922Y-66644295D01*
X66093922Y-66644295D02*
X66208207Y-66606200D01*
X66208207Y-66606200D02*
X66246303Y-66568104D01*
X66246303Y-66568104D02*
X66246303Y-66301438D01*
X66246303Y-66301438D02*
X66093922Y-66301438D01*
X66589160Y-66644295D02*
X66589160Y-65844295D01*
X66589160Y-65844295D02*
X67046303Y-66644295D01*
X67046303Y-66644295D02*
X67046303Y-65844295D01*
X67427255Y-66644295D02*
X67427255Y-65844295D01*
X67427255Y-65844295D02*
X67617731Y-65844295D01*
X67617731Y-65844295D02*
X67732017Y-65882390D01*
X67732017Y-65882390D02*
X67808207Y-65958580D01*
X67808207Y-65958580D02*
X67846302Y-66034771D01*
X67846302Y-66034771D02*
X67884398Y-66187152D01*
X67884398Y-66187152D02*
X67884398Y-66301438D01*
X67884398Y-66301438D02*
X67846302Y-66453819D01*
X67846302Y-66453819D02*
X67808207Y-66530009D01*
X67808207Y-66530009D02*
X67732017Y-66606200D01*
X67732017Y-66606200D02*
X67617731Y-66644295D01*
X67617731Y-66644295D02*
X67427255Y-66644295D01*
D10*
X39903104Y-56013408D02*
X40284057Y-55746741D01*
X39903104Y-55556265D02*
X40703104Y-55556265D01*
X40703104Y-55556265D02*
X40703104Y-55861027D01*
X40703104Y-55861027D02*
X40665009Y-55937217D01*
X40665009Y-55937217D02*
X40626914Y-55975312D01*
X40626914Y-55975312D02*
X40550723Y-56013408D01*
X40550723Y-56013408D02*
X40436438Y-56013408D01*
X40436438Y-56013408D02*
X40360247Y-55975312D01*
X40360247Y-55975312D02*
X40322152Y-55937217D01*
X40322152Y-55937217D02*
X40284057Y-55861027D01*
X40284057Y-55861027D02*
X40284057Y-55556265D01*
X40703104Y-56280074D02*
X39903104Y-56813408D01*
X40703104Y-56813408D02*
X39903104Y-56280074D01*
X40703104Y-57270551D02*
X40703104Y-57346741D01*
X40703104Y-57346741D02*
X40665009Y-57422932D01*
X40665009Y-57422932D02*
X40626914Y-57461027D01*
X40626914Y-57461027D02*
X40550723Y-57499122D01*
X40550723Y-57499122D02*
X40398342Y-57537217D01*
X40398342Y-57537217D02*
X40207866Y-57537217D01*
X40207866Y-57537217D02*
X40055485Y-57499122D01*
X40055485Y-57499122D02*
X39979295Y-57461027D01*
X39979295Y-57461027D02*
X39941200Y-57422932D01*
X39941200Y-57422932D02*
X39903104Y-57346741D01*
X39903104Y-57346741D02*
X39903104Y-57270551D01*
X39903104Y-57270551D02*
X39941200Y-57194360D01*
X39941200Y-57194360D02*
X39979295Y-57156265D01*
X39979295Y-57156265D02*
X40055485Y-57118170D01*
X40055485Y-57118170D02*
X40207866Y-57080074D01*
X40207866Y-57080074D02*
X40398342Y-57080074D01*
X40398342Y-57080074D02*
X40550723Y-57118170D01*
X40550723Y-57118170D02*
X40626914Y-57156265D01*
X40626914Y-57156265D02*
X40665009Y-57194360D01*
X40665009Y-57194360D02*
X40703104Y-57270551D01*
X39903104Y-58946742D02*
X40284057Y-58680075D01*
X39903104Y-58489599D02*
X40703104Y-58489599D01*
X40703104Y-58489599D02*
X40703104Y-58794361D01*
X40703104Y-58794361D02*
X40665009Y-58870551D01*
X40665009Y-58870551D02*
X40626914Y-58908646D01*
X40626914Y-58908646D02*
X40550723Y-58946742D01*
X40550723Y-58946742D02*
X40436438Y-58946742D01*
X40436438Y-58946742D02*
X40360247Y-58908646D01*
X40360247Y-58908646D02*
X40322152Y-58870551D01*
X40322152Y-58870551D02*
X40284057Y-58794361D01*
X40284057Y-58794361D02*
X40284057Y-58489599D01*
X40703104Y-59213408D02*
X39903104Y-59746742D01*
X40703104Y-59746742D02*
X39903104Y-59213408D01*
X39903104Y-60470551D02*
X39903104Y-60013408D01*
X39903104Y-60241980D02*
X40703104Y-60241980D01*
X40703104Y-60241980D02*
X40588819Y-60165789D01*
X40588819Y-60165789D02*
X40512628Y-60089599D01*
X40512628Y-60089599D02*
X40474533Y-60013408D01*
X42656265Y-25296895D02*
X42656265Y-24496895D01*
X42656265Y-24496895D02*
X42922931Y-25068323D01*
X42922931Y-25068323D02*
X43189598Y-24496895D01*
X43189598Y-24496895D02*
X43189598Y-25296895D01*
X44027694Y-25220704D02*
X43989598Y-25258800D01*
X43989598Y-25258800D02*
X43875313Y-25296895D01*
X43875313Y-25296895D02*
X43799122Y-25296895D01*
X43799122Y-25296895D02*
X43684836Y-25258800D01*
X43684836Y-25258800D02*
X43608646Y-25182609D01*
X43608646Y-25182609D02*
X43570551Y-25106419D01*
X43570551Y-25106419D02*
X43532455Y-24954038D01*
X43532455Y-24954038D02*
X43532455Y-24839752D01*
X43532455Y-24839752D02*
X43570551Y-24687371D01*
X43570551Y-24687371D02*
X43608646Y-24611180D01*
X43608646Y-24611180D02*
X43684836Y-24534990D01*
X43684836Y-24534990D02*
X43799122Y-24496895D01*
X43799122Y-24496895D02*
X43875313Y-24496895D01*
X43875313Y-24496895D02*
X43989598Y-24534990D01*
X43989598Y-24534990D02*
X44027694Y-24573085D01*
X44751503Y-25296895D02*
X44370551Y-25296895D01*
X44370551Y-25296895D02*
X44370551Y-24496895D01*
X45018170Y-25296895D02*
X45018170Y-24496895D01*
X45475313Y-25296895D02*
X45132455Y-24839752D01*
X45475313Y-24496895D02*
X45018170Y-24954038D01*
D12*
X80865093Y-43624411D02*
X79849093Y-43624411D01*
X79945855Y-43188982D02*
X79897474Y-43140601D01*
X79897474Y-43140601D02*
X79849093Y-43043839D01*
X79849093Y-43043839D02*
X79849093Y-42801934D01*
X79849093Y-42801934D02*
X79897474Y-42705172D01*
X79897474Y-42705172D02*
X79945855Y-42656791D01*
X79945855Y-42656791D02*
X80042617Y-42608410D01*
X80042617Y-42608410D02*
X80139379Y-42608410D01*
X80139379Y-42608410D02*
X80284522Y-42656791D01*
X80284522Y-42656791D02*
X80865093Y-43237363D01*
X80865093Y-43237363D02*
X80865093Y-42608410D01*
X80816713Y-42221363D02*
X80865093Y-42076220D01*
X80865093Y-42076220D02*
X80865093Y-41834315D01*
X80865093Y-41834315D02*
X80816713Y-41737553D01*
X80816713Y-41737553D02*
X80768332Y-41689172D01*
X80768332Y-41689172D02*
X80671570Y-41640791D01*
X80671570Y-41640791D02*
X80574808Y-41640791D01*
X80574808Y-41640791D02*
X80478046Y-41689172D01*
X80478046Y-41689172D02*
X80429665Y-41737553D01*
X80429665Y-41737553D02*
X80381284Y-41834315D01*
X80381284Y-41834315D02*
X80332903Y-42027839D01*
X80332903Y-42027839D02*
X80284522Y-42124601D01*
X80284522Y-42124601D02*
X80236141Y-42172982D01*
X80236141Y-42172982D02*
X80139379Y-42221363D01*
X80139379Y-42221363D02*
X80042617Y-42221363D01*
X80042617Y-42221363D02*
X79945855Y-42172982D01*
X79945855Y-42172982D02*
X79897474Y-42124601D01*
X79897474Y-42124601D02*
X79849093Y-42027839D01*
X79849093Y-42027839D02*
X79849093Y-41785934D01*
X79849093Y-41785934D02*
X79897474Y-41640791D01*
X80187760Y-40576411D02*
X80187760Y-40189363D01*
X79849093Y-40431268D02*
X80719951Y-40431268D01*
X80719951Y-40431268D02*
X80816713Y-40382887D01*
X80816713Y-40382887D02*
X80865093Y-40286125D01*
X80865093Y-40286125D02*
X80865093Y-40189363D01*
X80865093Y-39705554D02*
X80816713Y-39802316D01*
X80816713Y-39802316D02*
X80768332Y-39850697D01*
X80768332Y-39850697D02*
X80671570Y-39899078D01*
X80671570Y-39899078D02*
X80381284Y-39899078D01*
X80381284Y-39899078D02*
X80284522Y-39850697D01*
X80284522Y-39850697D02*
X80236141Y-39802316D01*
X80236141Y-39802316D02*
X80187760Y-39705554D01*
X80187760Y-39705554D02*
X80187760Y-39560411D01*
X80187760Y-39560411D02*
X80236141Y-39463649D01*
X80236141Y-39463649D02*
X80284522Y-39415268D01*
X80284522Y-39415268D02*
X80381284Y-39366887D01*
X80381284Y-39366887D02*
X80671570Y-39366887D01*
X80671570Y-39366887D02*
X80768332Y-39415268D01*
X80768332Y-39415268D02*
X80816713Y-39463649D01*
X80816713Y-39463649D02*
X80865093Y-39560411D01*
X80865093Y-39560411D02*
X80865093Y-39705554D01*
X79849093Y-38302507D02*
X79849093Y-37721935D01*
X80865093Y-38012221D02*
X79849093Y-38012221D01*
X80865093Y-37238126D02*
X80816713Y-37334888D01*
X80816713Y-37334888D02*
X80768332Y-37383269D01*
X80768332Y-37383269D02*
X80671570Y-37431650D01*
X80671570Y-37431650D02*
X80381284Y-37431650D01*
X80381284Y-37431650D02*
X80284522Y-37383269D01*
X80284522Y-37383269D02*
X80236141Y-37334888D01*
X80236141Y-37334888D02*
X80187760Y-37238126D01*
X80187760Y-37238126D02*
X80187760Y-37092983D01*
X80187760Y-37092983D02*
X80236141Y-36996221D01*
X80236141Y-36996221D02*
X80284522Y-36947840D01*
X80284522Y-36947840D02*
X80381284Y-36899459D01*
X80381284Y-36899459D02*
X80671570Y-36899459D01*
X80671570Y-36899459D02*
X80768332Y-36947840D01*
X80768332Y-36947840D02*
X80816713Y-36996221D01*
X80816713Y-36996221D02*
X80865093Y-37092983D01*
X80865093Y-37092983D02*
X80865093Y-37238126D01*
X80816713Y-36512412D02*
X80865093Y-36415650D01*
X80865093Y-36415650D02*
X80865093Y-36222126D01*
X80865093Y-36222126D02*
X80816713Y-36125364D01*
X80816713Y-36125364D02*
X80719951Y-36076983D01*
X80719951Y-36076983D02*
X80671570Y-36076983D01*
X80671570Y-36076983D02*
X80574808Y-36125364D01*
X80574808Y-36125364D02*
X80526427Y-36222126D01*
X80526427Y-36222126D02*
X80526427Y-36367269D01*
X80526427Y-36367269D02*
X80478046Y-36464031D01*
X80478046Y-36464031D02*
X80381284Y-36512412D01*
X80381284Y-36512412D02*
X80332903Y-36512412D01*
X80332903Y-36512412D02*
X80236141Y-36464031D01*
X80236141Y-36464031D02*
X80187760Y-36367269D01*
X80187760Y-36367269D02*
X80187760Y-36222126D01*
X80187760Y-36222126D02*
X80236141Y-36125364D01*
X80865093Y-35157745D02*
X80865093Y-35641555D01*
X80865093Y-35641555D02*
X79849093Y-35641555D01*
X80865093Y-34819079D02*
X80187760Y-34819079D01*
X79849093Y-34819079D02*
X79897474Y-34867460D01*
X79897474Y-34867460D02*
X79945855Y-34819079D01*
X79945855Y-34819079D02*
X79897474Y-34770698D01*
X79897474Y-34770698D02*
X79849093Y-34819079D01*
X79849093Y-34819079D02*
X79945855Y-34819079D01*
X80187760Y-34335269D02*
X80865093Y-34335269D01*
X80284522Y-34335269D02*
X80236141Y-34286888D01*
X80236141Y-34286888D02*
X80187760Y-34190126D01*
X80187760Y-34190126D02*
X80187760Y-34044983D01*
X80187760Y-34044983D02*
X80236141Y-33948221D01*
X80236141Y-33948221D02*
X80332903Y-33899840D01*
X80332903Y-33899840D02*
X80865093Y-33899840D01*
X80865093Y-33416031D02*
X79849093Y-33416031D01*
X80478046Y-33319269D02*
X80865093Y-33028983D01*
X80187760Y-33028983D02*
X80574808Y-33416031D01*
X80187760Y-31916222D02*
X80865093Y-31674317D01*
X80865093Y-31674317D02*
X80187760Y-31432412D01*
X79849093Y-30851841D02*
X79849093Y-30755079D01*
X79849093Y-30755079D02*
X79897474Y-30658317D01*
X79897474Y-30658317D02*
X79945855Y-30609936D01*
X79945855Y-30609936D02*
X80042617Y-30561555D01*
X80042617Y-30561555D02*
X80236141Y-30513174D01*
X80236141Y-30513174D02*
X80478046Y-30513174D01*
X80478046Y-30513174D02*
X80671570Y-30561555D01*
X80671570Y-30561555D02*
X80768332Y-30609936D01*
X80768332Y-30609936D02*
X80816713Y-30658317D01*
X80816713Y-30658317D02*
X80865093Y-30755079D01*
X80865093Y-30755079D02*
X80865093Y-30851841D01*
X80865093Y-30851841D02*
X80816713Y-30948603D01*
X80816713Y-30948603D02*
X80768332Y-30996984D01*
X80768332Y-30996984D02*
X80671570Y-31045365D01*
X80671570Y-31045365D02*
X80478046Y-31093746D01*
X80478046Y-31093746D02*
X80236141Y-31093746D01*
X80236141Y-31093746D02*
X80042617Y-31045365D01*
X80042617Y-31045365D02*
X79945855Y-30996984D01*
X79945855Y-30996984D02*
X79897474Y-30948603D01*
X79897474Y-30948603D02*
X79849093Y-30851841D01*
X80768332Y-30077746D02*
X80816713Y-30029365D01*
X80816713Y-30029365D02*
X80865093Y-30077746D01*
X80865093Y-30077746D02*
X80816713Y-30126127D01*
X80816713Y-30126127D02*
X80768332Y-30077746D01*
X80768332Y-30077746D02*
X80865093Y-30077746D01*
X79945855Y-29642317D02*
X79897474Y-29593936D01*
X79897474Y-29593936D02*
X79849093Y-29497174D01*
X79849093Y-29497174D02*
X79849093Y-29255269D01*
X79849093Y-29255269D02*
X79897474Y-29158507D01*
X79897474Y-29158507D02*
X79945855Y-29110126D01*
X79945855Y-29110126D02*
X80042617Y-29061745D01*
X80042617Y-29061745D02*
X80139379Y-29061745D01*
X80139379Y-29061745D02*
X80284522Y-29110126D01*
X80284522Y-29110126D02*
X80865093Y-29690698D01*
X80865093Y-29690698D02*
X80865093Y-29061745D01*
D10*
X50456265Y-23496895D02*
X50456265Y-22696895D01*
X50799121Y-22773085D02*
X50837217Y-22734990D01*
X50837217Y-22734990D02*
X50913407Y-22696895D01*
X50913407Y-22696895D02*
X51103883Y-22696895D01*
X51103883Y-22696895D02*
X51180074Y-22734990D01*
X51180074Y-22734990D02*
X51218169Y-22773085D01*
X51218169Y-22773085D02*
X51256264Y-22849276D01*
X51256264Y-22849276D02*
X51256264Y-22925466D01*
X51256264Y-22925466D02*
X51218169Y-23039752D01*
X51218169Y-23039752D02*
X50761026Y-23496895D01*
X50761026Y-23496895D02*
X51256264Y-23496895D01*
X51561026Y-23458800D02*
X51675312Y-23496895D01*
X51675312Y-23496895D02*
X51865788Y-23496895D01*
X51865788Y-23496895D02*
X51941979Y-23458800D01*
X51941979Y-23458800D02*
X51980074Y-23420704D01*
X51980074Y-23420704D02*
X52018169Y-23344514D01*
X52018169Y-23344514D02*
X52018169Y-23268323D01*
X52018169Y-23268323D02*
X51980074Y-23192133D01*
X51980074Y-23192133D02*
X51941979Y-23154038D01*
X51941979Y-23154038D02*
X51865788Y-23115942D01*
X51865788Y-23115942D02*
X51713407Y-23077847D01*
X51713407Y-23077847D02*
X51637217Y-23039752D01*
X51637217Y-23039752D02*
X51599122Y-23001657D01*
X51599122Y-23001657D02*
X51561026Y-22925466D01*
X51561026Y-22925466D02*
X51561026Y-22849276D01*
X51561026Y-22849276D02*
X51599122Y-22773085D01*
X51599122Y-22773085D02*
X51637217Y-22734990D01*
X51637217Y-22734990D02*
X51713407Y-22696895D01*
X51713407Y-22696895D02*
X51903884Y-22696895D01*
X51903884Y-22696895D02*
X52018169Y-22734990D01*
X52170551Y-23573085D02*
X52780074Y-23573085D01*
X52970551Y-23496895D02*
X52970551Y-22696895D01*
X52970551Y-22696895D02*
X53161027Y-22696895D01*
X53161027Y-22696895D02*
X53275313Y-22734990D01*
X53275313Y-22734990D02*
X53351503Y-22811180D01*
X53351503Y-22811180D02*
X53389598Y-22887371D01*
X53389598Y-22887371D02*
X53427694Y-23039752D01*
X53427694Y-23039752D02*
X53427694Y-23154038D01*
X53427694Y-23154038D02*
X53389598Y-23306419D01*
X53389598Y-23306419D02*
X53351503Y-23382609D01*
X53351503Y-23382609D02*
X53275313Y-23458800D01*
X53275313Y-23458800D02*
X53161027Y-23496895D01*
X53161027Y-23496895D02*
X52970551Y-23496895D01*
X53770551Y-23496895D02*
X53770551Y-22696895D01*
X54151503Y-23496895D02*
X54151503Y-22696895D01*
X54151503Y-22696895D02*
X54608646Y-23496895D01*
X54608646Y-23496895D02*
X54608646Y-22696895D01*
D11*
X27546303Y-38218104D02*
X27508207Y-38256200D01*
X27508207Y-38256200D02*
X27393922Y-38294295D01*
X27393922Y-38294295D02*
X27317731Y-38294295D01*
X27317731Y-38294295D02*
X27203445Y-38256200D01*
X27203445Y-38256200D02*
X27127255Y-38180009D01*
X27127255Y-38180009D02*
X27089160Y-38103819D01*
X27089160Y-38103819D02*
X27051064Y-37951438D01*
X27051064Y-37951438D02*
X27051064Y-37837152D01*
X27051064Y-37837152D02*
X27089160Y-37684771D01*
X27089160Y-37684771D02*
X27127255Y-37608580D01*
X27127255Y-37608580D02*
X27203445Y-37532390D01*
X27203445Y-37532390D02*
X27317731Y-37494295D01*
X27317731Y-37494295D02*
X27393922Y-37494295D01*
X27393922Y-37494295D02*
X27508207Y-37532390D01*
X27508207Y-37532390D02*
X27546303Y-37570485D01*
X28270112Y-38294295D02*
X27889160Y-38294295D01*
X27889160Y-38294295D02*
X27889160Y-37494295D01*
X28536779Y-38294295D02*
X28536779Y-37494295D01*
X28993922Y-38294295D02*
X28651064Y-37837152D01*
X28993922Y-37494295D02*
X28536779Y-37951438D01*
X29336779Y-38294295D02*
X29336779Y-37494295D01*
X29527255Y-38370485D02*
X30136778Y-38370485D01*
X30212969Y-37494295D02*
X30670112Y-37494295D01*
X30441540Y-38294295D02*
X30441540Y-37494295D01*
X30936779Y-38294295D02*
X30936779Y-37494295D01*
X30936779Y-37494295D02*
X31241541Y-37494295D01*
X31241541Y-37494295D02*
X31317731Y-37532390D01*
X31317731Y-37532390D02*
X31355826Y-37570485D01*
X31355826Y-37570485D02*
X31393922Y-37646676D01*
X31393922Y-37646676D02*
X31393922Y-37760961D01*
X31393922Y-37760961D02*
X31355826Y-37837152D01*
X31355826Y-37837152D02*
X31317731Y-37875247D01*
X31317731Y-37875247D02*
X31241541Y-37913342D01*
X31241541Y-37913342D02*
X30936779Y-37913342D01*
D10*
X46437217Y-23496895D02*
X46056265Y-23496895D01*
X46056265Y-23496895D02*
X46056265Y-22696895D01*
X47161027Y-23496895D02*
X46894360Y-23115942D01*
X46703884Y-23496895D02*
X46703884Y-22696895D01*
X46703884Y-22696895D02*
X47008646Y-22696895D01*
X47008646Y-22696895D02*
X47084836Y-22734990D01*
X47084836Y-22734990D02*
X47122931Y-22773085D01*
X47122931Y-22773085D02*
X47161027Y-22849276D01*
X47161027Y-22849276D02*
X47161027Y-22963561D01*
X47161027Y-22963561D02*
X47122931Y-23039752D01*
X47122931Y-23039752D02*
X47084836Y-23077847D01*
X47084836Y-23077847D02*
X47008646Y-23115942D01*
X47008646Y-23115942D02*
X46703884Y-23115942D01*
X47961027Y-23420704D02*
X47922931Y-23458800D01*
X47922931Y-23458800D02*
X47808646Y-23496895D01*
X47808646Y-23496895D02*
X47732455Y-23496895D01*
X47732455Y-23496895D02*
X47618169Y-23458800D01*
X47618169Y-23458800D02*
X47541979Y-23382609D01*
X47541979Y-23382609D02*
X47503884Y-23306419D01*
X47503884Y-23306419D02*
X47465788Y-23154038D01*
X47465788Y-23154038D02*
X47465788Y-23039752D01*
X47465788Y-23039752D02*
X47503884Y-22887371D01*
X47503884Y-22887371D02*
X47541979Y-22811180D01*
X47541979Y-22811180D02*
X47618169Y-22734990D01*
X47618169Y-22734990D02*
X47732455Y-22696895D01*
X47732455Y-22696895D02*
X47808646Y-22696895D01*
X47808646Y-22696895D02*
X47922931Y-22734990D01*
X47922931Y-22734990D02*
X47961027Y-22773085D01*
X48684836Y-23496895D02*
X48303884Y-23496895D01*
X48303884Y-23496895D02*
X48303884Y-22696895D01*
X48951503Y-23496895D02*
X48951503Y-22696895D01*
X49408646Y-23496895D02*
X49065788Y-23039752D01*
X49408646Y-22696895D02*
X48951503Y-23154038D01*
X40275312Y-24534990D02*
X40199122Y-24496895D01*
X40199122Y-24496895D02*
X40084836Y-24496895D01*
X40084836Y-24496895D02*
X39970550Y-24534990D01*
X39970550Y-24534990D02*
X39894360Y-24611180D01*
X39894360Y-24611180D02*
X39856265Y-24687371D01*
X39856265Y-24687371D02*
X39818169Y-24839752D01*
X39818169Y-24839752D02*
X39818169Y-24954038D01*
X39818169Y-24954038D02*
X39856265Y-25106419D01*
X39856265Y-25106419D02*
X39894360Y-25182609D01*
X39894360Y-25182609D02*
X39970550Y-25258800D01*
X39970550Y-25258800D02*
X40084836Y-25296895D01*
X40084836Y-25296895D02*
X40161027Y-25296895D01*
X40161027Y-25296895D02*
X40275312Y-25258800D01*
X40275312Y-25258800D02*
X40313408Y-25220704D01*
X40313408Y-25220704D02*
X40313408Y-24954038D01*
X40313408Y-24954038D02*
X40161027Y-24954038D01*
X40656265Y-25296895D02*
X40656265Y-24496895D01*
X40656265Y-24496895D02*
X41113408Y-25296895D01*
X41113408Y-25296895D02*
X41113408Y-24496895D01*
X41494360Y-25296895D02*
X41494360Y-24496895D01*
X41494360Y-24496895D02*
X41684836Y-24496895D01*
X41684836Y-24496895D02*
X41799122Y-24534990D01*
X41799122Y-24534990D02*
X41875312Y-24611180D01*
X41875312Y-24611180D02*
X41913407Y-24687371D01*
X41913407Y-24687371D02*
X41951503Y-24839752D01*
X41951503Y-24839752D02*
X41951503Y-24954038D01*
X41951503Y-24954038D02*
X41913407Y-25106419D01*
X41913407Y-25106419D02*
X41875312Y-25182609D01*
X41875312Y-25182609D02*
X41799122Y-25258800D01*
X41799122Y-25258800D02*
X41684836Y-25296895D01*
X41684836Y-25296895D02*
X41494360Y-25296895D01*
D11*
X64789160Y-80894295D02*
X64789160Y-80094295D01*
X64789160Y-80094295D02*
X65055826Y-80665723D01*
X65055826Y-80665723D02*
X65322493Y-80094295D01*
X65322493Y-80094295D02*
X65322493Y-80894295D01*
X66160589Y-80818104D02*
X66122493Y-80856200D01*
X66122493Y-80856200D02*
X66008208Y-80894295D01*
X66008208Y-80894295D02*
X65932017Y-80894295D01*
X65932017Y-80894295D02*
X65817731Y-80856200D01*
X65817731Y-80856200D02*
X65741541Y-80780009D01*
X65741541Y-80780009D02*
X65703446Y-80703819D01*
X65703446Y-80703819D02*
X65665350Y-80551438D01*
X65665350Y-80551438D02*
X65665350Y-80437152D01*
X65665350Y-80437152D02*
X65703446Y-80284771D01*
X65703446Y-80284771D02*
X65741541Y-80208580D01*
X65741541Y-80208580D02*
X65817731Y-80132390D01*
X65817731Y-80132390D02*
X65932017Y-80094295D01*
X65932017Y-80094295D02*
X66008208Y-80094295D01*
X66008208Y-80094295D02*
X66122493Y-80132390D01*
X66122493Y-80132390D02*
X66160589Y-80170485D01*
X66503446Y-80094295D02*
X66503446Y-80741914D01*
X66503446Y-80741914D02*
X66541541Y-80818104D01*
X66541541Y-80818104D02*
X66579636Y-80856200D01*
X66579636Y-80856200D02*
X66655827Y-80894295D01*
X66655827Y-80894295D02*
X66808208Y-80894295D01*
X66808208Y-80894295D02*
X66884398Y-80856200D01*
X66884398Y-80856200D02*
X66922493Y-80818104D01*
X66922493Y-80818104D02*
X66960589Y-80741914D01*
X66960589Y-80741914D02*
X66960589Y-80094295D01*
X68408208Y-80894295D02*
X68141541Y-80513342D01*
X67951065Y-80894295D02*
X67951065Y-80094295D01*
X67951065Y-80094295D02*
X68255827Y-80094295D01*
X68255827Y-80094295D02*
X68332017Y-80132390D01*
X68332017Y-80132390D02*
X68370112Y-80170485D01*
X68370112Y-80170485D02*
X68408208Y-80246676D01*
X68408208Y-80246676D02*
X68408208Y-80360961D01*
X68408208Y-80360961D02*
X68370112Y-80437152D01*
X68370112Y-80437152D02*
X68332017Y-80475247D01*
X68332017Y-80475247D02*
X68255827Y-80513342D01*
X68255827Y-80513342D02*
X67951065Y-80513342D01*
X69055827Y-80856200D02*
X68979636Y-80894295D01*
X68979636Y-80894295D02*
X68827255Y-80894295D01*
X68827255Y-80894295D02*
X68751065Y-80856200D01*
X68751065Y-80856200D02*
X68712969Y-80780009D01*
X68712969Y-80780009D02*
X68712969Y-80475247D01*
X68712969Y-80475247D02*
X68751065Y-80399057D01*
X68751065Y-80399057D02*
X68827255Y-80360961D01*
X68827255Y-80360961D02*
X68979636Y-80360961D01*
X68979636Y-80360961D02*
X69055827Y-80399057D01*
X69055827Y-80399057D02*
X69093922Y-80475247D01*
X69093922Y-80475247D02*
X69093922Y-80551438D01*
X69093922Y-80551438D02*
X68712969Y-80627628D01*
X69398683Y-80856200D02*
X69474874Y-80894295D01*
X69474874Y-80894295D02*
X69627255Y-80894295D01*
X69627255Y-80894295D02*
X69703445Y-80856200D01*
X69703445Y-80856200D02*
X69741541Y-80780009D01*
X69741541Y-80780009D02*
X69741541Y-80741914D01*
X69741541Y-80741914D02*
X69703445Y-80665723D01*
X69703445Y-80665723D02*
X69627255Y-80627628D01*
X69627255Y-80627628D02*
X69512969Y-80627628D01*
X69512969Y-80627628D02*
X69436779Y-80589533D01*
X69436779Y-80589533D02*
X69398683Y-80513342D01*
X69398683Y-80513342D02*
X69398683Y-80475247D01*
X69398683Y-80475247D02*
X69436779Y-80399057D01*
X69436779Y-80399057D02*
X69512969Y-80360961D01*
X69512969Y-80360961D02*
X69627255Y-80360961D01*
X69627255Y-80360961D02*
X69703445Y-80399057D01*
X70389160Y-80856200D02*
X70312969Y-80894295D01*
X70312969Y-80894295D02*
X70160588Y-80894295D01*
X70160588Y-80894295D02*
X70084398Y-80856200D01*
X70084398Y-80856200D02*
X70046302Y-80780009D01*
X70046302Y-80780009D02*
X70046302Y-80475247D01*
X70046302Y-80475247D02*
X70084398Y-80399057D01*
X70084398Y-80399057D02*
X70160588Y-80360961D01*
X70160588Y-80360961D02*
X70312969Y-80360961D01*
X70312969Y-80360961D02*
X70389160Y-80399057D01*
X70389160Y-80399057D02*
X70427255Y-80475247D01*
X70427255Y-80475247D02*
X70427255Y-80551438D01*
X70427255Y-80551438D02*
X70046302Y-80627628D01*
X70655826Y-80360961D02*
X70960588Y-80360961D01*
X70770112Y-80094295D02*
X70770112Y-80780009D01*
X70770112Y-80780009D02*
X70808207Y-80856200D01*
X70808207Y-80856200D02*
X70884397Y-80894295D01*
X70884397Y-80894295D02*
X70960588Y-80894295D01*
D12*
X80768332Y-73043839D02*
X80816713Y-73092220D01*
X80816713Y-73092220D02*
X80865093Y-73237363D01*
X80865093Y-73237363D02*
X80865093Y-73334125D01*
X80865093Y-73334125D02*
X80816713Y-73479268D01*
X80816713Y-73479268D02*
X80719951Y-73576030D01*
X80719951Y-73576030D02*
X80623189Y-73624411D01*
X80623189Y-73624411D02*
X80429665Y-73672792D01*
X80429665Y-73672792D02*
X80284522Y-73672792D01*
X80284522Y-73672792D02*
X80090998Y-73624411D01*
X80090998Y-73624411D02*
X79994236Y-73576030D01*
X79994236Y-73576030D02*
X79897474Y-73479268D01*
X79897474Y-73479268D02*
X79849093Y-73334125D01*
X79849093Y-73334125D02*
X79849093Y-73237363D01*
X79849093Y-73237363D02*
X79897474Y-73092220D01*
X79897474Y-73092220D02*
X79945855Y-73043839D01*
X80865093Y-72463268D02*
X80816713Y-72560030D01*
X80816713Y-72560030D02*
X80768332Y-72608411D01*
X80768332Y-72608411D02*
X80671570Y-72656792D01*
X80671570Y-72656792D02*
X80381284Y-72656792D01*
X80381284Y-72656792D02*
X80284522Y-72608411D01*
X80284522Y-72608411D02*
X80236141Y-72560030D01*
X80236141Y-72560030D02*
X80187760Y-72463268D01*
X80187760Y-72463268D02*
X80187760Y-72318125D01*
X80187760Y-72318125D02*
X80236141Y-72221363D01*
X80236141Y-72221363D02*
X80284522Y-72172982D01*
X80284522Y-72172982D02*
X80381284Y-72124601D01*
X80381284Y-72124601D02*
X80671570Y-72124601D01*
X80671570Y-72124601D02*
X80768332Y-72172982D01*
X80768332Y-72172982D02*
X80816713Y-72221363D01*
X80816713Y-72221363D02*
X80865093Y-72318125D01*
X80865093Y-72318125D02*
X80865093Y-72463268D01*
X80187760Y-71689173D02*
X81203760Y-71689173D01*
X80236141Y-71689173D02*
X80187760Y-71592411D01*
X80187760Y-71592411D02*
X80187760Y-71398887D01*
X80187760Y-71398887D02*
X80236141Y-71302125D01*
X80236141Y-71302125D02*
X80284522Y-71253744D01*
X80284522Y-71253744D02*
X80381284Y-71205363D01*
X80381284Y-71205363D02*
X80671570Y-71205363D01*
X80671570Y-71205363D02*
X80768332Y-71253744D01*
X80768332Y-71253744D02*
X80816713Y-71302125D01*
X80816713Y-71302125D02*
X80865093Y-71398887D01*
X80865093Y-71398887D02*
X80865093Y-71592411D01*
X80865093Y-71592411D02*
X80816713Y-71689173D01*
X80187760Y-70866697D02*
X80865093Y-70624792D01*
X80187760Y-70382887D02*
X80865093Y-70624792D01*
X80865093Y-70624792D02*
X81106998Y-70721554D01*
X81106998Y-70721554D02*
X81155379Y-70769935D01*
X81155379Y-70769935D02*
X81203760Y-70866697D01*
X80865093Y-69995840D02*
X80187760Y-69995840D01*
X80381284Y-69995840D02*
X80284522Y-69947459D01*
X80284522Y-69947459D02*
X80236141Y-69899078D01*
X80236141Y-69899078D02*
X80187760Y-69802316D01*
X80187760Y-69802316D02*
X80187760Y-69705554D01*
X80865093Y-69366888D02*
X80187760Y-69366888D01*
X79849093Y-69366888D02*
X79897474Y-69415269D01*
X79897474Y-69415269D02*
X79945855Y-69366888D01*
X79945855Y-69366888D02*
X79897474Y-69318507D01*
X79897474Y-69318507D02*
X79849093Y-69366888D01*
X79849093Y-69366888D02*
X79945855Y-69366888D01*
X80187760Y-68447649D02*
X81010236Y-68447649D01*
X81010236Y-68447649D02*
X81106998Y-68496030D01*
X81106998Y-68496030D02*
X81155379Y-68544411D01*
X81155379Y-68544411D02*
X81203760Y-68641173D01*
X81203760Y-68641173D02*
X81203760Y-68786316D01*
X81203760Y-68786316D02*
X81155379Y-68883078D01*
X80816713Y-68447649D02*
X80865093Y-68544411D01*
X80865093Y-68544411D02*
X80865093Y-68737935D01*
X80865093Y-68737935D02*
X80816713Y-68834697D01*
X80816713Y-68834697D02*
X80768332Y-68883078D01*
X80768332Y-68883078D02*
X80671570Y-68931459D01*
X80671570Y-68931459D02*
X80381284Y-68931459D01*
X80381284Y-68931459D02*
X80284522Y-68883078D01*
X80284522Y-68883078D02*
X80236141Y-68834697D01*
X80236141Y-68834697D02*
X80187760Y-68737935D01*
X80187760Y-68737935D02*
X80187760Y-68544411D01*
X80187760Y-68544411D02*
X80236141Y-68447649D01*
X80865093Y-67963840D02*
X79849093Y-67963840D01*
X80865093Y-67528411D02*
X80332903Y-67528411D01*
X80332903Y-67528411D02*
X80236141Y-67576792D01*
X80236141Y-67576792D02*
X80187760Y-67673554D01*
X80187760Y-67673554D02*
X80187760Y-67818697D01*
X80187760Y-67818697D02*
X80236141Y-67915459D01*
X80236141Y-67915459D02*
X80284522Y-67963840D01*
X80187760Y-67189745D02*
X80187760Y-66802697D01*
X79849093Y-67044602D02*
X80719951Y-67044602D01*
X80719951Y-67044602D02*
X80816713Y-66996221D01*
X80816713Y-66996221D02*
X80865093Y-66899459D01*
X80865093Y-66899459D02*
X80865093Y-66802697D01*
X81252141Y-65399650D02*
X81203760Y-65448031D01*
X81203760Y-65448031D02*
X81058617Y-65544793D01*
X81058617Y-65544793D02*
X80961855Y-65593174D01*
X80961855Y-65593174D02*
X80816713Y-65641555D01*
X80816713Y-65641555D02*
X80574808Y-65689936D01*
X80574808Y-65689936D02*
X80381284Y-65689936D01*
X80381284Y-65689936D02*
X80139379Y-65641555D01*
X80139379Y-65641555D02*
X79994236Y-65593174D01*
X79994236Y-65593174D02*
X79897474Y-65544793D01*
X79897474Y-65544793D02*
X79752332Y-65448031D01*
X79752332Y-65448031D02*
X79703951Y-65399650D01*
X80768332Y-64432031D02*
X80816713Y-64480412D01*
X80816713Y-64480412D02*
X80865093Y-64625555D01*
X80865093Y-64625555D02*
X80865093Y-64722317D01*
X80865093Y-64722317D02*
X80816713Y-64867460D01*
X80816713Y-64867460D02*
X80719951Y-64964222D01*
X80719951Y-64964222D02*
X80623189Y-65012603D01*
X80623189Y-65012603D02*
X80429665Y-65060984D01*
X80429665Y-65060984D02*
X80284522Y-65060984D01*
X80284522Y-65060984D02*
X80090998Y-65012603D01*
X80090998Y-65012603D02*
X79994236Y-64964222D01*
X79994236Y-64964222D02*
X79897474Y-64867460D01*
X79897474Y-64867460D02*
X79849093Y-64722317D01*
X79849093Y-64722317D02*
X79849093Y-64625555D01*
X79849093Y-64625555D02*
X79897474Y-64480412D01*
X79897474Y-64480412D02*
X79945855Y-64432031D01*
X81252141Y-64093365D02*
X81203760Y-64044984D01*
X81203760Y-64044984D02*
X81058617Y-63948222D01*
X81058617Y-63948222D02*
X80961855Y-63899841D01*
X80961855Y-63899841D02*
X80816713Y-63851460D01*
X80816713Y-63851460D02*
X80574808Y-63803079D01*
X80574808Y-63803079D02*
X80381284Y-63803079D01*
X80381284Y-63803079D02*
X80139379Y-63851460D01*
X80139379Y-63851460D02*
X79994236Y-63899841D01*
X79994236Y-63899841D02*
X79897474Y-63948222D01*
X79897474Y-63948222D02*
X79752332Y-64044984D01*
X79752332Y-64044984D02*
X79703951Y-64093365D01*
X79945855Y-62593556D02*
X79897474Y-62545175D01*
X79897474Y-62545175D02*
X79849093Y-62448413D01*
X79849093Y-62448413D02*
X79849093Y-62206508D01*
X79849093Y-62206508D02*
X79897474Y-62109746D01*
X79897474Y-62109746D02*
X79945855Y-62061365D01*
X79945855Y-62061365D02*
X80042617Y-62012984D01*
X80042617Y-62012984D02*
X80139379Y-62012984D01*
X80139379Y-62012984D02*
X80284522Y-62061365D01*
X80284522Y-62061365D02*
X80865093Y-62641937D01*
X80865093Y-62641937D02*
X80865093Y-62012984D01*
X79849093Y-61384032D02*
X79849093Y-61287270D01*
X79849093Y-61287270D02*
X79897474Y-61190508D01*
X79897474Y-61190508D02*
X79945855Y-61142127D01*
X79945855Y-61142127D02*
X80042617Y-61093746D01*
X80042617Y-61093746D02*
X80236141Y-61045365D01*
X80236141Y-61045365D02*
X80478046Y-61045365D01*
X80478046Y-61045365D02*
X80671570Y-61093746D01*
X80671570Y-61093746D02*
X80768332Y-61142127D01*
X80768332Y-61142127D02*
X80816713Y-61190508D01*
X80816713Y-61190508D02*
X80865093Y-61287270D01*
X80865093Y-61287270D02*
X80865093Y-61384032D01*
X80865093Y-61384032D02*
X80816713Y-61480794D01*
X80816713Y-61480794D02*
X80768332Y-61529175D01*
X80768332Y-61529175D02*
X80671570Y-61577556D01*
X80671570Y-61577556D02*
X80478046Y-61625937D01*
X80478046Y-61625937D02*
X80236141Y-61625937D01*
X80236141Y-61625937D02*
X80042617Y-61577556D01*
X80042617Y-61577556D02*
X79945855Y-61529175D01*
X79945855Y-61529175D02*
X79897474Y-61480794D01*
X79897474Y-61480794D02*
X79849093Y-61384032D01*
X79945855Y-60658318D02*
X79897474Y-60609937D01*
X79897474Y-60609937D02*
X79849093Y-60513175D01*
X79849093Y-60513175D02*
X79849093Y-60271270D01*
X79849093Y-60271270D02*
X79897474Y-60174508D01*
X79897474Y-60174508D02*
X79945855Y-60126127D01*
X79945855Y-60126127D02*
X80042617Y-60077746D01*
X80042617Y-60077746D02*
X80139379Y-60077746D01*
X80139379Y-60077746D02*
X80284522Y-60126127D01*
X80284522Y-60126127D02*
X80865093Y-60706699D01*
X80865093Y-60706699D02*
X80865093Y-60077746D01*
X80187760Y-59206889D02*
X80865093Y-59206889D01*
X79800713Y-59448794D02*
X80526427Y-59690699D01*
X80526427Y-59690699D02*
X80526427Y-59061746D01*
X80865093Y-57900604D02*
X79849093Y-57900604D01*
X79849093Y-57900604D02*
X80574808Y-57561937D01*
X80574808Y-57561937D02*
X79849093Y-57223270D01*
X79849093Y-57223270D02*
X80865093Y-57223270D01*
X80865093Y-56739461D02*
X80187760Y-56739461D01*
X79849093Y-56739461D02*
X79897474Y-56787842D01*
X79897474Y-56787842D02*
X79945855Y-56739461D01*
X79945855Y-56739461D02*
X79897474Y-56691080D01*
X79897474Y-56691080D02*
X79849093Y-56739461D01*
X79849093Y-56739461D02*
X79945855Y-56739461D01*
X80865093Y-56255651D02*
X79849093Y-56255651D01*
X80478046Y-56158889D02*
X80865093Y-55868603D01*
X80187760Y-55868603D02*
X80574808Y-56255651D01*
X80865093Y-54997746D02*
X80332903Y-54997746D01*
X80332903Y-54997746D02*
X80236141Y-55046127D01*
X80236141Y-55046127D02*
X80187760Y-55142889D01*
X80187760Y-55142889D02*
X80187760Y-55336413D01*
X80187760Y-55336413D02*
X80236141Y-55433175D01*
X80816713Y-54997746D02*
X80865093Y-55094508D01*
X80865093Y-55094508D02*
X80865093Y-55336413D01*
X80865093Y-55336413D02*
X80816713Y-55433175D01*
X80816713Y-55433175D02*
X80719951Y-55481556D01*
X80719951Y-55481556D02*
X80623189Y-55481556D01*
X80623189Y-55481556D02*
X80526427Y-55433175D01*
X80526427Y-55433175D02*
X80478046Y-55336413D01*
X80478046Y-55336413D02*
X80478046Y-55094508D01*
X80478046Y-55094508D02*
X80429665Y-54997746D01*
X80865093Y-53256032D02*
X80865093Y-53739842D01*
X80865093Y-53739842D02*
X79849093Y-53739842D01*
X80865093Y-52481937D02*
X80332903Y-52481937D01*
X80332903Y-52481937D02*
X80236141Y-52530318D01*
X80236141Y-52530318D02*
X80187760Y-52627080D01*
X80187760Y-52627080D02*
X80187760Y-52820604D01*
X80187760Y-52820604D02*
X80236141Y-52917366D01*
X80816713Y-52481937D02*
X80865093Y-52578699D01*
X80865093Y-52578699D02*
X80865093Y-52820604D01*
X80865093Y-52820604D02*
X80816713Y-52917366D01*
X80816713Y-52917366D02*
X80719951Y-52965747D01*
X80719951Y-52965747D02*
X80623189Y-52965747D01*
X80623189Y-52965747D02*
X80526427Y-52917366D01*
X80526427Y-52917366D02*
X80478046Y-52820604D01*
X80478046Y-52820604D02*
X80478046Y-52578699D01*
X80478046Y-52578699D02*
X80429665Y-52481937D01*
X80865093Y-51998128D02*
X80187760Y-51998128D01*
X79849093Y-51998128D02*
X79897474Y-52046509D01*
X79897474Y-52046509D02*
X79945855Y-51998128D01*
X79945855Y-51998128D02*
X79897474Y-51949747D01*
X79897474Y-51949747D02*
X79849093Y-51998128D01*
X79849093Y-51998128D02*
X79945855Y-51998128D01*
X80187760Y-51659461D02*
X80187760Y-51272413D01*
X79849093Y-51514318D02*
X80719951Y-51514318D01*
X80719951Y-51514318D02*
X80816713Y-51465937D01*
X80816713Y-51465937D02*
X80865093Y-51369175D01*
X80865093Y-51369175D02*
X80865093Y-51272413D01*
X80865093Y-50933747D02*
X80187760Y-50933747D01*
X79849093Y-50933747D02*
X79897474Y-50982128D01*
X79897474Y-50982128D02*
X79945855Y-50933747D01*
X79945855Y-50933747D02*
X79897474Y-50885366D01*
X79897474Y-50885366D02*
X79849093Y-50933747D01*
X79849093Y-50933747D02*
X79945855Y-50933747D01*
X80865093Y-50304794D02*
X80816713Y-50401556D01*
X80816713Y-50401556D02*
X80768332Y-50449937D01*
X80768332Y-50449937D02*
X80671570Y-50498318D01*
X80671570Y-50498318D02*
X80381284Y-50498318D01*
X80381284Y-50498318D02*
X80284522Y-50449937D01*
X80284522Y-50449937D02*
X80236141Y-50401556D01*
X80236141Y-50401556D02*
X80187760Y-50304794D01*
X80187760Y-50304794D02*
X80187760Y-50159651D01*
X80187760Y-50159651D02*
X80236141Y-50062889D01*
X80236141Y-50062889D02*
X80284522Y-50014508D01*
X80284522Y-50014508D02*
X80381284Y-49966127D01*
X80381284Y-49966127D02*
X80671570Y-49966127D01*
X80671570Y-49966127D02*
X80768332Y-50014508D01*
X80768332Y-50014508D02*
X80816713Y-50062889D01*
X80816713Y-50062889D02*
X80865093Y-50159651D01*
X80865093Y-50159651D02*
X80865093Y-50304794D01*
D11*
X23018104Y-32053696D02*
X23056200Y-32091792D01*
X23056200Y-32091792D02*
X23094295Y-32206077D01*
X23094295Y-32206077D02*
X23094295Y-32282268D01*
X23094295Y-32282268D02*
X23056200Y-32396554D01*
X23056200Y-32396554D02*
X22980009Y-32472744D01*
X22980009Y-32472744D02*
X22903819Y-32510839D01*
X22903819Y-32510839D02*
X22751438Y-32548935D01*
X22751438Y-32548935D02*
X22637152Y-32548935D01*
X22637152Y-32548935D02*
X22484771Y-32510839D01*
X22484771Y-32510839D02*
X22408580Y-32472744D01*
X22408580Y-32472744D02*
X22332390Y-32396554D01*
X22332390Y-32396554D02*
X22294295Y-32282268D01*
X22294295Y-32282268D02*
X22294295Y-32206077D01*
X22294295Y-32206077D02*
X22332390Y-32091792D01*
X22332390Y-32091792D02*
X22370485Y-32053696D01*
X23094295Y-31329887D02*
X23094295Y-31710839D01*
X23094295Y-31710839D02*
X22294295Y-31710839D01*
X23094295Y-31063220D02*
X22294295Y-31063220D01*
X23094295Y-30606077D02*
X22637152Y-30948935D01*
X22294295Y-30606077D02*
X22751438Y-31063220D01*
X22294295Y-30110839D02*
X22294295Y-29958458D01*
X22294295Y-29958458D02*
X22332390Y-29882268D01*
X22332390Y-29882268D02*
X22408580Y-29806077D01*
X22408580Y-29806077D02*
X22560961Y-29767982D01*
X22560961Y-29767982D02*
X22827628Y-29767982D01*
X22827628Y-29767982D02*
X22980009Y-29806077D01*
X22980009Y-29806077D02*
X23056200Y-29882268D01*
X23056200Y-29882268D02*
X23094295Y-29958458D01*
X23094295Y-29958458D02*
X23094295Y-30110839D01*
X23094295Y-30110839D02*
X23056200Y-30187030D01*
X23056200Y-30187030D02*
X22980009Y-30263220D01*
X22980009Y-30263220D02*
X22827628Y-30301316D01*
X22827628Y-30301316D02*
X22560961Y-30301316D01*
X22560961Y-30301316D02*
X22408580Y-30263220D01*
X22408580Y-30263220D02*
X22332390Y-30187030D01*
X22332390Y-30187030D02*
X22294295Y-30110839D01*
X23170485Y-29615602D02*
X23170485Y-29006078D01*
X22294295Y-28929887D02*
X22294295Y-28472744D01*
X23094295Y-28701316D02*
X22294295Y-28701316D01*
X23094295Y-28206077D02*
X22294295Y-28206077D01*
X22294295Y-28206077D02*
X22294295Y-27901315D01*
X22294295Y-27901315D02*
X22332390Y-27825125D01*
X22332390Y-27825125D02*
X22370485Y-27787030D01*
X22370485Y-27787030D02*
X22446676Y-27748934D01*
X22446676Y-27748934D02*
X22560961Y-27748934D01*
X22560961Y-27748934D02*
X22637152Y-27787030D01*
X22637152Y-27787030D02*
X22675247Y-27825125D01*
X22675247Y-27825125D02*
X22713342Y-27901315D01*
X22713342Y-27901315D02*
X22713342Y-28206077D01*
X32815342Y-74580951D02*
X33196295Y-74580951D01*
X32396295Y-74847618D02*
X32815342Y-74580951D01*
X32815342Y-74580951D02*
X32396295Y-74314285D01*
X33196295Y-73628571D02*
X33196295Y-74085714D01*
X33196295Y-73857142D02*
X32396295Y-73857142D01*
X32396295Y-73857142D02*
X32510580Y-73933333D01*
X32510580Y-73933333D02*
X32586771Y-74009523D01*
X32586771Y-74009523D02*
X32624866Y-74085714D01*
X33485714Y-57762295D02*
X33219047Y-57381342D01*
X33028571Y-57762295D02*
X33028571Y-56962295D01*
X33028571Y-56962295D02*
X33333333Y-56962295D01*
X33333333Y-56962295D02*
X33409523Y-57000390D01*
X33409523Y-57000390D02*
X33447618Y-57038485D01*
X33447618Y-57038485D02*
X33485714Y-57114676D01*
X33485714Y-57114676D02*
X33485714Y-57228961D01*
X33485714Y-57228961D02*
X33447618Y-57305152D01*
X33447618Y-57305152D02*
X33409523Y-57343247D01*
X33409523Y-57343247D02*
X33333333Y-57381342D01*
X33333333Y-57381342D02*
X33028571Y-57381342D01*
X34247618Y-57762295D02*
X33790475Y-57762295D01*
X34019047Y-57762295D02*
X34019047Y-56962295D01*
X34019047Y-56962295D02*
X33942856Y-57076580D01*
X33942856Y-57076580D02*
X33866666Y-57152771D01*
X33866666Y-57152771D02*
X33790475Y-57190866D01*
X34628571Y-57762295D02*
X34780952Y-57762295D01*
X34780952Y-57762295D02*
X34857142Y-57724200D01*
X34857142Y-57724200D02*
X34895238Y-57686104D01*
X34895238Y-57686104D02*
X34971428Y-57571819D01*
X34971428Y-57571819D02*
X35009523Y-57419438D01*
X35009523Y-57419438D02*
X35009523Y-57114676D01*
X35009523Y-57114676D02*
X34971428Y-57038485D01*
X34971428Y-57038485D02*
X34933333Y-57000390D01*
X34933333Y-57000390D02*
X34857142Y-56962295D01*
X34857142Y-56962295D02*
X34704761Y-56962295D01*
X34704761Y-56962295D02*
X34628571Y-57000390D01*
X34628571Y-57000390D02*
X34590476Y-57038485D01*
X34590476Y-57038485D02*
X34552380Y-57114676D01*
X34552380Y-57114676D02*
X34552380Y-57305152D01*
X34552380Y-57305152D02*
X34590476Y-57381342D01*
X34590476Y-57381342D02*
X34628571Y-57419438D01*
X34628571Y-57419438D02*
X34704761Y-57457533D01*
X34704761Y-57457533D02*
X34857142Y-57457533D01*
X34857142Y-57457533D02*
X34933333Y-57419438D01*
X34933333Y-57419438D02*
X34971428Y-57381342D01*
X34971428Y-57381342D02*
X35009523Y-57305152D01*
X61286104Y-32489285D02*
X61324200Y-32527381D01*
X61324200Y-32527381D02*
X61362295Y-32641666D01*
X61362295Y-32641666D02*
X61362295Y-32717857D01*
X61362295Y-32717857D02*
X61324200Y-32832143D01*
X61324200Y-32832143D02*
X61248009Y-32908333D01*
X61248009Y-32908333D02*
X61171819Y-32946428D01*
X61171819Y-32946428D02*
X61019438Y-32984524D01*
X61019438Y-32984524D02*
X60905152Y-32984524D01*
X60905152Y-32984524D02*
X60752771Y-32946428D01*
X60752771Y-32946428D02*
X60676580Y-32908333D01*
X60676580Y-32908333D02*
X60600390Y-32832143D01*
X60600390Y-32832143D02*
X60562295Y-32717857D01*
X60562295Y-32717857D02*
X60562295Y-32641666D01*
X60562295Y-32641666D02*
X60600390Y-32527381D01*
X60600390Y-32527381D02*
X60638485Y-32489285D01*
X61362295Y-31727381D02*
X61362295Y-32184524D01*
X61362295Y-31955952D02*
X60562295Y-31955952D01*
X60562295Y-31955952D02*
X60676580Y-32032143D01*
X60676580Y-32032143D02*
X60752771Y-32108333D01*
X60752771Y-32108333D02*
X60790866Y-32184524D01*
X60905152Y-31270238D02*
X60867057Y-31346428D01*
X60867057Y-31346428D02*
X60828961Y-31384523D01*
X60828961Y-31384523D02*
X60752771Y-31422619D01*
X60752771Y-31422619D02*
X60714676Y-31422619D01*
X60714676Y-31422619D02*
X60638485Y-31384523D01*
X60638485Y-31384523D02*
X60600390Y-31346428D01*
X60600390Y-31346428D02*
X60562295Y-31270238D01*
X60562295Y-31270238D02*
X60562295Y-31117857D01*
X60562295Y-31117857D02*
X60600390Y-31041666D01*
X60600390Y-31041666D02*
X60638485Y-31003571D01*
X60638485Y-31003571D02*
X60714676Y-30965476D01*
X60714676Y-30965476D02*
X60752771Y-30965476D01*
X60752771Y-30965476D02*
X60828961Y-31003571D01*
X60828961Y-31003571D02*
X60867057Y-31041666D01*
X60867057Y-31041666D02*
X60905152Y-31117857D01*
X60905152Y-31117857D02*
X60905152Y-31270238D01*
X60905152Y-31270238D02*
X60943247Y-31346428D01*
X60943247Y-31346428D02*
X60981342Y-31384523D01*
X60981342Y-31384523D02*
X61057533Y-31422619D01*
X61057533Y-31422619D02*
X61209914Y-31422619D01*
X61209914Y-31422619D02*
X61286104Y-31384523D01*
X61286104Y-31384523D02*
X61324200Y-31346428D01*
X61324200Y-31346428D02*
X61362295Y-31270238D01*
X61362295Y-31270238D02*
X61362295Y-31117857D01*
X61362295Y-31117857D02*
X61324200Y-31041666D01*
X61324200Y-31041666D02*
X61286104Y-31003571D01*
X61286104Y-31003571D02*
X61209914Y-30965476D01*
X61209914Y-30965476D02*
X61057533Y-30965476D01*
X61057533Y-30965476D02*
X60981342Y-31003571D01*
X60981342Y-31003571D02*
X60943247Y-31041666D01*
X60943247Y-31041666D02*
X60905152Y-31117857D01*
X66285714Y-48893695D02*
X66019047Y-48512742D01*
X65828571Y-48893695D02*
X65828571Y-48093695D01*
X65828571Y-48093695D02*
X66133333Y-48093695D01*
X66133333Y-48093695D02*
X66209523Y-48131790D01*
X66209523Y-48131790D02*
X66247618Y-48169885D01*
X66247618Y-48169885D02*
X66285714Y-48246076D01*
X66285714Y-48246076D02*
X66285714Y-48360361D01*
X66285714Y-48360361D02*
X66247618Y-48436552D01*
X66247618Y-48436552D02*
X66209523Y-48474647D01*
X66209523Y-48474647D02*
X66133333Y-48512742D01*
X66133333Y-48512742D02*
X65828571Y-48512742D01*
X67047618Y-48893695D02*
X66590475Y-48893695D01*
X66819047Y-48893695D02*
X66819047Y-48093695D01*
X66819047Y-48093695D02*
X66742856Y-48207980D01*
X66742856Y-48207980D02*
X66666666Y-48284171D01*
X66666666Y-48284171D02*
X66590475Y-48322266D01*
X67542857Y-48093695D02*
X67619047Y-48093695D01*
X67619047Y-48093695D02*
X67695238Y-48131790D01*
X67695238Y-48131790D02*
X67733333Y-48169885D01*
X67733333Y-48169885D02*
X67771428Y-48246076D01*
X67771428Y-48246076D02*
X67809523Y-48398457D01*
X67809523Y-48398457D02*
X67809523Y-48588933D01*
X67809523Y-48588933D02*
X67771428Y-48741314D01*
X67771428Y-48741314D02*
X67733333Y-48817504D01*
X67733333Y-48817504D02*
X67695238Y-48855600D01*
X67695238Y-48855600D02*
X67619047Y-48893695D01*
X67619047Y-48893695D02*
X67542857Y-48893695D01*
X67542857Y-48893695D02*
X67466666Y-48855600D01*
X67466666Y-48855600D02*
X67428571Y-48817504D01*
X67428571Y-48817504D02*
X67390476Y-48741314D01*
X67390476Y-48741314D02*
X67352380Y-48588933D01*
X67352380Y-48588933D02*
X67352380Y-48398457D01*
X67352380Y-48398457D02*
X67390476Y-48246076D01*
X67390476Y-48246076D02*
X67428571Y-48169885D01*
X67428571Y-48169885D02*
X67466666Y-48131790D01*
X67466666Y-48131790D02*
X67542857Y-48093695D01*
X36085714Y-76686104D02*
X36047618Y-76724200D01*
X36047618Y-76724200D02*
X35933333Y-76762295D01*
X35933333Y-76762295D02*
X35857142Y-76762295D01*
X35857142Y-76762295D02*
X35742856Y-76724200D01*
X35742856Y-76724200D02*
X35666666Y-76648009D01*
X35666666Y-76648009D02*
X35628571Y-76571819D01*
X35628571Y-76571819D02*
X35590475Y-76419438D01*
X35590475Y-76419438D02*
X35590475Y-76305152D01*
X35590475Y-76305152D02*
X35628571Y-76152771D01*
X35628571Y-76152771D02*
X35666666Y-76076580D01*
X35666666Y-76076580D02*
X35742856Y-76000390D01*
X35742856Y-76000390D02*
X35857142Y-75962295D01*
X35857142Y-75962295D02*
X35933333Y-75962295D01*
X35933333Y-75962295D02*
X36047618Y-76000390D01*
X36047618Y-76000390D02*
X36085714Y-76038485D01*
X36847618Y-76762295D02*
X36390475Y-76762295D01*
X36619047Y-76762295D02*
X36619047Y-75962295D01*
X36619047Y-75962295D02*
X36542856Y-76076580D01*
X36542856Y-76076580D02*
X36466666Y-76152771D01*
X36466666Y-76152771D02*
X36390475Y-76190866D01*
X37342857Y-75962295D02*
X37419047Y-75962295D01*
X37419047Y-75962295D02*
X37495238Y-76000390D01*
X37495238Y-76000390D02*
X37533333Y-76038485D01*
X37533333Y-76038485D02*
X37571428Y-76114676D01*
X37571428Y-76114676D02*
X37609523Y-76267057D01*
X37609523Y-76267057D02*
X37609523Y-76457533D01*
X37609523Y-76457533D02*
X37571428Y-76609914D01*
X37571428Y-76609914D02*
X37533333Y-76686104D01*
X37533333Y-76686104D02*
X37495238Y-76724200D01*
X37495238Y-76724200D02*
X37419047Y-76762295D01*
X37419047Y-76762295D02*
X37342857Y-76762295D01*
X37342857Y-76762295D02*
X37266666Y-76724200D01*
X37266666Y-76724200D02*
X37228571Y-76686104D01*
X37228571Y-76686104D02*
X37190476Y-76609914D01*
X37190476Y-76609914D02*
X37152380Y-76457533D01*
X37152380Y-76457533D02*
X37152380Y-76267057D01*
X37152380Y-76267057D02*
X37190476Y-76114676D01*
X37190476Y-76114676D02*
X37228571Y-76038485D01*
X37228571Y-76038485D02*
X37266666Y-76000390D01*
X37266666Y-76000390D02*
X37342857Y-75962295D01*
X37685714Y-50286104D02*
X37647618Y-50324200D01*
X37647618Y-50324200D02*
X37533333Y-50362295D01*
X37533333Y-50362295D02*
X37457142Y-50362295D01*
X37457142Y-50362295D02*
X37342856Y-50324200D01*
X37342856Y-50324200D02*
X37266666Y-50248009D01*
X37266666Y-50248009D02*
X37228571Y-50171819D01*
X37228571Y-50171819D02*
X37190475Y-50019438D01*
X37190475Y-50019438D02*
X37190475Y-49905152D01*
X37190475Y-49905152D02*
X37228571Y-49752771D01*
X37228571Y-49752771D02*
X37266666Y-49676580D01*
X37266666Y-49676580D02*
X37342856Y-49600390D01*
X37342856Y-49600390D02*
X37457142Y-49562295D01*
X37457142Y-49562295D02*
X37533333Y-49562295D01*
X37533333Y-49562295D02*
X37647618Y-49600390D01*
X37647618Y-49600390D02*
X37685714Y-49638485D01*
X38447618Y-50362295D02*
X37990475Y-50362295D01*
X38219047Y-50362295D02*
X38219047Y-49562295D01*
X38219047Y-49562295D02*
X38142856Y-49676580D01*
X38142856Y-49676580D02*
X38066666Y-49752771D01*
X38066666Y-49752771D02*
X37990475Y-49790866D01*
X39171428Y-49562295D02*
X38790476Y-49562295D01*
X38790476Y-49562295D02*
X38752380Y-49943247D01*
X38752380Y-49943247D02*
X38790476Y-49905152D01*
X38790476Y-49905152D02*
X38866666Y-49867057D01*
X38866666Y-49867057D02*
X39057142Y-49867057D01*
X39057142Y-49867057D02*
X39133333Y-49905152D01*
X39133333Y-49905152D02*
X39171428Y-49943247D01*
X39171428Y-49943247D02*
X39209523Y-50019438D01*
X39209523Y-50019438D02*
X39209523Y-50209914D01*
X39209523Y-50209914D02*
X39171428Y-50286104D01*
X39171428Y-50286104D02*
X39133333Y-50324200D01*
X39133333Y-50324200D02*
X39057142Y-50362295D01*
X39057142Y-50362295D02*
X38866666Y-50362295D01*
X38866666Y-50362295D02*
X38790476Y-50324200D01*
X38790476Y-50324200D02*
X38752380Y-50286104D01*
X42682295Y-62489285D02*
X42301342Y-62755952D01*
X42682295Y-62946428D02*
X41882295Y-62946428D01*
X41882295Y-62946428D02*
X41882295Y-62641666D01*
X41882295Y-62641666D02*
X41920390Y-62565476D01*
X41920390Y-62565476D02*
X41958485Y-62527381D01*
X41958485Y-62527381D02*
X42034676Y-62489285D01*
X42034676Y-62489285D02*
X42148961Y-62489285D01*
X42148961Y-62489285D02*
X42225152Y-62527381D01*
X42225152Y-62527381D02*
X42263247Y-62565476D01*
X42263247Y-62565476D02*
X42301342Y-62641666D01*
X42301342Y-62641666D02*
X42301342Y-62946428D01*
X42682295Y-61727381D02*
X42682295Y-62184524D01*
X42682295Y-61955952D02*
X41882295Y-61955952D01*
X41882295Y-61955952D02*
X41996580Y-62032143D01*
X41996580Y-62032143D02*
X42072771Y-62108333D01*
X42072771Y-62108333D02*
X42110866Y-62184524D01*
X42148961Y-61041666D02*
X42682295Y-61041666D01*
X41844200Y-61232142D02*
X42415628Y-61422619D01*
X42415628Y-61422619D02*
X42415628Y-60927380D01*
X54591667Y-59262295D02*
X54325000Y-58881342D01*
X54134524Y-59262295D02*
X54134524Y-58462295D01*
X54134524Y-58462295D02*
X54439286Y-58462295D01*
X54439286Y-58462295D02*
X54515476Y-58500390D01*
X54515476Y-58500390D02*
X54553571Y-58538485D01*
X54553571Y-58538485D02*
X54591667Y-58614676D01*
X54591667Y-58614676D02*
X54591667Y-58728961D01*
X54591667Y-58728961D02*
X54553571Y-58805152D01*
X54553571Y-58805152D02*
X54515476Y-58843247D01*
X54515476Y-58843247D02*
X54439286Y-58881342D01*
X54439286Y-58881342D02*
X54134524Y-58881342D01*
X55277381Y-58728961D02*
X55277381Y-59262295D01*
X55086905Y-58424200D02*
X54896428Y-58995628D01*
X54896428Y-58995628D02*
X55391667Y-58995628D01*
X56466667Y-53532295D02*
X56200000Y-53151342D01*
X56009524Y-53532295D02*
X56009524Y-52732295D01*
X56009524Y-52732295D02*
X56314286Y-52732295D01*
X56314286Y-52732295D02*
X56390476Y-52770390D01*
X56390476Y-52770390D02*
X56428571Y-52808485D01*
X56428571Y-52808485D02*
X56466667Y-52884676D01*
X56466667Y-52884676D02*
X56466667Y-52998961D01*
X56466667Y-52998961D02*
X56428571Y-53075152D01*
X56428571Y-53075152D02*
X56390476Y-53113247D01*
X56390476Y-53113247D02*
X56314286Y-53151342D01*
X56314286Y-53151342D02*
X56009524Y-53151342D01*
X57152381Y-52732295D02*
X57000000Y-52732295D01*
X57000000Y-52732295D02*
X56923809Y-52770390D01*
X56923809Y-52770390D02*
X56885714Y-52808485D01*
X56885714Y-52808485D02*
X56809524Y-52922771D01*
X56809524Y-52922771D02*
X56771428Y-53075152D01*
X56771428Y-53075152D02*
X56771428Y-53379914D01*
X56771428Y-53379914D02*
X56809524Y-53456104D01*
X56809524Y-53456104D02*
X56847619Y-53494200D01*
X56847619Y-53494200D02*
X56923809Y-53532295D01*
X56923809Y-53532295D02*
X57076190Y-53532295D01*
X57076190Y-53532295D02*
X57152381Y-53494200D01*
X57152381Y-53494200D02*
X57190476Y-53456104D01*
X57190476Y-53456104D02*
X57228571Y-53379914D01*
X57228571Y-53379914D02*
X57228571Y-53189438D01*
X57228571Y-53189438D02*
X57190476Y-53113247D01*
X57190476Y-53113247D02*
X57152381Y-53075152D01*
X57152381Y-53075152D02*
X57076190Y-53037057D01*
X57076190Y-53037057D02*
X56923809Y-53037057D01*
X56923809Y-53037057D02*
X56847619Y-53075152D01*
X56847619Y-53075152D02*
X56809524Y-53113247D01*
X56809524Y-53113247D02*
X56771428Y-53189438D01*
X36233333Y-53092295D02*
X36233333Y-53663723D01*
X36233333Y-53663723D02*
X36195238Y-53778009D01*
X36195238Y-53778009D02*
X36119047Y-53854200D01*
X36119047Y-53854200D02*
X36004762Y-53892295D01*
X36004762Y-53892295D02*
X35928571Y-53892295D01*
X36538095Y-53092295D02*
X37033333Y-53092295D01*
X37033333Y-53092295D02*
X36766667Y-53397057D01*
X36766667Y-53397057D02*
X36880952Y-53397057D01*
X36880952Y-53397057D02*
X36957143Y-53435152D01*
X36957143Y-53435152D02*
X36995238Y-53473247D01*
X36995238Y-53473247D02*
X37033333Y-53549438D01*
X37033333Y-53549438D02*
X37033333Y-53739914D01*
X37033333Y-53739914D02*
X36995238Y-53816104D01*
X36995238Y-53816104D02*
X36957143Y-53854200D01*
X36957143Y-53854200D02*
X36880952Y-53892295D01*
X36880952Y-53892295D02*
X36652381Y-53892295D01*
X36652381Y-53892295D02*
X36576190Y-53854200D01*
X36576190Y-53854200D02*
X36538095Y-53816104D01*
X58152380Y-47362295D02*
X58152380Y-47933723D01*
X58152380Y-47933723D02*
X58114285Y-48048009D01*
X58114285Y-48048009D02*
X58038094Y-48124200D01*
X58038094Y-48124200D02*
X57923809Y-48162295D01*
X57923809Y-48162295D02*
X57847618Y-48162295D01*
X58952380Y-48162295D02*
X58495237Y-48162295D01*
X58723809Y-48162295D02*
X58723809Y-47362295D01*
X58723809Y-47362295D02*
X58647618Y-47476580D01*
X58647618Y-47476580D02*
X58571428Y-47552771D01*
X58571428Y-47552771D02*
X58495237Y-47590866D01*
X59219047Y-47362295D02*
X59752381Y-47362295D01*
X59752381Y-47362295D02*
X59409523Y-48162295D01*
X54666667Y-51102295D02*
X54400000Y-50721342D01*
X54209524Y-51102295D02*
X54209524Y-50302295D01*
X54209524Y-50302295D02*
X54514286Y-50302295D01*
X54514286Y-50302295D02*
X54590476Y-50340390D01*
X54590476Y-50340390D02*
X54628571Y-50378485D01*
X54628571Y-50378485D02*
X54666667Y-50454676D01*
X54666667Y-50454676D02*
X54666667Y-50568961D01*
X54666667Y-50568961D02*
X54628571Y-50645152D01*
X54628571Y-50645152D02*
X54590476Y-50683247D01*
X54590476Y-50683247D02*
X54514286Y-50721342D01*
X54514286Y-50721342D02*
X54209524Y-50721342D01*
X55123809Y-50645152D02*
X55047619Y-50607057D01*
X55047619Y-50607057D02*
X55009524Y-50568961D01*
X55009524Y-50568961D02*
X54971428Y-50492771D01*
X54971428Y-50492771D02*
X54971428Y-50454676D01*
X54971428Y-50454676D02*
X55009524Y-50378485D01*
X55009524Y-50378485D02*
X55047619Y-50340390D01*
X55047619Y-50340390D02*
X55123809Y-50302295D01*
X55123809Y-50302295D02*
X55276190Y-50302295D01*
X55276190Y-50302295D02*
X55352381Y-50340390D01*
X55352381Y-50340390D02*
X55390476Y-50378485D01*
X55390476Y-50378485D02*
X55428571Y-50454676D01*
X55428571Y-50454676D02*
X55428571Y-50492771D01*
X55428571Y-50492771D02*
X55390476Y-50568961D01*
X55390476Y-50568961D02*
X55352381Y-50607057D01*
X55352381Y-50607057D02*
X55276190Y-50645152D01*
X55276190Y-50645152D02*
X55123809Y-50645152D01*
X55123809Y-50645152D02*
X55047619Y-50683247D01*
X55047619Y-50683247D02*
X55009524Y-50721342D01*
X55009524Y-50721342D02*
X54971428Y-50797533D01*
X54971428Y-50797533D02*
X54971428Y-50949914D01*
X54971428Y-50949914D02*
X55009524Y-51026104D01*
X55009524Y-51026104D02*
X55047619Y-51064200D01*
X55047619Y-51064200D02*
X55123809Y-51102295D01*
X55123809Y-51102295D02*
X55276190Y-51102295D01*
X55276190Y-51102295D02*
X55352381Y-51064200D01*
X55352381Y-51064200D02*
X55390476Y-51026104D01*
X55390476Y-51026104D02*
X55428571Y-50949914D01*
X55428571Y-50949914D02*
X55428571Y-50797533D01*
X55428571Y-50797533D02*
X55390476Y-50721342D01*
X55390476Y-50721342D02*
X55352381Y-50683247D01*
X55352381Y-50683247D02*
X55276190Y-50645152D01*
X36086104Y-72533332D02*
X36124200Y-72571428D01*
X36124200Y-72571428D02*
X36162295Y-72685713D01*
X36162295Y-72685713D02*
X36162295Y-72761904D01*
X36162295Y-72761904D02*
X36124200Y-72876190D01*
X36124200Y-72876190D02*
X36048009Y-72952380D01*
X36048009Y-72952380D02*
X35971819Y-72990475D01*
X35971819Y-72990475D02*
X35819438Y-73028571D01*
X35819438Y-73028571D02*
X35705152Y-73028571D01*
X35705152Y-73028571D02*
X35552771Y-72990475D01*
X35552771Y-72990475D02*
X35476580Y-72952380D01*
X35476580Y-72952380D02*
X35400390Y-72876190D01*
X35400390Y-72876190D02*
X35362295Y-72761904D01*
X35362295Y-72761904D02*
X35362295Y-72685713D01*
X35362295Y-72685713D02*
X35400390Y-72571428D01*
X35400390Y-72571428D02*
X35438485Y-72533332D01*
X35705152Y-72076190D02*
X35667057Y-72152380D01*
X35667057Y-72152380D02*
X35628961Y-72190475D01*
X35628961Y-72190475D02*
X35552771Y-72228571D01*
X35552771Y-72228571D02*
X35514676Y-72228571D01*
X35514676Y-72228571D02*
X35438485Y-72190475D01*
X35438485Y-72190475D02*
X35400390Y-72152380D01*
X35400390Y-72152380D02*
X35362295Y-72076190D01*
X35362295Y-72076190D02*
X35362295Y-71923809D01*
X35362295Y-71923809D02*
X35400390Y-71847618D01*
X35400390Y-71847618D02*
X35438485Y-71809523D01*
X35438485Y-71809523D02*
X35514676Y-71771428D01*
X35514676Y-71771428D02*
X35552771Y-71771428D01*
X35552771Y-71771428D02*
X35628961Y-71809523D01*
X35628961Y-71809523D02*
X35667057Y-71847618D01*
X35667057Y-71847618D02*
X35705152Y-71923809D01*
X35705152Y-71923809D02*
X35705152Y-72076190D01*
X35705152Y-72076190D02*
X35743247Y-72152380D01*
X35743247Y-72152380D02*
X35781342Y-72190475D01*
X35781342Y-72190475D02*
X35857533Y-72228571D01*
X35857533Y-72228571D02*
X36009914Y-72228571D01*
X36009914Y-72228571D02*
X36086104Y-72190475D01*
X36086104Y-72190475D02*
X36124200Y-72152380D01*
X36124200Y-72152380D02*
X36162295Y-72076190D01*
X36162295Y-72076190D02*
X36162295Y-71923809D01*
X36162295Y-71923809D02*
X36124200Y-71847618D01*
X36124200Y-71847618D02*
X36086104Y-71809523D01*
X36086104Y-71809523D02*
X36009914Y-71771428D01*
X36009914Y-71771428D02*
X35857533Y-71771428D01*
X35857533Y-71771428D02*
X35781342Y-71809523D01*
X35781342Y-71809523D02*
X35743247Y-71847618D01*
X35743247Y-71847618D02*
X35705152Y-71923809D01*
X54666676Y-64462295D02*
X55123819Y-64462295D01*
X54895247Y-65262295D02*
X54895247Y-64462295D01*
X55390486Y-65262295D02*
X55390486Y-64462295D01*
X55390486Y-64462295D02*
X55695248Y-64462295D01*
X55695248Y-64462295D02*
X55771438Y-64500390D01*
X55771438Y-64500390D02*
X55809533Y-64538485D01*
X55809533Y-64538485D02*
X55847629Y-64614676D01*
X55847629Y-64614676D02*
X55847629Y-64728961D01*
X55847629Y-64728961D02*
X55809533Y-64805152D01*
X55809533Y-64805152D02*
X55771438Y-64843247D01*
X55771438Y-64843247D02*
X55695248Y-64881342D01*
X55695248Y-64881342D02*
X55390486Y-64881342D01*
X56609533Y-65262295D02*
X56152390Y-65262295D01*
X56380962Y-65262295D02*
X56380962Y-64462295D01*
X56380962Y-64462295D02*
X56304771Y-64576580D01*
X56304771Y-64576580D02*
X56228581Y-64652771D01*
X56228581Y-64652771D02*
X56152390Y-64690866D01*
X23485714Y-43086104D02*
X23447618Y-43124200D01*
X23447618Y-43124200D02*
X23333333Y-43162295D01*
X23333333Y-43162295D02*
X23257142Y-43162295D01*
X23257142Y-43162295D02*
X23142856Y-43124200D01*
X23142856Y-43124200D02*
X23066666Y-43048009D01*
X23066666Y-43048009D02*
X23028571Y-42971819D01*
X23028571Y-42971819D02*
X22990475Y-42819438D01*
X22990475Y-42819438D02*
X22990475Y-42705152D01*
X22990475Y-42705152D02*
X23028571Y-42552771D01*
X23028571Y-42552771D02*
X23066666Y-42476580D01*
X23066666Y-42476580D02*
X23142856Y-42400390D01*
X23142856Y-42400390D02*
X23257142Y-42362295D01*
X23257142Y-42362295D02*
X23333333Y-42362295D01*
X23333333Y-42362295D02*
X23447618Y-42400390D01*
X23447618Y-42400390D02*
X23485714Y-42438485D01*
X24247618Y-43162295D02*
X23790475Y-43162295D01*
X24019047Y-43162295D02*
X24019047Y-42362295D01*
X24019047Y-42362295D02*
X23942856Y-42476580D01*
X23942856Y-42476580D02*
X23866666Y-42552771D01*
X23866666Y-42552771D02*
X23790475Y-42590866D01*
X24514285Y-42362295D02*
X25009523Y-42362295D01*
X25009523Y-42362295D02*
X24742857Y-42667057D01*
X24742857Y-42667057D02*
X24857142Y-42667057D01*
X24857142Y-42667057D02*
X24933333Y-42705152D01*
X24933333Y-42705152D02*
X24971428Y-42743247D01*
X24971428Y-42743247D02*
X25009523Y-42819438D01*
X25009523Y-42819438D02*
X25009523Y-43009914D01*
X25009523Y-43009914D02*
X24971428Y-43086104D01*
X24971428Y-43086104D02*
X24933333Y-43124200D01*
X24933333Y-43124200D02*
X24857142Y-43162295D01*
X24857142Y-43162295D02*
X24628571Y-43162295D01*
X24628571Y-43162295D02*
X24552380Y-43124200D01*
X24552380Y-43124200D02*
X24514285Y-43086104D01*
X51044476Y-64614295D02*
X51044476Y-65261914D01*
X51044476Y-65261914D02*
X51082571Y-65338104D01*
X51082571Y-65338104D02*
X51120666Y-65376200D01*
X51120666Y-65376200D02*
X51196857Y-65414295D01*
X51196857Y-65414295D02*
X51349238Y-65414295D01*
X51349238Y-65414295D02*
X51425428Y-65376200D01*
X51425428Y-65376200D02*
X51463523Y-65338104D01*
X51463523Y-65338104D02*
X51501619Y-65261914D01*
X51501619Y-65261914D02*
X51501619Y-64614295D01*
X51844475Y-64690485D02*
X51882571Y-64652390D01*
X51882571Y-64652390D02*
X51958761Y-64614295D01*
X51958761Y-64614295D02*
X52149237Y-64614295D01*
X52149237Y-64614295D02*
X52225428Y-64652390D01*
X52225428Y-64652390D02*
X52263523Y-64690485D01*
X52263523Y-64690485D02*
X52301618Y-64766676D01*
X52301618Y-64766676D02*
X52301618Y-64842866D01*
X52301618Y-64842866D02*
X52263523Y-64957152D01*
X52263523Y-64957152D02*
X51806380Y-65414295D01*
X51806380Y-65414295D02*
X52301618Y-65414295D01*
X38714819Y-27833333D02*
X39429104Y-27833333D01*
X39429104Y-27833333D02*
X39571961Y-27880952D01*
X39571961Y-27880952D02*
X39667200Y-27976190D01*
X39667200Y-27976190D02*
X39714819Y-28119047D01*
X39714819Y-28119047D02*
X39714819Y-28214285D01*
X38810057Y-27404761D02*
X38762438Y-27357142D01*
X38762438Y-27357142D02*
X38714819Y-27261904D01*
X38714819Y-27261904D02*
X38714819Y-27023809D01*
X38714819Y-27023809D02*
X38762438Y-26928571D01*
X38762438Y-26928571D02*
X38810057Y-26880952D01*
X38810057Y-26880952D02*
X38905295Y-26833333D01*
X38905295Y-26833333D02*
X39000533Y-26833333D01*
X39000533Y-26833333D02*
X39143390Y-26880952D01*
X39143390Y-26880952D02*
X39714819Y-27452380D01*
X39714819Y-27452380D02*
X39714819Y-26833333D01*
X53752380Y-52762295D02*
X53752380Y-53333723D01*
X53752380Y-53333723D02*
X53714285Y-53448009D01*
X53714285Y-53448009D02*
X53638094Y-53524200D01*
X53638094Y-53524200D02*
X53523809Y-53562295D01*
X53523809Y-53562295D02*
X53447618Y-53562295D01*
X54552380Y-53562295D02*
X54095237Y-53562295D01*
X54323809Y-53562295D02*
X54323809Y-52762295D01*
X54323809Y-52762295D02*
X54247618Y-52876580D01*
X54247618Y-52876580D02*
X54171428Y-52952771D01*
X54171428Y-52952771D02*
X54095237Y-52990866D01*
X55276190Y-52762295D02*
X54895238Y-52762295D01*
X54895238Y-52762295D02*
X54857142Y-53143247D01*
X54857142Y-53143247D02*
X54895238Y-53105152D01*
X54895238Y-53105152D02*
X54971428Y-53067057D01*
X54971428Y-53067057D02*
X55161904Y-53067057D01*
X55161904Y-53067057D02*
X55238095Y-53105152D01*
X55238095Y-53105152D02*
X55276190Y-53143247D01*
X55276190Y-53143247D02*
X55314285Y-53219438D01*
X55314285Y-53219438D02*
X55314285Y-53409914D01*
X55314285Y-53409914D02*
X55276190Y-53486104D01*
X55276190Y-53486104D02*
X55238095Y-53524200D01*
X55238095Y-53524200D02*
X55161904Y-53562295D01*
X55161904Y-53562295D02*
X54971428Y-53562295D01*
X54971428Y-53562295D02*
X54895238Y-53524200D01*
X54895238Y-53524200D02*
X54857142Y-53486104D01*
X23286104Y-50539285D02*
X23324200Y-50577381D01*
X23324200Y-50577381D02*
X23362295Y-50691666D01*
X23362295Y-50691666D02*
X23362295Y-50767857D01*
X23362295Y-50767857D02*
X23324200Y-50882143D01*
X23324200Y-50882143D02*
X23248009Y-50958333D01*
X23248009Y-50958333D02*
X23171819Y-50996428D01*
X23171819Y-50996428D02*
X23019438Y-51034524D01*
X23019438Y-51034524D02*
X22905152Y-51034524D01*
X22905152Y-51034524D02*
X22752771Y-50996428D01*
X22752771Y-50996428D02*
X22676580Y-50958333D01*
X22676580Y-50958333D02*
X22600390Y-50882143D01*
X22600390Y-50882143D02*
X22562295Y-50767857D01*
X22562295Y-50767857D02*
X22562295Y-50691666D01*
X22562295Y-50691666D02*
X22600390Y-50577381D01*
X22600390Y-50577381D02*
X22638485Y-50539285D01*
X23362295Y-49777381D02*
X23362295Y-50234524D01*
X23362295Y-50005952D02*
X22562295Y-50005952D01*
X22562295Y-50005952D02*
X22676580Y-50082143D01*
X22676580Y-50082143D02*
X22752771Y-50158333D01*
X22752771Y-50158333D02*
X22790866Y-50234524D01*
X22828961Y-49091666D02*
X23362295Y-49091666D01*
X22524200Y-49282142D02*
X23095628Y-49472619D01*
X23095628Y-49472619D02*
X23095628Y-48977380D01*
X72285714Y-55762295D02*
X72019047Y-55381342D01*
X71828571Y-55762295D02*
X71828571Y-54962295D01*
X71828571Y-54962295D02*
X72133333Y-54962295D01*
X72133333Y-54962295D02*
X72209523Y-55000390D01*
X72209523Y-55000390D02*
X72247618Y-55038485D01*
X72247618Y-55038485D02*
X72285714Y-55114676D01*
X72285714Y-55114676D02*
X72285714Y-55228961D01*
X72285714Y-55228961D02*
X72247618Y-55305152D01*
X72247618Y-55305152D02*
X72209523Y-55343247D01*
X72209523Y-55343247D02*
X72133333Y-55381342D01*
X72133333Y-55381342D02*
X71828571Y-55381342D01*
X73047618Y-55762295D02*
X72590475Y-55762295D01*
X72819047Y-55762295D02*
X72819047Y-54962295D01*
X72819047Y-54962295D02*
X72742856Y-55076580D01*
X72742856Y-55076580D02*
X72666666Y-55152771D01*
X72666666Y-55152771D02*
X72590475Y-55190866D01*
X73352380Y-55038485D02*
X73390476Y-55000390D01*
X73390476Y-55000390D02*
X73466666Y-54962295D01*
X73466666Y-54962295D02*
X73657142Y-54962295D01*
X73657142Y-54962295D02*
X73733333Y-55000390D01*
X73733333Y-55000390D02*
X73771428Y-55038485D01*
X73771428Y-55038485D02*
X73809523Y-55114676D01*
X73809523Y-55114676D02*
X73809523Y-55190866D01*
X73809523Y-55190866D02*
X73771428Y-55305152D01*
X73771428Y-55305152D02*
X73314285Y-55762295D01*
X73314285Y-55762295D02*
X73809523Y-55762295D01*
X28352380Y-53952295D02*
X28352380Y-54523723D01*
X28352380Y-54523723D02*
X28314285Y-54638009D01*
X28314285Y-54638009D02*
X28238094Y-54714200D01*
X28238094Y-54714200D02*
X28123809Y-54752295D01*
X28123809Y-54752295D02*
X28047618Y-54752295D01*
X29152380Y-54752295D02*
X28695237Y-54752295D01*
X28923809Y-54752295D02*
X28923809Y-53952295D01*
X28923809Y-53952295D02*
X28847618Y-54066580D01*
X28847618Y-54066580D02*
X28771428Y-54142771D01*
X28771428Y-54142771D02*
X28695237Y-54180866D01*
X29457142Y-54028485D02*
X29495238Y-53990390D01*
X29495238Y-53990390D02*
X29571428Y-53952295D01*
X29571428Y-53952295D02*
X29761904Y-53952295D01*
X29761904Y-53952295D02*
X29838095Y-53990390D01*
X29838095Y-53990390D02*
X29876190Y-54028485D01*
X29876190Y-54028485D02*
X29914285Y-54104676D01*
X29914285Y-54104676D02*
X29914285Y-54180866D01*
X29914285Y-54180866D02*
X29876190Y-54295152D01*
X29876190Y-54295152D02*
X29419047Y-54752295D01*
X29419047Y-54752295D02*
X29914285Y-54752295D01*
X26562295Y-61180951D02*
X25762295Y-61180951D01*
X25762295Y-61180951D02*
X26333723Y-60914285D01*
X26333723Y-60914285D02*
X25762295Y-60647618D01*
X25762295Y-60647618D02*
X26562295Y-60647618D01*
X26486104Y-59809522D02*
X26524200Y-59847618D01*
X26524200Y-59847618D02*
X26562295Y-59961903D01*
X26562295Y-59961903D02*
X26562295Y-60038094D01*
X26562295Y-60038094D02*
X26524200Y-60152380D01*
X26524200Y-60152380D02*
X26448009Y-60228570D01*
X26448009Y-60228570D02*
X26371819Y-60266665D01*
X26371819Y-60266665D02*
X26219438Y-60304761D01*
X26219438Y-60304761D02*
X26105152Y-60304761D01*
X26105152Y-60304761D02*
X25952771Y-60266665D01*
X25952771Y-60266665D02*
X25876580Y-60228570D01*
X25876580Y-60228570D02*
X25800390Y-60152380D01*
X25800390Y-60152380D02*
X25762295Y-60038094D01*
X25762295Y-60038094D02*
X25762295Y-59961903D01*
X25762295Y-59961903D02*
X25800390Y-59847618D01*
X25800390Y-59847618D02*
X25838485Y-59809522D01*
X25762295Y-59466665D02*
X26409914Y-59466665D01*
X26409914Y-59466665D02*
X26486104Y-59428570D01*
X26486104Y-59428570D02*
X26524200Y-59390475D01*
X26524200Y-59390475D02*
X26562295Y-59314284D01*
X26562295Y-59314284D02*
X26562295Y-59161903D01*
X26562295Y-59161903D02*
X26524200Y-59085713D01*
X26524200Y-59085713D02*
X26486104Y-59047618D01*
X26486104Y-59047618D02*
X26409914Y-59009522D01*
X26409914Y-59009522D02*
X25762295Y-59009522D01*
X26638485Y-58819047D02*
X26638485Y-58209523D01*
X25800390Y-57599999D02*
X25762295Y-57676189D01*
X25762295Y-57676189D02*
X25762295Y-57790475D01*
X25762295Y-57790475D02*
X25800390Y-57904761D01*
X25800390Y-57904761D02*
X25876580Y-57980951D01*
X25876580Y-57980951D02*
X25952771Y-58019046D01*
X25952771Y-58019046D02*
X26105152Y-58057142D01*
X26105152Y-58057142D02*
X26219438Y-58057142D01*
X26219438Y-58057142D02*
X26371819Y-58019046D01*
X26371819Y-58019046D02*
X26448009Y-57980951D01*
X26448009Y-57980951D02*
X26524200Y-57904761D01*
X26524200Y-57904761D02*
X26562295Y-57790475D01*
X26562295Y-57790475D02*
X26562295Y-57714284D01*
X26562295Y-57714284D02*
X26524200Y-57599999D01*
X26524200Y-57599999D02*
X26486104Y-57561903D01*
X26486104Y-57561903D02*
X26219438Y-57561903D01*
X26219438Y-57561903D02*
X26219438Y-57714284D01*
X26562295Y-57219046D02*
X25762295Y-57219046D01*
X25762295Y-57219046D02*
X25762295Y-56914284D01*
X25762295Y-56914284D02*
X25800390Y-56838094D01*
X25800390Y-56838094D02*
X25838485Y-56799999D01*
X25838485Y-56799999D02*
X25914676Y-56761903D01*
X25914676Y-56761903D02*
X26028961Y-56761903D01*
X26028961Y-56761903D02*
X26105152Y-56799999D01*
X26105152Y-56799999D02*
X26143247Y-56838094D01*
X26143247Y-56838094D02*
X26181342Y-56914284D01*
X26181342Y-56914284D02*
X26181342Y-57219046D01*
X26562295Y-56419046D02*
X25762295Y-56419046D01*
X25762295Y-55885713D02*
X25762295Y-55733332D01*
X25762295Y-55733332D02*
X25800390Y-55657142D01*
X25800390Y-55657142D02*
X25876580Y-55580951D01*
X25876580Y-55580951D02*
X26028961Y-55542856D01*
X26028961Y-55542856D02*
X26295628Y-55542856D01*
X26295628Y-55542856D02*
X26448009Y-55580951D01*
X26448009Y-55580951D02*
X26524200Y-55657142D01*
X26524200Y-55657142D02*
X26562295Y-55733332D01*
X26562295Y-55733332D02*
X26562295Y-55885713D01*
X26562295Y-55885713D02*
X26524200Y-55961904D01*
X26524200Y-55961904D02*
X26448009Y-56038094D01*
X26448009Y-56038094D02*
X26295628Y-56076190D01*
X26295628Y-56076190D02*
X26028961Y-56076190D01*
X26028961Y-56076190D02*
X25876580Y-56038094D01*
X25876580Y-56038094D02*
X25800390Y-55961904D01*
X25800390Y-55961904D02*
X25762295Y-55885713D01*
X26524200Y-55238095D02*
X26562295Y-55123809D01*
X26562295Y-55123809D02*
X26562295Y-54933333D01*
X26562295Y-54933333D02*
X26524200Y-54857142D01*
X26524200Y-54857142D02*
X26486104Y-54819047D01*
X26486104Y-54819047D02*
X26409914Y-54780952D01*
X26409914Y-54780952D02*
X26333723Y-54780952D01*
X26333723Y-54780952D02*
X26257533Y-54819047D01*
X26257533Y-54819047D02*
X26219438Y-54857142D01*
X26219438Y-54857142D02*
X26181342Y-54933333D01*
X26181342Y-54933333D02*
X26143247Y-55085714D01*
X26143247Y-55085714D02*
X26105152Y-55161904D01*
X26105152Y-55161904D02*
X26067057Y-55199999D01*
X26067057Y-55199999D02*
X25990866Y-55238095D01*
X25990866Y-55238095D02*
X25914676Y-55238095D01*
X25914676Y-55238095D02*
X25838485Y-55199999D01*
X25838485Y-55199999D02*
X25800390Y-55161904D01*
X25800390Y-55161904D02*
X25762295Y-55085714D01*
X25762295Y-55085714D02*
X25762295Y-54895237D01*
X25762295Y-54895237D02*
X25800390Y-54780952D01*
X65466667Y-58086104D02*
X65428571Y-58124200D01*
X65428571Y-58124200D02*
X65314286Y-58162295D01*
X65314286Y-58162295D02*
X65238095Y-58162295D01*
X65238095Y-58162295D02*
X65123809Y-58124200D01*
X65123809Y-58124200D02*
X65047619Y-58048009D01*
X65047619Y-58048009D02*
X65009524Y-57971819D01*
X65009524Y-57971819D02*
X64971428Y-57819438D01*
X64971428Y-57819438D02*
X64971428Y-57705152D01*
X64971428Y-57705152D02*
X65009524Y-57552771D01*
X65009524Y-57552771D02*
X65047619Y-57476580D01*
X65047619Y-57476580D02*
X65123809Y-57400390D01*
X65123809Y-57400390D02*
X65238095Y-57362295D01*
X65238095Y-57362295D02*
X65314286Y-57362295D01*
X65314286Y-57362295D02*
X65428571Y-57400390D01*
X65428571Y-57400390D02*
X65466667Y-57438485D01*
X66152381Y-57628961D02*
X66152381Y-58162295D01*
X65961905Y-57324200D02*
X65771428Y-57895628D01*
X65771428Y-57895628D02*
X66266667Y-57895628D01*
X66885714Y-55741495D02*
X66619047Y-55360542D01*
X66428571Y-55741495D02*
X66428571Y-54941495D01*
X66428571Y-54941495D02*
X66733333Y-54941495D01*
X66733333Y-54941495D02*
X66809523Y-54979590D01*
X66809523Y-54979590D02*
X66847618Y-55017685D01*
X66847618Y-55017685D02*
X66885714Y-55093876D01*
X66885714Y-55093876D02*
X66885714Y-55208161D01*
X66885714Y-55208161D02*
X66847618Y-55284352D01*
X66847618Y-55284352D02*
X66809523Y-55322447D01*
X66809523Y-55322447D02*
X66733333Y-55360542D01*
X66733333Y-55360542D02*
X66428571Y-55360542D01*
X67647618Y-55741495D02*
X67190475Y-55741495D01*
X67419047Y-55741495D02*
X67419047Y-54941495D01*
X67419047Y-54941495D02*
X67342856Y-55055780D01*
X67342856Y-55055780D02*
X67266666Y-55131971D01*
X67266666Y-55131971D02*
X67190475Y-55170066D01*
X67914285Y-54941495D02*
X68409523Y-54941495D01*
X68409523Y-54941495D02*
X68142857Y-55246257D01*
X68142857Y-55246257D02*
X68257142Y-55246257D01*
X68257142Y-55246257D02*
X68333333Y-55284352D01*
X68333333Y-55284352D02*
X68371428Y-55322447D01*
X68371428Y-55322447D02*
X68409523Y-55398638D01*
X68409523Y-55398638D02*
X68409523Y-55589114D01*
X68409523Y-55589114D02*
X68371428Y-55665304D01*
X68371428Y-55665304D02*
X68333333Y-55703400D01*
X68333333Y-55703400D02*
X68257142Y-55741495D01*
X68257142Y-55741495D02*
X68028571Y-55741495D01*
X68028571Y-55741495D02*
X67952380Y-55703400D01*
X67952380Y-55703400D02*
X67914285Y-55665304D01*
X29866666Y-25454819D02*
X29866666Y-26169104D01*
X29866666Y-26169104D02*
X29819047Y-26311961D01*
X29819047Y-26311961D02*
X29723809Y-26407200D01*
X29723809Y-26407200D02*
X29580952Y-26454819D01*
X29580952Y-26454819D02*
X29485714Y-26454819D01*
X30390476Y-26454819D02*
X30580952Y-26454819D01*
X30580952Y-26454819D02*
X30676190Y-26407200D01*
X30676190Y-26407200D02*
X30723809Y-26359580D01*
X30723809Y-26359580D02*
X30819047Y-26216723D01*
X30819047Y-26216723D02*
X30866666Y-26026247D01*
X30866666Y-26026247D02*
X30866666Y-25645295D01*
X30866666Y-25645295D02*
X30819047Y-25550057D01*
X30819047Y-25550057D02*
X30771428Y-25502438D01*
X30771428Y-25502438D02*
X30676190Y-25454819D01*
X30676190Y-25454819D02*
X30485714Y-25454819D01*
X30485714Y-25454819D02*
X30390476Y-25502438D01*
X30390476Y-25502438D02*
X30342857Y-25550057D01*
X30342857Y-25550057D02*
X30295238Y-25645295D01*
X30295238Y-25645295D02*
X30295238Y-25883390D01*
X30295238Y-25883390D02*
X30342857Y-25978628D01*
X30342857Y-25978628D02*
X30390476Y-26026247D01*
X30390476Y-26026247D02*
X30485714Y-26073866D01*
X30485714Y-26073866D02*
X30676190Y-26073866D01*
X30676190Y-26073866D02*
X30771428Y-26026247D01*
X30771428Y-26026247D02*
X30819047Y-25978628D01*
X30819047Y-25978628D02*
X30866666Y-25883390D01*
X57792295Y-57283332D02*
X57411342Y-57549999D01*
X57792295Y-57740475D02*
X56992295Y-57740475D01*
X56992295Y-57740475D02*
X56992295Y-57435713D01*
X56992295Y-57435713D02*
X57030390Y-57359523D01*
X57030390Y-57359523D02*
X57068485Y-57321428D01*
X57068485Y-57321428D02*
X57144676Y-57283332D01*
X57144676Y-57283332D02*
X57258961Y-57283332D01*
X57258961Y-57283332D02*
X57335152Y-57321428D01*
X57335152Y-57321428D02*
X57373247Y-57359523D01*
X57373247Y-57359523D02*
X57411342Y-57435713D01*
X57411342Y-57435713D02*
X57411342Y-57740475D01*
X56992295Y-56559523D02*
X56992295Y-56940475D01*
X56992295Y-56940475D02*
X57373247Y-56978571D01*
X57373247Y-56978571D02*
X57335152Y-56940475D01*
X57335152Y-56940475D02*
X57297057Y-56864285D01*
X57297057Y-56864285D02*
X57297057Y-56673809D01*
X57297057Y-56673809D02*
X57335152Y-56597618D01*
X57335152Y-56597618D02*
X57373247Y-56559523D01*
X57373247Y-56559523D02*
X57449438Y-56521428D01*
X57449438Y-56521428D02*
X57639914Y-56521428D01*
X57639914Y-56521428D02*
X57716104Y-56559523D01*
X57716104Y-56559523D02*
X57754200Y-56597618D01*
X57754200Y-56597618D02*
X57792295Y-56673809D01*
X57792295Y-56673809D02*
X57792295Y-56864285D01*
X57792295Y-56864285D02*
X57754200Y-56940475D01*
X57754200Y-56940475D02*
X57716104Y-56978571D01*
X69485714Y-55686104D02*
X69447618Y-55724200D01*
X69447618Y-55724200D02*
X69333333Y-55762295D01*
X69333333Y-55762295D02*
X69257142Y-55762295D01*
X69257142Y-55762295D02*
X69142856Y-55724200D01*
X69142856Y-55724200D02*
X69066666Y-55648009D01*
X69066666Y-55648009D02*
X69028571Y-55571819D01*
X69028571Y-55571819D02*
X68990475Y-55419438D01*
X68990475Y-55419438D02*
X68990475Y-55305152D01*
X68990475Y-55305152D02*
X69028571Y-55152771D01*
X69028571Y-55152771D02*
X69066666Y-55076580D01*
X69066666Y-55076580D02*
X69142856Y-55000390D01*
X69142856Y-55000390D02*
X69257142Y-54962295D01*
X69257142Y-54962295D02*
X69333333Y-54962295D01*
X69333333Y-54962295D02*
X69447618Y-55000390D01*
X69447618Y-55000390D02*
X69485714Y-55038485D01*
X69790475Y-55038485D02*
X69828571Y-55000390D01*
X69828571Y-55000390D02*
X69904761Y-54962295D01*
X69904761Y-54962295D02*
X70095237Y-54962295D01*
X70095237Y-54962295D02*
X70171428Y-55000390D01*
X70171428Y-55000390D02*
X70209523Y-55038485D01*
X70209523Y-55038485D02*
X70247618Y-55114676D01*
X70247618Y-55114676D02*
X70247618Y-55190866D01*
X70247618Y-55190866D02*
X70209523Y-55305152D01*
X70209523Y-55305152D02*
X69752380Y-55762295D01*
X69752380Y-55762295D02*
X70247618Y-55762295D01*
X70514285Y-54962295D02*
X71009523Y-54962295D01*
X71009523Y-54962295D02*
X70742857Y-55267057D01*
X70742857Y-55267057D02*
X70857142Y-55267057D01*
X70857142Y-55267057D02*
X70933333Y-55305152D01*
X70933333Y-55305152D02*
X70971428Y-55343247D01*
X70971428Y-55343247D02*
X71009523Y-55419438D01*
X71009523Y-55419438D02*
X71009523Y-55609914D01*
X71009523Y-55609914D02*
X70971428Y-55686104D01*
X70971428Y-55686104D02*
X70933333Y-55724200D01*
X70933333Y-55724200D02*
X70857142Y-55762295D01*
X70857142Y-55762295D02*
X70628571Y-55762295D01*
X70628571Y-55762295D02*
X70552380Y-55724200D01*
X70552380Y-55724200D02*
X70514285Y-55686104D01*
X43866667Y-57062295D02*
X43600000Y-56681342D01*
X43409524Y-57062295D02*
X43409524Y-56262295D01*
X43409524Y-56262295D02*
X43714286Y-56262295D01*
X43714286Y-56262295D02*
X43790476Y-56300390D01*
X43790476Y-56300390D02*
X43828571Y-56338485D01*
X43828571Y-56338485D02*
X43866667Y-56414676D01*
X43866667Y-56414676D02*
X43866667Y-56528961D01*
X43866667Y-56528961D02*
X43828571Y-56605152D01*
X43828571Y-56605152D02*
X43790476Y-56643247D01*
X43790476Y-56643247D02*
X43714286Y-56681342D01*
X43714286Y-56681342D02*
X43409524Y-56681342D01*
X44628571Y-57062295D02*
X44171428Y-57062295D01*
X44400000Y-57062295D02*
X44400000Y-56262295D01*
X44400000Y-56262295D02*
X44323809Y-56376580D01*
X44323809Y-56376580D02*
X44247619Y-56452771D01*
X44247619Y-56452771D02*
X44171428Y-56490866D01*
X63985714Y-43932295D02*
X63719047Y-43551342D01*
X63528571Y-43932295D02*
X63528571Y-43132295D01*
X63528571Y-43132295D02*
X63833333Y-43132295D01*
X63833333Y-43132295D02*
X63909523Y-43170390D01*
X63909523Y-43170390D02*
X63947618Y-43208485D01*
X63947618Y-43208485D02*
X63985714Y-43284676D01*
X63985714Y-43284676D02*
X63985714Y-43398961D01*
X63985714Y-43398961D02*
X63947618Y-43475152D01*
X63947618Y-43475152D02*
X63909523Y-43513247D01*
X63909523Y-43513247D02*
X63833333Y-43551342D01*
X63833333Y-43551342D02*
X63528571Y-43551342D01*
X64747618Y-43932295D02*
X64290475Y-43932295D01*
X64519047Y-43932295D02*
X64519047Y-43132295D01*
X64519047Y-43132295D02*
X64442856Y-43246580D01*
X64442856Y-43246580D02*
X64366666Y-43322771D01*
X64366666Y-43322771D02*
X64290475Y-43360866D01*
X65509523Y-43932295D02*
X65052380Y-43932295D01*
X65280952Y-43932295D02*
X65280952Y-43132295D01*
X65280952Y-43132295D02*
X65204761Y-43246580D01*
X65204761Y-43246580D02*
X65128571Y-43322771D01*
X65128571Y-43322771D02*
X65052380Y-43360866D01*
X33485714Y-54932295D02*
X33219047Y-54551342D01*
X33028571Y-54932295D02*
X33028571Y-54132295D01*
X33028571Y-54132295D02*
X33333333Y-54132295D01*
X33333333Y-54132295D02*
X33409523Y-54170390D01*
X33409523Y-54170390D02*
X33447618Y-54208485D01*
X33447618Y-54208485D02*
X33485714Y-54284676D01*
X33485714Y-54284676D02*
X33485714Y-54398961D01*
X33485714Y-54398961D02*
X33447618Y-54475152D01*
X33447618Y-54475152D02*
X33409523Y-54513247D01*
X33409523Y-54513247D02*
X33333333Y-54551342D01*
X33333333Y-54551342D02*
X33028571Y-54551342D01*
X33790475Y-54208485D02*
X33828571Y-54170390D01*
X33828571Y-54170390D02*
X33904761Y-54132295D01*
X33904761Y-54132295D02*
X34095237Y-54132295D01*
X34095237Y-54132295D02*
X34171428Y-54170390D01*
X34171428Y-54170390D02*
X34209523Y-54208485D01*
X34209523Y-54208485D02*
X34247618Y-54284676D01*
X34247618Y-54284676D02*
X34247618Y-54360866D01*
X34247618Y-54360866D02*
X34209523Y-54475152D01*
X34209523Y-54475152D02*
X33752380Y-54932295D01*
X33752380Y-54932295D02*
X34247618Y-54932295D01*
X34742857Y-54132295D02*
X34819047Y-54132295D01*
X34819047Y-54132295D02*
X34895238Y-54170390D01*
X34895238Y-54170390D02*
X34933333Y-54208485D01*
X34933333Y-54208485D02*
X34971428Y-54284676D01*
X34971428Y-54284676D02*
X35009523Y-54437057D01*
X35009523Y-54437057D02*
X35009523Y-54627533D01*
X35009523Y-54627533D02*
X34971428Y-54779914D01*
X34971428Y-54779914D02*
X34933333Y-54856104D01*
X34933333Y-54856104D02*
X34895238Y-54894200D01*
X34895238Y-54894200D02*
X34819047Y-54932295D01*
X34819047Y-54932295D02*
X34742857Y-54932295D01*
X34742857Y-54932295D02*
X34666666Y-54894200D01*
X34666666Y-54894200D02*
X34628571Y-54856104D01*
X34628571Y-54856104D02*
X34590476Y-54779914D01*
X34590476Y-54779914D02*
X34552380Y-54627533D01*
X34552380Y-54627533D02*
X34552380Y-54437057D01*
X34552380Y-54437057D02*
X34590476Y-54284676D01*
X34590476Y-54284676D02*
X34628571Y-54208485D01*
X34628571Y-54208485D02*
X34666666Y-54170390D01*
X34666666Y-54170390D02*
X34742857Y-54132295D01*
X73609524Y-73162295D02*
X73609524Y-72362295D01*
X73609524Y-72362295D02*
X73800000Y-72362295D01*
X73800000Y-72362295D02*
X73914286Y-72400390D01*
X73914286Y-72400390D02*
X73990476Y-72476580D01*
X73990476Y-72476580D02*
X74028571Y-72552771D01*
X74028571Y-72552771D02*
X74066667Y-72705152D01*
X74066667Y-72705152D02*
X74066667Y-72819438D01*
X74066667Y-72819438D02*
X74028571Y-72971819D01*
X74028571Y-72971819D02*
X73990476Y-73048009D01*
X73990476Y-73048009D02*
X73914286Y-73124200D01*
X73914286Y-73124200D02*
X73800000Y-73162295D01*
X73800000Y-73162295D02*
X73609524Y-73162295D01*
X74371428Y-72438485D02*
X74409524Y-72400390D01*
X74409524Y-72400390D02*
X74485714Y-72362295D01*
X74485714Y-72362295D02*
X74676190Y-72362295D01*
X74676190Y-72362295D02*
X74752381Y-72400390D01*
X74752381Y-72400390D02*
X74790476Y-72438485D01*
X74790476Y-72438485D02*
X74828571Y-72514676D01*
X74828571Y-72514676D02*
X74828571Y-72590866D01*
X74828571Y-72590866D02*
X74790476Y-72705152D01*
X74790476Y-72705152D02*
X74333333Y-73162295D01*
X74333333Y-73162295D02*
X74828571Y-73162295D01*
X27804819Y-28158333D02*
X28519104Y-28158333D01*
X28519104Y-28158333D02*
X28661961Y-28205952D01*
X28661961Y-28205952D02*
X28757200Y-28301190D01*
X28757200Y-28301190D02*
X28804819Y-28444047D01*
X28804819Y-28444047D02*
X28804819Y-28539285D01*
X27804819Y-27777380D02*
X27804819Y-27110714D01*
X27804819Y-27110714D02*
X28804819Y-27539285D01*
X70824200Y-78416667D02*
X70862295Y-78302381D01*
X70862295Y-78302381D02*
X70862295Y-78111905D01*
X70862295Y-78111905D02*
X70824200Y-78035714D01*
X70824200Y-78035714D02*
X70786104Y-77997619D01*
X70786104Y-77997619D02*
X70709914Y-77959524D01*
X70709914Y-77959524D02*
X70633723Y-77959524D01*
X70633723Y-77959524D02*
X70557533Y-77997619D01*
X70557533Y-77997619D02*
X70519438Y-78035714D01*
X70519438Y-78035714D02*
X70481342Y-78111905D01*
X70481342Y-78111905D02*
X70443247Y-78264286D01*
X70443247Y-78264286D02*
X70405152Y-78340476D01*
X70405152Y-78340476D02*
X70367057Y-78378571D01*
X70367057Y-78378571D02*
X70290866Y-78416667D01*
X70290866Y-78416667D02*
X70214676Y-78416667D01*
X70214676Y-78416667D02*
X70138485Y-78378571D01*
X70138485Y-78378571D02*
X70100390Y-78340476D01*
X70100390Y-78340476D02*
X70062295Y-78264286D01*
X70062295Y-78264286D02*
X70062295Y-78073809D01*
X70062295Y-78073809D02*
X70100390Y-77959524D01*
X70062295Y-77692857D02*
X70862295Y-77502381D01*
X70862295Y-77502381D02*
X70290866Y-77350000D01*
X70290866Y-77350000D02*
X70862295Y-77197619D01*
X70862295Y-77197619D02*
X70062295Y-77007143D01*
X70862295Y-76283333D02*
X70862295Y-76740476D01*
X70862295Y-76511904D02*
X70062295Y-76511904D01*
X70062295Y-76511904D02*
X70176580Y-76588095D01*
X70176580Y-76588095D02*
X70252771Y-76664285D01*
X70252771Y-76664285D02*
X70290866Y-76740476D01*
X46662295Y-45203619D02*
X47233723Y-45203619D01*
X47233723Y-45203619D02*
X47348009Y-45241714D01*
X47348009Y-45241714D02*
X47424200Y-45317905D01*
X47424200Y-45317905D02*
X47462295Y-45432190D01*
X47462295Y-45432190D02*
X47462295Y-45508381D01*
X47462295Y-44403619D02*
X47462295Y-44860762D01*
X47462295Y-44632190D02*
X46662295Y-44632190D01*
X46662295Y-44632190D02*
X46776580Y-44708381D01*
X46776580Y-44708381D02*
X46852771Y-44784571D01*
X46852771Y-44784571D02*
X46890866Y-44860762D01*
X46928961Y-43717904D02*
X47462295Y-43717904D01*
X46624200Y-43908380D02*
X47195628Y-44098857D01*
X47195628Y-44098857D02*
X47195628Y-43603618D01*
X74535714Y-79962295D02*
X74269047Y-79581342D01*
X74078571Y-79962295D02*
X74078571Y-79162295D01*
X74078571Y-79162295D02*
X74383333Y-79162295D01*
X74383333Y-79162295D02*
X74459523Y-79200390D01*
X74459523Y-79200390D02*
X74497618Y-79238485D01*
X74497618Y-79238485D02*
X74535714Y-79314676D01*
X74535714Y-79314676D02*
X74535714Y-79428961D01*
X74535714Y-79428961D02*
X74497618Y-79505152D01*
X74497618Y-79505152D02*
X74459523Y-79543247D01*
X74459523Y-79543247D02*
X74383333Y-79581342D01*
X74383333Y-79581342D02*
X74078571Y-79581342D01*
X75297618Y-79962295D02*
X74840475Y-79962295D01*
X75069047Y-79962295D02*
X75069047Y-79162295D01*
X75069047Y-79162295D02*
X74992856Y-79276580D01*
X74992856Y-79276580D02*
X74916666Y-79352771D01*
X74916666Y-79352771D02*
X74840475Y-79390866D01*
X75983333Y-79162295D02*
X75830952Y-79162295D01*
X75830952Y-79162295D02*
X75754761Y-79200390D01*
X75754761Y-79200390D02*
X75716666Y-79238485D01*
X75716666Y-79238485D02*
X75640476Y-79352771D01*
X75640476Y-79352771D02*
X75602380Y-79505152D01*
X75602380Y-79505152D02*
X75602380Y-79809914D01*
X75602380Y-79809914D02*
X75640476Y-79886104D01*
X75640476Y-79886104D02*
X75678571Y-79924200D01*
X75678571Y-79924200D02*
X75754761Y-79962295D01*
X75754761Y-79962295D02*
X75907142Y-79962295D01*
X75907142Y-79962295D02*
X75983333Y-79924200D01*
X75983333Y-79924200D02*
X76021428Y-79886104D01*
X76021428Y-79886104D02*
X76059523Y-79809914D01*
X76059523Y-79809914D02*
X76059523Y-79619438D01*
X76059523Y-79619438D02*
X76021428Y-79543247D01*
X76021428Y-79543247D02*
X75983333Y-79505152D01*
X75983333Y-79505152D02*
X75907142Y-79467057D01*
X75907142Y-79467057D02*
X75754761Y-79467057D01*
X75754761Y-79467057D02*
X75678571Y-79505152D01*
X75678571Y-79505152D02*
X75640476Y-79543247D01*
X75640476Y-79543247D02*
X75602380Y-79619438D01*
X38485714Y-78086104D02*
X38447618Y-78124200D01*
X38447618Y-78124200D02*
X38333333Y-78162295D01*
X38333333Y-78162295D02*
X38257142Y-78162295D01*
X38257142Y-78162295D02*
X38142856Y-78124200D01*
X38142856Y-78124200D02*
X38066666Y-78048009D01*
X38066666Y-78048009D02*
X38028571Y-77971819D01*
X38028571Y-77971819D02*
X37990475Y-77819438D01*
X37990475Y-77819438D02*
X37990475Y-77705152D01*
X37990475Y-77705152D02*
X38028571Y-77552771D01*
X38028571Y-77552771D02*
X38066666Y-77476580D01*
X38066666Y-77476580D02*
X38142856Y-77400390D01*
X38142856Y-77400390D02*
X38257142Y-77362295D01*
X38257142Y-77362295D02*
X38333333Y-77362295D01*
X38333333Y-77362295D02*
X38447618Y-77400390D01*
X38447618Y-77400390D02*
X38485714Y-77438485D01*
X39247618Y-78162295D02*
X38790475Y-78162295D01*
X39019047Y-78162295D02*
X39019047Y-77362295D01*
X39019047Y-77362295D02*
X38942856Y-77476580D01*
X38942856Y-77476580D02*
X38866666Y-77552771D01*
X38866666Y-77552771D02*
X38790475Y-77590866D01*
X40009523Y-78162295D02*
X39552380Y-78162295D01*
X39780952Y-78162295D02*
X39780952Y-77362295D01*
X39780952Y-77362295D02*
X39704761Y-77476580D01*
X39704761Y-77476580D02*
X39628571Y-77552771D01*
X39628571Y-77552771D02*
X39552380Y-77590866D01*
X77866667Y-65886104D02*
X77828571Y-65924200D01*
X77828571Y-65924200D02*
X77714286Y-65962295D01*
X77714286Y-65962295D02*
X77638095Y-65962295D01*
X77638095Y-65962295D02*
X77523809Y-65924200D01*
X77523809Y-65924200D02*
X77447619Y-65848009D01*
X77447619Y-65848009D02*
X77409524Y-65771819D01*
X77409524Y-65771819D02*
X77371428Y-65619438D01*
X77371428Y-65619438D02*
X77371428Y-65505152D01*
X77371428Y-65505152D02*
X77409524Y-65352771D01*
X77409524Y-65352771D02*
X77447619Y-65276580D01*
X77447619Y-65276580D02*
X77523809Y-65200390D01*
X77523809Y-65200390D02*
X77638095Y-65162295D01*
X77638095Y-65162295D02*
X77714286Y-65162295D01*
X77714286Y-65162295D02*
X77828571Y-65200390D01*
X77828571Y-65200390D02*
X77866667Y-65238485D01*
X78590476Y-65162295D02*
X78209524Y-65162295D01*
X78209524Y-65162295D02*
X78171428Y-65543247D01*
X78171428Y-65543247D02*
X78209524Y-65505152D01*
X78209524Y-65505152D02*
X78285714Y-65467057D01*
X78285714Y-65467057D02*
X78476190Y-65467057D01*
X78476190Y-65467057D02*
X78552381Y-65505152D01*
X78552381Y-65505152D02*
X78590476Y-65543247D01*
X78590476Y-65543247D02*
X78628571Y-65619438D01*
X78628571Y-65619438D02*
X78628571Y-65809914D01*
X78628571Y-65809914D02*
X78590476Y-65886104D01*
X78590476Y-65886104D02*
X78552381Y-65924200D01*
X78552381Y-65924200D02*
X78476190Y-65962295D01*
X78476190Y-65962295D02*
X78285714Y-65962295D01*
X78285714Y-65962295D02*
X78209524Y-65924200D01*
X78209524Y-65924200D02*
X78171428Y-65886104D01*
X46066667Y-49787295D02*
X45800000Y-49406342D01*
X45609524Y-49787295D02*
X45609524Y-48987295D01*
X45609524Y-48987295D02*
X45914286Y-48987295D01*
X45914286Y-48987295D02*
X45990476Y-49025390D01*
X45990476Y-49025390D02*
X46028571Y-49063485D01*
X46028571Y-49063485D02*
X46066667Y-49139676D01*
X46066667Y-49139676D02*
X46066667Y-49253961D01*
X46066667Y-49253961D02*
X46028571Y-49330152D01*
X46028571Y-49330152D02*
X45990476Y-49368247D01*
X45990476Y-49368247D02*
X45914286Y-49406342D01*
X45914286Y-49406342D02*
X45609524Y-49406342D01*
X46447619Y-49787295D02*
X46600000Y-49787295D01*
X46600000Y-49787295D02*
X46676190Y-49749200D01*
X46676190Y-49749200D02*
X46714286Y-49711104D01*
X46714286Y-49711104D02*
X46790476Y-49596819D01*
X46790476Y-49596819D02*
X46828571Y-49444438D01*
X46828571Y-49444438D02*
X46828571Y-49139676D01*
X46828571Y-49139676D02*
X46790476Y-49063485D01*
X46790476Y-49063485D02*
X46752381Y-49025390D01*
X46752381Y-49025390D02*
X46676190Y-48987295D01*
X46676190Y-48987295D02*
X46523809Y-48987295D01*
X46523809Y-48987295D02*
X46447619Y-49025390D01*
X46447619Y-49025390D02*
X46409524Y-49063485D01*
X46409524Y-49063485D02*
X46371428Y-49139676D01*
X46371428Y-49139676D02*
X46371428Y-49330152D01*
X46371428Y-49330152D02*
X46409524Y-49406342D01*
X46409524Y-49406342D02*
X46447619Y-49444438D01*
X46447619Y-49444438D02*
X46523809Y-49482533D01*
X46523809Y-49482533D02*
X46676190Y-49482533D01*
X46676190Y-49482533D02*
X46752381Y-49444438D01*
X46752381Y-49444438D02*
X46790476Y-49406342D01*
X46790476Y-49406342D02*
X46828571Y-49330152D01*
X37310714Y-47686104D02*
X37272618Y-47724200D01*
X37272618Y-47724200D02*
X37158333Y-47762295D01*
X37158333Y-47762295D02*
X37082142Y-47762295D01*
X37082142Y-47762295D02*
X36967856Y-47724200D01*
X36967856Y-47724200D02*
X36891666Y-47648009D01*
X36891666Y-47648009D02*
X36853571Y-47571819D01*
X36853571Y-47571819D02*
X36815475Y-47419438D01*
X36815475Y-47419438D02*
X36815475Y-47305152D01*
X36815475Y-47305152D02*
X36853571Y-47152771D01*
X36853571Y-47152771D02*
X36891666Y-47076580D01*
X36891666Y-47076580D02*
X36967856Y-47000390D01*
X36967856Y-47000390D02*
X37082142Y-46962295D01*
X37082142Y-46962295D02*
X37158333Y-46962295D01*
X37158333Y-46962295D02*
X37272618Y-47000390D01*
X37272618Y-47000390D02*
X37310714Y-47038485D01*
X38072618Y-47762295D02*
X37615475Y-47762295D01*
X37844047Y-47762295D02*
X37844047Y-46962295D01*
X37844047Y-46962295D02*
X37767856Y-47076580D01*
X37767856Y-47076580D02*
X37691666Y-47152771D01*
X37691666Y-47152771D02*
X37615475Y-47190866D01*
X38758333Y-46962295D02*
X38605952Y-46962295D01*
X38605952Y-46962295D02*
X38529761Y-47000390D01*
X38529761Y-47000390D02*
X38491666Y-47038485D01*
X38491666Y-47038485D02*
X38415476Y-47152771D01*
X38415476Y-47152771D02*
X38377380Y-47305152D01*
X38377380Y-47305152D02*
X38377380Y-47609914D01*
X38377380Y-47609914D02*
X38415476Y-47686104D01*
X38415476Y-47686104D02*
X38453571Y-47724200D01*
X38453571Y-47724200D02*
X38529761Y-47762295D01*
X38529761Y-47762295D02*
X38682142Y-47762295D01*
X38682142Y-47762295D02*
X38758333Y-47724200D01*
X38758333Y-47724200D02*
X38796428Y-47686104D01*
X38796428Y-47686104D02*
X38834523Y-47609914D01*
X38834523Y-47609914D02*
X38834523Y-47419438D01*
X38834523Y-47419438D02*
X38796428Y-47343247D01*
X38796428Y-47343247D02*
X38758333Y-47305152D01*
X38758333Y-47305152D02*
X38682142Y-47267057D01*
X38682142Y-47267057D02*
X38529761Y-47267057D01*
X38529761Y-47267057D02*
X38453571Y-47305152D01*
X38453571Y-47305152D02*
X38415476Y-47343247D01*
X38415476Y-47343247D02*
X38377380Y-47419438D01*
X53186104Y-63914285D02*
X53224200Y-63952381D01*
X53224200Y-63952381D02*
X53262295Y-64066666D01*
X53262295Y-64066666D02*
X53262295Y-64142857D01*
X53262295Y-64142857D02*
X53224200Y-64257143D01*
X53224200Y-64257143D02*
X53148009Y-64333333D01*
X53148009Y-64333333D02*
X53071819Y-64371428D01*
X53071819Y-64371428D02*
X52919438Y-64409524D01*
X52919438Y-64409524D02*
X52805152Y-64409524D01*
X52805152Y-64409524D02*
X52652771Y-64371428D01*
X52652771Y-64371428D02*
X52576580Y-64333333D01*
X52576580Y-64333333D02*
X52500390Y-64257143D01*
X52500390Y-64257143D02*
X52462295Y-64142857D01*
X52462295Y-64142857D02*
X52462295Y-64066666D01*
X52462295Y-64066666D02*
X52500390Y-63952381D01*
X52500390Y-63952381D02*
X52538485Y-63914285D01*
X53262295Y-63152381D02*
X53262295Y-63609524D01*
X53262295Y-63380952D02*
X52462295Y-63380952D01*
X52462295Y-63380952D02*
X52576580Y-63457143D01*
X52576580Y-63457143D02*
X52652771Y-63533333D01*
X52652771Y-63533333D02*
X52690866Y-63609524D01*
X52538485Y-62847619D02*
X52500390Y-62809523D01*
X52500390Y-62809523D02*
X52462295Y-62733333D01*
X52462295Y-62733333D02*
X52462295Y-62542857D01*
X52462295Y-62542857D02*
X52500390Y-62466666D01*
X52500390Y-62466666D02*
X52538485Y-62428571D01*
X52538485Y-62428571D02*
X52614676Y-62390476D01*
X52614676Y-62390476D02*
X52690866Y-62390476D01*
X52690866Y-62390476D02*
X52805152Y-62428571D01*
X52805152Y-62428571D02*
X53262295Y-62885714D01*
X53262295Y-62885714D02*
X53262295Y-62390476D01*
X42066667Y-56662295D02*
X41800000Y-56281342D01*
X41609524Y-56662295D02*
X41609524Y-55862295D01*
X41609524Y-55862295D02*
X41914286Y-55862295D01*
X41914286Y-55862295D02*
X41990476Y-55900390D01*
X41990476Y-55900390D02*
X42028571Y-55938485D01*
X42028571Y-55938485D02*
X42066667Y-56014676D01*
X42066667Y-56014676D02*
X42066667Y-56128961D01*
X42066667Y-56128961D02*
X42028571Y-56205152D01*
X42028571Y-56205152D02*
X41990476Y-56243247D01*
X41990476Y-56243247D02*
X41914286Y-56281342D01*
X41914286Y-56281342D02*
X41609524Y-56281342D01*
X42333333Y-55862295D02*
X42828571Y-55862295D01*
X42828571Y-55862295D02*
X42561905Y-56167057D01*
X42561905Y-56167057D02*
X42676190Y-56167057D01*
X42676190Y-56167057D02*
X42752381Y-56205152D01*
X42752381Y-56205152D02*
X42790476Y-56243247D01*
X42790476Y-56243247D02*
X42828571Y-56319438D01*
X42828571Y-56319438D02*
X42828571Y-56509914D01*
X42828571Y-56509914D02*
X42790476Y-56586104D01*
X42790476Y-56586104D02*
X42752381Y-56624200D01*
X42752381Y-56624200D02*
X42676190Y-56662295D01*
X42676190Y-56662295D02*
X42447619Y-56662295D01*
X42447619Y-56662295D02*
X42371428Y-56624200D01*
X42371428Y-56624200D02*
X42333333Y-56586104D01*
X57286104Y-69733332D02*
X57324200Y-69771428D01*
X57324200Y-69771428D02*
X57362295Y-69885713D01*
X57362295Y-69885713D02*
X57362295Y-69961904D01*
X57362295Y-69961904D02*
X57324200Y-70076190D01*
X57324200Y-70076190D02*
X57248009Y-70152380D01*
X57248009Y-70152380D02*
X57171819Y-70190475D01*
X57171819Y-70190475D02*
X57019438Y-70228571D01*
X57019438Y-70228571D02*
X56905152Y-70228571D01*
X56905152Y-70228571D02*
X56752771Y-70190475D01*
X56752771Y-70190475D02*
X56676580Y-70152380D01*
X56676580Y-70152380D02*
X56600390Y-70076190D01*
X56600390Y-70076190D02*
X56562295Y-69961904D01*
X56562295Y-69961904D02*
X56562295Y-69885713D01*
X56562295Y-69885713D02*
X56600390Y-69771428D01*
X56600390Y-69771428D02*
X56638485Y-69733332D01*
X56562295Y-69047618D02*
X56562295Y-69199999D01*
X56562295Y-69199999D02*
X56600390Y-69276190D01*
X56600390Y-69276190D02*
X56638485Y-69314285D01*
X56638485Y-69314285D02*
X56752771Y-69390475D01*
X56752771Y-69390475D02*
X56905152Y-69428571D01*
X56905152Y-69428571D02*
X57209914Y-69428571D01*
X57209914Y-69428571D02*
X57286104Y-69390475D01*
X57286104Y-69390475D02*
X57324200Y-69352380D01*
X57324200Y-69352380D02*
X57362295Y-69276190D01*
X57362295Y-69276190D02*
X57362295Y-69123809D01*
X57362295Y-69123809D02*
X57324200Y-69047618D01*
X57324200Y-69047618D02*
X57286104Y-69009523D01*
X57286104Y-69009523D02*
X57209914Y-68971428D01*
X57209914Y-68971428D02*
X57019438Y-68971428D01*
X57019438Y-68971428D02*
X56943247Y-69009523D01*
X56943247Y-69009523D02*
X56905152Y-69047618D01*
X56905152Y-69047618D02*
X56867057Y-69123809D01*
X56867057Y-69123809D02*
X56867057Y-69276190D01*
X56867057Y-69276190D02*
X56905152Y-69352380D01*
X56905152Y-69352380D02*
X56943247Y-69390475D01*
X56943247Y-69390475D02*
X57019438Y-69428571D01*
X77009524Y-58562295D02*
X77009524Y-57762295D01*
X77009524Y-57762295D02*
X77200000Y-57762295D01*
X77200000Y-57762295D02*
X77314286Y-57800390D01*
X77314286Y-57800390D02*
X77390476Y-57876580D01*
X77390476Y-57876580D02*
X77428571Y-57952771D01*
X77428571Y-57952771D02*
X77466667Y-58105152D01*
X77466667Y-58105152D02*
X77466667Y-58219438D01*
X77466667Y-58219438D02*
X77428571Y-58371819D01*
X77428571Y-58371819D02*
X77390476Y-58448009D01*
X77390476Y-58448009D02*
X77314286Y-58524200D01*
X77314286Y-58524200D02*
X77200000Y-58562295D01*
X77200000Y-58562295D02*
X77009524Y-58562295D01*
X77733333Y-57762295D02*
X78228571Y-57762295D01*
X78228571Y-57762295D02*
X77961905Y-58067057D01*
X77961905Y-58067057D02*
X78076190Y-58067057D01*
X78076190Y-58067057D02*
X78152381Y-58105152D01*
X78152381Y-58105152D02*
X78190476Y-58143247D01*
X78190476Y-58143247D02*
X78228571Y-58219438D01*
X78228571Y-58219438D02*
X78228571Y-58409914D01*
X78228571Y-58409914D02*
X78190476Y-58486104D01*
X78190476Y-58486104D02*
X78152381Y-58524200D01*
X78152381Y-58524200D02*
X78076190Y-58562295D01*
X78076190Y-58562295D02*
X77847619Y-58562295D01*
X77847619Y-58562295D02*
X77771428Y-58524200D01*
X77771428Y-58524200D02*
X77733333Y-58486104D01*
X75172845Y-69589569D02*
X75172845Y-70399092D01*
X75172845Y-70399092D02*
X75220464Y-70494330D01*
X75220464Y-70494330D02*
X75268083Y-70541950D01*
X75268083Y-70541950D02*
X75363321Y-70589569D01*
X75363321Y-70589569D02*
X75553797Y-70589569D01*
X75553797Y-70589569D02*
X75649035Y-70541950D01*
X75649035Y-70541950D02*
X75696654Y-70494330D01*
X75696654Y-70494330D02*
X75744273Y-70399092D01*
X75744273Y-70399092D02*
X75744273Y-69589569D01*
X76744273Y-70589569D02*
X76172845Y-70589569D01*
X76458559Y-70589569D02*
X76458559Y-69589569D01*
X76458559Y-69589569D02*
X76363321Y-69732426D01*
X76363321Y-69732426D02*
X76268083Y-69827664D01*
X76268083Y-69827664D02*
X76172845Y-69875283D01*
X73241500Y-67637568D02*
X73241500Y-67875663D01*
X73003405Y-67780425D02*
X73241500Y-67875663D01*
X73241500Y-67875663D02*
X73479595Y-67780425D01*
X73098643Y-68066139D02*
X73241500Y-67875663D01*
X73241500Y-67875663D02*
X73384357Y-68066139D01*
X73841500Y-66988569D02*
X73841500Y-67226664D01*
X73603405Y-67131426D02*
X73841500Y-67226664D01*
X73841500Y-67226664D02*
X74079595Y-67131426D01*
X73698643Y-67417140D02*
X73841500Y-67226664D01*
X73841500Y-67226664D02*
X73984357Y-67417140D01*
X59516104Y-72333332D02*
X59554200Y-72371428D01*
X59554200Y-72371428D02*
X59592295Y-72485713D01*
X59592295Y-72485713D02*
X59592295Y-72561904D01*
X59592295Y-72561904D02*
X59554200Y-72676190D01*
X59554200Y-72676190D02*
X59478009Y-72752380D01*
X59478009Y-72752380D02*
X59401819Y-72790475D01*
X59401819Y-72790475D02*
X59249438Y-72828571D01*
X59249438Y-72828571D02*
X59135152Y-72828571D01*
X59135152Y-72828571D02*
X58982771Y-72790475D01*
X58982771Y-72790475D02*
X58906580Y-72752380D01*
X58906580Y-72752380D02*
X58830390Y-72676190D01*
X58830390Y-72676190D02*
X58792295Y-72561904D01*
X58792295Y-72561904D02*
X58792295Y-72485713D01*
X58792295Y-72485713D02*
X58830390Y-72371428D01*
X58830390Y-72371428D02*
X58868485Y-72333332D01*
X59592295Y-71952380D02*
X59592295Y-71799999D01*
X59592295Y-71799999D02*
X59554200Y-71723809D01*
X59554200Y-71723809D02*
X59516104Y-71685713D01*
X59516104Y-71685713D02*
X59401819Y-71609523D01*
X59401819Y-71609523D02*
X59249438Y-71571428D01*
X59249438Y-71571428D02*
X58944676Y-71571428D01*
X58944676Y-71571428D02*
X58868485Y-71609523D01*
X58868485Y-71609523D02*
X58830390Y-71647618D01*
X58830390Y-71647618D02*
X58792295Y-71723809D01*
X58792295Y-71723809D02*
X58792295Y-71876190D01*
X58792295Y-71876190D02*
X58830390Y-71952380D01*
X58830390Y-71952380D02*
X58868485Y-71990475D01*
X58868485Y-71990475D02*
X58944676Y-72028571D01*
X58944676Y-72028571D02*
X59135152Y-72028571D01*
X59135152Y-72028571D02*
X59211342Y-71990475D01*
X59211342Y-71990475D02*
X59249438Y-71952380D01*
X59249438Y-71952380D02*
X59287533Y-71876190D01*
X59287533Y-71876190D02*
X59287533Y-71723809D01*
X59287533Y-71723809D02*
X59249438Y-71647618D01*
X59249438Y-71647618D02*
X59211342Y-71609523D01*
X59211342Y-71609523D02*
X59135152Y-71571428D01*
X36209524Y-62362295D02*
X36209524Y-61562295D01*
X36209524Y-61562295D02*
X36400000Y-61562295D01*
X36400000Y-61562295D02*
X36514286Y-61600390D01*
X36514286Y-61600390D02*
X36590476Y-61676580D01*
X36590476Y-61676580D02*
X36628571Y-61752771D01*
X36628571Y-61752771D02*
X36666667Y-61905152D01*
X36666667Y-61905152D02*
X36666667Y-62019438D01*
X36666667Y-62019438D02*
X36628571Y-62171819D01*
X36628571Y-62171819D02*
X36590476Y-62248009D01*
X36590476Y-62248009D02*
X36514286Y-62324200D01*
X36514286Y-62324200D02*
X36400000Y-62362295D01*
X36400000Y-62362295D02*
X36209524Y-62362295D01*
X37428571Y-62362295D02*
X36971428Y-62362295D01*
X37200000Y-62362295D02*
X37200000Y-61562295D01*
X37200000Y-61562295D02*
X37123809Y-61676580D01*
X37123809Y-61676580D02*
X37047619Y-61752771D01*
X37047619Y-61752771D02*
X36971428Y-61790866D01*
X69886104Y-63933332D02*
X69924200Y-63971428D01*
X69924200Y-63971428D02*
X69962295Y-64085713D01*
X69962295Y-64085713D02*
X69962295Y-64161904D01*
X69962295Y-64161904D02*
X69924200Y-64276190D01*
X69924200Y-64276190D02*
X69848009Y-64352380D01*
X69848009Y-64352380D02*
X69771819Y-64390475D01*
X69771819Y-64390475D02*
X69619438Y-64428571D01*
X69619438Y-64428571D02*
X69505152Y-64428571D01*
X69505152Y-64428571D02*
X69352771Y-64390475D01*
X69352771Y-64390475D02*
X69276580Y-64352380D01*
X69276580Y-64352380D02*
X69200390Y-64276190D01*
X69200390Y-64276190D02*
X69162295Y-64161904D01*
X69162295Y-64161904D02*
X69162295Y-64085713D01*
X69162295Y-64085713D02*
X69200390Y-63971428D01*
X69200390Y-63971428D02*
X69238485Y-63933332D01*
X69962295Y-63171428D02*
X69962295Y-63628571D01*
X69962295Y-63399999D02*
X69162295Y-63399999D01*
X69162295Y-63399999D02*
X69276580Y-63476190D01*
X69276580Y-63476190D02*
X69352771Y-63552380D01*
X69352771Y-63552380D02*
X69390866Y-63628571D01*
X67685714Y-42886104D02*
X67647618Y-42924200D01*
X67647618Y-42924200D02*
X67533333Y-42962295D01*
X67533333Y-42962295D02*
X67457142Y-42962295D01*
X67457142Y-42962295D02*
X67342856Y-42924200D01*
X67342856Y-42924200D02*
X67266666Y-42848009D01*
X67266666Y-42848009D02*
X67228571Y-42771819D01*
X67228571Y-42771819D02*
X67190475Y-42619438D01*
X67190475Y-42619438D02*
X67190475Y-42505152D01*
X67190475Y-42505152D02*
X67228571Y-42352771D01*
X67228571Y-42352771D02*
X67266666Y-42276580D01*
X67266666Y-42276580D02*
X67342856Y-42200390D01*
X67342856Y-42200390D02*
X67457142Y-42162295D01*
X67457142Y-42162295D02*
X67533333Y-42162295D01*
X67533333Y-42162295D02*
X67647618Y-42200390D01*
X67647618Y-42200390D02*
X67685714Y-42238485D01*
X67990475Y-42238485D02*
X68028571Y-42200390D01*
X68028571Y-42200390D02*
X68104761Y-42162295D01*
X68104761Y-42162295D02*
X68295237Y-42162295D01*
X68295237Y-42162295D02*
X68371428Y-42200390D01*
X68371428Y-42200390D02*
X68409523Y-42238485D01*
X68409523Y-42238485D02*
X68447618Y-42314676D01*
X68447618Y-42314676D02*
X68447618Y-42390866D01*
X68447618Y-42390866D02*
X68409523Y-42505152D01*
X68409523Y-42505152D02*
X67952380Y-42962295D01*
X67952380Y-42962295D02*
X68447618Y-42962295D01*
X69209523Y-42962295D02*
X68752380Y-42962295D01*
X68980952Y-42962295D02*
X68980952Y-42162295D01*
X68980952Y-42162295D02*
X68904761Y-42276580D01*
X68904761Y-42276580D02*
X68828571Y-42352771D01*
X68828571Y-42352771D02*
X68752380Y-42390866D01*
X52085714Y-49886104D02*
X52047618Y-49924200D01*
X52047618Y-49924200D02*
X51933333Y-49962295D01*
X51933333Y-49962295D02*
X51857142Y-49962295D01*
X51857142Y-49962295D02*
X51742856Y-49924200D01*
X51742856Y-49924200D02*
X51666666Y-49848009D01*
X51666666Y-49848009D02*
X51628571Y-49771819D01*
X51628571Y-49771819D02*
X51590475Y-49619438D01*
X51590475Y-49619438D02*
X51590475Y-49505152D01*
X51590475Y-49505152D02*
X51628571Y-49352771D01*
X51628571Y-49352771D02*
X51666666Y-49276580D01*
X51666666Y-49276580D02*
X51742856Y-49200390D01*
X51742856Y-49200390D02*
X51857142Y-49162295D01*
X51857142Y-49162295D02*
X51933333Y-49162295D01*
X51933333Y-49162295D02*
X52047618Y-49200390D01*
X52047618Y-49200390D02*
X52085714Y-49238485D01*
X52847618Y-49962295D02*
X52390475Y-49962295D01*
X52619047Y-49962295D02*
X52619047Y-49162295D01*
X52619047Y-49162295D02*
X52542856Y-49276580D01*
X52542856Y-49276580D02*
X52466666Y-49352771D01*
X52466666Y-49352771D02*
X52390475Y-49390866D01*
X53228571Y-49962295D02*
X53380952Y-49962295D01*
X53380952Y-49962295D02*
X53457142Y-49924200D01*
X53457142Y-49924200D02*
X53495238Y-49886104D01*
X53495238Y-49886104D02*
X53571428Y-49771819D01*
X53571428Y-49771819D02*
X53609523Y-49619438D01*
X53609523Y-49619438D02*
X53609523Y-49314676D01*
X53609523Y-49314676D02*
X53571428Y-49238485D01*
X53571428Y-49238485D02*
X53533333Y-49200390D01*
X53533333Y-49200390D02*
X53457142Y-49162295D01*
X53457142Y-49162295D02*
X53304761Y-49162295D01*
X53304761Y-49162295D02*
X53228571Y-49200390D01*
X53228571Y-49200390D02*
X53190476Y-49238485D01*
X53190476Y-49238485D02*
X53152380Y-49314676D01*
X53152380Y-49314676D02*
X53152380Y-49505152D01*
X53152380Y-49505152D02*
X53190476Y-49581342D01*
X53190476Y-49581342D02*
X53228571Y-49619438D01*
X53228571Y-49619438D02*
X53304761Y-49657533D01*
X53304761Y-49657533D02*
X53457142Y-49657533D01*
X53457142Y-49657533D02*
X53533333Y-49619438D01*
X53533333Y-49619438D02*
X53571428Y-49581342D01*
X53571428Y-49581342D02*
X53609523Y-49505152D01*
X70103114Y-48817504D02*
X70065018Y-48855600D01*
X70065018Y-48855600D02*
X69950733Y-48893695D01*
X69950733Y-48893695D02*
X69874542Y-48893695D01*
X69874542Y-48893695D02*
X69760256Y-48855600D01*
X69760256Y-48855600D02*
X69684066Y-48779409D01*
X69684066Y-48779409D02*
X69645971Y-48703219D01*
X69645971Y-48703219D02*
X69607875Y-48550838D01*
X69607875Y-48550838D02*
X69607875Y-48436552D01*
X69607875Y-48436552D02*
X69645971Y-48284171D01*
X69645971Y-48284171D02*
X69684066Y-48207980D01*
X69684066Y-48207980D02*
X69760256Y-48131790D01*
X69760256Y-48131790D02*
X69874542Y-48093695D01*
X69874542Y-48093695D02*
X69950733Y-48093695D01*
X69950733Y-48093695D02*
X70065018Y-48131790D01*
X70065018Y-48131790D02*
X70103114Y-48169885D01*
X70407875Y-48169885D02*
X70445971Y-48131790D01*
X70445971Y-48131790D02*
X70522161Y-48093695D01*
X70522161Y-48093695D02*
X70712637Y-48093695D01*
X70712637Y-48093695D02*
X70788828Y-48131790D01*
X70788828Y-48131790D02*
X70826923Y-48169885D01*
X70826923Y-48169885D02*
X70865018Y-48246076D01*
X70865018Y-48246076D02*
X70865018Y-48322266D01*
X70865018Y-48322266D02*
X70826923Y-48436552D01*
X70826923Y-48436552D02*
X70369780Y-48893695D01*
X70369780Y-48893695D02*
X70865018Y-48893695D01*
X71169780Y-48169885D02*
X71207876Y-48131790D01*
X71207876Y-48131790D02*
X71284066Y-48093695D01*
X71284066Y-48093695D02*
X71474542Y-48093695D01*
X71474542Y-48093695D02*
X71550733Y-48131790D01*
X71550733Y-48131790D02*
X71588828Y-48169885D01*
X71588828Y-48169885D02*
X71626923Y-48246076D01*
X71626923Y-48246076D02*
X71626923Y-48322266D01*
X71626923Y-48322266D02*
X71588828Y-48436552D01*
X71588828Y-48436552D02*
X71131685Y-48893695D01*
X71131685Y-48893695D02*
X71626923Y-48893695D01*
X60694904Y-43694285D02*
X60733000Y-43732381D01*
X60733000Y-43732381D02*
X60771095Y-43846666D01*
X60771095Y-43846666D02*
X60771095Y-43922857D01*
X60771095Y-43922857D02*
X60733000Y-44037143D01*
X60733000Y-44037143D02*
X60656809Y-44113333D01*
X60656809Y-44113333D02*
X60580619Y-44151428D01*
X60580619Y-44151428D02*
X60428238Y-44189524D01*
X60428238Y-44189524D02*
X60313952Y-44189524D01*
X60313952Y-44189524D02*
X60161571Y-44151428D01*
X60161571Y-44151428D02*
X60085380Y-44113333D01*
X60085380Y-44113333D02*
X60009190Y-44037143D01*
X60009190Y-44037143D02*
X59971095Y-43922857D01*
X59971095Y-43922857D02*
X59971095Y-43846666D01*
X59971095Y-43846666D02*
X60009190Y-43732381D01*
X60009190Y-43732381D02*
X60047285Y-43694285D01*
X60771095Y-42932381D02*
X60771095Y-43389524D01*
X60771095Y-43160952D02*
X59971095Y-43160952D01*
X59971095Y-43160952D02*
X60085380Y-43237143D01*
X60085380Y-43237143D02*
X60161571Y-43313333D01*
X60161571Y-43313333D02*
X60199666Y-43389524D01*
X59971095Y-42665714D02*
X59971095Y-42132380D01*
X59971095Y-42132380D02*
X60771095Y-42475238D01*
X30238095Y-51454819D02*
X30238095Y-52264342D01*
X30238095Y-52264342D02*
X30285714Y-52359580D01*
X30285714Y-52359580D02*
X30333333Y-52407200D01*
X30333333Y-52407200D02*
X30428571Y-52454819D01*
X30428571Y-52454819D02*
X30619047Y-52454819D01*
X30619047Y-52454819D02*
X30714285Y-52407200D01*
X30714285Y-52407200D02*
X30761904Y-52359580D01*
X30761904Y-52359580D02*
X30809523Y-52264342D01*
X30809523Y-52264342D02*
X30809523Y-51454819D01*
X31190476Y-51454819D02*
X31809523Y-51454819D01*
X31809523Y-51454819D02*
X31476190Y-51835771D01*
X31476190Y-51835771D02*
X31619047Y-51835771D01*
X31619047Y-51835771D02*
X31714285Y-51883390D01*
X31714285Y-51883390D02*
X31761904Y-51931009D01*
X31761904Y-51931009D02*
X31809523Y-52026247D01*
X31809523Y-52026247D02*
X31809523Y-52264342D01*
X31809523Y-52264342D02*
X31761904Y-52359580D01*
X31761904Y-52359580D02*
X31714285Y-52407200D01*
X31714285Y-52407200D02*
X31619047Y-52454819D01*
X31619047Y-52454819D02*
X31333333Y-52454819D01*
X31333333Y-52454819D02*
X31238095Y-52407200D01*
X31238095Y-52407200D02*
X31190476Y-52359580D01*
X73352380Y-48162295D02*
X73352380Y-48733723D01*
X73352380Y-48733723D02*
X73314285Y-48848009D01*
X73314285Y-48848009D02*
X73238094Y-48924200D01*
X73238094Y-48924200D02*
X73123809Y-48962295D01*
X73123809Y-48962295D02*
X73047618Y-48962295D01*
X74152380Y-48962295D02*
X73695237Y-48962295D01*
X73923809Y-48962295D02*
X73923809Y-48162295D01*
X73923809Y-48162295D02*
X73847618Y-48276580D01*
X73847618Y-48276580D02*
X73771428Y-48352771D01*
X73771428Y-48352771D02*
X73695237Y-48390866D01*
X74419047Y-48162295D02*
X74914285Y-48162295D01*
X74914285Y-48162295D02*
X74647619Y-48467057D01*
X74647619Y-48467057D02*
X74761904Y-48467057D01*
X74761904Y-48467057D02*
X74838095Y-48505152D01*
X74838095Y-48505152D02*
X74876190Y-48543247D01*
X74876190Y-48543247D02*
X74914285Y-48619438D01*
X74914285Y-48619438D02*
X74914285Y-48809914D01*
X74914285Y-48809914D02*
X74876190Y-48886104D01*
X74876190Y-48886104D02*
X74838095Y-48924200D01*
X74838095Y-48924200D02*
X74761904Y-48962295D01*
X74761904Y-48962295D02*
X74533333Y-48962295D01*
X74533333Y-48962295D02*
X74457142Y-48924200D01*
X74457142Y-48924200D02*
X74419047Y-48886104D01*
D10*
X76114285Y-48736323D02*
X76495238Y-48736323D01*
X76038095Y-48964895D02*
X76304762Y-48164895D01*
X76304762Y-48164895D02*
X76571428Y-48964895D01*
X77066666Y-48164895D02*
X77066666Y-48736323D01*
X77066666Y-48736323D02*
X77028571Y-48850609D01*
X77028571Y-48850609D02*
X76952380Y-48926800D01*
X76952380Y-48926800D02*
X76838095Y-48964895D01*
X76838095Y-48964895D02*
X76761904Y-48964895D01*
X77257143Y-49041085D02*
X77866666Y-49041085D01*
X77942857Y-48164895D02*
X78400000Y-48164895D01*
X78171428Y-48964895D02*
X78171428Y-48164895D01*
X78666667Y-48964895D02*
X78666667Y-48164895D01*
X78666667Y-48164895D02*
X78971429Y-48164895D01*
X78971429Y-48164895D02*
X79047619Y-48202990D01*
X79047619Y-48202990D02*
X79085714Y-48241085D01*
X79085714Y-48241085D02*
X79123810Y-48317276D01*
X79123810Y-48317276D02*
X79123810Y-48431561D01*
X79123810Y-48431561D02*
X79085714Y-48507752D01*
X79085714Y-48507752D02*
X79047619Y-48545847D01*
X79047619Y-48545847D02*
X78971429Y-48583942D01*
X78971429Y-48583942D02*
X78666667Y-48583942D01*
X79847619Y-48164895D02*
X79466667Y-48164895D01*
X79466667Y-48164895D02*
X79428571Y-48545847D01*
X79428571Y-48545847D02*
X79466667Y-48507752D01*
X79466667Y-48507752D02*
X79542857Y-48469657D01*
X79542857Y-48469657D02*
X79733333Y-48469657D01*
X79733333Y-48469657D02*
X79809524Y-48507752D01*
X79809524Y-48507752D02*
X79847619Y-48545847D01*
X79847619Y-48545847D02*
X79885714Y-48622038D01*
X79885714Y-48622038D02*
X79885714Y-48812514D01*
X79885714Y-48812514D02*
X79847619Y-48888704D01*
X79847619Y-48888704D02*
X79809524Y-48926800D01*
X79809524Y-48926800D02*
X79733333Y-48964895D01*
X79733333Y-48964895D02*
X79542857Y-48964895D01*
X79542857Y-48964895D02*
X79466667Y-48926800D01*
X79466667Y-48926800D02*
X79428571Y-48888704D01*
D11*
X55752380Y-25362295D02*
X55752380Y-25933723D01*
X55752380Y-25933723D02*
X55714285Y-26048009D01*
X55714285Y-26048009D02*
X55638094Y-26124200D01*
X55638094Y-26124200D02*
X55523809Y-26162295D01*
X55523809Y-26162295D02*
X55447618Y-26162295D01*
X56552380Y-26162295D02*
X56095237Y-26162295D01*
X56323809Y-26162295D02*
X56323809Y-25362295D01*
X56323809Y-25362295D02*
X56247618Y-25476580D01*
X56247618Y-25476580D02*
X56171428Y-25552771D01*
X56171428Y-25552771D02*
X56095237Y-25590866D01*
X57314285Y-26162295D02*
X56857142Y-26162295D01*
X57085714Y-26162295D02*
X57085714Y-25362295D01*
X57085714Y-25362295D02*
X57009523Y-25476580D01*
X57009523Y-25476580D02*
X56933333Y-25552771D01*
X56933333Y-25552771D02*
X56857142Y-25590866D01*
X41562295Y-64633332D02*
X41181342Y-64899999D01*
X41562295Y-65090475D02*
X40762295Y-65090475D01*
X40762295Y-65090475D02*
X40762295Y-64785713D01*
X40762295Y-64785713D02*
X40800390Y-64709523D01*
X40800390Y-64709523D02*
X40838485Y-64671428D01*
X40838485Y-64671428D02*
X40914676Y-64633332D01*
X40914676Y-64633332D02*
X41028961Y-64633332D01*
X41028961Y-64633332D02*
X41105152Y-64671428D01*
X41105152Y-64671428D02*
X41143247Y-64709523D01*
X41143247Y-64709523D02*
X41181342Y-64785713D01*
X41181342Y-64785713D02*
X41181342Y-65090475D01*
X40838485Y-64328571D02*
X40800390Y-64290475D01*
X40800390Y-64290475D02*
X40762295Y-64214285D01*
X40762295Y-64214285D02*
X40762295Y-64023809D01*
X40762295Y-64023809D02*
X40800390Y-63947618D01*
X40800390Y-63947618D02*
X40838485Y-63909523D01*
X40838485Y-63909523D02*
X40914676Y-63871428D01*
X40914676Y-63871428D02*
X40990866Y-63871428D01*
X40990866Y-63871428D02*
X41105152Y-63909523D01*
X41105152Y-63909523D02*
X41562295Y-64366666D01*
X41562295Y-64366666D02*
X41562295Y-63871428D01*
X58654819Y-70133333D02*
X59369104Y-70133333D01*
X59369104Y-70133333D02*
X59511961Y-70180952D01*
X59511961Y-70180952D02*
X59607200Y-70276190D01*
X59607200Y-70276190D02*
X59654819Y-70419047D01*
X59654819Y-70419047D02*
X59654819Y-70514285D01*
X58654819Y-69228571D02*
X58654819Y-69419047D01*
X58654819Y-69419047D02*
X58702438Y-69514285D01*
X58702438Y-69514285D02*
X58750057Y-69561904D01*
X58750057Y-69561904D02*
X58892914Y-69657142D01*
X58892914Y-69657142D02*
X59083390Y-69704761D01*
X59083390Y-69704761D02*
X59464342Y-69704761D01*
X59464342Y-69704761D02*
X59559580Y-69657142D01*
X59559580Y-69657142D02*
X59607200Y-69609523D01*
X59607200Y-69609523D02*
X59654819Y-69514285D01*
X59654819Y-69514285D02*
X59654819Y-69323809D01*
X59654819Y-69323809D02*
X59607200Y-69228571D01*
X59607200Y-69228571D02*
X59559580Y-69180952D01*
X59559580Y-69180952D02*
X59464342Y-69133333D01*
X59464342Y-69133333D02*
X59226247Y-69133333D01*
X59226247Y-69133333D02*
X59131009Y-69180952D01*
X59131009Y-69180952D02*
X59083390Y-69228571D01*
X59083390Y-69228571D02*
X59035771Y-69323809D01*
X59035771Y-69323809D02*
X59035771Y-69514285D01*
X59035771Y-69514285D02*
X59083390Y-69609523D01*
X59083390Y-69609523D02*
X59131009Y-69657142D01*
X59131009Y-69657142D02*
X59226247Y-69704761D01*
X59008011Y-38253609D02*
X59491820Y-38253609D01*
X58475820Y-38592276D02*
X59008011Y-38253609D01*
X59008011Y-38253609D02*
X58475820Y-37914942D01*
X58572582Y-37624657D02*
X58524201Y-37576276D01*
X58524201Y-37576276D02*
X58475820Y-37479514D01*
X58475820Y-37479514D02*
X58475820Y-37237609D01*
X58475820Y-37237609D02*
X58524201Y-37140847D01*
X58524201Y-37140847D02*
X58572582Y-37092466D01*
X58572582Y-37092466D02*
X58669344Y-37044085D01*
X58669344Y-37044085D02*
X58766106Y-37044085D01*
X58766106Y-37044085D02*
X58911249Y-37092466D01*
X58911249Y-37092466D02*
X59491820Y-37673038D01*
X59491820Y-37673038D02*
X59491820Y-37044085D01*
X41884819Y-36842857D02*
X41408628Y-37176190D01*
X41884819Y-37414285D02*
X40884819Y-37414285D01*
X40884819Y-37414285D02*
X40884819Y-37033333D01*
X40884819Y-37033333D02*
X40932438Y-36938095D01*
X40932438Y-36938095D02*
X40980057Y-36890476D01*
X40980057Y-36890476D02*
X41075295Y-36842857D01*
X41075295Y-36842857D02*
X41218152Y-36842857D01*
X41218152Y-36842857D02*
X41313390Y-36890476D01*
X41313390Y-36890476D02*
X41361009Y-36938095D01*
X41361009Y-36938095D02*
X41408628Y-37033333D01*
X41408628Y-37033333D02*
X41408628Y-37414285D01*
X41884819Y-35890476D02*
X41884819Y-36461904D01*
X41884819Y-36176190D02*
X40884819Y-36176190D01*
X40884819Y-36176190D02*
X41027676Y-36271428D01*
X41027676Y-36271428D02*
X41122914Y-36366666D01*
X41122914Y-36366666D02*
X41170533Y-36461904D01*
X41313390Y-35319047D02*
X41265771Y-35414285D01*
X41265771Y-35414285D02*
X41218152Y-35461904D01*
X41218152Y-35461904D02*
X41122914Y-35509523D01*
X41122914Y-35509523D02*
X41075295Y-35509523D01*
X41075295Y-35509523D02*
X40980057Y-35461904D01*
X40980057Y-35461904D02*
X40932438Y-35414285D01*
X40932438Y-35414285D02*
X40884819Y-35319047D01*
X40884819Y-35319047D02*
X40884819Y-35128571D01*
X40884819Y-35128571D02*
X40932438Y-35033333D01*
X40932438Y-35033333D02*
X40980057Y-34985714D01*
X40980057Y-34985714D02*
X41075295Y-34938095D01*
X41075295Y-34938095D02*
X41122914Y-34938095D01*
X41122914Y-34938095D02*
X41218152Y-34985714D01*
X41218152Y-34985714D02*
X41265771Y-35033333D01*
X41265771Y-35033333D02*
X41313390Y-35128571D01*
X41313390Y-35128571D02*
X41313390Y-35319047D01*
X41313390Y-35319047D02*
X41361009Y-35414285D01*
X41361009Y-35414285D02*
X41408628Y-35461904D01*
X41408628Y-35461904D02*
X41503866Y-35509523D01*
X41503866Y-35509523D02*
X41694342Y-35509523D01*
X41694342Y-35509523D02*
X41789580Y-35461904D01*
X41789580Y-35461904D02*
X41837200Y-35414285D01*
X41837200Y-35414285D02*
X41884819Y-35319047D01*
X41884819Y-35319047D02*
X41884819Y-35128571D01*
X41884819Y-35128571D02*
X41837200Y-35033333D01*
X41837200Y-35033333D02*
X41789580Y-34985714D01*
X41789580Y-34985714D02*
X41694342Y-34938095D01*
X41694342Y-34938095D02*
X41503866Y-34938095D01*
X41503866Y-34938095D02*
X41408628Y-34985714D01*
X41408628Y-34985714D02*
X41361009Y-35033333D01*
X41361009Y-35033333D02*
X41313390Y-35128571D01*
X61733333Y-46062295D02*
X61733333Y-46633723D01*
X61733333Y-46633723D02*
X61695238Y-46748009D01*
X61695238Y-46748009D02*
X61619047Y-46824200D01*
X61619047Y-46824200D02*
X61504762Y-46862295D01*
X61504762Y-46862295D02*
X61428571Y-46862295D01*
X62533333Y-46862295D02*
X62076190Y-46862295D01*
X62304762Y-46862295D02*
X62304762Y-46062295D01*
X62304762Y-46062295D02*
X62228571Y-46176580D01*
X62228571Y-46176580D02*
X62152381Y-46252771D01*
X62152381Y-46252771D02*
X62076190Y-46290866D01*
X34966666Y-25534819D02*
X34966666Y-26249104D01*
X34966666Y-26249104D02*
X34919047Y-26391961D01*
X34919047Y-26391961D02*
X34823809Y-26487200D01*
X34823809Y-26487200D02*
X34680952Y-26534819D01*
X34680952Y-26534819D02*
X34585714Y-26534819D01*
X35442857Y-26534819D02*
X35442857Y-25534819D01*
X35442857Y-25534819D02*
X35823809Y-25534819D01*
X35823809Y-25534819D02*
X35919047Y-25582438D01*
X35919047Y-25582438D02*
X35966666Y-25630057D01*
X35966666Y-25630057D02*
X36014285Y-25725295D01*
X36014285Y-25725295D02*
X36014285Y-25868152D01*
X36014285Y-25868152D02*
X35966666Y-25963390D01*
X35966666Y-25963390D02*
X35919047Y-26011009D01*
X35919047Y-26011009D02*
X35823809Y-26058628D01*
X35823809Y-26058628D02*
X35442857Y-26058628D01*
X36966666Y-26534819D02*
X36395238Y-26534819D01*
X36680952Y-26534819D02*
X36680952Y-25534819D01*
X36680952Y-25534819D02*
X36585714Y-25677676D01*
X36585714Y-25677676D02*
X36490476Y-25772914D01*
X36490476Y-25772914D02*
X36395238Y-25820533D01*
X48263820Y-38430104D02*
X49073343Y-38430104D01*
X49073343Y-38430104D02*
X49168581Y-38382485D01*
X49168581Y-38382485D02*
X49216201Y-38334866D01*
X49216201Y-38334866D02*
X49263820Y-38239628D01*
X49263820Y-38239628D02*
X49263820Y-38049152D01*
X49263820Y-38049152D02*
X49216201Y-37953914D01*
X49216201Y-37953914D02*
X49168581Y-37906295D01*
X49168581Y-37906295D02*
X49073343Y-37858676D01*
X49073343Y-37858676D02*
X48263820Y-37858676D01*
X48597153Y-36953914D02*
X49263820Y-36953914D01*
X48216201Y-37192009D02*
X48930486Y-37430104D01*
X48930486Y-37430104D02*
X48930486Y-36811057D01*
X42464020Y-41554399D02*
X42702115Y-41554399D01*
X42606877Y-41792494D02*
X42702115Y-41554399D01*
X42702115Y-41554399D02*
X42606877Y-41316304D01*
X42892591Y-41697256D02*
X42702115Y-41554399D01*
X42702115Y-41554399D02*
X42892591Y-41411542D01*
X43142819Y-41401999D02*
X43380914Y-41401999D01*
X43285676Y-41640094D02*
X43380914Y-41401999D01*
X43380914Y-41401999D02*
X43285676Y-41163904D01*
X43571390Y-41544856D02*
X43380914Y-41401999D01*
X43380914Y-41401999D02*
X43571390Y-41259142D01*
X74085714Y-65762295D02*
X73819047Y-65381342D01*
X73628571Y-65762295D02*
X73628571Y-64962295D01*
X73628571Y-64962295D02*
X73933333Y-64962295D01*
X73933333Y-64962295D02*
X74009523Y-65000390D01*
X74009523Y-65000390D02*
X74047618Y-65038485D01*
X74047618Y-65038485D02*
X74085714Y-65114676D01*
X74085714Y-65114676D02*
X74085714Y-65228961D01*
X74085714Y-65228961D02*
X74047618Y-65305152D01*
X74047618Y-65305152D02*
X74009523Y-65343247D01*
X74009523Y-65343247D02*
X73933333Y-65381342D01*
X73933333Y-65381342D02*
X73628571Y-65381342D01*
X74847618Y-65762295D02*
X74390475Y-65762295D01*
X74619047Y-65762295D02*
X74619047Y-64962295D01*
X74619047Y-64962295D02*
X74542856Y-65076580D01*
X74542856Y-65076580D02*
X74466666Y-65152771D01*
X74466666Y-65152771D02*
X74390475Y-65190866D01*
X75114285Y-64962295D02*
X75647619Y-64962295D01*
X75647619Y-64962295D02*
X75304761Y-65762295D01*
X49024819Y-47141666D02*
X48548628Y-47474999D01*
X49024819Y-47713094D02*
X48024819Y-47713094D01*
X48024819Y-47713094D02*
X48024819Y-47332142D01*
X48024819Y-47332142D02*
X48072438Y-47236904D01*
X48072438Y-47236904D02*
X48120057Y-47189285D01*
X48120057Y-47189285D02*
X48215295Y-47141666D01*
X48215295Y-47141666D02*
X48358152Y-47141666D01*
X48358152Y-47141666D02*
X48453390Y-47189285D01*
X48453390Y-47189285D02*
X48501009Y-47236904D01*
X48501009Y-47236904D02*
X48548628Y-47332142D01*
X48548628Y-47332142D02*
X48548628Y-47713094D01*
X48024819Y-46808332D02*
X48024819Y-46141666D01*
X48024819Y-46141666D02*
X49024819Y-46570237D01*
X67292295Y-63190475D02*
X66492295Y-63190475D01*
X66492295Y-63190475D02*
X66492295Y-62999999D01*
X66492295Y-62999999D02*
X66530390Y-62885713D01*
X66530390Y-62885713D02*
X66606580Y-62809523D01*
X66606580Y-62809523D02*
X66682771Y-62771428D01*
X66682771Y-62771428D02*
X66835152Y-62733332D01*
X66835152Y-62733332D02*
X66949438Y-62733332D01*
X66949438Y-62733332D02*
X67101819Y-62771428D01*
X67101819Y-62771428D02*
X67178009Y-62809523D01*
X67178009Y-62809523D02*
X67254200Y-62885713D01*
X67254200Y-62885713D02*
X67292295Y-62999999D01*
X67292295Y-62999999D02*
X67292295Y-63190475D01*
X66758961Y-62047618D02*
X67292295Y-62047618D01*
X66454200Y-62238094D02*
X67025628Y-62428571D01*
X67025628Y-62428571D02*
X67025628Y-61933332D01*
X43486104Y-43339285D02*
X43524200Y-43377381D01*
X43524200Y-43377381D02*
X43562295Y-43491666D01*
X43562295Y-43491666D02*
X43562295Y-43567857D01*
X43562295Y-43567857D02*
X43524200Y-43682143D01*
X43524200Y-43682143D02*
X43448009Y-43758333D01*
X43448009Y-43758333D02*
X43371819Y-43796428D01*
X43371819Y-43796428D02*
X43219438Y-43834524D01*
X43219438Y-43834524D02*
X43105152Y-43834524D01*
X43105152Y-43834524D02*
X42952771Y-43796428D01*
X42952771Y-43796428D02*
X42876580Y-43758333D01*
X42876580Y-43758333D02*
X42800390Y-43682143D01*
X42800390Y-43682143D02*
X42762295Y-43567857D01*
X42762295Y-43567857D02*
X42762295Y-43491666D01*
X42762295Y-43491666D02*
X42800390Y-43377381D01*
X42800390Y-43377381D02*
X42838485Y-43339285D01*
X42838485Y-43034524D02*
X42800390Y-42996428D01*
X42800390Y-42996428D02*
X42762295Y-42920238D01*
X42762295Y-42920238D02*
X42762295Y-42729762D01*
X42762295Y-42729762D02*
X42800390Y-42653571D01*
X42800390Y-42653571D02*
X42838485Y-42615476D01*
X42838485Y-42615476D02*
X42914676Y-42577381D01*
X42914676Y-42577381D02*
X42990866Y-42577381D01*
X42990866Y-42577381D02*
X43105152Y-42615476D01*
X43105152Y-42615476D02*
X43562295Y-43072619D01*
X43562295Y-43072619D02*
X43562295Y-42577381D01*
X42762295Y-42082142D02*
X42762295Y-42005952D01*
X42762295Y-42005952D02*
X42800390Y-41929761D01*
X42800390Y-41929761D02*
X42838485Y-41891666D01*
X42838485Y-41891666D02*
X42914676Y-41853571D01*
X42914676Y-41853571D02*
X43067057Y-41815476D01*
X43067057Y-41815476D02*
X43257533Y-41815476D01*
X43257533Y-41815476D02*
X43409914Y-41853571D01*
X43409914Y-41853571D02*
X43486104Y-41891666D01*
X43486104Y-41891666D02*
X43524200Y-41929761D01*
X43524200Y-41929761D02*
X43562295Y-42005952D01*
X43562295Y-42005952D02*
X43562295Y-42082142D01*
X43562295Y-42082142D02*
X43524200Y-42158333D01*
X43524200Y-42158333D02*
X43486104Y-42196428D01*
X43486104Y-42196428D02*
X43409914Y-42234523D01*
X43409914Y-42234523D02*
X43257533Y-42272619D01*
X43257533Y-42272619D02*
X43067057Y-42272619D01*
X43067057Y-42272619D02*
X42914676Y-42234523D01*
X42914676Y-42234523D02*
X42838485Y-42196428D01*
X42838485Y-42196428D02*
X42800390Y-42158333D01*
X42800390Y-42158333D02*
X42762295Y-42082142D01*
X70866667Y-60286104D02*
X70828571Y-60324200D01*
X70828571Y-60324200D02*
X70714286Y-60362295D01*
X70714286Y-60362295D02*
X70638095Y-60362295D01*
X70638095Y-60362295D02*
X70523809Y-60324200D01*
X70523809Y-60324200D02*
X70447619Y-60248009D01*
X70447619Y-60248009D02*
X70409524Y-60171819D01*
X70409524Y-60171819D02*
X70371428Y-60019438D01*
X70371428Y-60019438D02*
X70371428Y-59905152D01*
X70371428Y-59905152D02*
X70409524Y-59752771D01*
X70409524Y-59752771D02*
X70447619Y-59676580D01*
X70447619Y-59676580D02*
X70523809Y-59600390D01*
X70523809Y-59600390D02*
X70638095Y-59562295D01*
X70638095Y-59562295D02*
X70714286Y-59562295D01*
X70714286Y-59562295D02*
X70828571Y-59600390D01*
X70828571Y-59600390D02*
X70866667Y-59638485D01*
X71171428Y-59638485D02*
X71209524Y-59600390D01*
X71209524Y-59600390D02*
X71285714Y-59562295D01*
X71285714Y-59562295D02*
X71476190Y-59562295D01*
X71476190Y-59562295D02*
X71552381Y-59600390D01*
X71552381Y-59600390D02*
X71590476Y-59638485D01*
X71590476Y-59638485D02*
X71628571Y-59714676D01*
X71628571Y-59714676D02*
X71628571Y-59790866D01*
X71628571Y-59790866D02*
X71590476Y-59905152D01*
X71590476Y-59905152D02*
X71133333Y-60362295D01*
X71133333Y-60362295D02*
X71628571Y-60362295D01*
X36086104Y-70133332D02*
X36124200Y-70171428D01*
X36124200Y-70171428D02*
X36162295Y-70285713D01*
X36162295Y-70285713D02*
X36162295Y-70361904D01*
X36162295Y-70361904D02*
X36124200Y-70476190D01*
X36124200Y-70476190D02*
X36048009Y-70552380D01*
X36048009Y-70552380D02*
X35971819Y-70590475D01*
X35971819Y-70590475D02*
X35819438Y-70628571D01*
X35819438Y-70628571D02*
X35705152Y-70628571D01*
X35705152Y-70628571D02*
X35552771Y-70590475D01*
X35552771Y-70590475D02*
X35476580Y-70552380D01*
X35476580Y-70552380D02*
X35400390Y-70476190D01*
X35400390Y-70476190D02*
X35362295Y-70361904D01*
X35362295Y-70361904D02*
X35362295Y-70285713D01*
X35362295Y-70285713D02*
X35400390Y-70171428D01*
X35400390Y-70171428D02*
X35438485Y-70133332D01*
X35362295Y-69866666D02*
X35362295Y-69333332D01*
X35362295Y-69333332D02*
X36162295Y-69676190D01*
X24533333Y-37362295D02*
X24533333Y-37933723D01*
X24533333Y-37933723D02*
X24495238Y-38048009D01*
X24495238Y-38048009D02*
X24419047Y-38124200D01*
X24419047Y-38124200D02*
X24304762Y-38162295D01*
X24304762Y-38162295D02*
X24228571Y-38162295D01*
X25028571Y-37705152D02*
X24952381Y-37667057D01*
X24952381Y-37667057D02*
X24914286Y-37628961D01*
X24914286Y-37628961D02*
X24876190Y-37552771D01*
X24876190Y-37552771D02*
X24876190Y-37514676D01*
X24876190Y-37514676D02*
X24914286Y-37438485D01*
X24914286Y-37438485D02*
X24952381Y-37400390D01*
X24952381Y-37400390D02*
X25028571Y-37362295D01*
X25028571Y-37362295D02*
X25180952Y-37362295D01*
X25180952Y-37362295D02*
X25257143Y-37400390D01*
X25257143Y-37400390D02*
X25295238Y-37438485D01*
X25295238Y-37438485D02*
X25333333Y-37514676D01*
X25333333Y-37514676D02*
X25333333Y-37552771D01*
X25333333Y-37552771D02*
X25295238Y-37628961D01*
X25295238Y-37628961D02*
X25257143Y-37667057D01*
X25257143Y-37667057D02*
X25180952Y-37705152D01*
X25180952Y-37705152D02*
X25028571Y-37705152D01*
X25028571Y-37705152D02*
X24952381Y-37743247D01*
X24952381Y-37743247D02*
X24914286Y-37781342D01*
X24914286Y-37781342D02*
X24876190Y-37857533D01*
X24876190Y-37857533D02*
X24876190Y-38009914D01*
X24876190Y-38009914D02*
X24914286Y-38086104D01*
X24914286Y-38086104D02*
X24952381Y-38124200D01*
X24952381Y-38124200D02*
X25028571Y-38162295D01*
X25028571Y-38162295D02*
X25180952Y-38162295D01*
X25180952Y-38162295D02*
X25257143Y-38124200D01*
X25257143Y-38124200D02*
X25295238Y-38086104D01*
X25295238Y-38086104D02*
X25333333Y-38009914D01*
X25333333Y-38009914D02*
X25333333Y-37857533D01*
X25333333Y-37857533D02*
X25295238Y-37781342D01*
X25295238Y-37781342D02*
X25257143Y-37743247D01*
X25257143Y-37743247D02*
X25180952Y-37705152D01*
D10*
X50288704Y-52038094D02*
X50326800Y-52076190D01*
X50326800Y-52076190D02*
X50364895Y-52190475D01*
X50364895Y-52190475D02*
X50364895Y-52266666D01*
X50364895Y-52266666D02*
X50326800Y-52380952D01*
X50326800Y-52380952D02*
X50250609Y-52457142D01*
X50250609Y-52457142D02*
X50174419Y-52495237D01*
X50174419Y-52495237D02*
X50022038Y-52533333D01*
X50022038Y-52533333D02*
X49907752Y-52533333D01*
X49907752Y-52533333D02*
X49755371Y-52495237D01*
X49755371Y-52495237D02*
X49679180Y-52457142D01*
X49679180Y-52457142D02*
X49602990Y-52380952D01*
X49602990Y-52380952D02*
X49564895Y-52266666D01*
X49564895Y-52266666D02*
X49564895Y-52190475D01*
X49564895Y-52190475D02*
X49602990Y-52076190D01*
X49602990Y-52076190D02*
X49641085Y-52038094D01*
X50364895Y-51238094D02*
X49983942Y-51504761D01*
X50364895Y-51695237D02*
X49564895Y-51695237D01*
X49564895Y-51695237D02*
X49564895Y-51390475D01*
X49564895Y-51390475D02*
X49602990Y-51314285D01*
X49602990Y-51314285D02*
X49641085Y-51276190D01*
X49641085Y-51276190D02*
X49717276Y-51238094D01*
X49717276Y-51238094D02*
X49831561Y-51238094D01*
X49831561Y-51238094D02*
X49907752Y-51276190D01*
X49907752Y-51276190D02*
X49945847Y-51314285D01*
X49945847Y-51314285D02*
X49983942Y-51390475D01*
X49983942Y-51390475D02*
X49983942Y-51695237D01*
X50326800Y-50933333D02*
X50364895Y-50819047D01*
X50364895Y-50819047D02*
X50364895Y-50628571D01*
X50364895Y-50628571D02*
X50326800Y-50552380D01*
X50326800Y-50552380D02*
X50288704Y-50514285D01*
X50288704Y-50514285D02*
X50212514Y-50476190D01*
X50212514Y-50476190D02*
X50136323Y-50476190D01*
X50136323Y-50476190D02*
X50060133Y-50514285D01*
X50060133Y-50514285D02*
X50022038Y-50552380D01*
X50022038Y-50552380D02*
X49983942Y-50628571D01*
X49983942Y-50628571D02*
X49945847Y-50780952D01*
X49945847Y-50780952D02*
X49907752Y-50857142D01*
X49907752Y-50857142D02*
X49869657Y-50895237D01*
X49869657Y-50895237D02*
X49793466Y-50933333D01*
X49793466Y-50933333D02*
X49717276Y-50933333D01*
X49717276Y-50933333D02*
X49641085Y-50895237D01*
X49641085Y-50895237D02*
X49602990Y-50857142D01*
X49602990Y-50857142D02*
X49564895Y-50780952D01*
X49564895Y-50780952D02*
X49564895Y-50590475D01*
X49564895Y-50590475D02*
X49602990Y-50476190D01*
X49564895Y-50247618D02*
X49564895Y-49790475D01*
X50364895Y-50019047D02*
X49564895Y-50019047D01*
D11*
X74585714Y-78662295D02*
X74319047Y-78281342D01*
X74128571Y-78662295D02*
X74128571Y-77862295D01*
X74128571Y-77862295D02*
X74433333Y-77862295D01*
X74433333Y-77862295D02*
X74509523Y-77900390D01*
X74509523Y-77900390D02*
X74547618Y-77938485D01*
X74547618Y-77938485D02*
X74585714Y-78014676D01*
X74585714Y-78014676D02*
X74585714Y-78128961D01*
X74585714Y-78128961D02*
X74547618Y-78205152D01*
X74547618Y-78205152D02*
X74509523Y-78243247D01*
X74509523Y-78243247D02*
X74433333Y-78281342D01*
X74433333Y-78281342D02*
X74128571Y-78281342D01*
X75347618Y-78662295D02*
X74890475Y-78662295D01*
X75119047Y-78662295D02*
X75119047Y-77862295D01*
X75119047Y-77862295D02*
X75042856Y-77976580D01*
X75042856Y-77976580D02*
X74966666Y-78052771D01*
X74966666Y-78052771D02*
X74890475Y-78090866D01*
X76071428Y-77862295D02*
X75690476Y-77862295D01*
X75690476Y-77862295D02*
X75652380Y-78243247D01*
X75652380Y-78243247D02*
X75690476Y-78205152D01*
X75690476Y-78205152D02*
X75766666Y-78167057D01*
X75766666Y-78167057D02*
X75957142Y-78167057D01*
X75957142Y-78167057D02*
X76033333Y-78205152D01*
X76033333Y-78205152D02*
X76071428Y-78243247D01*
X76071428Y-78243247D02*
X76109523Y-78319438D01*
X76109523Y-78319438D02*
X76109523Y-78509914D01*
X76109523Y-78509914D02*
X76071428Y-78586104D01*
X76071428Y-78586104D02*
X76033333Y-78624200D01*
X76033333Y-78624200D02*
X75957142Y-78662295D01*
X75957142Y-78662295D02*
X75766666Y-78662295D01*
X75766666Y-78662295D02*
X75690476Y-78624200D01*
X75690476Y-78624200D02*
X75652380Y-78586104D01*
D13*
%TO.C,Y1*%
X31050000Y-77116400D02*
X31050000Y-71116400D01*
X34550000Y-77116400D02*
X34550000Y-71116400D01*
D14*
%TO.C,R19*%
X33137742Y-58077500D02*
X33612258Y-58077500D01*
X33137742Y-59122500D02*
X33612258Y-59122500D01*
%TO.C,C18*%
X59090000Y-32115580D02*
X59090000Y-31834420D01*
X60110000Y-32115580D02*
X60110000Y-31834420D01*
%TO.C,R10*%
X66417942Y-49438900D02*
X66892458Y-49438900D01*
X66417942Y-50483900D02*
X66892458Y-50483900D01*
%TO.C,C10*%
X39240000Y-74812164D02*
X39240000Y-75027836D01*
X39960000Y-74812164D02*
X39960000Y-75027836D01*
%TO.C,C15*%
X37965580Y-48207200D02*
X37684420Y-48207200D01*
X37965580Y-49227200D02*
X37684420Y-49227200D01*
%TO.C,R14*%
X43227500Y-62212258D02*
X43227500Y-61737742D01*
X44272500Y-62212258D02*
X44272500Y-61737742D01*
%TO.C,R4*%
X55087742Y-59977500D02*
X55562258Y-59977500D01*
X55087742Y-61022500D02*
X55562258Y-61022500D01*
%TO.C,R6*%
X54762742Y-54077500D02*
X55237258Y-54077500D01*
X54762742Y-55122500D02*
X55237258Y-55122500D01*
%TO.C,J3*%
X36070000Y-54530000D02*
X37400000Y-54530000D01*
X36070000Y-55860000D02*
X36070000Y-54530000D01*
X36070000Y-57130000D02*
X36070000Y-59730000D01*
X36070000Y-57130000D02*
X38730000Y-57130000D01*
X36070000Y-59730000D02*
X38730000Y-59730000D01*
X38730000Y-57130000D02*
X38730000Y-59730000D01*
%TO.C,J17*%
X55024000Y-46738000D02*
X56134000Y-46738000D01*
X55024000Y-47498000D02*
X55024000Y-46738000D01*
X55024000Y-48258000D02*
X55024000Y-48193000D01*
X55024000Y-48258000D02*
X55570529Y-48258000D01*
X55024000Y-48258000D02*
X57244000Y-48258000D01*
X56697471Y-48258000D02*
X57244000Y-48258000D01*
X57244000Y-48258000D02*
X57244000Y-48193000D01*
%TO.C,R8*%
X55977500Y-50977258D02*
X55977500Y-50502742D01*
X57022500Y-50977258D02*
X57022500Y-50502742D01*
%TO.C,C8*%
X38024180Y-71908000D02*
X37743020Y-71908000D01*
X38024180Y-72928000D02*
X37743020Y-72928000D01*
%TO.C,TP1*%
X56300000Y-66500000D02*
G75*
G02*
X54900000Y-66500000I-700000J0D01*
G01*
X54900000Y-66500000D02*
G75*
G02*
X56300000Y-66500000I700000J0D01*
G01*
%TO.C,C13*%
X23760000Y-44890580D02*
X23760000Y-44609420D01*
X24780000Y-44890580D02*
X24780000Y-44609420D01*
D11*
%TO.C,U2*%
X43736400Y-67599200D02*
X43736400Y-67824200D01*
X43736400Y-67599200D02*
X44061400Y-67599200D01*
X43736400Y-74849200D02*
X43736400Y-74524200D01*
X43736400Y-74849200D02*
X44061400Y-74849200D01*
X50986400Y-67599200D02*
X50661400Y-67599200D01*
X50986400Y-67599200D02*
X50986400Y-67924200D01*
X50986400Y-74849200D02*
X50661400Y-74849200D01*
X50986400Y-74849200D02*
X50986400Y-74524200D01*
D14*
X42971400Y-67884200D02*
X42631400Y-67414200D01*
X43311400Y-67414200D01*
X42971400Y-67884200D01*
G36*
X42971400Y-67884200D02*
G01*
X42631400Y-67414200D01*
X43311400Y-67414200D01*
X42971400Y-67884200D01*
G37*
%TO.C,J2*%
X40260000Y-28830000D02*
X40260000Y-27500000D01*
X41590000Y-28830000D02*
X40260000Y-28830000D01*
X42860000Y-26170000D02*
X53080000Y-26170000D01*
X42860000Y-28830000D02*
X42860000Y-26170000D01*
X42860000Y-28830000D02*
X53080000Y-28830000D01*
X53080000Y-28830000D02*
X53080000Y-26170000D01*
%TO.C,J15*%
X50467000Y-53990000D02*
X51577000Y-53990000D01*
X50467000Y-54750000D02*
X50467000Y-53990000D01*
X50467000Y-55510000D02*
X50467000Y-55445000D01*
X50467000Y-55510000D02*
X51013529Y-55510000D01*
X50467000Y-55510000D02*
X52687000Y-55510000D01*
X52140471Y-55510000D02*
X52687000Y-55510000D01*
X52687000Y-55510000D02*
X52687000Y-55445000D01*
%TO.C,C14*%
X24290000Y-50165580D02*
X24290000Y-49884420D01*
X25310000Y-50165580D02*
X25310000Y-49884420D01*
%TO.C,R12*%
X72437742Y-53477500D02*
X72912258Y-53477500D01*
X72437742Y-54522500D02*
X72912258Y-54522500D01*
%TO.C,J12*%
X27670000Y-55390000D02*
X29000000Y-55390000D01*
X27670000Y-56720000D02*
X27670000Y-55390000D01*
X27670000Y-57990000D02*
X27670000Y-68210000D01*
X27670000Y-57990000D02*
X30330000Y-57990000D01*
X27670000Y-68210000D02*
X30330000Y-68210000D01*
X30330000Y-57990000D02*
X30330000Y-68210000D01*
%TO.C,C4*%
X68370580Y-58740000D02*
X68089420Y-58740000D01*
X68370580Y-59760000D02*
X68089420Y-59760000D01*
%TO.C,R13*%
X67121058Y-53426700D02*
X66646542Y-53426700D01*
X67121058Y-54471700D02*
X66646542Y-54471700D01*
%TO.C,J9*%
X29070000Y-27545000D02*
X30400000Y-27545000D01*
X29070000Y-28875000D02*
X29070000Y-27545000D01*
X29070000Y-30145000D02*
X29070000Y-35285000D01*
X29070000Y-30145000D02*
X31730000Y-30145000D01*
X29070000Y-35285000D02*
X31730000Y-35285000D01*
X31730000Y-30145000D02*
X31730000Y-35285000D01*
%TO.C,R5*%
X55477500Y-57087742D02*
X55477500Y-57562258D01*
X56522500Y-57087742D02*
X56522500Y-57562258D01*
%TO.C,C23*%
X69320200Y-53046420D02*
X69320200Y-53327580D01*
X70340200Y-53046420D02*
X70340200Y-53327580D01*
%TO.C,R1*%
X44277500Y-54212258D02*
X44277500Y-53737742D01*
X45322500Y-54212258D02*
X45322500Y-53737742D01*
%TO.C,R11*%
X64262742Y-44477500D02*
X64737258Y-44477500D01*
X64262742Y-45522500D02*
X64737258Y-45522500D01*
%TO.C,R20*%
X33137742Y-55477500D02*
X33612258Y-55477500D01*
X33137742Y-56522500D02*
X33612258Y-56522500D01*
%TO.C,D2*%
X73050000Y-74885000D02*
X75335000Y-74885000D01*
X75335000Y-73415000D02*
X73050000Y-73415000D01*
X75335000Y-74885000D02*
X75335000Y-73415000D01*
%TO.C,J7*%
X24270000Y-27545000D02*
X25600000Y-27545000D01*
X24270000Y-28875000D02*
X24270000Y-27545000D01*
X24270000Y-30145000D02*
X24270000Y-35285000D01*
X24270000Y-30145000D02*
X26930000Y-30145000D01*
X24270000Y-35285000D02*
X26930000Y-35285000D01*
X26930000Y-30145000D02*
X26930000Y-35285000D01*
%TO.C,SW1*%
X66600000Y-75700000D02*
X66600000Y-79000000D01*
X66600000Y-79000000D02*
X66900000Y-79000000D01*
X66900000Y-75700000D02*
X66600000Y-75700000D01*
X69100000Y-75700000D02*
X69400000Y-75700000D01*
X69400000Y-75700000D02*
X69400000Y-79000000D01*
X69400000Y-79000000D02*
X69100000Y-79000000D01*
%TO.C,J14*%
X44490000Y-46040000D02*
X45600000Y-46040000D01*
X44490000Y-46800000D02*
X44490000Y-46040000D01*
X44490000Y-47560000D02*
X44490000Y-47495000D01*
X44490000Y-47560000D02*
X45036529Y-47560000D01*
X44490000Y-47560000D02*
X46710000Y-47560000D01*
X46163471Y-47560000D02*
X46710000Y-47560000D01*
X46710000Y-47560000D02*
X46710000Y-47495000D01*
%TO.C,R16*%
X71987742Y-78577500D02*
X72462258Y-78577500D01*
X71987742Y-79622500D02*
X72462258Y-79622500D01*
%TO.C,C11*%
X40372000Y-77012164D02*
X40372000Y-77227836D01*
X41092000Y-77012164D02*
X41092000Y-77227836D01*
%TO.C,C5*%
X77565580Y-63690000D02*
X77284420Y-63690000D01*
X77565580Y-64710000D02*
X77284420Y-64710000D01*
%TO.C,R9*%
X44077500Y-49787742D02*
X44077500Y-50262258D01*
X45122500Y-49787742D02*
X45122500Y-50262258D01*
%TO.C,C16*%
X37965580Y-45616400D02*
X37684420Y-45616400D01*
X37965580Y-46636400D02*
X37684420Y-46636400D01*
D15*
%TO.C,J10*%
X66178400Y-25198600D02*
X66178400Y-25398600D01*
X66178400Y-40998600D02*
X66178400Y-32198600D01*
X67978400Y-23198600D02*
X67978400Y-25198600D01*
X72978400Y-23198600D02*
X67978400Y-23198600D01*
X72978400Y-25198600D02*
X72978400Y-23198600D01*
X74178400Y-25198600D02*
X66178400Y-25198600D01*
X74178400Y-25398600D02*
X74178400Y-25198600D01*
X74178400Y-32198600D02*
X74178400Y-40998600D01*
X74178400Y-40998600D02*
X66178400Y-40998600D01*
D10*
X75378400Y-27198600D02*
X75378400Y-27198600D01*
X75478400Y-27198600D02*
X75478400Y-27198600D01*
X75378400Y-27198600D02*
G75*
G02*
X75478400Y-27198600I50000J0D01*
G01*
X75478400Y-27198600D02*
G75*
G02*
X75378400Y-27198600I-50000J0D01*
G01*
D14*
%TO.C,C12*%
X53790000Y-62659420D02*
X53790000Y-62940580D01*
X54810000Y-62659420D02*
X54810000Y-62940580D01*
%TO.C,R3*%
X41677500Y-53737742D02*
X41677500Y-54212258D01*
X42722500Y-53737742D02*
X42722500Y-54212258D01*
%TO.C,C6*%
X55157200Y-70315580D02*
X55157200Y-70034420D01*
X56177200Y-70315580D02*
X56177200Y-70034420D01*
%TO.C,D3*%
X74662500Y-60760000D02*
X77347500Y-60760000D01*
X77347500Y-58840000D02*
X74662500Y-58840000D01*
X77347500Y-60760000D02*
X77347500Y-58840000D01*
D16*
%TO.C,U1*%
X74931450Y-71785750D02*
X76938050Y-71785750D01*
X76938050Y-68483750D02*
X74931450Y-68483750D01*
X76938050Y-70498011D02*
X76938050Y-69771489D01*
D14*
%TO.C,C9*%
X57290000Y-72434420D02*
X57290000Y-72715580D01*
X58310000Y-72434420D02*
X58310000Y-72715580D01*
%TO.C,D1*%
X35115000Y-62840000D02*
X35115000Y-64760000D01*
X35115000Y-64760000D02*
X37800000Y-64760000D01*
X37800000Y-62840000D02*
X35115000Y-62840000D01*
%TO.C,C1*%
X67690000Y-61879420D02*
X67690000Y-62160580D01*
X68710000Y-61879420D02*
X68710000Y-62160580D01*
%TO.C,C21*%
X68788080Y-43290000D02*
X68506920Y-43290000D01*
X68788080Y-44310000D02*
X68506920Y-44310000D01*
%TO.C,C19*%
X52690000Y-47340580D02*
X52690000Y-47059420D01*
X53710000Y-47340580D02*
X53710000Y-47059420D01*
%TO.C,C22*%
X70476820Y-49451400D02*
X70757980Y-49451400D01*
X70476820Y-50471400D02*
X70757980Y-50471400D01*
%TO.C,C17*%
X58468800Y-43039420D02*
X58468800Y-43320580D01*
X59488800Y-43039420D02*
X59488800Y-43320580D01*
D11*
%TO.C,U3*%
X29889948Y-44501999D02*
X32685284Y-44501999D01*
X29889948Y-51002001D02*
X29889948Y-44501999D01*
X29889948Y-51002001D02*
X32685284Y-51002001D01*
X32685284Y-51002001D02*
X32685284Y-44501999D01*
D17*
X26984518Y-44827000D02*
G75*
G02*
X26734516Y-44827000I-125001J0D01*
G01*
X26734516Y-44827000D02*
G75*
G02*
X26984518Y-44827000I125001J0D01*
G01*
D18*
X30889949Y-45252000D02*
G75*
G02*
X30389949Y-45252000I-250000J0D01*
G01*
X30389949Y-45252000D02*
G75*
G02*
X30889949Y-45252000I250000J0D01*
G01*
D14*
%TO.C,J13*%
X71140000Y-47460000D02*
X71140000Y-46400000D01*
X72200000Y-47460000D02*
X71140000Y-47460000D01*
X73200000Y-45340000D02*
X81260000Y-45340000D01*
X73200000Y-47460000D02*
X73200000Y-45340000D01*
X73200000Y-47460000D02*
X81260000Y-47460000D01*
X81260000Y-47460000D02*
X81260000Y-45340000D01*
%TO.C,J11*%
X55340000Y-26940000D02*
X56400000Y-26940000D01*
X55340000Y-28000000D02*
X55340000Y-26940000D01*
X55340000Y-29000000D02*
X55340000Y-31060000D01*
X55340000Y-29000000D02*
X57460000Y-29000000D01*
X55340000Y-31060000D02*
X57460000Y-31060000D01*
X57460000Y-29000000D02*
X57460000Y-31060000D01*
%TO.C,R2*%
X39227500Y-64862258D02*
X39227500Y-64387742D01*
X40272500Y-64862258D02*
X40272500Y-64387742D01*
%TO.C,J6*%
X60380000Y-67380000D02*
X68120000Y-67380000D01*
X60380000Y-69980000D02*
X60380000Y-67380000D01*
X60380000Y-72580000D02*
X60380000Y-71250000D01*
X61710000Y-72580000D02*
X60380000Y-72580000D01*
X62980000Y-69980000D02*
X60380000Y-69980000D01*
X62980000Y-72580000D02*
X62980000Y-69980000D01*
X62980000Y-72580000D02*
X68120000Y-72580000D01*
X68120000Y-72580000D02*
X68120000Y-67380000D01*
D13*
%TO.C,Y2*%
X57228000Y-34846000D02*
X57228000Y-40846000D01*
X60728000Y-34846000D02*
X60728000Y-40846000D01*
D14*
%TO.C,R18*%
X39477500Y-35962742D02*
X39477500Y-36437258D01*
X40522500Y-35962742D02*
X40522500Y-36437258D01*
%TO.C,J1*%
X60670000Y-47850000D02*
X62000000Y-47850000D01*
X60670000Y-49180000D02*
X60670000Y-47850000D01*
X60670000Y-50450000D02*
X60670000Y-63210000D01*
X60670000Y-50450000D02*
X63330000Y-50450000D01*
X60670000Y-63210000D02*
X63330000Y-63210000D01*
X63330000Y-50450000D02*
X63330000Y-63210000D01*
%TO.C,JP1*%
X34270000Y-32810000D02*
X34270000Y-27670000D01*
X36930000Y-27670000D02*
X34270000Y-27670000D01*
X36930000Y-32810000D02*
X34270000Y-32810000D01*
X36930000Y-32810000D02*
X36930000Y-27670000D01*
X36930000Y-34080000D02*
X36930000Y-35410000D01*
X36930000Y-35410000D02*
X35600000Y-35410000D01*
D16*
%TO.C,U4*%
X43436901Y-34747200D02*
X43436901Y-40589200D01*
X43436901Y-40589200D02*
X44035361Y-40589200D01*
X44035361Y-34747200D02*
X43436901Y-34747200D01*
X53582639Y-40589200D02*
X54181101Y-40589200D01*
X54181101Y-34747200D02*
X53582641Y-34747200D01*
X54181101Y-40589200D02*
X54181101Y-34747200D01*
D19*
G36*
X49974500Y-32956500D02*
G01*
X49593500Y-32956500D01*
X49593500Y-32702500D01*
X49974500Y-32702500D01*
X49974500Y-32956500D01*
G37*
G36*
X50624499Y-42633900D02*
G01*
X50243499Y-42633900D01*
X50243499Y-42379900D01*
X50624499Y-42379900D01*
X50624499Y-42633900D01*
G37*
D14*
%TO.C,R17*%
X74077500Y-63052742D02*
X74077500Y-63527258D01*
X75122500Y-63052742D02*
X75122500Y-63527258D01*
%TO.C,R7*%
X49477500Y-47212258D02*
X49477500Y-46737742D01*
X50522500Y-47212258D02*
X50522500Y-46737742D01*
%TO.C,D4*%
X64765000Y-60527500D02*
X64765000Y-62812500D01*
X66235000Y-60527500D02*
X64765000Y-60527500D01*
X66235000Y-62812500D02*
X66235000Y-60527500D01*
%TO.C,C20*%
X41240000Y-43515580D02*
X41240000Y-43234420D01*
X42260000Y-43515580D02*
X42260000Y-43234420D01*
%TO.C,C2*%
X70490000Y-61859420D02*
X70490000Y-62140580D01*
X71510000Y-61859420D02*
X71510000Y-62140580D01*
%TO.C,C7*%
X38025180Y-69690000D02*
X37744020Y-69690000D01*
X38025180Y-70710000D02*
X37744020Y-70710000D01*
%TO.C,J8*%
X24170000Y-41830000D02*
X24170000Y-40500000D01*
X25500000Y-41830000D02*
X24170000Y-41830000D01*
X26770000Y-39170000D02*
X31910000Y-39170000D01*
X26770000Y-41830000D02*
X26770000Y-39170000D01*
X26770000Y-41830000D02*
X31910000Y-41830000D01*
X31910000Y-41830000D02*
X31910000Y-39170000D01*
%TO.C,J16*%
X50890000Y-51240000D02*
X52000000Y-51240000D01*
X50890000Y-52000000D02*
X50890000Y-51240000D01*
X50890000Y-52760000D02*
X50890000Y-52695000D01*
X50890000Y-52760000D02*
X51436529Y-52760000D01*
X50890000Y-52760000D02*
X53110000Y-52760000D01*
X52563471Y-52760000D02*
X53110000Y-52760000D01*
X53110000Y-52760000D02*
X53110000Y-52695000D01*
%TO.C,R15*%
X74112258Y-76377500D02*
X73637742Y-76377500D01*
X74112258Y-77422500D02*
X73637742Y-77422500D01*
%TD*%
M02*
