M48
; DRILL file {KiCad 7.0.11-1-dev-0f715223e9} date Thu 18 Jan 2024 09:50:58 AM PST
; FORMAT={-:-/ absolute / inch / decimal}
; #@! TF.CreationDate,2024-01-18T09:50:58-08:00
; #@! TF.GenerationSoftware,Kicad,Pcbnew,7.0.11-1-dev-0f715223e9
; #@! TF.FileFunction,Plated,1,2,PTH
FMAT,2
INCH
; #@! TA.AperFunction,Plated,PTH,ViaDrill
T1C0.0157
; #@! TA.AperFunction,Plated,PTH,ViaDrill
T2C0.0250
; #@! TA.AperFunction,Plated,PTH,ComponentDrill
T3C0.0256
; #@! TA.AperFunction,Plated,PTH,ComponentDrill
T4C0.0370
; #@! TA.AperFunction,Plated,PTH,ComponentDrill
T5C0.0394
; #@! TA.AperFunction,Plated,PTH,ComponentDrill
T6C0.0669
; #@! TA.AperFunction,Plated,PTH,ComponentDrill
T7C0.0866
%
G90
G05
T1
X0.9832Y-1.8612
X1.0Y-2.026
X1.0143Y-1.8367
X1.0472Y-1.6
X1.22Y-1.08
X1.3831Y-1.171
X1.413Y-1.859
X1.4286Y-1.2164
X1.4882Y-1.495
X1.5Y-1.767
X1.5089Y-2.02
X1.56Y-1.92
X1.579Y-1.3058
X1.6086Y-1.3964
X1.69Y-3.02
X1.6929Y-2.7244
X1.694Y-2.791
X1.7008Y-2.155
X1.7015Y-2.02
X1.7559Y-2.2598
X1.7953Y-1.7717
X1.809Y-2.8884
X1.81Y-2.8261
X1.86Y-1.94
X1.87Y-2.09
X1.89Y-3.11
X1.93Y-2.31
X2.0Y-2.22
X2.04Y-2.33
X2.045Y-2.45
X2.06Y-1.74
X2.08Y-2.14
X2.1055Y-2.5915
X2.1417Y-1.6478
X2.17Y-2.59
X2.17Y-3.112
X2.19Y-1.732
X2.23Y-2.02
X2.323Y-1.773
X2.338Y-2.858
X2.358Y-3.015
X2.42Y-1.295
X2.46Y-2.175
X2.49Y-2.55
X2.617Y-2.879
X2.6535Y-1.7638
X2.74Y-2.475
X2.7874Y-3.05
X3.0Y-2.46
T2
X1.81Y-1.2205
X2.4511Y-1.765
T3
X1.03Y-2.36
X1.08Y-2.36
X1.13Y-2.36
X1.19Y-1.64
X1.24Y-1.64
X1.29Y-1.64
X1.305Y-2.125
X1.355Y-2.125
X1.405Y-2.125
X1.82Y-1.86
X2.07Y-1.94
X2.21Y-1.19
X2.21Y-1.24
X2.21Y-1.87
X2.215Y-2.175
X2.8296Y-1.88
X2.8796Y-1.88
X2.9296Y-1.88
X2.9796Y-1.88
X3.0296Y-1.88
T4
X2.696Y-1.559
X2.7747Y-1.559
X2.8535Y-1.559
T5
X1.09Y-1.08
X1.09Y-1.18
X1.09Y-1.28
X1.2Y-2.55
X1.2Y-2.65
X1.2Y-2.75
X1.2Y-2.85
X1.43Y-1.04
X1.485Y-2.5
X1.53Y-1.04
X1.585Y-2.5
X1.61Y-1.62
X1.61Y-1.72
X1.61Y-1.82
X1.685Y-2.5
X1.76Y-1.04
X1.86Y-1.04
X1.96Y-1.04
X2.06Y-1.04
X2.16Y-1.04
X2.5669Y-1.939
X2.5669Y-2.039
X2.5669Y-2.139
X2.5669Y-2.239
X2.5669Y-2.339
X2.5669Y-2.439
X2.8189Y-2.7
X2.8189Y-2.8
X2.8189Y-2.9
X2.9189Y-2.7
X2.9189Y-2.8
X2.9189Y-2.9
T6
X2.6232Y-1.0629
X2.6409Y-1.2007
X2.6625Y-1.437
X2.9007Y-1.0708
X2.9007Y-1.2047
T7
X0.95Y-0.93
X0.95Y-3.07
X3.12Y-0.94
X3.12Y-3.07
M30
