%TF.GenerationSoftware,KiCad,Pcbnew,8.0.02-1-dev-e0381f25f7*%
%TF.CreationDate,2024-04-02T19:47:04-07:00*%
%TF.ProjectId,i2s_to_toslink_pcb,6932735f-746f-45f7-946f-736c696e6b5f,rev?*%
%TF.SameCoordinates,Original*%
%TF.FileFunction,Drillmap*%
%TF.FilePolarity,Positive*%
%FSLAX45Y45*%
G04 Gerber Fmt 4.5, Leading zero omitted, Abs format (unit mm)*
G04 Created by KiCad (PCBNEW 8.0.02-1-dev-e0381f25f7) date 2024-04-02 19:47:04*
%MOMM*%
%LPD*%
G01*
G04 APERTURE LIST*
%ADD10C,0.100000*%
%ADD11C,0.200000*%
%ADD12C,0.170000*%
%ADD13C,0.220000*%
G04 APERTURE END LIST*
D10*
X2075000Y-2007700D02*
X8245000Y-2007700D01*
X8245000Y-8275000D01*
X2075000Y-8275000D01*
X2075000Y-2007700D01*
D11*
D10*
X2460000Y-5240000D02*
X2500000Y-5280000D01*
X2500000Y-5240000D02*
X2460000Y-5280000D01*
X2556294Y-4645200D02*
X2596294Y-4685200D01*
X2596294Y-4645200D02*
X2556294Y-4685200D01*
X2580000Y-4305000D02*
X2620000Y-4345000D01*
X2620000Y-4305000D02*
X2580000Y-4345000D01*
X2680000Y-5180000D02*
X2720000Y-5220000D01*
X2720000Y-5180000D02*
X2680000Y-5220000D01*
X2860000Y-5280000D02*
X2900000Y-5320000D01*
X2900000Y-5280000D02*
X2860000Y-5320000D01*
X3360000Y-6360000D02*
X3400000Y-6400000D01*
X3400000Y-6360000D02*
X3360000Y-6400000D01*
X3580000Y-4720000D02*
X3620000Y-4760000D01*
X3620000Y-4720000D02*
X3580000Y-4760000D01*
X3620000Y-7520000D02*
X3660000Y-7560000D01*
X3660000Y-7520000D02*
X3620000Y-7560000D01*
X3717500Y-5067500D02*
X3757500Y-5107500D01*
X3757500Y-5067500D02*
X3717500Y-5107500D01*
X3720000Y-6894140D02*
X3760000Y-6934140D01*
X3760000Y-6894140D02*
X3720000Y-6934140D01*
X3790000Y-4468180D02*
X3830000Y-4508180D01*
X3830000Y-4468180D02*
X3790000Y-4508180D01*
X3980000Y-4240000D02*
X4020000Y-4280000D01*
X4020000Y-4240000D02*
X3980000Y-4280000D01*
X3999860Y-7141470D02*
X4039860Y-7181470D01*
X4039860Y-7141470D02*
X3999860Y-7181470D01*
X4002400Y-6983370D02*
X4042400Y-7023370D01*
X4042400Y-6983370D02*
X4002400Y-7023370D01*
X4020000Y-5460000D02*
X4060000Y-5500000D01*
X4060000Y-5460000D02*
X4020000Y-5500000D01*
X4080000Y-4580000D02*
X4120000Y-4620000D01*
X4120000Y-4580000D02*
X4080000Y-4620000D01*
X4205600Y-7740000D02*
X4245600Y-7780000D01*
X4245600Y-7740000D02*
X4205600Y-7780000D01*
X4260000Y-5950000D02*
X4300000Y-5990000D01*
X4300000Y-5950000D02*
X4260000Y-5990000D01*
X4480000Y-5730000D02*
X4520000Y-5770000D01*
X4520000Y-5730000D02*
X4480000Y-5770000D01*
X4620000Y-5000000D02*
X4660000Y-5040000D01*
X4660000Y-5000000D02*
X4620000Y-5040000D01*
X4630000Y-5290000D02*
X4670000Y-5330000D01*
X4670000Y-5290000D02*
X4630000Y-5330000D01*
X4630000Y-5830000D02*
X4670000Y-5870000D01*
X4670000Y-5830000D02*
X4630000Y-5870000D01*
X4730000Y-5180000D02*
X4770000Y-5220000D01*
X4770000Y-5180000D02*
X4730000Y-5220000D01*
X4830000Y-6330000D02*
X4870000Y-6370000D01*
X4870000Y-6330000D02*
X4830000Y-6370000D01*
X4916800Y-7709480D02*
X4956800Y-7749480D01*
X4956800Y-7709480D02*
X4916800Y-7749480D01*
X4980000Y-4900000D02*
X5020000Y-4940000D01*
X5020000Y-4900000D02*
X4980000Y-4940000D01*
X5030000Y-6330000D02*
X5070000Y-6370000D01*
X5070000Y-6330000D02*
X5030000Y-6370000D01*
X5300000Y-4460000D02*
X5340000Y-4500000D01*
X5340000Y-4460000D02*
X5300000Y-4500000D01*
X5343520Y-7064320D02*
X5383520Y-7104320D01*
X5383520Y-7064320D02*
X5343520Y-7104320D01*
X5420000Y-4165482D02*
X5460000Y-4205482D01*
X5460000Y-4165482D02*
X5420000Y-4205482D01*
X5542600Y-4379280D02*
X5582600Y-4419280D01*
X5582600Y-4379280D02*
X5542600Y-4419280D01*
X5580000Y-6340000D02*
X5620000Y-6380000D01*
X5620000Y-6340000D02*
X5580000Y-6380000D01*
X5720000Y-4360000D02*
X5760000Y-4400000D01*
X5760000Y-4360000D02*
X5720000Y-4400000D01*
X5720000Y-5440000D02*
X5760000Y-5480000D01*
X5760000Y-5440000D02*
X5720000Y-5480000D01*
X5805000Y-7455000D02*
X5845000Y-7495000D01*
X5845000Y-7455000D02*
X5805000Y-7495000D01*
X5920000Y-7320000D02*
X5960000Y-7360000D01*
X5960000Y-7320000D02*
X5920000Y-7360000D01*
X6540000Y-5905000D02*
X6580000Y-5945000D01*
X6580000Y-5905000D02*
X6540000Y-5945000D01*
X6592750Y-4300000D02*
X6632750Y-4340000D01*
X6632750Y-4300000D02*
X6592750Y-4340000D01*
X6830000Y-6455000D02*
X6870000Y-6495000D01*
X6870000Y-6455000D02*
X6830000Y-6495000D01*
X7020000Y-7545000D02*
X7060000Y-7585000D01*
X7060000Y-7545000D02*
X7020000Y-7585000D01*
X7080000Y-6430000D02*
X7120000Y-6470000D01*
X7120000Y-6430000D02*
X7080000Y-6470000D01*
X7268475Y-6990000D02*
X7308475Y-7030000D01*
X7308475Y-6990000D02*
X7268475Y-7030000D01*
X7314280Y-4980000D02*
X7354280Y-5020000D01*
X7354280Y-4980000D02*
X7314280Y-5020000D01*
X7820000Y-5960000D02*
X7860000Y-6000000D01*
X7860000Y-5960000D02*
X7820000Y-6000000D01*
X4271750Y-3380000D02*
G75*
G02*
X4208250Y-3380000I-31750J0D01*
G01*
X4208250Y-3380000D02*
G75*
G02*
X4271750Y-3380000I31750J0D01*
G01*
X5881750Y-5650000D02*
G75*
G02*
X5818250Y-5650000I-31750J0D01*
G01*
X5818250Y-5650000D02*
G75*
G02*
X5881750Y-5650000I31750J0D01*
G01*
X5881750Y-6050000D02*
G75*
G02*
X5818250Y-6050000I-31750J0D01*
G01*
X5818250Y-6050000D02*
G75*
G02*
X5881750Y-6050000I31750J0D01*
G01*
X5881750Y-6350000D02*
G75*
G02*
X5818250Y-6350000I-31750J0D01*
G01*
X5818250Y-6350000D02*
G75*
G02*
X5881750Y-6350000I31750J0D01*
G01*
X4560000Y-4647500D02*
X4560000Y-4712500D01*
X4527500Y-4680000D02*
X4592500Y-4680000D01*
X5157700Y-5442500D02*
X5157700Y-5507500D01*
X5125200Y-5475000D02*
X5190200Y-5475000D01*
X5200000Y-5167500D02*
X5200000Y-5232500D01*
X5167500Y-5200000D02*
X5232500Y-5200000D01*
X5613400Y-4717300D02*
X5613400Y-4782300D01*
X5580900Y-4749800D02*
X5645900Y-4749800D01*
X5668284Y-2828284D02*
X5668284Y-2771716D01*
X5611715Y-2771716D01*
X5611715Y-2828284D01*
X5668284Y-2828284D01*
X5668284Y-3028284D02*
X5668284Y-2971715D01*
X5611715Y-2971715D01*
X5611715Y-3028284D01*
X5668284Y-3028284D01*
X7248284Y-4668285D02*
X7248284Y-4611716D01*
X7191715Y-4611716D01*
X7191715Y-4668285D01*
X7248284Y-4668285D01*
X7448284Y-4668285D02*
X7448284Y-4611716D01*
X7391715Y-4611716D01*
X7391715Y-4668285D01*
X7448284Y-4668285D01*
X7648284Y-4668285D02*
X7648284Y-4611716D01*
X7591715Y-4611716D01*
X7591715Y-4668285D01*
X7648284Y-4668285D01*
X7848284Y-4668285D02*
X7848284Y-4611716D01*
X7791715Y-4611716D01*
X7791715Y-4668285D01*
X7848284Y-4668285D01*
X8048284Y-4668285D02*
X8048284Y-4611716D01*
X7991715Y-4611716D01*
X7991715Y-4668285D01*
X8048284Y-4668285D01*
X6847840Y-4006860D02*
X6894840Y-3959860D01*
X6847840Y-3912860D01*
X6800840Y-3959860D01*
X6847840Y-4006860D01*
X7047840Y-4006860D02*
X7094840Y-3959860D01*
X7047840Y-3912860D01*
X7000840Y-3959860D01*
X7047840Y-4006860D01*
X7247840Y-4006860D02*
X7294840Y-3959860D01*
X7247840Y-3912860D01*
X7200840Y-3959860D01*
X7247840Y-4006860D01*
X2500000Y-4000000D02*
X2600000Y-4100000D01*
X2600000Y-4000000D02*
X2500000Y-4100000D01*
X2600000Y-4050000D02*
G75*
G02*
X2500000Y-4050000I-50000J0D01*
G01*
X2500000Y-4050000D02*
G75*
G02*
X2600000Y-4050000I50000J0D01*
G01*
X2510000Y-2837500D02*
X2610000Y-2937500D01*
X2610000Y-2837500D02*
X2510000Y-2937500D01*
X2610000Y-2887500D02*
G75*
G02*
X2510000Y-2887500I-50000J0D01*
G01*
X2510000Y-2887500D02*
G75*
G02*
X2610000Y-2887500I50000J0D01*
G01*
X2510000Y-3091500D02*
X2610000Y-3191500D01*
X2610000Y-3091500D02*
X2510000Y-3191500D01*
X2610000Y-3141500D02*
G75*
G02*
X2510000Y-3141500I-50000J0D01*
G01*
X2510000Y-3141500D02*
G75*
G02*
X2610000Y-3141500I50000J0D01*
G01*
X2510000Y-3345500D02*
X2610000Y-3445500D01*
X2610000Y-3345500D02*
X2510000Y-3445500D01*
X2610000Y-3395500D02*
G75*
G02*
X2510000Y-3395500I-50000J0D01*
G01*
X2510000Y-3395500D02*
G75*
G02*
X2610000Y-3395500I50000J0D01*
G01*
X2754000Y-4000000D02*
X2854000Y-4100000D01*
X2854000Y-4000000D02*
X2754000Y-4100000D01*
X2854000Y-4050000D02*
G75*
G02*
X2754000Y-4050000I-50000J0D01*
G01*
X2754000Y-4050000D02*
G75*
G02*
X2854000Y-4050000I50000J0D01*
G01*
X2850000Y-5622000D02*
X2950000Y-5722000D01*
X2950000Y-5622000D02*
X2850000Y-5722000D01*
X2950000Y-5672000D02*
G75*
G02*
X2850000Y-5672000I-50000J0D01*
G01*
X2850000Y-5672000D02*
G75*
G02*
X2950000Y-5672000I50000J0D01*
G01*
X2850000Y-5876000D02*
X2950000Y-5976000D01*
X2950000Y-5876000D02*
X2850000Y-5976000D01*
X2950000Y-5926000D02*
G75*
G02*
X2850000Y-5926000I-50000J0D01*
G01*
X2850000Y-5926000D02*
G75*
G02*
X2950000Y-5926000I50000J0D01*
G01*
X2850000Y-6130000D02*
X2950000Y-6230000D01*
X2950000Y-6130000D02*
X2850000Y-6230000D01*
X2950000Y-6180000D02*
G75*
G02*
X2850000Y-6180000I-50000J0D01*
G01*
X2850000Y-6180000D02*
G75*
G02*
X2950000Y-6180000I50000J0D01*
G01*
X2850000Y-6384000D02*
X2950000Y-6484000D01*
X2950000Y-6384000D02*
X2850000Y-6484000D01*
X2950000Y-6434000D02*
G75*
G02*
X2850000Y-6434000I-50000J0D01*
G01*
X2850000Y-6434000D02*
G75*
G02*
X2950000Y-6434000I50000J0D01*
G01*
X2850000Y-6638000D02*
X2950000Y-6738000D01*
X2950000Y-6638000D02*
X2850000Y-6738000D01*
X2950000Y-6688000D02*
G75*
G02*
X2850000Y-6688000I-50000J0D01*
G01*
X2850000Y-6688000D02*
G75*
G02*
X2950000Y-6688000I50000J0D01*
G01*
X2990000Y-2837500D02*
X3090000Y-2937500D01*
X3090000Y-2837500D02*
X2990000Y-2937500D01*
X3090000Y-2887500D02*
G75*
G02*
X2990000Y-2887500I-50000J0D01*
G01*
X2990000Y-2887500D02*
G75*
G02*
X3090000Y-2887500I50000J0D01*
G01*
X2990000Y-3091500D02*
X3090000Y-3191500D01*
X3090000Y-3091500D02*
X2990000Y-3191500D01*
X3090000Y-3141500D02*
G75*
G02*
X2990000Y-3141500I-50000J0D01*
G01*
X2990000Y-3141500D02*
G75*
G02*
X3090000Y-3141500I50000J0D01*
G01*
X2990000Y-3345500D02*
X3090000Y-3445500D01*
X3090000Y-3345500D02*
X2990000Y-3445500D01*
X3090000Y-3395500D02*
G75*
G02*
X2990000Y-3395500I-50000J0D01*
G01*
X2990000Y-3395500D02*
G75*
G02*
X3090000Y-3395500I50000J0D01*
G01*
X3008000Y-4000000D02*
X3108000Y-4100000D01*
X3108000Y-4000000D02*
X3008000Y-4100000D01*
X3108000Y-4050000D02*
G75*
G02*
X3008000Y-4050000I-50000J0D01*
G01*
X3008000Y-4050000D02*
G75*
G02*
X3108000Y-4050000I50000J0D01*
G01*
X3510000Y-2850000D02*
X3610000Y-2950000D01*
X3610000Y-2850000D02*
X3510000Y-2950000D01*
X3610000Y-2900000D02*
G75*
G02*
X3510000Y-2900000I-50000J0D01*
G01*
X3510000Y-2900000D02*
G75*
G02*
X3610000Y-2900000I50000J0D01*
G01*
X3510000Y-3104000D02*
X3610000Y-3204000D01*
X3610000Y-3104000D02*
X3510000Y-3204000D01*
X3610000Y-3154000D02*
G75*
G02*
X3510000Y-3154000I-50000J0D01*
G01*
X3510000Y-3154000D02*
G75*
G02*
X3610000Y-3154000I50000J0D01*
G01*
X3510000Y-3358000D02*
X3610000Y-3458000D01*
X3610000Y-3358000D02*
X3510000Y-3458000D01*
X3610000Y-3408000D02*
G75*
G02*
X3510000Y-3408000I-50000J0D01*
G01*
X3510000Y-3408000D02*
G75*
G02*
X3610000Y-3408000I50000J0D01*
G01*
X3690000Y-5536000D02*
X3790000Y-5636000D01*
X3790000Y-5536000D02*
X3690000Y-5636000D01*
X3790000Y-5586000D02*
G75*
G02*
X3690000Y-5586000I-50000J0D01*
G01*
X3690000Y-5586000D02*
G75*
G02*
X3790000Y-5586000I50000J0D01*
G01*
X3690000Y-5790000D02*
X3790000Y-5890000D01*
X3790000Y-5790000D02*
X3690000Y-5890000D01*
X3790000Y-5840000D02*
G75*
G02*
X3690000Y-5840000I-50000J0D01*
G01*
X3690000Y-5840000D02*
G75*
G02*
X3790000Y-5840000I50000J0D01*
G01*
X4109000Y-2700000D02*
X4209000Y-2800000D01*
X4209000Y-2700000D02*
X4109000Y-2800000D01*
X4209000Y-2750000D02*
G75*
G02*
X4109000Y-2750000I-50000J0D01*
G01*
X4109000Y-2750000D02*
G75*
G02*
X4209000Y-2750000I50000J0D01*
G01*
X4363000Y-2700000D02*
X4463000Y-2800000D01*
X4463000Y-2700000D02*
X4363000Y-2800000D01*
X4463000Y-2750000D02*
G75*
G02*
X4363000Y-2750000I-50000J0D01*
G01*
X4363000Y-2750000D02*
G75*
G02*
X4463000Y-2750000I50000J0D01*
G01*
X4617000Y-2700000D02*
X4717000Y-2800000D01*
X4717000Y-2700000D02*
X4617000Y-2800000D01*
X4717000Y-2750000D02*
G75*
G02*
X4617000Y-2750000I-50000J0D01*
G01*
X4617000Y-2750000D02*
G75*
G02*
X4717000Y-2750000I50000J0D01*
G01*
X4871000Y-2700000D02*
X4971000Y-2800000D01*
X4971000Y-2700000D02*
X4871000Y-2800000D01*
X4971000Y-2750000D02*
G75*
G02*
X4871000Y-2750000I-50000J0D01*
G01*
X4871000Y-2750000D02*
G75*
G02*
X4971000Y-2750000I50000J0D01*
G01*
X5125000Y-2700000D02*
X5225000Y-2800000D01*
X5225000Y-2700000D02*
X5125000Y-2800000D01*
X5225000Y-2750000D02*
G75*
G02*
X5125000Y-2750000I-50000J0D01*
G01*
X5125000Y-2750000D02*
G75*
G02*
X5225000Y-2750000I50000J0D01*
G01*
X6121000Y-6821000D02*
X6221000Y-6921000D01*
X6221000Y-6821000D02*
X6121000Y-6921000D01*
X6221000Y-6871000D02*
G75*
G02*
X6121000Y-6871000I-50000J0D01*
G01*
X6121000Y-6871000D02*
G75*
G02*
X6221000Y-6871000I50000J0D01*
G01*
X6121000Y-7075000D02*
X6221000Y-7175000D01*
X6221000Y-7075000D02*
X6121000Y-7175000D01*
X6221000Y-7125000D02*
G75*
G02*
X6121000Y-7125000I-50000J0D01*
G01*
X6121000Y-7125000D02*
G75*
G02*
X6221000Y-7125000I50000J0D01*
G01*
X6150000Y-4868000D02*
X6250000Y-4968000D01*
X6250000Y-4868000D02*
X6150000Y-4968000D01*
X6250000Y-4918000D02*
G75*
G02*
X6150000Y-4918000I-50000J0D01*
G01*
X6150000Y-4918000D02*
G75*
G02*
X6250000Y-4918000I50000J0D01*
G01*
X6150000Y-5122000D02*
X6250000Y-5222000D01*
X6250000Y-5122000D02*
X6150000Y-5222000D01*
X6250000Y-5172000D02*
G75*
G02*
X6150000Y-5172000I-50000J0D01*
G01*
X6150000Y-5172000D02*
G75*
G02*
X6250000Y-5172000I50000J0D01*
G01*
X6150000Y-5376000D02*
X6250000Y-5476000D01*
X6250000Y-5376000D02*
X6150000Y-5476000D01*
X6250000Y-5426000D02*
G75*
G02*
X6150000Y-5426000I-50000J0D01*
G01*
X6150000Y-5426000D02*
G75*
G02*
X6250000Y-5426000I50000J0D01*
G01*
X6150000Y-5630000D02*
X6250000Y-5730000D01*
X6250000Y-5630000D02*
X6150000Y-5730000D01*
X6250000Y-5680000D02*
G75*
G02*
X6150000Y-5680000I-50000J0D01*
G01*
X6150000Y-5680000D02*
G75*
G02*
X6250000Y-5680000I50000J0D01*
G01*
X6150000Y-5884000D02*
X6250000Y-5984000D01*
X6250000Y-5884000D02*
X6150000Y-5984000D01*
X6250000Y-5934000D02*
G75*
G02*
X6150000Y-5934000I-50000J0D01*
G01*
X6150000Y-5934000D02*
G75*
G02*
X6250000Y-5934000I50000J0D01*
G01*
X6150000Y-6138000D02*
X6250000Y-6238000D01*
X6250000Y-6138000D02*
X6150000Y-6238000D01*
X6250000Y-6188000D02*
G75*
G02*
X6150000Y-6188000I-50000J0D01*
G01*
X6150000Y-6188000D02*
G75*
G02*
X6250000Y-6188000I50000J0D01*
G01*
X6375000Y-6821000D02*
X6475000Y-6921000D01*
X6475000Y-6821000D02*
X6375000Y-6921000D01*
X6475000Y-6871000D02*
G75*
G02*
X6375000Y-6871000I-50000J0D01*
G01*
X6375000Y-6871000D02*
G75*
G02*
X6475000Y-6871000I50000J0D01*
G01*
X6375000Y-7075000D02*
X6475000Y-7175000D01*
X6475000Y-7075000D02*
X6375000Y-7175000D01*
X6475000Y-7125000D02*
G75*
G02*
X6375000Y-7125000I-50000J0D01*
G01*
X6375000Y-7125000D02*
G75*
G02*
X6475000Y-7125000I50000J0D01*
G01*
X6629000Y-6821000D02*
X6729000Y-6921000D01*
X6729000Y-6821000D02*
X6629000Y-6921000D01*
X6729000Y-6871000D02*
G75*
G02*
X6629000Y-6871000I-50000J0D01*
G01*
X6629000Y-6871000D02*
G75*
G02*
X6729000Y-6871000I50000J0D01*
G01*
X6629000Y-7075000D02*
X6729000Y-7175000D01*
X6729000Y-7075000D02*
X6629000Y-7175000D01*
X6729000Y-7125000D02*
G75*
G02*
X6629000Y-7125000I-50000J0D01*
G01*
X6629000Y-7125000D02*
G75*
G02*
X6729000Y-7125000I50000J0D01*
G01*
D12*
X6577840Y-2614860D02*
X6747840Y-2784860D01*
X6747840Y-2614860D02*
X6577840Y-2784860D01*
X6662840Y-2614860D02*
X6662840Y-2784860D01*
X6577840Y-2699860D02*
X6747840Y-2699860D01*
X6622840Y-2964860D02*
X6792840Y-3134860D01*
X6792840Y-2964860D02*
X6622840Y-3134860D01*
X6707840Y-2964860D02*
X6707840Y-3134860D01*
X6622840Y-3049860D02*
X6792840Y-3049860D01*
X6677840Y-3564860D02*
X6847840Y-3734860D01*
X6847840Y-3564860D02*
X6677840Y-3734860D01*
X6762840Y-3564860D02*
X6762840Y-3734860D01*
X6677840Y-3649860D02*
X6847840Y-3649860D01*
X7282840Y-2634860D02*
X7452840Y-2804860D01*
X7452840Y-2634860D02*
X7282840Y-2804860D01*
X7367840Y-2634860D02*
X7367840Y-2804860D01*
X7282840Y-2719860D02*
X7452840Y-2719860D01*
X7282840Y-2974860D02*
X7452840Y-3144860D01*
X7452840Y-2974860D02*
X7282840Y-3144860D01*
X7367840Y-2974860D02*
X7367840Y-3144860D01*
X7282840Y-3059860D02*
X7452840Y-3059860D01*
D13*
X2303000Y-2252200D02*
X2523000Y-2472200D01*
X2523000Y-2252200D02*
X2303000Y-2472200D01*
X2490783Y-2439983D02*
X2490783Y-2284418D01*
X2335218Y-2284418D01*
X2335218Y-2439983D01*
X2490783Y-2439983D01*
X2303000Y-7687800D02*
X2523000Y-7907800D01*
X2523000Y-7687800D02*
X2303000Y-7907800D01*
X2490783Y-7875582D02*
X2490783Y-7720017D01*
X2335218Y-7720017D01*
X2335218Y-7875582D01*
X2490783Y-7875582D01*
X7814800Y-2277600D02*
X8034800Y-2497600D01*
X8034800Y-2277600D02*
X7814800Y-2497600D01*
X8002582Y-2465383D02*
X8002582Y-2309818D01*
X7847017Y-2309818D01*
X7847017Y-2465383D01*
X8002582Y-2465383D01*
X7814800Y-7687800D02*
X8034800Y-7907800D01*
X8034800Y-7687800D02*
X7814800Y-7907800D01*
X8002582Y-7875582D02*
X8002582Y-7720017D01*
X7847017Y-7720017D01*
X7847017Y-7875582D01*
X8002582Y-7875582D01*
D11*
X2330777Y-8591484D02*
X2330777Y-8391484D01*
X2330777Y-8391484D02*
X2378396Y-8391484D01*
X2378396Y-8391484D02*
X2406967Y-8401008D01*
X2406967Y-8401008D02*
X2426015Y-8420055D01*
X2426015Y-8420055D02*
X2435539Y-8439103D01*
X2435539Y-8439103D02*
X2445063Y-8477198D01*
X2445063Y-8477198D02*
X2445063Y-8505770D01*
X2445063Y-8505770D02*
X2435539Y-8543865D01*
X2435539Y-8543865D02*
X2426015Y-8562912D01*
X2426015Y-8562912D02*
X2406967Y-8581960D01*
X2406967Y-8581960D02*
X2378396Y-8591484D01*
X2378396Y-8591484D02*
X2330777Y-8591484D01*
X2530777Y-8591484D02*
X2530777Y-8458150D01*
X2530777Y-8496246D02*
X2540301Y-8477198D01*
X2540301Y-8477198D02*
X2549824Y-8467674D01*
X2549824Y-8467674D02*
X2568872Y-8458150D01*
X2568872Y-8458150D02*
X2587920Y-8458150D01*
X2654586Y-8591484D02*
X2654586Y-8458150D01*
X2654586Y-8391484D02*
X2645063Y-8401008D01*
X2645063Y-8401008D02*
X2654586Y-8410531D01*
X2654586Y-8410531D02*
X2664110Y-8401008D01*
X2664110Y-8401008D02*
X2654586Y-8391484D01*
X2654586Y-8391484D02*
X2654586Y-8410531D01*
X2778396Y-8591484D02*
X2759348Y-8581960D01*
X2759348Y-8581960D02*
X2749824Y-8562912D01*
X2749824Y-8562912D02*
X2749824Y-8391484D01*
X2883158Y-8591484D02*
X2864110Y-8581960D01*
X2864110Y-8581960D02*
X2854586Y-8562912D01*
X2854586Y-8562912D02*
X2854586Y-8391484D01*
X3111729Y-8591484D02*
X3111729Y-8391484D01*
X3111729Y-8391484D02*
X3178396Y-8534341D01*
X3178396Y-8534341D02*
X3245062Y-8391484D01*
X3245062Y-8391484D02*
X3245062Y-8591484D01*
X3426015Y-8591484D02*
X3426015Y-8486722D01*
X3426015Y-8486722D02*
X3416491Y-8467674D01*
X3416491Y-8467674D02*
X3397443Y-8458150D01*
X3397443Y-8458150D02*
X3359348Y-8458150D01*
X3359348Y-8458150D02*
X3340301Y-8467674D01*
X3426015Y-8581960D02*
X3406967Y-8591484D01*
X3406967Y-8591484D02*
X3359348Y-8591484D01*
X3359348Y-8591484D02*
X3340301Y-8581960D01*
X3340301Y-8581960D02*
X3330777Y-8562912D01*
X3330777Y-8562912D02*
X3330777Y-8543865D01*
X3330777Y-8543865D02*
X3340301Y-8524817D01*
X3340301Y-8524817D02*
X3359348Y-8515293D01*
X3359348Y-8515293D02*
X3406967Y-8515293D01*
X3406967Y-8515293D02*
X3426015Y-8505770D01*
X3521253Y-8458150D02*
X3521253Y-8658150D01*
X3521253Y-8467674D02*
X3540301Y-8458150D01*
X3540301Y-8458150D02*
X3578396Y-8458150D01*
X3578396Y-8458150D02*
X3597443Y-8467674D01*
X3597443Y-8467674D02*
X3606967Y-8477198D01*
X3606967Y-8477198D02*
X3616491Y-8496246D01*
X3616491Y-8496246D02*
X3616491Y-8553389D01*
X3616491Y-8553389D02*
X3606967Y-8572436D01*
X3606967Y-8572436D02*
X3597443Y-8581960D01*
X3597443Y-8581960D02*
X3578396Y-8591484D01*
X3578396Y-8591484D02*
X3540301Y-8591484D01*
X3540301Y-8591484D02*
X3521253Y-8581960D01*
X3702205Y-8572436D02*
X3711729Y-8581960D01*
X3711729Y-8581960D02*
X3702205Y-8591484D01*
X3702205Y-8591484D02*
X3692682Y-8581960D01*
X3692682Y-8581960D02*
X3702205Y-8572436D01*
X3702205Y-8572436D02*
X3702205Y-8591484D01*
X3702205Y-8467674D02*
X3711729Y-8477198D01*
X3711729Y-8477198D02*
X3702205Y-8486722D01*
X3702205Y-8486722D02*
X3692682Y-8477198D01*
X3692682Y-8477198D02*
X3702205Y-8467674D01*
X3702205Y-8467674D02*
X3702205Y-8486722D01*
D10*
X2030000Y-8900000D02*
X2070000Y-8940000D01*
X2070000Y-8900000D02*
X2030000Y-8940000D01*
D11*
X2368872Y-8811484D02*
X2387920Y-8811484D01*
X2387920Y-8811484D02*
X2406967Y-8821008D01*
X2406967Y-8821008D02*
X2416491Y-8830531D01*
X2416491Y-8830531D02*
X2426015Y-8849579D01*
X2426015Y-8849579D02*
X2435539Y-8887674D01*
X2435539Y-8887674D02*
X2435539Y-8935293D01*
X2435539Y-8935293D02*
X2426015Y-8973389D01*
X2426015Y-8973389D02*
X2416491Y-8992436D01*
X2416491Y-8992436D02*
X2406967Y-9001960D01*
X2406967Y-9001960D02*
X2387920Y-9011484D01*
X2387920Y-9011484D02*
X2368872Y-9011484D01*
X2368872Y-9011484D02*
X2349824Y-9001960D01*
X2349824Y-9001960D02*
X2340301Y-8992436D01*
X2340301Y-8992436D02*
X2330777Y-8973389D01*
X2330777Y-8973389D02*
X2321253Y-8935293D01*
X2321253Y-8935293D02*
X2321253Y-8887674D01*
X2321253Y-8887674D02*
X2330777Y-8849579D01*
X2330777Y-8849579D02*
X2340301Y-8830531D01*
X2340301Y-8830531D02*
X2349824Y-8821008D01*
X2349824Y-8821008D02*
X2368872Y-8811484D01*
X2521253Y-8992436D02*
X2530777Y-9001960D01*
X2530777Y-9001960D02*
X2521253Y-9011484D01*
X2521253Y-9011484D02*
X2511729Y-9001960D01*
X2511729Y-9001960D02*
X2521253Y-8992436D01*
X2521253Y-8992436D02*
X2521253Y-9011484D01*
X2702205Y-8878150D02*
X2702205Y-9011484D01*
X2654586Y-8801960D02*
X2606967Y-8944817D01*
X2606967Y-8944817D02*
X2730777Y-8944817D01*
X2845062Y-8811484D02*
X2864110Y-8811484D01*
X2864110Y-8811484D02*
X2883158Y-8821008D01*
X2883158Y-8821008D02*
X2892682Y-8830531D01*
X2892682Y-8830531D02*
X2902205Y-8849579D01*
X2902205Y-8849579D02*
X2911729Y-8887674D01*
X2911729Y-8887674D02*
X2911729Y-8935293D01*
X2911729Y-8935293D02*
X2902205Y-8973389D01*
X2902205Y-8973389D02*
X2892682Y-8992436D01*
X2892682Y-8992436D02*
X2883158Y-9001960D01*
X2883158Y-9001960D02*
X2864110Y-9011484D01*
X2864110Y-9011484D02*
X2845062Y-9011484D01*
X2845062Y-9011484D02*
X2826015Y-9001960D01*
X2826015Y-9001960D02*
X2816491Y-8992436D01*
X2816491Y-8992436D02*
X2806967Y-8973389D01*
X2806967Y-8973389D02*
X2797443Y-8935293D01*
X2797443Y-8935293D02*
X2797443Y-8887674D01*
X2797443Y-8887674D02*
X2806967Y-8849579D01*
X2806967Y-8849579D02*
X2816491Y-8830531D01*
X2816491Y-8830531D02*
X2826015Y-8821008D01*
X2826015Y-8821008D02*
X2845062Y-8811484D01*
X3035539Y-8811484D02*
X3054586Y-8811484D01*
X3054586Y-8811484D02*
X3073634Y-8821008D01*
X3073634Y-8821008D02*
X3083158Y-8830531D01*
X3083158Y-8830531D02*
X3092682Y-8849579D01*
X3092682Y-8849579D02*
X3102205Y-8887674D01*
X3102205Y-8887674D02*
X3102205Y-8935293D01*
X3102205Y-8935293D02*
X3092682Y-8973389D01*
X3092682Y-8973389D02*
X3083158Y-8992436D01*
X3083158Y-8992436D02*
X3073634Y-9001960D01*
X3073634Y-9001960D02*
X3054586Y-9011484D01*
X3054586Y-9011484D02*
X3035539Y-9011484D01*
X3035539Y-9011484D02*
X3016491Y-9001960D01*
X3016491Y-9001960D02*
X3006967Y-8992436D01*
X3006967Y-8992436D02*
X2997443Y-8973389D01*
X2997443Y-8973389D02*
X2987920Y-8935293D01*
X2987920Y-8935293D02*
X2987920Y-8887674D01*
X2987920Y-8887674D02*
X2997443Y-8849579D01*
X2997443Y-8849579D02*
X3006967Y-8830531D01*
X3006967Y-8830531D02*
X3016491Y-8821008D01*
X3016491Y-8821008D02*
X3035539Y-8811484D01*
X3187920Y-9011484D02*
X3187920Y-8878150D01*
X3187920Y-8897198D02*
X3197443Y-8887674D01*
X3197443Y-8887674D02*
X3216491Y-8878150D01*
X3216491Y-8878150D02*
X3245063Y-8878150D01*
X3245063Y-8878150D02*
X3264110Y-8887674D01*
X3264110Y-8887674D02*
X3273634Y-8906722D01*
X3273634Y-8906722D02*
X3273634Y-9011484D01*
X3273634Y-8906722D02*
X3283158Y-8887674D01*
X3283158Y-8887674D02*
X3302205Y-8878150D01*
X3302205Y-8878150D02*
X3330777Y-8878150D01*
X3330777Y-8878150D02*
X3349824Y-8887674D01*
X3349824Y-8887674D02*
X3359348Y-8906722D01*
X3359348Y-8906722D02*
X3359348Y-9011484D01*
X3454586Y-9011484D02*
X3454586Y-8878150D01*
X3454586Y-8897198D02*
X3464110Y-8887674D01*
X3464110Y-8887674D02*
X3483158Y-8878150D01*
X3483158Y-8878150D02*
X3511729Y-8878150D01*
X3511729Y-8878150D02*
X3530777Y-8887674D01*
X3530777Y-8887674D02*
X3540301Y-8906722D01*
X3540301Y-8906722D02*
X3540301Y-9011484D01*
X3540301Y-8906722D02*
X3549824Y-8887674D01*
X3549824Y-8887674D02*
X3568872Y-8878150D01*
X3568872Y-8878150D02*
X3597443Y-8878150D01*
X3597443Y-8878150D02*
X3616491Y-8887674D01*
X3616491Y-8887674D02*
X3626015Y-8906722D01*
X3626015Y-8906722D02*
X3626015Y-9011484D01*
X4016491Y-8801960D02*
X3845063Y-9059103D01*
X4273634Y-8811484D02*
X4292682Y-8811484D01*
X4292682Y-8811484D02*
X4311729Y-8821008D01*
X4311729Y-8821008D02*
X4321253Y-8830531D01*
X4321253Y-8830531D02*
X4330777Y-8849579D01*
X4330777Y-8849579D02*
X4340301Y-8887674D01*
X4340301Y-8887674D02*
X4340301Y-8935293D01*
X4340301Y-8935293D02*
X4330777Y-8973389D01*
X4330777Y-8973389D02*
X4321253Y-8992436D01*
X4321253Y-8992436D02*
X4311729Y-9001960D01*
X4311729Y-9001960D02*
X4292682Y-9011484D01*
X4292682Y-9011484D02*
X4273634Y-9011484D01*
X4273634Y-9011484D02*
X4254587Y-9001960D01*
X4254587Y-9001960D02*
X4245063Y-8992436D01*
X4245063Y-8992436D02*
X4235539Y-8973389D01*
X4235539Y-8973389D02*
X4226015Y-8935293D01*
X4226015Y-8935293D02*
X4226015Y-8887674D01*
X4226015Y-8887674D02*
X4235539Y-8849579D01*
X4235539Y-8849579D02*
X4245063Y-8830531D01*
X4245063Y-8830531D02*
X4254587Y-8821008D01*
X4254587Y-8821008D02*
X4273634Y-8811484D01*
X4426015Y-8992436D02*
X4435539Y-9001960D01*
X4435539Y-9001960D02*
X4426015Y-9011484D01*
X4426015Y-9011484D02*
X4416491Y-9001960D01*
X4416491Y-9001960D02*
X4426015Y-8992436D01*
X4426015Y-8992436D02*
X4426015Y-9011484D01*
X4559348Y-8811484D02*
X4578396Y-8811484D01*
X4578396Y-8811484D02*
X4597444Y-8821008D01*
X4597444Y-8821008D02*
X4606968Y-8830531D01*
X4606968Y-8830531D02*
X4616491Y-8849579D01*
X4616491Y-8849579D02*
X4626015Y-8887674D01*
X4626015Y-8887674D02*
X4626015Y-8935293D01*
X4626015Y-8935293D02*
X4616491Y-8973389D01*
X4616491Y-8973389D02*
X4606968Y-8992436D01*
X4606968Y-8992436D02*
X4597444Y-9001960D01*
X4597444Y-9001960D02*
X4578396Y-9011484D01*
X4578396Y-9011484D02*
X4559348Y-9011484D01*
X4559348Y-9011484D02*
X4540301Y-9001960D01*
X4540301Y-9001960D02*
X4530777Y-8992436D01*
X4530777Y-8992436D02*
X4521253Y-8973389D01*
X4521253Y-8973389D02*
X4511729Y-8935293D01*
X4511729Y-8935293D02*
X4511729Y-8887674D01*
X4511729Y-8887674D02*
X4521253Y-8849579D01*
X4521253Y-8849579D02*
X4530777Y-8830531D01*
X4530777Y-8830531D02*
X4540301Y-8821008D01*
X4540301Y-8821008D02*
X4559348Y-8811484D01*
X4816491Y-9011484D02*
X4702206Y-9011484D01*
X4759348Y-9011484D02*
X4759348Y-8811484D01*
X4759348Y-8811484D02*
X4740301Y-8840055D01*
X4740301Y-8840055D02*
X4721253Y-8859103D01*
X4721253Y-8859103D02*
X4702206Y-8868627D01*
X4997444Y-8811484D02*
X4902206Y-8811484D01*
X4902206Y-8811484D02*
X4892682Y-8906722D01*
X4892682Y-8906722D02*
X4902206Y-8897198D01*
X4902206Y-8897198D02*
X4921253Y-8887674D01*
X4921253Y-8887674D02*
X4968872Y-8887674D01*
X4968872Y-8887674D02*
X4987920Y-8897198D01*
X4987920Y-8897198D02*
X4997444Y-8906722D01*
X4997444Y-8906722D02*
X5006968Y-8925770D01*
X5006968Y-8925770D02*
X5006968Y-8973389D01*
X5006968Y-8973389D02*
X4997444Y-8992436D01*
X4997444Y-8992436D02*
X4987920Y-9001960D01*
X4987920Y-9001960D02*
X4968872Y-9011484D01*
X4968872Y-9011484D02*
X4921253Y-9011484D01*
X4921253Y-9011484D02*
X4902206Y-9001960D01*
X4902206Y-9001960D02*
X4892682Y-8992436D01*
X5073634Y-8811484D02*
X5206968Y-8811484D01*
X5206968Y-8811484D02*
X5121253Y-9011484D01*
X5273634Y-8811484D02*
X5273634Y-8849579D01*
X5349825Y-8811484D02*
X5349825Y-8849579D01*
X5645063Y-9087674D02*
X5635539Y-9078150D01*
X5635539Y-9078150D02*
X5616491Y-9049579D01*
X5616491Y-9049579D02*
X5606968Y-9030531D01*
X5606968Y-9030531D02*
X5597444Y-9001960D01*
X5597444Y-9001960D02*
X5587920Y-8954341D01*
X5587920Y-8954341D02*
X5587920Y-8916246D01*
X5587920Y-8916246D02*
X5597444Y-8868627D01*
X5597444Y-8868627D02*
X5606968Y-8840055D01*
X5606968Y-8840055D02*
X5616491Y-8821008D01*
X5616491Y-8821008D02*
X5635539Y-8792436D01*
X5635539Y-8792436D02*
X5645063Y-8782912D01*
X5806968Y-8878150D02*
X5806968Y-9011484D01*
X5759348Y-8801960D02*
X5711729Y-8944817D01*
X5711729Y-8944817D02*
X5835539Y-8944817D01*
X5997444Y-8878150D02*
X5997444Y-9011484D01*
X5949825Y-8801960D02*
X5902206Y-8944817D01*
X5902206Y-8944817D02*
X6026015Y-8944817D01*
X6254587Y-9011484D02*
X6254587Y-8811484D01*
X6340301Y-9011484D02*
X6340301Y-8906722D01*
X6340301Y-8906722D02*
X6330777Y-8887674D01*
X6330777Y-8887674D02*
X6311730Y-8878150D01*
X6311730Y-8878150D02*
X6283158Y-8878150D01*
X6283158Y-8878150D02*
X6264110Y-8887674D01*
X6264110Y-8887674D02*
X6254587Y-8897198D01*
X6464110Y-9011484D02*
X6445063Y-9001960D01*
X6445063Y-9001960D02*
X6435539Y-8992436D01*
X6435539Y-8992436D02*
X6426015Y-8973389D01*
X6426015Y-8973389D02*
X6426015Y-8916246D01*
X6426015Y-8916246D02*
X6435539Y-8897198D01*
X6435539Y-8897198D02*
X6445063Y-8887674D01*
X6445063Y-8887674D02*
X6464110Y-8878150D01*
X6464110Y-8878150D02*
X6492682Y-8878150D01*
X6492682Y-8878150D02*
X6511730Y-8887674D01*
X6511730Y-8887674D02*
X6521253Y-8897198D01*
X6521253Y-8897198D02*
X6530777Y-8916246D01*
X6530777Y-8916246D02*
X6530777Y-8973389D01*
X6530777Y-8973389D02*
X6521253Y-8992436D01*
X6521253Y-8992436D02*
X6511730Y-9001960D01*
X6511730Y-9001960D02*
X6492682Y-9011484D01*
X6492682Y-9011484D02*
X6464110Y-9011484D01*
X6645063Y-9011484D02*
X6626015Y-9001960D01*
X6626015Y-9001960D02*
X6616491Y-8982912D01*
X6616491Y-8982912D02*
X6616491Y-8811484D01*
X6797444Y-9001960D02*
X6778396Y-9011484D01*
X6778396Y-9011484D02*
X6740301Y-9011484D01*
X6740301Y-9011484D02*
X6721253Y-9001960D01*
X6721253Y-9001960D02*
X6711730Y-8982912D01*
X6711730Y-8982912D02*
X6711730Y-8906722D01*
X6711730Y-8906722D02*
X6721253Y-8887674D01*
X6721253Y-8887674D02*
X6740301Y-8878150D01*
X6740301Y-8878150D02*
X6778396Y-8878150D01*
X6778396Y-8878150D02*
X6797444Y-8887674D01*
X6797444Y-8887674D02*
X6806968Y-8906722D01*
X6806968Y-8906722D02*
X6806968Y-8925770D01*
X6806968Y-8925770D02*
X6711730Y-8944817D01*
X6883158Y-9001960D02*
X6902206Y-9011484D01*
X6902206Y-9011484D02*
X6940301Y-9011484D01*
X6940301Y-9011484D02*
X6959349Y-9001960D01*
X6959349Y-9001960D02*
X6968872Y-8982912D01*
X6968872Y-8982912D02*
X6968872Y-8973389D01*
X6968872Y-8973389D02*
X6959349Y-8954341D01*
X6959349Y-8954341D02*
X6940301Y-8944817D01*
X6940301Y-8944817D02*
X6911730Y-8944817D01*
X6911730Y-8944817D02*
X6892682Y-8935293D01*
X6892682Y-8935293D02*
X6883158Y-8916246D01*
X6883158Y-8916246D02*
X6883158Y-8906722D01*
X6883158Y-8906722D02*
X6892682Y-8887674D01*
X6892682Y-8887674D02*
X6911730Y-8878150D01*
X6911730Y-8878150D02*
X6940301Y-8878150D01*
X6940301Y-8878150D02*
X6959349Y-8887674D01*
X7035539Y-9087674D02*
X7045063Y-9078150D01*
X7045063Y-9078150D02*
X7064111Y-9049579D01*
X7064111Y-9049579D02*
X7073634Y-9030531D01*
X7073634Y-9030531D02*
X7083158Y-9001960D01*
X7083158Y-9001960D02*
X7092682Y-8954341D01*
X7092682Y-8954341D02*
X7092682Y-8916246D01*
X7092682Y-8916246D02*
X7083158Y-8868627D01*
X7083158Y-8868627D02*
X7073634Y-8840055D01*
X7073634Y-8840055D02*
X7064111Y-8821008D01*
X7064111Y-8821008D02*
X7045063Y-8792436D01*
X7045063Y-8792436D02*
X7035539Y-8782912D01*
D10*
X2070000Y-9184000D02*
G75*
G02*
X2006500Y-9184000I-31750J0D01*
G01*
X2006500Y-9184000D02*
G75*
G02*
X2070000Y-9184000I31750J0D01*
G01*
D11*
X2368872Y-9075484D02*
X2387920Y-9075484D01*
X2387920Y-9075484D02*
X2406967Y-9085008D01*
X2406967Y-9085008D02*
X2416491Y-9094531D01*
X2416491Y-9094531D02*
X2426015Y-9113579D01*
X2426015Y-9113579D02*
X2435539Y-9151674D01*
X2435539Y-9151674D02*
X2435539Y-9199293D01*
X2435539Y-9199293D02*
X2426015Y-9237389D01*
X2426015Y-9237389D02*
X2416491Y-9256436D01*
X2416491Y-9256436D02*
X2406967Y-9265960D01*
X2406967Y-9265960D02*
X2387920Y-9275484D01*
X2387920Y-9275484D02*
X2368872Y-9275484D01*
X2368872Y-9275484D02*
X2349824Y-9265960D01*
X2349824Y-9265960D02*
X2340301Y-9256436D01*
X2340301Y-9256436D02*
X2330777Y-9237389D01*
X2330777Y-9237389D02*
X2321253Y-9199293D01*
X2321253Y-9199293D02*
X2321253Y-9151674D01*
X2321253Y-9151674D02*
X2330777Y-9113579D01*
X2330777Y-9113579D02*
X2340301Y-9094531D01*
X2340301Y-9094531D02*
X2349824Y-9085008D01*
X2349824Y-9085008D02*
X2368872Y-9075484D01*
X2521253Y-9256436D02*
X2530777Y-9265960D01*
X2530777Y-9265960D02*
X2521253Y-9275484D01*
X2521253Y-9275484D02*
X2511729Y-9265960D01*
X2511729Y-9265960D02*
X2521253Y-9256436D01*
X2521253Y-9256436D02*
X2521253Y-9275484D01*
X2702205Y-9075484D02*
X2664110Y-9075484D01*
X2664110Y-9075484D02*
X2645063Y-9085008D01*
X2645063Y-9085008D02*
X2635539Y-9094531D01*
X2635539Y-9094531D02*
X2616491Y-9123103D01*
X2616491Y-9123103D02*
X2606967Y-9161198D01*
X2606967Y-9161198D02*
X2606967Y-9237389D01*
X2606967Y-9237389D02*
X2616491Y-9256436D01*
X2616491Y-9256436D02*
X2626015Y-9265960D01*
X2626015Y-9265960D02*
X2645063Y-9275484D01*
X2645063Y-9275484D02*
X2683158Y-9275484D01*
X2683158Y-9275484D02*
X2702205Y-9265960D01*
X2702205Y-9265960D02*
X2711729Y-9256436D01*
X2711729Y-9256436D02*
X2721253Y-9237389D01*
X2721253Y-9237389D02*
X2721253Y-9189770D01*
X2721253Y-9189770D02*
X2711729Y-9170722D01*
X2711729Y-9170722D02*
X2702205Y-9161198D01*
X2702205Y-9161198D02*
X2683158Y-9151674D01*
X2683158Y-9151674D02*
X2645063Y-9151674D01*
X2645063Y-9151674D02*
X2626015Y-9161198D01*
X2626015Y-9161198D02*
X2616491Y-9170722D01*
X2616491Y-9170722D02*
X2606967Y-9189770D01*
X2787920Y-9075484D02*
X2911729Y-9075484D01*
X2911729Y-9075484D02*
X2845062Y-9151674D01*
X2845062Y-9151674D02*
X2873634Y-9151674D01*
X2873634Y-9151674D02*
X2892682Y-9161198D01*
X2892682Y-9161198D02*
X2902205Y-9170722D01*
X2902205Y-9170722D02*
X2911729Y-9189770D01*
X2911729Y-9189770D02*
X2911729Y-9237389D01*
X2911729Y-9237389D02*
X2902205Y-9256436D01*
X2902205Y-9256436D02*
X2892682Y-9265960D01*
X2892682Y-9265960D02*
X2873634Y-9275484D01*
X2873634Y-9275484D02*
X2816491Y-9275484D01*
X2816491Y-9275484D02*
X2797443Y-9265960D01*
X2797443Y-9265960D02*
X2787920Y-9256436D01*
X3092682Y-9075484D02*
X2997443Y-9075484D01*
X2997443Y-9075484D02*
X2987920Y-9170722D01*
X2987920Y-9170722D02*
X2997443Y-9161198D01*
X2997443Y-9161198D02*
X3016491Y-9151674D01*
X3016491Y-9151674D02*
X3064110Y-9151674D01*
X3064110Y-9151674D02*
X3083158Y-9161198D01*
X3083158Y-9161198D02*
X3092682Y-9170722D01*
X3092682Y-9170722D02*
X3102205Y-9189770D01*
X3102205Y-9189770D02*
X3102205Y-9237389D01*
X3102205Y-9237389D02*
X3092682Y-9256436D01*
X3092682Y-9256436D02*
X3083158Y-9265960D01*
X3083158Y-9265960D02*
X3064110Y-9275484D01*
X3064110Y-9275484D02*
X3016491Y-9275484D01*
X3016491Y-9275484D02*
X2997443Y-9265960D01*
X2997443Y-9265960D02*
X2987920Y-9256436D01*
X3187920Y-9275484D02*
X3187920Y-9142150D01*
X3187920Y-9161198D02*
X3197443Y-9151674D01*
X3197443Y-9151674D02*
X3216491Y-9142150D01*
X3216491Y-9142150D02*
X3245063Y-9142150D01*
X3245063Y-9142150D02*
X3264110Y-9151674D01*
X3264110Y-9151674D02*
X3273634Y-9170722D01*
X3273634Y-9170722D02*
X3273634Y-9275484D01*
X3273634Y-9170722D02*
X3283158Y-9151674D01*
X3283158Y-9151674D02*
X3302205Y-9142150D01*
X3302205Y-9142150D02*
X3330777Y-9142150D01*
X3330777Y-9142150D02*
X3349824Y-9151674D01*
X3349824Y-9151674D02*
X3359348Y-9170722D01*
X3359348Y-9170722D02*
X3359348Y-9275484D01*
X3454586Y-9275484D02*
X3454586Y-9142150D01*
X3454586Y-9161198D02*
X3464110Y-9151674D01*
X3464110Y-9151674D02*
X3483158Y-9142150D01*
X3483158Y-9142150D02*
X3511729Y-9142150D01*
X3511729Y-9142150D02*
X3530777Y-9151674D01*
X3530777Y-9151674D02*
X3540301Y-9170722D01*
X3540301Y-9170722D02*
X3540301Y-9275484D01*
X3540301Y-9170722D02*
X3549824Y-9151674D01*
X3549824Y-9151674D02*
X3568872Y-9142150D01*
X3568872Y-9142150D02*
X3597443Y-9142150D01*
X3597443Y-9142150D02*
X3616491Y-9151674D01*
X3616491Y-9151674D02*
X3626015Y-9170722D01*
X3626015Y-9170722D02*
X3626015Y-9275484D01*
X4016491Y-9065960D02*
X3845063Y-9323103D01*
X4273634Y-9075484D02*
X4292682Y-9075484D01*
X4292682Y-9075484D02*
X4311729Y-9085008D01*
X4311729Y-9085008D02*
X4321253Y-9094531D01*
X4321253Y-9094531D02*
X4330777Y-9113579D01*
X4330777Y-9113579D02*
X4340301Y-9151674D01*
X4340301Y-9151674D02*
X4340301Y-9199293D01*
X4340301Y-9199293D02*
X4330777Y-9237389D01*
X4330777Y-9237389D02*
X4321253Y-9256436D01*
X4321253Y-9256436D02*
X4311729Y-9265960D01*
X4311729Y-9265960D02*
X4292682Y-9275484D01*
X4292682Y-9275484D02*
X4273634Y-9275484D01*
X4273634Y-9275484D02*
X4254587Y-9265960D01*
X4254587Y-9265960D02*
X4245063Y-9256436D01*
X4245063Y-9256436D02*
X4235539Y-9237389D01*
X4235539Y-9237389D02*
X4226015Y-9199293D01*
X4226015Y-9199293D02*
X4226015Y-9151674D01*
X4226015Y-9151674D02*
X4235539Y-9113579D01*
X4235539Y-9113579D02*
X4245063Y-9094531D01*
X4245063Y-9094531D02*
X4254587Y-9085008D01*
X4254587Y-9085008D02*
X4273634Y-9075484D01*
X4426015Y-9256436D02*
X4435539Y-9265960D01*
X4435539Y-9265960D02*
X4426015Y-9275484D01*
X4426015Y-9275484D02*
X4416491Y-9265960D01*
X4416491Y-9265960D02*
X4426015Y-9256436D01*
X4426015Y-9256436D02*
X4426015Y-9275484D01*
X4559348Y-9075484D02*
X4578396Y-9075484D01*
X4578396Y-9075484D02*
X4597444Y-9085008D01*
X4597444Y-9085008D02*
X4606968Y-9094531D01*
X4606968Y-9094531D02*
X4616491Y-9113579D01*
X4616491Y-9113579D02*
X4626015Y-9151674D01*
X4626015Y-9151674D02*
X4626015Y-9199293D01*
X4626015Y-9199293D02*
X4616491Y-9237389D01*
X4616491Y-9237389D02*
X4606968Y-9256436D01*
X4606968Y-9256436D02*
X4597444Y-9265960D01*
X4597444Y-9265960D02*
X4578396Y-9275484D01*
X4578396Y-9275484D02*
X4559348Y-9275484D01*
X4559348Y-9275484D02*
X4540301Y-9265960D01*
X4540301Y-9265960D02*
X4530777Y-9256436D01*
X4530777Y-9256436D02*
X4521253Y-9237389D01*
X4521253Y-9237389D02*
X4511729Y-9199293D01*
X4511729Y-9199293D02*
X4511729Y-9151674D01*
X4511729Y-9151674D02*
X4521253Y-9113579D01*
X4521253Y-9113579D02*
X4530777Y-9094531D01*
X4530777Y-9094531D02*
X4540301Y-9085008D01*
X4540301Y-9085008D02*
X4559348Y-9075484D01*
X4702206Y-9094531D02*
X4711729Y-9085008D01*
X4711729Y-9085008D02*
X4730777Y-9075484D01*
X4730777Y-9075484D02*
X4778396Y-9075484D01*
X4778396Y-9075484D02*
X4797444Y-9085008D01*
X4797444Y-9085008D02*
X4806968Y-9094531D01*
X4806968Y-9094531D02*
X4816491Y-9113579D01*
X4816491Y-9113579D02*
X4816491Y-9132627D01*
X4816491Y-9132627D02*
X4806968Y-9161198D01*
X4806968Y-9161198D02*
X4692682Y-9275484D01*
X4692682Y-9275484D02*
X4816491Y-9275484D01*
X4997444Y-9075484D02*
X4902206Y-9075484D01*
X4902206Y-9075484D02*
X4892682Y-9170722D01*
X4892682Y-9170722D02*
X4902206Y-9161198D01*
X4902206Y-9161198D02*
X4921253Y-9151674D01*
X4921253Y-9151674D02*
X4968872Y-9151674D01*
X4968872Y-9151674D02*
X4987920Y-9161198D01*
X4987920Y-9161198D02*
X4997444Y-9170722D01*
X4997444Y-9170722D02*
X5006968Y-9189770D01*
X5006968Y-9189770D02*
X5006968Y-9237389D01*
X5006968Y-9237389D02*
X4997444Y-9256436D01*
X4997444Y-9256436D02*
X4987920Y-9265960D01*
X4987920Y-9265960D02*
X4968872Y-9275484D01*
X4968872Y-9275484D02*
X4921253Y-9275484D01*
X4921253Y-9275484D02*
X4902206Y-9265960D01*
X4902206Y-9265960D02*
X4892682Y-9256436D01*
X5130777Y-9075484D02*
X5149825Y-9075484D01*
X5149825Y-9075484D02*
X5168872Y-9085008D01*
X5168872Y-9085008D02*
X5178396Y-9094531D01*
X5178396Y-9094531D02*
X5187920Y-9113579D01*
X5187920Y-9113579D02*
X5197444Y-9151674D01*
X5197444Y-9151674D02*
X5197444Y-9199293D01*
X5197444Y-9199293D02*
X5187920Y-9237389D01*
X5187920Y-9237389D02*
X5178396Y-9256436D01*
X5178396Y-9256436D02*
X5168872Y-9265960D01*
X5168872Y-9265960D02*
X5149825Y-9275484D01*
X5149825Y-9275484D02*
X5130777Y-9275484D01*
X5130777Y-9275484D02*
X5111729Y-9265960D01*
X5111729Y-9265960D02*
X5102206Y-9256436D01*
X5102206Y-9256436D02*
X5092682Y-9237389D01*
X5092682Y-9237389D02*
X5083158Y-9199293D01*
X5083158Y-9199293D02*
X5083158Y-9151674D01*
X5083158Y-9151674D02*
X5092682Y-9113579D01*
X5092682Y-9113579D02*
X5102206Y-9094531D01*
X5102206Y-9094531D02*
X5111729Y-9085008D01*
X5111729Y-9085008D02*
X5130777Y-9075484D01*
X5273634Y-9075484D02*
X5273634Y-9113579D01*
X5349825Y-9075484D02*
X5349825Y-9113579D01*
X5645063Y-9351674D02*
X5635539Y-9342150D01*
X5635539Y-9342150D02*
X5616491Y-9313579D01*
X5616491Y-9313579D02*
X5606968Y-9294531D01*
X5606968Y-9294531D02*
X5597444Y-9265960D01*
X5597444Y-9265960D02*
X5587920Y-9218341D01*
X5587920Y-9218341D02*
X5587920Y-9180246D01*
X5587920Y-9180246D02*
X5597444Y-9132627D01*
X5597444Y-9132627D02*
X5606968Y-9104055D01*
X5606968Y-9104055D02*
X5616491Y-9085008D01*
X5616491Y-9085008D02*
X5635539Y-9056436D01*
X5635539Y-9056436D02*
X5645063Y-9046912D01*
X5806968Y-9142150D02*
X5806968Y-9275484D01*
X5759348Y-9065960D02*
X5711729Y-9208817D01*
X5711729Y-9208817D02*
X5835539Y-9208817D01*
X6064110Y-9275484D02*
X6064110Y-9075484D01*
X6149825Y-9275484D02*
X6149825Y-9170722D01*
X6149825Y-9170722D02*
X6140301Y-9151674D01*
X6140301Y-9151674D02*
X6121253Y-9142150D01*
X6121253Y-9142150D02*
X6092682Y-9142150D01*
X6092682Y-9142150D02*
X6073634Y-9151674D01*
X6073634Y-9151674D02*
X6064110Y-9161198D01*
X6273634Y-9275484D02*
X6254587Y-9265960D01*
X6254587Y-9265960D02*
X6245063Y-9256436D01*
X6245063Y-9256436D02*
X6235539Y-9237389D01*
X6235539Y-9237389D02*
X6235539Y-9180246D01*
X6235539Y-9180246D02*
X6245063Y-9161198D01*
X6245063Y-9161198D02*
X6254587Y-9151674D01*
X6254587Y-9151674D02*
X6273634Y-9142150D01*
X6273634Y-9142150D02*
X6302206Y-9142150D01*
X6302206Y-9142150D02*
X6321253Y-9151674D01*
X6321253Y-9151674D02*
X6330777Y-9161198D01*
X6330777Y-9161198D02*
X6340301Y-9180246D01*
X6340301Y-9180246D02*
X6340301Y-9237389D01*
X6340301Y-9237389D02*
X6330777Y-9256436D01*
X6330777Y-9256436D02*
X6321253Y-9265960D01*
X6321253Y-9265960D02*
X6302206Y-9275484D01*
X6302206Y-9275484D02*
X6273634Y-9275484D01*
X6454587Y-9275484D02*
X6435539Y-9265960D01*
X6435539Y-9265960D02*
X6426015Y-9246912D01*
X6426015Y-9246912D02*
X6426015Y-9075484D01*
X6606968Y-9265960D02*
X6587920Y-9275484D01*
X6587920Y-9275484D02*
X6549825Y-9275484D01*
X6549825Y-9275484D02*
X6530777Y-9265960D01*
X6530777Y-9265960D02*
X6521253Y-9246912D01*
X6521253Y-9246912D02*
X6521253Y-9170722D01*
X6521253Y-9170722D02*
X6530777Y-9151674D01*
X6530777Y-9151674D02*
X6549825Y-9142150D01*
X6549825Y-9142150D02*
X6587920Y-9142150D01*
X6587920Y-9142150D02*
X6606968Y-9151674D01*
X6606968Y-9151674D02*
X6616491Y-9170722D01*
X6616491Y-9170722D02*
X6616491Y-9189770D01*
X6616491Y-9189770D02*
X6521253Y-9208817D01*
X6692682Y-9265960D02*
X6711730Y-9275484D01*
X6711730Y-9275484D02*
X6749825Y-9275484D01*
X6749825Y-9275484D02*
X6768872Y-9265960D01*
X6768872Y-9265960D02*
X6778396Y-9246912D01*
X6778396Y-9246912D02*
X6778396Y-9237389D01*
X6778396Y-9237389D02*
X6768872Y-9218341D01*
X6768872Y-9218341D02*
X6749825Y-9208817D01*
X6749825Y-9208817D02*
X6721253Y-9208817D01*
X6721253Y-9208817D02*
X6702206Y-9199293D01*
X6702206Y-9199293D02*
X6692682Y-9180246D01*
X6692682Y-9180246D02*
X6692682Y-9170722D01*
X6692682Y-9170722D02*
X6702206Y-9151674D01*
X6702206Y-9151674D02*
X6721253Y-9142150D01*
X6721253Y-9142150D02*
X6749825Y-9142150D01*
X6749825Y-9142150D02*
X6768872Y-9151674D01*
X6845063Y-9351674D02*
X6854587Y-9342150D01*
X6854587Y-9342150D02*
X6873634Y-9313579D01*
X6873634Y-9313579D02*
X6883158Y-9294531D01*
X6883158Y-9294531D02*
X6892682Y-9265960D01*
X6892682Y-9265960D02*
X6902206Y-9218341D01*
X6902206Y-9218341D02*
X6902206Y-9180246D01*
X6902206Y-9180246D02*
X6892682Y-9132627D01*
X6892682Y-9132627D02*
X6883158Y-9104055D01*
X6883158Y-9104055D02*
X6873634Y-9085008D01*
X6873634Y-9085008D02*
X6854587Y-9056436D01*
X6854587Y-9056436D02*
X6845063Y-9046912D01*
D10*
X2037500Y-9415500D02*
X2037500Y-9480500D01*
X2005000Y-9448000D02*
X2070000Y-9448000D01*
D11*
X2368872Y-9339484D02*
X2387920Y-9339484D01*
X2387920Y-9339484D02*
X2406967Y-9349008D01*
X2406967Y-9349008D02*
X2416491Y-9358531D01*
X2416491Y-9358531D02*
X2426015Y-9377579D01*
X2426015Y-9377579D02*
X2435539Y-9415674D01*
X2435539Y-9415674D02*
X2435539Y-9463293D01*
X2435539Y-9463293D02*
X2426015Y-9501389D01*
X2426015Y-9501389D02*
X2416491Y-9520436D01*
X2416491Y-9520436D02*
X2406967Y-9529960D01*
X2406967Y-9529960D02*
X2387920Y-9539484D01*
X2387920Y-9539484D02*
X2368872Y-9539484D01*
X2368872Y-9539484D02*
X2349824Y-9529960D01*
X2349824Y-9529960D02*
X2340301Y-9520436D01*
X2340301Y-9520436D02*
X2330777Y-9501389D01*
X2330777Y-9501389D02*
X2321253Y-9463293D01*
X2321253Y-9463293D02*
X2321253Y-9415674D01*
X2321253Y-9415674D02*
X2330777Y-9377579D01*
X2330777Y-9377579D02*
X2340301Y-9358531D01*
X2340301Y-9358531D02*
X2349824Y-9349008D01*
X2349824Y-9349008D02*
X2368872Y-9339484D01*
X2521253Y-9520436D02*
X2530777Y-9529960D01*
X2530777Y-9529960D02*
X2521253Y-9539484D01*
X2521253Y-9539484D02*
X2511729Y-9529960D01*
X2511729Y-9529960D02*
X2521253Y-9520436D01*
X2521253Y-9520436D02*
X2521253Y-9539484D01*
X2702205Y-9339484D02*
X2664110Y-9339484D01*
X2664110Y-9339484D02*
X2645063Y-9349008D01*
X2645063Y-9349008D02*
X2635539Y-9358531D01*
X2635539Y-9358531D02*
X2616491Y-9387103D01*
X2616491Y-9387103D02*
X2606967Y-9425198D01*
X2606967Y-9425198D02*
X2606967Y-9501389D01*
X2606967Y-9501389D02*
X2616491Y-9520436D01*
X2616491Y-9520436D02*
X2626015Y-9529960D01*
X2626015Y-9529960D02*
X2645063Y-9539484D01*
X2645063Y-9539484D02*
X2683158Y-9539484D01*
X2683158Y-9539484D02*
X2702205Y-9529960D01*
X2702205Y-9529960D02*
X2711729Y-9520436D01*
X2711729Y-9520436D02*
X2721253Y-9501389D01*
X2721253Y-9501389D02*
X2721253Y-9453770D01*
X2721253Y-9453770D02*
X2711729Y-9434722D01*
X2711729Y-9434722D02*
X2702205Y-9425198D01*
X2702205Y-9425198D02*
X2683158Y-9415674D01*
X2683158Y-9415674D02*
X2645063Y-9415674D01*
X2645063Y-9415674D02*
X2626015Y-9425198D01*
X2626015Y-9425198D02*
X2616491Y-9434722D01*
X2616491Y-9434722D02*
X2606967Y-9453770D01*
X2902205Y-9339484D02*
X2806967Y-9339484D01*
X2806967Y-9339484D02*
X2797443Y-9434722D01*
X2797443Y-9434722D02*
X2806967Y-9425198D01*
X2806967Y-9425198D02*
X2826015Y-9415674D01*
X2826015Y-9415674D02*
X2873634Y-9415674D01*
X2873634Y-9415674D02*
X2892682Y-9425198D01*
X2892682Y-9425198D02*
X2902205Y-9434722D01*
X2902205Y-9434722D02*
X2911729Y-9453770D01*
X2911729Y-9453770D02*
X2911729Y-9501389D01*
X2911729Y-9501389D02*
X2902205Y-9520436D01*
X2902205Y-9520436D02*
X2892682Y-9529960D01*
X2892682Y-9529960D02*
X2873634Y-9539484D01*
X2873634Y-9539484D02*
X2826015Y-9539484D01*
X2826015Y-9539484D02*
X2806967Y-9529960D01*
X2806967Y-9529960D02*
X2797443Y-9520436D01*
X3035539Y-9339484D02*
X3054586Y-9339484D01*
X3054586Y-9339484D02*
X3073634Y-9349008D01*
X3073634Y-9349008D02*
X3083158Y-9358531D01*
X3083158Y-9358531D02*
X3092682Y-9377579D01*
X3092682Y-9377579D02*
X3102205Y-9415674D01*
X3102205Y-9415674D02*
X3102205Y-9463293D01*
X3102205Y-9463293D02*
X3092682Y-9501389D01*
X3092682Y-9501389D02*
X3083158Y-9520436D01*
X3083158Y-9520436D02*
X3073634Y-9529960D01*
X3073634Y-9529960D02*
X3054586Y-9539484D01*
X3054586Y-9539484D02*
X3035539Y-9539484D01*
X3035539Y-9539484D02*
X3016491Y-9529960D01*
X3016491Y-9529960D02*
X3006967Y-9520436D01*
X3006967Y-9520436D02*
X2997443Y-9501389D01*
X2997443Y-9501389D02*
X2987920Y-9463293D01*
X2987920Y-9463293D02*
X2987920Y-9415674D01*
X2987920Y-9415674D02*
X2997443Y-9377579D01*
X2997443Y-9377579D02*
X3006967Y-9358531D01*
X3006967Y-9358531D02*
X3016491Y-9349008D01*
X3016491Y-9349008D02*
X3035539Y-9339484D01*
X3187920Y-9539484D02*
X3187920Y-9406150D01*
X3187920Y-9425198D02*
X3197443Y-9415674D01*
X3197443Y-9415674D02*
X3216491Y-9406150D01*
X3216491Y-9406150D02*
X3245063Y-9406150D01*
X3245063Y-9406150D02*
X3264110Y-9415674D01*
X3264110Y-9415674D02*
X3273634Y-9434722D01*
X3273634Y-9434722D02*
X3273634Y-9539484D01*
X3273634Y-9434722D02*
X3283158Y-9415674D01*
X3283158Y-9415674D02*
X3302205Y-9406150D01*
X3302205Y-9406150D02*
X3330777Y-9406150D01*
X3330777Y-9406150D02*
X3349824Y-9415674D01*
X3349824Y-9415674D02*
X3359348Y-9434722D01*
X3359348Y-9434722D02*
X3359348Y-9539484D01*
X3454586Y-9539484D02*
X3454586Y-9406150D01*
X3454586Y-9425198D02*
X3464110Y-9415674D01*
X3464110Y-9415674D02*
X3483158Y-9406150D01*
X3483158Y-9406150D02*
X3511729Y-9406150D01*
X3511729Y-9406150D02*
X3530777Y-9415674D01*
X3530777Y-9415674D02*
X3540301Y-9434722D01*
X3540301Y-9434722D02*
X3540301Y-9539484D01*
X3540301Y-9434722D02*
X3549824Y-9415674D01*
X3549824Y-9415674D02*
X3568872Y-9406150D01*
X3568872Y-9406150D02*
X3597443Y-9406150D01*
X3597443Y-9406150D02*
X3616491Y-9415674D01*
X3616491Y-9415674D02*
X3626015Y-9434722D01*
X3626015Y-9434722D02*
X3626015Y-9539484D01*
X4016491Y-9329960D02*
X3845063Y-9587103D01*
X4273634Y-9339484D02*
X4292682Y-9339484D01*
X4292682Y-9339484D02*
X4311729Y-9349008D01*
X4311729Y-9349008D02*
X4321253Y-9358531D01*
X4321253Y-9358531D02*
X4330777Y-9377579D01*
X4330777Y-9377579D02*
X4340301Y-9415674D01*
X4340301Y-9415674D02*
X4340301Y-9463293D01*
X4340301Y-9463293D02*
X4330777Y-9501389D01*
X4330777Y-9501389D02*
X4321253Y-9520436D01*
X4321253Y-9520436D02*
X4311729Y-9529960D01*
X4311729Y-9529960D02*
X4292682Y-9539484D01*
X4292682Y-9539484D02*
X4273634Y-9539484D01*
X4273634Y-9539484D02*
X4254587Y-9529960D01*
X4254587Y-9529960D02*
X4245063Y-9520436D01*
X4245063Y-9520436D02*
X4235539Y-9501389D01*
X4235539Y-9501389D02*
X4226015Y-9463293D01*
X4226015Y-9463293D02*
X4226015Y-9415674D01*
X4226015Y-9415674D02*
X4235539Y-9377579D01*
X4235539Y-9377579D02*
X4245063Y-9358531D01*
X4245063Y-9358531D02*
X4254587Y-9349008D01*
X4254587Y-9349008D02*
X4273634Y-9339484D01*
X4426015Y-9520436D02*
X4435539Y-9529960D01*
X4435539Y-9529960D02*
X4426015Y-9539484D01*
X4426015Y-9539484D02*
X4416491Y-9529960D01*
X4416491Y-9529960D02*
X4426015Y-9520436D01*
X4426015Y-9520436D02*
X4426015Y-9539484D01*
X4559348Y-9339484D02*
X4578396Y-9339484D01*
X4578396Y-9339484D02*
X4597444Y-9349008D01*
X4597444Y-9349008D02*
X4606968Y-9358531D01*
X4606968Y-9358531D02*
X4616491Y-9377579D01*
X4616491Y-9377579D02*
X4626015Y-9415674D01*
X4626015Y-9415674D02*
X4626015Y-9463293D01*
X4626015Y-9463293D02*
X4616491Y-9501389D01*
X4616491Y-9501389D02*
X4606968Y-9520436D01*
X4606968Y-9520436D02*
X4597444Y-9529960D01*
X4597444Y-9529960D02*
X4578396Y-9539484D01*
X4578396Y-9539484D02*
X4559348Y-9539484D01*
X4559348Y-9539484D02*
X4540301Y-9529960D01*
X4540301Y-9529960D02*
X4530777Y-9520436D01*
X4530777Y-9520436D02*
X4521253Y-9501389D01*
X4521253Y-9501389D02*
X4511729Y-9463293D01*
X4511729Y-9463293D02*
X4511729Y-9415674D01*
X4511729Y-9415674D02*
X4521253Y-9377579D01*
X4521253Y-9377579D02*
X4530777Y-9358531D01*
X4530777Y-9358531D02*
X4540301Y-9349008D01*
X4540301Y-9349008D02*
X4559348Y-9339484D01*
X4702206Y-9358531D02*
X4711729Y-9349008D01*
X4711729Y-9349008D02*
X4730777Y-9339484D01*
X4730777Y-9339484D02*
X4778396Y-9339484D01*
X4778396Y-9339484D02*
X4797444Y-9349008D01*
X4797444Y-9349008D02*
X4806968Y-9358531D01*
X4806968Y-9358531D02*
X4816491Y-9377579D01*
X4816491Y-9377579D02*
X4816491Y-9396627D01*
X4816491Y-9396627D02*
X4806968Y-9425198D01*
X4806968Y-9425198D02*
X4692682Y-9539484D01*
X4692682Y-9539484D02*
X4816491Y-9539484D01*
X4997444Y-9339484D02*
X4902206Y-9339484D01*
X4902206Y-9339484D02*
X4892682Y-9434722D01*
X4892682Y-9434722D02*
X4902206Y-9425198D01*
X4902206Y-9425198D02*
X4921253Y-9415674D01*
X4921253Y-9415674D02*
X4968872Y-9415674D01*
X4968872Y-9415674D02*
X4987920Y-9425198D01*
X4987920Y-9425198D02*
X4997444Y-9434722D01*
X4997444Y-9434722D02*
X5006968Y-9453770D01*
X5006968Y-9453770D02*
X5006968Y-9501389D01*
X5006968Y-9501389D02*
X4997444Y-9520436D01*
X4997444Y-9520436D02*
X4987920Y-9529960D01*
X4987920Y-9529960D02*
X4968872Y-9539484D01*
X4968872Y-9539484D02*
X4921253Y-9539484D01*
X4921253Y-9539484D02*
X4902206Y-9529960D01*
X4902206Y-9529960D02*
X4892682Y-9520436D01*
X5178396Y-9339484D02*
X5140301Y-9339484D01*
X5140301Y-9339484D02*
X5121253Y-9349008D01*
X5121253Y-9349008D02*
X5111729Y-9358531D01*
X5111729Y-9358531D02*
X5092682Y-9387103D01*
X5092682Y-9387103D02*
X5083158Y-9425198D01*
X5083158Y-9425198D02*
X5083158Y-9501389D01*
X5083158Y-9501389D02*
X5092682Y-9520436D01*
X5092682Y-9520436D02*
X5102206Y-9529960D01*
X5102206Y-9529960D02*
X5121253Y-9539484D01*
X5121253Y-9539484D02*
X5159349Y-9539484D01*
X5159349Y-9539484D02*
X5178396Y-9529960D01*
X5178396Y-9529960D02*
X5187920Y-9520436D01*
X5187920Y-9520436D02*
X5197444Y-9501389D01*
X5197444Y-9501389D02*
X5197444Y-9453770D01*
X5197444Y-9453770D02*
X5187920Y-9434722D01*
X5187920Y-9434722D02*
X5178396Y-9425198D01*
X5178396Y-9425198D02*
X5159349Y-9415674D01*
X5159349Y-9415674D02*
X5121253Y-9415674D01*
X5121253Y-9415674D02*
X5102206Y-9425198D01*
X5102206Y-9425198D02*
X5092682Y-9434722D01*
X5092682Y-9434722D02*
X5083158Y-9453770D01*
X5273634Y-9339484D02*
X5273634Y-9377579D01*
X5349825Y-9339484D02*
X5349825Y-9377579D01*
X5645063Y-9615674D02*
X5635539Y-9606150D01*
X5635539Y-9606150D02*
X5616491Y-9577579D01*
X5616491Y-9577579D02*
X5606968Y-9558531D01*
X5606968Y-9558531D02*
X5597444Y-9529960D01*
X5597444Y-9529960D02*
X5587920Y-9482341D01*
X5587920Y-9482341D02*
X5587920Y-9444246D01*
X5587920Y-9444246D02*
X5597444Y-9396627D01*
X5597444Y-9396627D02*
X5606968Y-9368055D01*
X5606968Y-9368055D02*
X5616491Y-9349008D01*
X5616491Y-9349008D02*
X5635539Y-9320436D01*
X5635539Y-9320436D02*
X5645063Y-9310912D01*
X5806968Y-9406150D02*
X5806968Y-9539484D01*
X5759348Y-9329960D02*
X5711729Y-9472817D01*
X5711729Y-9472817D02*
X5835539Y-9472817D01*
X6064110Y-9539484D02*
X6064110Y-9339484D01*
X6149825Y-9539484D02*
X6149825Y-9434722D01*
X6149825Y-9434722D02*
X6140301Y-9415674D01*
X6140301Y-9415674D02*
X6121253Y-9406150D01*
X6121253Y-9406150D02*
X6092682Y-9406150D01*
X6092682Y-9406150D02*
X6073634Y-9415674D01*
X6073634Y-9415674D02*
X6064110Y-9425198D01*
X6273634Y-9539484D02*
X6254587Y-9529960D01*
X6254587Y-9529960D02*
X6245063Y-9520436D01*
X6245063Y-9520436D02*
X6235539Y-9501389D01*
X6235539Y-9501389D02*
X6235539Y-9444246D01*
X6235539Y-9444246D02*
X6245063Y-9425198D01*
X6245063Y-9425198D02*
X6254587Y-9415674D01*
X6254587Y-9415674D02*
X6273634Y-9406150D01*
X6273634Y-9406150D02*
X6302206Y-9406150D01*
X6302206Y-9406150D02*
X6321253Y-9415674D01*
X6321253Y-9415674D02*
X6330777Y-9425198D01*
X6330777Y-9425198D02*
X6340301Y-9444246D01*
X6340301Y-9444246D02*
X6340301Y-9501389D01*
X6340301Y-9501389D02*
X6330777Y-9520436D01*
X6330777Y-9520436D02*
X6321253Y-9529960D01*
X6321253Y-9529960D02*
X6302206Y-9539484D01*
X6302206Y-9539484D02*
X6273634Y-9539484D01*
X6454587Y-9539484D02*
X6435539Y-9529960D01*
X6435539Y-9529960D02*
X6426015Y-9510912D01*
X6426015Y-9510912D02*
X6426015Y-9339484D01*
X6606968Y-9529960D02*
X6587920Y-9539484D01*
X6587920Y-9539484D02*
X6549825Y-9539484D01*
X6549825Y-9539484D02*
X6530777Y-9529960D01*
X6530777Y-9529960D02*
X6521253Y-9510912D01*
X6521253Y-9510912D02*
X6521253Y-9434722D01*
X6521253Y-9434722D02*
X6530777Y-9415674D01*
X6530777Y-9415674D02*
X6549825Y-9406150D01*
X6549825Y-9406150D02*
X6587920Y-9406150D01*
X6587920Y-9406150D02*
X6606968Y-9415674D01*
X6606968Y-9415674D02*
X6616491Y-9434722D01*
X6616491Y-9434722D02*
X6616491Y-9453770D01*
X6616491Y-9453770D02*
X6521253Y-9472817D01*
X6692682Y-9529960D02*
X6711730Y-9539484D01*
X6711730Y-9539484D02*
X6749825Y-9539484D01*
X6749825Y-9539484D02*
X6768872Y-9529960D01*
X6768872Y-9529960D02*
X6778396Y-9510912D01*
X6778396Y-9510912D02*
X6778396Y-9501389D01*
X6778396Y-9501389D02*
X6768872Y-9482341D01*
X6768872Y-9482341D02*
X6749825Y-9472817D01*
X6749825Y-9472817D02*
X6721253Y-9472817D01*
X6721253Y-9472817D02*
X6702206Y-9463293D01*
X6702206Y-9463293D02*
X6692682Y-9444246D01*
X6692682Y-9444246D02*
X6692682Y-9434722D01*
X6692682Y-9434722D02*
X6702206Y-9415674D01*
X6702206Y-9415674D02*
X6721253Y-9406150D01*
X6721253Y-9406150D02*
X6749825Y-9406150D01*
X6749825Y-9406150D02*
X6768872Y-9415674D01*
X6845063Y-9615674D02*
X6854587Y-9606150D01*
X6854587Y-9606150D02*
X6873634Y-9577579D01*
X6873634Y-9577579D02*
X6883158Y-9558531D01*
X6883158Y-9558531D02*
X6892682Y-9529960D01*
X6892682Y-9529960D02*
X6902206Y-9482341D01*
X6902206Y-9482341D02*
X6902206Y-9444246D01*
X6902206Y-9444246D02*
X6892682Y-9396627D01*
X6892682Y-9396627D02*
X6883158Y-9368055D01*
X6883158Y-9368055D02*
X6873634Y-9349008D01*
X6873634Y-9349008D02*
X6854587Y-9320436D01*
X6854587Y-9320436D02*
X6845063Y-9310912D01*
D10*
X2058284Y-9740285D02*
X2058284Y-9683716D01*
X2001715Y-9683716D01*
X2001715Y-9740285D01*
X2058284Y-9740285D01*
D11*
X2368872Y-9603484D02*
X2387920Y-9603484D01*
X2387920Y-9603484D02*
X2406967Y-9613008D01*
X2406967Y-9613008D02*
X2416491Y-9622531D01*
X2416491Y-9622531D02*
X2426015Y-9641579D01*
X2426015Y-9641579D02*
X2435539Y-9679674D01*
X2435539Y-9679674D02*
X2435539Y-9727293D01*
X2435539Y-9727293D02*
X2426015Y-9765389D01*
X2426015Y-9765389D02*
X2416491Y-9784436D01*
X2416491Y-9784436D02*
X2406967Y-9793960D01*
X2406967Y-9793960D02*
X2387920Y-9803484D01*
X2387920Y-9803484D02*
X2368872Y-9803484D01*
X2368872Y-9803484D02*
X2349824Y-9793960D01*
X2349824Y-9793960D02*
X2340301Y-9784436D01*
X2340301Y-9784436D02*
X2330777Y-9765389D01*
X2330777Y-9765389D02*
X2321253Y-9727293D01*
X2321253Y-9727293D02*
X2321253Y-9679674D01*
X2321253Y-9679674D02*
X2330777Y-9641579D01*
X2330777Y-9641579D02*
X2340301Y-9622531D01*
X2340301Y-9622531D02*
X2349824Y-9613008D01*
X2349824Y-9613008D02*
X2368872Y-9603484D01*
X2521253Y-9784436D02*
X2530777Y-9793960D01*
X2530777Y-9793960D02*
X2521253Y-9803484D01*
X2521253Y-9803484D02*
X2511729Y-9793960D01*
X2511729Y-9793960D02*
X2521253Y-9784436D01*
X2521253Y-9784436D02*
X2521253Y-9803484D01*
X2645063Y-9689198D02*
X2626015Y-9679674D01*
X2626015Y-9679674D02*
X2616491Y-9670150D01*
X2616491Y-9670150D02*
X2606967Y-9651103D01*
X2606967Y-9651103D02*
X2606967Y-9641579D01*
X2606967Y-9641579D02*
X2616491Y-9622531D01*
X2616491Y-9622531D02*
X2626015Y-9613008D01*
X2626015Y-9613008D02*
X2645063Y-9603484D01*
X2645063Y-9603484D02*
X2683158Y-9603484D01*
X2683158Y-9603484D02*
X2702205Y-9613008D01*
X2702205Y-9613008D02*
X2711729Y-9622531D01*
X2711729Y-9622531D02*
X2721253Y-9641579D01*
X2721253Y-9641579D02*
X2721253Y-9651103D01*
X2721253Y-9651103D02*
X2711729Y-9670150D01*
X2711729Y-9670150D02*
X2702205Y-9679674D01*
X2702205Y-9679674D02*
X2683158Y-9689198D01*
X2683158Y-9689198D02*
X2645063Y-9689198D01*
X2645063Y-9689198D02*
X2626015Y-9698722D01*
X2626015Y-9698722D02*
X2616491Y-9708246D01*
X2616491Y-9708246D02*
X2606967Y-9727293D01*
X2606967Y-9727293D02*
X2606967Y-9765389D01*
X2606967Y-9765389D02*
X2616491Y-9784436D01*
X2616491Y-9784436D02*
X2626015Y-9793960D01*
X2626015Y-9793960D02*
X2645063Y-9803484D01*
X2645063Y-9803484D02*
X2683158Y-9803484D01*
X2683158Y-9803484D02*
X2702205Y-9793960D01*
X2702205Y-9793960D02*
X2711729Y-9784436D01*
X2711729Y-9784436D02*
X2721253Y-9765389D01*
X2721253Y-9765389D02*
X2721253Y-9727293D01*
X2721253Y-9727293D02*
X2711729Y-9708246D01*
X2711729Y-9708246D02*
X2702205Y-9698722D01*
X2702205Y-9698722D02*
X2683158Y-9689198D01*
X2845062Y-9603484D02*
X2864110Y-9603484D01*
X2864110Y-9603484D02*
X2883158Y-9613008D01*
X2883158Y-9613008D02*
X2892682Y-9622531D01*
X2892682Y-9622531D02*
X2902205Y-9641579D01*
X2902205Y-9641579D02*
X2911729Y-9679674D01*
X2911729Y-9679674D02*
X2911729Y-9727293D01*
X2911729Y-9727293D02*
X2902205Y-9765389D01*
X2902205Y-9765389D02*
X2892682Y-9784436D01*
X2892682Y-9784436D02*
X2883158Y-9793960D01*
X2883158Y-9793960D02*
X2864110Y-9803484D01*
X2864110Y-9803484D02*
X2845062Y-9803484D01*
X2845062Y-9803484D02*
X2826015Y-9793960D01*
X2826015Y-9793960D02*
X2816491Y-9784436D01*
X2816491Y-9784436D02*
X2806967Y-9765389D01*
X2806967Y-9765389D02*
X2797443Y-9727293D01*
X2797443Y-9727293D02*
X2797443Y-9679674D01*
X2797443Y-9679674D02*
X2806967Y-9641579D01*
X2806967Y-9641579D02*
X2816491Y-9622531D01*
X2816491Y-9622531D02*
X2826015Y-9613008D01*
X2826015Y-9613008D02*
X2845062Y-9603484D01*
X3035539Y-9603484D02*
X3054586Y-9603484D01*
X3054586Y-9603484D02*
X3073634Y-9613008D01*
X3073634Y-9613008D02*
X3083158Y-9622531D01*
X3083158Y-9622531D02*
X3092682Y-9641579D01*
X3092682Y-9641579D02*
X3102205Y-9679674D01*
X3102205Y-9679674D02*
X3102205Y-9727293D01*
X3102205Y-9727293D02*
X3092682Y-9765389D01*
X3092682Y-9765389D02*
X3083158Y-9784436D01*
X3083158Y-9784436D02*
X3073634Y-9793960D01*
X3073634Y-9793960D02*
X3054586Y-9803484D01*
X3054586Y-9803484D02*
X3035539Y-9803484D01*
X3035539Y-9803484D02*
X3016491Y-9793960D01*
X3016491Y-9793960D02*
X3006967Y-9784436D01*
X3006967Y-9784436D02*
X2997443Y-9765389D01*
X2997443Y-9765389D02*
X2987920Y-9727293D01*
X2987920Y-9727293D02*
X2987920Y-9679674D01*
X2987920Y-9679674D02*
X2997443Y-9641579D01*
X2997443Y-9641579D02*
X3006967Y-9622531D01*
X3006967Y-9622531D02*
X3016491Y-9613008D01*
X3016491Y-9613008D02*
X3035539Y-9603484D01*
X3187920Y-9803484D02*
X3187920Y-9670150D01*
X3187920Y-9689198D02*
X3197443Y-9679674D01*
X3197443Y-9679674D02*
X3216491Y-9670150D01*
X3216491Y-9670150D02*
X3245063Y-9670150D01*
X3245063Y-9670150D02*
X3264110Y-9679674D01*
X3264110Y-9679674D02*
X3273634Y-9698722D01*
X3273634Y-9698722D02*
X3273634Y-9803484D01*
X3273634Y-9698722D02*
X3283158Y-9679674D01*
X3283158Y-9679674D02*
X3302205Y-9670150D01*
X3302205Y-9670150D02*
X3330777Y-9670150D01*
X3330777Y-9670150D02*
X3349824Y-9679674D01*
X3349824Y-9679674D02*
X3359348Y-9698722D01*
X3359348Y-9698722D02*
X3359348Y-9803484D01*
X3454586Y-9803484D02*
X3454586Y-9670150D01*
X3454586Y-9689198D02*
X3464110Y-9679674D01*
X3464110Y-9679674D02*
X3483158Y-9670150D01*
X3483158Y-9670150D02*
X3511729Y-9670150D01*
X3511729Y-9670150D02*
X3530777Y-9679674D01*
X3530777Y-9679674D02*
X3540301Y-9698722D01*
X3540301Y-9698722D02*
X3540301Y-9803484D01*
X3540301Y-9698722D02*
X3549824Y-9679674D01*
X3549824Y-9679674D02*
X3568872Y-9670150D01*
X3568872Y-9670150D02*
X3597443Y-9670150D01*
X3597443Y-9670150D02*
X3616491Y-9679674D01*
X3616491Y-9679674D02*
X3626015Y-9698722D01*
X3626015Y-9698722D02*
X3626015Y-9803484D01*
X4016491Y-9593960D02*
X3845063Y-9851103D01*
X4273634Y-9603484D02*
X4292682Y-9603484D01*
X4292682Y-9603484D02*
X4311729Y-9613008D01*
X4311729Y-9613008D02*
X4321253Y-9622531D01*
X4321253Y-9622531D02*
X4330777Y-9641579D01*
X4330777Y-9641579D02*
X4340301Y-9679674D01*
X4340301Y-9679674D02*
X4340301Y-9727293D01*
X4340301Y-9727293D02*
X4330777Y-9765389D01*
X4330777Y-9765389D02*
X4321253Y-9784436D01*
X4321253Y-9784436D02*
X4311729Y-9793960D01*
X4311729Y-9793960D02*
X4292682Y-9803484D01*
X4292682Y-9803484D02*
X4273634Y-9803484D01*
X4273634Y-9803484D02*
X4254587Y-9793960D01*
X4254587Y-9793960D02*
X4245063Y-9784436D01*
X4245063Y-9784436D02*
X4235539Y-9765389D01*
X4235539Y-9765389D02*
X4226015Y-9727293D01*
X4226015Y-9727293D02*
X4226015Y-9679674D01*
X4226015Y-9679674D02*
X4235539Y-9641579D01*
X4235539Y-9641579D02*
X4245063Y-9622531D01*
X4245063Y-9622531D02*
X4254587Y-9613008D01*
X4254587Y-9613008D02*
X4273634Y-9603484D01*
X4426015Y-9784436D02*
X4435539Y-9793960D01*
X4435539Y-9793960D02*
X4426015Y-9803484D01*
X4426015Y-9803484D02*
X4416491Y-9793960D01*
X4416491Y-9793960D02*
X4426015Y-9784436D01*
X4426015Y-9784436D02*
X4426015Y-9803484D01*
X4559348Y-9603484D02*
X4578396Y-9603484D01*
X4578396Y-9603484D02*
X4597444Y-9613008D01*
X4597444Y-9613008D02*
X4606968Y-9622531D01*
X4606968Y-9622531D02*
X4616491Y-9641579D01*
X4616491Y-9641579D02*
X4626015Y-9679674D01*
X4626015Y-9679674D02*
X4626015Y-9727293D01*
X4626015Y-9727293D02*
X4616491Y-9765389D01*
X4616491Y-9765389D02*
X4606968Y-9784436D01*
X4606968Y-9784436D02*
X4597444Y-9793960D01*
X4597444Y-9793960D02*
X4578396Y-9803484D01*
X4578396Y-9803484D02*
X4559348Y-9803484D01*
X4559348Y-9803484D02*
X4540301Y-9793960D01*
X4540301Y-9793960D02*
X4530777Y-9784436D01*
X4530777Y-9784436D02*
X4521253Y-9765389D01*
X4521253Y-9765389D02*
X4511729Y-9727293D01*
X4511729Y-9727293D02*
X4511729Y-9679674D01*
X4511729Y-9679674D02*
X4521253Y-9641579D01*
X4521253Y-9641579D02*
X4530777Y-9622531D01*
X4530777Y-9622531D02*
X4540301Y-9613008D01*
X4540301Y-9613008D02*
X4559348Y-9603484D01*
X4692682Y-9603484D02*
X4816491Y-9603484D01*
X4816491Y-9603484D02*
X4749825Y-9679674D01*
X4749825Y-9679674D02*
X4778396Y-9679674D01*
X4778396Y-9679674D02*
X4797444Y-9689198D01*
X4797444Y-9689198D02*
X4806968Y-9698722D01*
X4806968Y-9698722D02*
X4816491Y-9717770D01*
X4816491Y-9717770D02*
X4816491Y-9765389D01*
X4816491Y-9765389D02*
X4806968Y-9784436D01*
X4806968Y-9784436D02*
X4797444Y-9793960D01*
X4797444Y-9793960D02*
X4778396Y-9803484D01*
X4778396Y-9803484D02*
X4721253Y-9803484D01*
X4721253Y-9803484D02*
X4702206Y-9793960D01*
X4702206Y-9793960D02*
X4692682Y-9784436D01*
X5006968Y-9803484D02*
X4892682Y-9803484D01*
X4949825Y-9803484D02*
X4949825Y-9603484D01*
X4949825Y-9603484D02*
X4930777Y-9632055D01*
X4930777Y-9632055D02*
X4911729Y-9651103D01*
X4911729Y-9651103D02*
X4892682Y-9660627D01*
X5187920Y-9603484D02*
X5092682Y-9603484D01*
X5092682Y-9603484D02*
X5083158Y-9698722D01*
X5083158Y-9698722D02*
X5092682Y-9689198D01*
X5092682Y-9689198D02*
X5111729Y-9679674D01*
X5111729Y-9679674D02*
X5159349Y-9679674D01*
X5159349Y-9679674D02*
X5178396Y-9689198D01*
X5178396Y-9689198D02*
X5187920Y-9698722D01*
X5187920Y-9698722D02*
X5197444Y-9717770D01*
X5197444Y-9717770D02*
X5197444Y-9765389D01*
X5197444Y-9765389D02*
X5187920Y-9784436D01*
X5187920Y-9784436D02*
X5178396Y-9793960D01*
X5178396Y-9793960D02*
X5159349Y-9803484D01*
X5159349Y-9803484D02*
X5111729Y-9803484D01*
X5111729Y-9803484D02*
X5092682Y-9793960D01*
X5092682Y-9793960D02*
X5083158Y-9784436D01*
X5273634Y-9603484D02*
X5273634Y-9641579D01*
X5349825Y-9603484D02*
X5349825Y-9641579D01*
X5645063Y-9879674D02*
X5635539Y-9870150D01*
X5635539Y-9870150D02*
X5616491Y-9841579D01*
X5616491Y-9841579D02*
X5606968Y-9822531D01*
X5606968Y-9822531D02*
X5597444Y-9793960D01*
X5597444Y-9793960D02*
X5587920Y-9746341D01*
X5587920Y-9746341D02*
X5587920Y-9708246D01*
X5587920Y-9708246D02*
X5597444Y-9660627D01*
X5597444Y-9660627D02*
X5606968Y-9632055D01*
X5606968Y-9632055D02*
X5616491Y-9613008D01*
X5616491Y-9613008D02*
X5635539Y-9584436D01*
X5635539Y-9584436D02*
X5645063Y-9574912D01*
X5702206Y-9603484D02*
X5835539Y-9603484D01*
X5835539Y-9603484D02*
X5749825Y-9803484D01*
X6064110Y-9803484D02*
X6064110Y-9603484D01*
X6149825Y-9803484D02*
X6149825Y-9698722D01*
X6149825Y-9698722D02*
X6140301Y-9679674D01*
X6140301Y-9679674D02*
X6121253Y-9670150D01*
X6121253Y-9670150D02*
X6092682Y-9670150D01*
X6092682Y-9670150D02*
X6073634Y-9679674D01*
X6073634Y-9679674D02*
X6064110Y-9689198D01*
X6273634Y-9803484D02*
X6254587Y-9793960D01*
X6254587Y-9793960D02*
X6245063Y-9784436D01*
X6245063Y-9784436D02*
X6235539Y-9765389D01*
X6235539Y-9765389D02*
X6235539Y-9708246D01*
X6235539Y-9708246D02*
X6245063Y-9689198D01*
X6245063Y-9689198D02*
X6254587Y-9679674D01*
X6254587Y-9679674D02*
X6273634Y-9670150D01*
X6273634Y-9670150D02*
X6302206Y-9670150D01*
X6302206Y-9670150D02*
X6321253Y-9679674D01*
X6321253Y-9679674D02*
X6330777Y-9689198D01*
X6330777Y-9689198D02*
X6340301Y-9708246D01*
X6340301Y-9708246D02*
X6340301Y-9765389D01*
X6340301Y-9765389D02*
X6330777Y-9784436D01*
X6330777Y-9784436D02*
X6321253Y-9793960D01*
X6321253Y-9793960D02*
X6302206Y-9803484D01*
X6302206Y-9803484D02*
X6273634Y-9803484D01*
X6454587Y-9803484D02*
X6435539Y-9793960D01*
X6435539Y-9793960D02*
X6426015Y-9774912D01*
X6426015Y-9774912D02*
X6426015Y-9603484D01*
X6606968Y-9793960D02*
X6587920Y-9803484D01*
X6587920Y-9803484D02*
X6549825Y-9803484D01*
X6549825Y-9803484D02*
X6530777Y-9793960D01*
X6530777Y-9793960D02*
X6521253Y-9774912D01*
X6521253Y-9774912D02*
X6521253Y-9698722D01*
X6521253Y-9698722D02*
X6530777Y-9679674D01*
X6530777Y-9679674D02*
X6549825Y-9670150D01*
X6549825Y-9670150D02*
X6587920Y-9670150D01*
X6587920Y-9670150D02*
X6606968Y-9679674D01*
X6606968Y-9679674D02*
X6616491Y-9698722D01*
X6616491Y-9698722D02*
X6616491Y-9717770D01*
X6616491Y-9717770D02*
X6521253Y-9736817D01*
X6692682Y-9793960D02*
X6711730Y-9803484D01*
X6711730Y-9803484D02*
X6749825Y-9803484D01*
X6749825Y-9803484D02*
X6768872Y-9793960D01*
X6768872Y-9793960D02*
X6778396Y-9774912D01*
X6778396Y-9774912D02*
X6778396Y-9765389D01*
X6778396Y-9765389D02*
X6768872Y-9746341D01*
X6768872Y-9746341D02*
X6749825Y-9736817D01*
X6749825Y-9736817D02*
X6721253Y-9736817D01*
X6721253Y-9736817D02*
X6702206Y-9727293D01*
X6702206Y-9727293D02*
X6692682Y-9708246D01*
X6692682Y-9708246D02*
X6692682Y-9698722D01*
X6692682Y-9698722D02*
X6702206Y-9679674D01*
X6702206Y-9679674D02*
X6721253Y-9670150D01*
X6721253Y-9670150D02*
X6749825Y-9670150D01*
X6749825Y-9670150D02*
X6768872Y-9679674D01*
X6845063Y-9879674D02*
X6854587Y-9870150D01*
X6854587Y-9870150D02*
X6873634Y-9841579D01*
X6873634Y-9841579D02*
X6883158Y-9822531D01*
X6883158Y-9822531D02*
X6892682Y-9793960D01*
X6892682Y-9793960D02*
X6902206Y-9746341D01*
X6902206Y-9746341D02*
X6902206Y-9708246D01*
X6902206Y-9708246D02*
X6892682Y-9660627D01*
X6892682Y-9660627D02*
X6883158Y-9632055D01*
X6883158Y-9632055D02*
X6873634Y-9613008D01*
X6873634Y-9613008D02*
X6854587Y-9584436D01*
X6854587Y-9584436D02*
X6845063Y-9574912D01*
D10*
X2023000Y-10023000D02*
X2070000Y-9976000D01*
X2023000Y-9929000D01*
X1976000Y-9976000D01*
X2023000Y-10023000D01*
D11*
X2368872Y-9867484D02*
X2387920Y-9867484D01*
X2387920Y-9867484D02*
X2406967Y-9877008D01*
X2406967Y-9877008D02*
X2416491Y-9886531D01*
X2416491Y-9886531D02*
X2426015Y-9905579D01*
X2426015Y-9905579D02*
X2435539Y-9943674D01*
X2435539Y-9943674D02*
X2435539Y-9991293D01*
X2435539Y-9991293D02*
X2426015Y-10029389D01*
X2426015Y-10029389D02*
X2416491Y-10048436D01*
X2416491Y-10048436D02*
X2406967Y-10057960D01*
X2406967Y-10057960D02*
X2387920Y-10067484D01*
X2387920Y-10067484D02*
X2368872Y-10067484D01*
X2368872Y-10067484D02*
X2349824Y-10057960D01*
X2349824Y-10057960D02*
X2340301Y-10048436D01*
X2340301Y-10048436D02*
X2330777Y-10029389D01*
X2330777Y-10029389D02*
X2321253Y-9991293D01*
X2321253Y-9991293D02*
X2321253Y-9943674D01*
X2321253Y-9943674D02*
X2330777Y-9905579D01*
X2330777Y-9905579D02*
X2340301Y-9886531D01*
X2340301Y-9886531D02*
X2349824Y-9877008D01*
X2349824Y-9877008D02*
X2368872Y-9867484D01*
X2521253Y-10048436D02*
X2530777Y-10057960D01*
X2530777Y-10057960D02*
X2521253Y-10067484D01*
X2521253Y-10067484D02*
X2511729Y-10057960D01*
X2511729Y-10057960D02*
X2521253Y-10048436D01*
X2521253Y-10048436D02*
X2521253Y-10067484D01*
X2626015Y-10067484D02*
X2664110Y-10067484D01*
X2664110Y-10067484D02*
X2683158Y-10057960D01*
X2683158Y-10057960D02*
X2692682Y-10048436D01*
X2692682Y-10048436D02*
X2711729Y-10019865D01*
X2711729Y-10019865D02*
X2721253Y-9981770D01*
X2721253Y-9981770D02*
X2721253Y-9905579D01*
X2721253Y-9905579D02*
X2711729Y-9886531D01*
X2711729Y-9886531D02*
X2702205Y-9877008D01*
X2702205Y-9877008D02*
X2683158Y-9867484D01*
X2683158Y-9867484D02*
X2645063Y-9867484D01*
X2645063Y-9867484D02*
X2626015Y-9877008D01*
X2626015Y-9877008D02*
X2616491Y-9886531D01*
X2616491Y-9886531D02*
X2606967Y-9905579D01*
X2606967Y-9905579D02*
X2606967Y-9953198D01*
X2606967Y-9953198D02*
X2616491Y-9972246D01*
X2616491Y-9972246D02*
X2626015Y-9981770D01*
X2626015Y-9981770D02*
X2645063Y-9991293D01*
X2645063Y-9991293D02*
X2683158Y-9991293D01*
X2683158Y-9991293D02*
X2702205Y-9981770D01*
X2702205Y-9981770D02*
X2711729Y-9972246D01*
X2711729Y-9972246D02*
X2721253Y-9953198D01*
X2892682Y-9934150D02*
X2892682Y-10067484D01*
X2845062Y-9857960D02*
X2797443Y-10000817D01*
X2797443Y-10000817D02*
X2921253Y-10000817D01*
X3035539Y-9867484D02*
X3054586Y-9867484D01*
X3054586Y-9867484D02*
X3073634Y-9877008D01*
X3073634Y-9877008D02*
X3083158Y-9886531D01*
X3083158Y-9886531D02*
X3092682Y-9905579D01*
X3092682Y-9905579D02*
X3102205Y-9943674D01*
X3102205Y-9943674D02*
X3102205Y-9991293D01*
X3102205Y-9991293D02*
X3092682Y-10029389D01*
X3092682Y-10029389D02*
X3083158Y-10048436D01*
X3083158Y-10048436D02*
X3073634Y-10057960D01*
X3073634Y-10057960D02*
X3054586Y-10067484D01*
X3054586Y-10067484D02*
X3035539Y-10067484D01*
X3035539Y-10067484D02*
X3016491Y-10057960D01*
X3016491Y-10057960D02*
X3006967Y-10048436D01*
X3006967Y-10048436D02*
X2997443Y-10029389D01*
X2997443Y-10029389D02*
X2987920Y-9991293D01*
X2987920Y-9991293D02*
X2987920Y-9943674D01*
X2987920Y-9943674D02*
X2997443Y-9905579D01*
X2997443Y-9905579D02*
X3006967Y-9886531D01*
X3006967Y-9886531D02*
X3016491Y-9877008D01*
X3016491Y-9877008D02*
X3035539Y-9867484D01*
X3187920Y-10067484D02*
X3187920Y-9934150D01*
X3187920Y-9953198D02*
X3197443Y-9943674D01*
X3197443Y-9943674D02*
X3216491Y-9934150D01*
X3216491Y-9934150D02*
X3245063Y-9934150D01*
X3245063Y-9934150D02*
X3264110Y-9943674D01*
X3264110Y-9943674D02*
X3273634Y-9962722D01*
X3273634Y-9962722D02*
X3273634Y-10067484D01*
X3273634Y-9962722D02*
X3283158Y-9943674D01*
X3283158Y-9943674D02*
X3302205Y-9934150D01*
X3302205Y-9934150D02*
X3330777Y-9934150D01*
X3330777Y-9934150D02*
X3349824Y-9943674D01*
X3349824Y-9943674D02*
X3359348Y-9962722D01*
X3359348Y-9962722D02*
X3359348Y-10067484D01*
X3454586Y-10067484D02*
X3454586Y-9934150D01*
X3454586Y-9953198D02*
X3464110Y-9943674D01*
X3464110Y-9943674D02*
X3483158Y-9934150D01*
X3483158Y-9934150D02*
X3511729Y-9934150D01*
X3511729Y-9934150D02*
X3530777Y-9943674D01*
X3530777Y-9943674D02*
X3540301Y-9962722D01*
X3540301Y-9962722D02*
X3540301Y-10067484D01*
X3540301Y-9962722D02*
X3549824Y-9943674D01*
X3549824Y-9943674D02*
X3568872Y-9934150D01*
X3568872Y-9934150D02*
X3597443Y-9934150D01*
X3597443Y-9934150D02*
X3616491Y-9943674D01*
X3616491Y-9943674D02*
X3626015Y-9962722D01*
X3626015Y-9962722D02*
X3626015Y-10067484D01*
X4016491Y-9857960D02*
X3845063Y-10115103D01*
X4273634Y-9867484D02*
X4292682Y-9867484D01*
X4292682Y-9867484D02*
X4311729Y-9877008D01*
X4311729Y-9877008D02*
X4321253Y-9886531D01*
X4321253Y-9886531D02*
X4330777Y-9905579D01*
X4330777Y-9905579D02*
X4340301Y-9943674D01*
X4340301Y-9943674D02*
X4340301Y-9991293D01*
X4340301Y-9991293D02*
X4330777Y-10029389D01*
X4330777Y-10029389D02*
X4321253Y-10048436D01*
X4321253Y-10048436D02*
X4311729Y-10057960D01*
X4311729Y-10057960D02*
X4292682Y-10067484D01*
X4292682Y-10067484D02*
X4273634Y-10067484D01*
X4273634Y-10067484D02*
X4254587Y-10057960D01*
X4254587Y-10057960D02*
X4245063Y-10048436D01*
X4245063Y-10048436D02*
X4235539Y-10029389D01*
X4235539Y-10029389D02*
X4226015Y-9991293D01*
X4226015Y-9991293D02*
X4226015Y-9943674D01*
X4226015Y-9943674D02*
X4235539Y-9905579D01*
X4235539Y-9905579D02*
X4245063Y-9886531D01*
X4245063Y-9886531D02*
X4254587Y-9877008D01*
X4254587Y-9877008D02*
X4273634Y-9867484D01*
X4426015Y-10048436D02*
X4435539Y-10057960D01*
X4435539Y-10057960D02*
X4426015Y-10067484D01*
X4426015Y-10067484D02*
X4416491Y-10057960D01*
X4416491Y-10057960D02*
X4426015Y-10048436D01*
X4426015Y-10048436D02*
X4426015Y-10067484D01*
X4559348Y-9867484D02*
X4578396Y-9867484D01*
X4578396Y-9867484D02*
X4597444Y-9877008D01*
X4597444Y-9877008D02*
X4606968Y-9886531D01*
X4606968Y-9886531D02*
X4616491Y-9905579D01*
X4616491Y-9905579D02*
X4626015Y-9943674D01*
X4626015Y-9943674D02*
X4626015Y-9991293D01*
X4626015Y-9991293D02*
X4616491Y-10029389D01*
X4616491Y-10029389D02*
X4606968Y-10048436D01*
X4606968Y-10048436D02*
X4597444Y-10057960D01*
X4597444Y-10057960D02*
X4578396Y-10067484D01*
X4578396Y-10067484D02*
X4559348Y-10067484D01*
X4559348Y-10067484D02*
X4540301Y-10057960D01*
X4540301Y-10057960D02*
X4530777Y-10048436D01*
X4530777Y-10048436D02*
X4521253Y-10029389D01*
X4521253Y-10029389D02*
X4511729Y-9991293D01*
X4511729Y-9991293D02*
X4511729Y-9943674D01*
X4511729Y-9943674D02*
X4521253Y-9905579D01*
X4521253Y-9905579D02*
X4530777Y-9886531D01*
X4530777Y-9886531D02*
X4540301Y-9877008D01*
X4540301Y-9877008D02*
X4559348Y-9867484D01*
X4692682Y-9867484D02*
X4816491Y-9867484D01*
X4816491Y-9867484D02*
X4749825Y-9943674D01*
X4749825Y-9943674D02*
X4778396Y-9943674D01*
X4778396Y-9943674D02*
X4797444Y-9953198D01*
X4797444Y-9953198D02*
X4806968Y-9962722D01*
X4806968Y-9962722D02*
X4816491Y-9981770D01*
X4816491Y-9981770D02*
X4816491Y-10029389D01*
X4816491Y-10029389D02*
X4806968Y-10048436D01*
X4806968Y-10048436D02*
X4797444Y-10057960D01*
X4797444Y-10057960D02*
X4778396Y-10067484D01*
X4778396Y-10067484D02*
X4721253Y-10067484D01*
X4721253Y-10067484D02*
X4702206Y-10057960D01*
X4702206Y-10057960D02*
X4692682Y-10048436D01*
X4883158Y-9867484D02*
X5016491Y-9867484D01*
X5016491Y-9867484D02*
X4930777Y-10067484D01*
X5130777Y-9867484D02*
X5149825Y-9867484D01*
X5149825Y-9867484D02*
X5168872Y-9877008D01*
X5168872Y-9877008D02*
X5178396Y-9886531D01*
X5178396Y-9886531D02*
X5187920Y-9905579D01*
X5187920Y-9905579D02*
X5197444Y-9943674D01*
X5197444Y-9943674D02*
X5197444Y-9991293D01*
X5197444Y-9991293D02*
X5187920Y-10029389D01*
X5187920Y-10029389D02*
X5178396Y-10048436D01*
X5178396Y-10048436D02*
X5168872Y-10057960D01*
X5168872Y-10057960D02*
X5149825Y-10067484D01*
X5149825Y-10067484D02*
X5130777Y-10067484D01*
X5130777Y-10067484D02*
X5111729Y-10057960D01*
X5111729Y-10057960D02*
X5102206Y-10048436D01*
X5102206Y-10048436D02*
X5092682Y-10029389D01*
X5092682Y-10029389D02*
X5083158Y-9991293D01*
X5083158Y-9991293D02*
X5083158Y-9943674D01*
X5083158Y-9943674D02*
X5092682Y-9905579D01*
X5092682Y-9905579D02*
X5102206Y-9886531D01*
X5102206Y-9886531D02*
X5111729Y-9877008D01*
X5111729Y-9877008D02*
X5130777Y-9867484D01*
X5273634Y-9867484D02*
X5273634Y-9905579D01*
X5349825Y-9867484D02*
X5349825Y-9905579D01*
X5645063Y-10143674D02*
X5635539Y-10134150D01*
X5635539Y-10134150D02*
X5616491Y-10105579D01*
X5616491Y-10105579D02*
X5606968Y-10086531D01*
X5606968Y-10086531D02*
X5597444Y-10057960D01*
X5597444Y-10057960D02*
X5587920Y-10010341D01*
X5587920Y-10010341D02*
X5587920Y-9972246D01*
X5587920Y-9972246D02*
X5597444Y-9924627D01*
X5597444Y-9924627D02*
X5606968Y-9896055D01*
X5606968Y-9896055D02*
X5616491Y-9877008D01*
X5616491Y-9877008D02*
X5635539Y-9848436D01*
X5635539Y-9848436D02*
X5645063Y-9838912D01*
X5702206Y-9867484D02*
X5826015Y-9867484D01*
X5826015Y-9867484D02*
X5759348Y-9943674D01*
X5759348Y-9943674D02*
X5787920Y-9943674D01*
X5787920Y-9943674D02*
X5806968Y-9953198D01*
X5806968Y-9953198D02*
X5816491Y-9962722D01*
X5816491Y-9962722D02*
X5826015Y-9981770D01*
X5826015Y-9981770D02*
X5826015Y-10029389D01*
X5826015Y-10029389D02*
X5816491Y-10048436D01*
X5816491Y-10048436D02*
X5806968Y-10057960D01*
X5806968Y-10057960D02*
X5787920Y-10067484D01*
X5787920Y-10067484D02*
X5730777Y-10067484D01*
X5730777Y-10067484D02*
X5711729Y-10057960D01*
X5711729Y-10057960D02*
X5702206Y-10048436D01*
X6064110Y-10067484D02*
X6064110Y-9867484D01*
X6149825Y-10067484D02*
X6149825Y-9962722D01*
X6149825Y-9962722D02*
X6140301Y-9943674D01*
X6140301Y-9943674D02*
X6121253Y-9934150D01*
X6121253Y-9934150D02*
X6092682Y-9934150D01*
X6092682Y-9934150D02*
X6073634Y-9943674D01*
X6073634Y-9943674D02*
X6064110Y-9953198D01*
X6273634Y-10067484D02*
X6254587Y-10057960D01*
X6254587Y-10057960D02*
X6245063Y-10048436D01*
X6245063Y-10048436D02*
X6235539Y-10029389D01*
X6235539Y-10029389D02*
X6235539Y-9972246D01*
X6235539Y-9972246D02*
X6245063Y-9953198D01*
X6245063Y-9953198D02*
X6254587Y-9943674D01*
X6254587Y-9943674D02*
X6273634Y-9934150D01*
X6273634Y-9934150D02*
X6302206Y-9934150D01*
X6302206Y-9934150D02*
X6321253Y-9943674D01*
X6321253Y-9943674D02*
X6330777Y-9953198D01*
X6330777Y-9953198D02*
X6340301Y-9972246D01*
X6340301Y-9972246D02*
X6340301Y-10029389D01*
X6340301Y-10029389D02*
X6330777Y-10048436D01*
X6330777Y-10048436D02*
X6321253Y-10057960D01*
X6321253Y-10057960D02*
X6302206Y-10067484D01*
X6302206Y-10067484D02*
X6273634Y-10067484D01*
X6454587Y-10067484D02*
X6435539Y-10057960D01*
X6435539Y-10057960D02*
X6426015Y-10038912D01*
X6426015Y-10038912D02*
X6426015Y-9867484D01*
X6606968Y-10057960D02*
X6587920Y-10067484D01*
X6587920Y-10067484D02*
X6549825Y-10067484D01*
X6549825Y-10067484D02*
X6530777Y-10057960D01*
X6530777Y-10057960D02*
X6521253Y-10038912D01*
X6521253Y-10038912D02*
X6521253Y-9962722D01*
X6521253Y-9962722D02*
X6530777Y-9943674D01*
X6530777Y-9943674D02*
X6549825Y-9934150D01*
X6549825Y-9934150D02*
X6587920Y-9934150D01*
X6587920Y-9934150D02*
X6606968Y-9943674D01*
X6606968Y-9943674D02*
X6616491Y-9962722D01*
X6616491Y-9962722D02*
X6616491Y-9981770D01*
X6616491Y-9981770D02*
X6521253Y-10000817D01*
X6692682Y-10057960D02*
X6711730Y-10067484D01*
X6711730Y-10067484D02*
X6749825Y-10067484D01*
X6749825Y-10067484D02*
X6768872Y-10057960D01*
X6768872Y-10057960D02*
X6778396Y-10038912D01*
X6778396Y-10038912D02*
X6778396Y-10029389D01*
X6778396Y-10029389D02*
X6768872Y-10010341D01*
X6768872Y-10010341D02*
X6749825Y-10000817D01*
X6749825Y-10000817D02*
X6721253Y-10000817D01*
X6721253Y-10000817D02*
X6702206Y-9991293D01*
X6702206Y-9991293D02*
X6692682Y-9972246D01*
X6692682Y-9972246D02*
X6692682Y-9962722D01*
X6692682Y-9962722D02*
X6702206Y-9943674D01*
X6702206Y-9943674D02*
X6721253Y-9934150D01*
X6721253Y-9934150D02*
X6749825Y-9934150D01*
X6749825Y-9934150D02*
X6768872Y-9943674D01*
X6845063Y-10143674D02*
X6854587Y-10134150D01*
X6854587Y-10134150D02*
X6873634Y-10105579D01*
X6873634Y-10105579D02*
X6883158Y-10086531D01*
X6883158Y-10086531D02*
X6892682Y-10057960D01*
X6892682Y-10057960D02*
X6902206Y-10010341D01*
X6902206Y-10010341D02*
X6902206Y-9972246D01*
X6902206Y-9972246D02*
X6892682Y-9924627D01*
X6892682Y-9924627D02*
X6883158Y-9896055D01*
X6883158Y-9896055D02*
X6873634Y-9877008D01*
X6873634Y-9877008D02*
X6854587Y-9848436D01*
X6854587Y-9848436D02*
X6845063Y-9838912D01*
D10*
X1970000Y-10190000D02*
X2070000Y-10290000D01*
X2070000Y-10190000D02*
X1970000Y-10290000D01*
X2070000Y-10240000D02*
G75*
G02*
X1970000Y-10240000I-50000J0D01*
G01*
X1970000Y-10240000D02*
G75*
G02*
X2070000Y-10240000I50000J0D01*
G01*
D11*
X2435539Y-10331484D02*
X2321253Y-10331484D01*
X2378396Y-10331484D02*
X2378396Y-10131484D01*
X2378396Y-10131484D02*
X2359348Y-10160055D01*
X2359348Y-10160055D02*
X2340301Y-10179103D01*
X2340301Y-10179103D02*
X2321253Y-10188627D01*
X2521253Y-10312436D02*
X2530777Y-10321960D01*
X2530777Y-10321960D02*
X2521253Y-10331484D01*
X2521253Y-10331484D02*
X2511729Y-10321960D01*
X2511729Y-10321960D02*
X2521253Y-10312436D01*
X2521253Y-10312436D02*
X2521253Y-10331484D01*
X2654586Y-10131484D02*
X2673634Y-10131484D01*
X2673634Y-10131484D02*
X2692682Y-10141008D01*
X2692682Y-10141008D02*
X2702205Y-10150531D01*
X2702205Y-10150531D02*
X2711729Y-10169579D01*
X2711729Y-10169579D02*
X2721253Y-10207674D01*
X2721253Y-10207674D02*
X2721253Y-10255293D01*
X2721253Y-10255293D02*
X2711729Y-10293389D01*
X2711729Y-10293389D02*
X2702205Y-10312436D01*
X2702205Y-10312436D02*
X2692682Y-10321960D01*
X2692682Y-10321960D02*
X2673634Y-10331484D01*
X2673634Y-10331484D02*
X2654586Y-10331484D01*
X2654586Y-10331484D02*
X2635539Y-10321960D01*
X2635539Y-10321960D02*
X2626015Y-10312436D01*
X2626015Y-10312436D02*
X2616491Y-10293389D01*
X2616491Y-10293389D02*
X2606967Y-10255293D01*
X2606967Y-10255293D02*
X2606967Y-10207674D01*
X2606967Y-10207674D02*
X2616491Y-10169579D01*
X2616491Y-10169579D02*
X2626015Y-10150531D01*
X2626015Y-10150531D02*
X2635539Y-10141008D01*
X2635539Y-10141008D02*
X2654586Y-10131484D01*
X2845062Y-10131484D02*
X2864110Y-10131484D01*
X2864110Y-10131484D02*
X2883158Y-10141008D01*
X2883158Y-10141008D02*
X2892682Y-10150531D01*
X2892682Y-10150531D02*
X2902205Y-10169579D01*
X2902205Y-10169579D02*
X2911729Y-10207674D01*
X2911729Y-10207674D02*
X2911729Y-10255293D01*
X2911729Y-10255293D02*
X2902205Y-10293389D01*
X2902205Y-10293389D02*
X2892682Y-10312436D01*
X2892682Y-10312436D02*
X2883158Y-10321960D01*
X2883158Y-10321960D02*
X2864110Y-10331484D01*
X2864110Y-10331484D02*
X2845062Y-10331484D01*
X2845062Y-10331484D02*
X2826015Y-10321960D01*
X2826015Y-10321960D02*
X2816491Y-10312436D01*
X2816491Y-10312436D02*
X2806967Y-10293389D01*
X2806967Y-10293389D02*
X2797443Y-10255293D01*
X2797443Y-10255293D02*
X2797443Y-10207674D01*
X2797443Y-10207674D02*
X2806967Y-10169579D01*
X2806967Y-10169579D02*
X2816491Y-10150531D01*
X2816491Y-10150531D02*
X2826015Y-10141008D01*
X2826015Y-10141008D02*
X2845062Y-10131484D01*
X3035539Y-10131484D02*
X3054586Y-10131484D01*
X3054586Y-10131484D02*
X3073634Y-10141008D01*
X3073634Y-10141008D02*
X3083158Y-10150531D01*
X3083158Y-10150531D02*
X3092682Y-10169579D01*
X3092682Y-10169579D02*
X3102205Y-10207674D01*
X3102205Y-10207674D02*
X3102205Y-10255293D01*
X3102205Y-10255293D02*
X3092682Y-10293389D01*
X3092682Y-10293389D02*
X3083158Y-10312436D01*
X3083158Y-10312436D02*
X3073634Y-10321960D01*
X3073634Y-10321960D02*
X3054586Y-10331484D01*
X3054586Y-10331484D02*
X3035539Y-10331484D01*
X3035539Y-10331484D02*
X3016491Y-10321960D01*
X3016491Y-10321960D02*
X3006967Y-10312436D01*
X3006967Y-10312436D02*
X2997443Y-10293389D01*
X2997443Y-10293389D02*
X2987920Y-10255293D01*
X2987920Y-10255293D02*
X2987920Y-10207674D01*
X2987920Y-10207674D02*
X2997443Y-10169579D01*
X2997443Y-10169579D02*
X3006967Y-10150531D01*
X3006967Y-10150531D02*
X3016491Y-10141008D01*
X3016491Y-10141008D02*
X3035539Y-10131484D01*
X3187920Y-10331484D02*
X3187920Y-10198150D01*
X3187920Y-10217198D02*
X3197443Y-10207674D01*
X3197443Y-10207674D02*
X3216491Y-10198150D01*
X3216491Y-10198150D02*
X3245063Y-10198150D01*
X3245063Y-10198150D02*
X3264110Y-10207674D01*
X3264110Y-10207674D02*
X3273634Y-10226722D01*
X3273634Y-10226722D02*
X3273634Y-10331484D01*
X3273634Y-10226722D02*
X3283158Y-10207674D01*
X3283158Y-10207674D02*
X3302205Y-10198150D01*
X3302205Y-10198150D02*
X3330777Y-10198150D01*
X3330777Y-10198150D02*
X3349824Y-10207674D01*
X3349824Y-10207674D02*
X3359348Y-10226722D01*
X3359348Y-10226722D02*
X3359348Y-10331484D01*
X3454586Y-10331484D02*
X3454586Y-10198150D01*
X3454586Y-10217198D02*
X3464110Y-10207674D01*
X3464110Y-10207674D02*
X3483158Y-10198150D01*
X3483158Y-10198150D02*
X3511729Y-10198150D01*
X3511729Y-10198150D02*
X3530777Y-10207674D01*
X3530777Y-10207674D02*
X3540301Y-10226722D01*
X3540301Y-10226722D02*
X3540301Y-10331484D01*
X3540301Y-10226722D02*
X3549824Y-10207674D01*
X3549824Y-10207674D02*
X3568872Y-10198150D01*
X3568872Y-10198150D02*
X3597443Y-10198150D01*
X3597443Y-10198150D02*
X3616491Y-10207674D01*
X3616491Y-10207674D02*
X3626015Y-10226722D01*
X3626015Y-10226722D02*
X3626015Y-10331484D01*
X4016491Y-10121960D02*
X3845063Y-10379103D01*
X4273634Y-10131484D02*
X4292682Y-10131484D01*
X4292682Y-10131484D02*
X4311729Y-10141008D01*
X4311729Y-10141008D02*
X4321253Y-10150531D01*
X4321253Y-10150531D02*
X4330777Y-10169579D01*
X4330777Y-10169579D02*
X4340301Y-10207674D01*
X4340301Y-10207674D02*
X4340301Y-10255293D01*
X4340301Y-10255293D02*
X4330777Y-10293389D01*
X4330777Y-10293389D02*
X4321253Y-10312436D01*
X4321253Y-10312436D02*
X4311729Y-10321960D01*
X4311729Y-10321960D02*
X4292682Y-10331484D01*
X4292682Y-10331484D02*
X4273634Y-10331484D01*
X4273634Y-10331484D02*
X4254587Y-10321960D01*
X4254587Y-10321960D02*
X4245063Y-10312436D01*
X4245063Y-10312436D02*
X4235539Y-10293389D01*
X4235539Y-10293389D02*
X4226015Y-10255293D01*
X4226015Y-10255293D02*
X4226015Y-10207674D01*
X4226015Y-10207674D02*
X4235539Y-10169579D01*
X4235539Y-10169579D02*
X4245063Y-10150531D01*
X4245063Y-10150531D02*
X4254587Y-10141008D01*
X4254587Y-10141008D02*
X4273634Y-10131484D01*
X4426015Y-10312436D02*
X4435539Y-10321960D01*
X4435539Y-10321960D02*
X4426015Y-10331484D01*
X4426015Y-10331484D02*
X4416491Y-10321960D01*
X4416491Y-10321960D02*
X4426015Y-10312436D01*
X4426015Y-10312436D02*
X4426015Y-10331484D01*
X4559348Y-10131484D02*
X4578396Y-10131484D01*
X4578396Y-10131484D02*
X4597444Y-10141008D01*
X4597444Y-10141008D02*
X4606968Y-10150531D01*
X4606968Y-10150531D02*
X4616491Y-10169579D01*
X4616491Y-10169579D02*
X4626015Y-10207674D01*
X4626015Y-10207674D02*
X4626015Y-10255293D01*
X4626015Y-10255293D02*
X4616491Y-10293389D01*
X4616491Y-10293389D02*
X4606968Y-10312436D01*
X4606968Y-10312436D02*
X4597444Y-10321960D01*
X4597444Y-10321960D02*
X4578396Y-10331484D01*
X4578396Y-10331484D02*
X4559348Y-10331484D01*
X4559348Y-10331484D02*
X4540301Y-10321960D01*
X4540301Y-10321960D02*
X4530777Y-10312436D01*
X4530777Y-10312436D02*
X4521253Y-10293389D01*
X4521253Y-10293389D02*
X4511729Y-10255293D01*
X4511729Y-10255293D02*
X4511729Y-10207674D01*
X4511729Y-10207674D02*
X4521253Y-10169579D01*
X4521253Y-10169579D02*
X4530777Y-10150531D01*
X4530777Y-10150531D02*
X4540301Y-10141008D01*
X4540301Y-10141008D02*
X4559348Y-10131484D01*
X4692682Y-10131484D02*
X4816491Y-10131484D01*
X4816491Y-10131484D02*
X4749825Y-10207674D01*
X4749825Y-10207674D02*
X4778396Y-10207674D01*
X4778396Y-10207674D02*
X4797444Y-10217198D01*
X4797444Y-10217198D02*
X4806968Y-10226722D01*
X4806968Y-10226722D02*
X4816491Y-10245770D01*
X4816491Y-10245770D02*
X4816491Y-10293389D01*
X4816491Y-10293389D02*
X4806968Y-10312436D01*
X4806968Y-10312436D02*
X4797444Y-10321960D01*
X4797444Y-10321960D02*
X4778396Y-10331484D01*
X4778396Y-10331484D02*
X4721253Y-10331484D01*
X4721253Y-10331484D02*
X4702206Y-10321960D01*
X4702206Y-10321960D02*
X4692682Y-10312436D01*
X4911729Y-10331484D02*
X4949825Y-10331484D01*
X4949825Y-10331484D02*
X4968872Y-10321960D01*
X4968872Y-10321960D02*
X4978396Y-10312436D01*
X4978396Y-10312436D02*
X4997444Y-10283865D01*
X4997444Y-10283865D02*
X5006968Y-10245770D01*
X5006968Y-10245770D02*
X5006968Y-10169579D01*
X5006968Y-10169579D02*
X4997444Y-10150531D01*
X4997444Y-10150531D02*
X4987920Y-10141008D01*
X4987920Y-10141008D02*
X4968872Y-10131484D01*
X4968872Y-10131484D02*
X4930777Y-10131484D01*
X4930777Y-10131484D02*
X4911729Y-10141008D01*
X4911729Y-10141008D02*
X4902206Y-10150531D01*
X4902206Y-10150531D02*
X4892682Y-10169579D01*
X4892682Y-10169579D02*
X4892682Y-10217198D01*
X4892682Y-10217198D02*
X4902206Y-10236246D01*
X4902206Y-10236246D02*
X4911729Y-10245770D01*
X4911729Y-10245770D02*
X4930777Y-10255293D01*
X4930777Y-10255293D02*
X4968872Y-10255293D01*
X4968872Y-10255293D02*
X4987920Y-10245770D01*
X4987920Y-10245770D02*
X4997444Y-10236246D01*
X4997444Y-10236246D02*
X5006968Y-10217198D01*
X5178396Y-10198150D02*
X5178396Y-10331484D01*
X5130777Y-10121960D02*
X5083158Y-10264817D01*
X5083158Y-10264817D02*
X5206968Y-10264817D01*
X5273634Y-10131484D02*
X5273634Y-10169579D01*
X5349825Y-10131484D02*
X5349825Y-10169579D01*
X5645063Y-10407674D02*
X5635539Y-10398150D01*
X5635539Y-10398150D02*
X5616491Y-10369579D01*
X5616491Y-10369579D02*
X5606968Y-10350531D01*
X5606968Y-10350531D02*
X5597444Y-10321960D01*
X5597444Y-10321960D02*
X5587920Y-10274341D01*
X5587920Y-10274341D02*
X5587920Y-10236246D01*
X5587920Y-10236246D02*
X5597444Y-10188627D01*
X5597444Y-10188627D02*
X5606968Y-10160055D01*
X5606968Y-10160055D02*
X5616491Y-10141008D01*
X5616491Y-10141008D02*
X5635539Y-10112436D01*
X5635539Y-10112436D02*
X5645063Y-10102912D01*
X5702206Y-10131484D02*
X5826015Y-10131484D01*
X5826015Y-10131484D02*
X5759348Y-10207674D01*
X5759348Y-10207674D02*
X5787920Y-10207674D01*
X5787920Y-10207674D02*
X5806968Y-10217198D01*
X5806968Y-10217198D02*
X5816491Y-10226722D01*
X5816491Y-10226722D02*
X5826015Y-10245770D01*
X5826015Y-10245770D02*
X5826015Y-10293389D01*
X5826015Y-10293389D02*
X5816491Y-10312436D01*
X5816491Y-10312436D02*
X5806968Y-10321960D01*
X5806968Y-10321960D02*
X5787920Y-10331484D01*
X5787920Y-10331484D02*
X5730777Y-10331484D01*
X5730777Y-10331484D02*
X5711729Y-10321960D01*
X5711729Y-10321960D02*
X5702206Y-10312436D01*
X5997444Y-10131484D02*
X5959348Y-10131484D01*
X5959348Y-10131484D02*
X5940301Y-10141008D01*
X5940301Y-10141008D02*
X5930777Y-10150531D01*
X5930777Y-10150531D02*
X5911729Y-10179103D01*
X5911729Y-10179103D02*
X5902206Y-10217198D01*
X5902206Y-10217198D02*
X5902206Y-10293389D01*
X5902206Y-10293389D02*
X5911729Y-10312436D01*
X5911729Y-10312436D02*
X5921253Y-10321960D01*
X5921253Y-10321960D02*
X5940301Y-10331484D01*
X5940301Y-10331484D02*
X5978396Y-10331484D01*
X5978396Y-10331484D02*
X5997444Y-10321960D01*
X5997444Y-10321960D02*
X6006968Y-10312436D01*
X6006968Y-10312436D02*
X6016491Y-10293389D01*
X6016491Y-10293389D02*
X6016491Y-10245770D01*
X6016491Y-10245770D02*
X6006968Y-10226722D01*
X6006968Y-10226722D02*
X5997444Y-10217198D01*
X5997444Y-10217198D02*
X5978396Y-10207674D01*
X5978396Y-10207674D02*
X5940301Y-10207674D01*
X5940301Y-10207674D02*
X5921253Y-10217198D01*
X5921253Y-10217198D02*
X5911729Y-10226722D01*
X5911729Y-10226722D02*
X5902206Y-10245770D01*
X6254587Y-10331484D02*
X6254587Y-10131484D01*
X6340301Y-10331484D02*
X6340301Y-10226722D01*
X6340301Y-10226722D02*
X6330777Y-10207674D01*
X6330777Y-10207674D02*
X6311730Y-10198150D01*
X6311730Y-10198150D02*
X6283158Y-10198150D01*
X6283158Y-10198150D02*
X6264110Y-10207674D01*
X6264110Y-10207674D02*
X6254587Y-10217198D01*
X6464110Y-10331484D02*
X6445063Y-10321960D01*
X6445063Y-10321960D02*
X6435539Y-10312436D01*
X6435539Y-10312436D02*
X6426015Y-10293389D01*
X6426015Y-10293389D02*
X6426015Y-10236246D01*
X6426015Y-10236246D02*
X6435539Y-10217198D01*
X6435539Y-10217198D02*
X6445063Y-10207674D01*
X6445063Y-10207674D02*
X6464110Y-10198150D01*
X6464110Y-10198150D02*
X6492682Y-10198150D01*
X6492682Y-10198150D02*
X6511730Y-10207674D01*
X6511730Y-10207674D02*
X6521253Y-10217198D01*
X6521253Y-10217198D02*
X6530777Y-10236246D01*
X6530777Y-10236246D02*
X6530777Y-10293389D01*
X6530777Y-10293389D02*
X6521253Y-10312436D01*
X6521253Y-10312436D02*
X6511730Y-10321960D01*
X6511730Y-10321960D02*
X6492682Y-10331484D01*
X6492682Y-10331484D02*
X6464110Y-10331484D01*
X6645063Y-10331484D02*
X6626015Y-10321960D01*
X6626015Y-10321960D02*
X6616491Y-10302912D01*
X6616491Y-10302912D02*
X6616491Y-10131484D01*
X6797444Y-10321960D02*
X6778396Y-10331484D01*
X6778396Y-10331484D02*
X6740301Y-10331484D01*
X6740301Y-10331484D02*
X6721253Y-10321960D01*
X6721253Y-10321960D02*
X6711730Y-10302912D01*
X6711730Y-10302912D02*
X6711730Y-10226722D01*
X6711730Y-10226722D02*
X6721253Y-10207674D01*
X6721253Y-10207674D02*
X6740301Y-10198150D01*
X6740301Y-10198150D02*
X6778396Y-10198150D01*
X6778396Y-10198150D02*
X6797444Y-10207674D01*
X6797444Y-10207674D02*
X6806968Y-10226722D01*
X6806968Y-10226722D02*
X6806968Y-10245770D01*
X6806968Y-10245770D02*
X6711730Y-10264817D01*
X6883158Y-10321960D02*
X6902206Y-10331484D01*
X6902206Y-10331484D02*
X6940301Y-10331484D01*
X6940301Y-10331484D02*
X6959349Y-10321960D01*
X6959349Y-10321960D02*
X6968872Y-10302912D01*
X6968872Y-10302912D02*
X6968872Y-10293389D01*
X6968872Y-10293389D02*
X6959349Y-10274341D01*
X6959349Y-10274341D02*
X6940301Y-10264817D01*
X6940301Y-10264817D02*
X6911730Y-10264817D01*
X6911730Y-10264817D02*
X6892682Y-10255293D01*
X6892682Y-10255293D02*
X6883158Y-10236246D01*
X6883158Y-10236246D02*
X6883158Y-10226722D01*
X6883158Y-10226722D02*
X6892682Y-10207674D01*
X6892682Y-10207674D02*
X6911730Y-10198150D01*
X6911730Y-10198150D02*
X6940301Y-10198150D01*
X6940301Y-10198150D02*
X6959349Y-10207674D01*
X7035539Y-10407674D02*
X7045063Y-10398150D01*
X7045063Y-10398150D02*
X7064111Y-10369579D01*
X7064111Y-10369579D02*
X7073634Y-10350531D01*
X7073634Y-10350531D02*
X7083158Y-10321960D01*
X7083158Y-10321960D02*
X7092682Y-10274341D01*
X7092682Y-10274341D02*
X7092682Y-10236246D01*
X7092682Y-10236246D02*
X7083158Y-10188627D01*
X7083158Y-10188627D02*
X7073634Y-10160055D01*
X7073634Y-10160055D02*
X7064111Y-10141008D01*
X7064111Y-10141008D02*
X7045063Y-10112436D01*
X7045063Y-10112436D02*
X7035539Y-10102912D01*
D12*
X1900000Y-10419000D02*
X2070000Y-10589000D01*
X2070000Y-10419000D02*
X1900000Y-10589000D01*
X1985000Y-10419000D02*
X1985000Y-10589000D01*
X1900000Y-10504000D02*
X2070000Y-10504000D01*
D11*
X2435539Y-10595484D02*
X2321253Y-10595484D01*
X2378396Y-10595484D02*
X2378396Y-10395484D01*
X2378396Y-10395484D02*
X2359348Y-10424055D01*
X2359348Y-10424055D02*
X2340301Y-10443103D01*
X2340301Y-10443103D02*
X2321253Y-10452627D01*
X2521253Y-10576436D02*
X2530777Y-10585960D01*
X2530777Y-10585960D02*
X2521253Y-10595484D01*
X2521253Y-10595484D02*
X2511729Y-10585960D01*
X2511729Y-10585960D02*
X2521253Y-10576436D01*
X2521253Y-10576436D02*
X2521253Y-10595484D01*
X2597444Y-10395484D02*
X2730777Y-10395484D01*
X2730777Y-10395484D02*
X2645063Y-10595484D01*
X2845062Y-10395484D02*
X2864110Y-10395484D01*
X2864110Y-10395484D02*
X2883158Y-10405008D01*
X2883158Y-10405008D02*
X2892682Y-10414531D01*
X2892682Y-10414531D02*
X2902205Y-10433579D01*
X2902205Y-10433579D02*
X2911729Y-10471674D01*
X2911729Y-10471674D02*
X2911729Y-10519293D01*
X2911729Y-10519293D02*
X2902205Y-10557389D01*
X2902205Y-10557389D02*
X2892682Y-10576436D01*
X2892682Y-10576436D02*
X2883158Y-10585960D01*
X2883158Y-10585960D02*
X2864110Y-10595484D01*
X2864110Y-10595484D02*
X2845062Y-10595484D01*
X2845062Y-10595484D02*
X2826015Y-10585960D01*
X2826015Y-10585960D02*
X2816491Y-10576436D01*
X2816491Y-10576436D02*
X2806967Y-10557389D01*
X2806967Y-10557389D02*
X2797443Y-10519293D01*
X2797443Y-10519293D02*
X2797443Y-10471674D01*
X2797443Y-10471674D02*
X2806967Y-10433579D01*
X2806967Y-10433579D02*
X2816491Y-10414531D01*
X2816491Y-10414531D02*
X2826015Y-10405008D01*
X2826015Y-10405008D02*
X2845062Y-10395484D01*
X3035539Y-10395484D02*
X3054586Y-10395484D01*
X3054586Y-10395484D02*
X3073634Y-10405008D01*
X3073634Y-10405008D02*
X3083158Y-10414531D01*
X3083158Y-10414531D02*
X3092682Y-10433579D01*
X3092682Y-10433579D02*
X3102205Y-10471674D01*
X3102205Y-10471674D02*
X3102205Y-10519293D01*
X3102205Y-10519293D02*
X3092682Y-10557389D01*
X3092682Y-10557389D02*
X3083158Y-10576436D01*
X3083158Y-10576436D02*
X3073634Y-10585960D01*
X3073634Y-10585960D02*
X3054586Y-10595484D01*
X3054586Y-10595484D02*
X3035539Y-10595484D01*
X3035539Y-10595484D02*
X3016491Y-10585960D01*
X3016491Y-10585960D02*
X3006967Y-10576436D01*
X3006967Y-10576436D02*
X2997443Y-10557389D01*
X2997443Y-10557389D02*
X2987920Y-10519293D01*
X2987920Y-10519293D02*
X2987920Y-10471674D01*
X2987920Y-10471674D02*
X2997443Y-10433579D01*
X2997443Y-10433579D02*
X3006967Y-10414531D01*
X3006967Y-10414531D02*
X3016491Y-10405008D01*
X3016491Y-10405008D02*
X3035539Y-10395484D01*
X3187920Y-10595484D02*
X3187920Y-10462150D01*
X3187920Y-10481198D02*
X3197443Y-10471674D01*
X3197443Y-10471674D02*
X3216491Y-10462150D01*
X3216491Y-10462150D02*
X3245063Y-10462150D01*
X3245063Y-10462150D02*
X3264110Y-10471674D01*
X3264110Y-10471674D02*
X3273634Y-10490722D01*
X3273634Y-10490722D02*
X3273634Y-10595484D01*
X3273634Y-10490722D02*
X3283158Y-10471674D01*
X3283158Y-10471674D02*
X3302205Y-10462150D01*
X3302205Y-10462150D02*
X3330777Y-10462150D01*
X3330777Y-10462150D02*
X3349824Y-10471674D01*
X3349824Y-10471674D02*
X3359348Y-10490722D01*
X3359348Y-10490722D02*
X3359348Y-10595484D01*
X3454586Y-10595484D02*
X3454586Y-10462150D01*
X3454586Y-10481198D02*
X3464110Y-10471674D01*
X3464110Y-10471674D02*
X3483158Y-10462150D01*
X3483158Y-10462150D02*
X3511729Y-10462150D01*
X3511729Y-10462150D02*
X3530777Y-10471674D01*
X3530777Y-10471674D02*
X3540301Y-10490722D01*
X3540301Y-10490722D02*
X3540301Y-10595484D01*
X3540301Y-10490722D02*
X3549824Y-10471674D01*
X3549824Y-10471674D02*
X3568872Y-10462150D01*
X3568872Y-10462150D02*
X3597443Y-10462150D01*
X3597443Y-10462150D02*
X3616491Y-10471674D01*
X3616491Y-10471674D02*
X3626015Y-10490722D01*
X3626015Y-10490722D02*
X3626015Y-10595484D01*
X4016491Y-10385960D02*
X3845063Y-10643103D01*
X4273634Y-10395484D02*
X4292682Y-10395484D01*
X4292682Y-10395484D02*
X4311729Y-10405008D01*
X4311729Y-10405008D02*
X4321253Y-10414531D01*
X4321253Y-10414531D02*
X4330777Y-10433579D01*
X4330777Y-10433579D02*
X4340301Y-10471674D01*
X4340301Y-10471674D02*
X4340301Y-10519293D01*
X4340301Y-10519293D02*
X4330777Y-10557389D01*
X4330777Y-10557389D02*
X4321253Y-10576436D01*
X4321253Y-10576436D02*
X4311729Y-10585960D01*
X4311729Y-10585960D02*
X4292682Y-10595484D01*
X4292682Y-10595484D02*
X4273634Y-10595484D01*
X4273634Y-10595484D02*
X4254587Y-10585960D01*
X4254587Y-10585960D02*
X4245063Y-10576436D01*
X4245063Y-10576436D02*
X4235539Y-10557389D01*
X4235539Y-10557389D02*
X4226015Y-10519293D01*
X4226015Y-10519293D02*
X4226015Y-10471674D01*
X4226015Y-10471674D02*
X4235539Y-10433579D01*
X4235539Y-10433579D02*
X4245063Y-10414531D01*
X4245063Y-10414531D02*
X4254587Y-10405008D01*
X4254587Y-10405008D02*
X4273634Y-10395484D01*
X4426015Y-10576436D02*
X4435539Y-10585960D01*
X4435539Y-10585960D02*
X4426015Y-10595484D01*
X4426015Y-10595484D02*
X4416491Y-10585960D01*
X4416491Y-10585960D02*
X4426015Y-10576436D01*
X4426015Y-10576436D02*
X4426015Y-10595484D01*
X4559348Y-10395484D02*
X4578396Y-10395484D01*
X4578396Y-10395484D02*
X4597444Y-10405008D01*
X4597444Y-10405008D02*
X4606968Y-10414531D01*
X4606968Y-10414531D02*
X4616491Y-10433579D01*
X4616491Y-10433579D02*
X4626015Y-10471674D01*
X4626015Y-10471674D02*
X4626015Y-10519293D01*
X4626015Y-10519293D02*
X4616491Y-10557389D01*
X4616491Y-10557389D02*
X4606968Y-10576436D01*
X4606968Y-10576436D02*
X4597444Y-10585960D01*
X4597444Y-10585960D02*
X4578396Y-10595484D01*
X4578396Y-10595484D02*
X4559348Y-10595484D01*
X4559348Y-10595484D02*
X4540301Y-10585960D01*
X4540301Y-10585960D02*
X4530777Y-10576436D01*
X4530777Y-10576436D02*
X4521253Y-10557389D01*
X4521253Y-10557389D02*
X4511729Y-10519293D01*
X4511729Y-10519293D02*
X4511729Y-10471674D01*
X4511729Y-10471674D02*
X4521253Y-10433579D01*
X4521253Y-10433579D02*
X4530777Y-10414531D01*
X4530777Y-10414531D02*
X4540301Y-10405008D01*
X4540301Y-10405008D02*
X4559348Y-10395484D01*
X4797444Y-10395484D02*
X4759348Y-10395484D01*
X4759348Y-10395484D02*
X4740301Y-10405008D01*
X4740301Y-10405008D02*
X4730777Y-10414531D01*
X4730777Y-10414531D02*
X4711729Y-10443103D01*
X4711729Y-10443103D02*
X4702206Y-10481198D01*
X4702206Y-10481198D02*
X4702206Y-10557389D01*
X4702206Y-10557389D02*
X4711729Y-10576436D01*
X4711729Y-10576436D02*
X4721253Y-10585960D01*
X4721253Y-10585960D02*
X4740301Y-10595484D01*
X4740301Y-10595484D02*
X4778396Y-10595484D01*
X4778396Y-10595484D02*
X4797444Y-10585960D01*
X4797444Y-10585960D02*
X4806968Y-10576436D01*
X4806968Y-10576436D02*
X4816491Y-10557389D01*
X4816491Y-10557389D02*
X4816491Y-10509770D01*
X4816491Y-10509770D02*
X4806968Y-10490722D01*
X4806968Y-10490722D02*
X4797444Y-10481198D01*
X4797444Y-10481198D02*
X4778396Y-10471674D01*
X4778396Y-10471674D02*
X4740301Y-10471674D01*
X4740301Y-10471674D02*
X4721253Y-10481198D01*
X4721253Y-10481198D02*
X4711729Y-10490722D01*
X4711729Y-10490722D02*
X4702206Y-10509770D01*
X4987920Y-10395484D02*
X4949825Y-10395484D01*
X4949825Y-10395484D02*
X4930777Y-10405008D01*
X4930777Y-10405008D02*
X4921253Y-10414531D01*
X4921253Y-10414531D02*
X4902206Y-10443103D01*
X4902206Y-10443103D02*
X4892682Y-10481198D01*
X4892682Y-10481198D02*
X4892682Y-10557389D01*
X4892682Y-10557389D02*
X4902206Y-10576436D01*
X4902206Y-10576436D02*
X4911729Y-10585960D01*
X4911729Y-10585960D02*
X4930777Y-10595484D01*
X4930777Y-10595484D02*
X4968872Y-10595484D01*
X4968872Y-10595484D02*
X4987920Y-10585960D01*
X4987920Y-10585960D02*
X4997444Y-10576436D01*
X4997444Y-10576436D02*
X5006968Y-10557389D01*
X5006968Y-10557389D02*
X5006968Y-10509770D01*
X5006968Y-10509770D02*
X4997444Y-10490722D01*
X4997444Y-10490722D02*
X4987920Y-10481198D01*
X4987920Y-10481198D02*
X4968872Y-10471674D01*
X4968872Y-10471674D02*
X4930777Y-10471674D01*
X4930777Y-10471674D02*
X4911729Y-10481198D01*
X4911729Y-10481198D02*
X4902206Y-10490722D01*
X4902206Y-10490722D02*
X4892682Y-10509770D01*
X5102206Y-10595484D02*
X5140301Y-10595484D01*
X5140301Y-10595484D02*
X5159349Y-10585960D01*
X5159349Y-10585960D02*
X5168872Y-10576436D01*
X5168872Y-10576436D02*
X5187920Y-10547865D01*
X5187920Y-10547865D02*
X5197444Y-10509770D01*
X5197444Y-10509770D02*
X5197444Y-10433579D01*
X5197444Y-10433579D02*
X5187920Y-10414531D01*
X5187920Y-10414531D02*
X5178396Y-10405008D01*
X5178396Y-10405008D02*
X5159349Y-10395484D01*
X5159349Y-10395484D02*
X5121253Y-10395484D01*
X5121253Y-10395484D02*
X5102206Y-10405008D01*
X5102206Y-10405008D02*
X5092682Y-10414531D01*
X5092682Y-10414531D02*
X5083158Y-10433579D01*
X5083158Y-10433579D02*
X5083158Y-10481198D01*
X5083158Y-10481198D02*
X5092682Y-10500246D01*
X5092682Y-10500246D02*
X5102206Y-10509770D01*
X5102206Y-10509770D02*
X5121253Y-10519293D01*
X5121253Y-10519293D02*
X5159349Y-10519293D01*
X5159349Y-10519293D02*
X5178396Y-10509770D01*
X5178396Y-10509770D02*
X5187920Y-10500246D01*
X5187920Y-10500246D02*
X5197444Y-10481198D01*
X5273634Y-10395484D02*
X5273634Y-10433579D01*
X5349825Y-10395484D02*
X5349825Y-10433579D01*
X5645063Y-10671674D02*
X5635539Y-10662150D01*
X5635539Y-10662150D02*
X5616491Y-10633579D01*
X5616491Y-10633579D02*
X5606968Y-10614531D01*
X5606968Y-10614531D02*
X5597444Y-10585960D01*
X5597444Y-10585960D02*
X5587920Y-10538341D01*
X5587920Y-10538341D02*
X5587920Y-10500246D01*
X5587920Y-10500246D02*
X5597444Y-10452627D01*
X5597444Y-10452627D02*
X5606968Y-10424055D01*
X5606968Y-10424055D02*
X5616491Y-10405008D01*
X5616491Y-10405008D02*
X5635539Y-10376436D01*
X5635539Y-10376436D02*
X5645063Y-10366912D01*
X5816491Y-10395484D02*
X5721253Y-10395484D01*
X5721253Y-10395484D02*
X5711729Y-10490722D01*
X5711729Y-10490722D02*
X5721253Y-10481198D01*
X5721253Y-10481198D02*
X5740301Y-10471674D01*
X5740301Y-10471674D02*
X5787920Y-10471674D01*
X5787920Y-10471674D02*
X5806968Y-10481198D01*
X5806968Y-10481198D02*
X5816491Y-10490722D01*
X5816491Y-10490722D02*
X5826015Y-10509770D01*
X5826015Y-10509770D02*
X5826015Y-10557389D01*
X5826015Y-10557389D02*
X5816491Y-10576436D01*
X5816491Y-10576436D02*
X5806968Y-10585960D01*
X5806968Y-10585960D02*
X5787920Y-10595484D01*
X5787920Y-10595484D02*
X5740301Y-10595484D01*
X5740301Y-10595484D02*
X5721253Y-10585960D01*
X5721253Y-10585960D02*
X5711729Y-10576436D01*
X6064110Y-10595484D02*
X6064110Y-10395484D01*
X6149825Y-10595484D02*
X6149825Y-10490722D01*
X6149825Y-10490722D02*
X6140301Y-10471674D01*
X6140301Y-10471674D02*
X6121253Y-10462150D01*
X6121253Y-10462150D02*
X6092682Y-10462150D01*
X6092682Y-10462150D02*
X6073634Y-10471674D01*
X6073634Y-10471674D02*
X6064110Y-10481198D01*
X6273634Y-10595484D02*
X6254587Y-10585960D01*
X6254587Y-10585960D02*
X6245063Y-10576436D01*
X6245063Y-10576436D02*
X6235539Y-10557389D01*
X6235539Y-10557389D02*
X6235539Y-10500246D01*
X6235539Y-10500246D02*
X6245063Y-10481198D01*
X6245063Y-10481198D02*
X6254587Y-10471674D01*
X6254587Y-10471674D02*
X6273634Y-10462150D01*
X6273634Y-10462150D02*
X6302206Y-10462150D01*
X6302206Y-10462150D02*
X6321253Y-10471674D01*
X6321253Y-10471674D02*
X6330777Y-10481198D01*
X6330777Y-10481198D02*
X6340301Y-10500246D01*
X6340301Y-10500246D02*
X6340301Y-10557389D01*
X6340301Y-10557389D02*
X6330777Y-10576436D01*
X6330777Y-10576436D02*
X6321253Y-10585960D01*
X6321253Y-10585960D02*
X6302206Y-10595484D01*
X6302206Y-10595484D02*
X6273634Y-10595484D01*
X6454587Y-10595484D02*
X6435539Y-10585960D01*
X6435539Y-10585960D02*
X6426015Y-10566912D01*
X6426015Y-10566912D02*
X6426015Y-10395484D01*
X6606968Y-10585960D02*
X6587920Y-10595484D01*
X6587920Y-10595484D02*
X6549825Y-10595484D01*
X6549825Y-10595484D02*
X6530777Y-10585960D01*
X6530777Y-10585960D02*
X6521253Y-10566912D01*
X6521253Y-10566912D02*
X6521253Y-10490722D01*
X6521253Y-10490722D02*
X6530777Y-10471674D01*
X6530777Y-10471674D02*
X6549825Y-10462150D01*
X6549825Y-10462150D02*
X6587920Y-10462150D01*
X6587920Y-10462150D02*
X6606968Y-10471674D01*
X6606968Y-10471674D02*
X6616491Y-10490722D01*
X6616491Y-10490722D02*
X6616491Y-10509770D01*
X6616491Y-10509770D02*
X6521253Y-10528817D01*
X6692682Y-10585960D02*
X6711730Y-10595484D01*
X6711730Y-10595484D02*
X6749825Y-10595484D01*
X6749825Y-10595484D02*
X6768872Y-10585960D01*
X6768872Y-10585960D02*
X6778396Y-10566912D01*
X6778396Y-10566912D02*
X6778396Y-10557389D01*
X6778396Y-10557389D02*
X6768872Y-10538341D01*
X6768872Y-10538341D02*
X6749825Y-10528817D01*
X6749825Y-10528817D02*
X6721253Y-10528817D01*
X6721253Y-10528817D02*
X6702206Y-10519293D01*
X6702206Y-10519293D02*
X6692682Y-10500246D01*
X6692682Y-10500246D02*
X6692682Y-10490722D01*
X6692682Y-10490722D02*
X6702206Y-10471674D01*
X6702206Y-10471674D02*
X6721253Y-10462150D01*
X6721253Y-10462150D02*
X6749825Y-10462150D01*
X6749825Y-10462150D02*
X6768872Y-10471674D01*
X6845063Y-10671674D02*
X6854587Y-10662150D01*
X6854587Y-10662150D02*
X6873634Y-10633579D01*
X6873634Y-10633579D02*
X6883158Y-10614531D01*
X6883158Y-10614531D02*
X6892682Y-10585960D01*
X6892682Y-10585960D02*
X6902206Y-10538341D01*
X6902206Y-10538341D02*
X6902206Y-10500246D01*
X6902206Y-10500246D02*
X6892682Y-10452627D01*
X6892682Y-10452627D02*
X6883158Y-10424055D01*
X6883158Y-10424055D02*
X6873634Y-10405008D01*
X6873634Y-10405008D02*
X6854587Y-10376436D01*
X6854587Y-10376436D02*
X6845063Y-10366912D01*
X1870000Y-10694000D02*
X2070000Y-10894000D01*
X2070000Y-10694000D02*
X1870000Y-10894000D01*
X2040711Y-10864711D02*
X2040711Y-10723289D01*
X1899289Y-10723289D01*
X1899289Y-10864711D01*
X2040711Y-10864711D01*
X2321253Y-10704531D02*
X2330777Y-10695008D01*
X2330777Y-10695008D02*
X2349824Y-10685484D01*
X2349824Y-10685484D02*
X2397444Y-10685484D01*
X2397444Y-10685484D02*
X2416491Y-10695008D01*
X2416491Y-10695008D02*
X2426015Y-10704531D01*
X2426015Y-10704531D02*
X2435539Y-10723579D01*
X2435539Y-10723579D02*
X2435539Y-10742627D01*
X2435539Y-10742627D02*
X2426015Y-10771198D01*
X2426015Y-10771198D02*
X2311729Y-10885484D01*
X2311729Y-10885484D02*
X2435539Y-10885484D01*
X2521253Y-10866436D02*
X2530777Y-10875960D01*
X2530777Y-10875960D02*
X2521253Y-10885484D01*
X2521253Y-10885484D02*
X2511729Y-10875960D01*
X2511729Y-10875960D02*
X2521253Y-10866436D01*
X2521253Y-10866436D02*
X2521253Y-10885484D01*
X2606967Y-10704531D02*
X2616491Y-10695008D01*
X2616491Y-10695008D02*
X2635539Y-10685484D01*
X2635539Y-10685484D02*
X2683158Y-10685484D01*
X2683158Y-10685484D02*
X2702205Y-10695008D01*
X2702205Y-10695008D02*
X2711729Y-10704531D01*
X2711729Y-10704531D02*
X2721253Y-10723579D01*
X2721253Y-10723579D02*
X2721253Y-10742627D01*
X2721253Y-10742627D02*
X2711729Y-10771198D01*
X2711729Y-10771198D02*
X2597444Y-10885484D01*
X2597444Y-10885484D02*
X2721253Y-10885484D01*
X2845062Y-10685484D02*
X2864110Y-10685484D01*
X2864110Y-10685484D02*
X2883158Y-10695008D01*
X2883158Y-10695008D02*
X2892682Y-10704531D01*
X2892682Y-10704531D02*
X2902205Y-10723579D01*
X2902205Y-10723579D02*
X2911729Y-10761674D01*
X2911729Y-10761674D02*
X2911729Y-10809293D01*
X2911729Y-10809293D02*
X2902205Y-10847389D01*
X2902205Y-10847389D02*
X2892682Y-10866436D01*
X2892682Y-10866436D02*
X2883158Y-10875960D01*
X2883158Y-10875960D02*
X2864110Y-10885484D01*
X2864110Y-10885484D02*
X2845062Y-10885484D01*
X2845062Y-10885484D02*
X2826015Y-10875960D01*
X2826015Y-10875960D02*
X2816491Y-10866436D01*
X2816491Y-10866436D02*
X2806967Y-10847389D01*
X2806967Y-10847389D02*
X2797443Y-10809293D01*
X2797443Y-10809293D02*
X2797443Y-10761674D01*
X2797443Y-10761674D02*
X2806967Y-10723579D01*
X2806967Y-10723579D02*
X2816491Y-10704531D01*
X2816491Y-10704531D02*
X2826015Y-10695008D01*
X2826015Y-10695008D02*
X2845062Y-10685484D01*
X3035539Y-10685484D02*
X3054586Y-10685484D01*
X3054586Y-10685484D02*
X3073634Y-10695008D01*
X3073634Y-10695008D02*
X3083158Y-10704531D01*
X3083158Y-10704531D02*
X3092682Y-10723579D01*
X3092682Y-10723579D02*
X3102205Y-10761674D01*
X3102205Y-10761674D02*
X3102205Y-10809293D01*
X3102205Y-10809293D02*
X3092682Y-10847389D01*
X3092682Y-10847389D02*
X3083158Y-10866436D01*
X3083158Y-10866436D02*
X3073634Y-10875960D01*
X3073634Y-10875960D02*
X3054586Y-10885484D01*
X3054586Y-10885484D02*
X3035539Y-10885484D01*
X3035539Y-10885484D02*
X3016491Y-10875960D01*
X3016491Y-10875960D02*
X3006967Y-10866436D01*
X3006967Y-10866436D02*
X2997443Y-10847389D01*
X2997443Y-10847389D02*
X2987920Y-10809293D01*
X2987920Y-10809293D02*
X2987920Y-10761674D01*
X2987920Y-10761674D02*
X2997443Y-10723579D01*
X2997443Y-10723579D02*
X3006967Y-10704531D01*
X3006967Y-10704531D02*
X3016491Y-10695008D01*
X3016491Y-10695008D02*
X3035539Y-10685484D01*
X3187920Y-10885484D02*
X3187920Y-10752150D01*
X3187920Y-10771198D02*
X3197443Y-10761674D01*
X3197443Y-10761674D02*
X3216491Y-10752150D01*
X3216491Y-10752150D02*
X3245063Y-10752150D01*
X3245063Y-10752150D02*
X3264110Y-10761674D01*
X3264110Y-10761674D02*
X3273634Y-10780722D01*
X3273634Y-10780722D02*
X3273634Y-10885484D01*
X3273634Y-10780722D02*
X3283158Y-10761674D01*
X3283158Y-10761674D02*
X3302205Y-10752150D01*
X3302205Y-10752150D02*
X3330777Y-10752150D01*
X3330777Y-10752150D02*
X3349824Y-10761674D01*
X3349824Y-10761674D02*
X3359348Y-10780722D01*
X3359348Y-10780722D02*
X3359348Y-10885484D01*
X3454586Y-10885484D02*
X3454586Y-10752150D01*
X3454586Y-10771198D02*
X3464110Y-10761674D01*
X3464110Y-10761674D02*
X3483158Y-10752150D01*
X3483158Y-10752150D02*
X3511729Y-10752150D01*
X3511729Y-10752150D02*
X3530777Y-10761674D01*
X3530777Y-10761674D02*
X3540301Y-10780722D01*
X3540301Y-10780722D02*
X3540301Y-10885484D01*
X3540301Y-10780722D02*
X3549824Y-10761674D01*
X3549824Y-10761674D02*
X3568872Y-10752150D01*
X3568872Y-10752150D02*
X3597443Y-10752150D01*
X3597443Y-10752150D02*
X3616491Y-10761674D01*
X3616491Y-10761674D02*
X3626015Y-10780722D01*
X3626015Y-10780722D02*
X3626015Y-10885484D01*
X4016491Y-10675960D02*
X3845063Y-10933103D01*
X4273634Y-10685484D02*
X4292682Y-10685484D01*
X4292682Y-10685484D02*
X4311729Y-10695008D01*
X4311729Y-10695008D02*
X4321253Y-10704531D01*
X4321253Y-10704531D02*
X4330777Y-10723579D01*
X4330777Y-10723579D02*
X4340301Y-10761674D01*
X4340301Y-10761674D02*
X4340301Y-10809293D01*
X4340301Y-10809293D02*
X4330777Y-10847389D01*
X4330777Y-10847389D02*
X4321253Y-10866436D01*
X4321253Y-10866436D02*
X4311729Y-10875960D01*
X4311729Y-10875960D02*
X4292682Y-10885484D01*
X4292682Y-10885484D02*
X4273634Y-10885484D01*
X4273634Y-10885484D02*
X4254587Y-10875960D01*
X4254587Y-10875960D02*
X4245063Y-10866436D01*
X4245063Y-10866436D02*
X4235539Y-10847389D01*
X4235539Y-10847389D02*
X4226015Y-10809293D01*
X4226015Y-10809293D02*
X4226015Y-10761674D01*
X4226015Y-10761674D02*
X4235539Y-10723579D01*
X4235539Y-10723579D02*
X4245063Y-10704531D01*
X4245063Y-10704531D02*
X4254587Y-10695008D01*
X4254587Y-10695008D02*
X4273634Y-10685484D01*
X4426015Y-10866436D02*
X4435539Y-10875960D01*
X4435539Y-10875960D02*
X4426015Y-10885484D01*
X4426015Y-10885484D02*
X4416491Y-10875960D01*
X4416491Y-10875960D02*
X4426015Y-10866436D01*
X4426015Y-10866436D02*
X4426015Y-10885484D01*
X4559348Y-10685484D02*
X4578396Y-10685484D01*
X4578396Y-10685484D02*
X4597444Y-10695008D01*
X4597444Y-10695008D02*
X4606968Y-10704531D01*
X4606968Y-10704531D02*
X4616491Y-10723579D01*
X4616491Y-10723579D02*
X4626015Y-10761674D01*
X4626015Y-10761674D02*
X4626015Y-10809293D01*
X4626015Y-10809293D02*
X4616491Y-10847389D01*
X4616491Y-10847389D02*
X4606968Y-10866436D01*
X4606968Y-10866436D02*
X4597444Y-10875960D01*
X4597444Y-10875960D02*
X4578396Y-10885484D01*
X4578396Y-10885484D02*
X4559348Y-10885484D01*
X4559348Y-10885484D02*
X4540301Y-10875960D01*
X4540301Y-10875960D02*
X4530777Y-10866436D01*
X4530777Y-10866436D02*
X4521253Y-10847389D01*
X4521253Y-10847389D02*
X4511729Y-10809293D01*
X4511729Y-10809293D02*
X4511729Y-10761674D01*
X4511729Y-10761674D02*
X4521253Y-10723579D01*
X4521253Y-10723579D02*
X4530777Y-10704531D01*
X4530777Y-10704531D02*
X4540301Y-10695008D01*
X4540301Y-10695008D02*
X4559348Y-10685484D01*
X4740301Y-10771198D02*
X4721253Y-10761674D01*
X4721253Y-10761674D02*
X4711729Y-10752150D01*
X4711729Y-10752150D02*
X4702206Y-10733103D01*
X4702206Y-10733103D02*
X4702206Y-10723579D01*
X4702206Y-10723579D02*
X4711729Y-10704531D01*
X4711729Y-10704531D02*
X4721253Y-10695008D01*
X4721253Y-10695008D02*
X4740301Y-10685484D01*
X4740301Y-10685484D02*
X4778396Y-10685484D01*
X4778396Y-10685484D02*
X4797444Y-10695008D01*
X4797444Y-10695008D02*
X4806968Y-10704531D01*
X4806968Y-10704531D02*
X4816491Y-10723579D01*
X4816491Y-10723579D02*
X4816491Y-10733103D01*
X4816491Y-10733103D02*
X4806968Y-10752150D01*
X4806968Y-10752150D02*
X4797444Y-10761674D01*
X4797444Y-10761674D02*
X4778396Y-10771198D01*
X4778396Y-10771198D02*
X4740301Y-10771198D01*
X4740301Y-10771198D02*
X4721253Y-10780722D01*
X4721253Y-10780722D02*
X4711729Y-10790246D01*
X4711729Y-10790246D02*
X4702206Y-10809293D01*
X4702206Y-10809293D02*
X4702206Y-10847389D01*
X4702206Y-10847389D02*
X4711729Y-10866436D01*
X4711729Y-10866436D02*
X4721253Y-10875960D01*
X4721253Y-10875960D02*
X4740301Y-10885484D01*
X4740301Y-10885484D02*
X4778396Y-10885484D01*
X4778396Y-10885484D02*
X4797444Y-10875960D01*
X4797444Y-10875960D02*
X4806968Y-10866436D01*
X4806968Y-10866436D02*
X4816491Y-10847389D01*
X4816491Y-10847389D02*
X4816491Y-10809293D01*
X4816491Y-10809293D02*
X4806968Y-10790246D01*
X4806968Y-10790246D02*
X4797444Y-10780722D01*
X4797444Y-10780722D02*
X4778396Y-10771198D01*
X4987920Y-10685484D02*
X4949825Y-10685484D01*
X4949825Y-10685484D02*
X4930777Y-10695008D01*
X4930777Y-10695008D02*
X4921253Y-10704531D01*
X4921253Y-10704531D02*
X4902206Y-10733103D01*
X4902206Y-10733103D02*
X4892682Y-10771198D01*
X4892682Y-10771198D02*
X4892682Y-10847389D01*
X4892682Y-10847389D02*
X4902206Y-10866436D01*
X4902206Y-10866436D02*
X4911729Y-10875960D01*
X4911729Y-10875960D02*
X4930777Y-10885484D01*
X4930777Y-10885484D02*
X4968872Y-10885484D01*
X4968872Y-10885484D02*
X4987920Y-10875960D01*
X4987920Y-10875960D02*
X4997444Y-10866436D01*
X4997444Y-10866436D02*
X5006968Y-10847389D01*
X5006968Y-10847389D02*
X5006968Y-10799770D01*
X5006968Y-10799770D02*
X4997444Y-10780722D01*
X4997444Y-10780722D02*
X4987920Y-10771198D01*
X4987920Y-10771198D02*
X4968872Y-10761674D01*
X4968872Y-10761674D02*
X4930777Y-10761674D01*
X4930777Y-10761674D02*
X4911729Y-10771198D01*
X4911729Y-10771198D02*
X4902206Y-10780722D01*
X4902206Y-10780722D02*
X4892682Y-10799770D01*
X5178396Y-10685484D02*
X5140301Y-10685484D01*
X5140301Y-10685484D02*
X5121253Y-10695008D01*
X5121253Y-10695008D02*
X5111729Y-10704531D01*
X5111729Y-10704531D02*
X5092682Y-10733103D01*
X5092682Y-10733103D02*
X5083158Y-10771198D01*
X5083158Y-10771198D02*
X5083158Y-10847389D01*
X5083158Y-10847389D02*
X5092682Y-10866436D01*
X5092682Y-10866436D02*
X5102206Y-10875960D01*
X5102206Y-10875960D02*
X5121253Y-10885484D01*
X5121253Y-10885484D02*
X5159349Y-10885484D01*
X5159349Y-10885484D02*
X5178396Y-10875960D01*
X5178396Y-10875960D02*
X5187920Y-10866436D01*
X5187920Y-10866436D02*
X5197444Y-10847389D01*
X5197444Y-10847389D02*
X5197444Y-10799770D01*
X5197444Y-10799770D02*
X5187920Y-10780722D01*
X5187920Y-10780722D02*
X5178396Y-10771198D01*
X5178396Y-10771198D02*
X5159349Y-10761674D01*
X5159349Y-10761674D02*
X5121253Y-10761674D01*
X5121253Y-10761674D02*
X5102206Y-10771198D01*
X5102206Y-10771198D02*
X5092682Y-10780722D01*
X5092682Y-10780722D02*
X5083158Y-10799770D01*
X5273634Y-10685484D02*
X5273634Y-10723579D01*
X5349825Y-10685484D02*
X5349825Y-10723579D01*
X5645063Y-10961674D02*
X5635539Y-10952150D01*
X5635539Y-10952150D02*
X5616491Y-10923579D01*
X5616491Y-10923579D02*
X5606968Y-10904531D01*
X5606968Y-10904531D02*
X5597444Y-10875960D01*
X5597444Y-10875960D02*
X5587920Y-10828341D01*
X5587920Y-10828341D02*
X5587920Y-10790246D01*
X5587920Y-10790246D02*
X5597444Y-10742627D01*
X5597444Y-10742627D02*
X5606968Y-10714055D01*
X5606968Y-10714055D02*
X5616491Y-10695008D01*
X5616491Y-10695008D02*
X5635539Y-10666436D01*
X5635539Y-10666436D02*
X5645063Y-10656912D01*
X5806968Y-10752150D02*
X5806968Y-10885484D01*
X5759348Y-10675960D02*
X5711729Y-10818817D01*
X5711729Y-10818817D02*
X5835539Y-10818817D01*
X6064110Y-10885484D02*
X6064110Y-10685484D01*
X6149825Y-10885484D02*
X6149825Y-10780722D01*
X6149825Y-10780722D02*
X6140301Y-10761674D01*
X6140301Y-10761674D02*
X6121253Y-10752150D01*
X6121253Y-10752150D02*
X6092682Y-10752150D01*
X6092682Y-10752150D02*
X6073634Y-10761674D01*
X6073634Y-10761674D02*
X6064110Y-10771198D01*
X6273634Y-10885484D02*
X6254587Y-10875960D01*
X6254587Y-10875960D02*
X6245063Y-10866436D01*
X6245063Y-10866436D02*
X6235539Y-10847389D01*
X6235539Y-10847389D02*
X6235539Y-10790246D01*
X6235539Y-10790246D02*
X6245063Y-10771198D01*
X6245063Y-10771198D02*
X6254587Y-10761674D01*
X6254587Y-10761674D02*
X6273634Y-10752150D01*
X6273634Y-10752150D02*
X6302206Y-10752150D01*
X6302206Y-10752150D02*
X6321253Y-10761674D01*
X6321253Y-10761674D02*
X6330777Y-10771198D01*
X6330777Y-10771198D02*
X6340301Y-10790246D01*
X6340301Y-10790246D02*
X6340301Y-10847389D01*
X6340301Y-10847389D02*
X6330777Y-10866436D01*
X6330777Y-10866436D02*
X6321253Y-10875960D01*
X6321253Y-10875960D02*
X6302206Y-10885484D01*
X6302206Y-10885484D02*
X6273634Y-10885484D01*
X6454587Y-10885484D02*
X6435539Y-10875960D01*
X6435539Y-10875960D02*
X6426015Y-10856912D01*
X6426015Y-10856912D02*
X6426015Y-10685484D01*
X6606968Y-10875960D02*
X6587920Y-10885484D01*
X6587920Y-10885484D02*
X6549825Y-10885484D01*
X6549825Y-10885484D02*
X6530777Y-10875960D01*
X6530777Y-10875960D02*
X6521253Y-10856912D01*
X6521253Y-10856912D02*
X6521253Y-10780722D01*
X6521253Y-10780722D02*
X6530777Y-10761674D01*
X6530777Y-10761674D02*
X6549825Y-10752150D01*
X6549825Y-10752150D02*
X6587920Y-10752150D01*
X6587920Y-10752150D02*
X6606968Y-10761674D01*
X6606968Y-10761674D02*
X6616491Y-10780722D01*
X6616491Y-10780722D02*
X6616491Y-10799770D01*
X6616491Y-10799770D02*
X6521253Y-10818817D01*
X6692682Y-10875960D02*
X6711730Y-10885484D01*
X6711730Y-10885484D02*
X6749825Y-10885484D01*
X6749825Y-10885484D02*
X6768872Y-10875960D01*
X6768872Y-10875960D02*
X6778396Y-10856912D01*
X6778396Y-10856912D02*
X6778396Y-10847389D01*
X6778396Y-10847389D02*
X6768872Y-10828341D01*
X6768872Y-10828341D02*
X6749825Y-10818817D01*
X6749825Y-10818817D02*
X6721253Y-10818817D01*
X6721253Y-10818817D02*
X6702206Y-10809293D01*
X6702206Y-10809293D02*
X6692682Y-10790246D01*
X6692682Y-10790246D02*
X6692682Y-10780722D01*
X6692682Y-10780722D02*
X6702206Y-10761674D01*
X6702206Y-10761674D02*
X6721253Y-10752150D01*
X6721253Y-10752150D02*
X6749825Y-10752150D01*
X6749825Y-10752150D02*
X6768872Y-10761674D01*
X6845063Y-10961674D02*
X6854587Y-10952150D01*
X6854587Y-10952150D02*
X6873634Y-10923579D01*
X6873634Y-10923579D02*
X6883158Y-10904531D01*
X6883158Y-10904531D02*
X6892682Y-10875960D01*
X6892682Y-10875960D02*
X6902206Y-10828341D01*
X6902206Y-10828341D02*
X6902206Y-10790246D01*
X6902206Y-10790246D02*
X6892682Y-10742627D01*
X6892682Y-10742627D02*
X6883158Y-10714055D01*
X6883158Y-10714055D02*
X6873634Y-10695008D01*
X6873634Y-10695008D02*
X6854587Y-10666436D01*
X6854587Y-10666436D02*
X6845063Y-10656912D01*
M02*
