%TF.GenerationSoftware,KiCad,Pcbnew,8.0.01-1-dev-1b3cf70eef*%
%TF.CreationDate,2024-03-18T17:19:38-07:00*%
%TF.ProjectId,i2s_to_toslink_pcb,6932735f-746f-45f7-946f-736c696e6b5f,rev?*%
%TF.SameCoordinates,Original*%
%TF.FileFunction,Soldermask,Top*%
%TF.FilePolarity,Negative*%
%FSLAX46Y46*%
G04 Gerber Fmt 4.6, Leading zero omitted, Abs format (unit mm)*
G04 Created by KiCad (PCBNEW 8.0.01-1-dev-1b3cf70eef) date 2024-03-18 17:19:38*
%MOMM*%
%LPD*%
G01*
G04 APERTURE LIST*
G04 Aperture macros list*
%AMRoundRect*
0 Rectangle with rounded corners*
0 $1 Rounding radius*
0 $2 $3 $4 $5 $6 $7 $8 $9 X,Y pos of 4 corners*
0 Add a 4 corners polygon primitive as box body*
4,1,4,$2,$3,$4,$5,$6,$7,$8,$9,$2,$3,0*
0 Add four circle primitives for the rounded corners*
1,1,$1+$1,$2,$3*
1,1,$1+$1,$4,$5*
1,1,$1+$1,$6,$7*
1,1,$1+$1,$8,$9*
0 Add four rect primitives between the rounded corners*
20,1,$1+$1,$2,$3,$4,$5,0*
20,1,$1+$1,$4,$5,$6,$7,0*
20,1,$1+$1,$6,$7,$8,$9,0*
20,1,$1+$1,$8,$9,$2,$3,0*%
G04 Aperture macros list end*
%ADD10R,2.006600X2.235200*%
%ADD11C,2.600000*%
%ADD12C,3.500000*%
%ADD13RoundRect,0.140000X0.170000X-0.140000X0.170000X0.140000X-0.170000X0.140000X-0.170000X-0.140000X0*%
%ADD14RoundRect,0.200000X-0.200000X-0.275000X0.200000X-0.275000X0.200000X0.275000X-0.200000X0.275000X0*%
%ADD15RoundRect,0.140000X-0.170000X0.140000X-0.170000X-0.140000X0.170000X-0.140000X0.170000X0.140000X0*%
%ADD16RoundRect,0.140000X0.140000X0.170000X-0.140000X0.170000X-0.140000X-0.170000X0.140000X-0.170000X0*%
%ADD17RoundRect,0.135000X0.185000X-0.135000X0.185000X0.135000X-0.185000X0.135000X-0.185000X-0.135000X0*%
%ADD18R,1.700000X1.700000*%
%ADD19O,1.700000X1.700000*%
%ADD20RoundRect,0.135000X-0.185000X0.135000X-0.185000X-0.135000X0.185000X-0.135000X0.185000X0.135000X0*%
%ADD21RoundRect,0.135000X-0.135000X-0.185000X0.135000X-0.185000X0.135000X0.185000X-0.135000X0.185000X0*%
%ADD22R,1.000000X1.000000*%
%ADD23C,1.000000*%
%ADD24R,1.600000X0.550000*%
%ADD25R,0.550000X1.600000*%
%ADD26RoundRect,0.200000X0.200000X0.275000X-0.200000X0.275000X-0.200000X-0.275000X0.200000X-0.275000X0*%
%ADD27RoundRect,0.225000X-0.250000X0.225000X-0.250000X-0.225000X0.250000X-0.225000X0.250000X0.225000X0*%
%ADD28RoundRect,0.147500X0.147500X0.172500X-0.147500X0.172500X-0.147500X-0.172500X0.147500X-0.172500X0*%
%ADD29C,1.200000*%
%ADD30R,2.550000X2.550000*%
%ADD31C,2.550000*%
%ADD32C,1.462000*%
%ADD33R,0.508000X0.977900*%
%ADD34RoundRect,0.243750X-0.456250X0.243750X-0.456250X-0.243750X0.456250X-0.243750X0.456250X0.243750X0*%
%ADD35RoundRect,0.225000X-0.225000X-0.250000X0.225000X-0.250000X0.225000X0.250000X-0.225000X0.250000X0*%
%ADD36R,1.955432X0.420766*%
%ADD37O,1.000000X1.000000*%
%ADD38RoundRect,0.102000X-1.300000X0.950000X-1.300000X-0.950000X1.300000X-0.950000X1.300000X0.950000X0*%
%ADD39R,0.431800X1.651000*%
%ADD40RoundRect,0.135000X0.135000X0.185000X-0.135000X0.185000X-0.135000X-0.185000X0.135000X-0.185000X0*%
G04 APERTURE END LIST*
D10*
%TO.C,Y1*%
X33366000Y-76250000D03*
X33366000Y-71982800D03*
%TD*%
D11*
%TO.C,H1*%
X24130000Y-23622000D03*
D12*
X24130000Y-23622000D03*
%TD*%
D13*
%TO.C,C18*%
X59000000Y-32800000D03*
X59000000Y-31840000D03*
%TD*%
D14*
%TO.C,R10*%
X65830200Y-49961400D03*
X67480200Y-49961400D03*
%TD*%
D15*
%TO.C,C10*%
X39614400Y-73998000D03*
X39614400Y-74958000D03*
%TD*%
D16*
%TO.C,C15*%
X38069400Y-48717200D03*
X37109400Y-48717200D03*
%TD*%
D17*
%TO.C,R14*%
X43750000Y-62260000D03*
X43750000Y-61240000D03*
%TD*%
D18*
%TO.C,J3*%
X74250000Y-59750000D03*
D19*
X74250000Y-62290000D03*
%TD*%
D20*
%TO.C,R4*%
X53500000Y-57480000D03*
X53500000Y-58500000D03*
%TD*%
D21*
%TO.C,R6*%
X54490000Y-55250000D03*
X55510000Y-55250000D03*
%TD*%
D22*
%TO.C,J17*%
X56134000Y-47498000D03*
%TD*%
D17*
%TO.C,R8*%
X56500000Y-51250000D03*
X56500000Y-50230000D03*
%TD*%
D16*
%TO.C,C8*%
X38363600Y-72418000D03*
X37403600Y-72418000D03*
%TD*%
D23*
%TO.C,TP1*%
X54750000Y-65500000D03*
%TD*%
D13*
%TO.C,C13*%
X24270000Y-45230000D03*
X24270000Y-44270000D03*
%TD*%
D24*
%TO.C,U2*%
X43111400Y-68424200D03*
X43111400Y-69224200D03*
X43111400Y-70024200D03*
X43111400Y-70824200D03*
X43111400Y-71624200D03*
X43111400Y-72424200D03*
X43111400Y-73224200D03*
X43111400Y-74024200D03*
D25*
X44561400Y-75474200D03*
X45361400Y-75474200D03*
X46161400Y-75474200D03*
X46961400Y-75474200D03*
X47761400Y-75474200D03*
X48561400Y-75474200D03*
X49361400Y-75474200D03*
X50161400Y-75474200D03*
D24*
X51611400Y-74024200D03*
X51611400Y-73224200D03*
X51611400Y-72424200D03*
X51611400Y-71624200D03*
X51611400Y-70824200D03*
X51611400Y-70024200D03*
X51611400Y-69224200D03*
X51611400Y-68424200D03*
D25*
X50161400Y-66974200D03*
X49361400Y-66974200D03*
X48561400Y-66974200D03*
X47761400Y-66974200D03*
X46961400Y-66974200D03*
X46161400Y-66974200D03*
X45361400Y-66974200D03*
X44561400Y-66974200D03*
%TD*%
D18*
%TO.C,J2*%
X41590000Y-27500000D03*
D19*
X44130000Y-27500000D03*
X46670000Y-27500000D03*
X49210000Y-27500000D03*
X51750000Y-27500000D03*
%TD*%
D22*
%TO.C,J15*%
X51577000Y-54750000D03*
%TD*%
D13*
%TO.C,C14*%
X25349200Y-50000000D03*
X25349200Y-49040000D03*
%TD*%
D18*
%TO.C,SW1*%
X59460000Y-79000000D03*
D19*
X62000000Y-79000000D03*
%TD*%
D14*
%TO.C,R12*%
X71850000Y-54000000D03*
X73500000Y-54000000D03*
%TD*%
D18*
%TO.C,J12*%
X29000000Y-56720000D03*
D19*
X29000000Y-59260000D03*
X29000000Y-61800000D03*
X29000000Y-64340000D03*
X29000000Y-66880000D03*
%TD*%
D16*
%TO.C,C4*%
X68710000Y-59250000D03*
X67750000Y-59250000D03*
%TD*%
D26*
%TO.C,R13*%
X67708800Y-53949200D03*
X66058800Y-53949200D03*
%TD*%
D18*
%TO.C,J9*%
X35500000Y-34210000D03*
D19*
X35500000Y-36750000D03*
X35500000Y-39290000D03*
%TD*%
D20*
%TO.C,R5*%
X56000000Y-58490000D03*
X56000000Y-59510000D03*
%TD*%
D27*
%TO.C,C23*%
X69830200Y-52412000D03*
X69830200Y-53962000D03*
%TD*%
D17*
%TO.C,R1*%
X45400000Y-54200000D03*
X45400000Y-53180000D03*
%TD*%
D14*
%TO.C,R11*%
X63675000Y-45000000D03*
X65325000Y-45000000D03*
%TD*%
D28*
%TO.C,D2*%
X73470000Y-76000000D03*
X72500000Y-76000000D03*
%TD*%
D18*
%TO.C,J7*%
X24250000Y-33500000D03*
D19*
X26790000Y-33500000D03*
X29330000Y-33500000D03*
%TD*%
D22*
%TO.C,J14*%
X45500000Y-47244000D03*
%TD*%
D21*
%TO.C,R16*%
X67230000Y-78750000D03*
X68250000Y-78750000D03*
%TD*%
D15*
%TO.C,C11*%
X40732000Y-76256000D03*
X40732000Y-77216000D03*
%TD*%
D16*
%TO.C,C5*%
X76750000Y-66750000D03*
X75790000Y-66750000D03*
%TD*%
D20*
%TO.C,R9*%
X44000000Y-49750000D03*
X44000000Y-50770000D03*
%TD*%
D11*
%TO.C,H3*%
X24130000Y-77978000D03*
D12*
X24130000Y-77978000D03*
%TD*%
D16*
%TO.C,C16*%
X38097400Y-46126400D03*
X37137400Y-46126400D03*
%TD*%
D29*
%TO.C,J10*%
X70478400Y-31698600D03*
X70478400Y-27198600D03*
D30*
X73678400Y-27198600D03*
D31*
X67628400Y-36498600D03*
X73678400Y-30598600D03*
X67078400Y-30498600D03*
X66628400Y-26998600D03*
D32*
X68478400Y-39598600D03*
X70478400Y-39598600D03*
X72478400Y-39598600D03*
%TD*%
D16*
%TO.C,C12*%
X68210000Y-76000000D03*
X67250000Y-76000000D03*
%TD*%
D20*
%TO.C,R3*%
X42750000Y-53180000D03*
X42750000Y-54200000D03*
%TD*%
D13*
%TO.C,C6*%
X55667200Y-71650800D03*
X55667200Y-70690800D03*
%TD*%
D33*
%TO.C,U1*%
X73349998Y-71750000D03*
X74299999Y-71750000D03*
X75250000Y-71750000D03*
X75250000Y-69019500D03*
X73349998Y-69019500D03*
%TD*%
D15*
%TO.C,C9*%
X57500000Y-72520000D03*
X57500000Y-73480000D03*
%TD*%
D34*
%TO.C,D1*%
X36800000Y-62662500D03*
X36800000Y-64537500D03*
%TD*%
D13*
%TO.C,C1*%
X66000000Y-62500000D03*
X66000000Y-61540000D03*
%TD*%
D16*
%TO.C,C21*%
X70000000Y-43800000D03*
X69040000Y-43800000D03*
%TD*%
D13*
%TO.C,C19*%
X53500000Y-47000000D03*
X53500000Y-46040000D03*
%TD*%
D35*
%TO.C,C22*%
X69842400Y-49961400D03*
X71392400Y-49961400D03*
%TD*%
D15*
%TO.C,C17*%
X58978800Y-42700000D03*
X58978800Y-43660000D03*
%TD*%
D36*
%TO.C,U3*%
X28412232Y-44827000D03*
X28412232Y-45477001D03*
X28412232Y-46126999D03*
X28412232Y-46777001D03*
X28412232Y-47426999D03*
X28412232Y-48077001D03*
X28412232Y-48726999D03*
X28412232Y-49377001D03*
X28412232Y-50026999D03*
X28412232Y-50677000D03*
X34163000Y-50677000D03*
X34163000Y-50026999D03*
X34163000Y-49377001D03*
X34163000Y-48726999D03*
X34163000Y-48077001D03*
X34163000Y-47426999D03*
X34163000Y-46777001D03*
X34163000Y-46126999D03*
X34163000Y-45477001D03*
X34163000Y-44827000D03*
%TD*%
D22*
%TO.C,J13*%
X71872000Y-46400000D03*
D37*
X73142000Y-46400000D03*
X74412000Y-46400000D03*
X75682000Y-46400000D03*
X76952000Y-46400000D03*
%TD*%
D22*
%TO.C,J11*%
X56134000Y-30226000D03*
D37*
X56134000Y-31496000D03*
%TD*%
D17*
%TO.C,R2*%
X39750000Y-66750000D03*
X39750000Y-65730000D03*
%TD*%
D18*
%TO.C,J6*%
X61710000Y-71250000D03*
D19*
X61710000Y-68710000D03*
X64250000Y-71250000D03*
X64250000Y-68710000D03*
X66790000Y-71250000D03*
X66790000Y-68710000D03*
%TD*%
D13*
%TO.C,C3*%
X68000000Y-62500000D03*
X68000000Y-61540000D03*
%TD*%
D38*
%TO.C,Y2*%
X58978000Y-35696000D03*
X58978000Y-39996000D03*
%TD*%
D18*
%TO.C,J1*%
X62000000Y-49180000D03*
D19*
X62000000Y-51720000D03*
X62000000Y-54260000D03*
X62000000Y-56800000D03*
X62000000Y-59340000D03*
X62000000Y-61880000D03*
%TD*%
D18*
%TO.C,JP1*%
X39750000Y-39250000D03*
D19*
X39750000Y-36710000D03*
X39750000Y-34170000D03*
%TD*%
D39*
%TO.C,U4*%
X44584001Y-41300400D03*
X45234002Y-41300400D03*
X45884001Y-41300400D03*
X46534002Y-41300400D03*
X47184000Y-41300400D03*
X47834002Y-41300400D03*
X48484000Y-41300400D03*
X49133999Y-41300400D03*
X49784000Y-41300400D03*
X50433999Y-41300400D03*
X51084000Y-41300400D03*
X51733999Y-41300400D03*
X52384000Y-41300400D03*
X53033999Y-41300400D03*
X53034001Y-34036000D03*
X52384000Y-34036000D03*
X51734001Y-34036000D03*
X51084000Y-34036000D03*
X50434002Y-34036000D03*
X49784000Y-34036000D03*
X49134002Y-34036000D03*
X48484000Y-34036000D03*
X47834002Y-34036000D03*
X47184000Y-34036000D03*
X46534002Y-34036000D03*
X45884001Y-34036000D03*
X45234002Y-34036000D03*
X44584001Y-34036000D03*
%TD*%
D17*
%TO.C,R7*%
X50000000Y-47020000D03*
X50000000Y-46000000D03*
%TD*%
D13*
%TO.C,C20*%
X41750000Y-44230000D03*
X41750000Y-43270000D03*
%TD*%
%TO.C,C2*%
X70000000Y-62480000D03*
X70000000Y-61520000D03*
%TD*%
D16*
%TO.C,C7*%
X38364600Y-70817800D03*
X37404600Y-70817800D03*
%TD*%
D18*
%TO.C,J8*%
X25500000Y-40500000D03*
D19*
X28040000Y-40500000D03*
X30580000Y-40500000D03*
%TD*%
D22*
%TO.C,J16*%
X52000000Y-52000000D03*
%TD*%
D11*
%TO.C,H2*%
X79248000Y-23876000D03*
D12*
X79248000Y-23876000D03*
%TD*%
D18*
%TO.C,J5*%
X37340000Y-58500000D03*
D19*
X34800000Y-58500000D03*
X37340000Y-55960000D03*
X34800000Y-55960000D03*
%TD*%
D11*
%TO.C,H4*%
X79248000Y-77978000D03*
D12*
X79248000Y-77978000D03*
%TD*%
D40*
%TO.C,R15*%
X73520000Y-78750000D03*
X72500000Y-78750000D03*
%TD*%
M02*
