M48
; DRILL file {KiCad 8.0.01-1-dev-1b3cf70eef} date 2024-03-18T17:19:19-0700
; FORMAT={-:-/ absolute / inch / decimal}
; #@! TF.CreationDate,2024-03-18T17:19:19-07:00
; #@! TF.GenerationSoftware,Kicad,Pcbnew,8.0.01-1-dev-1b3cf70eef
; #@! TF.FileFunction,Plated,1,2,PTH
FMAT,2
INCH
; #@! TA.AperFunction,Plated,PTH,ViaDrill
T1C0.0157
; #@! TA.AperFunction,Plated,PTH,ViaDrill
T2C0.0250
; #@! TA.AperFunction,Plated,PTH,ComponentDrill
T3C0.0256
; #@! TA.AperFunction,Plated,PTH,ComponentDrill
T4C0.0370
; #@! TA.AperFunction,Plated,PTH,ComponentDrill
T5C0.0394
; #@! TA.AperFunction,Plated,PTH,ComponentDrill
T6C0.0669
; #@! TA.AperFunction,Plated,PTH,ComponentDrill
T7C0.0866
%
G90
G05
T1
X1.0Y-2.026
X1.0143Y-1.8367
X1.0236Y-1.7028
X1.063Y-2.0472
X1.1314Y-2.0763
X1.431Y-1.8602
X1.437Y-1.7028
X1.437Y-3.0315
X1.4715Y-2.003
X1.4724Y-2.7221
X1.5Y-1.767
X1.5826Y-2.8195
X1.5836Y-2.7572
X1.5945Y-1.7028
X1.6142Y-1.8012
X1.6535Y-2.313
X1.6636Y-3.0411
X1.7224Y-2.2343
X1.7859Y-2.5438
X1.7913Y-1.998
X1.8209Y-2.3622
X1.8307Y-2.0906
X1.8307Y-2.2343
X1.8701Y-2.0472
X1.8791Y-2.313
X1.8791Y-2.4803
X1.9094Y-2.3622
X1.939Y-2.4803
X1.9436Y-3.0431
X1.9685Y-1.9055
X2.0669Y-2.3819
X2.0866Y-1.752
X2.1116Y-2.7891
X2.1417Y-1.6478
X2.1752Y-2.2638
X2.19Y-1.732
X2.2441Y-2.1654
X2.2598Y-1.7244
X2.2933Y-2.9429
X2.313Y-2.874
X2.5984Y-2.3327
X2.6457Y-1.7244
X2.6969Y-2.5492
X2.8875Y-1.9685
X2.9232Y-2.9035
T2
X1.811Y-1.25
X2.2638Y-2.5098
X2.3031Y-2.3031
T3
X1.7913Y-1.86
X2.0306Y-2.1555
X2.0472Y-2.0472
X2.21Y-1.19
X2.21Y-1.24
X2.21Y-1.87
X2.8296Y-1.8268
X2.8796Y-1.8268
X2.9296Y-1.8268
X2.9796Y-1.8268
X3.0296Y-1.8268
T4
X2.696Y-1.559
X2.7747Y-1.559
X2.8535Y-1.559
T5
X0.9547Y-1.3189
X1.0039Y-1.5945
X1.0547Y-1.3189
X1.1039Y-1.5945
X1.1417Y-2.2331
X1.1417Y-2.3331
X1.1417Y-2.4331
X1.1417Y-2.5331
X1.1417Y-2.6331
X1.1547Y-1.3189
X1.2039Y-1.5945
X1.3701Y-2.2031
X1.3701Y-2.3031
X1.3976Y-1.3469
X1.3976Y-1.4469
X1.3976Y-1.5469
X1.4701Y-2.2031
X1.4701Y-2.3031
X1.565Y-1.3453
X1.565Y-1.4453
X1.565Y-1.5453
X1.6374Y-1.0827
X1.7374Y-1.0827
X1.8374Y-1.0827
X1.9374Y-1.0827
X2.0374Y-1.0827
X2.3409Y-3.1102
X2.4295Y-2.7051
X2.4295Y-2.8051
X2.4409Y-1.9362
X2.4409Y-2.0362
X2.4409Y-2.1362
X2.4409Y-2.2362
X2.4409Y-2.3362
X2.4409Y-2.4362
X2.4409Y-3.1102
X2.5295Y-2.7051
X2.5295Y-2.8051
X2.6295Y-2.7051
X2.6295Y-2.8051
X2.9232Y-2.3524
X2.9232Y-2.4524
T6
X2.6232Y-1.0629
X2.6409Y-1.2007
X2.6625Y-1.437
X2.9007Y-1.0708
X2.9007Y-1.2047
T7
X0.95Y-0.93
X0.95Y-3.07
X3.12Y-0.94
X3.12Y-3.07
M30
