%TF.GenerationSoftware,KiCad,Pcbnew,8.0.02-1-dev-e0381f25f7*%
%TF.CreationDate,2024-04-02T19:47:07-07:00*%
%TF.ProjectId,i2s_to_toslink_pcb,6932735f-746f-45f7-946f-736c696e6b5f,rev?*%
%TF.SameCoordinates,Original*%
%TF.FileFunction,Copper,L2,Bot*%
%TF.FilePolarity,Positive*%
%FSLAX46Y46*%
G04 Gerber Fmt 4.6, Leading zero omitted, Abs format (unit mm)*
G04 Created by KiCad (PCBNEW 8.0.02-1-dev-e0381f25f7) date 2024-04-02 19:47:07*
%MOMM*%
%LPD*%
G01*
G04 APERTURE LIST*
%TA.AperFunction,ComponentPad*%
%ADD10C,2.600000*%
%TD*%
%TA.AperFunction,ConnectorPad*%
%ADD11C,3.500000*%
%TD*%
%TA.AperFunction,ComponentPad*%
%ADD12R,1.700000X1.700000*%
%TD*%
%TA.AperFunction,ComponentPad*%
%ADD13O,1.700000X1.700000*%
%TD*%
%TA.AperFunction,ComponentPad*%
%ADD14R,1.000000X1.000000*%
%TD*%
%TA.AperFunction,ComponentPad*%
%ADD15R,2.550000X2.550000*%
%TD*%
%TA.AperFunction,ComponentPad*%
%ADD16C,2.550000*%
%TD*%
%TA.AperFunction,ComponentPad*%
%ADD17C,1.462000*%
%TD*%
%TA.AperFunction,ComponentPad*%
%ADD18R,1.350000X1.350000*%
%TD*%
%TA.AperFunction,ComponentPad*%
%ADD19O,1.350000X1.350000*%
%TD*%
%TA.AperFunction,ViaPad*%
%ADD20C,0.800000*%
%TD*%
%TA.AperFunction,ViaPad*%
%ADD21C,1.270000*%
%TD*%
%TA.AperFunction,Conductor*%
%ADD22C,0.381000*%
%TD*%
%TA.AperFunction,Conductor*%
%ADD23C,0.250000*%
%TD*%
%TA.AperFunction,Conductor*%
%ADD24C,0.304800*%
%TD*%
G04 APERTURE END LIST*
D10*
%TO.P,H1,1*%
%TO.N,N/C*%
X24130000Y-23622000D03*
D11*
X24130000Y-23622000D03*
%TD*%
D12*
%TO.P,J3,1,Pin_1*%
%TO.N,Net-(J3-Pin_1)*%
X37400000Y-55860000D03*
D13*
%TO.P,J3,2,Pin_2*%
%TO.N,Net-(J3-Pin_2)*%
X37400000Y-58400000D03*
%TD*%
D14*
%TO.P,J17,1,Pin_1*%
%TO.N,CODEC_CLKOUT*%
X56134000Y-47498000D03*
%TD*%
D12*
%TO.P,J2,1,Pin_1*%
%TO.N,GND*%
X41590000Y-27500000D03*
D13*
%TO.P,J2,2,Pin_2*%
%TO.N,EXTERNAL_IN_I2S_MCLK*%
X44130000Y-27500000D03*
%TO.P,J2,3,Pin_3*%
%TO.N,EXTERNAL_IN_I2S_LRCLK*%
X46670000Y-27500000D03*
%TO.P,J2,4,Pin_4*%
%TO.N,EXTERNAL_IN_I2S_BCLK*%
X49210000Y-27500000D03*
%TO.P,J2,5,Pin_5*%
%TO.N,EXTERNAL_IN_I2S_DIN*%
X51750000Y-27500000D03*
%TD*%
D14*
%TO.P,J15,1,Pin_1*%
%TO.N,CODEC_GPO7*%
X51577000Y-54750000D03*
%TD*%
D12*
%TO.P,J12,1,Pin_1*%
%TO.N,GND*%
X29000000Y-56720000D03*
D13*
%TO.P,J12,2,Pin_2*%
%TO.N,Net-(J12-Pin_2)*%
X29000000Y-59260000D03*
%TO.P,J12,3,Pin_3*%
%TO.N,Net-(J12-Pin_3)*%
X29000000Y-61800000D03*
%TO.P,J12,4,Pin_4*%
%TO.N,Net-(J12-Pin_4)*%
X29000000Y-64340000D03*
%TO.P,J12,5,Pin_5*%
%TO.N,Net-(J12-Pin_5)*%
X29000000Y-66880000D03*
%TD*%
D12*
%TO.P,J9,1,Pin_1*%
%TO.N,GND*%
X30400000Y-28875000D03*
D13*
%TO.P,J9,2,Pin_2*%
%TO.N,CLKGEN_OUT_I2S_MCLK*%
X30400000Y-31415000D03*
%TO.P,J9,3,Pin_3*%
%TO.N,Net-(J9-Pin_3)*%
X30400000Y-33955000D03*
%TD*%
D12*
%TO.P,J7,1,Pin_1*%
%TO.N,GND*%
X25600000Y-28875000D03*
D13*
%TO.P,J7,2,Pin_2*%
%TO.N,EXTERNAL_IN_I2S_BCLK*%
X25600000Y-31415000D03*
%TO.P,J7,3,Pin_3*%
%TO.N,Net-(J7-Pin_3)*%
X25600000Y-33955000D03*
%TD*%
D14*
%TO.P,J14,1,Pin_1*%
%TO.N,CODEC_GPO0*%
X45600000Y-46800000D03*
%TD*%
D10*
%TO.P,H3,1*%
%TO.N,N/C*%
X24130000Y-77978000D03*
D11*
X24130000Y-77978000D03*
%TD*%
D15*
%TO.P,J10,1,DETECTOR_1*%
%TO.N,Net-(J10-DETECTOR_1)*%
X73678400Y-27198600D03*
D16*
%TO.P,J10,2,LEFT_CHANNEL*%
%TO.N,Net-(J10-LEFT_CHANNEL)*%
X67628400Y-36498600D03*
%TO.P,J10,3,RIGHT_CHANNEL*%
%TO.N,Net-(J10-RIGHT_CHANNEL)*%
X73678400Y-30598600D03*
%TO.P,J10,4,GND_1*%
%TO.N,GND*%
X67078400Y-30498600D03*
%TO.P,J10,5,DETECTOR_2*%
%TO.N,Net-(J10-DETECTOR_2)*%
X66628400Y-26998600D03*
D17*
%TO.P,J10,6,GND_2*%
%TO.N,Net-(J10-GND_2)*%
X68478400Y-39598600D03*
%TO.P,J10,7,VCC*%
%TO.N,VCC_3V3*%
X70478400Y-39598600D03*
%TO.P,J10,8,VIN*%
%TO.N,Net-(J10-VIN)*%
X72478400Y-39598600D03*
%TD*%
D18*
%TO.P,J13,1,Pin_1*%
%TO.N,Net-(J10-GND_2)*%
X72200000Y-46400000D03*
D19*
%TO.P,J13,2,Pin_2*%
%TO.N,Net-(J10-LEFT_CHANNEL)*%
X74200000Y-46400000D03*
%TO.P,J13,3,Pin_3*%
%TO.N,Net-(J10-DETECTOR_2)*%
X76200000Y-46400000D03*
%TO.P,J13,4,Pin_4*%
%TO.N,Net-(J10-RIGHT_CHANNEL)*%
X78200000Y-46400000D03*
%TO.P,J13,5,Pin_5*%
%TO.N,Net-(J10-DETECTOR_1)*%
X80200000Y-46400000D03*
%TD*%
D18*
%TO.P,J11,1,Pin_1*%
%TO.N,GND*%
X56400000Y-28000000D03*
D19*
%TO.P,J11,2,Pin_2*%
%TO.N,Net-(J11-Pin_2)*%
X56400000Y-30000000D03*
%TD*%
D12*
%TO.P,J6,1,MISO*%
%TO.N,MCU_MISO*%
X61710000Y-71250000D03*
D13*
%TO.P,J6,2,VCC*%
%TO.N,VIN_5V*%
X61710000Y-68710000D03*
%TO.P,J6,3,SCK*%
%TO.N,MCU_SCK*%
X64250000Y-71250000D03*
%TO.P,J6,4,MOSI*%
%TO.N,MCU_MOSI*%
X64250000Y-68710000D03*
%TO.P,J6,5,~{RST}*%
%TO.N,MCU_RST*%
X66790000Y-71250000D03*
%TO.P,J6,6,GND*%
%TO.N,GND*%
X66790000Y-68710000D03*
%TD*%
D12*
%TO.P,J1,1,Pin_1*%
%TO.N,GND*%
X62000000Y-49180000D03*
D13*
%TO.P,J1,2,Pin_2*%
X62000000Y-51720000D03*
%TO.P,J1,3,Pin_3*%
%TO.N,VCC_3V3*%
X62000000Y-54260000D03*
%TO.P,J1,4,Pin_4*%
%TO.N,MCU_TXD0*%
X62000000Y-56800000D03*
%TO.P,J1,5,Pin_5*%
%TO.N,MCU_RXD0*%
X62000000Y-59340000D03*
%TO.P,J1,6,Pin_6*%
%TO.N,MCU_RST*%
X62000000Y-61880000D03*
%TD*%
D12*
%TO.P,JP1,1,A*%
%TO.N,CLKGEN_OUT_I2S_MCLK*%
X35600000Y-34080000D03*
D13*
%TO.P,JP1,2,C*%
%TO.N,CODEC_IN_I2S_MCLK*%
X35600000Y-31540000D03*
%TO.P,JP1,3,B*%
%TO.N,EXTERNAL_IN_I2S_MCLK*%
X35600000Y-29000000D03*
%TD*%
D12*
%TO.P,J8,1,Pin_1*%
%TO.N,GND*%
X25500000Y-40500000D03*
D13*
%TO.P,J8,2,Pin_2*%
%TO.N,Net-(J8-Pin_2)*%
X28040000Y-40500000D03*
%TO.P,J8,3,Pin_3*%
%TO.N,Net-(J8-Pin_3)*%
X30580000Y-40500000D03*
%TD*%
D14*
%TO.P,J16,1,Pin_1*%
%TO.N,CODEC_RESETB*%
X52000000Y-52000000D03*
%TD*%
D10*
%TO.P,H2,1*%
%TO.N,N/C*%
X79248000Y-23876000D03*
D11*
X79248000Y-23876000D03*
%TD*%
D10*
%TO.P,H4,1*%
%TO.N,N/C*%
X79248000Y-77978000D03*
D11*
X79248000Y-77978000D03*
%TD*%
D20*
%TO.N,GND*%
X65600000Y-59250000D03*
X24800000Y-52600000D03*
X40198600Y-71614700D03*
X33800000Y-63800000D03*
X56000000Y-63600000D03*
X36000000Y-47400000D03*
X46400000Y-50200000D03*
X66127500Y-43200000D03*
X73342800Y-50000000D03*
X59400000Y-73400000D03*
X42256000Y-77600000D03*
X53635200Y-70843200D03*
X71000000Y-64500000D03*
X41000000Y-46000000D03*
X25762937Y-46651999D03*
X72884751Y-70100000D03*
X37375000Y-50875000D03*
X50000000Y-49200000D03*
X36400000Y-75400000D03*
X45000000Y-57500000D03*
X57400000Y-43800000D03*
X42800000Y-59700000D03*
X53200000Y-44800000D03*
X57400000Y-54600000D03*
X38100000Y-44881800D03*
X40224000Y-70033700D03*
X70400000Y-75650000D03*
X78400000Y-59800000D03*
D21*
X42400000Y-33800000D03*
D20*
X37400000Y-69141400D03*
%TO.N,MCU_RST*%
X68500000Y-64750000D03*
%TO.N,MCU_SCK*%
X58250000Y-74750000D03*
%TO.N,MCU_MOSI*%
X49368000Y-77294800D03*
%TO.N,MCU_SDA1*%
X47500000Y-52000000D03*
X27000000Y-52000000D03*
X50500000Y-63500000D03*
%TO.N,MCU_SCL1*%
X48500000Y-63500000D03*
X40400000Y-54800000D03*
X28800000Y-53000000D03*
%TO.N,CODEC_OUT_SPDIF_AUDIO_DATA*%
X54400000Y-41854818D03*
X55626000Y-43992800D03*
%TO.N,VCC_3V3*%
X26000000Y-43250000D03*
X40000000Y-42600000D03*
D21*
X58500000Y-56500000D03*
X58500000Y-63500000D03*
X58500000Y-60500000D03*
D20*
%TO.N,CODEC_INT0*%
X46500000Y-58500000D03*
X46500000Y-53100000D03*
%TD*%
D22*
%TO.N,MCU_RST*%
X62000000Y-61880000D02*
X64870000Y-64750000D01*
X64870000Y-64750000D02*
X68500000Y-64750000D01*
%TO.N,MCU_SCK*%
X58250000Y-74750000D02*
X62250000Y-74750000D01*
X62250000Y-74750000D02*
X64250000Y-72750000D01*
X64250000Y-72750000D02*
X64250000Y-71250000D01*
%TO.N,MCU_MOSI*%
X49873200Y-77800000D02*
X53450000Y-77800000D01*
X49368000Y-77294800D02*
X49873200Y-77800000D01*
X54425700Y-70324300D02*
X59000000Y-65750000D01*
D23*
X64250000Y-67250000D02*
X62750000Y-65750000D01*
D22*
X59000000Y-65750000D02*
X62750000Y-65750000D01*
X53450000Y-77800000D02*
X54425700Y-76824300D01*
D23*
X64250000Y-68710000D02*
X64250000Y-67250000D01*
D22*
X54425700Y-76824300D02*
X54425700Y-70324300D01*
D23*
%TO.N,MCU_SDA1*%
X47500000Y-52000000D02*
X27000000Y-52000000D01*
X47800000Y-52300000D02*
X47500000Y-52000000D01*
X50500000Y-57500000D02*
X47800000Y-54800000D01*
X50500000Y-63500000D02*
X50500000Y-57500000D01*
X47800000Y-54800000D02*
X47800000Y-52300000D01*
%TO.N,MCU_SCL1*%
X48500000Y-63100000D02*
X48500000Y-63500000D01*
X40400000Y-54800000D02*
X38800000Y-53200000D01*
X38800000Y-53200000D02*
X29000000Y-53200000D01*
X40400000Y-55000000D02*
X48500000Y-63100000D01*
X40400000Y-54800000D02*
X40400000Y-55000000D01*
X29000000Y-53200000D02*
X28800000Y-53000000D01*
D24*
%TO.N,CODEC_OUT_SPDIF_AUDIO_DATA*%
X55626000Y-43080818D02*
X54400000Y-41854818D01*
X55626000Y-43992800D02*
X55626000Y-43080818D01*
D22*
%TO.N,VCC_3V3*%
X58500000Y-63500000D02*
X58500000Y-60500000D01*
X68500000Y-41577000D02*
X68500000Y-47760000D01*
X70478400Y-39598600D02*
X68500000Y-41577000D01*
X68500000Y-47760000D02*
X62000000Y-54260000D01*
X26000000Y-43250000D02*
X39350000Y-43250000D01*
X39350000Y-43250000D02*
X40000000Y-42600000D01*
X58500000Y-60500000D02*
X58500000Y-56500000D01*
D23*
%TO.N,Net-(J10-GND_2)*%
X71872000Y-44528000D02*
X75000000Y-41400000D01*
X70877000Y-37200000D02*
X68478400Y-39598600D01*
X73200000Y-37200000D02*
X70877000Y-37200000D01*
X75000000Y-41400000D02*
X75000000Y-39000000D01*
X75000000Y-39000000D02*
X73200000Y-37200000D01*
X71872000Y-46400000D02*
X71872000Y-44528000D01*
%TO.N,CODEC_INT0*%
X46500000Y-58500000D02*
X46500000Y-53100000D01*
%TD*%
%TA.AperFunction,Conductor*%
%TO.N,GND*%
G36*
X62250000Y-51286988D02*
G01*
X62192993Y-51254075D01*
X62065826Y-51220000D01*
X61934174Y-51220000D01*
X61807007Y-51254075D01*
X61750000Y-51286988D01*
X61750000Y-49613012D01*
X61807007Y-49645925D01*
X61934174Y-49680000D01*
X62065826Y-49680000D01*
X62192993Y-49645925D01*
X62250000Y-49613012D01*
X62250000Y-51286988D01*
G37*
%TD.AperFunction*%
%TA.AperFunction,Conductor*%
G36*
X45603700Y-52645185D02*
G01*
X45649455Y-52697989D01*
X45659399Y-52767147D01*
X45654592Y-52787818D01*
X45630768Y-52861142D01*
X45614326Y-52911744D01*
X45594540Y-53100000D01*
X45614326Y-53288256D01*
X45614327Y-53288259D01*
X45672818Y-53468277D01*
X45672821Y-53468284D01*
X45767467Y-53632216D01*
X45804089Y-53672888D01*
X45842650Y-53715715D01*
X45872880Y-53778706D01*
X45874500Y-53798687D01*
X45874500Y-57801312D01*
X45854815Y-57868351D01*
X45842650Y-57884284D01*
X45767466Y-57967784D01*
X45672821Y-58131715D01*
X45672818Y-58131722D01*
X45614327Y-58311740D01*
X45614326Y-58311744D01*
X45594540Y-58500000D01*
X45614326Y-58688256D01*
X45614327Y-58688259D01*
X45672818Y-58868277D01*
X45672821Y-58868284D01*
X45767467Y-59032216D01*
X45894129Y-59172888D01*
X46047265Y-59284148D01*
X46047270Y-59284151D01*
X46220192Y-59361142D01*
X46220197Y-59361144D01*
X46405354Y-59400500D01*
X46405355Y-59400500D01*
X46594644Y-59400500D01*
X46594646Y-59400500D01*
X46779803Y-59361144D01*
X46952730Y-59284151D01*
X47105871Y-59172888D01*
X47232533Y-59032216D01*
X47327179Y-58868284D01*
X47385674Y-58688256D01*
X47405460Y-58500000D01*
X47385674Y-58311744D01*
X47327179Y-58131716D01*
X47232533Y-57967784D01*
X47157350Y-57884284D01*
X47127120Y-57821292D01*
X47125500Y-57801312D01*
X47125500Y-55309453D01*
X47145185Y-55242414D01*
X47197989Y-55196659D01*
X47267147Y-55186715D01*
X47330703Y-55215740D01*
X47337181Y-55221772D01*
X47408332Y-55292923D01*
X47408338Y-55292928D01*
X49838181Y-57722771D01*
X49871666Y-57784094D01*
X49874500Y-57810452D01*
X49874500Y-62801312D01*
X49854815Y-62868351D01*
X49842650Y-62884284D01*
X49767466Y-62967784D01*
X49672821Y-63131715D01*
X49672818Y-63131722D01*
X49617931Y-63300648D01*
X49578493Y-63358324D01*
X49514135Y-63385522D01*
X49445288Y-63373607D01*
X49393813Y-63326363D01*
X49382069Y-63300648D01*
X49327181Y-63131722D01*
X49327180Y-63131721D01*
X49327179Y-63131716D01*
X49232533Y-62967784D01*
X49105871Y-62827112D01*
X49070360Y-62801312D01*
X49053962Y-62789398D01*
X49023746Y-62757971D01*
X48985856Y-62701264D01*
X48895637Y-62611045D01*
X48895606Y-62611016D01*
X41326275Y-55041685D01*
X41292790Y-54980362D01*
X41290635Y-54941049D01*
X41305460Y-54800000D01*
X41285674Y-54611744D01*
X41227179Y-54431716D01*
X41132533Y-54267784D01*
X41005871Y-54127112D01*
X41005870Y-54127111D01*
X40852734Y-54015851D01*
X40852729Y-54015848D01*
X40679807Y-53938857D01*
X40679802Y-53938855D01*
X40534001Y-53907865D01*
X40494646Y-53899500D01*
X40494645Y-53899500D01*
X40435453Y-53899500D01*
X40368414Y-53879815D01*
X40347772Y-53863181D01*
X39321771Y-52837181D01*
X39288286Y-52775858D01*
X39293270Y-52706166D01*
X39335142Y-52650233D01*
X39400606Y-52625816D01*
X39409452Y-52625500D01*
X45536661Y-52625500D01*
X45603700Y-52645185D01*
G37*
%TD.AperFunction*%
%TA.AperFunction,Conductor*%
G36*
X82343039Y-20219685D02*
G01*
X82388794Y-20272489D01*
X82400000Y-20324000D01*
X82400000Y-82476000D01*
X82380315Y-82543039D01*
X82327511Y-82588794D01*
X82276000Y-82600000D01*
X20924000Y-82600000D01*
X20856961Y-82580315D01*
X20811206Y-82527511D01*
X20800000Y-82476000D01*
X20800000Y-77977992D01*
X21874671Y-77977992D01*
X21874671Y-77978007D01*
X21893964Y-78272363D01*
X21893965Y-78272373D01*
X21893966Y-78272380D01*
X21921808Y-78412355D01*
X21951518Y-78561716D01*
X21951521Y-78561730D01*
X22046349Y-78841080D01*
X22176825Y-79105660D01*
X22176829Y-79105667D01*
X22340725Y-79350955D01*
X22535241Y-79572758D01*
X22757043Y-79767273D01*
X23002335Y-79931172D01*
X23266923Y-80061652D01*
X23546278Y-80156481D01*
X23835620Y-80214034D01*
X23863888Y-80215886D01*
X24129993Y-80233329D01*
X24130000Y-80233329D01*
X24130007Y-80233329D01*
X24365675Y-80217881D01*
X24424380Y-80214034D01*
X24713722Y-80156481D01*
X24993077Y-80061652D01*
X25257665Y-79931172D01*
X25502957Y-79767273D01*
X25724758Y-79572758D01*
X25919273Y-79350957D01*
X26083172Y-79105665D01*
X26213652Y-78841077D01*
X26308481Y-78561722D01*
X26366034Y-78272380D01*
X26378712Y-78078951D01*
X26385329Y-77978007D01*
X26385329Y-77977992D01*
X26366035Y-77683636D01*
X26366034Y-77683620D01*
X26308481Y-77394278D01*
X26274713Y-77294800D01*
X48462540Y-77294800D01*
X48482326Y-77483056D01*
X48482327Y-77483059D01*
X48540818Y-77663077D01*
X48540821Y-77663084D01*
X48635467Y-77827016D01*
X48762129Y-77967688D01*
X48915265Y-78078948D01*
X48915270Y-78078951D01*
X49088192Y-78155942D01*
X49088193Y-78155942D01*
X49088197Y-78155944D01*
X49260189Y-78192501D01*
X49321670Y-78225693D01*
X49322089Y-78226110D01*
X49336466Y-78240487D01*
X49432709Y-78336730D01*
X49432714Y-78336735D01*
X49545882Y-78412352D01*
X49545895Y-78412359D01*
X49671638Y-78464443D01*
X49671643Y-78464445D01*
X49671647Y-78464445D01*
X49671648Y-78464446D01*
X49805139Y-78491000D01*
X49805142Y-78491000D01*
X53518060Y-78491000D01*
X53607870Y-78473134D01*
X53651557Y-78464445D01*
X53777311Y-78412356D01*
X53890487Y-78336735D01*
X54249230Y-77977992D01*
X76992671Y-77977992D01*
X76992671Y-77978007D01*
X77011964Y-78272363D01*
X77011965Y-78272373D01*
X77011966Y-78272380D01*
X77039808Y-78412355D01*
X77069518Y-78561716D01*
X77069521Y-78561730D01*
X77164349Y-78841080D01*
X77294825Y-79105660D01*
X77294829Y-79105667D01*
X77458725Y-79350955D01*
X77653241Y-79572758D01*
X77875043Y-79767273D01*
X78120335Y-79931172D01*
X78384923Y-80061652D01*
X78664278Y-80156481D01*
X78953620Y-80214034D01*
X78981888Y-80215886D01*
X79247993Y-80233329D01*
X79248000Y-80233329D01*
X79248007Y-80233329D01*
X79483675Y-80217881D01*
X79542380Y-80214034D01*
X79831722Y-80156481D01*
X80111077Y-80061652D01*
X80375665Y-79931172D01*
X80620957Y-79767273D01*
X80842758Y-79572758D01*
X81037273Y-79350957D01*
X81201172Y-79105665D01*
X81331652Y-78841077D01*
X81426481Y-78561722D01*
X81484034Y-78272380D01*
X81496712Y-78078951D01*
X81503329Y-77978007D01*
X81503329Y-77977992D01*
X81484035Y-77683636D01*
X81484034Y-77683620D01*
X81426481Y-77394278D01*
X81331652Y-77114923D01*
X81201172Y-76850336D01*
X81037273Y-76605043D01*
X80954493Y-76510651D01*
X80842758Y-76383241D01*
X80620955Y-76188725D01*
X80375667Y-76024829D01*
X80375660Y-76024825D01*
X80111080Y-75894349D01*
X79831730Y-75799521D01*
X79831724Y-75799519D01*
X79831722Y-75799519D01*
X79542380Y-75741966D01*
X79542373Y-75741965D01*
X79542363Y-75741964D01*
X79248007Y-75722671D01*
X79247993Y-75722671D01*
X78953636Y-75741964D01*
X78953624Y-75741965D01*
X78953620Y-75741966D01*
X78953612Y-75741967D01*
X78953609Y-75741968D01*
X78664283Y-75799518D01*
X78664269Y-75799521D01*
X78384919Y-75894349D01*
X78120334Y-76024828D01*
X77875041Y-76188728D01*
X77653241Y-76383241D01*
X77458728Y-76605041D01*
X77294828Y-76850334D01*
X77164349Y-77114919D01*
X77069521Y-77394269D01*
X77069518Y-77394283D01*
X77011968Y-77683609D01*
X77011964Y-77683636D01*
X76992671Y-77977992D01*
X54249230Y-77977992D01*
X54962435Y-77264787D01*
X55038056Y-77151611D01*
X55090145Y-77025857D01*
X55109905Y-76926516D01*
X55116700Y-76892358D01*
X55116700Y-70661884D01*
X55136385Y-70594845D01*
X55153019Y-70574203D01*
X59249903Y-66477319D01*
X59311226Y-66443834D01*
X59337584Y-66441000D01*
X62505048Y-66441000D01*
X62572087Y-66460685D01*
X62592729Y-66477319D01*
X63514261Y-67398851D01*
X63547746Y-67460174D01*
X63542762Y-67529866D01*
X63500890Y-67585799D01*
X63497704Y-67588107D01*
X63378594Y-67671508D01*
X63211505Y-67838597D01*
X63081575Y-68024158D01*
X63026998Y-68067783D01*
X62957500Y-68074977D01*
X62895145Y-68043454D01*
X62878425Y-68024158D01*
X62748494Y-67838597D01*
X62581402Y-67671506D01*
X62581395Y-67671501D01*
X62387834Y-67535967D01*
X62387830Y-67535965D01*
X62335500Y-67511563D01*
X62173663Y-67436097D01*
X62173659Y-67436096D01*
X62173655Y-67436094D01*
X61945413Y-67374938D01*
X61945403Y-67374936D01*
X61710001Y-67354341D01*
X61709999Y-67354341D01*
X61474596Y-67374936D01*
X61474586Y-67374938D01*
X61246344Y-67436094D01*
X61246335Y-67436098D01*
X61032171Y-67535964D01*
X61032169Y-67535965D01*
X60838597Y-67671505D01*
X60671505Y-67838597D01*
X60535965Y-68032169D01*
X60535964Y-68032171D01*
X60436098Y-68246335D01*
X60436094Y-68246344D01*
X60374938Y-68474586D01*
X60374936Y-68474596D01*
X60354341Y-68709999D01*
X60354341Y-68710000D01*
X60374936Y-68945403D01*
X60374938Y-68945413D01*
X60436094Y-69173655D01*
X60436096Y-69173659D01*
X60436097Y-69173663D01*
X60516004Y-69345023D01*
X60535965Y-69387830D01*
X60535967Y-69387834D01*
X60644281Y-69542521D01*
X60671501Y-69581396D01*
X60671506Y-69581402D01*
X60793430Y-69703326D01*
X60826915Y-69764649D01*
X60821931Y-69834341D01*
X60780059Y-69890274D01*
X60749083Y-69907189D01*
X60617669Y-69956203D01*
X60617664Y-69956206D01*
X60502455Y-70042452D01*
X60502452Y-70042455D01*
X60416206Y-70157664D01*
X60416202Y-70157671D01*
X60365908Y-70292517D01*
X60359501Y-70352116D01*
X60359500Y-70352135D01*
X60359500Y-72147870D01*
X60359501Y-72147876D01*
X60365908Y-72207483D01*
X60416202Y-72342328D01*
X60416206Y-72342335D01*
X60502452Y-72457544D01*
X60502455Y-72457547D01*
X60617664Y-72543793D01*
X60617671Y-72543797D01*
X60752517Y-72594091D01*
X60752516Y-72594091D01*
X60759444Y-72594835D01*
X60812127Y-72600500D01*
X62607872Y-72600499D01*
X62667483Y-72594091D01*
X62802331Y-72543796D01*
X62917546Y-72457546D01*
X63003796Y-72342331D01*
X63052810Y-72210916D01*
X63094681Y-72154984D01*
X63160145Y-72130566D01*
X63228418Y-72145417D01*
X63256673Y-72166569D01*
X63378599Y-72288495D01*
X63453658Y-72341052D01*
X63466747Y-72350217D01*
X63510372Y-72404794D01*
X63517564Y-72474293D01*
X63486042Y-72536647D01*
X63483304Y-72539473D01*
X62000097Y-74022681D01*
X61938774Y-74056166D01*
X61912416Y-74059000D01*
X58871232Y-74059000D01*
X58804193Y-74039315D01*
X58798347Y-74035318D01*
X58702734Y-73965851D01*
X58702729Y-73965848D01*
X58529807Y-73888857D01*
X58529802Y-73888855D01*
X58384001Y-73857865D01*
X58344646Y-73849500D01*
X58155354Y-73849500D01*
X58122897Y-73856398D01*
X57970197Y-73888855D01*
X57970192Y-73888857D01*
X57797270Y-73965848D01*
X57797265Y-73965851D01*
X57644129Y-74077111D01*
X57517466Y-74217785D01*
X57422821Y-74381715D01*
X57422818Y-74381722D01*
X57364327Y-74561740D01*
X57364326Y-74561744D01*
X57344540Y-74750000D01*
X57364326Y-74938256D01*
X57364327Y-74938259D01*
X57422818Y-75118277D01*
X57422821Y-75118284D01*
X57517467Y-75282216D01*
X57636525Y-75414443D01*
X57644129Y-75422888D01*
X57797265Y-75534148D01*
X57797270Y-75534151D01*
X57970192Y-75611142D01*
X57970197Y-75611144D01*
X58155354Y-75650500D01*
X58155355Y-75650500D01*
X58344644Y-75650500D01*
X58344646Y-75650500D01*
X58529803Y-75611144D01*
X58702730Y-75534151D01*
X58718762Y-75522502D01*
X58798347Y-75464682D01*
X58864153Y-75441202D01*
X58871232Y-75441000D01*
X62318060Y-75441000D01*
X62409112Y-75422888D01*
X62451557Y-75414445D01*
X62577311Y-75362356D01*
X62624637Y-75330734D01*
X62690487Y-75286735D01*
X64786735Y-73190487D01*
X64862356Y-73077311D01*
X64914445Y-72951557D01*
X64941000Y-72818057D01*
X64941000Y-72681943D01*
X64941000Y-72479363D01*
X64960685Y-72412324D01*
X64993877Y-72377788D01*
X65121401Y-72288495D01*
X65288495Y-72121401D01*
X65418425Y-71935842D01*
X65473002Y-71892217D01*
X65542500Y-71885023D01*
X65604855Y-71916546D01*
X65621575Y-71935842D01*
X65751500Y-72121395D01*
X65751505Y-72121401D01*
X65918599Y-72288495D01*
X66006747Y-72350217D01*
X66112165Y-72424032D01*
X66112167Y-72424033D01*
X66112170Y-72424035D01*
X66326337Y-72523903D01*
X66554592Y-72585063D01*
X66731034Y-72600500D01*
X66789999Y-72605659D01*
X66790000Y-72605659D01*
X66790001Y-72605659D01*
X66848966Y-72600500D01*
X67025408Y-72585063D01*
X67253663Y-72523903D01*
X67467830Y-72424035D01*
X67661401Y-72288495D01*
X67828495Y-72121401D01*
X67964035Y-71927830D01*
X68063903Y-71713663D01*
X68125063Y-71485408D01*
X68145659Y-71250000D01*
X68125063Y-71014592D01*
X68063903Y-70786337D01*
X67964035Y-70572171D01*
X67958425Y-70564158D01*
X67828494Y-70378597D01*
X67661402Y-70211506D01*
X67661401Y-70211505D01*
X67475405Y-70081269D01*
X67431781Y-70026692D01*
X67424588Y-69957193D01*
X67456110Y-69894839D01*
X67475405Y-69878119D01*
X67661082Y-69748105D01*
X67828105Y-69581082D01*
X67963600Y-69387578D01*
X68063429Y-69173492D01*
X68063432Y-69173486D01*
X68120636Y-68960000D01*
X67223012Y-68960000D01*
X67255925Y-68902993D01*
X67290000Y-68775826D01*
X67290000Y-68644174D01*
X67255925Y-68517007D01*
X67223012Y-68460000D01*
X68120636Y-68460000D01*
X68120635Y-68459999D01*
X68063432Y-68246513D01*
X68063429Y-68246507D01*
X67963600Y-68032422D01*
X67963599Y-68032420D01*
X67828113Y-67838926D01*
X67828108Y-67838920D01*
X67661082Y-67671894D01*
X67467578Y-67536399D01*
X67253492Y-67436570D01*
X67253486Y-67436567D01*
X67040000Y-67379364D01*
X67040000Y-68276988D01*
X66982993Y-68244075D01*
X66855826Y-68210000D01*
X66724174Y-68210000D01*
X66597007Y-68244075D01*
X66540000Y-68276988D01*
X66540000Y-67379364D01*
X66539999Y-67379364D01*
X66326513Y-67436567D01*
X66326507Y-67436570D01*
X66112422Y-67536399D01*
X66112420Y-67536400D01*
X65918926Y-67671886D01*
X65918920Y-67671891D01*
X65751891Y-67838920D01*
X65751890Y-67838922D01*
X65621880Y-68024595D01*
X65567303Y-68068219D01*
X65497804Y-68075412D01*
X65435450Y-68043890D01*
X65418730Y-68024594D01*
X65288494Y-67838597D01*
X65121402Y-67671506D01*
X65121401Y-67671505D01*
X64959062Y-67557834D01*
X64928376Y-67536347D01*
X64884751Y-67481770D01*
X64875500Y-67434772D01*
X64875500Y-67188393D01*
X64875499Y-67188389D01*
X64851463Y-67067548D01*
X64804311Y-66953714D01*
X64804310Y-66953713D01*
X64804307Y-66953707D01*
X64735859Y-66851268D01*
X64735858Y-66851267D01*
X64648733Y-66764142D01*
X64648732Y-66764141D01*
X63418741Y-65534151D01*
X63391862Y-65493923D01*
X63362359Y-65422694D01*
X63362352Y-65422682D01*
X63286734Y-65309513D01*
X63286731Y-65309509D01*
X63190490Y-65213268D01*
X63190486Y-65213265D01*
X63077317Y-65137647D01*
X63077304Y-65137640D01*
X62951561Y-65085556D01*
X62951551Y-65085553D01*
X62818060Y-65059000D01*
X62818058Y-65059000D01*
X58931942Y-65059000D01*
X58931940Y-65059000D01*
X58839888Y-65077311D01*
X58839887Y-65077311D01*
X58798450Y-65085553D01*
X58798438Y-65085556D01*
X58672690Y-65137642D01*
X58672687Y-65137644D01*
X58559514Y-65213263D01*
X58559507Y-65213269D01*
X53888969Y-69883807D01*
X53888963Y-69883814D01*
X53822087Y-69983903D01*
X53822087Y-69983905D01*
X53813342Y-69996991D01*
X53813341Y-69996993D01*
X53761256Y-70122738D01*
X53761253Y-70122748D01*
X53734700Y-70256239D01*
X53734700Y-76486716D01*
X53715015Y-76553755D01*
X53698381Y-76574397D01*
X53200097Y-77072681D01*
X53138774Y-77106166D01*
X53112416Y-77109000D01*
X50344563Y-77109000D01*
X50277524Y-77089315D01*
X50231769Y-77036511D01*
X50226632Y-77023318D01*
X50195181Y-76926521D01*
X50195179Y-76926518D01*
X50195179Y-76926516D01*
X50100533Y-76762584D01*
X49973871Y-76621912D01*
X49950650Y-76605041D01*
X49820734Y-76510651D01*
X49820729Y-76510648D01*
X49647807Y-76433657D01*
X49647802Y-76433655D01*
X49502001Y-76402665D01*
X49462646Y-76394300D01*
X49273354Y-76394300D01*
X49240897Y-76401198D01*
X49088197Y-76433655D01*
X49088192Y-76433657D01*
X48915270Y-76510648D01*
X48915265Y-76510651D01*
X48762129Y-76621911D01*
X48635466Y-76762585D01*
X48540821Y-76926515D01*
X48540818Y-76926522D01*
X48487924Y-77089315D01*
X48482326Y-77106544D01*
X48462540Y-77294800D01*
X26274713Y-77294800D01*
X26213652Y-77114923D01*
X26083172Y-76850336D01*
X25919273Y-76605043D01*
X25836493Y-76510651D01*
X25724758Y-76383241D01*
X25502955Y-76188725D01*
X25257667Y-76024829D01*
X25257660Y-76024825D01*
X24993080Y-75894349D01*
X24713730Y-75799521D01*
X24713724Y-75799519D01*
X24713722Y-75799519D01*
X24424380Y-75741966D01*
X24424373Y-75741965D01*
X24424363Y-75741964D01*
X24130007Y-75722671D01*
X24129993Y-75722671D01*
X23835636Y-75741964D01*
X23835624Y-75741965D01*
X23835620Y-75741966D01*
X23835612Y-75741967D01*
X23835609Y-75741968D01*
X23546283Y-75799518D01*
X23546269Y-75799521D01*
X23266919Y-75894349D01*
X23002334Y-76024828D01*
X22757041Y-76188728D01*
X22535241Y-76383241D01*
X22340728Y-76605041D01*
X22176828Y-76850334D01*
X22046349Y-77114919D01*
X21951521Y-77394269D01*
X21951518Y-77394283D01*
X21893968Y-77683609D01*
X21893964Y-77683636D01*
X21874671Y-77977992D01*
X20800000Y-77977992D01*
X20800000Y-59259999D01*
X27644341Y-59259999D01*
X27644341Y-59260000D01*
X27664936Y-59495403D01*
X27664938Y-59495413D01*
X27726094Y-59723655D01*
X27726096Y-59723659D01*
X27726097Y-59723663D01*
X27808173Y-59899674D01*
X27825965Y-59937830D01*
X27825967Y-59937834D01*
X27961501Y-60131395D01*
X27961506Y-60131402D01*
X28128597Y-60298493D01*
X28128603Y-60298498D01*
X28314158Y-60428425D01*
X28357783Y-60483002D01*
X28364977Y-60552500D01*
X28333454Y-60614855D01*
X28314158Y-60631575D01*
X28128597Y-60761505D01*
X27961505Y-60928597D01*
X27825965Y-61122169D01*
X27825964Y-61122171D01*
X27726098Y-61336335D01*
X27726094Y-61336344D01*
X27664938Y-61564586D01*
X27664936Y-61564596D01*
X27644341Y-61799999D01*
X27644341Y-61800000D01*
X27664936Y-62035403D01*
X27664938Y-62035413D01*
X27726094Y-62263655D01*
X27726096Y-62263659D01*
X27726097Y-62263663D01*
X27825965Y-62477830D01*
X27825967Y-62477834D01*
X27961501Y-62671395D01*
X27961506Y-62671402D01*
X28128597Y-62838493D01*
X28128603Y-62838498D01*
X28314158Y-62968425D01*
X28357783Y-63023002D01*
X28364977Y-63092500D01*
X28333454Y-63154855D01*
X28314158Y-63171575D01*
X28128597Y-63301505D01*
X27961505Y-63468597D01*
X27825965Y-63662169D01*
X27825964Y-63662171D01*
X27726098Y-63876335D01*
X27726094Y-63876344D01*
X27664938Y-64104586D01*
X27664936Y-64104596D01*
X27644341Y-64339999D01*
X27644341Y-64340000D01*
X27664936Y-64575403D01*
X27664938Y-64575413D01*
X27726094Y-64803655D01*
X27726096Y-64803659D01*
X27726097Y-64803663D01*
X27825965Y-65017830D01*
X27825967Y-65017834D01*
X27961501Y-65211395D01*
X27961506Y-65211402D01*
X28128597Y-65378493D01*
X28128603Y-65378498D01*
X28314158Y-65508425D01*
X28357783Y-65563002D01*
X28364977Y-65632500D01*
X28333454Y-65694855D01*
X28314158Y-65711575D01*
X28128597Y-65841505D01*
X27961505Y-66008597D01*
X27825965Y-66202169D01*
X27825964Y-66202171D01*
X27726098Y-66416335D01*
X27726094Y-66416344D01*
X27664938Y-66644586D01*
X27664936Y-66644596D01*
X27644341Y-66879999D01*
X27644341Y-66880000D01*
X27664936Y-67115403D01*
X27664938Y-67115413D01*
X27726094Y-67343655D01*
X27726096Y-67343659D01*
X27726097Y-67343663D01*
X27780427Y-67460174D01*
X27825965Y-67557830D01*
X27825967Y-67557834D01*
X27934281Y-67712521D01*
X27961505Y-67751401D01*
X28128599Y-67918495D01*
X28225384Y-67986265D01*
X28322165Y-68054032D01*
X28322167Y-68054033D01*
X28322170Y-68054035D01*
X28536337Y-68153903D01*
X28764592Y-68215063D01*
X28952918Y-68231539D01*
X28999999Y-68235659D01*
X29000000Y-68235659D01*
X29000001Y-68235659D01*
X29039234Y-68232226D01*
X29235408Y-68215063D01*
X29463663Y-68153903D01*
X29677830Y-68054035D01*
X29871401Y-67918495D01*
X30038495Y-67751401D01*
X30174035Y-67557830D01*
X30273903Y-67343663D01*
X30335063Y-67115408D01*
X30355659Y-66880000D01*
X30335063Y-66644592D01*
X30273903Y-66416337D01*
X30174035Y-66202171D01*
X30038495Y-66008599D01*
X30038494Y-66008597D01*
X29871402Y-65841506D01*
X29871396Y-65841501D01*
X29685842Y-65711575D01*
X29642217Y-65656998D01*
X29635023Y-65587500D01*
X29666546Y-65525145D01*
X29685842Y-65508425D01*
X29748313Y-65464682D01*
X29871401Y-65378495D01*
X30038495Y-65211401D01*
X30174035Y-65017830D01*
X30273903Y-64803663D01*
X30335063Y-64575408D01*
X30355659Y-64340000D01*
X30335063Y-64104592D01*
X30277258Y-63888857D01*
X30273905Y-63876344D01*
X30273904Y-63876343D01*
X30273903Y-63876337D01*
X30174035Y-63662171D01*
X30148983Y-63626392D01*
X30038494Y-63468597D01*
X29871402Y-63301506D01*
X29871396Y-63301501D01*
X29685842Y-63171575D01*
X29642217Y-63116998D01*
X29635023Y-63047500D01*
X29666546Y-62985145D01*
X29685842Y-62968425D01*
X29784028Y-62899674D01*
X29871401Y-62838495D01*
X30038495Y-62671401D01*
X30174035Y-62477830D01*
X30273903Y-62263663D01*
X30335063Y-62035408D01*
X30355659Y-61800000D01*
X30335063Y-61564592D01*
X30288626Y-61391285D01*
X30273905Y-61336344D01*
X30273904Y-61336343D01*
X30273903Y-61336337D01*
X30174035Y-61122171D01*
X30158739Y-61100325D01*
X30038494Y-60928597D01*
X29871402Y-60761506D01*
X29871396Y-60761501D01*
X29685842Y-60631575D01*
X29642217Y-60576998D01*
X29635023Y-60507500D01*
X29666546Y-60445145D01*
X29685842Y-60428425D01*
X29757152Y-60378493D01*
X29871401Y-60298495D01*
X30038495Y-60131401D01*
X30174035Y-59937830D01*
X30273903Y-59723663D01*
X30335063Y-59495408D01*
X30355659Y-59260000D01*
X30335063Y-59024592D01*
X30273903Y-58796337D01*
X30174035Y-58582171D01*
X30116498Y-58500000D01*
X30046478Y-58399999D01*
X36044341Y-58399999D01*
X36044341Y-58400000D01*
X36064936Y-58635403D01*
X36064938Y-58635413D01*
X36126094Y-58863655D01*
X36126096Y-58863659D01*
X36126097Y-58863663D01*
X36201137Y-59024586D01*
X36225965Y-59077830D01*
X36225967Y-59077834D01*
X36292525Y-59172888D01*
X36361505Y-59271401D01*
X36528599Y-59438495D01*
X36609872Y-59495403D01*
X36722165Y-59574032D01*
X36722167Y-59574033D01*
X36722170Y-59574035D01*
X36936337Y-59673903D01*
X37164592Y-59735063D01*
X37352918Y-59751539D01*
X37399999Y-59755659D01*
X37400000Y-59755659D01*
X37400001Y-59755659D01*
X37439234Y-59752226D01*
X37635408Y-59735063D01*
X37863663Y-59673903D01*
X38077830Y-59574035D01*
X38271401Y-59438495D01*
X38438495Y-59271401D01*
X38574035Y-59077830D01*
X38673903Y-58863663D01*
X38735063Y-58635408D01*
X38755659Y-58400000D01*
X38735063Y-58164592D01*
X38673903Y-57936337D01*
X38574035Y-57722171D01*
X38542671Y-57677379D01*
X38438496Y-57528600D01*
X38387726Y-57477830D01*
X38316567Y-57406671D01*
X38283084Y-57345351D01*
X38288068Y-57275659D01*
X38329939Y-57219725D01*
X38360915Y-57202810D01*
X38492331Y-57153796D01*
X38607546Y-57067546D01*
X38693796Y-56952331D01*
X38744091Y-56817483D01*
X38750500Y-56757873D01*
X38750499Y-54962128D01*
X38744091Y-54902517D01*
X38728832Y-54861606D01*
X38693797Y-54767671D01*
X38693793Y-54767664D01*
X38607547Y-54652455D01*
X38607544Y-54652452D01*
X38492335Y-54566206D01*
X38492328Y-54566202D01*
X38357482Y-54515908D01*
X38357483Y-54515908D01*
X38297883Y-54509501D01*
X38297881Y-54509500D01*
X38297873Y-54509500D01*
X38297864Y-54509500D01*
X36502129Y-54509500D01*
X36502123Y-54509501D01*
X36442516Y-54515908D01*
X36307671Y-54566202D01*
X36307664Y-54566206D01*
X36192455Y-54652452D01*
X36192452Y-54652455D01*
X36106206Y-54767664D01*
X36106202Y-54767671D01*
X36055908Y-54902517D01*
X36049501Y-54962116D01*
X36049501Y-54962123D01*
X36049500Y-54962135D01*
X36049500Y-56757870D01*
X36049501Y-56757876D01*
X36055908Y-56817483D01*
X36106202Y-56952328D01*
X36106206Y-56952335D01*
X36192452Y-57067544D01*
X36192455Y-57067547D01*
X36307664Y-57153793D01*
X36307671Y-57153797D01*
X36439081Y-57202810D01*
X36495015Y-57244681D01*
X36519432Y-57310145D01*
X36504580Y-57378418D01*
X36483430Y-57406673D01*
X36361503Y-57528600D01*
X36225965Y-57722169D01*
X36225964Y-57722171D01*
X36126098Y-57936335D01*
X36126094Y-57936344D01*
X36064938Y-58164586D01*
X36064936Y-58164596D01*
X36044341Y-58399999D01*
X30046478Y-58399999D01*
X30038496Y-58388600D01*
X30038495Y-58388599D01*
X29916179Y-58266283D01*
X29882696Y-58204963D01*
X29887680Y-58135271D01*
X29929551Y-58079337D01*
X29960529Y-58062422D01*
X30092086Y-58013354D01*
X30092093Y-58013350D01*
X30207187Y-57927190D01*
X30207190Y-57927187D01*
X30293350Y-57812093D01*
X30293354Y-57812086D01*
X30343596Y-57677379D01*
X30343598Y-57677372D01*
X30349999Y-57617844D01*
X30350000Y-57617827D01*
X30350000Y-56970000D01*
X29433012Y-56970000D01*
X29465925Y-56912993D01*
X29500000Y-56785826D01*
X29500000Y-56654174D01*
X29465925Y-56527007D01*
X29433012Y-56470000D01*
X30350000Y-56470000D01*
X30350000Y-55822172D01*
X30349999Y-55822155D01*
X30343598Y-55762627D01*
X30343596Y-55762620D01*
X30293354Y-55627913D01*
X30293350Y-55627906D01*
X30207190Y-55512812D01*
X30207187Y-55512809D01*
X30092093Y-55426649D01*
X30092086Y-55426645D01*
X29957379Y-55376403D01*
X29957372Y-55376401D01*
X29897844Y-55370000D01*
X29250000Y-55370000D01*
X29250000Y-56286988D01*
X29192993Y-56254075D01*
X29065826Y-56220000D01*
X28934174Y-56220000D01*
X28807007Y-56254075D01*
X28750000Y-56286988D01*
X28750000Y-55370000D01*
X28102155Y-55370000D01*
X28042627Y-55376401D01*
X28042620Y-55376403D01*
X27907913Y-55426645D01*
X27907906Y-55426649D01*
X27792812Y-55512809D01*
X27792809Y-55512812D01*
X27706649Y-55627906D01*
X27706645Y-55627913D01*
X27656403Y-55762620D01*
X27656401Y-55762627D01*
X27650000Y-55822155D01*
X27650000Y-56470000D01*
X28566988Y-56470000D01*
X28534075Y-56527007D01*
X28500000Y-56654174D01*
X28500000Y-56785826D01*
X28534075Y-56912993D01*
X28566988Y-56970000D01*
X27650000Y-56970000D01*
X27650000Y-57617844D01*
X27656401Y-57677372D01*
X27656403Y-57677379D01*
X27706645Y-57812086D01*
X27706649Y-57812093D01*
X27792809Y-57927187D01*
X27792812Y-57927190D01*
X27907906Y-58013350D01*
X27907913Y-58013354D01*
X28039470Y-58062421D01*
X28095403Y-58104292D01*
X28119821Y-58169756D01*
X28104970Y-58238029D01*
X28083819Y-58266284D01*
X27961503Y-58388600D01*
X27825965Y-58582169D01*
X27825964Y-58582171D01*
X27726098Y-58796335D01*
X27726094Y-58796344D01*
X27664938Y-59024586D01*
X27664936Y-59024596D01*
X27644341Y-59259999D01*
X20800000Y-59259999D01*
X20800000Y-52000000D01*
X26094540Y-52000000D01*
X26114326Y-52188256D01*
X26114327Y-52188259D01*
X26172818Y-52368277D01*
X26172821Y-52368284D01*
X26267467Y-52532216D01*
X26388401Y-52666526D01*
X26394129Y-52672888D01*
X26547265Y-52784148D01*
X26547270Y-52784151D01*
X26720192Y-52861142D01*
X26720197Y-52861144D01*
X26905354Y-52900500D01*
X26905355Y-52900500D01*
X27094644Y-52900500D01*
X27094646Y-52900500D01*
X27279803Y-52861144D01*
X27452730Y-52784151D01*
X27605871Y-52672888D01*
X27608788Y-52669647D01*
X27611600Y-52666526D01*
X27671087Y-52629879D01*
X27703748Y-52625500D01*
X27804169Y-52625500D01*
X27871208Y-52645185D01*
X27916963Y-52697989D01*
X27926907Y-52767147D01*
X27922100Y-52787818D01*
X27917730Y-52801269D01*
X27914326Y-52811744D01*
X27894540Y-53000000D01*
X27914326Y-53188256D01*
X27914327Y-53188259D01*
X27972818Y-53368277D01*
X27972821Y-53368284D01*
X28067467Y-53532216D01*
X28112447Y-53582171D01*
X28194129Y-53672888D01*
X28347265Y-53784148D01*
X28347270Y-53784151D01*
X28520192Y-53861142D01*
X28520197Y-53861144D01*
X28705354Y-53900500D01*
X28705355Y-53900500D01*
X28894644Y-53900500D01*
X28894646Y-53900500D01*
X29079803Y-53861144D01*
X29120921Y-53842836D01*
X29135781Y-53836221D01*
X29186217Y-53825500D01*
X38489548Y-53825500D01*
X38556587Y-53845185D01*
X38577229Y-53861819D01*
X39461038Y-54745629D01*
X39494523Y-54806952D01*
X39496678Y-54820348D01*
X39501015Y-54861606D01*
X39514326Y-54988256D01*
X39514327Y-54988259D01*
X39572818Y-55168277D01*
X39572821Y-55168284D01*
X39667467Y-55332216D01*
X39752495Y-55426649D01*
X39794129Y-55472888D01*
X39947265Y-55584148D01*
X39947270Y-55584151D01*
X40120191Y-55661142D01*
X40120193Y-55661142D01*
X40120197Y-55661144D01*
X40155839Y-55668719D01*
X40217318Y-55701910D01*
X40217738Y-55702328D01*
X47612788Y-63097378D01*
X47646273Y-63158701D01*
X47643038Y-63223377D01*
X47614327Y-63311740D01*
X47614326Y-63311743D01*
X47597840Y-63468599D01*
X47594540Y-63500000D01*
X47614326Y-63688256D01*
X47614327Y-63688259D01*
X47672818Y-63868277D01*
X47672821Y-63868284D01*
X47767467Y-64032216D01*
X47894129Y-64172888D01*
X48047265Y-64284148D01*
X48047270Y-64284151D01*
X48220192Y-64361142D01*
X48220197Y-64361144D01*
X48405354Y-64400500D01*
X48405355Y-64400500D01*
X48594644Y-64400500D01*
X48594646Y-64400500D01*
X48779803Y-64361144D01*
X48952730Y-64284151D01*
X49105871Y-64172888D01*
X49232533Y-64032216D01*
X49327179Y-63868284D01*
X49382069Y-63699351D01*
X49421506Y-63641675D01*
X49485865Y-63614477D01*
X49554711Y-63626392D01*
X49606187Y-63673636D01*
X49617931Y-63699351D01*
X49672818Y-63868277D01*
X49672821Y-63868284D01*
X49767467Y-64032216D01*
X49894129Y-64172888D01*
X50047265Y-64284148D01*
X50047270Y-64284151D01*
X50220192Y-64361142D01*
X50220197Y-64361144D01*
X50405354Y-64400500D01*
X50405355Y-64400500D01*
X50594644Y-64400500D01*
X50594646Y-64400500D01*
X50779803Y-64361144D01*
X50952730Y-64284151D01*
X51105871Y-64172888D01*
X51232533Y-64032216D01*
X51327179Y-63868284D01*
X51385674Y-63688256D01*
X51405460Y-63500000D01*
X51385674Y-63311744D01*
X51327179Y-63131716D01*
X51232533Y-62967784D01*
X51188153Y-62918495D01*
X51157350Y-62884284D01*
X51127120Y-62821292D01*
X51125500Y-62801312D01*
X51125500Y-57567741D01*
X51125501Y-57567720D01*
X51125501Y-57438391D01*
X51101464Y-57317555D01*
X51101463Y-57317549D01*
X51054312Y-57203715D01*
X50985858Y-57101267D01*
X50985855Y-57101263D01*
X50384591Y-56499999D01*
X57359635Y-56499999D01*
X57359635Y-56500000D01*
X57379051Y-56709537D01*
X57379051Y-56709539D01*
X57379052Y-56709542D01*
X57409764Y-56817483D01*
X57436642Y-56911950D01*
X57530442Y-57100325D01*
X57620816Y-57220000D01*
X57657261Y-57268260D01*
X57768537Y-57369700D01*
X57804819Y-57429411D01*
X57809000Y-57461338D01*
X57809000Y-59538660D01*
X57789315Y-59605699D01*
X57768538Y-59630297D01*
X57657261Y-59731738D01*
X57530442Y-59899674D01*
X57436642Y-60088049D01*
X57379051Y-60290462D01*
X57359635Y-60499999D01*
X57359635Y-60500000D01*
X57379051Y-60709537D01*
X57379051Y-60709539D01*
X57379052Y-60709542D01*
X57416599Y-60841505D01*
X57436642Y-60911950D01*
X57484767Y-61008597D01*
X57530442Y-61100325D01*
X57657260Y-61268259D01*
X57731946Y-61336344D01*
X57768537Y-61369700D01*
X57804819Y-61429411D01*
X57809000Y-61461338D01*
X57809000Y-62538660D01*
X57789315Y-62605699D01*
X57768538Y-62630297D01*
X57657261Y-62731738D01*
X57530442Y-62899674D01*
X57436642Y-63088049D01*
X57379051Y-63290462D01*
X57359635Y-63499999D01*
X57359635Y-63500000D01*
X57379051Y-63709537D01*
X57379051Y-63709539D01*
X57379052Y-63709542D01*
X57436641Y-63911947D01*
X57436642Y-63911950D01*
X57530442Y-64100325D01*
X57657261Y-64268260D01*
X57812776Y-64410030D01*
X57812778Y-64410032D01*
X57991692Y-64520811D01*
X57991698Y-64520814D01*
X58033268Y-64536918D01*
X58187924Y-64596832D01*
X58394780Y-64635500D01*
X58394782Y-64635500D01*
X58605218Y-64635500D01*
X58605220Y-64635500D01*
X58812076Y-64596832D01*
X59008304Y-64520813D01*
X59187223Y-64410031D01*
X59342740Y-64268259D01*
X59469558Y-64100325D01*
X59563359Y-63911947D01*
X59620948Y-63709542D01*
X59640365Y-63500000D01*
X59620948Y-63290458D01*
X59563359Y-63088053D01*
X59469558Y-62899675D01*
X59362548Y-62757971D01*
X59342738Y-62731738D01*
X59231462Y-62630297D01*
X59195180Y-62570586D01*
X59191000Y-62538660D01*
X59191000Y-61461338D01*
X59210685Y-61394299D01*
X59231463Y-61369700D01*
X59342740Y-61268259D01*
X59469558Y-61100325D01*
X59563359Y-60911947D01*
X59620948Y-60709542D01*
X59640365Y-60500000D01*
X59620948Y-60290458D01*
X59563359Y-60088053D01*
X59469558Y-59899675D01*
X59342740Y-59731741D01*
X59342738Y-59731738D01*
X59231462Y-59630297D01*
X59195180Y-59570586D01*
X59191000Y-59538660D01*
X59191000Y-57461338D01*
X59210685Y-57394299D01*
X59231463Y-57369700D01*
X59288664Y-57317555D01*
X59342740Y-57268259D01*
X59469558Y-57100325D01*
X59563359Y-56911947D01*
X59620948Y-56709542D01*
X59640365Y-56500000D01*
X59620948Y-56290458D01*
X59563359Y-56088053D01*
X59469558Y-55899675D01*
X59342740Y-55731741D01*
X59310475Y-55702328D01*
X59187223Y-55589969D01*
X59187221Y-55589967D01*
X59008307Y-55479188D01*
X59008301Y-55479185D01*
X58853648Y-55419273D01*
X58812076Y-55403168D01*
X58605220Y-55364500D01*
X58394780Y-55364500D01*
X58187924Y-55403168D01*
X58187921Y-55403168D01*
X58187921Y-55403169D01*
X57991698Y-55479185D01*
X57991692Y-55479188D01*
X57812778Y-55589967D01*
X57812776Y-55589969D01*
X57657261Y-55731739D01*
X57530442Y-55899674D01*
X57436642Y-56088049D01*
X57379051Y-56290462D01*
X57359635Y-56499999D01*
X50384591Y-56499999D01*
X48461819Y-54577227D01*
X48428334Y-54515904D01*
X48425500Y-54489546D01*
X48425500Y-54202135D01*
X50576500Y-54202135D01*
X50576500Y-55297870D01*
X50576501Y-55297876D01*
X50582908Y-55357483D01*
X50633202Y-55492328D01*
X50633206Y-55492335D01*
X50719452Y-55607544D01*
X50719455Y-55607547D01*
X50834664Y-55693793D01*
X50834671Y-55693797D01*
X50969517Y-55744091D01*
X50969516Y-55744091D01*
X50976444Y-55744835D01*
X51029127Y-55750500D01*
X52124872Y-55750499D01*
X52184483Y-55744091D01*
X52319331Y-55693796D01*
X52434546Y-55607546D01*
X52520796Y-55492331D01*
X52571091Y-55357483D01*
X52577500Y-55297873D01*
X52577499Y-54259999D01*
X60644341Y-54259999D01*
X60644341Y-54260000D01*
X60664936Y-54495403D01*
X60664938Y-54495413D01*
X60726094Y-54723655D01*
X60726096Y-54723659D01*
X60726097Y-54723663D01*
X60771182Y-54820348D01*
X60825965Y-54937830D01*
X60825967Y-54937834D01*
X60961501Y-55131395D01*
X60961506Y-55131402D01*
X61128597Y-55298493D01*
X61128603Y-55298498D01*
X61314158Y-55428425D01*
X61357783Y-55483002D01*
X61364977Y-55552500D01*
X61333454Y-55614855D01*
X61314158Y-55631575D01*
X61128597Y-55761505D01*
X60961505Y-55928597D01*
X60825965Y-56122169D01*
X60825964Y-56122171D01*
X60726098Y-56336335D01*
X60726094Y-56336344D01*
X60664938Y-56564586D01*
X60664936Y-56564596D01*
X60644341Y-56799999D01*
X60644341Y-56800000D01*
X60664936Y-57035403D01*
X60664938Y-57035413D01*
X60726094Y-57263655D01*
X60726096Y-57263659D01*
X60726097Y-57263663D01*
X60787014Y-57394299D01*
X60825965Y-57477830D01*
X60825967Y-57477834D01*
X60961501Y-57671395D01*
X60961506Y-57671402D01*
X61128597Y-57838493D01*
X61128603Y-57838498D01*
X61314158Y-57968425D01*
X61357783Y-58023002D01*
X61364977Y-58092500D01*
X61333454Y-58154855D01*
X61314158Y-58171575D01*
X61128597Y-58301505D01*
X60961505Y-58468597D01*
X60825965Y-58662169D01*
X60825964Y-58662171D01*
X60726098Y-58876335D01*
X60726094Y-58876344D01*
X60664938Y-59104586D01*
X60664936Y-59104596D01*
X60644341Y-59339999D01*
X60644341Y-59340000D01*
X60664936Y-59575403D01*
X60664938Y-59575413D01*
X60726094Y-59803655D01*
X60726096Y-59803659D01*
X60726097Y-59803663D01*
X60788660Y-59937830D01*
X60825965Y-60017830D01*
X60825967Y-60017834D01*
X60961501Y-60211395D01*
X60961506Y-60211402D01*
X61128597Y-60378493D01*
X61128603Y-60378498D01*
X61314158Y-60508425D01*
X61357783Y-60563002D01*
X61364977Y-60632500D01*
X61333454Y-60694855D01*
X61314158Y-60711575D01*
X61128597Y-60841505D01*
X60961505Y-61008597D01*
X60825965Y-61202169D01*
X60825964Y-61202171D01*
X60726098Y-61416335D01*
X60726094Y-61416344D01*
X60664938Y-61644586D01*
X60664936Y-61644596D01*
X60644341Y-61879999D01*
X60644341Y-61880000D01*
X60664936Y-62115403D01*
X60664938Y-62115413D01*
X60726094Y-62343655D01*
X60726096Y-62343659D01*
X60726097Y-62343663D01*
X60788660Y-62477830D01*
X60825965Y-62557830D01*
X60825967Y-62557834D01*
X60865393Y-62614139D01*
X60961505Y-62751401D01*
X61128599Y-62918495D01*
X61207918Y-62974035D01*
X61322165Y-63054032D01*
X61322167Y-63054033D01*
X61322170Y-63054035D01*
X61536337Y-63153903D01*
X61536343Y-63153904D01*
X61536344Y-63153905D01*
X61591285Y-63168626D01*
X61764592Y-63215063D01*
X61952918Y-63231539D01*
X61999999Y-63235659D01*
X62000000Y-63235659D01*
X62000001Y-63235659D01*
X62039234Y-63232226D01*
X62235408Y-63215063D01*
X62262816Y-63207719D01*
X62332662Y-63209380D01*
X62382590Y-63239812D01*
X64429510Y-65286732D01*
X64429518Y-65286738D01*
X64495362Y-65330734D01*
X64542687Y-65362355D01*
X64542690Y-65362357D01*
X64668438Y-65414443D01*
X64668443Y-65414445D01*
X64668447Y-65414445D01*
X64668448Y-65414446D01*
X64801939Y-65441000D01*
X64801942Y-65441000D01*
X64801943Y-65441000D01*
X64938057Y-65441000D01*
X67878768Y-65441000D01*
X67945807Y-65460685D01*
X67951653Y-65464682D01*
X68047265Y-65534148D01*
X68047270Y-65534151D01*
X68220192Y-65611142D01*
X68220197Y-65611144D01*
X68405354Y-65650500D01*
X68405355Y-65650500D01*
X68594644Y-65650500D01*
X68594646Y-65650500D01*
X68779803Y-65611144D01*
X68952730Y-65534151D01*
X69105871Y-65422888D01*
X69232533Y-65282216D01*
X69327179Y-65118284D01*
X69385674Y-64938256D01*
X69405460Y-64750000D01*
X69385674Y-64561744D01*
X69327179Y-64381716D01*
X69232533Y-64217784D01*
X69105871Y-64077112D01*
X69053848Y-64039315D01*
X68952734Y-63965851D01*
X68952729Y-63965848D01*
X68779807Y-63888857D01*
X68779802Y-63888855D01*
X68634001Y-63857865D01*
X68594646Y-63849500D01*
X68405354Y-63849500D01*
X68372897Y-63856398D01*
X68220197Y-63888855D01*
X68220192Y-63888857D01*
X68047270Y-63965848D01*
X68047265Y-63965851D01*
X67951653Y-64035318D01*
X67885847Y-64058798D01*
X67878768Y-64059000D01*
X65207583Y-64059000D01*
X65140544Y-64039315D01*
X65119902Y-64022681D01*
X63359812Y-62262590D01*
X63326327Y-62201267D01*
X63327718Y-62142816D01*
X63335063Y-62115408D01*
X63355659Y-61880000D01*
X63335063Y-61644592D01*
X63273903Y-61416337D01*
X63174035Y-61202171D01*
X63118018Y-61122169D01*
X63038494Y-61008597D01*
X62871402Y-60841506D01*
X62871396Y-60841501D01*
X62685842Y-60711575D01*
X62642217Y-60656998D01*
X62635023Y-60587500D01*
X62666546Y-60525145D01*
X62685842Y-60508425D01*
X62776215Y-60445145D01*
X62871401Y-60378495D01*
X63038495Y-60211401D01*
X63174035Y-60017830D01*
X63273903Y-59803663D01*
X63335063Y-59575408D01*
X63355659Y-59340000D01*
X63335063Y-59104592D01*
X63273903Y-58876337D01*
X63174035Y-58662171D01*
X63155296Y-58635408D01*
X63038494Y-58468597D01*
X62871402Y-58301506D01*
X62871396Y-58301501D01*
X62685842Y-58171575D01*
X62642217Y-58116998D01*
X62635023Y-58047500D01*
X62666546Y-57985145D01*
X62685842Y-57968425D01*
X62731671Y-57936335D01*
X62871401Y-57838495D01*
X63038495Y-57671401D01*
X63174035Y-57477830D01*
X63273903Y-57263663D01*
X63335063Y-57035408D01*
X63355659Y-56800000D01*
X63351972Y-56757864D01*
X63347744Y-56709537D01*
X63335063Y-56564592D01*
X63273903Y-56336337D01*
X63174035Y-56122171D01*
X63150146Y-56088053D01*
X63038494Y-55928597D01*
X62871402Y-55761506D01*
X62871396Y-55761501D01*
X62685842Y-55631575D01*
X62642217Y-55576998D01*
X62635023Y-55507500D01*
X62666546Y-55445145D01*
X62685842Y-55428425D01*
X62855751Y-55309453D01*
X62871401Y-55298495D01*
X63038495Y-55131401D01*
X63174035Y-54937830D01*
X63273903Y-54723663D01*
X63335063Y-54495408D01*
X63355659Y-54260000D01*
X63335063Y-54024592D01*
X63327719Y-53997183D01*
X63329380Y-53927334D01*
X63359810Y-53877410D01*
X69036735Y-48200487D01*
X69112356Y-48087311D01*
X69164445Y-47961557D01*
X69189340Y-47836403D01*
X69191000Y-47828060D01*
X69191000Y-41914583D01*
X69210685Y-41847544D01*
X69227314Y-41826906D01*
X70199366Y-40854854D01*
X70260689Y-40821370D01*
X70297853Y-40819008D01*
X70412527Y-40829040D01*
X70478399Y-40834804D01*
X70478400Y-40834804D01*
X70478401Y-40834804D01*
X70514177Y-40831673D01*
X70693065Y-40816023D01*
X70901207Y-40760252D01*
X71096502Y-40669184D01*
X71273017Y-40545587D01*
X71390719Y-40427885D01*
X71452042Y-40394400D01*
X71521734Y-40399384D01*
X71566081Y-40427885D01*
X71683781Y-40545585D01*
X71683787Y-40545590D01*
X71860296Y-40669183D01*
X71860298Y-40669184D01*
X72055593Y-40760252D01*
X72055599Y-40760253D01*
X72055600Y-40760254D01*
X72105698Y-40773677D01*
X72263735Y-40816023D01*
X72435467Y-40831047D01*
X72478399Y-40834804D01*
X72478400Y-40834804D01*
X72478401Y-40834804D01*
X72514177Y-40831673D01*
X72693065Y-40816023D01*
X72901207Y-40760252D01*
X73096502Y-40669184D01*
X73273017Y-40545587D01*
X73425387Y-40393217D01*
X73548984Y-40216702D01*
X73640052Y-40021407D01*
X73695823Y-39813265D01*
X73714604Y-39598600D01*
X73695823Y-39383935D01*
X73640052Y-39175793D01*
X73548984Y-38980498D01*
X73519502Y-38938394D01*
X73425390Y-38803987D01*
X73425385Y-38803981D01*
X73273018Y-38651614D01*
X73273012Y-38651609D01*
X73096503Y-38528016D01*
X73096501Y-38528015D01*
X72998854Y-38482482D01*
X72901207Y-38436948D01*
X72901203Y-38436947D01*
X72901199Y-38436945D01*
X72693070Y-38381178D01*
X72693060Y-38381176D01*
X72478401Y-38362396D01*
X72478399Y-38362396D01*
X72263739Y-38381176D01*
X72263729Y-38381178D01*
X72055600Y-38436945D01*
X72055591Y-38436949D01*
X71860298Y-38528015D01*
X71860296Y-38528016D01*
X71683787Y-38651609D01*
X71683781Y-38651614D01*
X71566081Y-38769315D01*
X71504758Y-38802800D01*
X71435066Y-38797816D01*
X71390719Y-38769315D01*
X71273018Y-38651614D01*
X71273012Y-38651609D01*
X71096503Y-38528016D01*
X71096501Y-38528015D01*
X70998854Y-38482482D01*
X70901207Y-38436948D01*
X70901203Y-38436947D01*
X70901199Y-38436945D01*
X70811676Y-38412958D01*
X70752015Y-38376593D01*
X70721486Y-38313746D01*
X70729781Y-38244371D01*
X70756088Y-38205502D01*
X70921047Y-38040544D01*
X71099772Y-37861819D01*
X71161095Y-37828334D01*
X71187453Y-37825500D01*
X72889548Y-37825500D01*
X72956587Y-37845185D01*
X72977229Y-37861819D01*
X74338181Y-39222771D01*
X74371666Y-39284094D01*
X74374500Y-39310452D01*
X74374500Y-41089547D01*
X74354815Y-41156586D01*
X74338181Y-41177228D01*
X71386141Y-44129267D01*
X71377593Y-44142061D01*
X71371955Y-44150500D01*
X71317690Y-44231710D01*
X71317685Y-44231719D01*
X71288549Y-44302062D01*
X71270538Y-44345543D01*
X71270538Y-44345545D01*
X71270537Y-44345548D01*
X71267447Y-44361084D01*
X71246500Y-44466396D01*
X71246500Y-45246210D01*
X71226815Y-45313249D01*
X71196812Y-45345476D01*
X71167457Y-45367451D01*
X71167451Y-45367457D01*
X71081206Y-45482664D01*
X71081202Y-45482671D01*
X71030908Y-45617517D01*
X71024501Y-45677116D01*
X71024500Y-45677135D01*
X71024500Y-47122870D01*
X71024501Y-47122876D01*
X71030908Y-47182483D01*
X71081202Y-47317328D01*
X71081206Y-47317335D01*
X71167452Y-47432544D01*
X71167455Y-47432547D01*
X71282664Y-47518793D01*
X71282671Y-47518797D01*
X71417517Y-47569091D01*
X71417516Y-47569091D01*
X71424444Y-47569835D01*
X71477127Y-47575500D01*
X72922872Y-47575499D01*
X72982483Y-47569091D01*
X73117331Y-47518796D01*
X73232546Y-47432546D01*
X73294785Y-47349404D01*
X73350718Y-47307535D01*
X73420410Y-47302551D01*
X73477588Y-47332078D01*
X73488568Y-47342088D01*
X73488570Y-47342089D01*
X73488571Y-47342090D01*
X73673786Y-47456770D01*
X73673792Y-47456773D01*
X73696664Y-47465633D01*
X73876931Y-47535470D01*
X74091074Y-47575500D01*
X74091076Y-47575500D01*
X74308924Y-47575500D01*
X74308926Y-47575500D01*
X74523069Y-47535470D01*
X74726210Y-47456772D01*
X74911432Y-47342088D01*
X75072427Y-47195322D01*
X75101047Y-47157422D01*
X75157153Y-47115787D01*
X75226865Y-47111094D01*
X75288048Y-47144836D01*
X75298946Y-47157414D01*
X75327573Y-47195322D01*
X75488568Y-47342088D01*
X75488575Y-47342092D01*
X75488576Y-47342093D01*
X75673786Y-47456770D01*
X75673792Y-47456773D01*
X75696664Y-47465633D01*
X75876931Y-47535470D01*
X76091074Y-47575500D01*
X76091076Y-47575500D01*
X76308924Y-47575500D01*
X76308926Y-47575500D01*
X76523069Y-47535470D01*
X76726210Y-47456772D01*
X76911432Y-47342088D01*
X77072427Y-47195322D01*
X77101047Y-47157422D01*
X77157153Y-47115787D01*
X77226865Y-47111094D01*
X77288048Y-47144836D01*
X77298946Y-47157414D01*
X77327573Y-47195322D01*
X77488568Y-47342088D01*
X77488575Y-47342092D01*
X77488576Y-47342093D01*
X77673786Y-47456770D01*
X77673792Y-47456773D01*
X77696664Y-47465633D01*
X77876931Y-47535470D01*
X78091074Y-47575500D01*
X78091076Y-47575500D01*
X78308924Y-47575500D01*
X78308926Y-47575500D01*
X78523069Y-47535470D01*
X78726210Y-47456772D01*
X78911432Y-47342088D01*
X79072427Y-47195322D01*
X79101047Y-47157422D01*
X79157153Y-47115787D01*
X79226865Y-47111094D01*
X79288048Y-47144836D01*
X79298946Y-47157414D01*
X79327573Y-47195322D01*
X79488568Y-47342088D01*
X79488575Y-47342092D01*
X79488576Y-47342093D01*
X79673786Y-47456770D01*
X79673792Y-47456773D01*
X79696664Y-47465633D01*
X79876931Y-47535470D01*
X80091074Y-47575500D01*
X80091076Y-47575500D01*
X80308924Y-47575500D01*
X80308926Y-47575500D01*
X80523069Y-47535470D01*
X80726210Y-47456772D01*
X80911432Y-47342088D01*
X81072427Y-47195322D01*
X81203712Y-47021472D01*
X81300817Y-46826459D01*
X81360435Y-46616923D01*
X81380536Y-46400000D01*
X81360435Y-46183077D01*
X81300817Y-45973541D01*
X81203712Y-45778528D01*
X81072427Y-45604678D01*
X81045016Y-45579690D01*
X80955996Y-45498537D01*
X80911432Y-45457912D01*
X80911428Y-45457909D01*
X80911423Y-45457906D01*
X80726213Y-45343229D01*
X80726207Y-45343226D01*
X80636000Y-45308280D01*
X80523069Y-45264530D01*
X80308926Y-45224500D01*
X80091074Y-45224500D01*
X79876931Y-45264530D01*
X79833896Y-45281202D01*
X79673792Y-45343226D01*
X79673786Y-45343229D01*
X79488576Y-45457906D01*
X79488566Y-45457913D01*
X79327573Y-45604676D01*
X79298953Y-45642576D01*
X79242844Y-45684211D01*
X79173132Y-45688902D01*
X79111950Y-45655159D01*
X79101047Y-45642576D01*
X79072426Y-45604676D01*
X78911433Y-45457913D01*
X78911423Y-45457906D01*
X78726213Y-45343229D01*
X78726207Y-45343226D01*
X78636000Y-45308280D01*
X78523069Y-45264530D01*
X78308926Y-45224500D01*
X78091074Y-45224500D01*
X77876931Y-45264530D01*
X77833896Y-45281202D01*
X77673792Y-45343226D01*
X77673786Y-45343229D01*
X77488576Y-45457906D01*
X77488566Y-45457913D01*
X77327573Y-45604676D01*
X77298953Y-45642576D01*
X77242844Y-45684211D01*
X77173132Y-45688902D01*
X77111950Y-45655159D01*
X77101047Y-45642576D01*
X77072426Y-45604676D01*
X76911433Y-45457913D01*
X76911423Y-45457906D01*
X76726213Y-45343229D01*
X76726207Y-45343226D01*
X76636000Y-45308280D01*
X76523069Y-45264530D01*
X76308926Y-45224500D01*
X76091074Y-45224500D01*
X75876931Y-45264530D01*
X75833896Y-45281202D01*
X75673792Y-45343226D01*
X75673786Y-45343229D01*
X75488576Y-45457906D01*
X75488566Y-45457913D01*
X75327573Y-45604676D01*
X75298953Y-45642576D01*
X75242844Y-45684211D01*
X75173132Y-45688902D01*
X75111950Y-45655159D01*
X75101047Y-45642576D01*
X75072426Y-45604676D01*
X74911433Y-45457913D01*
X74911423Y-45457906D01*
X74726213Y-45343229D01*
X74726207Y-45343226D01*
X74636000Y-45308280D01*
X74523069Y-45264530D01*
X74308926Y-45224500D01*
X74091074Y-45224500D01*
X73876931Y-45264530D01*
X73833896Y-45281202D01*
X73673792Y-45343226D01*
X73673786Y-45343229D01*
X73488565Y-45457913D01*
X73477585Y-45467923D01*
X73414780Y-45498537D01*
X73345393Y-45490336D01*
X73294785Y-45450594D01*
X73232548Y-45367457D01*
X73232546Y-45367454D01*
X73232544Y-45367453D01*
X73232544Y-45367452D01*
X73117335Y-45281206D01*
X73117328Y-45281202D01*
X72982482Y-45230908D01*
X72982483Y-45230908D01*
X72922883Y-45224501D01*
X72922881Y-45224500D01*
X72922873Y-45224500D01*
X72922865Y-45224500D01*
X72621500Y-45224500D01*
X72554461Y-45204815D01*
X72508706Y-45152011D01*
X72497500Y-45100500D01*
X72497500Y-44838451D01*
X72517185Y-44771412D01*
X72533814Y-44750775D01*
X75398729Y-41885860D01*
X75398733Y-41885858D01*
X75485858Y-41798733D01*
X75525867Y-41738856D01*
X75554312Y-41696286D01*
X75601463Y-41582451D01*
X75625500Y-41461607D01*
X75625500Y-41338393D01*
X75625500Y-38938394D01*
X75601463Y-38817548D01*
X75554311Y-38703714D01*
X75554310Y-38703713D01*
X75554307Y-38703707D01*
X75485859Y-38601268D01*
X75485858Y-38601267D01*
X75398733Y-38514142D01*
X75398732Y-38514141D01*
X73692927Y-36808337D01*
X73692925Y-36808334D01*
X73692925Y-36808335D01*
X73685858Y-36801268D01*
X73685858Y-36801267D01*
X73598733Y-36714142D01*
X73598732Y-36714141D01*
X73598731Y-36714140D01*
X73547509Y-36679915D01*
X73496286Y-36645688D01*
X73496279Y-36645685D01*
X73397782Y-36604887D01*
X73397779Y-36604885D01*
X73397778Y-36604885D01*
X73382455Y-36598538D01*
X73382453Y-36598537D01*
X73382452Y-36598537D01*
X73322029Y-36586518D01*
X73261610Y-36574500D01*
X73261607Y-36574500D01*
X73261606Y-36574500D01*
X70944741Y-36574500D01*
X70944721Y-36574499D01*
X70938607Y-36574499D01*
X70815394Y-36574499D01*
X70714597Y-36594548D01*
X70714592Y-36594548D01*
X70694549Y-36598536D01*
X70694547Y-36598536D01*
X70647397Y-36618067D01*
X70580719Y-36645685D01*
X70580717Y-36645686D01*
X70478266Y-36714141D01*
X70478263Y-36714144D01*
X68836883Y-38355525D01*
X68775560Y-38389010D01*
X68717112Y-38387620D01*
X68711329Y-38386070D01*
X68693065Y-38381177D01*
X68549955Y-38368656D01*
X68478401Y-38362396D01*
X68478396Y-38362396D01*
X68386753Y-38370413D01*
X68318253Y-38356646D01*
X68268071Y-38308030D01*
X68252138Y-38240001D01*
X68275514Y-38174158D01*
X68322139Y-38135169D01*
X68518640Y-38040540D01*
X68738510Y-37890635D01*
X68933583Y-37709633D01*
X69099501Y-37501580D01*
X69232556Y-37271121D01*
X69329777Y-37023405D01*
X69388993Y-36763967D01*
X69397857Y-36645685D01*
X69408879Y-36498604D01*
X69408879Y-36498595D01*
X69388994Y-36233242D01*
X69388994Y-36233240D01*
X69388993Y-36233236D01*
X69388993Y-36233233D01*
X69329777Y-35973795D01*
X69232556Y-35726079D01*
X69099501Y-35495620D01*
X68933583Y-35287567D01*
X68933582Y-35287566D01*
X68933579Y-35287562D01*
X68738510Y-35106565D01*
X68637185Y-35037483D01*
X68518640Y-34956660D01*
X68518636Y-34956658D01*
X68518633Y-34956656D01*
X68518632Y-34956655D01*
X68278884Y-34841200D01*
X68278886Y-34841200D01*
X68024595Y-34762761D01*
X68024589Y-34762759D01*
X67761462Y-34723100D01*
X67761455Y-34723100D01*
X67495345Y-34723100D01*
X67495337Y-34723100D01*
X67232210Y-34762759D01*
X67232204Y-34762761D01*
X66977914Y-34841200D01*
X66738169Y-34956655D01*
X66738160Y-34956660D01*
X66518292Y-35106563D01*
X66323220Y-35287562D01*
X66157299Y-35495620D01*
X66024244Y-35726078D01*
X65927025Y-35973789D01*
X65927020Y-35973806D01*
X65867805Y-36233240D01*
X65867805Y-36233242D01*
X65847921Y-36498595D01*
X65847921Y-36498604D01*
X65867805Y-36763957D01*
X65867805Y-36763959D01*
X65877934Y-36808338D01*
X65927023Y-37023405D01*
X66024244Y-37271121D01*
X66157299Y-37501580D01*
X66291306Y-37669618D01*
X66323220Y-37709637D01*
X66437732Y-37815888D01*
X66518290Y-37890635D01*
X66738161Y-38040540D01*
X66977914Y-38155999D01*
X66977915Y-38155999D01*
X66977918Y-38156001D01*
X67232206Y-38234439D01*
X67232207Y-38234439D01*
X67232210Y-38234440D01*
X67495337Y-38274099D01*
X67495342Y-38274099D01*
X67495345Y-38274100D01*
X67495346Y-38274100D01*
X67761454Y-38274100D01*
X67761455Y-38274100D01*
X67862711Y-38258838D01*
X67931934Y-38268311D01*
X67985048Y-38313705D01*
X68005188Y-38380609D01*
X67985960Y-38447781D01*
X67933597Y-38493834D01*
X67860303Y-38528012D01*
X67860296Y-38528016D01*
X67683787Y-38651609D01*
X67683781Y-38651614D01*
X67531414Y-38803981D01*
X67531409Y-38803987D01*
X67407816Y-38980496D01*
X67407815Y-38980498D01*
X67316749Y-39175791D01*
X67316745Y-39175800D01*
X67260978Y-39383929D01*
X67260976Y-39383939D01*
X67242196Y-39598599D01*
X67242196Y-39598600D01*
X67260976Y-39813260D01*
X67260978Y-39813270D01*
X67316745Y-40021399D01*
X67316747Y-40021403D01*
X67316748Y-40021407D01*
X67353351Y-40099901D01*
X67407815Y-40216701D01*
X67407816Y-40216703D01*
X67531409Y-40393212D01*
X67531414Y-40393218D01*
X67683781Y-40545585D01*
X67683787Y-40545590D01*
X67860296Y-40669183D01*
X67860298Y-40669184D01*
X68055593Y-40760252D01*
X68072066Y-40764666D01*
X68131726Y-40801029D01*
X68162257Y-40863875D01*
X68153963Y-40933251D01*
X68127657Y-40972120D01*
X67963265Y-41136513D01*
X67935659Y-41177830D01*
X67932920Y-41181929D01*
X67932919Y-41181930D01*
X67887647Y-41249683D01*
X67887640Y-41249695D01*
X67835556Y-41375438D01*
X67835553Y-41375448D01*
X67809000Y-41508939D01*
X67809000Y-47422415D01*
X67789315Y-47489454D01*
X67772681Y-47510096D01*
X63349096Y-51933681D01*
X63287773Y-51967166D01*
X63261415Y-51970000D01*
X62433012Y-51970000D01*
X62465925Y-51912993D01*
X62500000Y-51785826D01*
X62500000Y-51654174D01*
X62465925Y-51527007D01*
X62433012Y-51470000D01*
X63330636Y-51470000D01*
X63330635Y-51469999D01*
X63273432Y-51256513D01*
X63273429Y-51256507D01*
X63173600Y-51042422D01*
X63173599Y-51042420D01*
X63038113Y-50848926D01*
X63038108Y-50848920D01*
X62915665Y-50726477D01*
X62882180Y-50665154D01*
X62887164Y-50595462D01*
X62929036Y-50539529D01*
X62960013Y-50522614D01*
X63092086Y-50473354D01*
X63092093Y-50473350D01*
X63207187Y-50387190D01*
X63207190Y-50387187D01*
X63293350Y-50272093D01*
X63293354Y-50272086D01*
X63343596Y-50137379D01*
X63343598Y-50137372D01*
X63349999Y-50077844D01*
X63350000Y-50077827D01*
X63350000Y-49430000D01*
X62433012Y-49430000D01*
X62465925Y-49372993D01*
X62500000Y-49245826D01*
X62500000Y-49114174D01*
X62465925Y-48987007D01*
X62433012Y-48930000D01*
X63350000Y-48930000D01*
X63350000Y-48282172D01*
X63349999Y-48282155D01*
X63343598Y-48222627D01*
X63343596Y-48222620D01*
X63293354Y-48087913D01*
X63293350Y-48087906D01*
X63207190Y-47972812D01*
X63207187Y-47972809D01*
X63092093Y-47886649D01*
X63092086Y-47886645D01*
X62957379Y-47836403D01*
X62957372Y-47836401D01*
X62897844Y-47830000D01*
X62250000Y-47830000D01*
X62250000Y-48746988D01*
X62192993Y-48714075D01*
X62065826Y-48680000D01*
X61934174Y-48680000D01*
X61807007Y-48714075D01*
X61750000Y-48746988D01*
X61750000Y-47830000D01*
X61102155Y-47830000D01*
X61042627Y-47836401D01*
X61042620Y-47836403D01*
X60907913Y-47886645D01*
X60907906Y-47886649D01*
X60792812Y-47972809D01*
X60792809Y-47972812D01*
X60706649Y-48087906D01*
X60706645Y-48087913D01*
X60656403Y-48222620D01*
X60656401Y-48222627D01*
X60650000Y-48282155D01*
X60650000Y-48930000D01*
X61566988Y-48930000D01*
X61534075Y-48987007D01*
X61500000Y-49114174D01*
X61500000Y-49245826D01*
X61534075Y-49372993D01*
X61566988Y-49430000D01*
X60650000Y-49430000D01*
X60650000Y-50077844D01*
X60656401Y-50137372D01*
X60656403Y-50137379D01*
X60706645Y-50272086D01*
X60706649Y-50272093D01*
X60792809Y-50387187D01*
X60792812Y-50387190D01*
X60907906Y-50473350D01*
X60907913Y-50473354D01*
X61039986Y-50522614D01*
X61095920Y-50564485D01*
X61120337Y-50629949D01*
X61105486Y-50698222D01*
X61084335Y-50726477D01*
X60961886Y-50848926D01*
X60826400Y-51042420D01*
X60826399Y-51042422D01*
X60726570Y-51256507D01*
X60726567Y-51256513D01*
X60669364Y-51469999D01*
X60669364Y-51470000D01*
X61566988Y-51470000D01*
X61534075Y-51527007D01*
X61500000Y-51654174D01*
X61500000Y-51785826D01*
X61534075Y-51912993D01*
X61566988Y-51970000D01*
X60669364Y-51970000D01*
X60726567Y-52183486D01*
X60726570Y-52183492D01*
X60826399Y-52397578D01*
X60961894Y-52591082D01*
X61128917Y-52758105D01*
X61314595Y-52888119D01*
X61358219Y-52942696D01*
X61365412Y-53012195D01*
X61333890Y-53074549D01*
X61314595Y-53091269D01*
X61128594Y-53221508D01*
X60961505Y-53388597D01*
X60825965Y-53582169D01*
X60825964Y-53582171D01*
X60726098Y-53796335D01*
X60726094Y-53796344D01*
X60664938Y-54024586D01*
X60664936Y-54024596D01*
X60644341Y-54259999D01*
X52577499Y-54259999D01*
X52577499Y-54202128D01*
X52571091Y-54142517D01*
X52565345Y-54127112D01*
X52520797Y-54007671D01*
X52520793Y-54007664D01*
X52434547Y-53892455D01*
X52434544Y-53892452D01*
X52319335Y-53806206D01*
X52319328Y-53806202D01*
X52184482Y-53755908D01*
X52184483Y-53755908D01*
X52124883Y-53749501D01*
X52124881Y-53749500D01*
X52124873Y-53749500D01*
X52124864Y-53749500D01*
X51029129Y-53749500D01*
X51029123Y-53749501D01*
X50969516Y-53755908D01*
X50834671Y-53806202D01*
X50834664Y-53806206D01*
X50719455Y-53892452D01*
X50719452Y-53892455D01*
X50633206Y-54007664D01*
X50633202Y-54007671D01*
X50582908Y-54142517D01*
X50576501Y-54202116D01*
X50576501Y-54202123D01*
X50576500Y-54202135D01*
X48425500Y-54202135D01*
X48425500Y-52238396D01*
X48421841Y-52220000D01*
X48401463Y-52117548D01*
X48401461Y-52117545D01*
X48400274Y-52111573D01*
X48401610Y-52111307D01*
X48397877Y-52072137D01*
X48405460Y-52000000D01*
X48385674Y-51811744D01*
X48327179Y-51631716D01*
X48232533Y-51467784D01*
X48218443Y-51452135D01*
X50999500Y-51452135D01*
X50999500Y-52547870D01*
X50999501Y-52547876D01*
X51005908Y-52607483D01*
X51056202Y-52742328D01*
X51056206Y-52742335D01*
X51142452Y-52857544D01*
X51142455Y-52857547D01*
X51257664Y-52943793D01*
X51257671Y-52943797D01*
X51392517Y-52994091D01*
X51392516Y-52994091D01*
X51399444Y-52994835D01*
X51452127Y-53000500D01*
X52547872Y-53000499D01*
X52607483Y-52994091D01*
X52742331Y-52943796D01*
X52857546Y-52857546D01*
X52943796Y-52742331D01*
X52994091Y-52607483D01*
X53000500Y-52547873D01*
X53000499Y-51452128D01*
X52994091Y-51392517D01*
X52972069Y-51333474D01*
X52943797Y-51257671D01*
X52943793Y-51257664D01*
X52857547Y-51142455D01*
X52857544Y-51142452D01*
X52742335Y-51056206D01*
X52742328Y-51056202D01*
X52607482Y-51005908D01*
X52607483Y-51005908D01*
X52547883Y-50999501D01*
X52547881Y-50999500D01*
X52547873Y-50999500D01*
X52547864Y-50999500D01*
X51452129Y-50999500D01*
X51452123Y-50999501D01*
X51392516Y-51005908D01*
X51257671Y-51056202D01*
X51257664Y-51056206D01*
X51142455Y-51142452D01*
X51142452Y-51142455D01*
X51056206Y-51257664D01*
X51056202Y-51257671D01*
X51005908Y-51392517D01*
X50999501Y-51452116D01*
X50999501Y-51452123D01*
X50999500Y-51452135D01*
X48218443Y-51452135D01*
X48105871Y-51327112D01*
X48105870Y-51327111D01*
X47952734Y-51215851D01*
X47952729Y-51215848D01*
X47779807Y-51138857D01*
X47779802Y-51138855D01*
X47634001Y-51107865D01*
X47594646Y-51099500D01*
X47405354Y-51099500D01*
X47372897Y-51106398D01*
X47220197Y-51138855D01*
X47220192Y-51138857D01*
X47047270Y-51215848D01*
X47047265Y-51215851D01*
X46894130Y-51327110D01*
X46894126Y-51327114D01*
X46888400Y-51333474D01*
X46828913Y-51370121D01*
X46796252Y-51374500D01*
X27703748Y-51374500D01*
X27636709Y-51354815D01*
X27611600Y-51333474D01*
X27605873Y-51327114D01*
X27605869Y-51327110D01*
X27452734Y-51215851D01*
X27452729Y-51215848D01*
X27279807Y-51138857D01*
X27279802Y-51138855D01*
X27134001Y-51107865D01*
X27094646Y-51099500D01*
X26905354Y-51099500D01*
X26872897Y-51106398D01*
X26720197Y-51138855D01*
X26720192Y-51138857D01*
X26547270Y-51215848D01*
X26547265Y-51215851D01*
X26394129Y-51327111D01*
X26267466Y-51467785D01*
X26172821Y-51631715D01*
X26172818Y-51631722D01*
X26122747Y-51785826D01*
X26114326Y-51811744D01*
X26094540Y-52000000D01*
X20800000Y-52000000D01*
X20800000Y-46252135D01*
X44599500Y-46252135D01*
X44599500Y-47347870D01*
X44599501Y-47347876D01*
X44605908Y-47407483D01*
X44656202Y-47542328D01*
X44656206Y-47542335D01*
X44742452Y-47657544D01*
X44742455Y-47657547D01*
X44857664Y-47743793D01*
X44857671Y-47743797D01*
X44992517Y-47794091D01*
X44992516Y-47794091D01*
X44999444Y-47794835D01*
X45052127Y-47800500D01*
X46147872Y-47800499D01*
X46207483Y-47794091D01*
X46342331Y-47743796D01*
X46457546Y-47657546D01*
X46543796Y-47542331D01*
X46594091Y-47407483D01*
X46600500Y-47347873D01*
X46600500Y-46950135D01*
X55133500Y-46950135D01*
X55133500Y-48045870D01*
X55133501Y-48045876D01*
X55139908Y-48105483D01*
X55190202Y-48240328D01*
X55190206Y-48240335D01*
X55276452Y-48355544D01*
X55276455Y-48355547D01*
X55391664Y-48441793D01*
X55391671Y-48441797D01*
X55526517Y-48492091D01*
X55526516Y-48492091D01*
X55533444Y-48492835D01*
X55586127Y-48498500D01*
X56681872Y-48498499D01*
X56741483Y-48492091D01*
X56876331Y-48441796D01*
X56991546Y-48355546D01*
X57077796Y-48240331D01*
X57128091Y-48105483D01*
X57134500Y-48045873D01*
X57134499Y-46950128D01*
X57128091Y-46890517D01*
X57077796Y-46755669D01*
X57077795Y-46755668D01*
X57077793Y-46755664D01*
X56991547Y-46640455D01*
X56991544Y-46640452D01*
X56876335Y-46554206D01*
X56876328Y-46554202D01*
X56741482Y-46503908D01*
X56741483Y-46503908D01*
X56681883Y-46497501D01*
X56681881Y-46497500D01*
X56681873Y-46497500D01*
X56681864Y-46497500D01*
X55586129Y-46497500D01*
X55586123Y-46497501D01*
X55526516Y-46503908D01*
X55391671Y-46554202D01*
X55391664Y-46554206D01*
X55276455Y-46640452D01*
X55276452Y-46640455D01*
X55190206Y-46755664D01*
X55190202Y-46755671D01*
X55139908Y-46890517D01*
X55133501Y-46950116D01*
X55133501Y-46950123D01*
X55133500Y-46950135D01*
X46600500Y-46950135D01*
X46600499Y-46252128D01*
X46594091Y-46192517D01*
X46543796Y-46057669D01*
X46543795Y-46057668D01*
X46543793Y-46057664D01*
X46457547Y-45942455D01*
X46457544Y-45942452D01*
X46342335Y-45856206D01*
X46342328Y-45856202D01*
X46207482Y-45805908D01*
X46207483Y-45805908D01*
X46147883Y-45799501D01*
X46147881Y-45799500D01*
X46147873Y-45799500D01*
X46147864Y-45799500D01*
X45052129Y-45799500D01*
X45052123Y-45799501D01*
X44992516Y-45805908D01*
X44857671Y-45856202D01*
X44857664Y-45856206D01*
X44742455Y-45942452D01*
X44742452Y-45942455D01*
X44656206Y-46057664D01*
X44656202Y-46057671D01*
X44605908Y-46192517D01*
X44599501Y-46252116D01*
X44599501Y-46252123D01*
X44599500Y-46252135D01*
X20800000Y-46252135D01*
X20800000Y-43250000D01*
X25094540Y-43250000D01*
X25114326Y-43438256D01*
X25114327Y-43438259D01*
X25172818Y-43618277D01*
X25172821Y-43618284D01*
X25267467Y-43782216D01*
X25386525Y-43914443D01*
X25394129Y-43922888D01*
X25547265Y-44034148D01*
X25547270Y-44034151D01*
X25720192Y-44111142D01*
X25720197Y-44111144D01*
X25905354Y-44150500D01*
X25905355Y-44150500D01*
X26094644Y-44150500D01*
X26094646Y-44150500D01*
X26279803Y-44111144D01*
X26452730Y-44034151D01*
X26509645Y-43992800D01*
X26548347Y-43964682D01*
X26614153Y-43941202D01*
X26621232Y-43941000D01*
X39418060Y-43941000D01*
X39509112Y-43922888D01*
X39551557Y-43914445D01*
X39677311Y-43862356D01*
X39724637Y-43830734D01*
X39790487Y-43786735D01*
X40045914Y-43531307D01*
X40107233Y-43497825D01*
X40107498Y-43497768D01*
X40279803Y-43461144D01*
X40452730Y-43384151D01*
X40605871Y-43272888D01*
X40732533Y-43132216D01*
X40827179Y-42968284D01*
X40885674Y-42788256D01*
X40905460Y-42600000D01*
X40885674Y-42411744D01*
X40827179Y-42231716D01*
X40732533Y-42067784D01*
X40605871Y-41927112D01*
X40605870Y-41927111D01*
X40506367Y-41854818D01*
X53494540Y-41854818D01*
X53514326Y-42043074D01*
X53514327Y-42043077D01*
X53572818Y-42223095D01*
X53572821Y-42223102D01*
X53667467Y-42387034D01*
X53780506Y-42512576D01*
X53794129Y-42527706D01*
X53947265Y-42638966D01*
X53947270Y-42638969D01*
X54120192Y-42715960D01*
X54120197Y-42715962D01*
X54305354Y-42755318D01*
X54325797Y-42755318D01*
X54392836Y-42775003D01*
X54413478Y-42791637D01*
X54899788Y-43277946D01*
X54933273Y-43339269D01*
X54928289Y-43408960D01*
X54904258Y-43448598D01*
X54893470Y-43460578D01*
X54893465Y-43460585D01*
X54798821Y-43624515D01*
X54798818Y-43624522D01*
X54740327Y-43804540D01*
X54740326Y-43804544D01*
X54720540Y-43992800D01*
X54740326Y-44181056D01*
X54740327Y-44181059D01*
X54798818Y-44361077D01*
X54798821Y-44361084D01*
X54893467Y-44525016D01*
X55020129Y-44665688D01*
X55173265Y-44776948D01*
X55173270Y-44776951D01*
X55346192Y-44853942D01*
X55346197Y-44853944D01*
X55531354Y-44893300D01*
X55531355Y-44893300D01*
X55720644Y-44893300D01*
X55720646Y-44893300D01*
X55905803Y-44853944D01*
X56078730Y-44776951D01*
X56231871Y-44665688D01*
X56358533Y-44525016D01*
X56453179Y-44361084D01*
X56511674Y-44181056D01*
X56531460Y-43992800D01*
X56511674Y-43804544D01*
X56453179Y-43624516D01*
X56399367Y-43531310D01*
X56358534Y-43460585D01*
X56358529Y-43460578D01*
X56310750Y-43407514D01*
X56280520Y-43344522D01*
X56278900Y-43324542D01*
X56278900Y-43016510D01*
X56253810Y-42890379D01*
X56253809Y-42890378D01*
X56253809Y-42890374D01*
X56204592Y-42771554D01*
X56202800Y-42768872D01*
X56202798Y-42768869D01*
X56202798Y-42768868D01*
X56133139Y-42664616D01*
X55334410Y-41865887D01*
X55300925Y-41804564D01*
X55298770Y-41791168D01*
X55285674Y-41666562D01*
X55227179Y-41486534D01*
X55132533Y-41322602D01*
X55005871Y-41181930D01*
X55005870Y-41181929D01*
X54852734Y-41070669D01*
X54852729Y-41070666D01*
X54679807Y-40993675D01*
X54679802Y-40993673D01*
X54534001Y-40962683D01*
X54494646Y-40954318D01*
X54305354Y-40954318D01*
X54272897Y-40961216D01*
X54120197Y-40993673D01*
X54120192Y-40993675D01*
X53947270Y-41070666D01*
X53947265Y-41070669D01*
X53794129Y-41181929D01*
X53667466Y-41322603D01*
X53572821Y-41486533D01*
X53572818Y-41486540D01*
X53514327Y-41666558D01*
X53514326Y-41666562D01*
X53494540Y-41854818D01*
X40506367Y-41854818D01*
X40452734Y-41815851D01*
X40452729Y-41815848D01*
X40279807Y-41738857D01*
X40279802Y-41738855D01*
X40130811Y-41707187D01*
X40094646Y-41699500D01*
X39905354Y-41699500D01*
X39872897Y-41706398D01*
X39720197Y-41738855D01*
X39720192Y-41738857D01*
X39547270Y-41815848D01*
X39547265Y-41815851D01*
X39394129Y-41927111D01*
X39267466Y-42067785D01*
X39172821Y-42231715D01*
X39172818Y-42231722D01*
X39121762Y-42388857D01*
X39114326Y-42411744D01*
X39110519Y-42447963D01*
X39083935Y-42512576D01*
X39026638Y-42552561D01*
X38987199Y-42559000D01*
X26621232Y-42559000D01*
X26554193Y-42539315D01*
X26548347Y-42535318D01*
X26452734Y-42465851D01*
X26452729Y-42465848D01*
X26279807Y-42388857D01*
X26279802Y-42388855D01*
X26134001Y-42357865D01*
X26094646Y-42349500D01*
X25905354Y-42349500D01*
X25872897Y-42356398D01*
X25720197Y-42388855D01*
X25720192Y-42388857D01*
X25547270Y-42465848D01*
X25547265Y-42465851D01*
X25394129Y-42577111D01*
X25267466Y-42717785D01*
X25172821Y-42881715D01*
X25172818Y-42881722D01*
X25114327Y-43061740D01*
X25114326Y-43061744D01*
X25094540Y-43250000D01*
X20800000Y-43250000D01*
X20800000Y-39602155D01*
X24150000Y-39602155D01*
X24150000Y-40250000D01*
X25066988Y-40250000D01*
X25034075Y-40307007D01*
X25000000Y-40434174D01*
X25000000Y-40565826D01*
X25034075Y-40692993D01*
X25066988Y-40750000D01*
X24150000Y-40750000D01*
X24150000Y-41397844D01*
X24156401Y-41457372D01*
X24156403Y-41457379D01*
X24206645Y-41592086D01*
X24206649Y-41592093D01*
X24292809Y-41707187D01*
X24292812Y-41707190D01*
X24407906Y-41793350D01*
X24407913Y-41793354D01*
X24542620Y-41843596D01*
X24542627Y-41843598D01*
X24602155Y-41849999D01*
X24602172Y-41850000D01*
X25250000Y-41850000D01*
X25250000Y-40933012D01*
X25307007Y-40965925D01*
X25434174Y-41000000D01*
X25565826Y-41000000D01*
X25692993Y-40965925D01*
X25750000Y-40933012D01*
X25750000Y-41850000D01*
X26397828Y-41850000D01*
X26397844Y-41849999D01*
X26457372Y-41843598D01*
X26457379Y-41843596D01*
X26592086Y-41793354D01*
X26592093Y-41793350D01*
X26707187Y-41707190D01*
X26707190Y-41707187D01*
X26793350Y-41592093D01*
X26793354Y-41592086D01*
X26842422Y-41460529D01*
X26884293Y-41404595D01*
X26949757Y-41380178D01*
X27018030Y-41395030D01*
X27046285Y-41416181D01*
X27168599Y-41538495D01*
X27231365Y-41582444D01*
X27362165Y-41674032D01*
X27362167Y-41674033D01*
X27362170Y-41674035D01*
X27576337Y-41773903D01*
X27804592Y-41835063D01*
X27975319Y-41850000D01*
X28039999Y-41855659D01*
X28040000Y-41855659D01*
X28040001Y-41855659D01*
X28104681Y-41850000D01*
X28275408Y-41835063D01*
X28503663Y-41773903D01*
X28717830Y-41674035D01*
X28911401Y-41538495D01*
X29078495Y-41371401D01*
X29208425Y-41185842D01*
X29263002Y-41142217D01*
X29332500Y-41135023D01*
X29394855Y-41166546D01*
X29411575Y-41185842D01*
X29541500Y-41371395D01*
X29541505Y-41371401D01*
X29708599Y-41538495D01*
X29771365Y-41582444D01*
X29902165Y-41674032D01*
X29902167Y-41674033D01*
X29902170Y-41674035D01*
X30116337Y-41773903D01*
X30344592Y-41835063D01*
X30515319Y-41850000D01*
X30579999Y-41855659D01*
X30580000Y-41855659D01*
X30580001Y-41855659D01*
X30644681Y-41850000D01*
X30815408Y-41835063D01*
X31043663Y-41773903D01*
X31257830Y-41674035D01*
X31451401Y-41538495D01*
X31618495Y-41371401D01*
X31754035Y-41177830D01*
X31853903Y-40963663D01*
X31915063Y-40735408D01*
X31935659Y-40500000D01*
X31915063Y-40264592D01*
X31853903Y-40036337D01*
X31754035Y-39822171D01*
X31748425Y-39814158D01*
X31618494Y-39628597D01*
X31451402Y-39461506D01*
X31451395Y-39461501D01*
X31257834Y-39325967D01*
X31257830Y-39325965D01*
X31186727Y-39292809D01*
X31043663Y-39226097D01*
X31043659Y-39226096D01*
X31043655Y-39226094D01*
X30815413Y-39164938D01*
X30815403Y-39164936D01*
X30580001Y-39144341D01*
X30579999Y-39144341D01*
X30344596Y-39164936D01*
X30344586Y-39164938D01*
X30116344Y-39226094D01*
X30116335Y-39226098D01*
X29902171Y-39325964D01*
X29902169Y-39325965D01*
X29708597Y-39461505D01*
X29541505Y-39628597D01*
X29411575Y-39814158D01*
X29356998Y-39857783D01*
X29287500Y-39864977D01*
X29225145Y-39833454D01*
X29208425Y-39814158D01*
X29078494Y-39628597D01*
X28911402Y-39461506D01*
X28911395Y-39461501D01*
X28717834Y-39325967D01*
X28717830Y-39325965D01*
X28646727Y-39292809D01*
X28503663Y-39226097D01*
X28503659Y-39226096D01*
X28503655Y-39226094D01*
X28275413Y-39164938D01*
X28275403Y-39164936D01*
X28040001Y-39144341D01*
X28039999Y-39144341D01*
X27804596Y-39164936D01*
X27804586Y-39164938D01*
X27576344Y-39226094D01*
X27576335Y-39226098D01*
X27362171Y-39325964D01*
X27362169Y-39325965D01*
X27168600Y-39461503D01*
X27046284Y-39583819D01*
X26984961Y-39617303D01*
X26915269Y-39612319D01*
X26859336Y-39570447D01*
X26842421Y-39539470D01*
X26793354Y-39407913D01*
X26793350Y-39407906D01*
X26707190Y-39292812D01*
X26707187Y-39292809D01*
X26592093Y-39206649D01*
X26592086Y-39206645D01*
X26457379Y-39156403D01*
X26457372Y-39156401D01*
X26397844Y-39150000D01*
X25750000Y-39150000D01*
X25750000Y-40066988D01*
X25692993Y-40034075D01*
X25565826Y-40000000D01*
X25434174Y-40000000D01*
X25307007Y-40034075D01*
X25250000Y-40066988D01*
X25250000Y-39150000D01*
X24602155Y-39150000D01*
X24542627Y-39156401D01*
X24542620Y-39156403D01*
X24407913Y-39206645D01*
X24407906Y-39206649D01*
X24292812Y-39292809D01*
X24292809Y-39292812D01*
X24206649Y-39407906D01*
X24206645Y-39407913D01*
X24156403Y-39542620D01*
X24156401Y-39542627D01*
X24150000Y-39602155D01*
X20800000Y-39602155D01*
X20800000Y-31414999D01*
X24244341Y-31414999D01*
X24244341Y-31415000D01*
X24264936Y-31650403D01*
X24264938Y-31650413D01*
X24326094Y-31878655D01*
X24326096Y-31878659D01*
X24326097Y-31878663D01*
X24401379Y-32040106D01*
X24425965Y-32092830D01*
X24425967Y-32092834D01*
X24561501Y-32286395D01*
X24561506Y-32286402D01*
X24728597Y-32453493D01*
X24728603Y-32453498D01*
X24914158Y-32583425D01*
X24957783Y-32638002D01*
X24964977Y-32707500D01*
X24933454Y-32769855D01*
X24914158Y-32786575D01*
X24728597Y-32916505D01*
X24561505Y-33083597D01*
X24425965Y-33277169D01*
X24425964Y-33277171D01*
X24326098Y-33491335D01*
X24326094Y-33491344D01*
X24264938Y-33719586D01*
X24264936Y-33719596D01*
X24244341Y-33954999D01*
X24244341Y-33955000D01*
X24264936Y-34190403D01*
X24264938Y-34190413D01*
X24326094Y-34418655D01*
X24326096Y-34418659D01*
X24326097Y-34418663D01*
X24425965Y-34632830D01*
X24425967Y-34632834D01*
X24516942Y-34762759D01*
X24561505Y-34826401D01*
X24728599Y-34993495D01*
X24825384Y-35061265D01*
X24922165Y-35129032D01*
X24922167Y-35129033D01*
X24922170Y-35129035D01*
X25136337Y-35228903D01*
X25364592Y-35290063D01*
X25552918Y-35306539D01*
X25599999Y-35310659D01*
X25600000Y-35310659D01*
X25600001Y-35310659D01*
X25639234Y-35307226D01*
X25835408Y-35290063D01*
X26063663Y-35228903D01*
X26277830Y-35129035D01*
X26471401Y-34993495D01*
X26638495Y-34826401D01*
X26774035Y-34632830D01*
X26873903Y-34418663D01*
X26935063Y-34190408D01*
X26955659Y-33955000D01*
X26935063Y-33719592D01*
X26873903Y-33491337D01*
X26774035Y-33277171D01*
X26707491Y-33182135D01*
X26638494Y-33083597D01*
X26471402Y-32916506D01*
X26471396Y-32916501D01*
X26285842Y-32786575D01*
X26242217Y-32731998D01*
X26235023Y-32662500D01*
X26266546Y-32600145D01*
X26285842Y-32583425D01*
X26334864Y-32549099D01*
X26471401Y-32453495D01*
X26638495Y-32286401D01*
X26774035Y-32092830D01*
X26873903Y-31878663D01*
X26935063Y-31650408D01*
X26955659Y-31415000D01*
X26955659Y-31414999D01*
X29044341Y-31414999D01*
X29044341Y-31415000D01*
X29064936Y-31650403D01*
X29064938Y-31650413D01*
X29126094Y-31878655D01*
X29126096Y-31878659D01*
X29126097Y-31878663D01*
X29201379Y-32040106D01*
X29225965Y-32092830D01*
X29225967Y-32092834D01*
X29361501Y-32286395D01*
X29361506Y-32286402D01*
X29528597Y-32453493D01*
X29528603Y-32453498D01*
X29714158Y-32583425D01*
X29757783Y-32638002D01*
X29764977Y-32707500D01*
X29733454Y-32769855D01*
X29714158Y-32786575D01*
X29528597Y-32916505D01*
X29361505Y-33083597D01*
X29225965Y-33277169D01*
X29225964Y-33277171D01*
X29126098Y-33491335D01*
X29126094Y-33491344D01*
X29064938Y-33719586D01*
X29064936Y-33719596D01*
X29044341Y-33954999D01*
X29044341Y-33955000D01*
X29064936Y-34190403D01*
X29064938Y-34190413D01*
X29126094Y-34418655D01*
X29126096Y-34418659D01*
X29126097Y-34418663D01*
X29225965Y-34632830D01*
X29225967Y-34632834D01*
X29316942Y-34762759D01*
X29361505Y-34826401D01*
X29528599Y-34993495D01*
X29625384Y-35061265D01*
X29722165Y-35129032D01*
X29722167Y-35129033D01*
X29722170Y-35129035D01*
X29936337Y-35228903D01*
X30164592Y-35290063D01*
X30352918Y-35306539D01*
X30399999Y-35310659D01*
X30400000Y-35310659D01*
X30400001Y-35310659D01*
X30439234Y-35307226D01*
X30635408Y-35290063D01*
X30863663Y-35228903D01*
X31077830Y-35129035D01*
X31271401Y-34993495D01*
X31438495Y-34826401D01*
X31574035Y-34632830D01*
X31673903Y-34418663D01*
X31735063Y-34190408D01*
X31755659Y-33955000D01*
X31735063Y-33719592D01*
X31673903Y-33491337D01*
X31574035Y-33277171D01*
X31507491Y-33182135D01*
X31438494Y-33083597D01*
X31271402Y-32916506D01*
X31271396Y-32916501D01*
X31085842Y-32786575D01*
X31042217Y-32731998D01*
X31035023Y-32662500D01*
X31066546Y-32600145D01*
X31085842Y-32583425D01*
X31134864Y-32549099D01*
X31271401Y-32453495D01*
X31438495Y-32286401D01*
X31574035Y-32092830D01*
X31673903Y-31878663D01*
X31735063Y-31650408D01*
X31755659Y-31415000D01*
X31735063Y-31179592D01*
X31673903Y-30951337D01*
X31574035Y-30737171D01*
X31526019Y-30668597D01*
X31438496Y-30543600D01*
X31393491Y-30498595D01*
X31316179Y-30421283D01*
X31282696Y-30359963D01*
X31287680Y-30290271D01*
X31329551Y-30234337D01*
X31360529Y-30217422D01*
X31492086Y-30168354D01*
X31492093Y-30168350D01*
X31607187Y-30082190D01*
X31607190Y-30082187D01*
X31693350Y-29967093D01*
X31693354Y-29967086D01*
X31743596Y-29832379D01*
X31743598Y-29832372D01*
X31749999Y-29772844D01*
X31750000Y-29772827D01*
X31750000Y-29125000D01*
X30833012Y-29125000D01*
X30865925Y-29067993D01*
X30884144Y-28999999D01*
X34244341Y-28999999D01*
X34244341Y-29000000D01*
X34264936Y-29235403D01*
X34264938Y-29235413D01*
X34326094Y-29463655D01*
X34326096Y-29463659D01*
X34326097Y-29463663D01*
X34377332Y-29573537D01*
X34425965Y-29677830D01*
X34425967Y-29677834D01*
X34561501Y-29871395D01*
X34561506Y-29871402D01*
X34728597Y-30038493D01*
X34728603Y-30038498D01*
X34914158Y-30168425D01*
X34957783Y-30223002D01*
X34964977Y-30292500D01*
X34933454Y-30354855D01*
X34914158Y-30371575D01*
X34728597Y-30501505D01*
X34561505Y-30668597D01*
X34425965Y-30862169D01*
X34425964Y-30862171D01*
X34326098Y-31076335D01*
X34326094Y-31076344D01*
X34264938Y-31304586D01*
X34264936Y-31304596D01*
X34244341Y-31539999D01*
X34244341Y-31540000D01*
X34264936Y-31775403D01*
X34264938Y-31775413D01*
X34326094Y-32003655D01*
X34326096Y-32003659D01*
X34326097Y-32003663D01*
X34425965Y-32217830D01*
X34425967Y-32217834D01*
X34507616Y-32334440D01*
X34561501Y-32411396D01*
X34561506Y-32411402D01*
X34683430Y-32533326D01*
X34716915Y-32594649D01*
X34711931Y-32664341D01*
X34670059Y-32720274D01*
X34639083Y-32737189D01*
X34507669Y-32786203D01*
X34507664Y-32786206D01*
X34392455Y-32872452D01*
X34392452Y-32872455D01*
X34306206Y-32987664D01*
X34306202Y-32987671D01*
X34255908Y-33122517D01*
X34249501Y-33182116D01*
X34249501Y-33182123D01*
X34249500Y-33182135D01*
X34249500Y-34977870D01*
X34249501Y-34977876D01*
X34255908Y-35037483D01*
X34306202Y-35172328D01*
X34306206Y-35172335D01*
X34392452Y-35287544D01*
X34392455Y-35287547D01*
X34507664Y-35373793D01*
X34507671Y-35373797D01*
X34642517Y-35424091D01*
X34642516Y-35424091D01*
X34649444Y-35424835D01*
X34702127Y-35430500D01*
X36497872Y-35430499D01*
X36557483Y-35424091D01*
X36692331Y-35373796D01*
X36807546Y-35287546D01*
X36893796Y-35172331D01*
X36944091Y-35037483D01*
X36950500Y-34977873D01*
X36950499Y-33182128D01*
X36944091Y-33122517D01*
X36893796Y-32987669D01*
X36893795Y-32987668D01*
X36893793Y-32987664D01*
X36807547Y-32872455D01*
X36807544Y-32872452D01*
X36692335Y-32786206D01*
X36692328Y-32786202D01*
X36560917Y-32737189D01*
X36504983Y-32695318D01*
X36480566Y-32629853D01*
X36495418Y-32561580D01*
X36516563Y-32533332D01*
X36638495Y-32411401D01*
X36774035Y-32217830D01*
X36873903Y-32003663D01*
X36935063Y-31775408D01*
X36955659Y-31540000D01*
X36935063Y-31304592D01*
X36873903Y-31076337D01*
X36774035Y-30862171D01*
X36767021Y-30852153D01*
X36638494Y-30668597D01*
X36471402Y-30501506D01*
X36471396Y-30501501D01*
X36285842Y-30371575D01*
X36242217Y-30316998D01*
X36235023Y-30247500D01*
X36266546Y-30185145D01*
X36285842Y-30168425D01*
X36308026Y-30152891D01*
X36471401Y-30038495D01*
X36509897Y-29999999D01*
X55219464Y-29999999D01*
X55219464Y-30000000D01*
X55239564Y-30216918D01*
X55239564Y-30216920D01*
X55239565Y-30216923D01*
X55295889Y-30414882D01*
X55299184Y-30426462D01*
X55336551Y-30501505D01*
X55396288Y-30621472D01*
X55527573Y-30795322D01*
X55688568Y-30942088D01*
X55688575Y-30942092D01*
X55688576Y-30942093D01*
X55873786Y-31056770D01*
X55873792Y-31056773D01*
X55896664Y-31065633D01*
X56076931Y-31135470D01*
X56291074Y-31175500D01*
X56291076Y-31175500D01*
X56508924Y-31175500D01*
X56508926Y-31175500D01*
X56723069Y-31135470D01*
X56926210Y-31056772D01*
X57111432Y-30942088D01*
X57272427Y-30795322D01*
X57403712Y-30621472D01*
X57500817Y-30426459D01*
X57560435Y-30216923D01*
X57580536Y-30000000D01*
X57560435Y-29783077D01*
X57500817Y-29573541D01*
X57403712Y-29378528D01*
X57321950Y-29270257D01*
X57297259Y-29204898D01*
X57311824Y-29136563D01*
X57346594Y-29096265D01*
X57432190Y-29032186D01*
X57518350Y-28917093D01*
X57518354Y-28917086D01*
X57568596Y-28782379D01*
X57568598Y-28782372D01*
X57574999Y-28722844D01*
X57575000Y-28722827D01*
X57575000Y-28250000D01*
X56715686Y-28250000D01*
X56720080Y-28245606D01*
X56772741Y-28154394D01*
X56800000Y-28052661D01*
X56800000Y-27947339D01*
X56772741Y-27845606D01*
X56720080Y-27754394D01*
X56715686Y-27750000D01*
X57575000Y-27750000D01*
X57575000Y-27277172D01*
X57574999Y-27277155D01*
X57568598Y-27217627D01*
X57568596Y-27217620D01*
X57518354Y-27082913D01*
X57518350Y-27082906D01*
X57455234Y-26998595D01*
X64847921Y-26998595D01*
X64847921Y-26998604D01*
X64867805Y-27263957D01*
X64867805Y-27263959D01*
X64921680Y-27499999D01*
X64927023Y-27523405D01*
X65024244Y-27771121D01*
X65157299Y-28001580D01*
X65258594Y-28128599D01*
X65323220Y-28209637D01*
X65437732Y-28315888D01*
X65518290Y-28390635D01*
X65738161Y-28540540D01*
X65977914Y-28655999D01*
X65977915Y-28655999D01*
X65977918Y-28656001D01*
X66040192Y-28675210D01*
X66185431Y-28720011D01*
X66243690Y-28758582D01*
X66271848Y-28822526D01*
X66260964Y-28891543D01*
X66214495Y-28943720D01*
X66202685Y-28950221D01*
X66188416Y-28957092D01*
X66188411Y-28957095D01*
X66011240Y-29077887D01*
X66677838Y-29744484D01*
X66675774Y-29745340D01*
X66536556Y-29838362D01*
X66418162Y-29956756D01*
X66325140Y-30095974D01*
X66324284Y-30098038D01*
X65658484Y-29432238D01*
X65607714Y-29495902D01*
X65474696Y-29726296D01*
X65377504Y-29973937D01*
X65377498Y-29973956D01*
X65318303Y-30233307D01*
X65318303Y-30233309D01*
X65298423Y-30498595D01*
X65298423Y-30498604D01*
X65318303Y-30763890D01*
X65318303Y-30763892D01*
X65377498Y-31023243D01*
X65377504Y-31023262D01*
X65474696Y-31270903D01*
X65607716Y-31501300D01*
X65658483Y-31564961D01*
X65658484Y-31564961D01*
X66324284Y-30899160D01*
X66325140Y-30901226D01*
X66418162Y-31040444D01*
X66536556Y-31158838D01*
X66675774Y-31251860D01*
X66677837Y-31252714D01*
X66011240Y-31919311D01*
X66188411Y-32040104D01*
X66188415Y-32040106D01*
X66428095Y-32155531D01*
X66428099Y-32155532D01*
X66682309Y-32233946D01*
X66682315Y-32233947D01*
X66945376Y-32273599D01*
X66945383Y-32273600D01*
X67211417Y-32273600D01*
X67211423Y-32273599D01*
X67474484Y-32233947D01*
X67474490Y-32233946D01*
X67728699Y-32155533D01*
X67968392Y-32040103D01*
X68145558Y-31919311D01*
X67841075Y-31614828D01*
X69627900Y-31614828D01*
X69627900Y-31782371D01*
X69660582Y-31946674D01*
X69660584Y-31946682D01*
X69724695Y-32101460D01*
X69817773Y-32240762D01*
X69936237Y-32359226D01*
X70028894Y-32421137D01*
X70075537Y-32452303D01*
X70075538Y-32452303D01*
X70075539Y-32452304D01*
X70078422Y-32453498D01*
X70230318Y-32516416D01*
X70394628Y-32549099D01*
X70394632Y-32549100D01*
X70394633Y-32549100D01*
X70562168Y-32549100D01*
X70562169Y-32549099D01*
X70726482Y-32516416D01*
X70881263Y-32452303D01*
X71020562Y-32359226D01*
X71139026Y-32240762D01*
X71232103Y-32101463D01*
X71296216Y-31946682D01*
X71328900Y-31782367D01*
X71328900Y-31614833D01*
X71296216Y-31450518D01*
X71235771Y-31304592D01*
X71232104Y-31295739D01*
X71139026Y-31156437D01*
X71020562Y-31037973D01*
X70881260Y-30944895D01*
X70726482Y-30880784D01*
X70726474Y-30880782D01*
X70562171Y-30848100D01*
X70562167Y-30848100D01*
X70394633Y-30848100D01*
X70394628Y-30848100D01*
X70230325Y-30880782D01*
X70230317Y-30880784D01*
X70075539Y-30944895D01*
X69936237Y-31037973D01*
X69817773Y-31156437D01*
X69724695Y-31295739D01*
X69660584Y-31450517D01*
X69660582Y-31450525D01*
X69627900Y-31614828D01*
X67841075Y-31614828D01*
X67478962Y-31252714D01*
X67481026Y-31251860D01*
X67620244Y-31158838D01*
X67738638Y-31040444D01*
X67831660Y-30901226D01*
X67832514Y-30899161D01*
X68498314Y-31564961D01*
X68498315Y-31564960D01*
X68549079Y-31501306D01*
X68549086Y-31501295D01*
X68682103Y-31270903D01*
X68779295Y-31023262D01*
X68779301Y-31023243D01*
X68838496Y-30763892D01*
X68838496Y-30763890D01*
X68850883Y-30598595D01*
X71897921Y-30598595D01*
X71897921Y-30598604D01*
X71917805Y-30863957D01*
X71917805Y-30863959D01*
X71957523Y-31037974D01*
X71977023Y-31123405D01*
X72074244Y-31371121D01*
X72207299Y-31601580D01*
X72341306Y-31769618D01*
X72373220Y-31809637D01*
X72447613Y-31878663D01*
X72568290Y-31990635D01*
X72788161Y-32140540D01*
X73027914Y-32255999D01*
X73027915Y-32255999D01*
X73027918Y-32256001D01*
X73282206Y-32334439D01*
X73282207Y-32334439D01*
X73282210Y-32334440D01*
X73545337Y-32374099D01*
X73545342Y-32374099D01*
X73545345Y-32374100D01*
X73545346Y-32374100D01*
X73811454Y-32374100D01*
X73811455Y-32374100D01*
X73910140Y-32359226D01*
X74074589Y-32334440D01*
X74074590Y-32334439D01*
X74074594Y-32334439D01*
X74328882Y-32256001D01*
X74568640Y-32140540D01*
X74788510Y-31990635D01*
X74983583Y-31809633D01*
X75149501Y-31601580D01*
X75282556Y-31371121D01*
X75379777Y-31123405D01*
X75438993Y-30863967D01*
X75439128Y-30862169D01*
X75458879Y-30598604D01*
X75458879Y-30598595D01*
X75438994Y-30333242D01*
X75438994Y-30333240D01*
X75438993Y-30333236D01*
X75438993Y-30333233D01*
X75379777Y-30073795D01*
X75282556Y-29826079D01*
X75149501Y-29595620D01*
X74983583Y-29387567D01*
X74983582Y-29387566D01*
X74983579Y-29387562D01*
X74788510Y-29206565D01*
X74785742Y-29204678D01*
X74779689Y-29200551D01*
X74735389Y-29146524D01*
X74727330Y-29077120D01*
X74758073Y-29014378D01*
X74817857Y-28978216D01*
X74849543Y-28974099D01*
X75001271Y-28974099D01*
X75001272Y-28974099D01*
X75060883Y-28967691D01*
X75195731Y-28917396D01*
X75310946Y-28831146D01*
X75397196Y-28715931D01*
X75447491Y-28581083D01*
X75453900Y-28521473D01*
X75453899Y-25875728D01*
X75447491Y-25816117D01*
X75441659Y-25800481D01*
X75397197Y-25681271D01*
X75397193Y-25681264D01*
X75310947Y-25566055D01*
X75310944Y-25566052D01*
X75195735Y-25479806D01*
X75195728Y-25479802D01*
X75060882Y-25429508D01*
X75060883Y-25429508D01*
X75001283Y-25423101D01*
X75001281Y-25423100D01*
X75001273Y-25423100D01*
X75001264Y-25423100D01*
X72355529Y-25423100D01*
X72355523Y-25423101D01*
X72295916Y-25429508D01*
X72161071Y-25479802D01*
X72161064Y-25479806D01*
X72045855Y-25566052D01*
X72045852Y-25566055D01*
X71959606Y-25681264D01*
X71959602Y-25681271D01*
X71909308Y-25816117D01*
X71904802Y-25858034D01*
X71902901Y-25875723D01*
X71902900Y-25875735D01*
X71902900Y-28521470D01*
X71902901Y-28521476D01*
X71909308Y-28581083D01*
X71959602Y-28715928D01*
X71959606Y-28715935D01*
X72045852Y-28831144D01*
X72045855Y-28831147D01*
X72161064Y-28917393D01*
X72161071Y-28917397D01*
X72206018Y-28934161D01*
X72295917Y-28967691D01*
X72355527Y-28974100D01*
X72507256Y-28974099D01*
X72574294Y-28993783D01*
X72620049Y-29046587D01*
X72629993Y-29115745D01*
X72600968Y-29179301D01*
X72577114Y-29200547D01*
X72568298Y-29206558D01*
X72568295Y-29206560D01*
X72373220Y-29387562D01*
X72207299Y-29595620D01*
X72074244Y-29826078D01*
X71977025Y-30073789D01*
X71977020Y-30073806D01*
X71917805Y-30333240D01*
X71917805Y-30333242D01*
X71897921Y-30598595D01*
X68850883Y-30598595D01*
X68858377Y-30498604D01*
X68858377Y-30498595D01*
X68838496Y-30233309D01*
X68838496Y-30233307D01*
X68779301Y-29973956D01*
X68779295Y-29973937D01*
X68682103Y-29726296D01*
X68549083Y-29495899D01*
X68498315Y-29432237D01*
X67832514Y-30098037D01*
X67831660Y-30095974D01*
X67738638Y-29956756D01*
X67620244Y-29838362D01*
X67481026Y-29745340D01*
X67478961Y-29744484D01*
X68145558Y-29077887D01*
X67968384Y-28957092D01*
X67728699Y-28841666D01*
X67521408Y-28777725D01*
X67463149Y-28739154D01*
X67434991Y-28675210D01*
X67445875Y-28606193D01*
X67492344Y-28554016D01*
X67504144Y-28547520D01*
X67518640Y-28540540D01*
X67738510Y-28390635D01*
X67890078Y-28250000D01*
X67933579Y-28209637D01*
X67933579Y-28209635D01*
X67933583Y-28209633D01*
X68099501Y-28001580D01*
X68232556Y-27771121D01*
X68329777Y-27523405D01*
X68388993Y-27263967D01*
X68400169Y-27114828D01*
X69627900Y-27114828D01*
X69627900Y-27282371D01*
X69660582Y-27446674D01*
X69660584Y-27446682D01*
X69724695Y-27601460D01*
X69817773Y-27740762D01*
X69936237Y-27859226D01*
X70023630Y-27917620D01*
X70075537Y-27952303D01*
X70230318Y-28016416D01*
X70394628Y-28049099D01*
X70394632Y-28049100D01*
X70394633Y-28049100D01*
X70562168Y-28049100D01*
X70562169Y-28049099D01*
X70726482Y-28016416D01*
X70881263Y-27952303D01*
X71020562Y-27859226D01*
X71139026Y-27740762D01*
X71232103Y-27601463D01*
X71296216Y-27446682D01*
X71328900Y-27282367D01*
X71328900Y-27114833D01*
X71296216Y-26950518D01*
X71232103Y-26795737D01*
X71190339Y-26733233D01*
X71139026Y-26656437D01*
X71020562Y-26537973D01*
X70881260Y-26444895D01*
X70726482Y-26380784D01*
X70726474Y-26380782D01*
X70562171Y-26348100D01*
X70562167Y-26348100D01*
X70394633Y-26348100D01*
X70394628Y-26348100D01*
X70230325Y-26380782D01*
X70230317Y-26380784D01*
X70075539Y-26444895D01*
X69936237Y-26537973D01*
X69817773Y-26656437D01*
X69724695Y-26795739D01*
X69660584Y-26950517D01*
X69660582Y-26950525D01*
X69627900Y-27114828D01*
X68400169Y-27114828D01*
X68402561Y-27082913D01*
X68408879Y-26998604D01*
X68408879Y-26998595D01*
X68388994Y-26733242D01*
X68388994Y-26733240D01*
X68388993Y-26733236D01*
X68388993Y-26733233D01*
X68329777Y-26473795D01*
X68232556Y-26226079D01*
X68099501Y-25995620D01*
X67933583Y-25787567D01*
X67933582Y-25787566D01*
X67933579Y-25787562D01*
X67738510Y-25606565D01*
X67679088Y-25566052D01*
X67518640Y-25456660D01*
X67518636Y-25456658D01*
X67518633Y-25456656D01*
X67518632Y-25456655D01*
X67278884Y-25341200D01*
X67278886Y-25341200D01*
X67024595Y-25262761D01*
X67024589Y-25262759D01*
X66761462Y-25223100D01*
X66761455Y-25223100D01*
X66495345Y-25223100D01*
X66495337Y-25223100D01*
X66232210Y-25262759D01*
X66232204Y-25262761D01*
X65977914Y-25341200D01*
X65738169Y-25456655D01*
X65738160Y-25456660D01*
X65518292Y-25606563D01*
X65323220Y-25787562D01*
X65157299Y-25995620D01*
X65024244Y-26226078D01*
X64927025Y-26473789D01*
X64927020Y-26473806D01*
X64867805Y-26733240D01*
X64867805Y-26733242D01*
X64847921Y-26998595D01*
X57455234Y-26998595D01*
X57432190Y-26967812D01*
X57432187Y-26967809D01*
X57317093Y-26881649D01*
X57317086Y-26881645D01*
X57182379Y-26831403D01*
X57182372Y-26831401D01*
X57122844Y-26825000D01*
X56650000Y-26825000D01*
X56650000Y-27684314D01*
X56645606Y-27679920D01*
X56554394Y-27627259D01*
X56452661Y-27600000D01*
X56347339Y-27600000D01*
X56245606Y-27627259D01*
X56154394Y-27679920D01*
X56150000Y-27684314D01*
X56150000Y-26825000D01*
X55677155Y-26825000D01*
X55617627Y-26831401D01*
X55617620Y-26831403D01*
X55482913Y-26881645D01*
X55482906Y-26881649D01*
X55367812Y-26967809D01*
X55367809Y-26967812D01*
X55281649Y-27082906D01*
X55281645Y-27082913D01*
X55231403Y-27217620D01*
X55231401Y-27217627D01*
X55225000Y-27277155D01*
X55225000Y-27750000D01*
X56084314Y-27750000D01*
X56079920Y-27754394D01*
X56027259Y-27845606D01*
X56000000Y-27947339D01*
X56000000Y-28052661D01*
X56027259Y-28154394D01*
X56079920Y-28245606D01*
X56084314Y-28250000D01*
X55225000Y-28250000D01*
X55225000Y-28722844D01*
X55231401Y-28782372D01*
X55231403Y-28782379D01*
X55281645Y-28917086D01*
X55281649Y-28917093D01*
X55367809Y-29032186D01*
X55453405Y-29096264D01*
X55495276Y-29152198D01*
X55500260Y-29221890D01*
X55478049Y-29270257D01*
X55396288Y-29378528D01*
X55299184Y-29573537D01*
X55239564Y-29783081D01*
X55219464Y-29999999D01*
X36509897Y-29999999D01*
X36638495Y-29871401D01*
X36774035Y-29677830D01*
X36873903Y-29463663D01*
X36935063Y-29235408D01*
X36955659Y-29000000D01*
X36935063Y-28764592D01*
X36875030Y-28540544D01*
X36873905Y-28536344D01*
X36873904Y-28536343D01*
X36873903Y-28536337D01*
X36774035Y-28322171D01*
X36695239Y-28209637D01*
X36638494Y-28128597D01*
X36471402Y-27961506D01*
X36471395Y-27961501D01*
X36458260Y-27952304D01*
X36408727Y-27917620D01*
X36277834Y-27825967D01*
X36277830Y-27825965D01*
X36277828Y-27825964D01*
X36063663Y-27726097D01*
X36063659Y-27726096D01*
X36063655Y-27726094D01*
X35835413Y-27664938D01*
X35835403Y-27664936D01*
X35600001Y-27644341D01*
X35599999Y-27644341D01*
X35364596Y-27664936D01*
X35364586Y-27664938D01*
X35136344Y-27726094D01*
X35136335Y-27726098D01*
X34922171Y-27825964D01*
X34922169Y-27825965D01*
X34728597Y-27961505D01*
X34561505Y-28128597D01*
X34425965Y-28322169D01*
X34425964Y-28322171D01*
X34326098Y-28536335D01*
X34326094Y-28536344D01*
X34264938Y-28764586D01*
X34264936Y-28764596D01*
X34244341Y-28999999D01*
X30884144Y-28999999D01*
X30900000Y-28940826D01*
X30900000Y-28809174D01*
X30865925Y-28682007D01*
X30833012Y-28625000D01*
X31750000Y-28625000D01*
X31750000Y-27977172D01*
X31749999Y-27977155D01*
X31743598Y-27917627D01*
X31743596Y-27917620D01*
X31693354Y-27782913D01*
X31693350Y-27782906D01*
X31607190Y-27667812D01*
X31607187Y-27667809D01*
X31492093Y-27581649D01*
X31492086Y-27581645D01*
X31357379Y-27531403D01*
X31357372Y-27531401D01*
X31297844Y-27525000D01*
X30650000Y-27525000D01*
X30650000Y-28441988D01*
X30592993Y-28409075D01*
X30465826Y-28375000D01*
X30334174Y-28375000D01*
X30207007Y-28409075D01*
X30150000Y-28441988D01*
X30150000Y-27525000D01*
X29502155Y-27525000D01*
X29442627Y-27531401D01*
X29442620Y-27531403D01*
X29307913Y-27581645D01*
X29307906Y-27581649D01*
X29192812Y-27667809D01*
X29192809Y-27667812D01*
X29106649Y-27782906D01*
X29106645Y-27782913D01*
X29056403Y-27917620D01*
X29056401Y-27917627D01*
X29050000Y-27977155D01*
X29050000Y-28625000D01*
X29966988Y-28625000D01*
X29934075Y-28682007D01*
X29900000Y-28809174D01*
X29900000Y-28940826D01*
X29934075Y-29067993D01*
X29966988Y-29125000D01*
X29050000Y-29125000D01*
X29050000Y-29772844D01*
X29056401Y-29832372D01*
X29056403Y-29832379D01*
X29106645Y-29967086D01*
X29106649Y-29967093D01*
X29192809Y-30082187D01*
X29192812Y-30082190D01*
X29307906Y-30168350D01*
X29307913Y-30168354D01*
X29439470Y-30217421D01*
X29495403Y-30259292D01*
X29519821Y-30324756D01*
X29504970Y-30393029D01*
X29483819Y-30421284D01*
X29361503Y-30543600D01*
X29225965Y-30737169D01*
X29225964Y-30737171D01*
X29126098Y-30951335D01*
X29126094Y-30951344D01*
X29064938Y-31179586D01*
X29064936Y-31179596D01*
X29044341Y-31414999D01*
X26955659Y-31414999D01*
X26935063Y-31179592D01*
X26873903Y-30951337D01*
X26774035Y-30737171D01*
X26726019Y-30668597D01*
X26638496Y-30543600D01*
X26593491Y-30498595D01*
X26516179Y-30421283D01*
X26482696Y-30359963D01*
X26487680Y-30290271D01*
X26529551Y-30234337D01*
X26560529Y-30217422D01*
X26692086Y-30168354D01*
X26692093Y-30168350D01*
X26807187Y-30082190D01*
X26807190Y-30082187D01*
X26893350Y-29967093D01*
X26893354Y-29967086D01*
X26943596Y-29832379D01*
X26943598Y-29832372D01*
X26949999Y-29772844D01*
X26950000Y-29772827D01*
X26950000Y-29125000D01*
X26033012Y-29125000D01*
X26065925Y-29067993D01*
X26100000Y-28940826D01*
X26100000Y-28809174D01*
X26065925Y-28682007D01*
X26033012Y-28625000D01*
X26950000Y-28625000D01*
X26950000Y-27977172D01*
X26949999Y-27977155D01*
X26943598Y-27917627D01*
X26943596Y-27917620D01*
X26893354Y-27782913D01*
X26893350Y-27782906D01*
X26807190Y-27667812D01*
X26807187Y-27667809D01*
X26692093Y-27581649D01*
X26692086Y-27581645D01*
X26557379Y-27531403D01*
X26557372Y-27531401D01*
X26497844Y-27525000D01*
X25850000Y-27525000D01*
X25850000Y-28441988D01*
X25792993Y-28409075D01*
X25665826Y-28375000D01*
X25534174Y-28375000D01*
X25407007Y-28409075D01*
X25350000Y-28441988D01*
X25350000Y-27525000D01*
X24702155Y-27525000D01*
X24642627Y-27531401D01*
X24642620Y-27531403D01*
X24507913Y-27581645D01*
X24507906Y-27581649D01*
X24392812Y-27667809D01*
X24392809Y-27667812D01*
X24306649Y-27782906D01*
X24306645Y-27782913D01*
X24256403Y-27917620D01*
X24256401Y-27917627D01*
X24250000Y-27977155D01*
X24250000Y-28625000D01*
X25166988Y-28625000D01*
X25134075Y-28682007D01*
X25100000Y-28809174D01*
X25100000Y-28940826D01*
X25134075Y-29067993D01*
X25166988Y-29125000D01*
X24250000Y-29125000D01*
X24250000Y-29772844D01*
X24256401Y-29832372D01*
X24256403Y-29832379D01*
X24306645Y-29967086D01*
X24306649Y-29967093D01*
X24392809Y-30082187D01*
X24392812Y-30082190D01*
X24507906Y-30168350D01*
X24507913Y-30168354D01*
X24639470Y-30217421D01*
X24695403Y-30259292D01*
X24719821Y-30324756D01*
X24704970Y-30393029D01*
X24683819Y-30421284D01*
X24561503Y-30543600D01*
X24425965Y-30737169D01*
X24425964Y-30737171D01*
X24326098Y-30951335D01*
X24326094Y-30951344D01*
X24264938Y-31179586D01*
X24264936Y-31179596D01*
X24244341Y-31414999D01*
X20800000Y-31414999D01*
X20800000Y-26602155D01*
X40240000Y-26602155D01*
X40240000Y-27250000D01*
X41156988Y-27250000D01*
X41124075Y-27307007D01*
X41090000Y-27434174D01*
X41090000Y-27565826D01*
X41124075Y-27692993D01*
X41156988Y-27750000D01*
X40240000Y-27750000D01*
X40240000Y-28397844D01*
X40246401Y-28457372D01*
X40246403Y-28457379D01*
X40296645Y-28592086D01*
X40296649Y-28592093D01*
X40382809Y-28707187D01*
X40382812Y-28707190D01*
X40497906Y-28793350D01*
X40497913Y-28793354D01*
X40632620Y-28843596D01*
X40632627Y-28843598D01*
X40692155Y-28849999D01*
X40692172Y-28850000D01*
X41340000Y-28850000D01*
X41340000Y-27933012D01*
X41397007Y-27965925D01*
X41524174Y-28000000D01*
X41655826Y-28000000D01*
X41782993Y-27965925D01*
X41840000Y-27933012D01*
X41840000Y-28850000D01*
X42487828Y-28850000D01*
X42487844Y-28849999D01*
X42547372Y-28843598D01*
X42547379Y-28843596D01*
X42682086Y-28793354D01*
X42682093Y-28793350D01*
X42797187Y-28707190D01*
X42797190Y-28707187D01*
X42883350Y-28592093D01*
X42883354Y-28592086D01*
X42932422Y-28460529D01*
X42974293Y-28404595D01*
X43039757Y-28380178D01*
X43108030Y-28395030D01*
X43136285Y-28416181D01*
X43258599Y-28538495D01*
X43319421Y-28581083D01*
X43452165Y-28674032D01*
X43452167Y-28674033D01*
X43452170Y-28674035D01*
X43666337Y-28773903D01*
X43894592Y-28835063D01*
X44065319Y-28850000D01*
X44129999Y-28855659D01*
X44130000Y-28855659D01*
X44130001Y-28855659D01*
X44194681Y-28850000D01*
X44365408Y-28835063D01*
X44593663Y-28773903D01*
X44807830Y-28674035D01*
X45001401Y-28538495D01*
X45168495Y-28371401D01*
X45298425Y-28185842D01*
X45353002Y-28142217D01*
X45422500Y-28135023D01*
X45484855Y-28166546D01*
X45501575Y-28185842D01*
X45631500Y-28371395D01*
X45631505Y-28371401D01*
X45798599Y-28538495D01*
X45859421Y-28581083D01*
X45992165Y-28674032D01*
X45992167Y-28674033D01*
X45992170Y-28674035D01*
X46206337Y-28773903D01*
X46434592Y-28835063D01*
X46605319Y-28850000D01*
X46669999Y-28855659D01*
X46670000Y-28855659D01*
X46670001Y-28855659D01*
X46734681Y-28850000D01*
X46905408Y-28835063D01*
X47133663Y-28773903D01*
X47347830Y-28674035D01*
X47541401Y-28538495D01*
X47708495Y-28371401D01*
X47838425Y-28185842D01*
X47893002Y-28142217D01*
X47962500Y-28135023D01*
X48024855Y-28166546D01*
X48041575Y-28185842D01*
X48171500Y-28371395D01*
X48171505Y-28371401D01*
X48338599Y-28538495D01*
X48399421Y-28581083D01*
X48532165Y-28674032D01*
X48532167Y-28674033D01*
X48532170Y-28674035D01*
X48746337Y-28773903D01*
X48974592Y-28835063D01*
X49145319Y-28850000D01*
X49209999Y-28855659D01*
X49210000Y-28855659D01*
X49210001Y-28855659D01*
X49274681Y-28850000D01*
X49445408Y-28835063D01*
X49673663Y-28773903D01*
X49887830Y-28674035D01*
X50081401Y-28538495D01*
X50248495Y-28371401D01*
X50378425Y-28185842D01*
X50433002Y-28142217D01*
X50502500Y-28135023D01*
X50564855Y-28166546D01*
X50581575Y-28185842D01*
X50711500Y-28371395D01*
X50711505Y-28371401D01*
X50878599Y-28538495D01*
X50939421Y-28581083D01*
X51072165Y-28674032D01*
X51072167Y-28674033D01*
X51072170Y-28674035D01*
X51286337Y-28773903D01*
X51514592Y-28835063D01*
X51685319Y-28850000D01*
X51749999Y-28855659D01*
X51750000Y-28855659D01*
X51750001Y-28855659D01*
X51814681Y-28850000D01*
X51985408Y-28835063D01*
X52213663Y-28773903D01*
X52427830Y-28674035D01*
X52621401Y-28538495D01*
X52788495Y-28371401D01*
X52924035Y-28177830D01*
X53023903Y-27963663D01*
X53085063Y-27735408D01*
X53105659Y-27500000D01*
X53085063Y-27264592D01*
X53023903Y-27036337D01*
X52924035Y-26822171D01*
X52918425Y-26814158D01*
X52788494Y-26628597D01*
X52621402Y-26461506D01*
X52621395Y-26461501D01*
X52427834Y-26325967D01*
X52427830Y-26325965D01*
X52356727Y-26292809D01*
X52213663Y-26226097D01*
X52213659Y-26226096D01*
X52213655Y-26226094D01*
X51985413Y-26164938D01*
X51985403Y-26164936D01*
X51750001Y-26144341D01*
X51749999Y-26144341D01*
X51514596Y-26164936D01*
X51514586Y-26164938D01*
X51286344Y-26226094D01*
X51286335Y-26226098D01*
X51072171Y-26325964D01*
X51072169Y-26325965D01*
X50878597Y-26461505D01*
X50711505Y-26628597D01*
X50581575Y-26814158D01*
X50526998Y-26857783D01*
X50457500Y-26864977D01*
X50395145Y-26833454D01*
X50378425Y-26814158D01*
X50248494Y-26628597D01*
X50081402Y-26461506D01*
X50081395Y-26461501D01*
X49887834Y-26325967D01*
X49887830Y-26325965D01*
X49816727Y-26292809D01*
X49673663Y-26226097D01*
X49673659Y-26226096D01*
X49673655Y-26226094D01*
X49445413Y-26164938D01*
X49445403Y-26164936D01*
X49210001Y-26144341D01*
X49209999Y-26144341D01*
X48974596Y-26164936D01*
X48974586Y-26164938D01*
X48746344Y-26226094D01*
X48746335Y-26226098D01*
X48532171Y-26325964D01*
X48532169Y-26325965D01*
X48338597Y-26461505D01*
X48171505Y-26628597D01*
X48041575Y-26814158D01*
X47986998Y-26857783D01*
X47917500Y-26864977D01*
X47855145Y-26833454D01*
X47838425Y-26814158D01*
X47708494Y-26628597D01*
X47541402Y-26461506D01*
X47541395Y-26461501D01*
X47347834Y-26325967D01*
X47347830Y-26325965D01*
X47276727Y-26292809D01*
X47133663Y-26226097D01*
X47133659Y-26226096D01*
X47133655Y-26226094D01*
X46905413Y-26164938D01*
X46905403Y-26164936D01*
X46670001Y-26144341D01*
X46669999Y-26144341D01*
X46434596Y-26164936D01*
X46434586Y-26164938D01*
X46206344Y-26226094D01*
X46206335Y-26226098D01*
X45992171Y-26325964D01*
X45992169Y-26325965D01*
X45798597Y-26461505D01*
X45631505Y-26628597D01*
X45501575Y-26814158D01*
X45446998Y-26857783D01*
X45377500Y-26864977D01*
X45315145Y-26833454D01*
X45298425Y-26814158D01*
X45168494Y-26628597D01*
X45001402Y-26461506D01*
X45001395Y-26461501D01*
X44807834Y-26325967D01*
X44807830Y-26325965D01*
X44736727Y-26292809D01*
X44593663Y-26226097D01*
X44593659Y-26226096D01*
X44593655Y-26226094D01*
X44365413Y-26164938D01*
X44365403Y-26164936D01*
X44130001Y-26144341D01*
X44129999Y-26144341D01*
X43894596Y-26164936D01*
X43894586Y-26164938D01*
X43666344Y-26226094D01*
X43666335Y-26226098D01*
X43452171Y-26325964D01*
X43452169Y-26325965D01*
X43258600Y-26461503D01*
X43136284Y-26583819D01*
X43074961Y-26617303D01*
X43005269Y-26612319D01*
X42949336Y-26570447D01*
X42932421Y-26539470D01*
X42883354Y-26407913D01*
X42883350Y-26407906D01*
X42797190Y-26292812D01*
X42797187Y-26292809D01*
X42682093Y-26206649D01*
X42682086Y-26206645D01*
X42547379Y-26156403D01*
X42547372Y-26156401D01*
X42487844Y-26150000D01*
X41840000Y-26150000D01*
X41840000Y-27066988D01*
X41782993Y-27034075D01*
X41655826Y-27000000D01*
X41524174Y-27000000D01*
X41397007Y-27034075D01*
X41340000Y-27066988D01*
X41340000Y-26150000D01*
X40692155Y-26150000D01*
X40632627Y-26156401D01*
X40632620Y-26156403D01*
X40497913Y-26206645D01*
X40497906Y-26206649D01*
X40382812Y-26292809D01*
X40382809Y-26292812D01*
X40296649Y-26407906D01*
X40296645Y-26407913D01*
X40246403Y-26542620D01*
X40246401Y-26542627D01*
X40240000Y-26602155D01*
X20800000Y-26602155D01*
X20800000Y-23621992D01*
X21874671Y-23621992D01*
X21874671Y-23622007D01*
X21893964Y-23916363D01*
X21893965Y-23916373D01*
X21893966Y-23916380D01*
X21893968Y-23916390D01*
X21951518Y-24205716D01*
X21951521Y-24205730D01*
X22046349Y-24485080D01*
X22176825Y-24749660D01*
X22176829Y-24749667D01*
X22340725Y-24994955D01*
X22535241Y-25216758D01*
X22757044Y-25411274D01*
X22859604Y-25479802D01*
X23002335Y-25575172D01*
X23266923Y-25705652D01*
X23546278Y-25800481D01*
X23835620Y-25858034D01*
X23863888Y-25859886D01*
X24129993Y-25877329D01*
X24130000Y-25877329D01*
X24130007Y-25877329D01*
X24365675Y-25861881D01*
X24424380Y-25858034D01*
X24713722Y-25800481D01*
X24993077Y-25705652D01*
X25257665Y-25575172D01*
X25502957Y-25411273D01*
X25724758Y-25216758D01*
X25919273Y-24994957D01*
X26083172Y-24749665D01*
X26213652Y-24485077D01*
X26308481Y-24205722D01*
X26366034Y-23916380D01*
X26368681Y-23875992D01*
X76992671Y-23875992D01*
X76992671Y-23876007D01*
X77011964Y-24170363D01*
X77011965Y-24170373D01*
X77011966Y-24170380D01*
X77011968Y-24170390D01*
X77069518Y-24459716D01*
X77069521Y-24459730D01*
X77164349Y-24739080D01*
X77294825Y-25003660D01*
X77294829Y-25003667D01*
X77458725Y-25248955D01*
X77653241Y-25470758D01*
X77875044Y-25665274D01*
X78120332Y-25829170D01*
X78120339Y-25829174D01*
X78178864Y-25858035D01*
X78384923Y-25959652D01*
X78664278Y-26054481D01*
X78953620Y-26112034D01*
X78981888Y-26113886D01*
X79247993Y-26131329D01*
X79248000Y-26131329D01*
X79248007Y-26131329D01*
X79483675Y-26115881D01*
X79542380Y-26112034D01*
X79831722Y-26054481D01*
X80111077Y-25959652D01*
X80375665Y-25829172D01*
X80620957Y-25665273D01*
X80842758Y-25470758D01*
X81037273Y-25248957D01*
X81201172Y-25003665D01*
X81331652Y-24739077D01*
X81426481Y-24459722D01*
X81484034Y-24170380D01*
X81500682Y-23916390D01*
X81503329Y-23876007D01*
X81503329Y-23875992D01*
X81484035Y-23581636D01*
X81484034Y-23581620D01*
X81426481Y-23292278D01*
X81331652Y-23012923D01*
X81201172Y-22748336D01*
X81037273Y-22503043D01*
X80994655Y-22454447D01*
X80842758Y-22281241D01*
X80620955Y-22086725D01*
X80375667Y-21922829D01*
X80375660Y-21922825D01*
X80111080Y-21792349D01*
X79831730Y-21697521D01*
X79831724Y-21697519D01*
X79831722Y-21697519D01*
X79542380Y-21639966D01*
X79542373Y-21639965D01*
X79542363Y-21639964D01*
X79248007Y-21620671D01*
X79247993Y-21620671D01*
X78953636Y-21639964D01*
X78953624Y-21639965D01*
X78953620Y-21639966D01*
X78953612Y-21639967D01*
X78953609Y-21639968D01*
X78664283Y-21697518D01*
X78664269Y-21697521D01*
X78384919Y-21792349D01*
X78120334Y-21922828D01*
X77875041Y-22086728D01*
X77653241Y-22281241D01*
X77458728Y-22503041D01*
X77294828Y-22748334D01*
X77164349Y-23012919D01*
X77069521Y-23292269D01*
X77069518Y-23292283D01*
X77011968Y-23581609D01*
X77011964Y-23581636D01*
X76992671Y-23875992D01*
X26368681Y-23875992D01*
X26385329Y-23622000D01*
X26385329Y-23621992D01*
X26366035Y-23327636D01*
X26366034Y-23327620D01*
X26308481Y-23038278D01*
X26213652Y-22758923D01*
X26083172Y-22494336D01*
X25919273Y-22249043D01*
X25876655Y-22200447D01*
X25724758Y-22027241D01*
X25502955Y-21832725D01*
X25257667Y-21668829D01*
X25257660Y-21668825D01*
X24993080Y-21538349D01*
X24713730Y-21443521D01*
X24713724Y-21443519D01*
X24713722Y-21443519D01*
X24424380Y-21385966D01*
X24424373Y-21385965D01*
X24424363Y-21385964D01*
X24130007Y-21366671D01*
X24129993Y-21366671D01*
X23835636Y-21385964D01*
X23835624Y-21385965D01*
X23835620Y-21385966D01*
X23835612Y-21385967D01*
X23835609Y-21385968D01*
X23546283Y-21443518D01*
X23546269Y-21443521D01*
X23266919Y-21538349D01*
X23002334Y-21668828D01*
X22757041Y-21832728D01*
X22535241Y-22027241D01*
X22340728Y-22249041D01*
X22176828Y-22494334D01*
X22046349Y-22758919D01*
X21951521Y-23038269D01*
X21951518Y-23038283D01*
X21893968Y-23327609D01*
X21893964Y-23327636D01*
X21874671Y-23621992D01*
X20800000Y-23621992D01*
X20800000Y-20324000D01*
X20819685Y-20256961D01*
X20872489Y-20211206D01*
X20924000Y-20200000D01*
X82276000Y-20200000D01*
X82343039Y-20219685D01*
G37*
%TD.AperFunction*%
%TD*%
M02*
